<?xml version="1.0" encoding="UTF-8"?>
<svg id="_レイヤー_2" data-name="レイヤー 2" xmlns="http://www.w3.org/2000/svg" viewBox="0 0 1365.99 183.78">
  <defs>
    <style>
      .cls-1 {
        fill: #fff;
      }
    </style>
  </defs>
  <g id="_レイヤー_1-2" data-name="レイヤー 1">
    <path class="cls-1" d="M1365.89,16.71c.1-2.33.13-4.68.07-7.03h-.07s0-9.68,0-9.68H.1v15.64h-.1c.03.26.07.52.1.78v2.93h.41c9.26,59.53,76.37,116.33,153.17,110.97,4.7-.33,9.33-.84,13.88-1.5,24.88,30.77,70.56,49.85,120.39,46.37,24.67-1.72,47.08-8.76,65.55-19.51,18.85,18.86,49.28,30.11,82.2,27.81,38.29-2.68,69.12-22.92,80.48-49.57,20.07,14.16,47.42,22.01,76.57,19.97,26.18-1.83,49.09-11.3,65.47-25.32,25.01,30.32,70.34,49.07,119.75,45.61,24.67-1.72,47.08-8.76,65.55-19.51,18.86,18.86,49.28,30.11,82.2,27.81,38.29-2.68,69.12-22.92,80.48-49.57,20.07,14.16,47.42,22.01,76.57,19.97,29.96-2.09,55.65-14.2,72.15-31.67,23.64,9.73,51.06,14.44,79.72,12.43,74.59-5.21,127.16-56.39,131.11-114.28h.15v-2.65Z"/>
  </g>
</svg>