<?xml version="1.0" encoding="UTF-8"?>
<svg id="_レイヤー_2" data-name="レイヤー 2" xmlns="http://www.w3.org/2000/svg" viewBox="0 0 494.09 494.09">
  <defs>
    <style>
      .cls-1 {
        fill: #00a0e9;
      }

      .cls-1, .cls-2 {
        stroke: #231815;
        stroke-miterlimit: 10;
        stroke-width: 2px;
      }

      .cls-2 {
        fill: #8fc31f;
      }
    </style>
  </defs>
  <g id="_レイヤー_1-2" data-name="レイヤー 1">
    <g>
      <circle class="cls-1" cx="247.04" cy="247.04" r="246.04"/>
      <path class="cls-2" d="M409.51,62.19s-16.17,55.09-57.49,87.18c-41.32,32.09,8.27,51.86,8.27,51.86,0,0,27.24,5.99,13.48,20.48-13.76,14.49-28.01,22.05-18.27,38.32,9.74,16.27,23.89,11.26,23.89,11.26,0,0,16.7-9.55,21.4,12.21,4.69,21.76-6.59,29.61,23.62,30.27,30.21.66,32.6,12.59,32.6,12.59,0,0,10.99,11.72,10.5,30.05,0,0,17.22-32.01,23.63-78.23,6.42-46.22.14-145.62-81.63-216Z"/>
      <path class="cls-2" d="M222.95,176.32s2.31,38.42-26.59,68.01c-29.25,29.95,29.68,4.44,29.68,4.44,0,0,35.55-18.36,29.37-61.38-4.23-29.43-37.1-38.9-32.46-11.07Z"/>
      <path class="cls-2" d="M173.34,273.52s-15.84-13.74-16.62,2.79,5.41,14.6,2.32,29.67,25.89,4.18,25.89,4.18c0,0,12.37-4.64,9.27-19.1s-14.68-9.43-20.87-17.55Z"/>
      <path class="cls-2" d="M254.4,155.4s24.22,25.76,28.35-1.84c4.13-27.59-6.57-25.41,1.2-50.16,7.77-24.75-42.71-11.45-42.71-11.45,0,0-21.54,5.67-18.83,30.44,2.71,24.77,23.02,18.33,32,33.01Z"/>
      <path class="cls-2" d="M119.91,36.35s14.29,11.12,7.34,25.84,38.64,28.64,38.64,28.64l14.68,3.09s18.55,0,13.14,14.68c-5.41,14.68-36.41,26.28-36.41,26.28,0,0-12.28,1.55-12.28,16.23s26.28,18.55,26.28,18.55c0,0,14.68.77,10.82,12.37-3.86,11.59-44.21,5.2-55.65,13.91-16.23,12.37,1.55,37.1,1.55,37.1,0,0,14.55,14.42-2.32,23.96-27.79,15.72-51.78,0-51.78,0,0,0-19.32-15.46-33.23,16.23-13.91,31.69-34.1,26.14-34.1,26.14,0,0-21.33-80.21,20.23-162.14,0,0,29.14-64.75,93.1-100.87Z"/>
      <path class="cls-2" d="M357.83,424.75s4.64,37.51-50.72,18.76c-33.51-11.35-15.08-23.59-65.34-19.41s-73.93-21.06-73.93-21.06c0,0-19.53-15.65,19.47-35.63,39.01-19.98,61.44-41.1,66.26-46.57,7.93-9.01,30.07-7.99,54.34,18.68,23.76,26.12,93.15,40.62,65.13,49.92-27.91,12.65-15.84,18.72-15.19,35.32Z"/>
      <path class="cls-2" d="M106.78,279.03s13.6-10.72,19.39,15.43c3.5,15.83-5.67,11.51,7.9,30.22,13.57,18.71,9.29,33.98,9.29,33.98,0,0-1.5,11.37-18.59.82s-30.69-14.33-33.98-14.92c-5.42-.97-10.27-9.89-5.58-25.73,4.6-15.51-6.19-46.16,4.11-37.38,11.58,7.94,11.1,1.77,17.45-2.43Z"/>
    </g>
  </g>
</svg>