<?xml version="1.0" encoding="UTF-8"?>
<svg id="_レイヤー_2" data-name="レイヤー 2" xmlns="http://www.w3.org/2000/svg" viewBox="0 0 566.93 566.93">
  <defs>
    <style>
      .cls-1 {
        fill: #00913a;
      }

      .cls-1, .cls-2, .cls-3, .cls-4 {
        stroke-miterlimit: 10;
      }

      .cls-1, .cls-3, .cls-4 {
        stroke-width: 5px;
      }

      .cls-1, .cls-4 {
        stroke: #231815;
      }

      .cls-5, .cls-2 {
        fill: #fff;
      }

      .cls-2, .cls-3 {
        stroke: #00a0e9;
      }

      .cls-6 {
        fill: #231815;
      }

      .cls-3 {
        fill: none;
      }

      .cls-4 {
        fill: #e60012;
      }
    </style>
  </defs>
  <g id="_レイヤー_1-2" data-name="レイヤー 1">
    <rect class="cls-5" width="566.93" height="566.93"/>
    <ellipse class="cls-6" cx="233.13" cy="454.57" rx="138.38" ry="33.43"/>
    <path class="cls-4" d="M381.49,330.73c-1.44,78.91-45.1,134.22-123.2,145.6-78.1,11.38-134.02-29.73-159.63-104.39-25.92-75.56-5.78-154.76,119.22-172.97,128.64-18.74,165.07,52.21,163.62,131.76Z"/>
    <path class="cls-5" d="M136.57,373.2c8.13,24.04,16.89,33.87,6.16,33.22-7.31-.45-17.19-10.22-23.62-25.24-6.43-15.02-9.46-31.33-2.73-34.22,6.73-2.88,12.4,3.24,20.18,26.24Z"/>
    <ellipse class="cls-5" cx="154.62" cy="418.76" rx="5.89" ry="7.44" transform="translate(-188.67 133.41) rotate(-30)"/>
    <path class="cls-1" d="M246.23,237.05c19.29-.6,45.5-7.88,45.5-7.88,0,0-27.12-21.68-46.41-21.08-7.63.24-14.65,1.48-20.34,3.37,1.91-4.13,3.57-8.85,4.83-13.95,4.62-18.74-1.77-49.33-1.77-49.33,0,0-21.73,23.65-26.36,42.38-1.4,5.66-2.13,11.13-2.28,16.07-4.55-4.12-10.73-8.16-17.92-11.47-17.53-8.06-49.58-1.19-49.58-1.19,0,0,19.94,19.45,37.48,27.51,4.64,2.13,9.24,3.74,13.55,4.83-3.26,1.58-6.62,3.51-9.94,5.76-15.98,10.81-23.19,42.27-23.19,42.27,0,0,23.44-7.46,39.43-18.27,6.18-4.18,11.36-8.86,15.14-13.41,1.28,5.74,3.72,12.22,7.27,18.72,9.24,16.94,30.67,34.19,30.67,34.19,0,0,4.01-31.13-5.23-48.07-2.39-4.39-5.05-8.35-7.8-11.75,5.05,1,10.83,1.47,16.97,1.28Z"/>
    <g>
      <polygon class="cls-6" points="445.99 78.2 417.46 81.68 391.08 153.14 425.47 117.09 429.22 120.73 394.67 156.42 465.34 126.81 467.23 98.56 445.99 78.2"/>
      <rect class="cls-6" x="449.85" y="77.3" width="27.28" height="7.79" transform="translate(185.04 -298.12) rotate(43.78)"/>
    </g>
    <line class="cls-3" x1="292.61" y1="228.4" x2="390.18" y2="156.42"/>
    <rect class="cls-2" x="285.79" y="222.5" width="11.8" height="11.8" transform="translate(-78.77 225.79) rotate(-37.66)"/>
    <rect class="cls-2" x="385.18" y="148.82" width="11.8" height="11.8" transform="translate(-13.05 271.17) rotate(-37.66)"/>
  </g>
</svg>