<?xml version="1.0" encoding="UTF-8"?>
<svg id="_レイヤー_1" data-name="レイヤー 1" xmlns="http://www.w3.org/2000/svg" viewBox="0 0 370 319">
  <defs>
    <style>
      .cls-1 {
        opacity: .2;
      }

      .cls-1, .cls-2, .cls-3, .cls-4, .cls-5, .cls-6, .cls-7, .cls-8, .cls-9, .cls-10, .cls-11, .cls-12, .cls-13, .cls-14, .cls-15 {
        stroke-linecap: round;
        stroke-linejoin: round;
      }

      .cls-1, .cls-2, .cls-3, .cls-4, .cls-16, .cls-6, .cls-7, .cls-17, .cls-8, .cls-9, .cls-10, .cls-11, .cls-12, .cls-13, .cls-14, .cls-15 {
        stroke: #000;
        stroke-width: 2px;
      }

      .cls-2 {
        fill: #fff000;
      }

      .cls-3 {
        fill: red;
      }

      .cls-4 {
        fill: #999;
      }

      .cls-5 {
        stroke: #fff;
        stroke-width: 5px;
      }

      .cls-5, .cls-16, .cls-6 {
        fill: #fff;
      }

      .cls-16, .cls-17 {
        stroke-miterlimit: 10;
      }

      .cls-7 {
        fill: none;
      }

      .cls-17, .cls-10 {
        fill: #1b1464;
      }

      .cls-8 {
        fill: #f4db8e;
      }

      .cls-9 {
        fill: #ccc;
      }

      .cls-11 {
        fill: #231815;
      }

      .cls-12 {
        opacity: .3;
      }

      .cls-13 {
        fill: #40210f;
      }

      .cls-15 {
        fill: #009fe8;
      }
    </style>
  </defs>
  <g id="_眠れません" data-name="眠れません">
    <g>
      <path class="cls-5" d="M353.24,53.38c.89.43,1.58,1.07,2.06,1.95.48.87.65,1.79.49,2.76-.74,4.53-1.79,7.77-3.17,9.73s-3.09,2.93-5.14,2.93c-4.3,0-7.43-3.68-9.41-11.04,0-.04-.02-.06-.06-.06s-.06.02-.06.06l.12,3.08c.04.97-.22,1.85-.78,2.64-.56.79-1.31,1.33-2.24,1.6-3.91,1.12-7.96,1.96-12.14,2.5-.89.11-1.68-.13-2.38-.73-.7-.6-1.08-1.35-1.16-2.24l-.06-1.05c0-.31-.14-.37-.41-.17-.54.31-1.12.46-1.74.46h-6.74c-.27,0-.41.14-.41.41,0,.7-.24,1.29-.73,1.77-.49.48-1.07.73-1.77.73h-3.19c-.89,0-1.67-.33-2.32-.99s-.99-1.43-.99-2.32V21.78c0-.89.33-1.66.99-2.32s1.43-.99,2.32-.99h12.84c.89,0,1.66.33,2.32.99.66.66.99,1.43.99,2.32v39.09c0,.12.06.2.17.26s.21.05.29-.03c.19-.08.48-.15.87-.23.27-.08.41-.25.41-.52V21.2c0-.89.33-1.66.99-2.32s1.43-.99,2.32-.99h25.03c.89,0,1.66.33,2.32.99.66.66.99,1.43.99,2.32v13.42c0,.89-.33,1.66-.99,2.32s-1.43.99-2.32.99h-4.53c-.35,0-.52.18-.52.52,0,.7.04,1.63.12,2.79,0,.31.17.46.52.46h5.58c.89,0,1.66.33,2.32.99.66.66.99,1.43.99,2.32v2.09c0,.89-.33,1.67-.99,2.32-.66.66-1.43.99-2.32.99h-4.94c-.35,0-.48.17-.41.52.66,5.46,1.32,8.19,1.97,8.19.23,0,.5-1.41.81-4.24.08-.77.46-1.37,1.16-1.8.7-.43,1.41-.46,2.15-.12l.75.41ZM312.35,31.3v-3.6c0-.35-.17-.52-.52-.52h-1.34c-.31,0-.46.18-.46.52v3.6c0,.35.15.52.46.52h1.34c.35,0,.52-.17.52-.52ZM312.35,44.08v-3.6c0-.35-.17-.52-.52-.52h-1.34c-.31,0-.46.17-.46.52v3.6c0,.35.15.52.46.52h1.34c.35,0,.52-.18.52-.52ZM312.35,56.86v-3.6c0-.35-.17-.52-.52-.52h-1.34c-.31,0-.46.18-.46.52v3.6c0,.35.15.52.46.52h1.34c.35,0,.52-.17.52-.52ZM343.43,29.85v-3.31c0-.35-.18-.52-.52-.52h-9.99c-.35,0-.52.17-.52.52v3.31c0,.35.18.52.52.52h9.99c.35,0,.52-.17.52-.52ZM332.39,38.45v2.73c0,.35.18.52.52.52h2.38c.31,0,.46-.17.46-.52-.08-1.24-.12-2.17-.12-2.79,0-.31-.16-.46-.46-.46h-2.26c-.35,0-.52.18-.52.52ZM337.16,57.62c.27-.08.37-.27.29-.58-.31-1.51-.62-3.54-.93-6.1-.08-.35-.27-.52-.58-.52h-3.02c-.35,0-.52.17-.52.52v7.43c0,.35.15.49.46.41,1.47-.35,2.9-.73,4.3-1.16Z"/>
      <path class="cls-5" d="M352.55,112.68l1.51,2.09c.58.78.81,1.65.7,2.61s-.54,1.76-1.28,2.38c-3.87,3.14-7.61,4.7-11.21,4.7-3.21,0-5.57-1.04-7.06-3.11-1.49-2.07-2.24-5.68-2.24-10.83,0-2.05.29-4.28.87-6.68.58-2.56.87-4.78.87-6.68,0-2.71-.48-4.07-1.45-4.07-.27,0-.61.14-1.02.41-.41.27-1.24.99-2.5,2.15-1.26,1.16-3.24,3.04-5.95,5.63-.27.27-.41.56-.41.87v21.32c0,.89-.33,1.66-.99,2.32s-1.43.99-2.32.99h-3.83c-.89,0-1.67-.33-2.32-.99s-.99-1.43-.99-2.32v-11.15c0-.08-.04-.15-.12-.2-.08-.06-.16-.05-.23.03-.78.74-2,1.94-3.66,3.6-.66.62-1.45.93-2.38.93s-1.7-.31-2.32-.93l-2.32-2.32c-.62-.62-.93-1.37-.93-2.27s.31-1.66.93-2.32c3.1-3.1,6.66-6.62,10.69-10.57.23-.23.35-.5.35-.81v-3.89c0-.31-.18-.46-.52-.46h-7.78c-.89,0-1.66-.33-2.32-.99-.66-.66-.99-1.43-.99-2.32v-2.67c0-.89.33-1.66.99-2.32.66-.66,1.43-.99,2.32-.99h7.78c.35,0,.52-.18.52-.52v-3.72c0-.89.33-1.66.99-2.32s1.43-.99,2.32-.99h3.83c.89,0,1.66.33,2.32.99s.99,1.43.99,2.32v8.07c0,.08.05.14.15.17.1.04.18.04.26,0,3.02-2.59,5.29-4.2,6.8-4.82s3.37-.93,5.58-.93c3.45,0,5.9.99,7.38,2.96,1.47,1.97,2.21,5.63,2.21,10.98,0,1.9-.29,4.12-.87,6.68-.58,2.4-.87,4.63-.87,6.68,0,2.71.48,4.07,1.45,4.07.54,0,1.43-.46,2.67-1.39.7-.54,1.48-.75,2.35-.64s1.56.54,2.06,1.28Z"/>
      <path class="cls-5" d="M347.38,138.99c.89,0,1.66.33,2.32.99.66.66.99,1.43.99,2.32v2.67c0,.89-.33,1.67-.99,2.32s-1.43.99-2.32.99h-10.11c-.35,0-.52.18-.52.52v1.33c0,.31.17.46.52.46h7.78c.89,0,1.66.33,2.32.99.66.66.99,1.43.99,2.32v2.38c0,.89-.33,1.67-.99,2.32s-1.43.99-2.32.99h-7.78c-.35,0-.52.18-.52.52v6.04c0,.35.15.62.46.81,3.21,2.01,6.5,4.53,9.87,7.55.66.62,1.02,1.38,1.07,2.29.06.91-.22,1.7-.84,2.35l-1.97,2.09c-.62.66-1.37,1.02-2.26,1.07-.89.06-1.67-.22-2.32-.84-1.47-1.36-2.96-2.63-4.47-3.83-.23-.23-.45-.18-.64.17-.93,2.48-2.58,4.27-4.94,5.37-2.36,1.1-5.58,1.66-9.64,1.66-4.38,0-7.79-1.02-10.25-3.05-2.46-2.03-3.69-4.89-3.69-8.57s1.2-6.34,3.6-8.33c2.4-1.99,5.85-2.99,10.34-2.99,1.7,0,3.29.14,4.76.41.31.08.46-.06.46-.41v-1.8c0-.35-.15-.52-.46-.52h-15.97c-.89,0-1.67-.33-2.32-.99-.66-.66-.99-1.43-.99-2.32v-2.38c0-.89.33-1.66.99-2.32s1.43-.99,2.32-.99h15.97c.31,0,.46-.15.46-.46v-1.33c0-.35-.15-.52-.46-.52h-18.3c-.89,0-1.67-.33-2.32-.99-.66-.66-.99-1.43-.99-2.32v-2.67c0-.89.33-1.66.99-2.32s1.43-.99,2.32-.99h18.3c.31,0,.46-.17.46-.52v-.81c0-.89.33-1.66.99-2.32s1.43-.99,2.32-.99h3.83c.89,0,1.66.33,2.32.99.66.66.99,1.43.99,2.32v.81c0,.35.17.52.52.52h10.11ZM321.07,175.58c1.97,0,3.3-.21,3.98-.64.68-.43,1.08-1.35,1.19-2.79,0-.35-.12-.54-.35-.58-1.39-.43-2.61-.64-3.66-.64-3.1,0-4.65.78-4.65,2.32s1.16,2.32,3.49,2.32Z"/>
      <path class="cls-5" d="M349.59,200.97c.89-.04,1.66.26,2.32.9.66.64,1.01,1.4,1.04,2.29l.06,2.67c.04.93-.25,1.72-.87,2.38-.62.66-1.39,1.01-2.32,1.05l-3.83.17c-.35,0-.52.18-.52.52v8.48c0,3.02-.67,5.23-2,6.62-1.34,1.39-3.38,2.09-6.13,2.09-2.13,0-5.11-.35-8.94-1.05-.89-.19-1.6-.68-2.12-1.45-.52-.77-.71-1.61-.55-2.5l.58-3.08c.15-.89.6-1.6,1.34-2.12.73-.52,1.55-.73,2.44-.61,1.66.23,2.92.35,3.77.35.62,0,1.02-.12,1.19-.35.18-.23.26-.79.26-1.68v-4.36c0-.35-.16-.52-.46-.52-1.04.04-2.51.09-4.39.15-1.88.06-3.58.11-5.11.14-1.53.04-2.99.06-4.39.06-.31,0-.46.17-.46.52v15.62c0,1.7.21,2.9.64,3.6.43.7,1.26,1.19,2.5,1.48,1.24.29,3.29.44,6.16.44,4.14,0,8.77-.27,13.88-.81.89-.08,1.68.16,2.38.73.7.56,1.08,1.29,1.16,2.18l.29,3.08c.08.93-.18,1.74-.75,2.44-.58.7-1.34,1.08-2.27,1.16-5.42.54-10.32.81-14.69.81-5.42,0-9.51-.45-12.26-1.34-2.75-.89-4.69-2.38-5.81-4.47-1.12-2.09-1.68-5.19-1.68-9.29v-15.51c0-.35-.15-.52-.46-.52-.5,0-1.27.01-2.29.03s-1.79.03-2.29.03c-.89,0-1.66-.33-2.29-.99-.64-.66-.96-1.43-.96-2.32v-2.67c0-.89.33-1.66.99-2.32s1.43-.99,2.32-.99c.5,0,1.26,0,2.26-.03,1.01-.02,1.76-.03,2.26-.03.31,0,.46-.15.46-.46v-4.59c0-.89.33-1.66.99-2.32s1.43-.99,2.32-.99h3.83c.89,0,1.66.33,2.32.99.66.66.99,1.43.99,2.32v4.47c0,.31.15.46.46.46,1.39,0,2.85-.02,4.39-.06,1.53-.04,3.23-.09,5.11-.15,1.88-.06,3.34-.11,4.39-.14.31,0,.46-.18.46-.52v-5.23c0-.89.33-1.66.99-2.32s1.43-.99,2.32-.99h3.54c.89,0,1.66.33,2.32.99.66.66.99,1.43.99,2.32v4.94c0,.31.18.46.52.46.43,0,1.02-.02,1.8-.06.77-.04,1.37-.08,1.8-.11Z"/>
      <path class="cls-5" d="M350.4,280.01c.89.23,1.57.75,2.03,1.54.46.79.56,1.62.29,2.47-1.78,6.16-3.73,10.37-5.84,12.63-2.11,2.27-4.81,3.4-8.1,3.4-3.64,0-6.42-1.02-8.33-3.05-1.92-2.03-3.22-5.49-3.92-10.37-.27-2.05-.58-3.43-.93-4.12-.35-.7-.79-1.04-1.33-1.04-1.36,0-2.88,1.2-4.56,3.6-1.68,2.4-3.9,6.78-6.65,13.13-.39.85-1,1.46-1.83,1.83-.83.37-1.67.4-2.53.09l-3.72-1.28c-.85-.27-1.46-.82-1.83-1.66-.37-.83-.4-1.67-.09-2.53,5.96-15.57,11.36-29.41,16.2-41.53.35-.85.95-1.48,1.8-1.89.85-.41,1.72-.47,2.61-.2l3.77,1.05c.85.23,1.47.75,1.86,1.57.39.81.43,1.63.12,2.44-3.91,9.99-5.92,15.12-6.04,15.39v.12h.18c1.86-.77,3.35-1.16,4.47-1.16,2.67,0,4.69.93,6.04,2.79s2.26,5.15,2.73,9.87c.23,2.36.52,3.94.87,4.73.35.79.81,1.19,1.39,1.19,1.24,0,2.59-2.52,4.07-7.55.27-.89.8-1.56,1.6-2,.79-.44,1.62-.55,2.47-.32l3.19.87Z"/>
    </g>
    <g>
      <path d="M353.27,53.38c.89.43,1.58,1.07,2.06,1.95.48.87.65,1.79.49,2.76-.74,4.53-1.79,7.77-3.17,9.73s-3.09,2.93-5.14,2.93c-4.3,0-7.43-3.68-9.41-11.04,0-.04-.02-.06-.06-.06s-.06.02-.06.06l.12,3.08c.04.97-.22,1.85-.78,2.64-.56.79-1.31,1.33-2.24,1.6-3.91,1.12-7.96,1.96-12.14,2.5-.89.11-1.68-.13-2.38-.73-.7-.6-1.08-1.35-1.16-2.24l-.06-1.05c0-.31-.14-.37-.41-.17-.54.31-1.12.46-1.74.46h-6.74c-.27,0-.41.14-.41.41,0,.7-.24,1.29-.73,1.77-.49.48-1.07.73-1.77.73h-3.19c-.89,0-1.67-.33-2.32-.99s-.99-1.43-.99-2.32V21.78c0-.89.33-1.66.99-2.32s1.43-.99,2.32-.99h12.84c.89,0,1.66.33,2.32.99.66.66.99,1.43.99,2.32v39.09c0,.12.06.2.17.26s.21.05.29-.03c.19-.08.48-.15.87-.23.27-.08.41-.25.41-.52V21.2c0-.89.33-1.66.99-2.32s1.43-.99,2.32-.99h25.03c.89,0,1.66.33,2.32.99.66.66.99,1.43.99,2.32v13.42c0,.89-.33,1.66-.99,2.32s-1.43.99-2.32.99h-4.53c-.35,0-.52.18-.52.52,0,.7.04,1.63.12,2.79,0,.31.17.46.52.46h5.58c.89,0,1.66.33,2.32.99.66.66.99,1.43.99,2.32v2.09c0,.89-.33,1.67-.99,2.32-.66.66-1.43.99-2.32.99h-4.94c-.35,0-.48.17-.41.52.66,5.46,1.32,8.19,1.97,8.19.23,0,.5-1.41.81-4.24.08-.77.46-1.37,1.16-1.8.7-.43,1.41-.46,2.15-.12l.75.41ZM312.38,31.3v-3.6c0-.35-.17-.52-.52-.52h-1.34c-.31,0-.46.18-.46.52v3.6c0,.35.15.52.46.52h1.34c.35,0,.52-.17.52-.52ZM312.38,44.08v-3.6c0-.35-.17-.52-.52-.52h-1.34c-.31,0-.46.17-.46.52v3.6c0,.35.15.52.46.52h1.34c.35,0,.52-.18.52-.52ZM312.38,56.86v-3.6c0-.35-.17-.52-.52-.52h-1.34c-.31,0-.46.18-.46.52v3.6c0,.35.15.52.46.52h1.34c.35,0,.52-.17.52-.52ZM343.46,29.85v-3.31c0-.35-.18-.52-.52-.52h-9.99c-.35,0-.52.17-.52.52v3.31c0,.35.18.52.52.52h9.99c.35,0,.52-.17.52-.52ZM332.42,38.45v2.73c0,.35.18.52.52.52h2.38c.31,0,.46-.17.46-.52-.08-1.24-.12-2.17-.12-2.79,0-.31-.16-.46-.46-.46h-2.26c-.35,0-.52.18-.52.52ZM337.19,57.62c.27-.08.37-.27.29-.58-.31-1.51-.62-3.54-.93-6.1-.08-.35-.27-.52-.58-.52h-3.02c-.35,0-.52.17-.52.52v7.43c0,.35.15.49.46.41,1.47-.35,2.9-.73,4.3-1.16Z"/>
      <path d="M352.58,112.68l1.51,2.09c.58.78.81,1.65.7,2.61s-.54,1.76-1.28,2.38c-3.87,3.14-7.61,4.7-11.21,4.7-3.21,0-5.57-1.04-7.06-3.11-1.49-2.07-2.24-5.68-2.24-10.83,0-2.05.29-4.28.87-6.68.58-2.56.87-4.78.87-6.68,0-2.71-.48-4.07-1.45-4.07-.27,0-.61.14-1.02.41-.41.27-1.24.99-2.5,2.15-1.26,1.16-3.24,3.04-5.95,5.63-.27.27-.41.56-.41.87v21.32c0,.89-.33,1.66-.99,2.32s-1.43.99-2.32.99h-3.83c-.89,0-1.67-.33-2.32-.99s-.99-1.43-.99-2.32v-11.15c0-.08-.04-.15-.12-.2-.08-.06-.16-.05-.23.03-.78.74-2,1.94-3.66,3.6-.66.62-1.45.93-2.38.93s-1.7-.31-2.32-.93l-2.32-2.32c-.62-.62-.93-1.37-.93-2.27s.31-1.66.93-2.32c3.1-3.1,6.66-6.62,10.69-10.57.23-.23.35-.5.35-.81v-3.89c0-.31-.18-.46-.52-.46h-7.78c-.89,0-1.66-.33-2.32-.99-.66-.66-.99-1.43-.99-2.32v-2.67c0-.89.33-1.66.99-2.32.66-.66,1.43-.99,2.32-.99h7.78c.35,0,.52-.18.52-.52v-3.72c0-.89.33-1.66.99-2.32s1.43-.99,2.32-.99h3.83c.89,0,1.66.33,2.32.99s.99,1.43.99,2.32v8.07c0,.08.05.14.15.17.1.04.18.04.26,0,3.02-2.59,5.29-4.2,6.8-4.82s3.37-.93,5.58-.93c3.45,0,5.9.99,7.38,2.96,1.47,1.97,2.21,5.63,2.21,10.98,0,1.9-.29,4.12-.87,6.68-.58,2.4-.87,4.63-.87,6.68,0,2.71.48,4.07,1.45,4.07.54,0,1.43-.46,2.67-1.39.7-.54,1.48-.75,2.35-.64s1.56.54,2.06,1.28Z"/>
      <path d="M347.41,138.99c.89,0,1.66.33,2.32.99.66.66.99,1.43.99,2.32v2.67c0,.89-.33,1.67-.99,2.32s-1.43.99-2.32.99h-10.11c-.35,0-.52.18-.52.52v1.33c0,.31.17.46.52.46h7.78c.89,0,1.66.33,2.32.99.66.66.99,1.43.99,2.32v2.38c0,.89-.33,1.67-.99,2.32s-1.43.99-2.32.99h-7.78c-.35,0-.52.18-.52.52v6.04c0,.35.15.62.46.81,3.21,2.01,6.5,4.53,9.87,7.55.66.62,1.02,1.38,1.07,2.29.06.91-.22,1.7-.84,2.35l-1.97,2.09c-.62.66-1.37,1.02-2.26,1.07-.89.06-1.67-.22-2.32-.84-1.47-1.36-2.96-2.63-4.47-3.83-.23-.23-.45-.18-.64.17-.93,2.48-2.58,4.27-4.94,5.37-2.36,1.1-5.58,1.66-9.64,1.66-4.38,0-7.79-1.02-10.25-3.05-2.46-2.03-3.69-4.89-3.69-8.57s1.2-6.34,3.6-8.33c2.4-1.99,5.85-2.99,10.34-2.99,1.7,0,3.29.14,4.76.41.31.08.46-.06.46-.41v-1.8c0-.35-.15-.52-.46-.52h-15.97c-.89,0-1.67-.33-2.32-.99-.66-.66-.99-1.43-.99-2.32v-2.38c0-.89.33-1.66.99-2.32s1.43-.99,2.32-.99h15.97c.31,0,.46-.15.46-.46v-1.33c0-.35-.15-.52-.46-.52h-18.3c-.89,0-1.67-.33-2.32-.99-.66-.66-.99-1.43-.99-2.32v-2.67c0-.89.33-1.66.99-2.32s1.43-.99,2.32-.99h18.3c.31,0,.46-.17.46-.52v-.81c0-.89.33-1.66.99-2.32s1.43-.99,2.32-.99h3.83c.89,0,1.66.33,2.32.99.66.66.99,1.43.99,2.32v.81c0,.35.17.52.52.52h10.11ZM321.1,175.58c1.97,0,3.3-.21,3.98-.64.68-.43,1.08-1.35,1.19-2.79,0-.35-.12-.54-.35-.58-1.39-.43-2.61-.64-3.66-.64-3.1,0-4.65.78-4.65,2.32s1.16,2.32,3.49,2.32Z"/>
      <path d="M349.62,200.97c.89-.04,1.66.26,2.32.9.66.64,1.01,1.4,1.04,2.29l.06,2.67c.04.93-.25,1.72-.87,2.38-.62.66-1.39,1.01-2.32,1.05l-3.83.17c-.35,0-.52.18-.52.52v8.48c0,3.02-.67,5.23-2,6.62-1.34,1.39-3.38,2.09-6.13,2.09-2.13,0-5.11-.35-8.94-1.05-.89-.19-1.6-.68-2.12-1.45-.52-.77-.71-1.61-.55-2.5l.58-3.08c.15-.89.6-1.6,1.34-2.12.73-.52,1.55-.73,2.44-.61,1.66.23,2.92.35,3.77.35.62,0,1.02-.12,1.19-.35.18-.23.26-.79.26-1.68v-4.36c0-.35-.16-.52-.46-.52-1.04.04-2.51.09-4.39.15-1.88.06-3.58.11-5.11.14-1.53.04-2.99.06-4.39.06-.31,0-.46.17-.46.52v15.62c0,1.7.21,2.9.64,3.6.43.7,1.26,1.19,2.5,1.48,1.24.29,3.29.44,6.16.44,4.14,0,8.77-.27,13.88-.81.89-.08,1.68.16,2.38.73.7.56,1.08,1.29,1.16,2.18l.29,3.08c.08.93-.18,1.74-.75,2.44-.58.7-1.34,1.08-2.27,1.16-5.42.54-10.32.81-14.69.81-5.42,0-9.51-.45-12.26-1.34-2.75-.89-4.69-2.38-5.81-4.47-1.12-2.09-1.68-5.19-1.68-9.29v-15.51c0-.35-.15-.52-.46-.52-.5,0-1.27.01-2.29.03s-1.79.03-2.29.03c-.89,0-1.66-.33-2.29-.99-.64-.66-.96-1.43-.96-2.32v-2.67c0-.89.33-1.66.99-2.32s1.43-.99,2.32-.99c.5,0,1.26,0,2.26-.03,1.01-.02,1.76-.03,2.26-.03.31,0,.46-.15.46-.46v-4.59c0-.89.33-1.66.99-2.32s1.43-.99,2.32-.99h3.83c.89,0,1.66.33,2.32.99.66.66.99,1.43.99,2.32v4.47c0,.31.15.46.46.46,1.39,0,2.85-.02,4.39-.06,1.53-.04,3.23-.09,5.11-.15,1.88-.06,3.34-.11,4.39-.14.31,0,.46-.18.46-.52v-5.23c0-.89.33-1.66.99-2.32s1.43-.99,2.32-.99h3.54c.89,0,1.66.33,2.32.99.66.66.99,1.43.99,2.32v4.94c0,.31.18.46.52.46.43,0,1.02-.02,1.8-.06.77-.04,1.37-.08,1.8-.11Z"/>
      <path d="M350.43,280.01c.89.23,1.57.75,2.03,1.54.46.79.56,1.62.29,2.47-1.78,6.16-3.73,10.37-5.84,12.63-2.11,2.27-4.81,3.4-8.1,3.4-3.64,0-6.42-1.02-8.33-3.05-1.92-2.03-3.22-5.49-3.92-10.37-.27-2.05-.58-3.43-.93-4.12-.35-.7-.79-1.04-1.33-1.04-1.36,0-2.88,1.2-4.56,3.6-1.68,2.4-3.9,6.78-6.65,13.13-.39.85-1,1.46-1.83,1.83-.83.37-1.67.4-2.53.09l-3.72-1.28c-.85-.27-1.46-.82-1.83-1.66-.37-.83-.4-1.67-.09-2.53,5.96-15.57,11.36-29.41,16.2-41.53.35-.85.95-1.48,1.8-1.89.85-.41,1.72-.47,2.61-.2l3.77,1.05c.85.23,1.47.75,1.86,1.57.39.81.43,1.63.12,2.44-3.91,9.99-5.92,15.12-6.04,15.39v.12h.18c1.86-.77,3.35-1.16,4.47-1.16,2.67,0,4.69.93,6.04,2.79s2.26,5.15,2.73,9.87c.23,2.36.52,3.94.87,4.73.35.79.81,1.19,1.39,1.19,1.24,0,2.59-2.52,4.07-7.55.27-.89.8-1.56,1.6-2,.79-.44,1.62-.55,2.47-.32l3.19.87Z"/>
    </g>
    <g>
      <ellipse class="cls-12" cx="66.66" cy="101.22" rx="38.11" ry="7.83"/>
      <rect class="cls-14" x="38.63" y="21.08" width="3.22" height="30.05" rx="1.61" ry="1.61" transform="translate(94.14 40.35) rotate(142.61)"/>
      <path class="cls-4" d="M32.28,25.69c-7.44,5.68-9.64,15.3-4.92,21.47l26.93-20.58c-4.72-6.17-14.57-6.57-22.01-.89Z"/>
      <rect class="cls-14" x="91.33" y="21.08" width="3.22" height="30.05" rx="1.61" ry="1.61" transform="translate(41.03 -49.02) rotate(37.39)"/>
      <path class="cls-4" d="M100.9,25.69c7.44,5.68,9.64,15.3,4.92,21.47l-26.93-20.58c4.72-6.17,14.57-6.57,22.01-.89Z"/>
      <path class="cls-14" d="M69.14,22.28h-4.96c-.87,0-1.58.62-1.58,1.39s.71,1.39,1.58,1.39h1.33v5.53h1.94v-5.53h1.69c.87,0,1.58-.62,1.58-1.39s-.71-1.39-1.58-1.39Z"/>
      <polygon class="cls-14" points="44.54 104.44 42.23 102.66 50.91 89.56 54.91 92.62 44.54 104.44"/>
      <polygon class="cls-14" points="88.13 104.44 90.44 102.66 81.76 89.56 77.75 92.62 88.13 104.44"/>
      <ellipse class="cls-13" cx="66.66" cy="65.66" rx="34.4" ry="34.37"/>
      <ellipse class="cls-6" cx="66.66" cy="65.66" rx="29.69" ry="29.66"/>
      <line class="cls-7" x1="66.66" y1="66.21" x2="66.66" y2="45.57"/>
      <line class="cls-7" x1="66.66" y1="66.21" x2="80.95" y2="66.21"/>
      <circle class="cls-11" cx="66.66" cy="66.21" r="1.11"/>
    </g>
    <path class="cls-16" d="M271.56,193.4c-63.14,122.88-37.1,98.57-161.34,97.14-105.31-1.21-92.39-15.77-41.14-101.87,75.91-127.51,58.63-86.68,156.83-92.73,92.51-5.7,80.73,29.2,45.65,97.46Z"/>
    <path class="cls-1" d="M294.72,112.31c-5.26-10.09-19.94-13.79-19.94-13.79,26.75,9.04,12.29,35.46-9.58,79.77l13.1,4.03,17.63-45.06s4.22-14.54-1.21-24.96Z"/>
    <ellipse class="cls-10" cx="178.26" cy="166.17" rx="45.22" ry="70.23"/>
    <rect class="cls-6" x="134.79" y="29.58" width="81.15" height="120.48" transform="translate(85.32 265.07) rotate(-89.93)"/>
    <polygon class="cls-9" points="235.55 130.47 241.36 125.71 241.34 44.05 235.65 49.32 235.55 130.47"/>
    <polygon class="cls-6" points="115.17 49.17 120.08 44.13 241.34 44.05 235.65 49.32 115.17 49.17"/>
    <ellipse class="cls-3" cx="174.77" cy="89.82" rx="24.4" ry="24.6"/>
    <path class="cls-15" d="M132.02,59.48c-.12,1.49-2.09,4.91-2.93,8.09-1.01,3.79,1.53,7.11,3.42,7.11,1.89,0,3.91-3.21,3.44-7.11-.23-1.87-1.4-3.51-1.71-5.03"/>
    <path class="cls-3" d="M244.26,41.29c32.2,30.56,1.11,8.07.76,20.12-1.26,43.27-11.41,12.98-32.45,2.29-27.04-13.74-110.47-4.6-49.82-31.71,16.6-7.42,51.86-18.84,81.51,9.3Z"/>
    <path class="cls-1" d="M239.63,37.25c26.76,25.59-3.07,4.64-3.11,16.3-.1,27.84-4.68,25.6-13.65,17.31,0,0,11.79,12.56,16.28,13.12,4.49.56,6.63-12.81,6.09-24,0,0-1.04-4.83,11.65-1.69,10.66,2.63-17.27-21.05-17.27-21.05Z"/>
    <ellipse class="cls-6" cx="269.4" cy="65.22" rx="11.27" ry="11.36"/>
    <path class="cls-6" d="M62.72,172.9c-4.67,6.82-9.72,14.29-15.22,22.48-56.32,83.87-32.09,99.23,45.2,99.23,136.52,0,115.24,25.36,174.5-100.2,2.22-4.71,4.39-9.21,6.47-13.51l-210.94-8Z"/>
    <path class="cls-1" d="M259.25,180.35c-1.07,5.39-3.33,9.41-5.87,14.79-39.3,83.27-40.46,99.05-78.43,100.98,0,0,26.98.94,39.54-8.24,13.05-9.54,35.08-55.44,35.08-55.44l24.09-51.54-14.41-.55Z"/>
    <path class="cls-17" d="M92.13,174.01c-4.44,6.38-9.82,14.75-15.41,23.08-40.2,59.87-22.9,70.83,32.26,70.83,97.45,0,82.26,18.1,124.56-71.53,2.66-5.64,5.58-11.89,7.91-16.72l-149.32-5.66Z"/>
    <path class="cls-1" d="M264.39,192.24c-25.05,67.41,16.15,5.64-161.4,14.53-57.79,2.89-80.16,18.71-49.03-24.24,24.09-33.24,67.48-33.19,166.59-20.62,55.02,6.98,43.85,30.32,43.85,30.32Z"/>
    <path class="cls-16" d="M279.06,184.19c-27.01,67.41,17.41,5.64-174.04,14.53-62.32,2.89-86.43,18.71-52.87-24.24,25.98-33.24,72.77-33.19,179.63-20.62,59.32,6.98,47.28,30.32,47.28,30.32Z"/>
    <ellipse class="cls-8" cx="183.5" cy="178" rx="18.49" ry="9.84" transform="translate(-53.72 273.3) rotate(-66.02)"/>
    <path class="cls-10" d="M218.41,130.42c-1.68,26.42-21.18,51.9-21.18,51.9l-26.49-6.22c19.78-24.53,19.7-45.7,19.7-45.7h27.97Z"/>
    <ellipse class="cls-8" cx="151" cy="175.66" rx="9.84" ry="18.49" transform="translate(-19.7 19.08) rotate(-6.79)"/>
    <path class="cls-10" d="M135.3,130.41c-6.96,25.7,3.09,48.45,3.09,48.45l25.86-2.91c-10.94-28.76-2.43-45.57-2.43-45.57l-26.51.03Z"/>
    <path class="cls-1" d="M269.61,164.77s-13.06,29.78-18.93,47.52c0,0,12.52,5.73,15.16,3.02.84-.86,2.16-2.13,4.81-8.71,2.12-5.27,9.42-25.5,9.42-25.5,0,0,2.31-9.2-10.45-16.33Z"/>
    <path class="cls-2" d="M194.96,67.84s-2.6,8.55-11.38,13.39c0,0,7.76,5.2,11.2,15.14,0,0,4.21-11.53,10.68-14.94-5.06-2.53-9.18-9.06-10.5-13.59Z"/>
    <path class="cls-2" d="M155.46,67.57s-2.6,8.55-11.38,13.39c0,0,7.76,5.2,11.2,15.14,0,0,4.21-11.53,10.68-14.94-5.06-2.53-9.18-9.06-10.5-13.59Z"/>
  </g>
</svg>