<?xml version="1.0" encoding="UTF-8"?>
<svg id="_レイヤー_1" data-name="レイヤー 1" xmlns="http://www.w3.org/2000/svg" xmlns:xlink="http://www.w3.org/1999/xlink" viewBox="0 0 370 320">
  <defs>
    <style>
      .cls-1 {
        opacity: .2;
      }

      .cls-1, .cls-2, .cls-3, .cls-4, .cls-5, .cls-6, .cls-7, .cls-8, .cls-9, .cls-10, .cls-11, .cls-12 {
        stroke-linecap: round;
        stroke-linejoin: round;
      }

      .cls-1, .cls-2, .cls-3, .cls-5, .cls-6, .cls-7, .cls-8, .cls-9, .cls-10, .cls-11, .cls-12 {
        stroke: #000;
        stroke-width: 2px;
      }

      .cls-2 {
        fill: url(#_名称未設定グラデーション_652);
      }

      .cls-3 {
        fill: red;
      }

      .cls-4 {
        stroke: #fff;
        stroke-width: 5px;
      }

      .cls-4, .cls-5 {
        fill: #fff;
      }

      .cls-6 {
        fill: none;
      }

      .cls-7 {
        fill: #f4db8e;
      }

      .cls-8 {
        fill: #0dac67;
      }

      .cls-9 {
        fill: #1b1464;
      }

      .cls-10 {
        opacity: .3;
      }

      .cls-11 {
        fill: #40210f;
      }

      .cls-12 {
        fill: #009fe8;
      }
    </style>
    <linearGradient id="_名称未設定グラデーション_652" data-name="名称未設定グラデーション 652" x1="113.44" y1="109.27" x2="183.32" y2="109.27" gradientUnits="userSpaceOnUse">
      <stop offset="0" stop-color="#fff"/>
      <stop offset="1" stop-color="#c9caca"/>
    </linearGradient>
  </defs>
  <g id="_空気読みすぎて酸欠です_" data-name="空気読みすぎて酸欠です…">
    <g>
      <path class="cls-4" d="M346.09,24.77c.62.08,1.12.34,1.5.79.38.45.55.98.5,1.6-.08.77-.16,1.39-.25,1.87-.09.48-.28.9-.56,1.27-.28.37-.57.64-.85.81-.28.17-.76.3-1.45.4-.68.1-1.35.17-2,.19-.66.03-1.6.04-2.83.04h-2.31c-1.26,0-2.24-.02-2.93-.08-.69-.05-1.3-.13-1.81-.25-.51-.12-.87-.32-1.08-.62s-.35-.62-.42-.98c-.08-.36-.12-.87-.12-1.54v-6.4c0-.23-.12-.35-.35-.35h-.85c-.26,0-.39.1-.39.31-.46,5.32-3.39,9.03-8.79,11.14-.03.05-.04.09-.04.12h20.35c.59,0,1.1.22,1.54.66.44.44.66.95.66,1.54v1.19c0,.59-.22,1.1-.66,1.54s-.95.65-1.54.65h-6.9c-.23,0-.35.12-.35.35v3.01c0,.21.12.31.35.31h10.56c.59,0,1.1.22,1.54.66s.66.95.66,1.54v1.39c0,.59-.22,1.1-.66,1.54-.44.44-.95.66-1.54.66h-29.13c-.59,0-1.1-.22-1.54-.66-.44-.44-.66-.95-.66-1.54v-1.39c0-.59.22-1.1.66-1.54s.95-.66,1.54-.66h10.56c.23,0,.35-.1.35-.31v-3.01c0-.23-.12-.35-.35-.35h-6.7c-.59,0-1.1-.22-1.54-.65s-.66-.95-.66-1.54v-1.19c0-.44.09-.8.27-1.08.03-.1-.03-.17-.15-.19l-1.04.23c-.62.13-1.19.03-1.72-.31-.53-.33-.88-.8-1.06-1.39l-.5-1.62c-.15-.54-.08-1.05.21-1.54.3-.49.73-.78,1.29-.89,2.85-.51,4.9-1.31,6.15-2.39s1.89-2.51,1.95-4.28c0-.21-.12-.31-.35-.31h-1.62c-.23,0-.35.12-.35.35v1.7c0,.59-.22,1.1-.66,1.54-.44.44-.95.66-1.54.66h-2.54c-.59,0-1.1-.22-1.54-.66-.44-.44-.66-.95-.66-1.54v-5.43c0-.59.22-1.1.66-1.54.44-.44.95-.65,1.54-.65h10.56c.23,0,.35-.12.35-.35v-.73c0-.59.22-1.1.66-1.54.44-.44.95-.66,1.54-.66h2.93c.59,0,1.1.22,1.54.66.44.44.66.95.66,1.54v.73c0,.23.12.35.35.35h10.56c.59,0,1.1.22,1.54.65.44.44.66.95.66,1.54v3.12c0,.59-.22,1.1-.66,1.54-.44.44-.95.66-1.54.66h-3.08c-.46,0-.85-.16-1.17-.48-.32-.32-.48-.71-.48-1.18,0-.18-.09-.27-.27-.27h-1.31c-.23,0-.35.12-.35.35v3.51c0,.57.04.9.13,1,.09.1.43.15,1.02.15h.38c.69,0,1.12-.12,1.27-.35.28-.41.49-.71.64-.91.14-.19.37-.39.67-.58.31-.19.62-.28.92-.25l2.62.31Z"/>
      <path class="cls-4" d="M315.22,66l-1.77-1.19c-.49-.33-.78-.79-.87-1.37-.09-.58.05-1.1.4-1.56,2-2.75,3.62-5.73,4.86-8.94.23-.59.62-1.04,1.16-1.35.54-.31,1.12-.41,1.73-.31l3.2.69c.33.05.58.23.75.52.17.3.2.6.1.91-.05.1-.01.15.12.15h19.61c.59,0,1.1.22,1.54.66.44.44.66.95.66,1.54v1.2c0,.59-.22,1.1-.66,1.54-.44.44-.95.65-1.54.65h-21.77c-.21,0-.36.09-.46.27-.05.1-.12.23-.21.39s-.16.28-.21.39c-.05.05-.05.12,0,.19.05.08.12.12.19.12h20.15c.59,0,1.1.22,1.54.66.44.44.66.95.66,1.54v.04c0,.59-.22,1.1-.66,1.54-.44.44-.95.66-1.54.66h-19.61c-.57,0-1.05-.2-1.46-.6-.41-.4-.62-.89-.62-1.48,0-.05-.03-.08-.08-.08s-.09.03-.12.08c-.64.98-1.27,1.88-1.89,2.7-.38.49-.89.78-1.5.87-.62.09-1.18-.04-1.7-.4ZM333.8,82.22c.46.36.72.84.79,1.45.06.6-.11,1.12-.52,1.56l-1.12,1.19c-.41.44-.92.69-1.52.75-.6.06-1.15-.1-1.64-.48-.41-.33-1.11-.88-2.1-1.64-.99-.76-1.73-1.33-2.22-1.72-.18-.15-.37-.15-.58,0-2.39,1.59-4.84,2.94-7.36,4.05-.59.26-1.18.28-1.77.08-.59-.21-1.04-.58-1.35-1.12l-.92-1.62c-.28-.51-.33-1.04-.14-1.58.19-.54.55-.93,1.06-1.16,1.9-.85,3.58-1.73,5.05-2.66.2-.1.2-.22,0-.35-1.08-.77-1.98-1.39-2.7-1.85-.49-.33-.78-.79-.89-1.37-.1-.58.03-1.1.38-1.56l.96-1.23c.38-.49.89-.78,1.5-.89.62-.1,1.18.01,1.7.35,1.13.72,2.54,1.68,4.24,2.89.15.1.32.09.5-.04,1.16-.98,2.12-1.85,2.89-2.62.44-.44.95-.66,1.54-.67.59-.01,1.1.19,1.54.6l1.27,1.23c.44.44.67.96.69,1.56.02.6-.17,1.12-.58,1.56-.77.8-1.49,1.5-2.16,2.12-.18.18-.18.33,0,.46.15.13.64.51,1.46,1.16.82.64,1.48,1.16,1.97,1.54ZM347.24,72.4c.62.13,1.12.44,1.5.93.39.49.57,1.04.54,1.66-.23,3.31-.62,5.9-1.16,7.77-.54,1.86-1.19,3.11-1.95,3.76-.76.64-1.74.96-2.95.96-2.54,0-4.63-1.27-6.26-3.8-1.63-2.53-2.5-6.42-2.6-11.66,0-.23-.1-.35-.31-.35h-16.18c-.59,0-1.1-.22-1.54-.65s-.66-.95-.66-1.54v-1c0-.59.22-1.1.66-1.54.44-.44.95-.65,1.54-.65h21.43c.59,0,1.1.21,1.54.64.44.42.66.93.66,1.52,0,2.49.08,4.57.25,6.24.17,1.67.34,2.81.52,3.41.18.6.37.91.58.91.1,0,.18-.08.23-.25.05-.17.12-.64.21-1.41.09-.77.2-1.93.33-3.47.05-.59.31-1.06.79-1.41s1-.47,1.56-.37l1.27.31Z"/>
      <path class="cls-4" d="M324.28,102.26h-9.67c-.59,0-1.1-.22-1.54-.65s-.66-.95-.66-1.54v-.81c0-.59.22-1.1.66-1.54s.95-.66,1.54-.66h9.67c.59,0,1.1.22,1.54.66s.66.95.66,1.54v.81c0,.59-.22,1.1-.66,1.54s-.95.65-1.54.65ZM340.89,98.02c-.23,0-.35.12-.35.35v.46c0,.23.12.35.35.35h3.81c.59,0,1.1.22,1.54.65.44.44.66.95.66,1.54v.42c0,.59-.22,1.1-.66,1.54s-.95.65-1.54.65h-14.87c-.59,0-1.1-.22-1.54-.65s-.66-.95-.66-1.54v-.42c0-.59.22-1.1.66-1.54.44-.44.95-.65,1.54-.65h3.43c.23,0,.35-.12.35-.35v-.46c0-.23-.12-.35-.35-.35h-5.55c-.59,0-1.1-.22-1.54-.65s-.66-.95-.66-1.54v-.12c0-.05-.03-.09-.08-.12-.05-.02-.1-.01-.15.04-.38.31-.85.46-1.39.46h-8.32c-.59,0-1.1-.22-1.54-.65-.44-.44-.66-.95-.66-1.54v-.23c0-.59.22-1.1.66-1.54.44-.44.95-.66,1.54-.66h8.32c.51,0,.98.17,1.39.5.41.33.67.75.77,1.23.05.15.14.19.27.12.41-.33.87-.5,1.39-.5h5.55c.23,0,.35-.12.35-.35v-.35c0-.59.22-1.1.66-1.54.44-.44.95-.66,1.54-.66h2.54c.59,0,1.1.22,1.54.66.44.44.65.95.65,1.54v.35c0,.23.12.35.35.35h5.36c.59,0,1.1.22,1.54.66.44.44.65.95.65,1.54v.81c0,.59-.22,1.1-.65,1.54-.44.44-.95.65-1.54.65h-5.36ZM346.47,115.87c.62.08,1.12.35,1.52.83.4.48.58,1.02.56,1.64-.05,1.34-.11,2.4-.17,3.18-.06.78-.21,1.49-.42,2.12-.22.63-.42,1.08-.62,1.35s-.56.49-1.1.65-1.05.26-1.52.29c-.48.02-1.23.04-2.25.04-1.08,0-1.91-.01-2.51-.04-.59-.03-1.15-.11-1.68-.25-.53-.14-.89-.3-1.1-.46-.21-.17-.39-.47-.56-.91-.17-.44-.26-.89-.29-1.35s-.04-1.13-.04-2v-7.63c0-.59.22-1.1.66-1.54.44-.44.95-.66,1.54-.66h1.97c.41,0,.8.1,1.16.31.18.13.27.09.27-.12v-1.04c0-.21-.12-.31-.35-.31h-9.75c-.21,0-.31.1-.31.31v.5c0,.23.1.35.31.35h1.54c.59,0,1.1.21,1.54.64.44.42.64.93.62,1.52-.13,3.29-.6,5.84-1.43,7.65-.82,1.81-2.15,3.32-3.97,4.53-.51.31-1.06.39-1.64.23-.58-.15-1.02-.5-1.33-1.04l-.69-1.27c-.03-.05-.06-.08-.12-.08s-.09.03-.12.08c-.13.46-.39.85-.79,1.16-.4.31-.84.46-1.33.46h-4.97c-.1,0-.15.05-.15.15,0,.28-.1.52-.31.71-.21.19-.44.29-.69.29h-2.39c-.59,0-1.1-.22-1.54-.66-.44-.44-.66-.95-.66-1.54v-7.75c0-.59.22-1.1.66-1.54.44-.44.95-.65,1.54-.65h8.52c.59,0,1.1.22,1.54.65.44.44.66.95.66,1.54v3.54c0,.05.03.09.08.12.05.03.1.01.15-.04.03-.03.06-.07.12-.14.05-.06.09-.11.12-.13,1.21-1.03,1.95-2.57,2.24-4.62.05-.23-.05-.35-.31-.35h-.96c-.57,0-1.05-.18-1.46-.54-.41-.36-.66-.81-.73-1.35,0-.18-.08-.22-.23-.12-.38.31-.85.46-1.39.46h-7.94c-.59,0-1.1-.22-1.54-.66-.44-.44-.66-.95-.66-1.54v-.04c0-.59.22-1.1.66-1.54s.95-.66,1.54-.66h7.94c.54,0,1,.15,1.39.46.05.05.1.06.15.04s.08-.06.08-.12v-1.77c0-.05-.03-.09-.08-.12-.05-.02-.09-.01-.12.04-.41.33-.89.5-1.43.5h-7.94c-.59,0-1.1-.22-1.54-.66-.44-.44-.66-.95-.66-1.54v-.04c0-.59.22-1.1.66-1.54.44-.44.95-.66,1.54-.66h7.94c.59,0,1.1.22,1.54.66.44.44.65.95.65,1.54v.15c0,.05.02.09.06.12.04.03.08.01.14-.04.41-.33.89-.5,1.43-.5h18.15c.59,0,1.1.22,1.54.65.44.44.66.95.66,1.54v4.66c0,.59-.22,1.1-.66,1.54-.44.44-.95.66-1.54.66h-1.77c-.41,0-.8-.1-1.16-.31-.18-.13-.27-.09-.27.12v5.39c0,.36.03.58.08.66.05.08.22.12.5.12.1,0,.18-.01.23-.04.05-.02.1-.12.15-.29.05-.17.08-.4.1-.71.01-.31.03-.77.06-1.39.03-.59.26-1.08.69-1.46s.94-.54,1.5-.46l.5.04ZM321.46,120.41v-1.85c0-.21-.12-.31-.35-.31h-1.85c-.21,0-.31.1-.31.31v1.85c0,.23.1.35.31.35h1.85c.23,0,.35-.12.35-.35Z"/>
      <path class="cls-4" d="M346.78,146.46c.54.28.89.72,1.06,1.31.17.59.11,1.17-.17,1.73l-.96,2.04c-.26.51-.67.85-1.23,1.02-.57.17-1.09.11-1.58-.17-.13-.05-.31-.15-.56-.31-.24-.15-.43-.26-.56-.31-.15-.08-.26-.01-.31.19-.44,2.72-1.17,4.82-2.2,6.3-1.03,1.48-2.62,2.91-4.78,4.3-.51.33-1.07.42-1.66.27-.59-.15-1.04-.49-1.35-1l-1.23-2c-.31-.51-.38-1.07-.23-1.66.15-.59.49-1.05,1-1.39,1.26-.82,2.17-1.73,2.74-2.74s.96-2.5,1.2-4.51c0-.21-.09-.33-.27-.38-.98-.23-2.16-.41-3.54-.54-.21,0-.33.1-.38.31-.44,2.31-.89,4.28-1.37,5.92-.48,1.63-.97,2.95-1.48,3.95s-1.11,1.79-1.79,2.35-1.36.94-2.04,1.14-1.5.29-2.45.29c-2.36,0-4.53-1.02-6.49-3.06-1.97-2.04-2.95-4.36-2.95-6.96s1.04-4.68,3.12-6.47c2.08-1.8,5.01-2.99,8.79-3.58.18-.02.29-.14.35-.35.13-1,.26-2.43.38-4.28,0-.23-.09-.35-.27-.35h-7.28c-.59,0-1.1-.22-1.54-.65s-.65-.95-.65-1.54v-1.77c0-.59.22-1.1.65-1.54s.95-.66,1.54-.66h12.95c.59,0,1.1.22,1.54.66s.66.95.66,1.54v3.97c-.03.28-.1.95-.23,2-.13,1.05-.23,1.85-.31,2.39-.05.26.04.39.27.39.67.05,1.61.18,2.81.39.08.03.15,0,.21-.08.06-.08.1-.15.1-.23.02-1.13.04-3.04.04-5.74,0-.59.22-1.1.66-1.54.44-.44.95-.65,1.54-.65h2.54c.59,0,1.1.22,1.54.65.44.44.65.95.65,1.54,0,2.18-.05,4.77-.15,7.75,0,.23.1.39.31.46,1.1.44,2.24.98,3.39,1.62ZM321.85,155.25c1.03,0,1.9-1.96,2.62-5.9.03-.08.01-.15-.04-.21-.05-.06-.12-.08-.19-.06-2.75.67-4.12,1.82-4.12,3.47,0,.59.2,1.19.62,1.79.41.6.78.91,1.12.91Z"/>
      <path class="cls-4" d="M345.28,171.05c.59,0,1.1.22,1.54.65.44.44.66.95.66,1.54v1.39c0,.59-.22,1.1-.66,1.54-.44.44-.95.66-1.54.66h-7.51c-.21,0-.31.12-.31.35v6.28c0,.13.05.32.15.58.8,1.64,1.19,3.35,1.19,5.12,0,3.78-1.07,6.65-3.2,8.61-2.13,1.97-5.68,3.26-10.64,3.87-.62.08-1.16-.07-1.64-.44-.48-.37-.78-.87-.91-1.48l-.38-1.85c-.1-.56.02-1.09.38-1.56.36-.48.83-.74,1.43-.79,1.95-.21,3.44-.42,4.45-.65,1.01-.23,1.73-.49,2.14-.77.41-.28.73-.67.96-1.16.02-.02.04-.06.04-.12s.01-.09.04-.12v-.08h-.08c-1.31.51-2.63.77-3.97.77-2.52,0-4.56-.71-6.13-2.12-1.57-1.41-2.35-3.28-2.35-5.59s.8-4.21,2.39-5.61,3.75-2.1,6.47-2.1c.8,0,1.66.13,2.58.39h.08s.04-.01.04-.04v-1.16c0-.23-.12-.35-.35-.35h-14.41c-.59,0-1.1-.22-1.54-.66-.44-.44-.66-.95-.66-1.54v-1.39c0-.59.22-1.1.66-1.54.44-.44.95-.65,1.54-.65h14.41c.23,0,.35-.12.35-.35v-.92c0-.59.22-1.1.65-1.54s.95-.66,1.54-.66h2.54c.59,0,1.1.22,1.54.66s.66.95.66,1.54v.92c0,.23.1.35.31.35h7.51ZM326.45,187.35c.5.44,1.15.66,1.95.66s1.44-.22,1.95-.66c.5-.44.75-.99.75-1.66s-.25-1.22-.75-1.66c-.5-.44-1.15-.66-1.95-.66s-1.44.22-1.95.66c-.5.44-.75.99-.75,1.66s.25,1.22.75,1.66Z"/>
      <path class="cls-4" d="M343.66,217.33c.59-.03,1.11.17,1.56.58.45.41.69.91.71,1.5l.04,1.39c.02.59-.17,1.12-.58,1.58-.41.46-.91.71-1.5.73-.54.03-1.36.06-2.47.1s-1.93.07-2.47.1c-.23,0-.29.09-.19.27.46.98,1.04,2.04,1.73,3.2.28.49.35,1,.19,1.54-.15.54-.49.91-1,1.12l-3.31,1.39c-1.29.54-2.63.59-4.05.15-1.72-.56-3.35-.85-4.89-.85-2.57,0-3.85.64-3.85,1.93,0,.87.58,1.51,1.73,1.91,1.16.4,3.28.6,6.36.6,1.77,0,4.12-.17,7.05-.5.59-.08,1.13.07,1.62.44.49.37.77.85.85,1.45l.23,1.66c.08.59-.07,1.13-.44,1.62-.37.49-.85.77-1.44.85-2.67.31-5.29.46-7.86.46-5.32,0-9.22-.71-11.7-2.14-2.48-1.43-3.72-3.54-3.72-6.34,0-2.21.96-3.98,2.87-5.32,1.91-1.34,4.68-2,8.3-2,1.67,0,3.19.13,4.55.39h.08v-.08c-.08-.15-.17-.37-.29-.65-.12-.28-.2-.48-.25-.58-.08-.18-.23-.27-.46-.27-6.53.15-11.39.23-14.6.23-.62,0-1.14-.22-1.56-.66-.42-.44-.64-.95-.64-1.54v-1.39c0-.59.21-1.1.64-1.54.42-.44.93-.66,1.52-.66,3.72,0,7.96-.06,12.72-.19.21,0,.28-.1.23-.31-.05-.13-.1-.37-.15-.73-.05-.23-.19-.35-.42-.35-4.68.1-8.16.15-10.44.15-.59,0-1.1-.22-1.52-.65s-.64-.95-.64-1.54v-1.39c0-.59.21-1.1.64-1.54.42-.44.93-.65,1.52-.65,2.11,0,5.27-.05,9.48-.15.18,0,.27-.1.27-.31l-.12-.93c-.05-.59.12-1.11.52-1.56.4-.45.91-.7,1.52-.75l2.54-.15c.59-.02,1.11.16,1.56.56.45.4.7.91.75,1.52.03.1.05.28.08.54.03.26.04.44.04.54,0,.23.1.35.31.35.31-.03.78-.05,1.41-.08.63-.02,1.1-.04,1.41-.04.08,0,.14-.03.17-.1s.04-.12.02-.17c-.05-.08-.12-.21-.21-.39-.09-.18-.16-.32-.21-.42-.26-.49-.3-1-.14-1.52.17-.53.49-.92.98-1.17.51-.26,1.03-.3,1.56-.12.53.18.93.53,1.21,1.04.13.23.31.57.54,1.02.23.45.41.79.54,1.02.23.46.28.93.13,1.39s-.4.84-.79,1.12c-.15.1-.23.27-.23.5l.04,1.23c.03.59-.17,1.11-.6,1.56-.42.45-.93.69-1.52.71-.36,0-.89.03-1.6.08-.71.05-1.24.08-1.6.08-.23,0-.32.12-.27.35.02.08.06.21.12.39.05.18.09.31.12.39.02.18.17.27.42.27,4.47-.15,6.76-.23,6.86-.23ZM347.4,206.88c.13.26.31.63.56,1.12.24.49.42.84.52,1.04.26.51.29,1.03.12,1.54-.18.51-.53.9-1.04,1.16s-1.03.3-1.56.12-.93-.53-1.21-1.04c-.23-.46-.6-1.16-1.12-2.08-.26-.51-.3-1.03-.14-1.56.17-.53.51-.92,1.02-1.18s1.05-.29,1.62-.12c.57.18.98.51,1.23,1Z"/>
      <path class="cls-4" d="M344.43,247.66c.59-.02,1.11.17,1.56.58s.69.91.71,1.5l.04,2.16c.03.62-.17,1.15-.58,1.6-.41.45-.92.7-1.54.75-4.91.49-8.61,1.64-11.12,3.45-2.51,1.81-3.76,4.01-3.76,6.61,0,2.16.75,3.89,2.25,5.18,1.5,1.3,3.45,1.95,5.84,1.95.8,0,1.59-.05,2.39-.15.62-.08,1.16.06,1.64.4.48.35.75.82.83,1.41l.27,2.35c.08.62-.06,1.17-.42,1.66-.36.49-.85.77-1.46.85-1.18.15-2.39.23-3.62.23-4.73,0-8.51-1.19-11.35-3.58-2.84-2.39-4.26-5.56-4.26-9.52,0-1.75.52-3.56,1.56-5.45,1.04-1.89,2.43-3.51,4.18-4.87.03,0,.04-.03.04-.08,0-.03-.01-.04-.04-.04-3.67.1-7.34.18-10.98.23-.59,0-1.1-.22-1.52-.66-.42-.44-.64-.95-.64-1.54v-2.16c0-.59.21-1.1.64-1.54.42-.44.93-.66,1.52-.66,9.94-.05,19.22-.27,27.82-.66Z"/>
      <path class="cls-4" d="M294.22,173.69c-.1.21-.19.36-.27.46-.05.05-.06.11-.02.17.04.06.1.1.17.1h5.51c.59,0,1.1.22,1.54.66s.66.95.66,1.54v.23c0,1.57-.41,2.92-1.23,4.05-.85,1.08-1.61,1.94-2.27,2.58-.05.05-.07.12-.06.19.01.08.06.13.14.15,1.28.44,2.17.72,2.66.85.59.15,1.03.49,1.33,1.02.3.53.37,1.07.21,1.64l-.39,1.35c-.18.59-.53,1.05-1.06,1.37-.53.32-1.09.39-1.68.21-2.41-.67-4.56-1.55-6.44-2.66-.21-.13-.41-.13-.62,0-2.06,1.08-4.46,1.98-7.21,2.7-1.1.28-1.97-.08-2.58-1.08-.13-.15-.28-.22-.46-.19-.1.03-.26.04-.46.04h-9.75c-.13,0-.19.06-.19.19,0,.33-.11.61-.33.83-.22.22-.49.33-.83.33h-1.85c-.59,0-1.1-.22-1.54-.65-.44-.44-.65-.95-.65-1.54v-22.77c0-.59.22-1.1.65-1.54s.95-.66,1.54-.66h.92c.23,0,.35-.12.35-.35v-.85c0-.23-.12-.35-.35-.35h-1.31c-.59,0-1.1-.22-1.54-.66-.44-.44-.66-.95-.66-1.54v-1.19c0-.59.22-1.1.66-1.54.44-.44.95-.65,1.54-.65h13.14c.59,0,1.1.22,1.54.65.44.44.66.95.66,1.54v1.19c0,.59-.22,1.1-.66,1.54-.44.44-.95.66-1.54.66h-.96c-.21,0-.31.12-.31.35v.85c0,.23.1.35.31.35h1.16c.33,0,.66.08.96.23.05.05.11.06.17.02.06-.04.1-.1.1-.17l-.08-1c-.03-.49.12-.91.44-1.27.32-.36.74-.55,1.25-.58.13,0,.24-.09.35-.27.87-2.08,1.37-3.29,1.5-3.62.23-.59.62-1.05,1.16-1.37.54-.32,1.13-.44,1.77-.37l1.85.23c.54.08.94.35,1.21.83.27.48.3.96.1,1.45-.13.26-.31.65-.54,1.19-.23.54-.41.94-.54,1.19-.03.05-.02.11.02.17.04.06.1.1.17.1,1.41-.1,2.44-.19,3.08-.27.23,0,.29-.1.19-.31-.03-.05-.08-.15-.15-.31-.08-.15-.13-.27-.15-.35-.26-.49-.28-.99-.08-1.5.21-.51.58-.85,1.12-1l1.04-.31c.62-.18,1.22-.15,1.81.1.59.24,1.04.65,1.35,1.21.8,1.44,1.62,3.08,2.47,4.93.26.54.27,1.09.04,1.64s-.63.93-1.19,1.14l-2.12.77c-.31.1-.6.1-.89-.02s-.48-.31-.58-.6c-.05-.08-.13-.12-.23-.12h-.08c-.15,0-.23.09-.23.27v2.39c0,.38.03.61.08.67.05.06.22.1.5.1.21,0,.35-.01.42-.04.28-.1.67-.44,1.18-1.02.5-.58.94-.84,1.33-.79l.12.04c.62.08,1.12.35,1.5.81.38.46.56,1,.54,1.62-.05.75-.11,1.35-.17,1.81-.06.46-.2.87-.4,1.21s-.41.6-.62.77c-.21.17-.57.3-1.08.41-.51.1-1,.16-1.46.17-.46.01-1.17.02-2.12.02-1,0-1.7-.01-2.08-.04-.21,0-.37.09-.5.27ZM271.75,168.6v4.89s.02.04.06.04.07-.01.1-.04c.41-1.1.62-2.74.62-4.89,0-.23-.12-.35-.35-.35h-.08c-.23,0-.35.12-.35.35ZM271.75,176.16v1.39c0,.23.12.35.35.35h.73c.08,0,.14-.03.17-.1.04-.06.03-.12-.02-.17l-1.04-1.5c-.03-.05-.06-.07-.12-.06-.05.01-.08.05-.08.1ZM278.88,183.52v-.65c0-.23-.12-.35-.35-.35h-6.44c-.23,0-.35.12-.35.35v.65c0,.23.12.35.35.35h6.44c.23,0,.35-.12.35-.35ZM278.88,177.54v-1.04c0-.23-.12-.35-.35-.35h-1c-.87,0-1.41-.12-1.62-.35-.21-.23-.31-.89-.31-1.97v-5.4c0-.13-.06-.19-.19-.19s-.19.08-.19.23c0,2.24-.08,3.96-.23,5.18-.15,1.22-.46,2.51-.92,3.87-.05.23.03.35.23.35h4.24c.23,0,.35-.12.35-.35ZM274.64,162.05v.85c0,.23.12.35.35.35h.5c.2,0,.31-.12.31-.35v-.85c0-.23-.1-.35-.31-.35h-.5c-.23,0-.35.12-.35.35ZM278.88,170.99v-2.39c0-.23-.12-.35-.35-.35h-.08c-.23,0-.35.12-.35.35v2.16c0,.28.02.45.06.5.04.05.17.08.4.08.21,0,.31-.12.31-.35ZM288.21,173.11c.36-.51.82-.89,1.39-1.12.56-.23,1.13-.26,1.7-.08.05.03.11,0,.17-.06.06-.06.08-.12.06-.17-.08-.46-.12-1.03-.12-1.7v-4.05c0-.21-.1-.31-.31-.31s-.33.12-.38.35c-.51,3.06-1.79,5.59-3.82,7.59-.44.41-.94.57-1.52.48s-1.02-.39-1.33-.91c-.03-.03-.06-.03-.1-.02-.04.01-.06.05-.06.1v4.2c0,.05.03.1.08.14.05.04.1.05.15.02,1.57-1.34,2.93-2.83,4.09-4.47ZM285.01,166.06c-.33,0-.62-.05-.85-.15-.18-.05-.27,0-.27.15v2c0,.05.03.09.08.12.05.03.1.03.15,0,.44-.44.8-1.07,1.08-1.89.05-.15-.01-.23-.19-.23ZM287.78,183.86c.08-.02.12-.08.13-.17.01-.09,0-.16-.06-.21-.08-.1-.19-.23-.35-.39-.15-.15-.27-.28-.35-.39-.15-.15-.3-.17-.42-.04-.39.33-.84.46-1.35.37-.51-.09-.91-.35-1.2-.79l-.12-.23s-.06-.03-.12-.02c-.05.01-.08.05-.08.1v2.47c0,.08.04.15.12.21.08.06.15.08.23.06,1.36-.31,2.54-.63,3.55-.96ZM294.91,179.05h-3.7c-.21,0-.24.09-.12.27.54.72,1.1,1.31,1.7,1.77.18.13.36.13.54,0,.64-.51,1.22-1.1,1.73-1.77.05-.05.06-.11.02-.17s-.1-.1-.17-.1Z"/>
      <path class="cls-4" d="M300.31,223.01c.54.21.92.58,1.16,1.12.23.54.23,1.07,0,1.58l-.85,1.85c-.28.56-.71.97-1.27,1.21-.57.24-1.13.25-1.7.02-5.7-2.26-10.06-5.46-13.06-9.6-.1-.13-.23-.12-.38.04-3.16,4.21-7.57,7.4-13.22,9.56-.59.23-1.18.23-1.75,0s-1.01-.64-1.29-1.23l-.85-1.85c-.26-.51-.27-1.04-.04-1.58.23-.54.62-.91,1.16-1.12,4.52-1.67,7.72-3.58,9.6-5.74,1.88-2.16,2.81-4.88,2.81-8.17v-1.27c0-.59.22-1.1.66-1.54.44-.44.95-.66,1.54-.66h2.93c.59,0,1.1.22,1.54.66.44.44.66.95.66,1.54v1.27c0,3.26.93,5.98,2.79,8.15,1.86,2.17,5.05,4.09,9.58,5.76ZM289.94,209.33c1.31-1.67,2.47-3.44,3.47-5.32.05-.05.06-.12.02-.19-.04-.08-.1-.12-.17-.12h-14.57c-.23,0-.38.09-.46.27-1.54,2.98-3.26,5.56-5.16,7.75-.41.46-.92.71-1.52.73-.6.03-1.14-.17-1.6-.58l-1.77-1.5c-.44-.38-.67-.88-.69-1.48-.03-.6.15-1.14.54-1.6,2.93-3.52,5.12-7.48,6.59-11.87.21-.59.57-1.07,1.08-1.43.51-.36,1.08-.5,1.7-.42l2.23.23c.59.08,1.05.36,1.39.85.33.49.42,1.02.27,1.58-.05.13-.1.32-.15.58-.05.26-.1.45-.15.58-.05.23.03.35.23.35h17.46c.59,0,1.1.22,1.54.66.44.44.65.95.65,1.54v1.58c0,1.59-.28,2.99-.85,4.2-1.18,2.54-2.75,5.05-4.7,7.51-.38.49-.89.76-1.5.83s-1.17-.08-1.66-.44l-1.85-1.31c-.49-.33-.76-.8-.81-1.39-.05-.59.1-1.12.46-1.58Z"/>
      <path class="cls-4" d="M295.68,261.61l.27,2.35c.08.62-.06,1.17-.42,1.66-.36.49-.85.77-1.46.85-1.18.15-2.39.23-3.62.23-4.73,0-8.51-1.21-11.35-3.64s-4.26-5.71-4.26-9.85c0-1.93.51-3.85,1.54-5.78,1.03-1.93,2.43-3.57,4.2-4.93.03,0,.04-.03.04-.08,0-.03-.01-.04-.04-.04-3.67.1-7.33.18-10.98.23-.59,0-1.1-.22-1.52-.66-.42-.44-.64-.95-.64-1.54v-2.16c0-.59.21-1.1.64-1.54.42-.44.93-.66,1.52-.66,9.94-.05,19.22-.27,27.82-.66.59-.02,1.11.17,1.56.58s.69.91.71,1.5l.04,2.16c.02.62-.17,1.15-.58,1.6-.41.45-.92.7-1.54.75-4.93.49-8.65,1.66-11.14,3.51-2.49,1.85-3.74,4.16-3.74,6.94,0,2.34.74,4.18,2.24,5.51,1.49,1.34,3.44,2,5.86,2,.8,0,1.59-.05,2.39-.15.62-.08,1.16.06,1.64.4.48.35.75.82.83,1.41ZM294.68,247.62c.28.51.71,1.31,1.27,2.39.26.54.28,1.09.08,1.66-.21.57-.58.98-1.12,1.23-.57.26-1.13.28-1.7.08-.57-.21-.99-.58-1.27-1.12-.13-.23-.54-.99-1.23-2.27-.28-.51-.33-1.05-.15-1.62.18-.56.54-.99,1.08-1.27h.04c.54-.28,1.1-.33,1.7-.15s1.03.54,1.31,1.08ZM300.85,246.23c.85,1.62,1.29,2.45,1.31,2.51.28.54.33,1.09.14,1.66-.19.57-.56.98-1.1,1.23l-.12.08c-.54.26-1.1.29-1.68.1-.58-.19-1.01-.56-1.29-1.1-.13-.26-.33-.65-.62-1.19-.28-.54-.5-.94-.66-1.19-.28-.51-.34-1.07-.17-1.66.17-.59.52-1.01,1.06-1.27l.12-.04c.54-.28,1.1-.34,1.7-.17.59.17,1.03.52,1.31,1.06Z"/>
      <path class="cls-4" d="M299.04,274.4c.59,0,1.1.22,1.54.65.44.44.66.95.66,1.54v1.39c0,.59-.22,1.1-.66,1.54-.44.44-.95.66-1.54.66h-7.51c-.21,0-.31.12-.31.35v6.28c0,.13.05.32.15.58.8,1.64,1.19,3.35,1.19,5.12,0,3.78-1.07,6.65-3.2,8.61-2.13,1.97-5.68,3.26-10.64,3.87-.62.08-1.16-.07-1.64-.44-.48-.37-.78-.87-.91-1.48l-.38-1.85c-.1-.56.02-1.09.38-1.56.36-.48.83-.74,1.43-.79,1.95-.21,3.44-.42,4.45-.65,1.01-.23,1.73-.49,2.14-.77.41-.28.73-.67.96-1.16.02-.02.04-.06.04-.12s.01-.09.04-.12v-.08h-.08c-1.31.51-2.63.77-3.97.77-2.52,0-4.56-.71-6.13-2.12-1.57-1.41-2.35-3.28-2.35-5.59s.8-4.21,2.39-5.61,3.75-2.1,6.47-2.1c.8,0,1.66.13,2.58.39h.08s.04-.01.04-.04v-1.16c0-.23-.12-.35-.35-.35h-14.41c-.59,0-1.1-.22-1.54-.66-.44-.44-.66-.95-.66-1.54v-1.39c0-.59.22-1.1.66-1.54.44-.44.95-.65,1.54-.65h14.41c.23,0,.35-.12.35-.35v-.92c0-.59.22-1.1.65-1.54s.95-.66,1.54-.66h2.54c.59,0,1.1.22,1.54.66s.66.95.66,1.54v.92c0,.23.1.35.31.35h7.51ZM280.21,290.7c.5.44,1.15.66,1.95.66s1.44-.22,1.95-.66c.5-.44.75-.99.75-1.66s-.25-1.22-.75-1.66c-.5-.44-1.15-.66-1.95-.66s-1.44.22-1.95.66c-.5.44-.75.99-.75,1.66s.25,1.22.75,1.66Z"/>
    </g>
    <g>
      <path d="M346.09,24.77c.62.08,1.12.34,1.5.79.38.45.55.98.5,1.6-.08.77-.16,1.39-.25,1.87-.09.48-.28.9-.56,1.27-.28.37-.57.64-.85.81-.28.17-.76.3-1.45.4-.68.1-1.35.17-2,.19-.66.03-1.6.04-2.83.04h-2.31c-1.26,0-2.24-.02-2.93-.08-.69-.05-1.3-.13-1.81-.25-.51-.12-.87-.32-1.08-.62s-.35-.62-.42-.98c-.08-.36-.12-.87-.12-1.54v-6.4c0-.23-.12-.35-.35-.35h-.85c-.26,0-.39.1-.39.31-.46,5.32-3.39,9.03-8.79,11.14-.03.05-.04.09-.04.12h20.35c.59,0,1.1.22,1.54.66.44.44.66.95.66,1.54v1.19c0,.59-.22,1.1-.66,1.54s-.95.65-1.54.65h-6.9c-.23,0-.35.12-.35.35v3.01c0,.21.12.31.35.31h10.56c.59,0,1.1.22,1.54.66s.66.95.66,1.54v1.39c0,.59-.22,1.1-.66,1.54-.44.44-.95.66-1.54.66h-29.13c-.59,0-1.1-.22-1.54-.66-.44-.44-.66-.95-.66-1.54v-1.39c0-.59.22-1.1.66-1.54s.95-.66,1.54-.66h10.56c.23,0,.35-.1.35-.31v-3.01c0-.23-.12-.35-.35-.35h-6.7c-.59,0-1.1-.22-1.54-.65s-.66-.95-.66-1.54v-1.19c0-.44.09-.8.27-1.08.03-.1-.03-.17-.15-.19l-1.04.23c-.62.13-1.19.03-1.72-.31-.53-.33-.88-.8-1.06-1.39l-.5-1.62c-.15-.54-.08-1.05.21-1.54.3-.49.73-.78,1.29-.89,2.85-.51,4.9-1.31,6.15-2.39s1.89-2.51,1.95-4.28c0-.21-.12-.31-.35-.31h-1.62c-.23,0-.35.12-.35.35v1.7c0,.59-.22,1.1-.66,1.54-.44.44-.95.66-1.54.66h-2.54c-.59,0-1.1-.22-1.54-.66-.44-.44-.66-.95-.66-1.54v-5.43c0-.59.22-1.1.66-1.54.44-.44.95-.65,1.54-.65h10.56c.23,0,.35-.12.35-.35v-.73c0-.59.22-1.1.66-1.54.44-.44.95-.66,1.54-.66h2.93c.59,0,1.1.22,1.54.66.44.44.66.95.66,1.54v.73c0,.23.12.35.35.35h10.56c.59,0,1.1.22,1.54.65.44.44.66.95.66,1.54v3.12c0,.59-.22,1.1-.66,1.54-.44.44-.95.66-1.54.66h-3.08c-.46,0-.85-.16-1.17-.48-.32-.32-.48-.71-.48-1.18,0-.18-.09-.27-.27-.27h-1.31c-.23,0-.35.12-.35.35v3.51c0,.57.04.9.13,1,.09.1.43.15,1.02.15h.38c.69,0,1.12-.12,1.27-.35.28-.41.49-.71.64-.91.14-.19.37-.39.67-.58.31-.19.62-.28.92-.25l2.62.31Z"/>
      <path d="M315.22,66l-1.77-1.19c-.49-.33-.78-.79-.87-1.37-.09-.58.05-1.1.4-1.56,2-2.75,3.62-5.73,4.86-8.94.23-.59.62-1.04,1.16-1.35.54-.31,1.12-.41,1.73-.31l3.2.69c.33.05.58.23.75.52.17.3.2.6.1.91-.05.1-.01.15.12.15h19.61c.59,0,1.1.22,1.54.66.44.44.66.95.66,1.54v1.2c0,.59-.22,1.1-.66,1.54-.44.44-.95.65-1.54.65h-21.77c-.21,0-.36.09-.46.27-.05.1-.12.23-.21.39s-.16.28-.21.39c-.05.05-.05.12,0,.19.05.08.12.12.19.12h20.15c.59,0,1.1.22,1.54.66.44.44.66.95.66,1.54v.04c0,.59-.22,1.1-.66,1.54-.44.44-.95.66-1.54.66h-19.61c-.57,0-1.05-.2-1.46-.6-.41-.4-.62-.89-.62-1.48,0-.05-.03-.08-.08-.08s-.09.03-.12.08c-.64.98-1.27,1.88-1.89,2.7-.38.49-.89.78-1.5.87-.62.09-1.18-.04-1.7-.4ZM333.8,82.22c.46.36.72.84.79,1.45.06.6-.11,1.12-.52,1.56l-1.12,1.19c-.41.44-.92.69-1.52.75-.6.06-1.15-.1-1.64-.48-.41-.33-1.11-.88-2.1-1.64-.99-.76-1.73-1.33-2.22-1.72-.18-.15-.37-.15-.58,0-2.39,1.59-4.84,2.94-7.36,4.05-.59.26-1.18.28-1.77.08-.59-.21-1.04-.58-1.35-1.12l-.92-1.62c-.28-.51-.33-1.04-.14-1.58.19-.54.55-.93,1.06-1.16,1.9-.85,3.58-1.73,5.05-2.66.2-.1.2-.22,0-.35-1.08-.77-1.98-1.39-2.7-1.85-.49-.33-.78-.79-.89-1.37-.1-.58.03-1.1.38-1.56l.96-1.23c.38-.49.89-.78,1.5-.89.62-.1,1.18.01,1.7.35,1.13.72,2.54,1.68,4.24,2.89.15.1.32.09.5-.04,1.16-.98,2.12-1.85,2.89-2.62.44-.44.95-.66,1.54-.67.59-.01,1.1.19,1.54.6l1.27,1.23c.44.44.67.96.69,1.56.02.6-.17,1.12-.58,1.56-.77.8-1.49,1.5-2.16,2.12-.18.18-.18.33,0,.46.15.13.64.51,1.46,1.16.82.64,1.48,1.16,1.97,1.54ZM347.25,72.4c.62.13,1.12.44,1.5.93.39.49.57,1.04.54,1.66-.23,3.31-.62,5.9-1.16,7.77-.54,1.86-1.19,3.11-1.95,3.76-.76.64-1.74.96-2.95.96-2.54,0-4.63-1.27-6.26-3.8-1.63-2.53-2.5-6.42-2.6-11.66,0-.23-.1-.35-.31-.35h-16.18c-.59,0-1.1-.22-1.54-.65s-.66-.95-.66-1.54v-1c0-.59.22-1.1.66-1.54.44-.44.95-.65,1.54-.65h21.43c.59,0,1.1.21,1.54.64.44.42.66.93.66,1.52,0,2.49.08,4.57.25,6.24.17,1.67.34,2.81.52,3.41.18.6.37.91.58.91.1,0,.18-.08.23-.25.05-.17.12-.64.21-1.41.09-.77.2-1.93.33-3.47.05-.59.31-1.06.79-1.41s1-.47,1.56-.37l1.27.31Z"/>
      <path d="M324.28,102.26h-9.67c-.59,0-1.1-.22-1.54-.65s-.66-.95-.66-1.54v-.81c0-.59.22-1.1.66-1.54s.95-.66,1.54-.66h9.67c.59,0,1.1.22,1.54.66s.66.95.66,1.54v.81c0,.59-.22,1.1-.66,1.54s-.95.65-1.54.65ZM340.89,98.02c-.23,0-.35.12-.35.35v.46c0,.23.12.35.35.35h3.81c.59,0,1.1.22,1.54.65.44.44.66.95.66,1.54v.42c0,.59-.22,1.1-.66,1.54s-.95.65-1.54.65h-14.87c-.59,0-1.1-.22-1.54-.65s-.66-.95-.66-1.54v-.42c0-.59.22-1.1.66-1.54.44-.44.95-.65,1.54-.65h3.43c.23,0,.35-.12.35-.35v-.46c0-.23-.12-.35-.35-.35h-5.55c-.59,0-1.1-.22-1.54-.65s-.66-.95-.66-1.54v-.12c0-.05-.03-.09-.08-.12-.05-.02-.1-.01-.15.04-.38.31-.85.46-1.39.46h-8.32c-.59,0-1.1-.22-1.54-.65-.44-.44-.66-.95-.66-1.54v-.23c0-.59.22-1.1.66-1.54.44-.44.95-.66,1.54-.66h8.32c.51,0,.98.17,1.39.5.41.33.67.75.77,1.23.05.15.14.19.27.12.41-.33.87-.5,1.39-.5h5.55c.23,0,.35-.12.35-.35v-.35c0-.59.22-1.1.66-1.54.44-.44.95-.66,1.54-.66h2.54c.59,0,1.1.22,1.54.66.44.44.65.95.65,1.54v.35c0,.23.12.35.35.35h5.36c.59,0,1.1.22,1.54.66.44.44.65.95.65,1.54v.81c0,.59-.22,1.1-.65,1.54-.44.44-.95.65-1.54.65h-5.36ZM346.47,115.87c.62.08,1.12.35,1.52.83.4.48.58,1.02.56,1.64-.05,1.34-.11,2.4-.17,3.18-.06.78-.21,1.49-.42,2.12-.22.63-.42,1.08-.62,1.35s-.56.49-1.1.65-1.05.26-1.52.29c-.48.02-1.23.04-2.25.04-1.08,0-1.91-.01-2.51-.04-.59-.03-1.15-.11-1.68-.25-.53-.14-.89-.3-1.1-.46-.21-.17-.39-.47-.56-.91-.17-.44-.26-.89-.29-1.35s-.04-1.13-.04-2v-7.63c0-.59.22-1.1.66-1.54.44-.44.95-.66,1.54-.66h1.97c.41,0,.8.1,1.16.31.18.13.27.09.27-.12v-1.04c0-.21-.12-.31-.35-.31h-9.75c-.21,0-.31.1-.31.31v.5c0,.23.1.35.31.35h1.54c.59,0,1.1.21,1.54.64.44.42.64.93.62,1.52-.13,3.29-.6,5.84-1.43,7.65-.82,1.81-2.15,3.32-3.97,4.53-.51.31-1.06.39-1.64.23-.58-.15-1.02-.5-1.33-1.04l-.69-1.27c-.03-.05-.06-.08-.12-.08s-.09.03-.12.08c-.13.46-.39.85-.79,1.16-.4.31-.84.46-1.33.46h-4.97c-.1,0-.15.05-.15.15,0,.28-.1.52-.31.71-.21.19-.44.29-.69.29h-2.39c-.59,0-1.1-.22-1.54-.66-.44-.44-.66-.95-.66-1.54v-7.75c0-.59.22-1.1.66-1.54.44-.44.95-.65,1.54-.65h8.52c.59,0,1.1.22,1.54.65.44.44.66.95.66,1.54v3.54c0,.05.03.09.08.12.05.03.1.01.15-.04.03-.03.06-.07.12-.14.05-.06.09-.11.12-.13,1.21-1.03,1.95-2.57,2.24-4.62.05-.23-.05-.35-.31-.35h-.96c-.57,0-1.05-.18-1.46-.54-.41-.36-.66-.81-.73-1.35,0-.18-.08-.22-.23-.12-.38.31-.85.46-1.39.46h-7.94c-.59,0-1.1-.22-1.54-.66-.44-.44-.66-.95-.66-1.54v-.04c0-.59.22-1.1.66-1.54s.95-.66,1.54-.66h7.94c.54,0,1,.15,1.39.46.05.05.1.06.15.04s.08-.06.08-.12v-1.77c0-.05-.03-.09-.08-.12-.05-.02-.09-.01-.12.04-.41.33-.89.5-1.43.5h-7.94c-.59,0-1.1-.22-1.54-.66-.44-.44-.66-.95-.66-1.54v-.04c0-.59.22-1.1.66-1.54.44-.44.95-.66,1.54-.66h7.94c.59,0,1.1.22,1.54.66.44.44.65.95.65,1.54v.15c0,.05.02.09.06.12.04.03.08.01.14-.04.41-.33.89-.5,1.43-.5h18.15c.59,0,1.1.22,1.54.65.44.44.66.95.66,1.54v4.66c0,.59-.22,1.1-.66,1.54-.44.44-.95.66-1.54.66h-1.77c-.41,0-.8-.1-1.16-.31-.18-.13-.27-.09-.27.12v5.39c0,.36.03.58.08.66.05.08.22.12.5.12.1,0,.18-.01.23-.04.05-.02.1-.12.15-.29.05-.17.08-.4.1-.71.01-.31.03-.77.06-1.39.03-.59.26-1.08.69-1.46s.94-.54,1.5-.46l.5.04ZM321.46,120.41v-1.85c0-.21-.12-.31-.35-.31h-1.85c-.21,0-.31.1-.31.31v1.85c0,.23.1.35.31.35h1.85c.23,0,.35-.12.35-.35Z"/>
      <path d="M346.78,146.46c.54.28.89.72,1.06,1.31.17.59.11,1.17-.17,1.73l-.96,2.04c-.26.51-.67.85-1.23,1.02-.57.17-1.09.11-1.58-.17-.13-.05-.31-.15-.56-.31-.24-.15-.43-.26-.56-.31-.15-.08-.26-.01-.31.19-.44,2.72-1.17,4.82-2.2,6.3-1.03,1.48-2.62,2.91-4.78,4.3-.51.33-1.07.42-1.66.27-.59-.15-1.04-.49-1.35-1l-1.23-2c-.31-.51-.38-1.07-.23-1.66.15-.59.49-1.05,1-1.39,1.26-.82,2.17-1.73,2.74-2.74s.96-2.5,1.2-4.51c0-.21-.09-.33-.27-.38-.98-.23-2.16-.41-3.54-.54-.21,0-.33.1-.38.31-.44,2.31-.89,4.28-1.37,5.92-.48,1.63-.97,2.95-1.48,3.95s-1.11,1.79-1.79,2.35-1.36.94-2.04,1.14-1.5.29-2.45.29c-2.36,0-4.53-1.02-6.49-3.06-1.97-2.04-2.95-4.36-2.95-6.96s1.04-4.68,3.12-6.47c2.08-1.8,5.01-2.99,8.79-3.58.18-.02.29-.14.35-.35.13-1,.26-2.43.38-4.28,0-.23-.09-.35-.27-.35h-7.28c-.59,0-1.1-.22-1.54-.65s-.65-.95-.65-1.54v-1.77c0-.59.22-1.1.65-1.54s.95-.66,1.54-.66h12.95c.59,0,1.1.22,1.54.66s.66.95.66,1.54v3.97c-.03.28-.1.95-.23,2-.13,1.05-.23,1.85-.31,2.39-.05.26.04.39.27.39.67.05,1.61.18,2.81.39.08.03.15,0,.21-.08.06-.08.1-.15.1-.23.02-1.13.04-3.04.04-5.74,0-.59.22-1.1.66-1.54.44-.44.95-.65,1.54-.65h2.54c.59,0,1.1.22,1.54.65.44.44.65.95.65,1.54,0,2.18-.05,4.77-.15,7.75,0,.23.1.39.31.46,1.1.44,2.24.98,3.39,1.62ZM321.85,155.25c1.03,0,1.9-1.96,2.62-5.9.03-.08.01-.15-.04-.21-.05-.06-.12-.08-.19-.06-2.75.67-4.12,1.82-4.12,3.47,0,.59.2,1.19.62,1.79.41.6.78.91,1.12.91Z"/>
      <path d="M345.28,171.05c.59,0,1.1.22,1.54.65.44.44.66.95.66,1.54v1.39c0,.59-.22,1.1-.66,1.54-.44.44-.95.66-1.54.66h-7.51c-.21,0-.31.12-.31.35v6.28c0,.13.05.32.15.58.8,1.64,1.19,3.35,1.19,5.12,0,3.78-1.07,6.65-3.2,8.61-2.13,1.97-5.68,3.26-10.64,3.87-.62.08-1.16-.07-1.64-.44-.48-.37-.78-.87-.91-1.48l-.38-1.85c-.1-.56.02-1.09.38-1.56.36-.48.83-.74,1.43-.79,1.95-.21,3.44-.42,4.45-.65,1.01-.23,1.73-.49,2.14-.77.41-.28.73-.67.96-1.16.02-.02.04-.06.04-.12s.01-.09.04-.12v-.08h-.08c-1.31.51-2.63.77-3.97.77-2.52,0-4.56-.71-6.13-2.12-1.57-1.41-2.35-3.28-2.35-5.59s.8-4.21,2.39-5.61,3.75-2.1,6.47-2.1c.8,0,1.66.13,2.58.39h.08s.04-.01.04-.04v-1.16c0-.23-.12-.35-.35-.35h-14.41c-.59,0-1.1-.22-1.54-.66-.44-.44-.66-.95-.66-1.54v-1.39c0-.59.22-1.1.66-1.54.44-.44.95-.65,1.54-.65h14.41c.23,0,.35-.12.35-.35v-.92c0-.59.22-1.1.65-1.54s.95-.66,1.54-.66h2.54c.59,0,1.1.22,1.54.66s.66.95.66,1.54v.92c0,.23.1.35.31.35h7.51ZM326.46,187.35c.5.44,1.15.66,1.95.66s1.44-.22,1.95-.66c.5-.44.75-.99.75-1.66s-.25-1.22-.75-1.66c-.5-.44-1.15-.66-1.95-.66s-1.44.22-1.95.66c-.5.44-.75.99-.75,1.66s.25,1.22.75,1.66Z"/>
      <path d="M343.66,217.33c.59-.03,1.11.17,1.56.58.45.41.69.91.71,1.5l.04,1.39c.02.59-.17,1.12-.58,1.58-.41.46-.91.71-1.5.73-.54.03-1.36.06-2.47.1s-1.93.07-2.47.1c-.23,0-.29.09-.19.27.46.98,1.04,2.04,1.73,3.2.28.49.35,1,.19,1.54-.15.54-.49.91-1,1.12l-3.31,1.39c-1.29.54-2.63.59-4.05.15-1.72-.56-3.35-.85-4.89-.85-2.57,0-3.85.64-3.85,1.93,0,.87.58,1.51,1.73,1.91,1.16.4,3.28.6,6.36.6,1.77,0,4.12-.17,7.05-.5.59-.08,1.13.07,1.62.44.49.37.77.85.85,1.45l.23,1.66c.08.59-.07,1.13-.44,1.62-.37.49-.85.77-1.44.85-2.67.31-5.29.46-7.86.46-5.32,0-9.22-.71-11.7-2.14-2.48-1.43-3.72-3.54-3.72-6.34,0-2.21.96-3.98,2.87-5.32,1.91-1.34,4.68-2,8.3-2,1.67,0,3.19.13,4.55.39h.08v-.08c-.08-.15-.17-.37-.29-.65-.12-.28-.2-.48-.25-.58-.08-.18-.23-.27-.46-.27-6.53.15-11.39.23-14.6.23-.62,0-1.14-.22-1.56-.66-.42-.44-.64-.95-.64-1.54v-1.39c0-.59.21-1.1.64-1.54.42-.44.93-.66,1.52-.66,3.72,0,7.96-.06,12.72-.19.21,0,.28-.1.23-.31-.05-.13-.1-.37-.15-.73-.05-.23-.19-.35-.42-.35-4.68.1-8.16.15-10.44.15-.59,0-1.1-.22-1.52-.65s-.64-.95-.64-1.54v-1.39c0-.59.21-1.1.64-1.54.42-.44.93-.65,1.52-.65,2.11,0,5.27-.05,9.48-.15.18,0,.27-.1.27-.31l-.12-.93c-.05-.59.12-1.11.52-1.56.4-.45.91-.7,1.52-.75l2.54-.15c.59-.02,1.11.16,1.56.56.45.4.7.91.75,1.52.03.1.05.28.08.54.03.26.04.44.04.54,0,.23.1.35.31.35.31-.03.78-.05,1.41-.08.63-.02,1.1-.04,1.41-.04.08,0,.14-.03.17-.1s.04-.12.02-.17c-.05-.08-.12-.21-.21-.39-.09-.18-.16-.32-.21-.42-.26-.49-.3-1-.14-1.52.17-.53.49-.92.98-1.17.51-.26,1.03-.3,1.56-.12.53.18.93.53,1.21,1.04.13.23.31.57.54,1.02.23.45.41.79.54,1.02.23.46.28.93.13,1.39s-.4.84-.79,1.12c-.15.1-.23.27-.23.5l.04,1.23c.03.59-.17,1.11-.6,1.56-.42.45-.93.69-1.52.71-.36,0-.89.03-1.6.08-.71.05-1.24.08-1.6.08-.23,0-.32.12-.27.35.02.08.06.21.12.39.05.18.09.31.12.39.02.18.17.27.42.27,4.47-.15,6.76-.23,6.86-.23ZM347.4,206.88c.13.26.31.63.56,1.12.24.49.42.84.52,1.04.26.51.29,1.03.12,1.54-.18.51-.53.9-1.04,1.16s-1.03.3-1.56.12-.93-.53-1.21-1.04c-.23-.46-.6-1.16-1.12-2.08-.26-.51-.3-1.03-.14-1.56.17-.53.51-.92,1.02-1.18s1.05-.29,1.62-.12c.57.18.98.51,1.23,1Z"/>
      <path d="M344.43,247.66c.59-.02,1.11.17,1.56.58s.69.91.71,1.5l.04,2.16c.03.62-.17,1.15-.58,1.6-.41.45-.92.7-1.54.75-4.91.49-8.61,1.64-11.12,3.45-2.51,1.81-3.76,4.01-3.76,6.61,0,2.16.75,3.89,2.25,5.18,1.5,1.3,3.45,1.95,5.84,1.95.8,0,1.59-.05,2.39-.15.62-.08,1.16.06,1.64.4.48.35.75.82.83,1.41l.27,2.35c.08.62-.06,1.17-.42,1.66-.36.49-.85.77-1.46.85-1.18.15-2.39.23-3.62.23-4.73,0-8.51-1.19-11.35-3.58-2.84-2.39-4.26-5.56-4.26-9.52,0-1.75.52-3.56,1.56-5.45,1.04-1.89,2.43-3.51,4.18-4.87.03,0,.04-.03.04-.08,0-.03-.01-.04-.04-.04-3.67.1-7.34.18-10.98.23-.59,0-1.1-.22-1.52-.66-.42-.44-.64-.95-.64-1.54v-2.16c0-.59.21-1.1.64-1.54.42-.44.93-.66,1.52-.66,9.94-.05,19.22-.27,27.82-.66Z"/>
      <path d="M294.22,173.69c-.1.21-.19.36-.27.46-.05.05-.06.11-.02.17.04.06.1.1.17.1h5.51c.59,0,1.1.22,1.54.66s.66.95.66,1.54v.23c0,1.57-.41,2.92-1.23,4.05-.85,1.08-1.61,1.94-2.27,2.58-.05.05-.07.12-.06.19.01.08.06.13.14.15,1.28.44,2.17.72,2.66.85.59.15,1.03.49,1.33,1.02.3.53.37,1.07.21,1.64l-.39,1.35c-.18.59-.53,1.05-1.06,1.37-.53.32-1.09.39-1.68.21-2.41-.67-4.56-1.55-6.44-2.66-.21-.13-.41-.13-.62,0-2.06,1.08-4.46,1.98-7.21,2.7-1.1.28-1.97-.08-2.58-1.08-.13-.15-.28-.22-.46-.19-.1.03-.26.04-.46.04h-9.75c-.13,0-.19.06-.19.19,0,.33-.11.61-.33.83-.22.22-.49.33-.83.33h-1.85c-.59,0-1.1-.22-1.54-.65-.44-.44-.65-.95-.65-1.54v-22.77c0-.59.22-1.1.65-1.54s.95-.66,1.54-.66h.92c.23,0,.35-.12.35-.35v-.85c0-.23-.12-.35-.35-.35h-1.31c-.59,0-1.1-.22-1.54-.66-.44-.44-.66-.95-.66-1.54v-1.19c0-.59.22-1.1.66-1.54.44-.44.95-.65,1.54-.65h13.14c.59,0,1.1.22,1.54.65.44.44.66.95.66,1.54v1.19c0,.59-.22,1.1-.66,1.54-.44.44-.95.66-1.54.66h-.96c-.21,0-.31.12-.31.35v.85c0,.23.1.35.31.35h1.16c.33,0,.66.08.96.23.05.05.11.06.17.02.06-.04.1-.1.1-.17l-.08-1c-.03-.49.12-.91.44-1.27.32-.36.74-.55,1.25-.58.13,0,.24-.09.35-.27.87-2.08,1.37-3.29,1.5-3.62.23-.59.62-1.05,1.16-1.37.54-.32,1.13-.44,1.77-.37l1.85.23c.54.08.94.35,1.21.83.27.48.3.96.1,1.45-.13.26-.31.65-.54,1.19-.23.54-.41.94-.54,1.19-.03.05-.02.11.02.17.04.06.1.1.17.1,1.41-.1,2.44-.19,3.08-.27.23,0,.29-.1.19-.31-.03-.05-.08-.15-.15-.31-.08-.15-.13-.27-.15-.35-.26-.49-.28-.99-.08-1.5.21-.51.58-.85,1.12-1l1.04-.31c.62-.18,1.22-.15,1.81.1.59.24,1.04.65,1.35,1.21.8,1.44,1.62,3.08,2.47,4.93.26.54.27,1.09.04,1.64s-.63.93-1.19,1.14l-2.12.77c-.31.1-.6.1-.89-.02s-.48-.31-.58-.6c-.05-.08-.13-.12-.23-.12h-.08c-.15,0-.23.09-.23.27v2.39c0,.38.03.61.08.67.05.06.22.1.5.1.21,0,.35-.01.42-.04.28-.1.67-.44,1.18-1.02.5-.58.94-.84,1.33-.79l.12.04c.62.08,1.12.35,1.5.81.38.46.56,1,.54,1.62-.05.75-.11,1.35-.17,1.81-.06.46-.2.87-.4,1.21s-.41.6-.62.77c-.21.17-.57.3-1.08.41-.51.1-1,.16-1.46.17-.46.01-1.17.02-2.12.02-1,0-1.7-.01-2.08-.04-.21,0-.37.09-.5.27ZM271.75,168.6v4.89s.02.04.06.04.07-.01.1-.04c.41-1.1.62-2.74.62-4.89,0-.23-.12-.35-.35-.35h-.08c-.23,0-.35.12-.35.35ZM271.75,176.16v1.39c0,.23.12.35.35.35h.73c.08,0,.14-.03.17-.1.04-.06.03-.12-.02-.17l-1.04-1.5c-.03-.05-.06-.07-.12-.06-.05.01-.08.05-.08.1ZM278.88,183.52v-.65c0-.23-.12-.35-.35-.35h-6.44c-.23,0-.35.12-.35.35v.65c0,.23.12.35.35.35h6.44c.23,0,.35-.12.35-.35ZM278.88,177.54v-1.04c0-.23-.12-.35-.35-.35h-1c-.87,0-1.41-.12-1.62-.35-.21-.23-.31-.89-.31-1.97v-5.4c0-.13-.06-.19-.19-.19s-.19.08-.19.23c0,2.24-.08,3.96-.23,5.18-.15,1.22-.46,2.51-.92,3.87-.05.23.03.35.23.35h4.24c.23,0,.35-.12.35-.35ZM274.64,162.05v.85c0,.23.12.35.35.35h.5c.2,0,.31-.12.31-.35v-.85c0-.23-.1-.35-.31-.35h-.5c-.23,0-.35.12-.35.35ZM278.88,170.99v-2.39c0-.23-.12-.35-.35-.35h-.08c-.23,0-.35.12-.35.35v2.16c0,.28.02.45.06.5.04.05.17.08.4.08.21,0,.31-.12.31-.35ZM288.21,173.11c.36-.51.82-.89,1.39-1.12.56-.23,1.13-.26,1.7-.08.05.03.11,0,.17-.06.06-.06.08-.12.06-.17-.08-.46-.12-1.03-.12-1.7v-4.05c0-.21-.1-.31-.31-.31s-.33.12-.38.35c-.51,3.06-1.79,5.59-3.82,7.59-.44.41-.94.57-1.52.48s-1.02-.39-1.33-.91c-.03-.03-.06-.03-.1-.02-.04.01-.06.05-.06.1v4.2c0,.05.03.1.08.14.05.04.1.05.15.02,1.57-1.34,2.93-2.83,4.09-4.47ZM285.01,166.06c-.33,0-.62-.05-.85-.15-.18-.05-.27,0-.27.15v2c0,.05.03.09.08.12.05.03.1.03.15,0,.44-.44.8-1.07,1.08-1.89.05-.15-.01-.23-.19-.23ZM287.79,183.86c.08-.02.12-.08.13-.17.01-.09,0-.16-.06-.21-.08-.1-.19-.23-.35-.39-.15-.15-.27-.28-.35-.39-.15-.15-.3-.17-.42-.04-.39.33-.84.46-1.35.37-.51-.09-.91-.35-1.2-.79l-.12-.23s-.06-.03-.12-.02c-.05.01-.08.05-.08.1v2.47c0,.08.04.15.12.21.08.06.15.08.23.06,1.36-.31,2.54-.63,3.55-.96ZM294.91,179.05h-3.7c-.21,0-.24.09-.12.27.54.72,1.1,1.31,1.7,1.77.18.13.36.13.54,0,.64-.51,1.22-1.1,1.73-1.77.05-.05.06-.11.02-.17s-.1-.1-.17-.1Z"/>
      <path d="M300.31,223.01c.54.21.92.58,1.16,1.12.23.54.23,1.07,0,1.58l-.85,1.85c-.28.56-.71.97-1.27,1.21-.57.24-1.13.25-1.7.02-5.7-2.26-10.06-5.46-13.06-9.6-.1-.13-.23-.12-.38.04-3.16,4.21-7.57,7.4-13.22,9.56-.59.23-1.18.23-1.75,0s-1.01-.64-1.29-1.23l-.85-1.85c-.26-.51-.27-1.04-.04-1.58.23-.54.62-.91,1.16-1.12,4.52-1.67,7.72-3.58,9.6-5.74,1.88-2.16,2.81-4.88,2.81-8.17v-1.27c0-.59.22-1.1.66-1.54.44-.44.95-.66,1.54-.66h2.93c.59,0,1.1.22,1.54.66.44.44.66.95.66,1.54v1.27c0,3.26.93,5.98,2.79,8.15,1.86,2.17,5.05,4.09,9.58,5.76ZM289.94,209.33c1.31-1.67,2.47-3.44,3.47-5.32.05-.05.06-.12.02-.19-.04-.08-.1-.12-.17-.12h-14.57c-.23,0-.38.09-.46.27-1.54,2.98-3.26,5.56-5.16,7.75-.41.46-.92.71-1.52.73-.6.03-1.14-.17-1.6-.58l-1.77-1.5c-.44-.38-.67-.88-.69-1.48-.03-.6.15-1.14.54-1.6,2.93-3.52,5.12-7.48,6.59-11.87.21-.59.57-1.07,1.08-1.43.51-.36,1.08-.5,1.7-.42l2.23.23c.59.08,1.05.36,1.39.85.33.49.42,1.02.27,1.58-.05.13-.1.32-.15.58-.05.26-.1.45-.15.58-.05.23.03.35.23.35h17.46c.59,0,1.1.22,1.54.66.44.44.65.95.65,1.54v1.58c0,1.59-.28,2.99-.85,4.2-1.18,2.54-2.75,5.05-4.7,7.51-.38.49-.89.76-1.5.83s-1.17-.08-1.66-.44l-1.85-1.31c-.49-.33-.76-.8-.81-1.39-.05-.59.1-1.12.46-1.58Z"/>
      <path d="M295.69,261.61l.27,2.35c.08.62-.06,1.17-.42,1.66-.36.49-.85.77-1.46.85-1.18.15-2.39.23-3.62.23-4.73,0-8.51-1.21-11.35-3.64s-4.26-5.71-4.26-9.85c0-1.93.51-3.85,1.54-5.78,1.03-1.93,2.43-3.57,4.2-4.93.03,0,.04-.03.04-.08,0-.03-.01-.04-.04-.04-3.67.1-7.33.18-10.98.23-.59,0-1.1-.22-1.52-.66-.42-.44-.64-.95-.64-1.54v-2.16c0-.59.21-1.1.64-1.54.42-.44.93-.66,1.52-.66,9.94-.05,19.22-.27,27.82-.66.59-.02,1.11.17,1.56.58s.69.91.71,1.5l.04,2.16c.02.62-.17,1.15-.58,1.6-.41.45-.92.7-1.54.75-4.93.49-8.65,1.66-11.14,3.51-2.49,1.85-3.74,4.16-3.74,6.94,0,2.34.74,4.18,2.24,5.51,1.49,1.34,3.44,2,5.86,2,.8,0,1.59-.05,2.39-.15.62-.08,1.16.06,1.64.4.48.35.75.82.83,1.41ZM294.68,247.62c.28.51.71,1.31,1.27,2.39.26.54.28,1.09.08,1.66-.21.57-.58.98-1.12,1.23-.57.26-1.13.28-1.7.08-.57-.21-.99-.58-1.27-1.12-.13-.23-.54-.99-1.23-2.27-.28-.51-.33-1.05-.15-1.62.18-.56.54-.99,1.08-1.27h.04c.54-.28,1.1-.33,1.7-.15s1.03.54,1.31,1.08ZM300.85,246.23c.85,1.62,1.29,2.45,1.31,2.51.28.54.33,1.09.14,1.66-.19.57-.56.98-1.1,1.23l-.12.08c-.54.26-1.1.29-1.68.1-.58-.19-1.01-.56-1.29-1.1-.13-.26-.33-.65-.62-1.19-.28-.54-.5-.94-.66-1.19-.28-.51-.34-1.07-.17-1.66.17-.59.52-1.01,1.06-1.27l.12-.04c.54-.28,1.1-.34,1.7-.17.59.17,1.03.52,1.31,1.06Z"/>
      <path d="M299.04,274.4c.59,0,1.1.22,1.54.65.44.44.66.95.66,1.54v1.39c0,.59-.22,1.1-.66,1.54-.44.44-.95.66-1.54.66h-7.51c-.21,0-.31.12-.31.35v6.28c0,.13.05.32.15.58.8,1.64,1.19,3.35,1.19,5.12,0,3.78-1.07,6.65-3.2,8.61-2.13,1.97-5.68,3.26-10.64,3.87-.62.08-1.16-.07-1.64-.44-.48-.37-.78-.87-.91-1.48l-.38-1.85c-.1-.56.02-1.09.38-1.56.36-.48.83-.74,1.43-.79,1.95-.21,3.44-.42,4.45-.65,1.01-.23,1.73-.49,2.14-.77.41-.28.73-.67.96-1.16.02-.02.04-.06.04-.12s.01-.09.04-.12v-.08h-.08c-1.31.51-2.63.77-3.97.77-2.52,0-4.56-.71-6.13-2.12-1.57-1.41-2.35-3.28-2.35-5.59s.8-4.21,2.39-5.61,3.75-2.1,6.47-2.1c.8,0,1.66.13,2.58.39h.08s.04-.01.04-.04v-1.16c0-.23-.12-.35-.35-.35h-14.41c-.59,0-1.1-.22-1.54-.66-.44-.44-.66-.95-.66-1.54v-1.39c0-.59.22-1.1.66-1.54.44-.44.95-.65,1.54-.65h14.41c.23,0,.35-.12.35-.35v-.92c0-.59.22-1.1.65-1.54s.95-.66,1.54-.66h2.54c.59,0,1.1.22,1.54.66s.66.95.66,1.54v.92c0,.23.1.35.31.35h7.51ZM280.21,290.7c.5.44,1.15.66,1.95.66s1.44-.22,1.95-.66c.5-.44.75-.99.75-1.66s-.25-1.22-.75-1.66c-.5-.44-1.15-.66-1.95-.66s-1.44.22-1.95.66c-.5.44-.75.99-.75,1.66s.25,1.22.75,1.66Z"/>
    </g>
    <ellipse class="cls-10" cx="148.38" cy="302.4" rx="68.99" ry="4.46"/>
    <path class="cls-9" d="M206.3,243.39c-.36,29.33-14.35,46.27-14.35,46.27h-83.62c-14.39-22.08-14.34-46.27-14.34-46.27h112.3Z"/>
    <polygon class="cls-9" points="217.05 244.4 82.2 244.4 105.72 124.52 190.91 124.52 217.05 244.4"/>
    <polygon class="cls-9" points="122.32 153.31 100.69 153.31 109.77 169.05 123.8 170.28 113.17 177.81 145.75 216.55 122.32 153.31"/>
    <polygon class="cls-9" points="174.98 153.31 196.62 153.31 187.53 169.05 173.5 170.28 184.13 177.81 151.55 216.55 174.98 153.31"/>
    <polygon class="cls-9" points="122.42 153.31 148.77 153.31 174.99 153.28 169.28 168.71 148.77 154.41 127.97 168.28 122.42 153.31"/>
    <polygon class="cls-3" points="138.59 161.2 141.73 171.76 156.25 171.76 158.95 161.2 148.77 154.41 138.59 161.2"/>
    <polygon class="cls-3" points="141.73 171.76 133.84 184.39 148.62 224.03 162.92 185.96 156.25 171.76 141.73 171.76"/>
    <line class="cls-6" x1="148.38" y1="289.23" x2="148.38" y2="258.87"/>
    <ellipse class="cls-11" cx="121.82" cy="292.94" rx="26.56" ry="12.38"/>
    <ellipse class="cls-11" cx="174.94" cy="292.94" rx="26.56" ry="12.38"/>
    <ellipse class="cls-7" cx="102.96" cy="239.65" rx="9.12" ry="14.17" transform="translate(-26.12 13) rotate(-6.41)"/>
    <path class="cls-9" d="M85.48,145.02c-14.37,27.76,2.95,93.29,2.95,93.29l30.95,5.62c-5.34-34,6.79-98.92,6.79-98.92h-40.69Z"/>
    <ellipse class="cls-7" cx="193.87" cy="239.65" rx="14.17" ry="9.12" transform="translate(-65.93 405.54) rotate(-83.59)"/>
    <path class="cls-9" d="M211.35,144.86c14.37,27.76-2.95,93.29-2.95,93.29l-30.95,5.62c5.34-34-6.79-98.92-6.79-98.92h40.69Z"/>
    <polygon class="cls-1" points="215.85 163.07 80.52 163.07 84.21 144 213.66 143.5 215.85 163.07"/>
    <rect class="cls-5" x="43.23" y="12.8" width="210.3" height="140.48"/>
    <circle class="cls-3" cx="148.38" cy="83.04" r="42.59"/>
    <path class="cls-8" d="M43.16,84.04s49.41,15.32,75.95,15.32l-.75,4.55s-23.43,2.06-75.17-13.87c0,0-1.4-4.26-.04-6Z"/>
    <path class="cls-8" d="M253.53,83.9s-49.41,15.32-75.95,15.32l.75,4.55s23.43,2.06,75.17-13.87c0,0,1.4-4.26.04-6Z"/>
    <path class="cls-12" d="M66.5,27.29c.21,2.57,3.64,8.51,5.1,14.02,1.75,6.57-2.68,12.31-5.99,12.31s-6.82-5.56-5.99-12.31c.4-3.23,2.45-6.07,2.99-8.7"/>
    <rect class="cls-1" x="43.23" y="12.8" width="210.3" height="98.5"/>
    <path class="cls-2" d="M183.32,115.52c0,17.37-4.78,31.13-35.37,31.13s-34.51-14.24-34.51-31.61,17.53-43.16,34.9-43.16,34.98,26.27,34.98,43.64Z"/>
    <circle class="cls-5" cx="148.38" cy="114.89" r="10.18"/>
    <path class="cls-5" d="M145.75,115.64s-3.86,32.56-23.42,46.32c-19.02,13.38-45.67,5.23-51.85,20.01-5.72,13.69,10.8,18.08,10.8,18.08l-.59-5.72c.3.12-11.42-3.92-3.89-12.64,8.93-10.34,36.75.73,57.73-24.55,0,0,11.21-11.63,16.45-41.68.17-.52-4.01-1.19-5.24.18Z"/>
    <line class="cls-6" x1="208.86" y1="12.8" x2="208.86" y2="45.88"/>
    <line class="cls-6" x1="222.14" y1="12.8" x2="222.14" y2="45.88"/>
    <line class="cls-6" x1="235.17" y1="12.8" x2="235.17" y2="45.88"/>
  </g>
</svg>