<?xml version="1.0" encoding="UTF-8"?>
<svg id="_レイヤー_1" data-name="レイヤー 1" xmlns="http://www.w3.org/2000/svg" viewBox="0 0 370 320">
  <defs>
    <style>
      .cls-1 {
        opacity: .2;
      }

      .cls-1, .cls-2, .cls-3, .cls-4, .cls-5, .cls-6, .cls-7, .cls-8, .cls-9, .cls-10, .cls-11 {
        stroke-linecap: round;
        stroke-linejoin: round;
      }

      .cls-1, .cls-2, .cls-4, .cls-5, .cls-6, .cls-7, .cls-8, .cls-9, .cls-10, .cls-11 {
        stroke: #000;
        stroke-width: 2px;
      }

      .cls-2 {
        fill: red;
      }

      .cls-3 {
        stroke: #fff;
        stroke-width: 5px;
      }

      .cls-3, .cls-4 {
        fill: #fff;
      }

      .cls-5 {
        fill: #f4db8e;
      }

      .cls-6 {
        fill: #ccc;
      }

      .cls-7 {
        fill: #1b1464;
      }

      .cls-8 {
        fill: #171c61;
      }

      .cls-9 {
        opacity: .3;
      }

      .cls-10 {
        fill: #40210f;
      }

      .cls-11 {
        fill: #009fe8;
      }
    </style>
  </defs>
  <g id="_気にしすぎました" data-name="気にしすぎました">
    <g>
      <path class="cls-3" d="M311.69,28.03l-1.69-1.14c-.47-.32-.74-.75-.83-1.31-.09-.55.04-1.05.39-1.49,1.91-2.62,3.46-5.47,4.64-8.53.22-.56.59-.99,1.1-1.29s1.07-.39,1.66-.29l3.05.66c.32.05.56.21.72.5.16.28.19.57.09.87-.05.1-.01.15.11.15h18.72c.56,0,1.05.21,1.47.63s.63.91.63,1.47v1.14c0,.56-.21,1.06-.63,1.47-.42.42-.91.63-1.47.63h-20.79c-.2,0-.34.09-.44.26-.05.1-.12.22-.2.37s-.15.27-.2.37c-.05.05-.05.11,0,.18.05.07.11.11.18.11h19.24c.56,0,1.05.21,1.47.63s.62.91.62,1.47v.04c0,.56-.21,1.05-.62,1.47s-.91.62-1.47.62h-18.73c-.54,0-1.01-.19-1.4-.57-.39-.38-.59-.85-.59-1.42,0-.05-.02-.07-.07-.07s-.09.02-.11.07c-.61.93-1.21,1.79-1.8,2.58-.37.47-.85.74-1.43.83-.59.09-1.13-.04-1.62-.39ZM329.42,43.52c.44.34.69.8.75,1.38.06.58-.1,1.07-.5,1.49l-1.07,1.14c-.39.42-.88.66-1.45.72-.58.06-1.1-.09-1.56-.46-.39-.32-1.06-.84-2-1.56-.94-.72-1.65-1.27-2.12-1.64-.17-.15-.36-.15-.55,0-2.28,1.52-4.62,2.81-7.03,3.86-.56.25-1.13.27-1.69.07-.56-.2-.99-.55-1.29-1.07l-.88-1.55c-.27-.49-.31-.99-.13-1.51s.52-.88,1.01-1.1c1.81-.81,3.42-1.66,4.82-2.54.2-.1.2-.21,0-.33-1.03-.74-1.89-1.32-2.58-1.77-.47-.32-.75-.75-.85-1.31-.1-.55.02-1.05.37-1.49l.92-1.18c.37-.47.85-.75,1.43-.85.59-.1,1.13.01,1.62.33,1.08.69,2.43,1.61,4.05,2.76.15.1.31.09.48-.04,1.1-.93,2.02-1.77,2.76-2.5.42-.42.91-.63,1.47-.64.56-.01,1.05.18,1.47.57l1.21,1.18c.42.42.64.91.66,1.49.02.58-.16,1.07-.55,1.49-.74.76-1.42,1.43-2.06,2.02-.17.17-.17.32,0,.44.15.12.61.49,1.4,1.1.78.61,1.41,1.1,1.88,1.47ZM342.26,34.14c.59.12,1.07.42,1.43.88.37.47.54.99.52,1.58-.22,3.16-.59,5.63-1.1,7.41-.52,1.78-1.13,2.97-1.86,3.59s-1.66.92-2.81.92c-2.43,0-4.42-1.21-5.98-3.62-1.56-2.42-2.39-6.13-2.48-11.13,0-.22-.1-.33-.29-.33h-15.45c-.56,0-1.05-.21-1.47-.63-.42-.42-.63-.91-.63-1.47v-.96c0-.56.21-1.05.63-1.47s.91-.62,1.47-.62h20.46c.56,0,1.05.2,1.47.61.42.41.62.89.62,1.45,0,2.38.08,4.37.24,5.96.16,1.59.32,2.68.5,3.26.17.58.36.86.55.86.1,0,.17-.08.22-.24.05-.16.12-.61.2-1.34.08-.74.19-1.84.31-3.31.05-.56.3-1.01.75-1.34s.95-.45,1.49-.35l1.21.29Z"/>
      <path class="cls-3" d="M318.23,53.43c.54.05.97.31,1.29.77.32.47.42.97.29,1.51-.83,3.88-1.25,8.09-1.25,12.66s.42,8.78,1.25,12.66c.12.54.02,1.04-.29,1.51-.32.47-.75.72-1.29.77l-2.76.29c-.59.05-1.13-.09-1.62-.42-.49-.33-.8-.79-.92-1.38-.91-4.22-1.36-8.69-1.36-13.43s.45-9.21,1.36-13.43c.12-.59.43-1.05.92-1.38.49-.33,1.03-.47,1.62-.42l2.76.29ZM340.93,77.42l.33,1.95c.1.59-.02,1.12-.37,1.6-.34.48-.8.78-1.36.9-2.28.44-4.61.66-6.99.66-3.58,0-6.38-.71-8.39-2.13-2.01-1.42-3.02-3.35-3.02-5.78,0-.91.28-1.97.85-3.2.56-1.23,1.34-2.42,2.32-3.57.37-.44.86-.68,1.47-.72.61-.04,1.15.13,1.62.5l1.47,1.1c.44.34.69.8.75,1.36.06.56-.08,1.07-.42,1.51-.83,1.08-1.25,1.9-1.25,2.46,0,.74.35,1.29,1.05,1.66.7.37,1.88.55,3.55.55,1.84,0,3.86-.18,6.07-.55.54-.1,1.04.02,1.49.35s.73.78.83,1.34ZM338.36,55.31c.56,0,1.05.21,1.47.62.42.42.62.91.62,1.47v1.88c0,.56-.21,1.06-.62,1.47-.42.42-.91.63-1.47.63h-11.81c-.56,0-1.05-.21-1.47-.63-.42-.42-.63-.91-.63-1.47v-1.88c0-.56.21-1.05.63-1.47s.91-.62,1.47-.62h11.81Z"/>
      <path class="cls-3" d="M339.79,105.9c.54.2.93.55,1.16,1.07.23.52.24,1.04.02,1.58-1.79,4.22-3.96,7.28-6.51,9.2-2.55,1.91-5.52,2.87-8.9,2.87-3.02,0-5.35-.43-6.99-1.29-1.64-.86-2.85-2.34-3.62-4.45s-1.16-5.1-1.16-8.98c0-4.54.13-9.23.41-14.09.05-.59.29-1.09.72-1.49.43-.4.94-.59,1.53-.57l2.98.11c.56.02,1.04.25,1.42.66.38.42.56.91.53,1.47-.27,4.66-.41,9.29-.41,13.91,0,2.23.15,3.93.46,5.09.31,1.17.78,1.96,1.42,2.37.64.42,1.54.62,2.72.62,1.79,0,3.42-.6,4.89-1.8,1.47-1.2,2.87-3.21,4.19-6.03.27-.54.67-.92,1.2-1.14s1.06-.23,1.6-.04l2.35.92Z"/>
      <path class="cls-3" d="M340.38,128.34c.56,0,1.05.21,1.47.62.42.42.62.91.62,1.47v1.32c0,.56-.21,1.05-.62,1.47-.42.42-.91.63-1.47.63h-7.17c-.2,0-.29.11-.29.33v6c0,.12.05.31.15.55.76,1.57,1.14,3.2,1.14,4.89,0,3.61-1.02,6.35-3.05,8.22s-5.42,3.11-10.15,3.7c-.59.07-1.11-.07-1.56-.42-.45-.36-.74-.83-.86-1.42l-.37-1.77c-.1-.54.02-1.04.37-1.49.34-.45.8-.7,1.36-.75,1.86-.2,3.28-.4,4.25-.62.97-.22,1.65-.47,2.04-.74.39-.27.7-.64.92-1.1.02-.02.04-.06.04-.11s.01-.08.04-.11v-.07h-.07c-1.25.49-2.51.74-3.79.74-2.4,0-4.35-.67-5.85-2.02-1.5-1.35-2.24-3.13-2.24-5.33s.76-4.02,2.28-5.35c1.52-1.34,3.58-2,6.18-2,.76,0,1.58.12,2.46.37h.07s.04-.01.04-.04v-1.1c0-.22-.11-.33-.33-.33h-13.76c-.56,0-1.06-.21-1.47-.63-.42-.42-.63-.91-.63-1.47v-1.32c0-.56.21-1.05.63-1.47s.91-.62,1.47-.62h13.76c.22,0,.33-.11.33-.33v-.88c0-.56.21-1.05.62-1.47s.91-.63,1.47-.63h2.43c.56,0,1.05.21,1.47.63s.63.91.63,1.47v.88c0,.22.1.33.29.33h7.17ZM322.41,143.9c.48.42,1.1.62,1.86.62s1.38-.21,1.86-.62.72-.94.72-1.58-.24-1.17-.72-1.58-1.1-.62-1.86-.62-1.38.21-1.86.62c-.48.42-.72.94-.72,1.58s.24,1.17.72,1.58Z"/>
      <path class="cls-3" d="M338.84,172.52c.56-.02,1.06.16,1.49.55s.66.87.68,1.43l.04,1.32c.02.56-.16,1.07-.55,1.51-.39.44-.87.67-1.43.7-.52.02-1.3.05-2.35.09-1.05.04-1.84.07-2.35.09-.22,0-.28.09-.18.26.44.93.99,1.95,1.66,3.05.27.47.33.96.18,1.47-.15.52-.47.87-.96,1.07l-3.16,1.32c-1.23.51-2.51.56-3.86.15-1.64-.54-3.2-.81-4.67-.81-2.45,0-3.68.61-3.68,1.84,0,.83.55,1.44,1.66,1.82,1.1.38,3.13.57,6.07.57,1.69,0,3.94-.16,6.73-.48.56-.07,1.08.07,1.54.42.47.36.74.82.81,1.38l.22,1.58c.07.56-.07,1.08-.42,1.54s-.82.74-1.38.81c-2.55.29-5.05.44-7.5.44-5.08,0-8.8-.68-11.17-2.04-2.37-1.36-3.55-3.38-3.55-6.05,0-2.11.91-3.8,2.74-5.08,1.83-1.28,4.47-1.91,7.93-1.91,1.59,0,3.04.12,4.34.37h.07v-.07c-.07-.15-.17-.36-.28-.62s-.19-.45-.24-.55c-.07-.17-.22-.26-.44-.26-6.23.15-10.88.22-13.94.22-.59,0-1.09-.21-1.49-.62s-.61-.91-.61-1.47v-1.32c0-.56.2-1.05.61-1.47s.89-.63,1.45-.63c3.56,0,7.6-.06,12.14-.18.2,0,.27-.1.22-.29-.05-.12-.1-.36-.15-.7-.05-.22-.18-.33-.41-.33-4.46.1-7.79.15-9.97.15-.56,0-1.05-.21-1.45-.62-.41-.42-.61-.91-.61-1.47v-1.32c0-.56.2-1.05.61-1.47.4-.42.89-.62,1.45-.62,2.01,0,5.03-.05,9.05-.15.17,0,.26-.1.26-.29l-.11-.88c-.05-.56.12-1.06.5-1.49.38-.43.86-.67,1.45-.72l2.43-.15c.56-.02,1.06.15,1.49.53.43.38.67.86.72,1.45.02.1.05.27.07.51.02.25.04.42.04.52,0,.22.1.33.29.33.29-.02.74-.05,1.34-.07.6-.02,1.05-.04,1.34-.04.07,0,.13-.03.17-.09.04-.06.04-.12.02-.17-.05-.07-.12-.2-.2-.37-.09-.17-.15-.31-.2-.4-.25-.47-.29-.95-.13-1.45.16-.5.47-.88.94-1.12.49-.25.99-.28,1.49-.11s.89.5,1.16.99c.12.22.29.55.51.97.22.43.39.75.52.98.22.44.26.88.13,1.32-.14.44-.39.8-.75,1.07-.15.1-.22.26-.22.48l.04,1.18c.02.56-.17,1.06-.57,1.49-.4.43-.89.66-1.45.68-.34,0-.85.02-1.53.07-.67.05-1.18.07-1.53.07-.22,0-.31.11-.26.33.02.07.06.2.11.37.05.17.08.29.11.37.02.17.16.26.4.26,4.27-.15,6.45-.22,6.55-.22ZM342.4,162.55c.12.25.3.6.53,1.07.23.47.4.8.5.99.24.49.28.98.11,1.47-.17.49-.5.86-.99,1.1-.49.25-.99.28-1.49.11-.5-.17-.89-.5-1.16-.99-.22-.44-.58-1.1-1.07-1.99-.25-.49-.29-.99-.13-1.49.16-.5.48-.88.97-1.12.49-.24,1.01-.28,1.54-.11.54.17.93.49,1.18.96Z"/>
      <path class="cls-3" d="M338.91,202.32c.56,0,1.05.21,1.47.62.42.42.62.91.62,1.47v1.69c0,.56-.21,1.05-.62,1.47-.42.42-.91.62-1.47.62h-6.4c-.22,0-.33.11-.33.33v.85c0,.2.11.29.33.29h4.93c.56,0,1.05.21,1.47.62.42.42.62.91.62,1.47v1.51c0,.56-.21,1.05-.62,1.47s-.91.62-1.47.62h-4.93c-.22,0-.33.11-.33.33v3.83c0,.22.1.39.29.51,2.04,1.28,4.12,2.87,6.25,4.78.42.39.64.88.68,1.45.04.58-.14,1.07-.53,1.49l-1.25,1.32c-.39.42-.87.64-1.43.68-.56.04-1.05-.14-1.47-.53-.93-.86-1.88-1.67-2.83-2.43-.15-.15-.28-.11-.41.11-.59,1.57-1.63,2.7-3.13,3.4-1.5.7-3.53,1.05-6.11,1.05-2.77,0-4.94-.64-6.49-1.93-1.56-1.29-2.34-3.1-2.34-5.43s.76-4.02,2.28-5.28c1.52-1.26,3.7-1.89,6.55-1.89,1.08,0,2.08.09,3.02.26.2.05.29-.04.29-.26v-1.14c0-.22-.1-.33-.29-.33h-10.12c-.56,0-1.05-.21-1.47-.62s-.62-.91-.62-1.47v-1.51c0-.56.21-1.05.62-1.47.42-.42.91-.62,1.47-.62h10.12c.2,0,.29-.1.29-.29v-.85c0-.22-.1-.33-.29-.33h-11.59c-.56,0-1.05-.21-1.47-.62-.42-.42-.63-.91-.63-1.47v-1.69c0-.56.21-1.05.63-1.47.42-.42.91-.62,1.47-.62h11.59c.2,0,.29-.11.29-.33v-.52c0-.56.21-1.05.63-1.47s.91-.62,1.47-.62h2.43c.56,0,1.05.21,1.47.62.42.42.62.91.62,1.47v.52c0,.22.11.33.33.33h6.4ZM322.24,225.5c1.25,0,2.09-.13,2.52-.41.43-.27.68-.86.75-1.77,0-.22-.07-.34-.22-.37-.88-.27-1.66-.4-2.32-.4-1.96,0-2.94.49-2.94,1.47s.74,1.47,2.21,1.47Z"/>
      <path class="cls-3" d="M339.79,253.1c.54.2.93.55,1.16,1.07.23.52.24,1.04.02,1.58-1.79,4.22-3.96,7.28-6.51,9.2-2.55,1.91-5.52,2.87-8.9,2.87-3.02,0-5.35-.43-6.99-1.29-1.64-.86-2.85-2.34-3.62-4.45s-1.16-5.1-1.16-8.98c0-4.54.13-9.23.41-14.09.05-.59.29-1.09.72-1.49.43-.4.94-.59,1.53-.57l2.98.11c.56.02,1.04.25,1.42.66.38.42.56.91.53,1.47-.27,4.66-.41,9.29-.41,13.91,0,2.23.15,3.93.46,5.09.31,1.17.78,1.96,1.42,2.37.64.42,1.54.62,2.72.62,1.79,0,3.42-.6,4.89-1.8,1.47-1.2,2.87-3.21,4.19-6.03.27-.54.67-.92,1.2-1.14s1.06-.23,1.6-.04l2.35.92Z"/>
      <path class="cls-3" d="M333.76,282.17h-11c-.2,0-.32.11-.37.33-1.4,7.09-3.08,13.86-5.04,20.31-.17.56-.52.99-1.03,1.29-.52.29-1.05.38-1.62.26l-2.58-.59c-.56-.12-.98-.42-1.25-.88-.27-.47-.32-.97-.15-1.51,1.84-5.89,3.46-12.19,4.86-18.91.05-.2-.04-.29-.26-.29h-2.02c-.56,0-1.05-.21-1.47-.63-.42-.42-.63-.91-.63-1.47v-1.69c0-.56.21-1.05.63-1.47s.91-.63,1.47-.63h3.16c.2,0,.32-.1.37-.29.02-.2.07-.48.15-.85.07-.37.12-.64.15-.81.1-.59.37-1.07.83-1.43.45-.37.97-.53,1.56-.48l2.5.18c.56.05,1.02.3,1.36.75.34.45.46.95.37,1.49-.02.12-.05.31-.09.55-.04.25-.07.43-.09.55-.05.22.04.33.26.33h9.93c.56,0,1.05.21,1.47.63s.62.91.62,1.47v1.69c0,.56-.21,1.06-.62,1.47-.42.42-.91.63-1.47.63ZM341.26,299.68l.22,1.77c.07.59-.07,1.11-.42,1.56-.36.45-.82.73-1.38.83-1.96.27-3.85.41-5.67.41-3.63,0-6.5-.67-8.61-2.02-2.11-1.35-3.16-3.07-3.16-5.15,0-1.35.6-2.71,1.8-4.08.88-.98,2.04-1.21,3.46-.7l1.43.55c.47.17.75.5.85.98.1.48-.01.9-.33,1.27-.39.44-.59.86-.59,1.25,0,.59.43,1.07,1.31,1.45.87.38,2.15.57,3.84.57s3.41-.12,4.93-.37c.56-.1,1.07.03,1.53.37.45.34.72.79.79,1.32ZM338.69,283.64c.59,0,1.09.2,1.51.61.42.41.63.9.63,1.49v1.51c0,.56-.2,1.05-.61,1.47-.4.42-.89.63-1.45.63-3.16.02-6.81.21-10.93.55-.56.05-1.07-.12-1.51-.5-.44-.38-.69-.85-.74-1.42l-.07-1.51c-.05-.59.12-1.1.5-1.54.38-.44.86-.69,1.45-.74,4.24-.34,7.98-.53,11.22-.55Z"/>
    </g>
    <g>
      <path d="M311.69,28.03l-1.69-1.14c-.47-.32-.74-.75-.83-1.31-.09-.55.04-1.05.39-1.49,1.91-2.62,3.46-5.47,4.64-8.53.22-.56.59-.99,1.1-1.29s1.07-.39,1.66-.29l3.05.66c.32.05.56.21.72.5.16.28.19.57.09.87-.05.1-.01.15.11.15h18.72c.56,0,1.05.21,1.47.63s.63.91.63,1.47v1.14c0,.56-.21,1.06-.63,1.47-.42.42-.91.63-1.47.63h-20.79c-.2,0-.34.09-.44.26-.05.1-.12.22-.2.37s-.15.27-.2.37c-.05.05-.05.11,0,.18.05.07.11.11.18.11h19.24c.56,0,1.05.21,1.47.63s.62.91.62,1.47v.04c0,.56-.21,1.05-.62,1.47s-.91.62-1.47.62h-18.73c-.54,0-1.01-.19-1.4-.57-.39-.38-.59-.85-.59-1.42,0-.05-.02-.07-.07-.07s-.09.02-.11.07c-.61.93-1.21,1.79-1.8,2.58-.37.47-.85.74-1.43.83-.59.09-1.13-.04-1.62-.39ZM329.42,43.52c.44.34.69.8.75,1.38.06.58-.1,1.07-.5,1.49l-1.07,1.14c-.39.42-.88.66-1.45.72-.58.06-1.1-.09-1.56-.46-.39-.32-1.06-.84-2-1.56-.94-.72-1.65-1.27-2.12-1.64-.17-.15-.36-.15-.55,0-2.28,1.52-4.62,2.81-7.03,3.86-.56.25-1.13.27-1.69.07-.56-.2-.99-.55-1.29-1.07l-.88-1.55c-.27-.49-.31-.99-.13-1.51s.52-.88,1.01-1.1c1.81-.81,3.42-1.66,4.82-2.54.2-.1.2-.21,0-.33-1.03-.74-1.89-1.32-2.58-1.77-.47-.32-.75-.75-.85-1.31-.1-.55.02-1.05.37-1.49l.92-1.18c.37-.47.85-.75,1.43-.85.59-.1,1.13.01,1.62.33,1.08.69,2.43,1.61,4.05,2.76.15.1.31.09.48-.04,1.1-.93,2.02-1.77,2.76-2.5.42-.42.91-.63,1.47-.64.56-.01,1.05.18,1.47.57l1.21,1.18c.42.42.64.91.66,1.49.02.58-.16,1.07-.55,1.49-.74.76-1.42,1.43-2.06,2.02-.17.17-.17.32,0,.44.15.12.61.49,1.4,1.1.78.61,1.41,1.1,1.88,1.47ZM342.26,34.14c.59.12,1.07.42,1.43.88.37.47.54.99.52,1.58-.22,3.16-.59,5.63-1.1,7.41-.52,1.78-1.13,2.97-1.86,3.59s-1.66.92-2.81.92c-2.43,0-4.42-1.21-5.98-3.62-1.56-2.42-2.39-6.13-2.48-11.13,0-.22-.1-.33-.29-.33h-15.45c-.56,0-1.05-.21-1.47-.63-.42-.42-.63-.91-.63-1.47v-.96c0-.56.21-1.05.63-1.47s.91-.62,1.47-.62h20.46c.56,0,1.05.2,1.47.61.42.41.62.89.62,1.45,0,2.38.08,4.37.24,5.96.16,1.59.32,2.68.5,3.26.17.58.36.86.55.86.1,0,.17-.08.22-.24.05-.16.12-.61.2-1.34.08-.74.19-1.84.31-3.31.05-.56.3-1.01.75-1.34s.95-.45,1.49-.35l1.21.29Z"/>
      <path d="M318.23,53.43c.54.05.97.31,1.29.77.32.47.42.97.29,1.51-.83,3.88-1.25,8.09-1.25,12.66s.42,8.78,1.25,12.66c.12.54.02,1.04-.29,1.51-.32.47-.75.72-1.29.77l-2.76.29c-.59.05-1.13-.09-1.62-.42-.49-.33-.8-.79-.92-1.38-.91-4.22-1.36-8.69-1.36-13.43s.45-9.21,1.36-13.43c.12-.59.43-1.05.92-1.38.49-.33,1.03-.47,1.62-.42l2.76.29ZM340.93,77.42l.33,1.95c.1.59-.02,1.12-.37,1.6-.34.48-.8.78-1.36.9-2.28.44-4.61.66-6.99.66-3.58,0-6.38-.71-8.39-2.13-2.01-1.42-3.02-3.35-3.02-5.78,0-.91.28-1.97.85-3.2.56-1.23,1.34-2.42,2.32-3.57.37-.44.86-.68,1.47-.72.61-.04,1.15.13,1.62.5l1.47,1.1c.44.34.69.8.75,1.36.06.56-.08,1.07-.42,1.51-.83,1.08-1.25,1.9-1.25,2.46,0,.74.35,1.29,1.05,1.66.7.37,1.88.55,3.55.55,1.84,0,3.86-.18,6.07-.55.54-.1,1.04.02,1.49.35s.73.78.83,1.34ZM338.36,55.31c.56,0,1.05.21,1.47.62.42.42.62.91.62,1.47v1.88c0,.56-.21,1.06-.62,1.47-.42.42-.91.63-1.47.63h-11.81c-.56,0-1.05-.21-1.47-.63-.42-.42-.63-.91-.63-1.47v-1.88c0-.56.21-1.05.63-1.47s.91-.62,1.47-.62h11.81Z"/>
      <path d="M339.79,105.9c.54.2.93.55,1.16,1.07.23.52.24,1.04.02,1.58-1.79,4.22-3.96,7.28-6.51,9.2-2.55,1.91-5.52,2.87-8.9,2.87-3.02,0-5.35-.43-6.99-1.29-1.64-.86-2.85-2.34-3.62-4.45s-1.16-5.1-1.16-8.98c0-4.54.13-9.23.41-14.09.05-.59.29-1.09.72-1.49.43-.4.94-.59,1.53-.57l2.98.11c.56.02,1.04.25,1.42.66.38.42.56.91.53,1.47-.27,4.66-.41,9.29-.41,13.91,0,2.23.15,3.93.46,5.09.31,1.17.78,1.96,1.42,2.37.64.42,1.54.62,2.72.62,1.79,0,3.42-.6,4.89-1.8,1.47-1.2,2.87-3.21,4.19-6.03.27-.54.67-.92,1.2-1.14s1.06-.23,1.6-.04l2.35.92Z"/>
      <path d="M340.38,128.34c.56,0,1.05.21,1.47.62.42.42.62.91.62,1.47v1.32c0,.56-.21,1.05-.62,1.47-.42.42-.91.63-1.47.63h-7.17c-.2,0-.29.11-.29.33v6c0,.12.05.31.15.55.76,1.57,1.14,3.2,1.14,4.89,0,3.61-1.02,6.35-3.05,8.22s-5.42,3.11-10.15,3.7c-.59.07-1.11-.07-1.56-.42-.45-.36-.74-.83-.86-1.42l-.37-1.77c-.1-.54.02-1.04.37-1.49.34-.45.8-.7,1.36-.75,1.86-.2,3.28-.4,4.25-.62.97-.22,1.65-.47,2.04-.74.39-.27.7-.64.92-1.1.02-.02.04-.06.04-.11s.01-.08.04-.11v-.07h-.07c-1.25.49-2.51.74-3.79.74-2.4,0-4.35-.67-5.85-2.02-1.5-1.35-2.24-3.13-2.24-5.33s.76-4.02,2.28-5.35c1.52-1.34,3.58-2,6.18-2,.76,0,1.58.12,2.46.37h.07s.04-.01.04-.04v-1.1c0-.22-.11-.33-.33-.33h-13.76c-.56,0-1.06-.21-1.47-.63-.42-.42-.63-.91-.63-1.47v-1.32c0-.56.21-1.05.63-1.47s.91-.62,1.47-.62h13.76c.22,0,.33-.11.33-.33v-.88c0-.56.21-1.05.62-1.47s.91-.63,1.47-.63h2.43c.56,0,1.05.21,1.47.63s.63.91.63,1.47v.88c0,.22.1.33.29.33h7.17ZM322.41,143.9c.48.42,1.1.62,1.86.62s1.38-.21,1.86-.62.72-.94.72-1.58-.24-1.17-.72-1.58-1.1-.62-1.86-.62-1.38.21-1.86.62c-.48.42-.72.94-.72,1.58s.24,1.17.72,1.58Z"/>
      <path d="M338.84,172.52c.56-.02,1.06.16,1.49.55s.66.87.68,1.43l.04,1.32c.02.56-.16,1.07-.55,1.51-.39.44-.87.67-1.43.7-.52.02-1.3.05-2.35.09-1.05.04-1.84.07-2.35.09-.22,0-.28.09-.18.26.44.93.99,1.95,1.66,3.05.27.47.33.96.18,1.47-.15.52-.47.87-.96,1.07l-3.16,1.32c-1.23.51-2.51.56-3.86.15-1.64-.54-3.2-.81-4.67-.81-2.45,0-3.68.61-3.68,1.84,0,.83.55,1.44,1.66,1.82,1.1.38,3.13.57,6.07.57,1.69,0,3.94-.16,6.73-.48.56-.07,1.08.07,1.54.42.47.36.74.82.81,1.38l.22,1.58c.07.56-.07,1.08-.42,1.54s-.82.74-1.38.81c-2.55.29-5.05.44-7.5.44-5.08,0-8.8-.68-11.17-2.04-2.37-1.36-3.55-3.38-3.55-6.05,0-2.11.91-3.8,2.74-5.08,1.83-1.28,4.47-1.91,7.93-1.91,1.59,0,3.04.12,4.34.37h.07v-.07c-.07-.15-.17-.36-.28-.62s-.19-.45-.24-.55c-.07-.17-.22-.26-.44-.26-6.23.15-10.88.22-13.94.22-.59,0-1.09-.21-1.49-.62s-.61-.91-.61-1.47v-1.32c0-.56.2-1.05.61-1.47s.89-.63,1.45-.63c3.56,0,7.6-.06,12.14-.18.2,0,.27-.1.22-.29-.05-.12-.1-.36-.15-.7-.05-.22-.18-.33-.41-.33-4.46.1-7.79.15-9.97.15-.56,0-1.05-.21-1.45-.62-.41-.42-.61-.91-.61-1.47v-1.32c0-.56.2-1.05.61-1.47.4-.42.89-.62,1.45-.62,2.01,0,5.03-.05,9.05-.15.17,0,.26-.1.26-.29l-.11-.88c-.05-.56.12-1.06.5-1.49.38-.43.86-.67,1.45-.72l2.43-.15c.56-.02,1.06.15,1.49.53.43.38.67.86.72,1.45.02.1.05.27.07.51.02.25.04.42.04.52,0,.22.1.33.29.33.29-.02.74-.05,1.34-.07.6-.02,1.05-.04,1.34-.04.07,0,.13-.03.17-.09.04-.06.04-.12.02-.17-.05-.07-.12-.2-.2-.37-.09-.17-.15-.31-.2-.4-.25-.47-.29-.95-.13-1.45.16-.5.47-.88.94-1.12.49-.25.99-.28,1.49-.11s.89.5,1.16.99c.12.22.29.55.51.97.22.43.39.75.52.98.22.44.26.88.13,1.32-.14.44-.39.8-.75,1.07-.15.1-.22.26-.22.48l.04,1.18c.02.56-.17,1.06-.57,1.49-.4.43-.89.66-1.45.68-.34,0-.85.02-1.53.07-.67.05-1.18.07-1.53.07-.22,0-.31.11-.26.33.02.07.06.2.11.37.05.17.08.29.11.37.02.17.16.26.4.26,4.27-.15,6.45-.22,6.55-.22ZM342.4,162.55c.12.25.3.6.53,1.07.23.47.4.8.5.99.24.49.28.98.11,1.47-.17.49-.5.86-.99,1.1-.49.25-.99.28-1.49.11-.5-.17-.89-.5-1.16-.99-.22-.44-.58-1.1-1.07-1.99-.25-.49-.29-.99-.13-1.49.16-.5.48-.88.97-1.12.49-.24,1.01-.28,1.54-.11.54.17.93.49,1.18.96Z"/>
      <path d="M338.91,202.32c.56,0,1.05.21,1.47.62.42.42.62.91.62,1.47v1.69c0,.56-.21,1.05-.62,1.47-.42.42-.91.62-1.47.62h-6.4c-.22,0-.33.11-.33.33v.85c0,.2.11.29.33.29h4.93c.56,0,1.05.21,1.47.62.42.42.62.91.62,1.47v1.51c0,.56-.21,1.05-.62,1.47s-.91.62-1.47.62h-4.93c-.22,0-.33.11-.33.33v3.83c0,.22.1.39.29.51,2.04,1.28,4.12,2.87,6.25,4.78.42.39.64.88.68,1.45.04.58-.14,1.07-.53,1.49l-1.25,1.32c-.39.42-.87.64-1.43.68-.56.04-1.05-.14-1.47-.53-.93-.86-1.88-1.67-2.83-2.43-.15-.15-.28-.11-.41.11-.59,1.57-1.63,2.7-3.13,3.4-1.5.7-3.53,1.05-6.11,1.05-2.77,0-4.94-.64-6.49-1.93-1.56-1.29-2.34-3.1-2.34-5.43s.76-4.02,2.28-5.28c1.52-1.26,3.7-1.89,6.55-1.89,1.08,0,2.08.09,3.02.26.2.05.29-.04.29-.26v-1.14c0-.22-.1-.33-.29-.33h-10.12c-.56,0-1.05-.21-1.47-.62s-.62-.91-.62-1.47v-1.51c0-.56.21-1.05.62-1.47.42-.42.91-.62,1.47-.62h10.12c.2,0,.29-.1.29-.29v-.85c0-.22-.1-.33-.29-.33h-11.59c-.56,0-1.05-.21-1.47-.62-.42-.42-.63-.91-.63-1.47v-1.69c0-.56.21-1.05.63-1.47.42-.42.91-.62,1.47-.62h11.59c.2,0,.29-.11.29-.33v-.52c0-.56.21-1.05.63-1.47s.91-.62,1.47-.62h2.43c.56,0,1.05.21,1.47.62.42.42.62.91.62,1.47v.52c0,.22.11.33.33.33h6.4ZM322.24,225.5c1.25,0,2.09-.13,2.52-.41.43-.27.68-.86.75-1.77,0-.22-.07-.34-.22-.37-.88-.27-1.66-.4-2.32-.4-1.96,0-2.94.49-2.94,1.47s.74,1.47,2.21,1.47Z"/>
      <path d="M339.79,253.1c.54.2.93.55,1.16,1.07.23.52.24,1.04.02,1.58-1.79,4.22-3.96,7.28-6.51,9.2-2.55,1.91-5.52,2.87-8.9,2.87-3.02,0-5.35-.43-6.99-1.29-1.64-.86-2.85-2.34-3.62-4.45s-1.16-5.1-1.16-8.98c0-4.54.13-9.23.41-14.09.05-.59.29-1.09.72-1.49.43-.4.94-.59,1.53-.57l2.98.11c.56.02,1.04.25,1.42.66.38.42.56.91.53,1.47-.27,4.66-.41,9.29-.41,13.91,0,2.23.15,3.93.46,5.09.31,1.17.78,1.96,1.42,2.37.64.42,1.54.62,2.72.62,1.79,0,3.42-.6,4.89-1.8,1.47-1.2,2.87-3.21,4.19-6.03.27-.54.67-.92,1.2-1.14s1.06-.23,1.6-.04l2.35.92Z"/>
      <path d="M333.76,282.17h-11c-.2,0-.32.11-.37.33-1.4,7.09-3.08,13.86-5.04,20.31-.17.56-.52.99-1.03,1.29-.52.29-1.05.38-1.62.26l-2.58-.59c-.56-.12-.98-.42-1.25-.88-.27-.47-.32-.97-.15-1.51,1.84-5.89,3.46-12.19,4.86-18.91.05-.2-.04-.29-.26-.29h-2.02c-.56,0-1.05-.21-1.47-.63-.42-.42-.63-.91-.63-1.47v-1.69c0-.56.21-1.05.63-1.47s.91-.63,1.47-.63h3.16c.2,0,.32-.1.37-.29.02-.2.07-.48.15-.85.07-.37.12-.64.15-.81.1-.59.37-1.07.83-1.43.45-.37.97-.53,1.56-.48l2.5.18c.56.05,1.02.3,1.36.75.34.45.46.95.37,1.49-.02.12-.05.31-.09.55-.04.25-.07.43-.09.55-.05.22.04.33.26.33h9.93c.56,0,1.05.21,1.47.63s.62.91.62,1.47v1.69c0,.56-.21,1.06-.62,1.47-.42.42-.91.63-1.47.63ZM341.26,299.68l.22,1.77c.07.59-.07,1.11-.42,1.56-.36.45-.82.73-1.38.83-1.96.27-3.85.41-5.67.41-3.63,0-6.5-.67-8.61-2.02-2.11-1.35-3.16-3.07-3.16-5.15,0-1.35.6-2.71,1.8-4.08.88-.98,2.04-1.21,3.46-.7l1.43.55c.47.17.75.5.85.98.1.48-.01.9-.33,1.27-.39.44-.59.86-.59,1.25,0,.59.43,1.07,1.31,1.45.87.38,2.15.57,3.84.57s3.41-.12,4.93-.37c.56-.1,1.07.03,1.53.37.45.34.72.79.79,1.32ZM338.69,283.64c.59,0,1.09.2,1.51.61.42.41.63.9.63,1.49v1.51c0,.56-.2,1.05-.61,1.47-.4.42-.89.63-1.45.63-3.16.02-6.81.21-10.93.55-.56.05-1.07-.12-1.51-.5-.44-.38-.69-.85-.74-1.42l-.07-1.51c-.05-.59.12-1.1.5-1.54.38-.44.86-.69,1.45-.74,4.24-.34,7.98-.53,11.22-.55Z"/>
    </g>
    <ellipse class="cls-9" cx="165.16" cy="285.53" rx="91.21" ry="21.43"/>
    <ellipse class="cls-7" cx="165.45" cy="259.7" rx="64.7" ry="32.05"/>
    <path class="cls-7" d="M232.86,267.82l-26.94-137.38h-87.55l-20.87,136.52s63.24-42.34,135.36.86Z"/>
    <polygon class="cls-7" points="132.04 165.65 106.44 165.65 117.19 184.42 133.79 185.88 121.21 194.86 159.77 241.04 132.04 165.65"/>
    <polygon class="cls-7" points="194.35 165.65 219.95 165.65 209.2 184.42 192.6 185.88 205.18 194.86 166.63 241.04 194.35 165.65"/>
    <polygon class="cls-7" points="132.16 165.65 163.33 165.65 194.36 165.62 187.6 184 163.33 166.96 138.72 183.5 132.16 165.65"/>
    <polygon class="cls-2" points="151.28 175.06 155.01 187.65 172.18 187.65 175.38 175.06 163.33 166.96 151.28 175.06"/>
    <polygon class="cls-2" points="155.01 187.65 145.66 202.7 163.16 249.95 180.08 204.57 172.18 187.65 155.01 187.65"/>
    <path class="cls-7" d="M183.57,196.39c-6.89-.1-13.37,2.41-18.91,6.84-5.09-3.87-10.96-6.12-17.24-6.21-19.96-.29-36.45,21.29-36.83,48.19-.38,26.91,15.48,48.95,35.44,49.24,6.89.1,13.37-2.41,18.91-6.84,5.09,3.87,10.96,6.12,17.24,6.21,19.96.29,36.45-21.29,36.83-48.19.38-26.91-15.48-48.95-35.44-49.24Z"/>
    <line class="cls-8" x1="164.66" y1="203.23" x2="164.94" y2="287.62"/>
    <path class="cls-5" d="M130.56,229.71c-5.52,6.28-2.69,18.83,6.32,28.01,9.02,9.19,20.8,11.54,26.33,5.25,5.52-6.28,2.69-18.83-6.32-28.01-9.02-9.19-20.8-11.54-26.33-5.25Z"/>
    <path class="cls-7" d="M88.14,171.26c8.68,49.85,39.15,80.04,39.15,80.04l35.52-18.37c-28.2-30-28.59-61.67-28.59-61.67h-46.08Z"/>
    <path class="cls-5" d="M194.53,229.83c5.52,6.28,2.69,18.83-6.32,28.01-9.02,9.19-20.8,11.54-26.33,5.25-5.52-6.28-2.69-18.83,6.32-28.01,9.02-9.19,20.8-11.54,26.33-5.25Z"/>
    <path class="cls-7" d="M241.02,171.26c-9.22,49.24-43.23,80.16-43.23,80.16l-34.98-18.49c28.65-29.94,29.48-61.67,29.48-61.67h48.73Z"/>
    <polygon class="cls-1" points="237.04 187.04 91.8 186.68 86.1 162.58 242.82 163.17 237.04 187.04"/>
    <polygon class="cls-4" points="45.43 49.21 281.24 49.21 263.51 174.81 63.16 174.81 45.43 49.21"/>
    <path class="cls-2" d="M206.87,117.88c-1.15,20.34-20.76,36.05-43.85,36.05s-42.71-15.71-43.88-36.05c-1.24-21.47,18.37-39.78,43.85-39.78s45.1,18.31,43.89,39.78Z"/>
    <path class="cls-11" d="M72.43,61.17c.21,2.61,3.67,8.64,5.15,14.24,1.77,6.67-2.7,12.51-6.04,12.51s-6.88-5.65-6.04-12.51c.4-3.28,2.47-6.17,3.02-8.84"/>
    <polygon class="cls-6" points="45.43 49.21 49.94 39.18 277.42 39.18 281.24 49.21 45.43 49.21"/>
    <ellipse class="cls-10" cx="140.2" cy="285.77" rx="24.91" ry="14.76"/>
    <ellipse class="cls-10" cx="190.71" cy="285.77" rx="24.91" ry="14.76"/>
    <polygon class="cls-1" points="45.43 49.21 281.24 49.21 268.72 137.93 57.95 137.93 45.43 49.21"/>
  </g>
</svg>