<?xml version="1.0" encoding="UTF-8"?>
<svg id="_レイヤー_1" data-name="レイヤー 1" xmlns="http://www.w3.org/2000/svg" viewBox="0 0 370 319">
  <defs>
    <style>
      .cls-1 {
        fill: red;
      }

      .cls-1, .cls-2, .cls-3, .cls-4, .cls-5, .cls-6, .cls-7, .cls-8, .cls-9 {
        stroke-linecap: round;
        stroke-linejoin: round;
      }

      .cls-1, .cls-3, .cls-4, .cls-5, .cls-6, .cls-7, .cls-8, .cls-9 {
        stroke: #000;
        stroke-width: 2px;
      }

      .cls-2 {
        stroke: #fff;
        stroke-width: 5px;
      }

      .cls-2, .cls-3 {
        fill: #fff;
      }

      .cls-4 {
        fill: none;
      }

      .cls-5 {
        fill: #f4db8e;
      }

      .cls-6 {
        fill: #1b1464;
      }

      .cls-7 {
        opacity: .3;
      }

      .cls-8 {
        fill: #40210f;
      }

      .cls-9 {
        fill: #009fe8;
      }
    </style>
  </defs>
  <g id="_ありがとうございます_" data-name="ありがとうございます！">
    <g>
      <path class="cls-2" d="M339.58,22.53c3.97,0,7.01.86,9.13,2.59,2.12,1.73,3.18,4.08,3.18,7.05,0,2.31-.7,4.33-2.1,6.07-1.4,1.74-3.32,3-5.75,3.78-.49.16-.96.1-1.43-.17-.47-.27-.78-.66-.93-1.16l-.53-1.73c-.16-.49-.12-.96.12-1.41s.59-.79,1.08-1.02c1.09-.51,1.95-1.16,2.59-1.95.64-.79.96-1.59.96-2.41,0-.98-.21-1.77-.63-2.4-.02-.04-.07-.07-.15-.07s-.13.03-.15.1c-1.6,3.55-3.67,6.27-6.22,8.17-2.55,1.9-5.27,2.84-8.15,2.84-2.2,0-3.96-.63-5.31-1.9-1.34-1.26-2.01-2.96-2.01-5.09,0-2.24.67-4.22,2.01-5.95,1.34-1.73,3.25-3.06,5.74-3.99.15-.07.23-.19.23-.37v-2.36c0-.2-.09-.3-.27-.3h-4.16c-.51,0-.95-.19-1.33-.57-.38-.38-.57-.82-.57-1.33v-1.2c0-.51.19-.95.57-1.33s.82-.56,1.33-.56h4.16c.18,0,.27-.1.27-.3v-1.13c0-.51.19-.95.57-1.33.38-.38.82-.57,1.33-.57h1.86c.51,0,.95.19,1.33.57.38.38.57.82.57,1.33v1.13c0,.2.1.3.3.3h11.11c.51,0,.95.19,1.33.56.38.38.57.82.57,1.33v1.2c0,.51-.19.95-.57,1.33s-.82.57-1.33.57h-11.11c-.2,0-.3.1-.3.3v1.2c0,.18.09.27.27.27.75-.07,1.55-.1,2.4-.1ZM329.27,33.17c0,1.42.58,2.2,1.73,2.33.09.02.15,0,.2-.07.04-.07.07-.14.07-.23v-4.99c0-.18-.08-.21-.23-.1-1.18.93-1.76,1.95-1.76,3.06ZM339.61,28.12c.02-.07.01-.13-.03-.18-.04-.06-.1-.08-.17-.08-.53,0-1.26.04-2.2.13-.2.04-.3.14-.3.3v3.66s.02.08.07.1c.04.02.08.01.1-.03,1-1.18,1.84-2.47,2.53-3.89Z"/>
      <path class="cls-2" d="M340.58,47.81c2.95,0,5.29.99,7.04,2.98,1.74,1.99,2.61,4.76,2.61,8.33,0,5.3-1.46,9.23-4.39,11.78-2.93,2.55-7.61,3.94-14.04,4.16-.53.02-.98-.15-1.35-.52s-.57-.82-.62-1.35l-.13-1.86c-.02-.51.14-.95.48-1.33.34-.38.77-.58,1.28-.6,4.59-.16,7.76-.99,9.5-2.51,1.74-1.52,2.61-4.11,2.61-7.77s-1.22-5.32-3.66-5.32c-1.84,0-3.49.79-4.96,2.36-1.46,1.58-2.37,3.59-2.73,6.05-.07.53-.29.98-.67,1.35-.38.37-.83.55-1.36.55h-2.2c-.51,0-.95-.19-1.33-.57-.38-.38-.57-.82-.57-1.33v-13.17c0-.51.19-.95.57-1.33.38-.38.82-.57,1.33-.57h2.36c.51,0,.95.19,1.33.57s.57.82.57,1.33v2.76l.07-.03c2.37-2.64,5.12-3.96,8.25-3.96Z"/>
      <path class="cls-2" d="M335.59,84.74h2.73c.58,0,1.25.07,2.01.22.77.14,1.28.26,1.53.35.25.09.57.38.95.86.38.49.6.91.67,1.26.07.36.15,1.03.27,2.01.11.99.17,1.87.17,2.64v3.63c0,4.41-.54,7.57-1.61,9.46-1.08,1.9-2.64,2.84-4.71,2.84-1.49,0-3.32-.27-5.49-.8-.51-.13-.9-.43-1.16-.9-.27-.46-.33-.95-.2-1.46l.4-1.66c.13-.49.42-.86.87-1.13.44-.27.92-.34,1.43-.23,1.42.36,2.36.53,2.83.53.89,0,1.33-2.55,1.33-7.65,0-2.31-.08-3.66-.25-4.06-.17-.4-.75-.6-1.75-.6h-2.63c-.2,0-.32.09-.37.27-1.2,5.37-2.76,10.78-4.69,16.23-.18.51-.5.88-.98,1.12s-.96.27-1.45.12l-1.56-.53c-.49-.16-.85-.46-1.08-.91s-.26-.94-.08-1.45c1.6-4.75,2.96-9.59,4.09-14.54.04-.2-.02-.3-.2-.3h-1.8c-.51,0-.95-.19-1.33-.57-.38-.38-.57-.82-.57-1.33v-1.53c0-.51.19-.95.57-1.33.38-.38.82-.57,1.33-.57h2.89c.18,0,.29-.09.33-.27.16-.78.4-2.17.73-4.19.09-.53.34-.97.76-1.31s.9-.49,1.43-.45l1.7.13c.51.04.93.26,1.26.65.33.39.47.83.4,1.31-.18,1.33-.38,2.62-.6,3.86-.04.18.03.27.23.27h1.6ZM346.43,86.8c-.49.22-.98.24-1.46.07-.49-.18-.85-.5-1.1-.96-.11-.2-.47-.85-1.06-1.96-.24-.44-.29-.91-.13-1.4s.47-.85.93-1.1h.03c.47-.24.95-.29,1.46-.13.51.16.89.47,1.13.93.24.44.61,1.13,1.1,2.06.22.47.24.94.07,1.43-.18.49-.5.84-.96,1.06ZM351.12,89.9c.78,2.62,1.55,5.5,2.33,8.65.11.49.03.95-.23,1.4-.27.44-.65.72-1.16.83l-2.16.47c-.51.11-.98.03-1.41-.25-.43-.28-.72-.68-.85-1.21-.75-3.06-1.5-5.82-2.23-8.28-.16-.49-.11-.96.15-1.41.25-.45.64-.76,1.15-.91l2.06-.57c.49-.16.96-.1,1.43.15.47.26.78.64.93,1.15ZM348.96,80.28c.47-.24.95-.29,1.46-.15.51.14.89.45,1.13.91.73,1.4,1.11,2.12,1.13,2.16.24.47.28.94.12,1.43-.17.49-.48.84-.95,1.06l-.1.07c-.47.22-.95.25-1.45.08-.5-.17-.87-.48-1.11-.95-.11-.22-.29-.56-.53-1.03-.24-.47-.43-.81-.57-1.03-.24-.44-.29-.92-.15-1.43.14-.51.45-.88.91-1.1l.1-.03Z"/>
      <path class="cls-2" d="M349.33,138.45c.07.53-.06,1-.37,1.41-.31.41-.73.66-1.26.75-3.11.47-6.48.7-10.11.7-8.21,0-12.31-2.88-12.31-8.65,0-2.88,1.53-5.44,4.59-7.68.15-.11.21-.26.17-.43-.67-2.88-1.25-5.78-1.76-8.68-.09-.51.02-.97.32-1.38.3-.41.7-.66,1.21-.75l2.76-.4c.51-.09.98.02,1.4.33s.69.72.8,1.23c.51,2.62.95,4.77,1.33,6.45.04.2.15.26.33.17,2.79-1.13,6.12-2.15,9.98-3.06.49-.11.95-.03,1.38.25s.7.67.82,1.18l.43,1.93c.11.51.02.99-.27,1.45-.29.45-.68.74-1.16.85-5.17,1.24-9.07,2.61-11.71,4.09s-3.96,2.86-3.96,4.12c0,1.13.44,1.97,1.33,2.51.89.54,2.33.82,4.32.82,3.06,0,6.21-.23,9.45-.7.51-.09.97.02,1.38.33.41.31.65.72.72,1.23l.2,1.93Z"/>
      <path class="cls-2" d="M339.91,154.93c3.46,0,6.1.68,7.92,2.03,1.82,1.35,2.73,3.23,2.73,5.62,0,6.72-5.8,10.66-17.4,11.81-.53.04-1-.09-1.41-.42-.41-.32-.66-.75-.75-1.28l-.3-1.76c-.09-.51.03-.97.35-1.38.32-.41.74-.65,1.25-.72,4.28-.55,7.34-1.32,9.18-2.31,1.84-.99,2.76-2.19,2.76-3.61,0-.78-.35-1.36-1.06-1.75-.71-.39-1.91-.58-3.59-.58-2.62,0-6.66.59-12.14,1.76-.51.11-.99.03-1.43-.25-.44-.28-.72-.67-.83-1.18l-.47-1.83c-.11-.51-.03-.99.23-1.45.27-.45.65-.74,1.16-.85,5.23-1.24,9.83-1.86,13.8-1.86ZM331.5,146.48c4.35.44,8.53.7,12.54.76.51.02.95.22,1.31.6.37.38.55.82.55,1.33v1.86c0,.53-.19.98-.58,1.35-.39.37-.84.54-1.35.52-4.32-.11-8.7-.41-13.14-.9-.51-.04-.93-.28-1.26-.7-.33-.42-.47-.89-.4-1.4l.2-1.76c.07-.51.31-.93.73-1.25.42-.32.89-.46,1.4-.42Z"/>
      <path class="cls-2" d="M308.52,135.83l.43,1.93c.11.51.02.99-.27,1.45s-.69.74-1.2.85c-3.86.82-7.35,1.23-10.48,1.23-4.08,0-7.26-.7-9.55-2.1-2.28-1.4-3.43-3.25-3.43-5.56,0-1.18.31-2.36.93-3.54.62-1.19,1.7-2.57,3.23-4.14.38-.38.84-.58,1.38-.62s1.04.11,1.48.42l1.6,1.13c.4.29.62.68.65,1.16.03.49-.12.91-.45,1.26-1.55,1.64-2.33,2.86-2.33,3.66s.54,1.44,1.61,1.93c1.08.49,2.7.73,4.87.73,2.64,0,5.74-.4,9.31-1.2.51-.11.98-.03,1.41.25.43.28.69.66.78,1.15ZM307.32,117.6c0,.51-.19.95-.57,1.33s-.82.56-1.33.56h-16.5c-.51,0-.95-.19-1.33-.56-.38-.38-.57-.82-.57-1.33v-1.7c0-.51.19-.95.57-1.33s.82-.56,1.33-.56h16.5c.51,0,.95.19,1.33.56.38.38.57.82.57,1.33v1.7ZM302.4,122.36c.47-.24.95-.29,1.46-.13.51.16.89.47,1.13.93.24.44.61,1.13,1.1,2.06.22.47.24.94.07,1.43s-.5.84-.96,1.06c-.49.22-.98.24-1.46.07-.49-.18-.85-.5-1.1-.96-.11-.2-.47-.85-1.06-1.96-.24-.44-.29-.91-.13-1.4.15-.49.47-.85.93-1.1h.03ZM310.31,121.96c.73,1.4,1.11,2.12,1.13,2.16.24.47.28.94.12,1.43s-.48.84-.95,1.06l-.1.07c-.47.22-.95.25-1.45.08-.5-.17-.87-.48-1.11-.95-.11-.22-.29-.57-.53-1.03s-.43-.81-.57-1.03c-.24-.44-.29-.92-.15-1.43.14-.51.45-.88.92-1.1l.1-.03c.47-.24.95-.29,1.46-.15.51.14.89.45,1.13.92Z"/>
      <path class="cls-2" d="M308.59,149.73c.51-.02.96.14,1.35.5.39.35.59.79.62,1.3l.03,1.53c.02.51-.14.96-.5,1.36-.36.4-.79.61-1.3.63-.04,0-2,.07-5.85.2-.18,0-.24.1-.2.3.51,1.71,1.33,3.55,2.46,5.52.24.44.29.89.13,1.35-.16.46-.45.78-.9.98l-2.36,1.03c-1.04.44-2.17.41-3.39-.1-1.55-.67-3.16-1-4.82-1-.91,0-1.64.24-2.18.73s-.81,1.13-.81,1.93c0,1.15.55,2.05,1.66,2.69,1.11.64,2.77.96,4.99.96,1.53,0,3.68-.22,6.45-.66.51-.09.98.02,1.41.32.43.3.69.7.78,1.21l.33,1.6c.11.51.02.98-.28,1.41-.3.43-.7.69-1.21.78-2.66.44-5.16.66-7.48.66-4.15,0-7.35-.83-9.6-2.48-2.25-1.65-3.38-3.93-3.38-6.84,0-2.31.81-4.16,2.43-5.56,1.62-1.4,3.8-2.1,6.55-2.1,1.24,0,2.55.17,3.93.5h.07v-.1c-.38-.93-.67-1.82-.86-2.66-.04-.2-.16-.3-.33-.3-4.17.11-7.91.17-11.21.17-.53,0-.98-.19-1.35-.56-.37-.38-.55-.82-.55-1.33v-1.53c0-.51.18-.95.55-1.33s.8-.57,1.31-.57c2.31,0,5.79-.04,10.45-.13.13,0,.2-.1.2-.3-.02-.51-.06-1.04-.1-1.6-.02-.53.14-.99.48-1.36.34-.38.78-.59,1.31-.63l2.2-.13c.51-.02.96.14,1.35.5.39.35.6.79.65,1.3.02.4.05.98.1,1.73,0,.2.1.3.3.3.27,0,.67-.01,1.21-.03.54-.02.95-.03,1.21-.03.07,0,.12-.03.15-.1.03-.07.03-.12-.02-.17-.07-.13-.2-.39-.4-.78-.2-.39-.35-.68-.47-.88-.22-.42-.26-.86-.12-1.31s.43-.79.85-1.02c.44-.22.89-.25,1.35-.1.45.16.8.45,1.05.9.11.2.27.49.47.88.2.39.35.68.47.88.2.42.23.84.1,1.26-.05.18,0,.27.13.27h.6ZM311.91,145.94c.11.22.27.54.48.96.21.42.36.72.45.9.22.44.25.89.1,1.33-.16.44-.45.78-.9,1-.44.22-.89.26-1.35.1-.45-.16-.8-.46-1.05-.9-.2-.4-.52-1-.96-1.8-.22-.44-.26-.89-.12-1.35.14-.45.44-.79.88-1.02.44-.22.91-.25,1.4-.1s.84.44,1.06.86Z"/>
      <path class="cls-2" d="M300.24,196.6c.49.18.84.5,1.06.98.22.48.23.96.03,1.45-1.18,2.82-2.61,5-4.31,6.55-1.7,1.55-3.37,2.33-5.01,2.33-2.04,0-3.94-1.32-5.69-3.96-1.75-2.64-2.63-5.87-2.63-9.68,0-3.42.43-6.8,1.3-10.15.13-.53.43-.95.88-1.26.45-.31.96-.43,1.51-.37l2.43.27c.49.04.87.27,1.15.68.28.41.36.86.25,1.35-.8,3.37-1.2,6.53-1.2,9.48,0,1.04.08,2.04.25,2.98s.38,1.72.65,2.33c.27.61.54,1.1.81,1.46.28.37.54.55.78.55.35,0,.84-.39,1.46-1.18.62-.79,1.27-1.93,1.96-3.44.22-.47.57-.8,1.05-1,.48-.2.96-.21,1.45-.03l1.8.67ZM305.33,182.49c.53-.15,1.04-.12,1.53.1.49.22.83.58,1.03,1.06,2.28,5.54,3.53,11.78,3.73,18.69.02.51-.16.95-.53,1.33-.38.38-.82.57-1.33.57h-2.53c-.51,0-.95-.18-1.33-.55-.38-.37-.58-.8-.6-1.31-.2-5.97-1.29-11.63-3.26-17-.18-.49-.16-.96.07-1.41.22-.46.58-.75,1.06-.88l2.16-.6Z"/>
      <path class="cls-2" d="M308.75,215.13c.51,0,.95.19,1.33.57s.57.82.57,1.33v1.53c0,.51-.19.95-.57,1.33s-.82.57-1.33.57h-5.79c-.2,0-.3.1-.3.3v.76c0,.18.1.27.3.27h4.46c.51,0,.95.19,1.33.57.38.38.57.82.57,1.33v1.36c0,.51-.19.95-.57,1.33-.38.38-.82.57-1.33.57h-4.46c-.2,0-.3.1-.3.3v3.46c0,.2.09.36.27.47,1.84,1.15,3.73,2.6,5.65,4.32.38.36.58.79.62,1.31.03.52-.13.97-.48,1.35l-1.13,1.2c-.35.38-.79.58-1.3.62-.51.03-.95-.13-1.33-.48-.84-.78-1.7-1.51-2.56-2.2-.13-.13-.26-.1-.37.1-.53,1.42-1.48,2.44-2.83,3.08-1.35.63-3.19.95-5.52.95-2.51,0-4.46-.58-5.87-1.75-1.41-1.16-2.11-2.8-2.11-4.91s.69-3.63,2.06-4.77c1.37-1.14,3.35-1.71,5.92-1.71.98,0,1.88.08,2.73.23.18.04.27-.03.27-.23v-1.03c0-.2-.09-.3-.27-.3h-9.15c-.51,0-.95-.19-1.33-.57-.38-.38-.57-.82-.57-1.33v-1.36c0-.51.19-.95.57-1.33s.82-.57,1.33-.57h9.15c.18,0,.27-.09.27-.27v-.76c0-.2-.09-.3-.27-.3h-10.48c-.51,0-.95-.19-1.33-.57-.38-.38-.57-.82-.57-1.33v-1.53c0-.51.19-.95.57-1.33.38-.38.82-.57,1.33-.57h10.48c.18,0,.27-.1.27-.3v-.47c0-.51.19-.95.57-1.33.38-.38.82-.56,1.33-.56h2.2c.51,0,.95.19,1.33.56.38.38.57.82.57,1.33v.47c0,.2.1.3.3.3h5.79ZM293.68,236.09c1.13,0,1.89-.12,2.28-.37.39-.24.62-.78.68-1.6,0-.2-.07-.31-.2-.33-.8-.24-1.5-.37-2.1-.37-1.77,0-2.66.44-2.66,1.33s.67,1.33,2,1.33Z"/>
      <path class="cls-2" d="M310.08,248.06c.51,0,.95.19,1.33.57.38.38.57.82.57,1.33v1.2c0,.51-.19.95-.57,1.33s-.82.57-1.33.57h-6.49c-.18,0-.27.1-.27.3v5.42c0,.11.04.28.13.5.69,1.42,1.03,2.89,1.03,4.42,0,3.26-.92,5.74-2.76,7.43-1.84,1.7-4.9,2.81-9.18,3.34-.53.07-1-.06-1.41-.38-.41-.32-.67-.75-.78-1.28l-.33-1.6c-.09-.49.02-.94.33-1.35.31-.41.72-.64,1.23-.68,1.69-.18,2.97-.37,3.84-.57.88-.2,1.49-.42,1.85-.67.35-.24.63-.58.83-1,.02-.02.03-.06.03-.1s.01-.08.03-.1v-.07h-.07c-1.13.44-2.27.66-3.43.66-2.17,0-3.94-.61-5.29-1.83-1.35-1.22-2.03-2.83-2.03-4.82s.69-3.63,2.06-4.84c1.37-1.21,3.24-1.81,5.59-1.81.69,0,1.43.11,2.23.33h.07s.03-.01.03-.03v-1c0-.2-.1-.3-.3-.3h-12.44c-.51,0-.95-.19-1.33-.57-.38-.38-.57-.82-.57-1.33v-1.2c0-.51.19-.95.57-1.33.38-.38.82-.57,1.33-.57h12.44c.2,0,.3-.1.3-.3v-.8c0-.51.19-.95.57-1.33.38-.38.82-.57,1.33-.57h2.2c.51,0,.95.19,1.33.57.38.38.57.82.57,1.33v.8c0,.2.09.3.27.3h6.49ZM293.83,262.14c.43.38.99.57,1.68.57s1.25-.19,1.68-.57c.43-.38.65-.85.65-1.43s-.22-1.05-.65-1.43c-.43-.38-.99-.56-1.68-.56s-1.25.19-1.68.56c-.43.38-.65.85-.65,1.43s.22,1.05.65,1.43Z"/>
      <path class="cls-2" d="M299.44,281.33c.51,0,.94.19,1.3.57s.52.82.5,1.33l-.8,12.51c-.04.53-.26.98-.63,1.35-.38.37-.83.55-1.36.55h-2.2c-.53,0-.99-.18-1.36-.55-.38-.37-.59-.82-.63-1.35l-.8-12.51c-.02-.51.14-.95.5-1.33s.79-.57,1.3-.57h4.19ZM298.77,300.29c.51,0,.95.19,1.33.56.38.38.57.82.57,1.33v1.53c0,.51-.19.95-.57,1.33s-.82.57-1.33.57h-2.86c-.51,0-.95-.19-1.33-.57-.38-.38-.57-.82-.57-1.33v-1.53c0-.51.19-.95.57-1.33s.82-.56,1.33-.56h2.86Z"/>
    </g>
    <g>
      <path d="M339.58,22.53c3.97,0,7.01.86,9.13,2.59,2.12,1.73,3.18,4.08,3.18,7.05,0,2.31-.7,4.33-2.1,6.07-1.4,1.74-3.32,3-5.75,3.78-.49.16-.96.1-1.43-.17-.47-.27-.78-.66-.93-1.16l-.53-1.73c-.16-.49-.12-.96.12-1.41s.59-.79,1.08-1.02c1.09-.51,1.95-1.16,2.59-1.95.64-.79.96-1.59.96-2.41,0-.98-.21-1.77-.63-2.4-.02-.04-.07-.07-.15-.07s-.13.03-.15.1c-1.6,3.55-3.67,6.27-6.22,8.17-2.55,1.9-5.27,2.84-8.15,2.84-2.2,0-3.96-.63-5.31-1.9-1.34-1.26-2.01-2.96-2.01-5.09,0-2.24.67-4.22,2.01-5.95,1.34-1.73,3.25-3.06,5.74-3.99.15-.07.23-.19.23-.37v-2.36c0-.2-.09-.3-.27-.3h-4.16c-.51,0-.95-.19-1.33-.57-.38-.38-.57-.82-.57-1.33v-1.2c0-.51.19-.95.57-1.33s.82-.56,1.33-.56h4.16c.18,0,.27-.1.27-.3v-1.13c0-.51.19-.95.57-1.33.38-.38.82-.57,1.33-.57h1.86c.51,0,.95.19,1.33.57.38.38.57.82.57,1.33v1.13c0,.2.1.3.3.3h11.11c.51,0,.95.19,1.33.56.38.38.57.82.57,1.33v1.2c0,.51-.19.95-.57,1.33s-.82.57-1.33.57h-11.11c-.2,0-.3.1-.3.3v1.2c0,.18.09.27.27.27.75-.07,1.55-.1,2.4-.1ZM329.27,33.17c0,1.42.58,2.2,1.73,2.33.09.02.15,0,.2-.07.04-.07.07-.14.07-.23v-4.99c0-.18-.08-.21-.23-.1-1.18.93-1.76,1.95-1.76,3.06ZM339.61,28.12c.02-.07.01-.13-.03-.18-.04-.06-.1-.08-.17-.08-.53,0-1.26.04-2.2.13-.2.04-.3.14-.3.3v3.66s.02.08.07.1c.04.02.08.01.1-.03,1-1.18,1.84-2.47,2.53-3.89Z"/>
      <path d="M340.58,47.81c2.95,0,5.29.99,7.04,2.98,1.74,1.99,2.61,4.76,2.61,8.33,0,5.3-1.46,9.23-4.39,11.78-2.93,2.55-7.61,3.94-14.04,4.16-.53.02-.98-.15-1.35-.52s-.57-.82-.62-1.35l-.13-1.86c-.02-.51.14-.95.48-1.33.34-.38.77-.58,1.28-.6,4.59-.16,7.76-.99,9.5-2.51,1.74-1.52,2.61-4.11,2.61-7.77s-1.22-5.32-3.66-5.32c-1.84,0-3.49.79-4.96,2.36-1.46,1.58-2.37,3.59-2.73,6.05-.07.53-.29.98-.67,1.35-.38.37-.83.55-1.36.55h-2.2c-.51,0-.95-.19-1.33-.57-.38-.38-.57-.82-.57-1.33v-13.17c0-.51.19-.95.57-1.33.38-.38.82-.57,1.33-.57h2.36c.51,0,.95.19,1.33.57s.57.82.57,1.33v2.76l.07-.03c2.37-2.64,5.12-3.96,8.25-3.96Z"/>
      <path d="M335.59,84.74h2.73c.58,0,1.25.07,2.01.22.77.14,1.28.26,1.53.35.25.09.57.38.95.86.38.49.6.91.67,1.26.07.36.15,1.03.27,2.01.11.99.17,1.87.17,2.64v3.63c0,4.41-.54,7.57-1.61,9.46-1.08,1.9-2.64,2.84-4.71,2.84-1.49,0-3.32-.27-5.49-.8-.51-.13-.9-.43-1.16-.9-.27-.46-.33-.95-.2-1.46l.4-1.66c.13-.49.42-.86.87-1.13.44-.27.92-.34,1.43-.23,1.42.36,2.36.53,2.83.53.89,0,1.33-2.55,1.33-7.65,0-2.31-.08-3.66-.25-4.06-.17-.4-.75-.6-1.75-.6h-2.63c-.2,0-.32.09-.37.27-1.2,5.37-2.76,10.78-4.69,16.23-.18.51-.5.88-.98,1.12s-.96.27-1.45.12l-1.56-.53c-.49-.16-.85-.46-1.08-.91s-.26-.94-.08-1.45c1.6-4.75,2.96-9.59,4.09-14.54.04-.2-.02-.3-.2-.3h-1.8c-.51,0-.95-.19-1.33-.57-.38-.38-.57-.82-.57-1.33v-1.53c0-.51.19-.95.57-1.33.38-.38.82-.57,1.33-.57h2.89c.18,0,.29-.09.33-.27.16-.78.4-2.17.73-4.19.09-.53.34-.97.76-1.31s.9-.49,1.43-.45l1.7.13c.51.04.93.26,1.26.65.33.39.47.83.4,1.31-.18,1.33-.38,2.62-.6,3.86-.04.18.03.27.23.27h1.6ZM346.43,86.8c-.49.22-.98.24-1.46.07-.49-.18-.85-.5-1.1-.96-.11-.2-.47-.85-1.06-1.96-.24-.44-.29-.91-.13-1.4s.47-.85.93-1.1h.03c.47-.24.95-.29,1.46-.13.51.16.89.47,1.13.93.24.44.61,1.13,1.1,2.06.22.47.24.94.07,1.43-.18.49-.5.84-.96,1.06ZM351.12,89.9c.78,2.62,1.55,5.5,2.33,8.65.11.49.03.95-.23,1.4-.27.44-.65.72-1.16.83l-2.16.47c-.51.11-.98.03-1.41-.25-.43-.28-.72-.68-.85-1.21-.75-3.06-1.5-5.82-2.23-8.28-.16-.49-.11-.96.15-1.41.25-.45.64-.76,1.15-.91l2.06-.57c.49-.16.96-.1,1.43.15.47.26.78.64.93,1.15ZM348.96,80.28c.47-.24.95-.29,1.46-.15.51.14.89.45,1.13.91.73,1.4,1.11,2.12,1.13,2.16.24.47.28.94.12,1.43-.17.49-.48.84-.95,1.06l-.1.07c-.47.22-.95.25-1.45.08-.5-.17-.87-.48-1.11-.95-.11-.22-.29-.56-.53-1.03-.24-.47-.43-.81-.57-1.03-.24-.44-.29-.92-.15-1.43.14-.51.45-.88.91-1.1l.1-.03Z"/>
      <path d="M349.33,138.45c.07.53-.06,1-.37,1.41-.31.41-.73.66-1.26.75-3.11.47-6.48.7-10.11.7-8.21,0-12.31-2.88-12.31-8.65,0-2.88,1.53-5.44,4.59-7.68.15-.11.21-.26.17-.43-.67-2.88-1.25-5.78-1.76-8.68-.09-.51.02-.97.32-1.38.3-.41.7-.66,1.21-.75l2.76-.4c.51-.09.98.02,1.4.33s.69.72.8,1.23c.51,2.62.95,4.77,1.33,6.45.04.2.15.26.33.17,2.79-1.13,6.12-2.15,9.98-3.06.49-.11.95-.03,1.38.25s.7.67.82,1.18l.43,1.93c.11.51.02.99-.27,1.45-.29.45-.68.74-1.16.85-5.17,1.24-9.07,2.61-11.71,4.09s-3.96,2.86-3.96,4.12c0,1.13.44,1.97,1.33,2.51.89.54,2.33.82,4.32.82,3.06,0,6.21-.23,9.45-.7.51-.09.97.02,1.38.33.41.31.65.72.72,1.23l.2,1.93Z"/>
      <path d="M339.91,154.93c3.46,0,6.1.68,7.92,2.03,1.82,1.35,2.73,3.23,2.73,5.62,0,6.72-5.8,10.66-17.4,11.81-.53.04-1-.09-1.41-.42-.41-.32-.66-.75-.75-1.28l-.3-1.76c-.09-.51.03-.97.35-1.38.32-.41.74-.65,1.25-.72,4.28-.55,7.34-1.32,9.18-2.31,1.84-.99,2.76-2.19,2.76-3.61,0-.78-.35-1.36-1.06-1.75-.71-.39-1.91-.58-3.59-.58-2.62,0-6.66.59-12.14,1.76-.51.11-.99.03-1.43-.25-.44-.28-.72-.67-.83-1.18l-.47-1.83c-.11-.51-.03-.99.23-1.45.27-.45.65-.74,1.16-.85,5.23-1.24,9.83-1.86,13.8-1.86ZM331.5,146.48c4.35.44,8.53.7,12.54.76.51.02.95.22,1.31.6.37.38.55.82.55,1.33v1.86c0,.53-.19.98-.58,1.35-.39.37-.84.54-1.35.52-4.32-.11-8.7-.41-13.14-.9-.51-.04-.93-.28-1.26-.7-.33-.42-.47-.89-.4-1.4l.2-1.76c.07-.51.31-.93.73-1.25.42-.32.89-.46,1.4-.42Z"/>
      <path d="M308.52,135.83l.43,1.93c.11.51.02.99-.27,1.45s-.69.74-1.2.85c-3.86.82-7.35,1.23-10.48,1.23-4.08,0-7.26-.7-9.55-2.1-2.28-1.4-3.43-3.25-3.43-5.56,0-1.18.31-2.36.93-3.54.62-1.19,1.7-2.57,3.23-4.14.38-.38.84-.58,1.38-.62s1.04.11,1.48.42l1.6,1.13c.4.29.62.68.65,1.16.03.49-.12.91-.45,1.26-1.55,1.64-2.33,2.86-2.33,3.66s.54,1.44,1.61,1.93c1.08.49,2.7.73,4.87.73,2.64,0,5.74-.4,9.31-1.2.51-.11.98-.03,1.41.25.43.28.69.66.78,1.15ZM307.32,117.6c0,.51-.19.95-.57,1.33s-.82.56-1.33.56h-16.5c-.51,0-.95-.19-1.33-.56-.38-.38-.57-.82-.57-1.33v-1.7c0-.51.19-.95.57-1.33s.82-.56,1.33-.56h16.5c.51,0,.95.19,1.33.56.38.38.57.82.57,1.33v1.7ZM302.4,122.36c.47-.24.95-.29,1.46-.13.51.16.89.47,1.13.93.24.44.61,1.13,1.1,2.06.22.47.24.94.07,1.43s-.5.84-.96,1.06c-.49.22-.98.24-1.46.07-.49-.18-.85-.5-1.1-.96-.11-.2-.47-.85-1.06-1.96-.24-.44-.29-.91-.13-1.4.15-.49.47-.85.93-1.1h.03ZM310.31,121.96c.73,1.4,1.11,2.12,1.13,2.16.24.47.28.94.12,1.43s-.48.84-.95,1.06l-.1.07c-.47.22-.95.25-1.45.08-.5-.17-.87-.48-1.11-.95-.11-.22-.29-.57-.53-1.03s-.43-.81-.57-1.03c-.24-.44-.29-.92-.15-1.43.14-.51.45-.88.92-1.1l.1-.03c.47-.24.95-.29,1.46-.15.51.14.89.45,1.13.92Z"/>
      <path d="M308.59,149.73c.51-.02.96.14,1.35.5.39.35.59.79.62,1.3l.03,1.53c.02.51-.14.96-.5,1.36-.36.4-.79.61-1.3.63-.04,0-2,.07-5.85.2-.18,0-.24.1-.2.3.51,1.71,1.33,3.55,2.46,5.52.24.44.29.89.13,1.35-.16.46-.45.78-.9.98l-2.36,1.03c-1.04.44-2.17.41-3.39-.1-1.55-.67-3.16-1-4.82-1-.91,0-1.64.24-2.18.73s-.81,1.13-.81,1.93c0,1.15.55,2.05,1.66,2.69,1.11.64,2.77.96,4.99.96,1.53,0,3.68-.22,6.45-.66.51-.09.98.02,1.41.32.43.3.69.7.78,1.21l.33,1.6c.11.51.02.98-.28,1.41-.3.43-.7.69-1.21.78-2.66.44-5.16.66-7.48.66-4.15,0-7.35-.83-9.6-2.48-2.25-1.65-3.38-3.93-3.38-6.84,0-2.31.81-4.16,2.43-5.56,1.62-1.4,3.8-2.1,6.55-2.1,1.24,0,2.55.17,3.93.5h.07v-.1c-.38-.93-.67-1.82-.86-2.66-.04-.2-.16-.3-.33-.3-4.17.11-7.91.17-11.21.17-.53,0-.98-.19-1.35-.56-.37-.38-.55-.82-.55-1.33v-1.53c0-.51.18-.95.55-1.33s.8-.57,1.31-.57c2.31,0,5.79-.04,10.45-.13.13,0,.2-.1.2-.3-.02-.51-.06-1.04-.1-1.6-.02-.53.14-.99.48-1.36.34-.38.78-.59,1.31-.63l2.2-.13c.51-.02.96.14,1.35.5.39.35.6.79.65,1.3.02.4.05.98.1,1.73,0,.2.1.3.3.3.27,0,.67-.01,1.21-.03.54-.02.95-.03,1.21-.03.07,0,.12-.03.15-.1.03-.07.03-.12-.02-.17-.07-.13-.2-.39-.4-.78-.2-.39-.35-.68-.47-.88-.22-.42-.26-.86-.12-1.31s.43-.79.85-1.02c.44-.22.89-.25,1.35-.1.45.16.8.45,1.05.9.11.2.27.49.47.88.2.39.35.68.47.88.2.42.23.84.1,1.26-.05.18,0,.27.13.27h.6ZM311.91,145.94c.11.22.27.54.48.96.21.42.36.72.45.9.22.44.25.89.1,1.33-.16.44-.45.78-.9,1-.44.22-.89.26-1.35.1-.45-.16-.8-.46-1.05-.9-.2-.4-.52-1-.96-1.8-.22-.44-.26-.89-.12-1.35.14-.45.44-.79.88-1.02.44-.22.91-.25,1.4-.1s.84.44,1.06.86Z"/>
      <path d="M300.24,196.6c.49.18.84.5,1.06.98.22.48.23.96.03,1.45-1.18,2.82-2.61,5-4.31,6.55-1.7,1.55-3.37,2.33-5.01,2.33-2.04,0-3.94-1.32-5.69-3.96-1.75-2.64-2.63-5.87-2.63-9.68,0-3.42.43-6.8,1.3-10.15.13-.53.43-.95.88-1.26.45-.31.96-.43,1.51-.37l2.43.27c.49.04.87.27,1.15.68.28.41.36.86.25,1.35-.8,3.37-1.2,6.53-1.2,9.48,0,1.04.08,2.04.25,2.98s.38,1.72.65,2.33c.27.61.54,1.1.81,1.46.28.37.54.55.78.55.35,0,.84-.39,1.46-1.18.62-.79,1.27-1.93,1.96-3.44.22-.47.57-.8,1.05-1,.48-.2.96-.21,1.45-.03l1.8.67ZM305.33,182.49c.53-.15,1.04-.12,1.53.1.49.22.83.58,1.03,1.06,2.28,5.54,3.53,11.78,3.73,18.69.02.51-.16.95-.53,1.33-.38.38-.82.57-1.33.57h-2.53c-.51,0-.95-.18-1.33-.55-.38-.37-.58-.8-.6-1.31-.2-5.97-1.29-11.63-3.26-17-.18-.49-.16-.96.07-1.41.22-.46.58-.75,1.06-.88l2.16-.6Z"/>
      <path d="M308.75,215.13c.51,0,.95.19,1.33.57s.57.82.57,1.33v1.53c0,.51-.19.95-.57,1.33s-.82.57-1.33.57h-5.79c-.2,0-.3.1-.3.3v.76c0,.18.1.27.3.27h4.46c.51,0,.95.19,1.33.57.38.38.57.82.57,1.33v1.36c0,.51-.19.95-.57,1.33-.38.38-.82.57-1.33.57h-4.46c-.2,0-.3.1-.3.3v3.46c0,.2.09.36.27.47,1.84,1.15,3.73,2.6,5.65,4.32.38.36.58.79.62,1.31.03.52-.13.97-.48,1.35l-1.13,1.2c-.35.38-.79.58-1.3.62-.51.03-.95-.13-1.33-.48-.84-.78-1.7-1.51-2.56-2.2-.13-.13-.26-.1-.37.1-.53,1.42-1.48,2.44-2.83,3.08-1.35.63-3.19.95-5.52.95-2.51,0-4.46-.58-5.87-1.75-1.41-1.16-2.11-2.8-2.11-4.91s.69-3.63,2.06-4.77c1.37-1.14,3.35-1.71,5.92-1.71.98,0,1.88.08,2.73.23.18.04.27-.03.27-.23v-1.03c0-.2-.09-.3-.27-.3h-9.15c-.51,0-.95-.19-1.33-.57-.38-.38-.57-.82-.57-1.33v-1.36c0-.51.19-.95.57-1.33s.82-.57,1.33-.57h9.15c.18,0,.27-.09.27-.27v-.76c0-.2-.09-.3-.27-.3h-10.48c-.51,0-.95-.19-1.33-.57-.38-.38-.57-.82-.57-1.33v-1.53c0-.51.19-.95.57-1.33.38-.38.82-.57,1.33-.57h10.48c.18,0,.27-.1.27-.3v-.47c0-.51.19-.95.57-1.33.38-.38.82-.56,1.33-.56h2.2c.51,0,.95.19,1.33.56.38.38.57.82.57,1.33v.47c0,.2.1.3.3.3h5.79ZM293.68,236.09c1.13,0,1.89-.12,2.28-.37.39-.24.62-.78.68-1.6,0-.2-.07-.31-.2-.33-.8-.24-1.5-.37-2.1-.37-1.77,0-2.66.44-2.66,1.33s.67,1.33,2,1.33Z"/>
      <path d="M310.08,248.06c.51,0,.95.19,1.33.57.38.38.57.82.57,1.33v1.2c0,.51-.19.95-.57,1.33s-.82.57-1.33.57h-6.49c-.18,0-.27.1-.27.3v5.42c0,.11.04.28.13.5.69,1.42,1.03,2.89,1.03,4.42,0,3.26-.92,5.74-2.76,7.43-1.84,1.7-4.9,2.81-9.18,3.34-.53.07-1-.06-1.41-.38-.41-.32-.67-.75-.78-1.28l-.33-1.6c-.09-.49.02-.94.33-1.35.31-.41.72-.64,1.23-.68,1.69-.18,2.97-.37,3.84-.57.88-.2,1.49-.42,1.85-.67.35-.24.63-.58.83-1,.02-.02.03-.06.03-.1s.01-.08.03-.1v-.07h-.07c-1.13.44-2.27.66-3.43.66-2.17,0-3.94-.61-5.29-1.83-1.35-1.22-2.03-2.83-2.03-4.82s.69-3.63,2.06-4.84c1.37-1.21,3.24-1.81,5.59-1.81.69,0,1.43.11,2.23.33h.07s.03-.01.03-.03v-1c0-.2-.1-.3-.3-.3h-12.44c-.51,0-.95-.19-1.33-.57-.38-.38-.57-.82-.57-1.33v-1.2c0-.51.19-.95.57-1.33.38-.38.82-.57,1.33-.57h12.44c.2,0,.3-.1.3-.3v-.8c0-.51.19-.95.57-1.33.38-.38.82-.57,1.33-.57h2.2c.51,0,.95.19,1.33.57.38.38.57.82.57,1.33v.8c0,.2.09.3.27.3h6.49ZM293.83,262.14c.43.38.99.57,1.68.57s1.25-.19,1.68-.57c.43-.38.65-.85.65-1.43s-.22-1.05-.65-1.43c-.43-.38-.99-.56-1.68-.56s-1.25.19-1.68.56c-.43.38-.65.85-.65,1.43s.22,1.05.65,1.43Z"/>
      <path d="M299.44,281.33c.51,0,.94.19,1.3.57s.52.82.5,1.33l-.8,12.51c-.04.53-.26.98-.63,1.35-.38.37-.83.55-1.36.55h-2.2c-.53,0-.99-.18-1.36-.55-.38-.37-.59-.82-.63-1.35l-.8-12.51c-.02-.51.14-.95.5-1.33s.79-.57,1.3-.57h4.19ZM298.77,300.29c.51,0,.95.19,1.33.56.38.38.57.82.57,1.33v1.53c0,.51-.19.95-.57,1.33s-.82.57-1.33.57h-2.86c-.51,0-.95-.19-1.33-.57-.38-.38-.57-.82-.57-1.33v-1.53c0-.51.19-.95.57-1.33s.82-.56,1.33-.56h2.86Z"/>
    </g>
    <ellipse class="cls-7" cx="167.31" cy="301.22" rx="68" ry="4.39"/>
    <path class="cls-6" d="M225.17,242.28c-.36,29.3-14.33,46.22-14.33,46.22h-83.53c-14.37-22.06-14.32-46.22-14.32-46.22h112.18Z"/>
    <polygon class="cls-6" points="236.43 243.76 101.73 243.76 125.22 124.01 210.33 124.01 236.43 243.76"/>
    <polygon class="cls-6" points="141.28 152.3 119.67 152.3 128.75 168.03 142.77 169.25 132.14 176.77 164.69 215.47 141.28 152.3"/>
    <polygon class="cls-6" points="193.89 152.3 215.5 152.3 206.43 168.03 192.41 169.25 203.03 176.77 170.48 215.47 193.89 152.3"/>
    <polygon class="cls-6" points="141.38 152.3 167.7 152.3 193.9 152.27 188.19 167.68 167.7 153.4 146.93 167.25 141.38 152.3"/>
    <polygon class="cls-1" points="157.53 160.18 160.68 170.73 175.17 170.73 177.88 160.18 167.7 153.4 157.53 160.18"/>
    <polygon class="cls-1" points="160.68 170.73 152.79 183.34 167.55 222.94 181.84 184.91 175.17 170.73 160.68 170.73"/>
    <line class="cls-4" x1="167.31" y1="288.07" x2="167.31" y2="257.74"/>
    <ellipse class="cls-8" cx="140.78" cy="291.78" rx="26.53" ry="12.37"/>
    <ellipse class="cls-8" cx="193.85" cy="291.78" rx="26.53" ry="12.37"/>
    <path class="cls-9" d="M46.29,33.03c-2.2-1.34-9.02-2.03-14.34-4.05-6.35-2.42-8.41-9.36-6.47-12.04s8.49-2.28,13.47,2.34c2.38,2.21,3.49,5.53,5.3,7.51"/>
    <path class="cls-9" d="M45.38,51.24c-2.58-.01-8.77,2.9-14.38,3.9-6.69,1.19-12.03-3.7-11.75-7s6.11-6.32,12.76-4.92c3.18.67,5.84,2.95,8.41,3.71"/>
    <rect class="cls-3" x="62.6" y="11.94" width="210.07" height="140.33"/>
    <circle class="cls-1" cx="167.31" cy="82.11" r="42.54"/>
    <path class="cls-9" d="M85.53,26.42c.21,2.57,3.63,8.5,5.1,14,1.75,6.56-2.68,12.3-5.98,12.3s-6.82-5.56-5.98-12.3c.4-3.22,2.45-6.06,2.99-8.69"/>
    <ellipse class="cls-5" cx="177.89" cy="154.99" rx="10.24" ry="19.15"/>
    <path class="cls-6" d="M193.24,152.73c4.8,2.39,9.82,5.36,14.83,8.85,3.52,2.45,6.81,5,9.81,7.57l-1.55-16.84,22.35-.03c.25,1.06,7.12,23.99.61,42.08-2.71,7.52-11.44,10.64-14.92,10.23-8.87.7-19.21-6.41-34.41-16.99-8.37-5.83-14.6-11.64-14.6-11.64l17.88-23.23Z"/>
    <ellipse class="cls-5" cx="157.47" cy="154.97" rx="10.24" ry="19.15"/>
    <path class="cls-6" d="M142.12,152.71c-4.8,2.39-9.82,5.36-14.83,8.85-3.52,2.45-6.81,5-9.81,7.57l1.55-16.84-22.35-.03c-.25,1.06-7.12,23.99-.61,42.08,2.71,7.52,11.44,10.64,14.92,10.23,8.87.7,19.21-6.41,34.41-16.99,8.37-5.83,14.6-11.64,14.6-11.64l-17.88-23.23Z"/>
    <path class="cls-6" d="M217.88,169.15s8.25,6.5,10.08,9.9"/>
    <path class="cls-6" d="M217.88,169.15s9.06-.46,12.66.95"/>
    <path class="cls-6" d="M117.48,169.13s-8.25,6.5-10.08,9.9"/>
    <path class="cls-6" d="M117.48,169.13s-9.06-.46-12.66.95"/>
  </g>
</svg>