<?xml version="1.0" encoding="UTF-8"?>
<svg id="_レイヤー_1" data-name="レイヤー 1" xmlns="http://www.w3.org/2000/svg" viewBox="0 0 370 320">
  <defs>
    <style>
      .cls-1 {
        fill: #7ecef4;
        stroke: #231815;
        stroke-miterlimit: 10;
      }

      .cls-1, .cls-2, .cls-3, .cls-4, .cls-5, .cls-6, .cls-7, .cls-8, .cls-9 {
        stroke-linecap: round;
      }

      .cls-2 {
        opacity: .2;
      }

      .cls-2, .cls-3, .cls-4, .cls-5, .cls-6, .cls-7, .cls-8, .cls-9 {
        stroke-linejoin: round;
      }

      .cls-2, .cls-3, .cls-4, .cls-6, .cls-7, .cls-8, .cls-9 {
        stroke: #000;
        stroke-width: 2px;
      }

      .cls-3 {
        fill: #604c3f;
      }

      .cls-4 {
        fill: red;
      }

      .cls-5 {
        stroke: #fff;
        stroke-width: 5px;
      }

      .cls-5, .cls-6 {
        fill: #fff;
      }

      .cls-7 {
        opacity: .3;
      }

      .cls-8 {
        fill: #796a56;
      }

      .cls-9 {
        fill: #009fe8;
      }
    </style>
  </defs>
  <g id="_温泉でリセット_" data-name="温泉でリセット！">
    <g>
      <path class="cls-5" d="M323.36,30.86c-.75-.65-2.03-1.68-3.85-3.1-.45-.35-.71-.81-.79-1.38-.07-.57.07-1.08.45-1.53l1.05-1.2c.37-.47.85-.75,1.44-.82s1.13.06,1.63.41c1.27.92,2.53,1.91,3.77,2.95.45.4.7.89.77,1.48s-.09,1.12-.47,1.59l-1.12,1.38c-.35.45-.81.69-1.38.73-.57.04-1.07-.13-1.49-.5ZM327.25,34.15c.57.2,1,.57,1.29,1.12.29.55.34,1.11.17,1.68-.95,3.29-2.18,6.41-3.7,9.38-.25.52-.66.85-1.23.97-.57.12-1.1.04-1.57-.26l-1.83-1.12c-.5-.32-.82-.77-.97-1.34s-.09-1.12.19-1.64c1.22-2.42,2.34-5.11,3.36-8.07.2-.55.55-.95,1.07-1.2.51-.25,1.04-.27,1.59-.07l1.64.56ZM321.42,19.54c-.47-.35-.75-.81-.82-1.38-.07-.57.07-1.08.45-1.53l1.05-1.2c.4-.47.88-.75,1.46-.84.57-.09,1.11.04,1.61.39.87.62,1.87,1.38,2.99,2.28.47.37.74.85.8,1.44.06.59-.09,1.12-.47,1.59l-1.12,1.38c-.35.45-.81.7-1.38.75-.57.05-1.08-.11-1.53-.48-1.4-1.15-2.4-1.94-3.03-2.39ZM352.95,42.37c.35,0,.65.13.92.39s.39.57.39.91v1.79c0,.57-.21,1.07-.63,1.49-.42.42-.92.63-1.5.63h-22.64c-.57,0-1.07-.21-1.49-.63s-.64-.92-.64-1.49v-1.16c0-.55.19-1.01.56-1.38s.83-.56,1.38-.56c.2,0,.3-.1.3-.3v-8.41c0-.57.21-1.07.64-1.49s.92-.64,1.49-.64h18.91c.57,0,1.07.21,1.49.64s.64.92.64,1.49v8.52c0,.12.06.19.19.19ZM333.04,14.34h16.66c.57,0,1.07.21,1.49.64.42.42.64.92.64,1.49v11.62c0,.57-.21,1.07-.64,1.49s-.92.64-1.49.64h-16.66c-.57,0-1.07-.21-1.5-.64-.42-.42-.63-.92-.63-1.49v-11.62c0-.57.21-1.07.63-1.49.42-.42.92-.64,1.5-.64ZM336.14,42.03v-5.53c0-.2-.11-.3-.34-.3h-.63c-.22,0-.34.1-.34.3v5.53c0,.22.11.34.34.34h.63c.22,0,.34-.11.34-.34ZM345.11,20.55v-.86c0-.2-.11-.3-.34-.3h-6.99c-.22,0-.34.1-.34.3v.86c0,.22.11.34.34.34h6.99c.22,0,.34-.11.34-.34ZM345.11,25.78v-.86c0-.2-.11-.3-.34-.3h-6.99c-.22,0-.34.1-.34.3v.86c0,.22.11.34.34.34h6.99c.22,0,.34-.11.34-.34ZM341.75,42.03v-5.53c0-.2-.11-.3-.34-.3h-.64c-.22,0-.34.1-.34.3v5.53c0,.22.11.34.34.34h.64c.22,0,.34-.11.34-.34ZM347.35,42.03v-5.53c0-.2-.11-.3-.34-.3h-.64c-.22,0-.34.1-.34.3v5.53c0,.22.11.34.34.34h.64c.22,0,.34-.11.34-.34Z"/>
      <path class="cls-5" d="M352.54,79.11c.5.27.82.69.95,1.23.14.55.04,1.05-.28,1.49l-1.27,1.79c-.35.5-.82.81-1.42.93-.6.12-1.16.02-1.68-.3-3.21-1.99-6-4.4-8.37-7.21-.05-.05-.1-.06-.15-.04-.05.03-.07.06-.07.11v.93c0,1.27-.02,2.27-.06,2.99-.04.72-.16,1.39-.36,2.02s-.42,1.07-.67,1.35c-.25.27-.67.51-1.25.71s-1.2.32-1.85.36c-.65.04-1.56.06-2.73.06-1.07,0-2.11-.02-3.1-.07-.6-.02-1.12-.26-1.55-.69s-.68-.95-.73-1.55l-.07-1.34c-.02-.55.14-1.02.49-1.42-1.42,1.37-3.08,2.65-4.97,3.85-.52.3-1.08.39-1.66.26-.59-.12-1.05-.44-1.4-.93l-1.27-1.79c-.32-.45-.42-.93-.3-1.46.12-.52.44-.92.93-1.2,2.04-1.12,3.61-2.17,4.71-3.14.05-.05.06-.1.04-.15-.03-.05-.06-.07-.11-.07h-2.88c-.57,0-1.07-.21-1.49-.64-.42-.42-.64-.92-.64-1.49v-.79c0-.57.21-1.07.64-1.49s.92-.64,1.49-.64h8.26c.57,0,1.07.21,1.49.64s.64.92.64,1.49v.79c0,1.57-.36,2.89-1.08,3.96-.57.85-1.33,1.74-2.28,2.69.37-.37.82-.54,1.34-.49,1.44.05,2.18.07,2.2.07.65,0,1.03-.06,1.14-.19.11-.12.17-.5.17-1.12v-9.01c0-.22-.11-.34-.34-.34h-8.93c-.57,0-1.07-.21-1.49-.64-.42-.42-.64-.92-.64-1.49v-11.99c0-.57.21-1.07.64-1.5s.92-.63,1.49-.63h7.47c.22,0,.35-.09.37-.26.02-.02.04-.07.04-.15s.01-.12.04-.15c.12-.6.43-1.08.92-1.46.48-.37,1.03-.54,1.63-.49l2.99.15c.52.05.94.28,1.25.69.31.41.42.88.32,1.4-.05.17.04.26.26.26h8.85c.57,0,1.07.21,1.5.63.42.42.63.92.63,1.5v11.99c0,.72-.26,1.28-.78,1.68-.03.03-.04.06-.04.09s.01.06.04.06c.65,0,1.18.2,1.61.6l1.34,1.27c.42.4.64.88.65,1.44.01.56-.19,1.04-.62,1.44-1.32,1.17-2.45,2.12-3.4,2.84-.15.15-.15.27,0,.37,1.05.77,2.18,1.5,3.4,2.17ZM328.86,58.22v1.01c0,.22.11.34.34.34h13.9c.22,0,.34-.11.34-.34v-1.01c0-.22-.11-.34-.34-.34h-13.9c-.22,0-.34.11-.34.34ZM329.19,65.17h13.9c.22,0,.34-.11.34-.34v-1.05c0-.2-.11-.3-.34-.3h-13.9c-.22,0-.34.1-.34.3v1.05c0,.22.11.34.34.34ZM344.44,72.57c1.34-1.05,2.55-2.04,3.62-2.99l.15-.15s.04-.06.04-.09-.02-.06-.07-.06h-6.58c-.2,0-.24.09-.11.26.67.97,1.49,1.96,2.47,2.95.15.2.31.22.49.07Z"/>
      <path class="cls-5" d="M347.2,116.84l.26,2.28c.07.6-.06,1.13-.41,1.61-.35.47-.82.75-1.42.82-1.15.15-2.32.22-3.51.22-4.58,0-8.25-1.18-11-3.53-2.75-2.35-4.13-5.54-4.13-9.55,0-1.87.5-3.74,1.5-5.6,1-1.87,2.35-3.46,4.07-4.78.02,0,.04-.02.04-.07,0-.02-.01-.04-.04-.04-3.56.1-7.11.17-10.65.22-.57,0-1.07-.21-1.48-.64-.41-.42-.62-.92-.62-1.49v-2.09c0-.57.21-1.07.62-1.49.41-.42.9-.64,1.48-.64,9.64-.05,18.63-.26,26.98-.64.57-.02,1.08.16,1.51.56s.67.88.69,1.46l.04,2.09c.02.6-.16,1.12-.56,1.55s-.9.68-1.49.73c-4.78.47-8.38,1.61-10.8,3.4-2.42,1.79-3.62,4.04-3.62,6.72,0,2.27.72,4.05,2.17,5.34,1.44,1.3,3.34,1.94,5.68,1.94.77,0,1.54-.05,2.32-.15.6-.07,1.13.06,1.59.39.46.34.73.79.8,1.36ZM346.23,103.27c.27.5.68,1.27,1.23,2.32.25.52.27,1.06.07,1.61-.2.55-.56.95-1.08,1.2-.55.25-1.1.27-1.64.07-.55-.2-.96-.56-1.23-1.08-.12-.22-.52-.96-1.2-2.2-.27-.5-.32-1.02-.15-1.57.17-.55.52-.96,1.05-1.23h.04c.52-.27,1.07-.32,1.64-.15.57.18,1,.52,1.27,1.05ZM352.21,101.93c.82,1.57,1.25,2.38,1.27,2.43.27.52.32,1.06.13,1.61-.19.55-.54.95-1.07,1.2l-.11.07c-.52.25-1.06.28-1.63.09s-.98-.54-1.25-1.07c-.12-.25-.32-.64-.6-1.16-.27-.52-.49-.91-.64-1.16-.27-.5-.33-1.03-.17-1.61.16-.57.5-.98,1.03-1.23l.11-.04c.52-.27,1.07-.33,1.64-.17.57.16,1,.5,1.27,1.03Z"/>
      <path class="cls-5" d="M330.72,142.8c0,.57-.21,1.07-.64,1.49s-.92.64-1.49.64h-3.21c-.57,0-1.07-.21-1.49-.64-.42-.42-.64-.92-.64-1.49v-12.93c0-.57.21-1.07.64-1.5s.92-.63,1.49-.63h3.21c.57,0,1.07.21,1.49.63.42.42.64.92.64,1.5v12.93ZM346.9,127.75c.57,0,1.07.21,1.49.63.42.42.64.92.64,1.5v8.71c0,6.23-1.55,11-4.65,14.33-3.1,3.33-7.83,5.34-14.18,6.03-.6.07-1.13-.07-1.61-.45-.47-.37-.77-.86-.9-1.46l-.49-2.17c-.1-.55.01-1.05.34-1.51.32-.46.77-.73,1.35-.8,4.76-.65,8.03-1.97,9.81-3.98,1.78-2,2.67-5.27,2.67-9.81v-8.89c0-.57.21-1.07.63-1.5.42-.42.92-.63,1.5-.63h3.4Z"/>
      <path class="cls-5" d="M352.13,169.82l.34,2.35c.2,1.47-.05,2.79-.75,3.96-1.87,3.16-4.17,6.05-6.91,8.67-.42.4-.93.59-1.53.58-.6-.01-1.11-.23-1.53-.65l-1.87-1.87c-.4-.42-.59-.91-.58-1.48.01-.56.23-1.04.65-1.44,1.42-1.37,2.69-2.75,3.81-4.15.12-.12.09-.19-.11-.19l-9.45,1.38c-.2.05-.3.18-.3.37v7.17c0,2.09.21,3.36.62,3.81.41.45,1.57.67,3.49.67,3.76,0,7.41-.21,10.95-.63.57-.07,1.08.07,1.53.43.45.36.68.83.71,1.4l.15,2.09c.05.6-.12,1.13-.5,1.59-.39.46-.88.72-1.48.77-4.36.47-8.77.71-13.23.71-3.54,0-5.98-.66-7.32-1.98-1.35-1.32-2.02-3.77-2.02-7.36v-7.62c0-.07-.03-.15-.09-.22-.06-.07-.13-.1-.21-.07l-4.71.71c-.57.1-1.1-.03-1.57-.39-.47-.36-.75-.83-.82-1.4l-.34-2.35c-.07-.57.06-1.09.41-1.55.35-.46.81-.74,1.38-.84l5.64-.82c.2-.05.3-.17.3-.37v-4.6c0-.57.21-1.07.63-1.49.42-.42.92-.64,1.5-.64h2.84c.57,0,1.07.21,1.49.64s.64.92.64,1.49v3.55c0,.22.1.31.3.26l15.54-2.28c.57-.1,1.1.03,1.57.39.47.36.75.83.82,1.4Z"/>
      <path class="cls-5" d="M333.86,214.81c.15.57.07,1.11-.24,1.63s-.74.83-1.29.95l-1.61.37c-.57.12-1.11.03-1.61-.28-.5-.31-.81-.74-.93-1.29-.65-2.64-1.15-4.61-1.49-5.9-.15-.57-.07-1.11.22-1.63.3-.51.72-.83,1.27-.95l1.46-.34c.57-.15,1.11-.07,1.61.24.5.31.83.75,1.01,1.33.67,2.39,1.21,4.35,1.61,5.87ZM349.55,206.48c.6.05,1.1.29,1.51.71.41.42.6.93.58,1.53-.22,6.9-1.69,11.94-4.41,15.13-2.72,3.19-7.11,5.18-13.19,5.98-.6.07-1.14-.06-1.63-.41-.49-.35-.79-.82-.92-1.42l-.3-1.5c-.1-.55,0-1.05.32-1.49s.75-.72,1.33-.82c4.58-.7,7.81-2.19,9.68-4.47,1.87-2.28,2.89-6.05,3.06-11.3.02-.57.25-1.06.67-1.46s.92-.59,1.5-.56l1.79.07ZM337.71,206.48c.57-.12,1.11-.04,1.63.26.51.3.84.72.99,1.27.8,2.99,1.33,5.01,1.61,6.05.15.57.07,1.12-.24,1.63-.31.51-.74.83-1.29.95l-1.61.37c-.57.12-1.11.04-1.61-.26-.5-.3-.82-.72-.97-1.27-.05-.15-.59-2.18-1.61-6.09-.15-.57-.07-1.11.22-1.61.3-.5.72-.81,1.27-.93l1.61-.37Z"/>
      <path class="cls-5" d="M350.23,254.82c.55.17.95.53,1.21,1.06.26.54.29,1.09.09,1.66l-.9,2.69c-.17.55-.52.95-1.05,1.21-.52.26-1.07.29-1.64.09-5.01-1.74-10.1-3.29-15.28-4.63-.07-.02-.14,0-.19.06-.05.06-.07.13-.07.2v11.55c0,.57-.21,1.07-.64,1.49-.42.42-.92.64-1.49.64h-3.21c-.57,0-1.07-.21-1.49-.64-.42-.42-.64-.92-.64-1.49v-27.13c0-.57.21-1.07.64-1.49.42-.42.92-.64,1.49-.64h3.21c.57,0,1.07.21,1.49.64s.64.92.64,1.49v7.62c0,.22.1.36.3.41,6.2,1.54,12.04,3.28,17.52,5.19Z"/>
      <path class="cls-5" d="M338.49,278.7c.57,0,1.06.21,1.46.64s.59.92.56,1.49l-.9,14.05c-.05.6-.29,1.1-.71,1.51-.42.41-.93.62-1.53.62h-2.47c-.6,0-1.11-.21-1.53-.62-.42-.41-.66-.92-.71-1.51l-.9-14.05c-.02-.57.16-1.07.56-1.49s.88-.64,1.46-.64h4.71ZM337.75,300c.57,0,1.07.21,1.5.64s.63.92.63,1.49v1.72c0,.57-.21,1.07-.63,1.49s-.92.64-1.5.64h-3.21c-.57,0-1.07-.21-1.49-.64-.42-.42-.64-.92-.64-1.49v-1.72c0-.57.21-1.07.64-1.49.42-.42.92-.64,1.49-.64h3.21Z"/>
    </g>
    <g>
      <path d="M323.36,31.12c-.75-.65-2.03-1.68-3.85-3.1-.45-.35-.71-.81-.79-1.38-.07-.57.07-1.08.45-1.53l1.05-1.2c.37-.47.85-.75,1.44-.82s1.13.06,1.63.41c1.27.92,2.53,1.91,3.77,2.95.45.4.7.89.77,1.48s-.09,1.12-.47,1.59l-1.12,1.38c-.35.45-.81.69-1.38.73-.57.04-1.07-.13-1.49-.5ZM327.25,34.41c.57.2,1,.57,1.29,1.12.29.55.34,1.11.17,1.68-.95,3.29-2.18,6.41-3.7,9.38-.25.52-.66.85-1.23.97-.57.12-1.1.04-1.57-.26l-1.83-1.12c-.5-.32-.82-.77-.97-1.34s-.09-1.12.19-1.64c1.22-2.42,2.34-5.11,3.36-8.07.2-.55.55-.95,1.07-1.2.51-.25,1.04-.27,1.59-.07l1.64.56ZM321.42,19.8c-.47-.35-.75-.81-.82-1.38-.07-.57.07-1.08.45-1.53l1.05-1.2c.4-.47.88-.75,1.46-.84.57-.09,1.11.04,1.61.39.87.62,1.87,1.38,2.99,2.28.47.37.74.85.8,1.44.06.59-.09,1.12-.47,1.59l-1.12,1.38c-.35.45-.81.7-1.38.75-.57.05-1.08-.11-1.53-.48-1.4-1.15-2.4-1.94-3.03-2.39ZM352.95,42.63c.35,0,.65.13.92.39s.39.57.39.91v1.79c0,.57-.21,1.07-.63,1.49-.42.42-.92.63-1.5.63h-22.64c-.57,0-1.07-.21-1.49-.63s-.64-.92-.64-1.49v-1.16c0-.55.19-1.01.56-1.38s.83-.56,1.38-.56c.2,0,.3-.1.3-.3v-8.41c0-.57.21-1.07.64-1.49s.92-.64,1.49-.64h18.91c.57,0,1.07.21,1.49.64s.64.92.64,1.49v8.52c0,.12.06.19.19.19ZM333.04,14.61h16.66c.57,0,1.07.21,1.49.64.42.42.64.92.64,1.49v11.62c0,.57-.21,1.07-.64,1.49s-.92.64-1.49.64h-16.66c-.57,0-1.07-.21-1.5-.64-.42-.42-.63-.92-.63-1.49v-11.62c0-.57.21-1.07.63-1.49.42-.42.92-.64,1.5-.64ZM336.14,42.29v-5.53c0-.2-.11-.3-.34-.3h-.63c-.22,0-.34.1-.34.3v5.53c0,.22.11.34.34.34h.63c.22,0,.34-.11.34-.34ZM345.11,20.81v-.86c0-.2-.11-.3-.34-.3h-6.99c-.22,0-.34.1-.34.3v.86c0,.22.11.34.34.34h6.99c.22,0,.34-.11.34-.34ZM345.11,26.04v-.86c0-.2-.11-.3-.34-.3h-6.99c-.22,0-.34.1-.34.3v.86c0,.22.11.34.34.34h6.99c.22,0,.34-.11.34-.34ZM341.75,42.29v-5.53c0-.2-.11-.3-.34-.3h-.64c-.22,0-.34.1-.34.3v5.53c0,.22.11.34.34.34h.64c.22,0,.34-.11.34-.34ZM347.35,42.29v-5.53c0-.2-.11-.3-.34-.3h-.64c-.22,0-.34.1-.34.3v5.53c0,.22.11.34.34.34h.64c.22,0,.34-.11.34-.34Z"/>
      <path d="M352.54,79.37c.5.27.82.69.95,1.23.14.55.04,1.05-.28,1.49l-1.27,1.79c-.35.5-.82.81-1.42.93-.6.12-1.16.02-1.68-.3-3.21-1.99-6-4.4-8.37-7.21-.05-.05-.1-.06-.15-.04-.05.03-.07.06-.07.11v.93c0,1.27-.02,2.27-.06,2.99-.04.72-.16,1.39-.36,2.02s-.42,1.07-.67,1.35c-.25.27-.67.51-1.25.71s-1.2.32-1.85.36c-.65.04-1.56.06-2.73.06-1.07,0-2.11-.02-3.1-.07-.6-.02-1.12-.26-1.55-.69s-.68-.95-.73-1.55l-.07-1.34c-.02-.55.14-1.02.49-1.42-1.42,1.37-3.08,2.65-4.97,3.85-.52.3-1.08.39-1.66.26-.59-.12-1.05-.44-1.4-.93l-1.27-1.79c-.32-.45-.42-.93-.3-1.46.12-.52.44-.92.93-1.2,2.04-1.12,3.61-2.17,4.71-3.14.05-.05.06-.1.04-.15-.03-.05-.06-.07-.11-.07h-2.88c-.57,0-1.07-.21-1.49-.64-.42-.42-.64-.92-.64-1.49v-.79c0-.57.21-1.07.64-1.49s.92-.64,1.49-.64h8.26c.57,0,1.07.21,1.49.64s.64.92.64,1.49v.79c0,1.57-.36,2.89-1.08,3.96-.57.85-1.33,1.74-2.28,2.69.37-.37.82-.54,1.34-.49,1.44.05,2.18.07,2.2.07.65,0,1.03-.06,1.14-.19.11-.12.17-.5.17-1.12v-9.01c0-.22-.11-.34-.34-.34h-8.93c-.57,0-1.07-.21-1.49-.64-.42-.42-.64-.92-.64-1.49v-11.99c0-.57.21-1.07.64-1.5s.92-.63,1.49-.63h7.47c.22,0,.35-.09.37-.26.02-.02.04-.07.04-.15s.01-.12.04-.15c.12-.6.43-1.08.92-1.46.48-.37,1.03-.54,1.63-.49l2.99.15c.52.05.94.28,1.25.69.31.41.42.88.32,1.4-.05.17.04.26.26.26h8.85c.57,0,1.07.21,1.5.63.42.42.63.92.63,1.5v11.99c0,.72-.26,1.28-.78,1.68-.03.03-.04.06-.04.09s.01.06.04.06c.65,0,1.18.2,1.61.6l1.34,1.27c.42.4.64.88.65,1.44.01.56-.19,1.04-.62,1.44-1.32,1.17-2.45,2.12-3.4,2.84-.15.15-.15.27,0,.37,1.05.77,2.18,1.5,3.4,2.17ZM328.86,58.48v1.01c0,.22.11.34.34.34h13.9c.22,0,.34-.11.34-.34v-1.01c0-.22-.11-.34-.34-.34h-13.9c-.22,0-.34.11-.34.34ZM329.19,65.43h13.9c.22,0,.34-.11.34-.34v-1.05c0-.2-.11-.3-.34-.3h-13.9c-.22,0-.34.1-.34.3v1.05c0,.22.11.34.34.34ZM344.44,72.83c1.34-1.05,2.55-2.04,3.62-2.99l.15-.15s.04-.06.04-.09-.02-.06-.07-.06h-6.58c-.2,0-.24.09-.11.26.67.97,1.49,1.96,2.47,2.95.15.2.31.22.49.07Z"/>
      <path d="M347.2,117.1l.26,2.28c.07.6-.06,1.13-.41,1.61-.35.47-.82.75-1.42.82-1.15.15-2.32.22-3.51.22-4.58,0-8.25-1.18-11-3.53-2.75-2.35-4.13-5.54-4.13-9.55,0-1.87.5-3.74,1.5-5.6,1-1.87,2.35-3.46,4.07-4.78.02,0,.04-.02.04-.07,0-.02-.01-.04-.04-.04-3.56.1-7.11.17-10.65.22-.57,0-1.07-.21-1.48-.64-.41-.42-.62-.92-.62-1.49v-2.09c0-.57.21-1.07.62-1.49.41-.42.9-.64,1.48-.64,9.64-.05,18.63-.26,26.98-.64.57-.02,1.08.16,1.51.56s.67.88.69,1.46l.04,2.09c.02.6-.16,1.12-.56,1.55s-.9.68-1.49.73c-4.78.47-8.38,1.61-10.8,3.4-2.42,1.79-3.62,4.04-3.62,6.72,0,2.27.72,4.05,2.17,5.34,1.44,1.3,3.34,1.94,5.68,1.94.77,0,1.54-.05,2.32-.15.6-.07,1.13.06,1.59.39.46.34.73.79.8,1.36ZM346.23,103.54c.27.5.68,1.27,1.23,2.32.25.52.27,1.06.07,1.61-.2.55-.56.95-1.08,1.2-.55.25-1.1.27-1.64.07-.55-.2-.96-.56-1.23-1.08-.12-.22-.52-.96-1.2-2.2-.27-.5-.32-1.02-.15-1.57.17-.55.52-.96,1.05-1.23h.04c.52-.27,1.07-.32,1.64-.15.57.18,1,.52,1.27,1.05ZM352.21,102.19c.82,1.57,1.25,2.38,1.27,2.43.27.52.32,1.06.13,1.61-.19.55-.54.95-1.07,1.2l-.11.07c-.52.25-1.06.28-1.63.09s-.98-.54-1.25-1.07c-.12-.25-.32-.64-.6-1.16-.27-.52-.49-.91-.64-1.16-.27-.5-.33-1.03-.17-1.61.16-.57.5-.98,1.03-1.23l.11-.04c.52-.27,1.07-.33,1.64-.17.57.16,1,.5,1.27,1.03Z"/>
      <path d="M330.72,143.07c0,.57-.21,1.07-.64,1.49s-.92.64-1.49.64h-3.21c-.57,0-1.07-.21-1.49-.64-.42-.42-.64-.92-.64-1.49v-12.93c0-.57.21-1.07.64-1.5s.92-.63,1.49-.63h3.21c.57,0,1.07.21,1.49.63.42.42.64.92.64,1.5v12.93ZM346.9,128.01c.57,0,1.07.21,1.49.63.42.42.64.92.64,1.5v8.71c0,6.23-1.55,11-4.65,14.33-3.1,3.33-7.83,5.34-14.18,6.03-.6.07-1.13-.07-1.61-.45-.47-.37-.77-.86-.9-1.46l-.49-2.17c-.1-.55.01-1.05.34-1.51.32-.46.77-.73,1.35-.8,4.76-.65,8.03-1.97,9.81-3.98,1.78-2,2.67-5.27,2.67-9.81v-8.89c0-.57.21-1.07.63-1.5.42-.42.92-.63,1.5-.63h3.4Z"/>
      <path d="M352.13,170.08l.34,2.35c.2,1.47-.05,2.79-.75,3.96-1.87,3.16-4.17,6.05-6.91,8.67-.42.4-.93.59-1.53.58-.6-.01-1.11-.23-1.53-.65l-1.87-1.87c-.4-.42-.59-.91-.58-1.48.01-.56.23-1.04.65-1.44,1.42-1.37,2.69-2.75,3.81-4.15.12-.12.09-.19-.11-.19l-9.45,1.38c-.2.05-.3.18-.3.37v7.17c0,2.09.21,3.36.62,3.81.41.45,1.57.67,3.49.67,3.76,0,7.41-.21,10.95-.63.57-.07,1.08.07,1.53.43.45.36.68.83.71,1.4l.15,2.09c.05.6-.12,1.13-.5,1.59-.39.46-.88.72-1.48.77-4.36.47-8.77.71-13.23.71-3.54,0-5.98-.66-7.32-1.98-1.35-1.32-2.02-3.77-2.02-7.36v-7.62c0-.07-.03-.15-.09-.22-.06-.07-.13-.1-.21-.07l-4.71.71c-.57.1-1.1-.03-1.57-.39-.47-.36-.75-.83-.82-1.4l-.34-2.35c-.07-.57.06-1.09.41-1.55.35-.46.81-.74,1.38-.84l5.64-.82c.2-.05.3-.17.3-.37v-4.6c0-.57.21-1.07.63-1.49.42-.42.92-.64,1.5-.64h2.84c.57,0,1.07.21,1.49.64s.64.92.64,1.49v3.55c0,.22.1.31.3.26l15.54-2.28c.57-.1,1.1.03,1.57.39.47.36.75.83.82,1.4Z"/>
      <path d="M333.86,215.07c.15.57.07,1.11-.24,1.63s-.74.83-1.29.95l-1.61.37c-.57.12-1.11.03-1.61-.28-.5-.31-.81-.74-.93-1.29-.65-2.64-1.15-4.61-1.49-5.9-.15-.57-.07-1.11.22-1.63.3-.51.72-.83,1.27-.95l1.46-.34c.57-.15,1.11-.07,1.61.24.5.31.83.75,1.01,1.33.67,2.39,1.21,4.35,1.61,5.87ZM349.55,206.74c.6.05,1.1.29,1.51.71.41.42.6.93.58,1.53-.22,6.9-1.69,11.94-4.41,15.13-2.72,3.19-7.11,5.18-13.19,5.98-.6.07-1.14-.06-1.63-.41-.49-.35-.79-.82-.92-1.42l-.3-1.5c-.1-.55,0-1.05.32-1.49s.75-.72,1.33-.82c4.58-.7,7.81-2.19,9.68-4.47,1.87-2.28,2.89-6.05,3.06-11.3.02-.57.25-1.06.67-1.46s.92-.59,1.5-.56l1.79.07ZM337.71,206.74c.57-.12,1.11-.04,1.63.26.51.3.84.72.99,1.27.8,2.99,1.33,5.01,1.61,6.05.15.57.07,1.12-.24,1.63-.31.51-.74.83-1.29.95l-1.61.37c-.57.12-1.11.04-1.61-.26-.5-.3-.82-.72-.97-1.27-.05-.15-.59-2.18-1.61-6.09-.15-.57-.07-1.11.22-1.61.3-.5.72-.81,1.27-.93l1.61-.37Z"/>
      <path d="M350.23,255.09c.55.17.95.53,1.21,1.06.26.54.29,1.09.09,1.66l-.9,2.69c-.17.55-.52.95-1.05,1.21-.52.26-1.07.29-1.64.09-5.01-1.74-10.1-3.29-15.28-4.63-.07-.02-.14,0-.19.06-.05.06-.07.13-.07.2v11.55c0,.57-.21,1.07-.64,1.49-.42.42-.92.64-1.49.64h-3.21c-.57,0-1.07-.21-1.49-.64-.42-.42-.64-.92-.64-1.49v-27.13c0-.57.21-1.07.64-1.49.42-.42.92-.64,1.49-.64h3.21c.57,0,1.07.21,1.49.64s.64.92.64,1.49v7.62c0,.22.1.36.3.41,6.2,1.54,12.04,3.28,17.52,5.19Z"/>
      <path d="M338.49,278.96c.57,0,1.06.21,1.46.64s.59.92.56,1.49l-.9,14.05c-.05.6-.29,1.1-.71,1.51-.42.41-.93.62-1.53.62h-2.47c-.6,0-1.11-.21-1.53-.62-.42-.41-.66-.92-.71-1.51l-.9-14.05c-.02-.57.16-1.07.56-1.49s.88-.64,1.46-.64h4.71ZM337.75,300.26c.57,0,1.07.21,1.5.64s.63.92.63,1.49v1.72c0,.57-.21,1.07-.63,1.49s-.92.64-1.5.64h-3.21c-.57,0-1.07-.21-1.49-.64-.42-.42-.64-.92-.64-1.49v-1.72c0-.57.21-1.07.64-1.49.42-.42.92-.64,1.49-.64h3.21Z"/>
    </g>
    <ellipse class="cls-1" cx="168.37" cy="195.68" rx="123.39" ry="59.7"/>
    <polygon class="cls-7" points="317.31 210.93 303.58 198.09 308.32 195.08 307.2 169.07 284.11 157.04 278.94 160.32 282.34 147.16 262.93 128.12 236.74 135.4 229.95 161.73 249.35 180.77 262.41 177.14 263.27 197.02 270.71 200.9 264.66 226.95 264.8 227.08 244.99 230.7 241.69 239.94 241.08 239.3 210.62 246.62 210.34 247.6 184.22 239.18 168.87 253.07 158.52 240.59 130.2 245.42 130.16 245.07 101.73 233.21 95.73 237.79 93.87 228.99 67.13 220.27 62.84 202.89 77.5 184.69 74.99 178.21 95.68 170.03 99.35 145.23 79.72 129.65 56.4 138.86 53.74 156.81 40.26 154.71 22.95 176.21 30.37 195.36 14.06 211.03 20.88 238.67 43.89 245.32 48.96 269.33 77.66 278.69 80.39 276.24 81.19 282.45 109.62 294.31 118.28 287.7 134.04 306.69 168.78 300.77 169.58 298.61 199.04 308.1 216.55 292.25 223.31 299.37 253.77 292.05 256.98 281.17 283.73 276.28 293.78 248.11 290.33 244.05 311.08 237.74 317.31 210.93"/>
    <g>
      <g>
        <polygon class="cls-6" points="261.38 123.77 235.18 131.06 228.39 157.39 247.8 176.43 273.99 169.14 280.78 142.81 261.38 123.77"/>
        <polygon class="cls-8" points="280.78 142.81 268.95 153.26 244.81 159.98 228.39 157.39 235.18 131.06 261.38 123.77 280.78 142.81"/>
        <polygon class="cls-8" points="247.8 176.43 244.81 159.98 268.95 153.26 273.99 169.14 247.8 176.43"/>
        <polygon class="cls-3" points="280.78 142.81 268.95 153.26 273.99 169.14 280.78 142.81"/>
        <polygon class="cls-3" points="228.39 157.39 244.81 159.98 247.8 176.43 228.39 157.39"/>
      </g>
      <g>
        <polygon class="cls-6" points="284.79 204.71 306.76 190.74 305.64 164.73 282.56 152.69 260.59 166.67 261.71 192.67 284.79 204.71"/>
        <polygon class="cls-8" points="261.71 192.67 269.63 179.81 289.88 166.93 305.64 164.73 306.76 190.74 284.79 204.71 261.71 192.67"/>
        <polygon class="cls-8" points="282.56 152.69 289.88 166.93 269.63 179.81 260.59 166.67 282.56 152.69"/>
        <polygon class="cls-3" points="261.71 192.67 269.63 179.81 260.59 166.67 261.71 192.67"/>
        <polygon class="cls-3" points="305.64 164.73 289.88 166.93 282.56 152.69 305.64 164.73"/>
      </g>
      <g>
        <polygon class="cls-6" points="315.75 206.59 295.66 187.79 269.33 195.8 263.1 222.61 283.2 241.4 309.53 233.39 315.75 206.59"/>
        <polygon class="cls-8" points="309.53 233.39 294.27 228.68 275.74 211.35 269.33 195.8 295.66 187.79 315.75 206.59 309.53 233.39"/>
        <polygon class="cls-8" points="263.1 222.61 275.74 211.35 294.27 228.68 283.2 241.4 263.1 222.61"/>
        <polygon class="cls-3" points="309.53 233.39 294.27 228.68 283.2 241.4 309.53 233.39"/>
        <polygon class="cls-3" points="269.33 195.8 275.74 211.35 263.1 222.61 269.33 195.8"/>
      </g>
      <g>
        <polygon class="cls-6" points="78.16 125.3 54.85 134.52 51.17 159.32 70.81 174.9 94.13 165.68 97.8 140.88 78.16 125.3"/>
        <polygon class="cls-8" points="97.8 140.88 87.97 151.61 66.48 160.1 51.17 159.32 54.85 134.52 78.16 125.3 97.8 140.88"/>
        <polygon class="cls-8" points="70.81 174.9 66.48 160.1 87.97 151.61 94.13 165.68 70.81 174.9"/>
        <polygon class="cls-3" points="97.8 140.88 87.97 151.61 94.13 165.68 97.8 140.88"/>
        <polygon class="cls-3" points="51.17 159.32 66.48 160.1 70.81 174.9 51.17 159.32"/>
      </g>
      <g>
        <polygon class="cls-6" points="58.63 201.84 75.94 180.34 65.97 154.61 38.7 150.37 21.4 171.87 31.36 197.6 58.63 201.84"/>
        <polygon class="cls-8" points="31.36 197.6 34.95 181.99 50.9 162.17 65.97 154.61 75.94 180.34 58.63 201.84 31.36 197.6"/>
        <polygon class="cls-8" points="38.7 150.37 50.9 162.17 34.95 181.99 21.4 171.87 38.7 150.37"/>
        <polygon class="cls-3" points="31.36 197.6 34.95 181.99 21.4 171.87 31.36 197.6"/>
        <polygon class="cls-3" points="65.97 154.61 50.9 162.17 38.7 150.37 65.97 154.61"/>
      </g>
      <g>
        <polygon class="cls-6" points="33.03 186.96 12.51 206.68 19.33 234.32 46.67 242.24 67.2 222.51 60.38 194.87 33.03 186.96"/>
        <polygon class="cls-8" points="60.38 194.87 54.67 210.38 35.75 228.56 19.33 234.32 12.51 206.68 33.03 186.96 60.38 194.87"/>
        <polygon class="cls-8" points="46.67 242.24 35.75 228.56 54.67 210.38 67.2 222.51 46.67 242.24"/>
        <polygon class="cls-3" points="60.38 194.87 54.67 210.38 67.2 222.51 60.38 194.87"/>
        <polygon class="cls-3" points="19.33 234.32 35.75 228.56 46.67 242.24 19.33 234.32"/>
      </g>
      <g>
        <polygon class="cls-6" points="98.56 254.18 92.31 224.65 63.62 215.29 41.17 235.46 47.41 264.99 76.1 274.35 98.56 254.18"/>
        <polygon class="cls-8" points="76.1 274.35 65.35 260.52 59.6 233.3 63.62 215.29 92.31 224.65 98.56 254.18 76.1 274.35"/>
        <polygon class="cls-8" points="41.17 235.46 59.6 233.3 65.35 260.52 47.41 264.99 41.17 235.46"/>
        <polygon class="cls-3" points="76.1 274.35 65.35 260.52 47.41 264.99 76.1 274.35"/>
        <polygon class="cls-3" points="63.62 215.29 59.6 233.3 41.17 235.46 63.62 215.29"/>
      </g>
      <g>
        <polygon class="cls-6" points="75.69 247.56 79.64 278.11 108.06 289.96 132.55 271.27 128.6 240.72 100.17 228.87 75.69 247.56"/>
        <polygon class="cls-8" points="100.17 228.87 109.98 243.81 113.62 271.97 108.06 289.96 79.64 278.11 75.69 247.56 100.17 228.87"/>
        <polygon class="cls-8" points="132.55 271.27 113.62 271.97 109.98 243.81 128.6 240.72 132.55 271.27"/>
        <polygon class="cls-3" points="100.17 228.87 109.98 243.81 128.6 240.72 100.17 228.87"/>
        <polygon class="cls-3" points="108.06 289.96 113.62 271.97 132.55 271.27 108.06 289.96"/>
      </g>
      <g>
        <polygon class="cls-6" points="243.43 226.36 233.38 254.52 252.75 277.31 282.17 271.93 292.22 243.77 272.86 220.98 243.43 226.36"/>
        <polygon class="cls-8" points="272.86 220.98 274.75 238.23 265.49 264.19 252.75 277.31 233.38 254.52 243.43 226.36 272.86 220.98"/>
        <polygon class="cls-8" points="282.17 271.93 265.49 264.19 274.75 238.23 292.22 243.77 282.17 271.93"/>
        <polygon class="cls-3" points="272.86 220.98 274.75 238.23 292.22 243.77 272.86 220.98"/>
        <polygon class="cls-3" points="252.75 277.31 265.49 264.19 282.17 271.93 252.75 277.31"/>
      </g>
      <g>
        <polygon class="cls-6" points="252.21 287.7 261.09 257.67 239.52 234.95 209.07 242.28 200.19 272.32 221.76 295.03 252.21 287.7"/>
        <polygon class="cls-8" points="221.76 295.03 218.78 277.09 226.96 249.41 239.52 234.95 261.09 257.67 252.21 287.7 221.76 295.03"/>
        <polygon class="cls-8" points="209.07 242.28 226.96 249.41 218.78 277.09 200.19 272.32 209.07 242.28"/>
        <polygon class="cls-3" points="221.76 295.03 218.78 277.09 200.19 272.32 221.76 295.03"/>
        <polygon class="cls-3" points="239.52 234.95 226.96 249.41 209.07 242.28 239.52 234.95"/>
      </g>
      <g>
        <polygon class="cls-6" points="216.21 245.65 182.66 234.84 156.53 258.49 163.94 292.94 197.49 303.75 223.62 280.1 216.21 245.65"/>
        <polygon class="cls-8" points="223.62 280.1 203.36 282.97 172.44 273.01 156.53 258.49 182.66 234.84 216.21 245.65 223.62 280.1"/>
        <polygon class="cls-8" points="163.94 292.94 172.44 273.01 203.36 282.97 197.49 303.75 163.94 292.94"/>
        <polygon class="cls-3" points="223.62 280.1 203.36 282.97 197.49 303.75 223.62 280.1"/>
        <polygon class="cls-3" points="156.53 258.49 172.44 273.01 163.94 292.94 156.53 258.49"/>
      </g>
      <g>
        <polygon class="cls-6" points="156.96 236.25 122.22 242.17 109.98 275.22 132.48 302.35 167.23 296.42 179.47 263.37 156.96 236.25"/>
        <polygon class="cls-8" points="179.47 263.37 162.83 275.28 130.81 280.74 109.98 275.22 122.22 242.17 156.96 236.25 179.47 263.37"/>
        <polygon class="cls-8" points="132.48 302.35 130.81 280.74 162.83 275.28 167.23 296.42 132.48 302.35"/>
        <polygon class="cls-3" points="179.47 263.37 162.83 275.28 167.23 296.42 179.47 263.37"/>
        <polygon class="cls-3" points="109.98 275.22 130.81 280.74 132.48 302.35 109.98 275.22"/>
      </g>
    </g>
    <ellipse class="cls-2" cx="167.42" cy="203.78" rx="68.37" ry="7.27"/>
    <path class="cls-6" d="M219.16,203.78c-3.18-17.45-14.33-28.86-14.33-28.86h-78.28s-11.15,11.41-14.33,28.86"/>
    <rect class="cls-6" x="74.33" y="51.99" width="186.16" height="124.36"/>
    <circle class="cls-4" cx="167.13" cy="114.17" r="37.7"/>
    <path class="cls-9" d="M94.65,64.81c.18,2.28,3.22,7.53,4.52,12.41,1.55,5.81-2.37,10.9-5.3,10.9s-6.04-4.92-5.3-10.9c.35-2.86,2.17-5.37,2.65-7.7"/>
    <polygon class="cls-6" points="74.33 51.99 78.95 44.42 254.59 44.42 260.5 51.99 74.33 51.99"/>
    <path class="cls-6" d="M133.63,34.61c8.37-.73,86.84,7.07,116.35,17.68,16.12,5.8,10.85,12.25-2.24,8.36-43.18-12.82-99.78-16.24-112.66-16.31-20.37-.1-19.56-23.81-.9-29.78,25.09-8.02,103.15,5.56,128.28,19,.08.14,10.48,5.61,11.21,15.01.86,11.14-3.01,30.41-21.58,23.1-24.7-9.73-86.47-22.07-118.64-19.09-12.46,1.15-11.18-8.7-12.53-15.04"/>
  </g>
</svg>