<?xml version="1.0" encoding="UTF-8"?>
<svg id="_レイヤー_1" data-name="レイヤー 1" xmlns="http://www.w3.org/2000/svg" viewBox="0 0 370 319">
  <defs>
    <style>
      .cls-1 {
        opacity: .2;
      }

      .cls-1, .cls-2, .cls-3, .cls-4, .cls-5, .cls-6, .cls-7, .cls-8, .cls-9, .cls-10 {
        stroke-linecap: round;
        stroke-linejoin: round;
      }

      .cls-1, .cls-2, .cls-3, .cls-5, .cls-6, .cls-7, .cls-8, .cls-9, .cls-10 {
        stroke: #000;
        stroke-width: 2px;
      }

      .cls-2 {
        fill: red;
      }

      .cls-3 {
        fill: #8cc63f;
      }

      .cls-4 {
        stroke: #fff;
        stroke-width: 5px;
      }

      .cls-4, .cls-5 {
        fill: #fff;
      }

      .cls-6 {
        fill: none;
      }

      .cls-7 {
        fill: #f4db8e;
      }

      .cls-8 {
        fill: #c69c6d;
      }

      .cls-9 {
        fill: #1b1464;
      }

      .cls-10 {
        fill: #009fe8;
      }
    </style>
  </defs>
  <g id="_お疲れ様です" data-name="お疲れ様です">
    <g>
      <path class="cls-4" d="M321.75,30.16c4.81,0,8.73,1.2,11.76,3.58,3.03,2.39,4.55,5.31,4.55,8.77,0,7.25-3.86,11.71-11.57,13.39-.76.16-1.48.02-2.15-.42-.68-.44-1.11-1.06-1.31-1.85l-.59-2.47c-.17-.72-.05-1.41.35-2.05.4-.64.96-1.06,1.68-1.26,1.61-.46,2.76-1.07,3.44-1.83.68-.76,1.01-1.76,1.01-3.02s-.67-2.27-2-3.14-3.06-1.31-5.16-1.31h-1.04c-.3,0-.44.15-.44.44v7.46c0,3.66-.66,6.14-1.98,7.44-1.32,1.3-3.79,1.95-7.41,1.95s-6.71-1.07-9.17-3.21c-2.45-2.14-3.68-4.86-3.68-8.16,0-2.87,1.13-5.46,3.39-7.78,2.26-2.32,5.44-4.06,9.56-5.22.26-.07.4-.25.4-.54v-4.35c0-.26-.15-.4-.44-.4h-7.61c-.76,0-1.42-.28-1.98-.84-.56-.56-.84-1.22-.84-1.98v-1.78c0-.76.28-1.42.84-1.98s1.22-.84,1.98-.84h7.61c.3,0,.44-.15.44-.44v-2.18c0-.76.28-1.42.84-1.98s1.22-.84,1.98-.84h3.26c.76,0,1.42.28,1.98.84.56.56.84,1.22.84,1.98v2.18c0,.3.15.44.44.44h6.13c.76,0,1.42.28,1.98.84.56.56.84,1.22.84,1.98v1.78c0,.76-.28,1.42-.84,1.98-.56.56-1.22.84-1.98.84h-6.13c-.3,0-.44.13-.44.4v3.16c0,.26.15.4.44.4h1.04ZM311.37,45.73v-5.39c0-.1-.05-.17-.15-.22-.1-.05-.2-.06-.3-.02-2.67,1.06-4,2.52-4,4.4,0,.79.31,1.53.94,2.2.63.68,1.3,1.01,2.03,1.01.63,0,1.03-.11,1.21-.35.18-.23.27-.77.27-1.63ZM342.61,26.5c.36.66.44,1.36.25,2.1s-.64,1.28-1.33,1.61l-1.48.79c-.69.36-1.41.43-2.15.2-.74-.23-1.31-.69-1.71-1.38-1.22-2.14-2.59-4.43-4.1-6.87-.4-.66-.51-1.37-.35-2.13.16-.76.58-1.33,1.24-1.73l1.38-.79c.66-.4,1.36-.51,2.1-.35s1.33.58,1.75,1.24c1.38,2.21,2.85,4.65,4.4,7.32Z"/>
      <path class="cls-4" d="M340.44,64.26c.76,0,1.42.28,1.98.84.56.56.84,1.22.84,1.98v1.78c0,.76-.28,1.42-.84,1.98-.56.56-1.22.84-1.98.84h-8.21c-.23,0-.31.13-.25.4.1.3.15.61.15.94,0,.26.15.4.44.4h7.61c.76,0,1.42.28,1.98.84.56.56.84,1.22.84,1.98v.79c0,2.01-.35,3.81-1.04,5.39-.4.89-.64,1.42-.74,1.58-.13.23-.2.49-.2.79v2.62c0,2.04-.36,3.84-1.09,5.39-.99,2.14-2.08,3.94-3.26,5.39-.2.2-.17.36.1.49,1.05.4,2.45.82,4.2,1.28.76.2,1.33.62,1.71,1.26.38.64.45,1.33.22,2.05l-.54,1.83c-.26.76-.73,1.34-1.41,1.75-.68.41-1.41.54-2.2.37-3.49-.73-6.49-1.73-9-3.01-.23-.1-.46-.1-.69,0-2.27,1.12-5.03,2.09-8.25,2.92-.76.2-1.48.1-2.18-.3s-1.17-.97-1.43-1.73l-.25-.84c-.03-.07-.09-.11-.17-.12-.08-.02-.16,0-.22.07-.23.36-.61.91-1.14,1.63-.46.59-1.07.91-1.83.94-.76.03-1.4-.23-1.93-.79l-2.08-2.12c-.56-.56-.86-1.24-.89-2.05-.03-.81.16-1.56.59-2.25,1.09-1.78,1.83-3.81,2.22-6.1s.59-5.68.59-10.16v-7.07c0-.76.28-1.42.84-1.98s1.22-.84,1.98-.84h7.91c.26,0,.4-.13.4-.4,0-.33.05-.64.15-.94.07-.26-.02-.4-.25-.4h-12.06c-.3,0-.44.15-.44.44v12.65c0,5.17-.38,9.31-1.14,12.41-.76,3.1-2.04,5.96-3.86,8.6-.43.63-1.03.97-1.8,1.04-.77.07-1.43-.16-1.95-.69l-2.52-2.37c-.59-.53-.91-1.2-.96-2.03-.05-.82.16-1.55.62-2.17,1.05-1.45,1.81-2.93,2.27-4.45.03-.07,0-.12-.07-.15s-.16-.03-.22,0c-.1.03-.25.08-.44.15s-.35.13-.44.2c-.69.3-1.38.29-2.05-.02-.68-.31-1.11-.83-1.31-1.56l-.64-2.32c-.23-.73-.17-1.44.17-2.15.35-.71.88-1.19,1.61-1.46,1.42-.53,2.78-1.1,4.1-1.73.26-.13.4-.31.4-.54.07-1.71.1-3.16.1-4.35,0-.13-.08-.16-.25-.1-.4.26-.82.34-1.28.22-.46-.11-.82-.39-1.09-.82-1.38-2.34-2.39-4-3.02-4.99-.43-.63-.56-1.32-.4-2.08.16-.76.56-1.35,1.19-1.78l1.93-1.28c.46-.3.96-.39,1.51-.27.54.12.96.4,1.26.87.03.03.07.03.1,0,.03-.03.05-.07.05-.1v-3.76c0-.76.28-1.42.84-1.98.56-.56,1.22-.84,1.98-.84h13.1c.26,0,.4-.13.4-.4,0-.72.25-1.33.74-1.83s1.1-.74,1.83-.74h4c.72,0,1.33.25,1.83.74s.74,1.1.74,1.83c0,.26.13.4.4.4h12.11ZM322.3,98.96c.1-.03.16-.1.2-.2.03-.1.02-.18-.05-.25-.73-.82-1.48-1.88-2.27-3.16-.13-.13-.23-.11-.3.05-.23,1.42-.58,2.82-1.04,4.2-.03.07-.02.15.05.25.07.1.13.13.2.1,1.32-.33,2.39-.66,3.21-.99ZM324.67,90.36s.05-.07.05-.1-.03-.05-.1-.05h-3.95c-.26,0-.4.15-.4.44,0,.17,0,.39-.02.67-.02.28-.02.49-.02.62,0,.2.12.26.35.2l4.1-1.78ZM320.27,80.28v3.36c0,.26.15.4.44.4h2.13c.26,0,.4-.13.4-.4v-3.36c0-.3-.13-.44-.4-.44h-2.13c-.3,0-.44.15-.44.44ZM331.54,90.56c.13-.23.05-.35-.25-.35h-4.4c-.1,0-.17.04-.22.12-.05.08-.04.16.02.22.76,1.32,1.55,2.41,2.37,3.26.23.23.43.23.59,0,.79-1.05,1.42-2.14,1.88-3.26ZM332.13,80.28v3.36c0,.26.15.4.44.4h4.55c.07,0,.1-.02.1-.05s-.02-.07-.05-.1l-1.53-.64c-.59-.23-.99-.67-1.19-1.31-.2-.64-.15-1.24.15-1.8.03-.07.02-.13-.02-.2-.05-.07-.12-.1-.22-.1h-1.78c-.3,0-.44.15-.44.44Z"/>
      <path class="cls-4" d="M341.13,143.69l1.28,1.78c.49.66.69,1.4.59,2.22-.1.82-.46,1.5-1.09,2.03-3.3,2.67-6.48,4-9.54,4-2.74,0-4.74-.88-6.01-2.64-1.27-1.76-1.9-4.83-1.9-9.22,0-1.75.25-3.64.74-5.68.49-2.18.74-4.07.74-5.68,0-2.31-.41-3.46-1.24-3.46-.23,0-.52.11-.87.35-.35.23-1.05.84-2.12,1.83-1.07.99-2.76,2.59-5.07,4.79-.23.23-.35.48-.35.74v18.14c0,.76-.28,1.42-.84,1.98-.56.56-1.22.84-1.98.84h-3.26c-.76,0-1.42-.28-1.98-.84-.56-.56-.84-1.22-.84-1.98v-9.49c0-.07-.03-.12-.1-.17-.07-.05-.13-.04-.2.02-.66.63-1.7,1.65-3.11,3.07-.56.53-1.24.79-2.03.79s-1.45-.26-1.98-.79l-1.98-1.98c-.53-.53-.79-1.17-.79-1.93s.26-1.42.79-1.98c2.64-2.64,5.67-5.63,9.09-9,.2-.2.3-.43.3-.69v-3.31c0-.26-.15-.4-.45-.4h-6.62c-.76,0-1.42-.28-1.98-.84-.56-.56-.84-1.22-.84-1.98v-2.27c0-.76.28-1.42.84-1.98s1.22-.84,1.98-.84h6.62c.3,0,.45-.15.45-.44v-3.16c0-.76.28-1.42.84-1.98.56-.56,1.22-.84,1.98-.84h3.26c.76,0,1.42.28,1.98.84.56.56.84,1.22.84,1.98v6.87c0,.07.04.11.12.15.08.03.16.03.22,0,2.57-2.21,4.5-3.57,5.78-4.1,1.28-.53,2.87-.79,4.74-.79,2.93,0,5.02.84,6.28,2.52,1.25,1.68,1.88,4.79,1.88,9.34,0,1.61-.25,3.51-.74,5.68-.49,2.04-.74,3.94-.74,5.68,0,2.31.41,3.46,1.24,3.46.46,0,1.22-.4,2.27-1.19.59-.46,1.26-.64,2-.54.74.1,1.33.46,1.75,1.09Z"/>
      <path class="cls-4" d="M340.68,187.88c-.07,0-.12.03-.17.1-.05.07-.04.13.02.2l1.58,2.13c.46.66.64,1.37.54,2.12-.1.76-.46,1.38-1.09,1.88-.17.13-.43.34-.79.62-.36.28-.63.49-.79.62-.17.17-.17.33,0,.49.4.36.99.87,1.78,1.53.59.49.95,1.11,1.06,1.85.12.74-.06,1.43-.52,2.05l-1.83,2.47c-.46.59-1.06.91-1.8.96-.74.05-1.36-.19-1.85-.72-1.32-1.42-2.49-2.92-3.51-4.5-.03-.07-.08-.1-.15-.1s-.1.03-.1.1c-.03,1.12-.1,2.04-.2,2.77-.1.73-.29,1.36-.57,1.9-.28.54-.59.95-.91,1.24-.33.28-.86.51-1.58.69-.73.18-1.47.29-2.22.32-.76.03-1.8.05-3.11.05-.69,0-1.33-.02-1.93-.05-.79-.03-1.47-.35-2.03-.94-.56-.59-.87-1.28-.94-2.08l-.15-1.83c0-.26-.12-.31-.35-.15-1.38,1.12-2.45,1.94-3.21,2.47-.63.43-1.3.56-2.03.4-.73-.17-1.29-.58-1.68-1.24l-1.09-1.83c-.4-.66-.49-1.37-.3-2.13.2-.76.63-1.35,1.28-1.78,1.42-.89,2.59-1.66,3.51-2.32.26-.2.31-.4.15-.59-.1-.13-.26-.35-.47-.64-.22-.3-.37-.51-.47-.64-.46-.63-.64-1.32-.52-2.08.11-.76.49-1.35,1.11-1.78l1.83-1.34c.07-.03.08-.08.05-.15-.03-.07-.08-.1-.15-.1h-.44c-.86,0-1.55-.3-2.08-.89-.03-.07-.09-.08-.17-.05s-.12.08-.12.15c-.13.86-.38,1.57-.74,2.12l-.89,1.28c-.33.49-.79.71-1.38.64-.59-.07-1.01-.38-1.24-.94-.03-.13-.12-.33-.25-.59-.13-.26-.21-.46-.25-.59-.07-.03-.12-.03-.15,0v14.83c0,.76-.28,1.42-.84,1.98-.56.56-1.22.84-1.98.84h-2.27c-.76,0-1.42-.28-1.98-.84s-.84-1.22-.84-1.98v-11.22c0-.07-.02-.1-.05-.1s-.07.02-.1.05c-.56,1.45-1.02,2.55-1.38,3.31-.26.49-.67.7-1.21.62s-.9-.39-1.06-.91l-1.24-3.81c-.56-1.68-.35-3.36.64-5.04,1.91-3.26,3.26-6.69,4.05-10.28.07-.3-.05-.44-.35-.44h-1.19c-.76,0-1.42-.28-1.98-.84-.56-.56-.84-1.22-.84-1.98v-1.78c0-.76.28-1.42.84-1.98s1.22-.84,1.98-.84h1.48c.26,0,.4-.15.4-.44v-4.15c0-.76.28-1.42.84-1.98s1.22-.84,1.98-.84h2.27c.76,0,1.42.28,1.98.84.56.56.84,1.22.84,1.98v4.15c0,.3.15.44.44.44h1.43c.76,0,1.42.28,1.98.84.56.56.84,1.22.84,1.98v1.78c0,.76-.28,1.42-.84,1.98-.56.56-1.22.84-1.98.84h-1.33c-.26,0-.33.13-.2.4,1.78,3.43,3.08,5.96,3.9,7.61.03.03.07.05.12.05s.07-.03.07-.1v-.44c0-.76.28-1.42.84-1.98.56-.56,1.22-.84,1.98-.84h7.17c.26,0,.4-.15.4-.44v-.59c0-.3-.13-.44-.4-.44h-5.93c-.76,0-1.42-.28-1.98-.84-.56-.56-.84-1.22-.84-1.98v-.05c0-.76.28-1.42.84-1.98s1.22-.84,1.98-.84h5.93c.26,0,.4-.15.4-.44v-.4c0-.26-.13-.4-.4-.4h-7.17c-.76,0-1.42-.28-1.98-.84-.56-.56-.84-1.22-.84-1.98v-1.04c0-.76.28-1.42.84-1.98.56-.56,1.22-.84,1.98-.84h1.48c.26,0,.33-.13.2-.4-.03-.1-.1-.24-.2-.42-.1-.18-.18-.32-.25-.42-.33-.63-.35-1.27-.07-1.93.28-.66.77-1.05,1.46-1.19l2.22-.49c.82-.16,1.61-.07,2.37.27.76.35,1.33.88,1.73,1.61.3.56.74,1.43,1.33,2.62.1.23.3.35.59.35h2.37c.3,0,.49-.11.59-.35.46-.86.89-1.71,1.28-2.57.36-.76.9-1.32,1.61-1.68.71-.36,1.46-.48,2.25-.35l2.37.49c.72.13,1.25.51,1.58,1.14.33.63.35,1.27.05,1.93-.07.13-.15.3-.25.49-.1.2-.18.36-.25.49-.13.26-.05.4.25.4h.3c.76,0,1.42.28,1.98.84.56.56.84,1.22.84,1.98v.79c0,.76-.28,1.42-.84,1.98-.56.56-1.22.84-1.98.84h-6.13c-.3,0-.44.13-.44.4v.64c0,.3.15.44.44.44h5.63c.76,0,1.42.28,1.98.84.56.56.84,1.22.84,1.98v.05c0,.76-.28,1.42-.84,1.98s-1.22.84-1.98.84h-5.63c-.3,0-.44.15-.44.44v.59c0,.3.15.44.44.44h6.62c.76,0,1.42.28,1.98.84.56.56.84,1.22.84,1.98v2.03c0,.63-.23,1.17-.69,1.63-.46.46-1.01.69-1.63.69ZM324.22,191.74v-3.41c0-.3-.13-.44-.4-.44h-4.3c-.26,0-.31.12-.15.35.79,1.06,1.37,1.85,1.73,2.37.03.07.13.07.3,0,.3-.26.63-.37,1.01-.32.38.05.68.24.91.57l.64.99s.08.04.15.03c.07-.02.1-.06.1-.12ZM324.22,198.02v-.54c0-.07-.03-.11-.1-.15-.07-.03-.13-.02-.2.05-.26.26-.66.63-1.19,1.09-.53.46-.87.77-1.04.94-.07.03-.08.09-.05.17.03.08.08.12.15.12.36.03.76.05,1.19.05.63,0,.99-.07,1.09-.22.1-.15.15-.65.15-1.51ZM338.51,188.18c.07-.07.08-.13.05-.2-.03-.07-.08-.1-.15-.1h-5.24l-.05.05s0,.05.02.05.02.02.02.05c.66,1.05,1.19,1.83,1.58,2.32.16.23.36.26.59.1,1.91-1.35,2.97-2.11,3.16-2.27Z"/>
      <path class="cls-4" d="M334.41,248.04l.35,3.01c.1.79-.08,1.5-.54,2.13-.46.63-1.09.99-1.88,1.09-1.52.2-3.06.3-4.65.3-6.06,0-10.92-1.56-14.56-4.67-3.64-3.11-5.46-7.32-5.46-12.63,0-2.47.66-4.94,1.98-7.41,1.32-2.47,3.11-4.58,5.39-6.33.03,0,.05-.03.05-.1,0-.03-.02-.05-.05-.05-4.71.13-9.41.23-14.09.3-.76,0-1.41-.28-1.95-.84-.54-.56-.82-1.22-.82-1.98v-2.77c0-.76.27-1.42.82-1.98s1.19-.84,1.95-.84c12.75-.07,24.65-.35,35.69-.84.76-.03,1.43.22,2,.74.58.53.88,1.17.91,1.93l.05,2.77c.03.79-.21,1.47-.74,2.05-.53.58-1.19.9-1.98.96-6.33.63-11.09,2.12-14.28,4.5-3.2,2.37-4.79,5.34-4.79,8.9,0,3,.95,5.36,2.87,7.07,1.91,1.71,4.42,2.57,7.51,2.57,1.02,0,2.04-.07,3.06-.2.79-.1,1.49.07,2.1.52s.96,1.05,1.06,1.8ZM333.12,230.09c.36.66.91,1.68,1.63,3.07.33.69.36,1.4.1,2.12-.26.73-.74,1.25-1.43,1.58-.73.33-1.45.36-2.17.1-.73-.26-1.27-.74-1.63-1.43-.17-.3-.69-1.27-1.58-2.92-.36-.66-.43-1.35-.2-2.08.23-.72.69-1.27,1.38-1.63h.05c.69-.36,1.42-.43,2.18-.2.76.23,1.32.69,1.68,1.38ZM341.03,228.32c1.09,2.08,1.65,3.15,1.68,3.21.36.69.42,1.4.17,2.13s-.72,1.25-1.41,1.58l-.15.1c-.69.33-1.41.37-2.15.12-.74-.25-1.29-.72-1.66-1.41-.16-.33-.43-.84-.79-1.53-.36-.69-.64-1.2-.84-1.53-.36-.66-.44-1.37-.22-2.12.21-.76.67-1.3,1.36-1.63l.15-.05c.69-.36,1.42-.44,2.17-.22.76.21,1.32.67,1.68,1.36Z"/>
      <path class="cls-4" d="M338.71,264.44c.76,0,1.42.28,1.98.84.56.56.84,1.22.84,1.98v1.78c0,.76-.28,1.42-.84,1.98s-1.22.84-1.98.84h-9.64c-.26,0-.4.15-.4.44v8.06c0,.16.07.41.2.74,1.02,2.11,1.53,4.3,1.53,6.57,0,4.84-1.37,8.53-4.1,11.05-2.74,2.52-7.28,4.18-13.64,4.97-.79.1-1.49-.09-2.1-.57-.61-.48-1-1.11-1.16-1.9l-.49-2.37c-.13-.73.03-1.39.49-2,.46-.61,1.07-.95,1.83-1.01,2.5-.26,4.41-.54,5.71-.84s2.22-.63,2.74-.99c.53-.36.94-.86,1.24-1.48.03-.03.05-.08.05-.15s.02-.12.05-.15v-.1h-.1c-1.68.66-3.38.99-5.09.99-3.23,0-5.85-.91-7.86-2.72-2.01-1.81-3.02-4.2-3.02-7.17s1.02-5.39,3.06-7.19c2.04-1.8,4.81-2.69,8.3-2.69,1.02,0,2.13.17,3.31.49h.1s.05-.02.05-.05v-1.48c0-.3-.15-.44-.44-.44h-18.49c-.76,0-1.42-.28-1.98-.84-.56-.56-.84-1.22-.84-1.98v-1.78c0-.76.28-1.42.84-1.98s1.22-.84,1.98-.84h18.49c.3,0,.44-.15.44-.44v-1.19c0-.76.28-1.42.84-1.98.56-.56,1.22-.84,1.98-.84h3.26c.76,0,1.42.28,1.98.84.56.56.84,1.22.84,1.98v1.19c0,.3.13.44.4.44h9.64ZM314.56,285.35c.64.56,1.47.84,2.5.84s1.85-.28,2.5-.84c.64-.56.96-1.27.96-2.13s-.32-1.56-.96-2.12c-.64-.56-1.48-.84-2.5-.84s-1.85.28-2.5.84c-.64.56-.96,1.27-.96,2.12s.32,1.57.96,2.13Z"/>
    </g>
    <g>
      <path d="M321.75,30.16c4.81,0,8.73,1.2,11.76,3.58,3.03,2.39,4.55,5.31,4.55,8.77,0,7.25-3.86,11.71-11.57,13.39-.76.16-1.48.02-2.15-.42-.68-.44-1.11-1.06-1.31-1.85l-.59-2.47c-.17-.72-.05-1.41.35-2.05.4-.64.96-1.06,1.68-1.26,1.61-.46,2.76-1.07,3.44-1.83.68-.76,1.01-1.76,1.01-3.02s-.67-2.27-2-3.14-3.06-1.31-5.16-1.31h-1.04c-.3,0-.44.15-.44.44v7.46c0,3.66-.66,6.14-1.98,7.44-1.32,1.3-3.79,1.95-7.41,1.95s-6.71-1.07-9.17-3.21c-2.45-2.14-3.68-4.86-3.68-8.16,0-2.87,1.13-5.46,3.39-7.78,2.26-2.32,5.44-4.06,9.56-5.22.26-.07.4-.25.4-.54v-4.35c0-.26-.15-.4-.44-.4h-7.61c-.76,0-1.42-.28-1.98-.84-.56-.56-.84-1.22-.84-1.98v-1.78c0-.76.28-1.42.84-1.98s1.22-.84,1.98-.84h7.61c.3,0,.44-.15.44-.44v-2.18c0-.76.28-1.42.84-1.98s1.22-.84,1.98-.84h3.26c.76,0,1.42.28,1.98.84.56.56.84,1.22.84,1.98v2.18c0,.3.15.44.44.44h6.13c.76,0,1.42.28,1.98.84.56.56.84,1.22.84,1.98v1.78c0,.76-.28,1.42-.84,1.98-.56.56-1.22.84-1.98.84h-6.13c-.3,0-.44.13-.44.4v3.16c0,.26.15.4.44.4h1.04ZM311.37,45.73v-5.39c0-.1-.05-.17-.15-.22-.1-.05-.2-.06-.3-.02-2.67,1.06-4,2.52-4,4.4,0,.79.31,1.53.94,2.2.63.68,1.3,1.01,2.03,1.01.63,0,1.03-.11,1.21-.35.18-.23.27-.77.27-1.63ZM342.61,26.5c.36.66.44,1.36.25,2.1s-.64,1.28-1.33,1.61l-1.48.79c-.69.36-1.41.43-2.15.2-.74-.23-1.31-.69-1.71-1.38-1.22-2.14-2.59-4.43-4.1-6.87-.4-.66-.51-1.37-.35-2.13.16-.76.58-1.33,1.24-1.73l1.38-.79c.66-.4,1.36-.51,2.1-.35s1.33.58,1.75,1.24c1.38,2.21,2.85,4.65,4.4,7.32Z"/>
      <path d="M340.44,64.26c.76,0,1.42.28,1.98.84.56.56.84,1.22.84,1.98v1.78c0,.76-.28,1.42-.84,1.98-.56.56-1.22.84-1.98.84h-8.21c-.23,0-.31.13-.25.4.1.3.15.61.15.94,0,.26.15.4.44.4h7.61c.76,0,1.42.28,1.98.84.56.56.84,1.22.84,1.98v.79c0,2.01-.35,3.81-1.04,5.39-.4.89-.64,1.42-.74,1.58-.13.23-.2.49-.2.79v2.62c0,2.04-.36,3.84-1.09,5.39-.99,2.14-2.08,3.94-3.26,5.39-.2.2-.17.36.1.49,1.05.4,2.45.82,4.2,1.28.76.2,1.33.62,1.71,1.26.38.64.45,1.33.22,2.05l-.54,1.83c-.26.76-.73,1.34-1.41,1.75-.68.41-1.41.54-2.2.37-3.49-.73-6.49-1.73-9-3.01-.23-.1-.46-.1-.69,0-2.27,1.12-5.03,2.09-8.25,2.92-.76.2-1.48.1-2.18-.3s-1.17-.97-1.43-1.73l-.25-.84c-.03-.07-.09-.11-.17-.12-.08-.02-.16,0-.22.07-.23.36-.61.91-1.14,1.63-.46.59-1.07.91-1.83.94-.76.03-1.4-.23-1.93-.79l-2.08-2.12c-.56-.56-.86-1.24-.89-2.05-.03-.81.16-1.56.59-2.25,1.09-1.78,1.83-3.81,2.22-6.1s.59-5.68.59-10.16v-7.07c0-.76.28-1.42.84-1.98s1.22-.84,1.98-.84h7.91c.26,0,.4-.13.4-.4,0-.33.05-.64.15-.94.07-.26-.02-.4-.25-.4h-12.06c-.3,0-.44.15-.44.44v12.65c0,5.17-.38,9.31-1.14,12.41-.76,3.1-2.04,5.96-3.86,8.6-.43.63-1.03.97-1.8,1.04-.77.07-1.43-.16-1.95-.69l-2.52-2.37c-.59-.53-.91-1.2-.96-2.03-.05-.82.16-1.55.62-2.17,1.05-1.45,1.81-2.93,2.27-4.45.03-.07,0-.12-.07-.15s-.16-.03-.22,0c-.1.03-.25.08-.44.15s-.35.13-.44.2c-.69.3-1.38.29-2.05-.02-.68-.31-1.11-.83-1.31-1.56l-.64-2.32c-.23-.73-.17-1.44.17-2.15.35-.71.88-1.19,1.61-1.46,1.42-.53,2.78-1.1,4.1-1.73.26-.13.4-.31.4-.54.07-1.71.1-3.16.1-4.35,0-.13-.08-.16-.25-.1-.4.26-.82.34-1.28.22-.46-.11-.82-.39-1.09-.82-1.38-2.34-2.39-4-3.02-4.99-.43-.63-.56-1.32-.4-2.08.16-.76.56-1.35,1.19-1.78l1.93-1.28c.46-.3.96-.39,1.51-.27.54.12.96.4,1.26.87.03.03.07.03.1,0,.03-.03.05-.07.05-.1v-3.76c0-.76.28-1.42.84-1.98.56-.56,1.22-.84,1.98-.84h13.1c.26,0,.4-.13.4-.4,0-.72.25-1.33.74-1.83s1.1-.74,1.83-.74h4c.72,0,1.33.25,1.83.74s.74,1.1.74,1.83c0,.26.13.4.4.4h12.11ZM322.3,98.96c.1-.03.16-.1.2-.2.03-.1.02-.18-.05-.25-.73-.82-1.48-1.88-2.27-3.16-.13-.13-.23-.11-.3.05-.23,1.42-.58,2.82-1.04,4.2-.03.07-.02.15.05.25.07.1.13.13.2.1,1.32-.33,2.39-.66,3.21-.99ZM324.67,90.36s.05-.07.05-.1-.03-.05-.1-.05h-3.95c-.26,0-.4.15-.4.44,0,.17,0,.39-.02.67-.02.28-.02.49-.02.62,0,.2.12.26.35.2l4.1-1.78ZM320.27,80.28v3.36c0,.26.15.4.44.4h2.13c.26,0,.4-.13.4-.4v-3.36c0-.3-.13-.44-.4-.44h-2.13c-.3,0-.44.15-.44.44ZM331.54,90.56c.13-.23.05-.35-.25-.35h-4.4c-.1,0-.17.04-.22.12-.05.08-.04.16.02.22.76,1.32,1.55,2.41,2.37,3.26.23.23.43.23.59,0,.79-1.05,1.42-2.14,1.88-3.26ZM332.13,80.28v3.36c0,.26.15.4.44.4h4.55c.07,0,.1-.02.1-.05s-.02-.07-.05-.1l-1.53-.64c-.59-.23-.99-.67-1.19-1.31-.2-.64-.15-1.24.15-1.8.03-.07.02-.13-.02-.2-.05-.07-.12-.1-.22-.1h-1.78c-.3,0-.44.15-.44.44Z"/>
      <path d="M341.13,143.69l1.28,1.78c.49.66.69,1.4.59,2.22-.1.82-.46,1.5-1.09,2.03-3.3,2.67-6.48,4-9.54,4-2.74,0-4.74-.88-6.01-2.64-1.27-1.76-1.9-4.83-1.9-9.22,0-1.75.25-3.64.74-5.68.49-2.18.74-4.07.74-5.68,0-2.31-.41-3.46-1.24-3.46-.23,0-.52.11-.87.35-.35.23-1.05.84-2.12,1.83-1.07.99-2.76,2.59-5.07,4.79-.23.23-.35.48-.35.74v18.14c0,.76-.28,1.42-.84,1.98-.56.56-1.22.84-1.98.84h-3.26c-.76,0-1.42-.28-1.98-.84-.56-.56-.84-1.22-.84-1.98v-9.49c0-.07-.03-.12-.1-.17-.07-.05-.13-.04-.2.02-.66.63-1.7,1.65-3.11,3.07-.56.53-1.24.79-2.03.79s-1.45-.26-1.98-.79l-1.98-1.98c-.53-.53-.79-1.17-.79-1.93s.26-1.42.79-1.98c2.64-2.64,5.67-5.63,9.09-9,.2-.2.3-.43.3-.69v-3.31c0-.26-.15-.4-.45-.4h-6.62c-.76,0-1.42-.28-1.98-.84-.56-.56-.84-1.22-.84-1.98v-2.27c0-.76.28-1.42.84-1.98s1.22-.84,1.98-.84h6.62c.3,0,.45-.15.45-.44v-3.16c0-.76.28-1.42.84-1.98.56-.56,1.22-.84,1.98-.84h3.26c.76,0,1.42.28,1.98.84.56.56.84,1.22.84,1.98v6.87c0,.07.04.11.12.15.08.03.16.03.22,0,2.57-2.21,4.5-3.57,5.78-4.1,1.28-.53,2.87-.79,4.74-.79,2.93,0,5.02.84,6.28,2.52,1.25,1.68,1.88,4.79,1.88,9.34,0,1.61-.25,3.51-.74,5.68-.49,2.04-.74,3.94-.74,5.68,0,2.31.41,3.46,1.24,3.46.46,0,1.22-.4,2.27-1.19.59-.46,1.26-.64,2-.54.74.1,1.33.46,1.75,1.09Z"/>
      <path d="M340.68,187.88c-.07,0-.12.03-.17.1-.05.07-.04.13.02.2l1.58,2.13c.46.66.64,1.37.54,2.12-.1.76-.46,1.38-1.09,1.88-.17.13-.43.34-.79.62-.36.28-.63.49-.79.62-.17.17-.17.33,0,.49.4.36.99.87,1.78,1.53.59.49.95,1.11,1.06,1.85.12.74-.06,1.43-.52,2.05l-1.83,2.47c-.46.59-1.06.91-1.8.96-.74.05-1.36-.19-1.85-.72-1.32-1.42-2.49-2.92-3.51-4.5-.03-.07-.08-.1-.15-.1s-.1.03-.1.1c-.03,1.12-.1,2.04-.2,2.77-.1.73-.29,1.36-.57,1.9-.28.54-.59.95-.91,1.24-.33.28-.86.51-1.58.69-.73.18-1.47.29-2.22.32-.76.03-1.8.05-3.11.05-.69,0-1.33-.02-1.93-.05-.79-.03-1.47-.35-2.03-.94-.56-.59-.87-1.28-.94-2.08l-.15-1.83c0-.26-.12-.31-.35-.15-1.38,1.12-2.45,1.94-3.21,2.47-.63.43-1.3.56-2.03.4-.73-.17-1.29-.58-1.68-1.24l-1.09-1.83c-.4-.66-.49-1.37-.3-2.13.2-.76.63-1.35,1.28-1.78,1.42-.89,2.59-1.66,3.51-2.32.26-.2.31-.4.15-.59-.1-.13-.26-.35-.47-.64-.22-.3-.37-.51-.47-.64-.46-.63-.64-1.32-.52-2.08.11-.76.49-1.35,1.11-1.78l1.83-1.34c.07-.03.08-.08.05-.15-.03-.07-.08-.1-.15-.1h-.44c-.86,0-1.55-.3-2.08-.89-.03-.07-.09-.08-.17-.05s-.12.08-.12.15c-.13.86-.38,1.57-.74,2.12l-.89,1.28c-.33.49-.79.71-1.38.64-.59-.07-1.01-.38-1.24-.94-.03-.13-.12-.33-.25-.59-.13-.26-.21-.46-.25-.59-.07-.03-.12-.03-.15,0v14.83c0,.76-.28,1.42-.84,1.98-.56.56-1.22.84-1.98.84h-2.27c-.76,0-1.42-.28-1.98-.84s-.84-1.22-.84-1.98v-11.22c0-.07-.02-.1-.05-.1s-.07.02-.1.05c-.56,1.45-1.02,2.55-1.38,3.31-.26.49-.67.7-1.21.62s-.9-.39-1.06-.91l-1.24-3.81c-.56-1.68-.35-3.36.64-5.04,1.91-3.26,3.26-6.69,4.05-10.28.07-.3-.05-.44-.35-.44h-1.19c-.76,0-1.42-.28-1.98-.84-.56-.56-.84-1.22-.84-1.98v-1.78c0-.76.28-1.42.84-1.98s1.22-.84,1.98-.84h1.48c.26,0,.4-.15.4-.44v-4.15c0-.76.28-1.42.84-1.98s1.22-.84,1.98-.84h2.27c.76,0,1.42.28,1.98.84.56.56.84,1.22.84,1.98v4.15c0,.3.15.44.44.44h1.43c.76,0,1.42.28,1.98.84.56.56.84,1.22.84,1.98v1.78c0,.76-.28,1.42-.84,1.98-.56.56-1.22.84-1.98.84h-1.33c-.26,0-.33.13-.2.4,1.78,3.43,3.08,5.96,3.9,7.61.03.03.07.05.12.05s.07-.03.07-.1v-.44c0-.76.28-1.42.84-1.98.56-.56,1.22-.84,1.98-.84h7.17c.26,0,.4-.15.4-.44v-.59c0-.3-.13-.44-.4-.44h-5.93c-.76,0-1.42-.28-1.98-.84-.56-.56-.84-1.22-.84-1.98v-.05c0-.76.28-1.42.84-1.98s1.22-.84,1.98-.84h5.93c.26,0,.4-.15.4-.44v-.4c0-.26-.13-.4-.4-.4h-7.17c-.76,0-1.42-.28-1.98-.84-.56-.56-.84-1.22-.84-1.98v-1.04c0-.76.28-1.42.84-1.98.56-.56,1.22-.84,1.98-.84h1.48c.26,0,.33-.13.2-.4-.03-.1-.1-.24-.2-.42-.1-.18-.18-.32-.25-.42-.33-.63-.35-1.27-.07-1.93.28-.66.77-1.05,1.46-1.19l2.22-.49c.82-.16,1.61-.07,2.37.27.76.35,1.33.88,1.73,1.61.3.56.74,1.43,1.33,2.62.1.23.3.35.59.35h2.37c.3,0,.49-.11.59-.35.46-.86.89-1.71,1.28-2.57.36-.76.9-1.32,1.61-1.68.71-.36,1.46-.48,2.25-.35l2.37.49c.72.13,1.25.51,1.58,1.14.33.63.35,1.27.05,1.93-.07.13-.15.3-.25.49-.1.2-.18.36-.25.49-.13.26-.05.4.25.4h.3c.76,0,1.42.28,1.98.84.56.56.84,1.22.84,1.98v.79c0,.76-.28,1.42-.84,1.98-.56.56-1.22.84-1.98.84h-6.13c-.3,0-.44.13-.44.4v.64c0,.3.15.44.44.44h5.63c.76,0,1.42.28,1.98.84.56.56.84,1.22.84,1.98v.05c0,.76-.28,1.42-.84,1.98s-1.22.84-1.98.84h-5.63c-.3,0-.44.15-.44.44v.59c0,.3.15.44.44.44h6.62c.76,0,1.42.28,1.98.84.56.56.84,1.22.84,1.98v2.03c0,.63-.23,1.17-.69,1.63-.46.46-1.01.69-1.63.69ZM324.22,191.74v-3.41c0-.3-.13-.44-.4-.44h-4.3c-.26,0-.31.12-.15.35.79,1.06,1.37,1.85,1.73,2.37.03.07.13.07.3,0,.3-.26.63-.37,1.01-.32.38.05.68.24.91.57l.64.99s.08.04.15.03c.07-.02.1-.06.1-.12ZM324.22,198.02v-.54c0-.07-.03-.11-.1-.15-.07-.03-.13-.02-.2.05-.26.26-.66.63-1.19,1.09-.53.46-.87.77-1.04.94-.07.03-.08.09-.05.17.03.08.08.12.15.12.36.03.76.05,1.19.05.63,0,.99-.07,1.09-.22.1-.15.15-.65.15-1.51ZM338.51,188.18c.07-.07.08-.13.05-.2-.03-.07-.08-.1-.15-.1h-5.24l-.05.05s0,.05.02.05.02.02.02.05c.66,1.05,1.19,1.83,1.58,2.32.16.23.36.26.59.1,1.91-1.35,2.97-2.11,3.16-2.27Z"/>
      <path d="M334.41,248.04l.35,3.01c.1.79-.08,1.5-.54,2.13-.46.63-1.09.99-1.88,1.09-1.52.2-3.06.3-4.65.3-6.06,0-10.92-1.56-14.56-4.67-3.64-3.11-5.46-7.32-5.46-12.63,0-2.47.66-4.94,1.98-7.41,1.32-2.47,3.11-4.58,5.39-6.33.03,0,.05-.03.05-.1,0-.03-.02-.05-.05-.05-4.71.13-9.41.23-14.09.3-.76,0-1.41-.28-1.95-.84-.54-.56-.82-1.22-.82-1.98v-2.77c0-.76.27-1.42.82-1.98s1.19-.84,1.95-.84c12.75-.07,24.65-.35,35.69-.84.76-.03,1.43.22,2,.74.58.53.88,1.17.91,1.93l.05,2.77c.03.79-.21,1.47-.74,2.05-.53.58-1.19.9-1.98.96-6.33.63-11.09,2.12-14.28,4.5-3.2,2.37-4.79,5.34-4.79,8.9,0,3,.95,5.36,2.87,7.07,1.91,1.71,4.42,2.57,7.51,2.57,1.02,0,2.04-.07,3.06-.2.79-.1,1.49.07,2.1.52s.96,1.05,1.06,1.8ZM333.12,230.09c.36.66.91,1.68,1.63,3.07.33.69.36,1.4.1,2.12-.26.73-.74,1.25-1.43,1.58-.73.33-1.45.36-2.17.1-.73-.26-1.27-.74-1.63-1.43-.17-.3-.69-1.27-1.58-2.92-.36-.66-.43-1.35-.2-2.08.23-.72.69-1.27,1.38-1.63h.05c.69-.36,1.42-.43,2.18-.2.76.23,1.32.69,1.68,1.38ZM341.03,228.32c1.09,2.08,1.65,3.15,1.68,3.21.36.69.42,1.4.17,2.13s-.72,1.25-1.41,1.58l-.15.1c-.69.33-1.41.37-2.15.12-.74-.25-1.29-.72-1.66-1.41-.16-.33-.43-.84-.79-1.53-.36-.69-.64-1.2-.84-1.53-.36-.66-.44-1.37-.22-2.12.21-.76.67-1.3,1.36-1.63l.15-.05c.69-.36,1.42-.44,2.17-.22.76.21,1.32.67,1.68,1.36Z"/>
      <path d="M338.71,264.44c.76,0,1.42.28,1.98.84.56.56.84,1.22.84,1.98v1.78c0,.76-.28,1.42-.84,1.98s-1.22.84-1.98.84h-9.64c-.26,0-.4.15-.4.44v8.06c0,.16.07.41.2.74,1.02,2.11,1.53,4.3,1.53,6.57,0,4.84-1.37,8.53-4.1,11.05-2.74,2.52-7.28,4.18-13.64,4.97-.79.1-1.49-.09-2.1-.57-.61-.48-1-1.11-1.16-1.9l-.49-2.37c-.13-.73.03-1.39.49-2,.46-.61,1.07-.95,1.83-1.01,2.5-.26,4.41-.54,5.71-.84s2.22-.63,2.74-.99c.53-.36.94-.86,1.24-1.48.03-.03.05-.08.05-.15s.02-.12.05-.15v-.1h-.1c-1.68.66-3.38.99-5.09.99-3.23,0-5.85-.91-7.86-2.72-2.01-1.81-3.02-4.2-3.02-7.17s1.02-5.39,3.06-7.19c2.04-1.8,4.81-2.69,8.3-2.69,1.02,0,2.13.17,3.31.49h.1s.05-.02.05-.05v-1.48c0-.3-.15-.44-.44-.44h-18.49c-.76,0-1.42-.28-1.98-.84-.56-.56-.84-1.22-.84-1.98v-1.78c0-.76.28-1.42.84-1.98s1.22-.84,1.98-.84h18.49c.3,0,.44-.15.44-.44v-1.19c0-.76.28-1.42.84-1.98.56-.56,1.22-.84,1.98-.84h3.26c.76,0,1.42.28,1.98.84.56.56.84,1.22.84,1.98v1.19c0,.3.13.44.4.44h9.64ZM314.56,285.35c.64.56,1.47.84,2.5.84s1.85-.28,2.5-.84c.64-.56.96-1.27.96-2.13s-.32-1.56-.96-2.12c-.64-.56-1.48-.84-2.5-.84s-1.85.28-2.5.84c-.64.56-.96,1.27-.96,2.12s.32,1.57.96,2.13Z"/>
    </g>
    <path class="cls-9" d="M88.48,236.39s-10.69-2.71-15.03-2.52"/>
    <path class="cls-9" d="M88.48,236.39s-4.09-6-7.31-7.75"/>
    <path class="cls-9" d="M67.04,295.09s-8.27,5.53-10.02,8.36"/>
    <path class="cls-9" d="M67.04,295.09s-9.37-.16-13.03,1.09"/>
    <path class="cls-9" d="M242.75,235.94s8.27-5.53,10.02-8.36"/>
    <path class="cls-9" d="M242.75,235.94s9.37.16,13.03-1.09"/>
    <path class="cls-9" d="M265.5,295.31s11.31-.62,15.17-2.05"/>
    <path class="cls-9" d="M265.5,295.31s7.17,4.3,11.11,4.96"/>
    <path class="cls-5" d="M268.22,288.91c.05-5.64-2.1-14.8-6.15-24.87-6.45-16.03-15.26-28.3-19.68-27.4-.01,0-.03,0-.04.01-.33-.16-.66-.31-1-.45-7.15-4.06-38.32-7.12-75.69-7.12s-71.03,3.31-76.42,7.62c-4.76,1.77-12.5,12.91-18.45,27.01-4.32,10.24-6.65,19.54-6.6,25.15,0,.04,0,.08,0,.12.04,3.08.81,5.02,2.37,5.36.21.04.43.05.66.04.31.23.64.45,1,.65,2.86,5.95,45.63,10.67,97.99,10.67s95.13-4.72,97.99-10.67c.19-.11.36-.22.53-.34.36.07.7.08,1.02.01,1.64-.33,2.44-2.43,2.48-5.74,0-.02,0-.04,0-.05Z"/>
    <path class="cls-1" d="M258.72,293.5c-2.5-1.37-41.95,1.88-93.7,1.88s-88.69-5.65-93.7-1.88c0,0-2.26,2,.13,3.67,5.54,3.11,43,7.18,94.75,7.18,51.75,0,86.42-3.91,92.52-7.41,3.51-1.89,0-3.44,0-3.44Z"/>
    <ellipse class="cls-9" cx="167.72" cy="246.67" rx="56.05" ry="20.43"/>
    <polygon class="cls-1" points="179.1 275.34 179.1 267.08 167.48 262.96 155.87 267.08 155.87 275.34 167.48 279.46 179.1 275.34"/>
    <path class="cls-9" d="M197.18,234.49c-13.26,0-24.64,5.7-29.46,13.81-4.82-8.11-16.19-13.81-29.46-13.81-17.63,0-31.92,10.07-31.92,22.49s14.29,22.49,31.92,22.49c13.26,0,24.64-5.7,29.46-13.81,4.82,8.11,16.19,13.81,29.46,13.81,17.63,0,31.92-10.07,31.92-22.49s-14.29-22.49-31.92-22.49Z"/>
    <path class="cls-5" d="M101.61,280.87s31.6-15.57,63.21.15"/>
    <path class="cls-5" d="M88.16,256.89s22.73-4.55,28.37,17.91"/>
    <path class="cls-5" d="M216.57,276.35s6.07-23.12,29.7-18.91"/>
    <path class="cls-5" d="M170.13,280.87s31.6-15.57,63.21.15"/>
    <line class="cls-6" x1="167.72" y1="248.3" x2="167.72" y2="265.65"/>
    <path class="cls-9" d="M233.34,254.62l-22.14-107.71h-88.49l-20.36,106.18s56.24-31.43,130.99,1.53Z"/>
    <polygon class="cls-9" points="142.26 158.27 121.44 158.27 130.18 173.41 143.69 174.59 133.45 181.82 164.81 219.05 142.26 158.27"/>
    <polygon class="cls-9" points="192.95 158.27 213.77 158.27 205.03 173.41 191.52 174.59 201.76 181.82 170.4 219.05 192.95 158.27"/>
    <polygon class="cls-9" points="142.36 158.27 167.72 158.27 192.96 158.25 187.46 173.07 167.72 159.34 147.7 172.66 142.36 158.27"/>
    <polygon class="cls-2" points="157.92 165.86 160.95 176.01 174.91 176.01 177.52 165.86 167.72 159.34 157.92 165.86"/>
    <polygon class="cls-2" points="160.95 176.01 153.34 188.14 167.57 226.23 181.34 189.65 174.91 176.01 160.95 176.01"/>
    <path class="cls-9" d="M190.25,162.59c5.33,1.95,10.98,4.52,16.72,7.68,4.04,2.22,6.94,4.36,10.47,6.8l-3.88-18.69,28.84-.11c.45,1.17,5.71,22.64,2.33,44.29-1.4,9-9.75,13.96-13.37,14.06-8.92,2.24-19.45-5.06-34.63-16.51-9.14-6.9-17.53-15-17.53-15l11.05-22.52Z"/>
    <path class="cls-9" d="M217.44,177.07s6.81,3.82,9.28,7.4"/>
    <path class="cls-9" d="M217.44,177.07s4.63-1.14,11.62,0"/>
    <path class="cls-9" d="M156.06,179.57c-6.04-1.31-40.07,2.39-40.07,2.39l4.54-23.7-29.15.02c-.26,1.22-4.82,27.24,2.73,47.66,2.55,6.88,12.57,7.48,12.57,7.48,27.28,1.65,52.84-8.04,52.84-8.04l-3.45-25.8Z"/>
    <path class="cls-9" d="M115.99,181.95s-6.91,2.32-9.45,5.85"/>
    <path class="cls-9" d="M115.99,181.95s-2.44-2.24-10.96-1.4"/>
    <rect class="cls-5" x="59.21" y="13.68" width="218.14" height="145.47"/>
    <ellipse class="cls-2" cx="167.94" cy="86.41" rx="44.17" ry="44.1"/>
    <path class="cls-10" d="M83.01,28.68c.21,2.66,3.77,8.81,5.29,14.52,1.82,6.8-2.78,12.75-6.21,12.75s-7.08-5.76-6.21-12.75c.42-3.34,2.54-6.29,3.11-9.01"/>
    <ellipse class="cls-7" cx="168.28" cy="198.98" rx="17.36" ry="11.17"/>
    <path class="cls-8" d="M192.07,147.11c0-1.05-.11-2.08-.31-3.07.06-.39.11-.78.11-1.17,0-7.28-10.86-13.18-24.26-13.18s-24.26,5.9-24.26,13.18c0,.4.05.79.11,1.17-.21.99-.31,2.02-.31,3.07v37.89c0,1.35.2,2.66.53,3.91-.08.43-.12.86-.12,1.3,0,7.28,10.86,13.18,24.26,13.18s24.26-5.9,24.26-13.18c0-.71-.13-1.4-.33-2.08.21-1.01.33-2.06.33-3.14v-37.89Z"/>
    <ellipse class="cls-3" cx="167.52" cy="143.1" rx="18.85" ry="8.15"/>
    <path d="M179.65,178.84c-.74.04-2.19-.85-4.41-2.7-.96-.78-3.19-2.89-6.67-6.41-2.33,2.37-3.93,3.96-6.78,5.71-3.19,1.96-6.71,2.93-10.56,3.04,0,0,7.67-4.37,8.71-5.04,2.48-2,5.08-4.22,6.85-6.82.44-.63.85-.93,1.26-.93.89,0,1.74.96,1.74,1.89,0,.33-.33.85-.33.85,2.85,2.7,9.63,6.22,13.63,7.96-.81,1.07-1.82,2.37-3.45,2.45ZM179.76,165.02c-1.04-.22-3.07-.44-4.52-.56-.11.85-.26,1.78-.63,3.3-.67.22-1.48.3-2.26.44-.96-.78-.67-2.82-.59-3.89-2.22-.11-5.41-.04-7.41.07.04,1.22.15,2.71-.41,3.56-.96.48-1.81.63-2.82-.07-.19-.63-.3-1.85-.37-3.11-2.33.19-4.3.78-6.45,1.56-.78,0-1.41-.67-1.41-1.59.04-1.15,1.11-1.59,2.96-1.89,1.41-.22,3.19-.41,4.74-.52l-.04-1.48c-.04-1.81.56-2.74,1.74-2.74.78,0,1.3.37,1.85.67-.07.85-.07,1.82.04,3.33,1.52-.04,4.08-.07,7.67-.04,0,0,.15-1.85.41-3.26.93-.48,2.37.22,3.04.67.11.41.11,1.26.04,2.63,1.48.11,3.59.04,5.15.89.19.59.67,1.26.11,1.82-.26.07-.59.3-.85.22ZM162.64,186.62c-2.07,1.22-5.11,1.82-7.85,1.78,0,0,4.41-2.67,5.78-3.59,1.11-.78,2.07-1.85,2.93-2.59,1.37.26,1.48,2.04,1.07,2.96-.67.52-1.37,1.04-1.93,1.45ZM174.09,181.1c-.7-.26-2.26-.44-4.37-.48-.26,2.63-.04,5.96-.04,8.85,0,.93-.26,1.56-.85,1.96-1.48-.04-2.41-.96-2.45-2.78l-.11-8.11c-1.48,0-3.48.22-4.45.63-1.11-.04-2.67-1.07-1.85-2.3,2.15-.37,4.15-.67,6.33-.67,0-1.41,0-3.48.3-4.85,1.19-.52,2.15,0,3.15.7,0,.93-.11,2.67-.07,4.04,1.56,0,3.78.11,5.26.56,1,.85.37,2.45-.85,2.45ZM175.61,187.59c-1.33,0-4.22-3.19-4.89-4.85,4.37.33,6.59,1.81,6.59,4.3-.74.37-1.3.56-1.7.56Z"/>
    <ellipse class="cls-7" cx="193.84" cy="172.99" rx="11.17" ry="17.36"/>
  </g>
</svg>