<?xml version="1.0" encoding="UTF-8"?>
<svg id="_レイヤー_1" data-name="レイヤー 1" xmlns="http://www.w3.org/2000/svg" viewBox="0 0 370 320">
  <defs>
    <style>
      .cls-1 {
        fill: red;
      }

      .cls-1, .cls-2, .cls-3, .cls-4, .cls-5, .cls-6, .cls-7, .cls-8, .cls-9, .cls-10, .cls-11 {
        stroke-linecap: round;
        stroke-linejoin: round;
      }

      .cls-1, .cls-3, .cls-4, .cls-5, .cls-6, .cls-7, .cls-8, .cls-9, .cls-10, .cls-11 {
        stroke: #000;
        stroke-width: 2px;
      }

      .cls-12, .cls-2, .cls-4 {
        fill: #fff;
      }

      .cls-2 {
        stroke: #fff;
        stroke-width: 5px;
      }

      .cls-3 {
        fill: #006238;
      }

      .cls-5 {
        fill: none;
      }

      .cls-6 {
        fill: #003d96;
      }

      .cls-7 {
        fill: #f4db8e;
      }

      .cls-8 {
        fill: #1b1464;
      }

      .cls-9 {
        opacity: .3;
      }

      .cls-10 {
        fill: #40210f;
      }

      .cls-11 {
        fill: #009fe8;
      }
    </style>
  </defs>
  <g id="_決められません_" data-name="決められません…">
    <g>
      <path class="cls-2" d="M312.28,29.82c-.74-.64-2.02-1.67-3.82-3.08-.44-.35-.7-.8-.78-1.37-.07-.57.07-1.08.45-1.52l1.04-1.19c.37-.47.85-.74,1.43-.82.58-.07,1.12.06,1.61.41,1.26.92,2.51,1.89,3.75,2.93.44.4.7.89.76,1.47.06.58-.09,1.11-.46,1.58l-1.11,1.37c-.35.45-.8.69-1.37.72s-1.06-.13-1.48-.5ZM316.14,33.08c.57.2,1,.57,1.28,1.11s.34,1.1.17,1.67c-.94,3.26-2.16,6.37-3.67,9.31-.25.52-.66.84-1.22.96-.57.12-1.09.04-1.56-.26l-1.82-1.11c-.5-.32-.82-.77-.96-1.34s-.09-1.11.19-1.63c1.21-2.4,2.32-5.07,3.34-8.01.2-.54.55-.94,1.06-1.19.51-.25,1.03-.27,1.58-.07l1.63.56ZM309.98,18.58c-.47-.35-.74-.8-.82-1.37-.07-.57.07-1.08.44-1.52l1.04-1.19c.4-.47.88-.75,1.45-.84.57-.09,1.1.04,1.6.39.87.62,1.86,1.37,2.97,2.26.47.37.74.85.8,1.43.06.58-.09,1.11-.46,1.58l-1.11,1.37c-.35.45-.8.69-1.37.74-.57.05-1.08-.11-1.52-.48-1.38-1.14-2.39-1.93-3-2.37ZM341.33,28.63c.42,0,.77.14,1.04.43.27.28.41.62.41,1.02v2c0,.57-.21,1.06-.63,1.48s-.92.63-1.48.63h-6.34c-.07,0-.13.03-.17.09-.04.06-.04.12-.02.17,1.26,2.18,3.71,4.24,7.35,6.19.49.27.83.69,1,1.24.17.56.12,1.08-.15,1.58l-1.15,2.04c-.27.52-.7.87-1.28,1.04-.58.17-1.12.11-1.61-.19-3.24-1.93-5.96-4.55-8.16-7.86-.02-.05-.07-.07-.15-.07s-.14.03-.18.07c-2.13,3.44-4.9,6.08-8.31,7.94-.52.27-1.06.32-1.63.15-.57-.17-1-.52-1.3-1.04l-1.26-2.11c-.27-.49-.31-1-.13-1.52.19-.52.53-.91,1.02-1.19,3.56-1.76,5.87-3.83,6.94-6.23.1-.2.04-.3-.19-.3h-5.45c-.57,0-1.06-.21-1.48-.63-.42-.42-.63-.91-.63-1.48v-1.33c0-.57.21-1.06.63-1.48s.91-.63,1.48-.63h6.27c.22,0,.33-.11.33-.33v-5.12c0-.2-.11-.3-.33-.3h-4.79c-.57,0-1.06-.21-1.48-.63s-.63-.91-.63-1.48v-1.52c0-.57.21-1.06.63-1.48s.91-.63,1.48-.63h4.79c.22,0,.33-.11.33-.33v-2c0-.57.21-1.06.63-1.48s.91-.63,1.48-.63h2.45c.57,0,1.06.21,1.48.63.42.42.63.91.63,1.48v2c0,.22.1.33.3.33h5.94c.57,0,1.06.21,1.48.63s.63.91.63,1.48v9.16c0,.15.07.22.22.22ZM334.98,28.3v-5.12c0-.2-.11-.3-.33-.3h-1.59c-.2,0-.3.1-.3.3v5.12c0,.22.1.33.3.33h1.59c.22,0,.33-.11.33-.33Z"/>
      <path class="cls-2" d="M334.35,56.72c2.32,1.16,4.12,2.77,5.4,4.82,1.27,2.05,1.91,4.39,1.91,7.01,0,7.64-3.39,12.33-10.16,14.06-.57.15-1.11.06-1.63-.28-.52-.33-.85-.78-1-1.35l-.56-2.04c-.15-.52-.07-1.02.22-1.5.3-.48.72-.81,1.26-.98,1.78-.57,3.09-1.48,3.93-2.75.84-1.26,1.26-2.98,1.26-5.16s-.9-3.92-2.71-5.23c-.15-.12-.27-.09-.37.11-2.2,5.96-4.74,10.47-7.61,13.52-2.87,3.05-5.74,4.58-8.61,4.58-2.2,0-3.99-.9-5.36-2.71-1.37-1.8-2.06-4.36-2.06-7.68,0-2.42.48-4.67,1.43-6.75.95-2.08,2.28-3.86,3.99-5.34.15-.15.2-.32.15-.52-.35-1.26-.68-2.56-1-3.9-.12-.57-.03-1.09.28-1.58s.75-.77,1.32-.87l2.15-.48c.57-.12,1.11-.02,1.61.3s.82.77.95,1.34c.05.2.13.53.24,1,.11.47.2.83.28,1.08.05.17.17.24.37.18,1.76-.52,3.65-.78,5.68-.78.42,0,1.03.03,1.82.07.25,0,.38-.09.41-.26.07-.32.19-.79.33-1.41.15-.62.25-1,.3-1.15.12-.57.43-1.01.93-1.33s1.03-.42,1.6-.3l2.23.45c.57.1,1,.4,1.3.91.3.51.38,1.04.26,1.61-.25,1.09-.48,2.04-.71,2.86-.05.22.01.37.19.45ZM314.58,71.15c0,2.6.62,3.9,1.86,3.9.59,0,1.27-.33,2.04-1,.17-.15.22-.32.15-.52-.96-2.65-1.79-5.04-2.49-7.2-.02-.05-.07-.08-.13-.09-.06-.01-.12,0-.17.06-.84,1.41-1.26,3.03-1.26,4.86ZM325.6,61.8c.1-.2.04-.3-.18-.3-1.36.05-2.55.21-3.56.48-.22.05-.31.19-.26.41.05.2.25.88.61,2.04.36,1.16.64,2.05.84,2.67.02.05.07.07.13.07s.11-.02.13-.07c.82-1.63,1.58-3.4,2.3-5.31Z"/>
      <path class="cls-2" d="M328.49,99.68c3.91,0,6.74.75,8.49,2.24s2.63,3.84,2.63,7.03-1.42,5.94-4.25,7.86-6.86,2.89-12.07,2.89c-2.45,0-4.91-.11-7.38-.33-.57-.05-1.04-.3-1.41-.76s-.53-.97-.48-1.54l.19-1.78c.05-.57.3-1.03.74-1.39.45-.36.95-.51,1.52-.46,2.65.22,4.92.33,6.83.33,2.6,0,4.64-.45,6.12-1.35,1.48-.9,2.23-2.06,2.23-3.47,0-2.23-1.42-3.34-4.27-3.34-2,0-4.85.96-8.53,2.89-1.24.67-2.55.87-3.93.59l-2.15-.48c-.57-.1-1.02-.39-1.35-.87-.33-.48-.45-1.01-.35-1.58.4-2.3.79-4.76,1.19-7.38.1-.59.38-1.07.84-1.43.46-.36.98-.51,1.58-.46l2.63.18c.57.05,1.04.3,1.41.76.37.46.52.97.45,1.54-.05.42-.13,1.01-.24,1.76s-.19,1.3-.24,1.65v.04h.07c3.51-2.1,6.76-3.15,9.76-3.15ZM318.55,89.14c5.09.52,9.93.82,14.5.89.57,0,1.06.21,1.48.63.42.42.63.91.63,1.48v1.71c0,.57-.21,1.06-.63,1.48s-.91.63-1.48.63c-5.39-.07-10.49-.37-15.28-.89-.57-.05-1.03-.3-1.39-.76-.36-.46-.5-.97-.43-1.54l.22-1.78c.07-.57.35-1.03.82-1.39.47-.36.99-.51,1.56-.46Z"/>
      <path class="cls-2" d="M340.99,148.15l.96,1.34c.37.49.52,1.05.45,1.67-.07.62-.35,1.13-.82,1.52-2.47,2-4.86,3-7.16,3-2.05,0-3.55-.66-4.51-1.98-.95-1.32-1.43-3.63-1.43-6.92,0-1.31.18-2.73.56-4.27.37-1.63.56-3.05.56-4.27,0-1.73-.31-2.6-.93-2.6-.17,0-.39.09-.65.26-.26.17-.79.63-1.59,1.37-.8.74-2.07,1.94-3.8,3.6-.17.17-.26.36-.26.56v13.61c0,.57-.21,1.06-.63,1.48-.42.42-.92.63-1.48.63h-2.45c-.57,0-1.06-.21-1.48-.63s-.63-.92-.63-1.48v-7.12s-.03-.09-.07-.13c-.05-.04-.1-.03-.15.02-.49.47-1.27,1.24-2.34,2.3-.42.4-.93.59-1.52.59s-1.09-.2-1.48-.59l-1.48-1.48c-.4-.4-.59-.88-.59-1.45s.2-1.06.59-1.48c1.98-1.98,4.25-4.23,6.83-6.75.15-.15.22-.32.22-.52v-2.49c0-.2-.11-.3-.33-.3h-4.97c-.57,0-1.06-.21-1.48-.63s-.63-.91-.63-1.48v-1.71c0-.57.21-1.06.63-1.48.42-.42.91-.63,1.48-.63h4.97c.22,0,.33-.11.33-.33v-2.37c0-.57.21-1.06.63-1.48s.91-.63,1.48-.63h2.45c.57,0,1.06.21,1.48.63.42.42.63.91.63,1.48v5.16s.03.09.09.11.12.02.17,0c1.93-1.66,3.38-2.68,4.34-3.08.96-.4,2.15-.59,3.56-.59,2.2,0,3.77.63,4.71,1.89.94,1.26,1.41,3.6,1.41,7.01,0,1.21-.19,2.63-.56,4.27-.37,1.53-.56,2.95-.56,4.27,0,1.73.31,2.6.93,2.6.35,0,.91-.3,1.71-.89.45-.35.95-.48,1.5-.41.56.07,1,.35,1.32.82Z"/>
      <path class="cls-2" d="M337.69,164.96c.57,0,1.06.21,1.48.63.42.42.63.91.63,1.48v1.71c0,.57-.21,1.06-.63,1.48s-.92.63-1.48.63h-6.45c-.22,0-.33.11-.33.33v.85c0,.2.11.3.33.3h4.97c.57,0,1.06.21,1.48.63.42.42.63.91.63,1.48v1.52c0,.57-.21,1.06-.63,1.48s-.91.63-1.48.63h-4.97c-.22,0-.33.11-.33.33v3.86c0,.22.1.4.3.52,2.05,1.29,4.15,2.89,6.31,4.82.42.4.65.88.69,1.47s-.14,1.08-.54,1.5l-1.26,1.34c-.4.42-.88.65-1.45.69-.57.04-1.06-.14-1.48-.54-.94-.87-1.89-1.68-2.86-2.45-.15-.15-.29-.11-.41.11-.59,1.58-1.65,2.73-3.15,3.43-1.51.71-3.56,1.06-6.16,1.06-2.8,0-4.98-.65-6.55-1.95-1.57-1.3-2.36-3.12-2.36-5.47s.77-4.05,2.3-5.32c1.53-1.27,3.73-1.91,6.6-1.91,1.09,0,2.1.09,3.04.26.2.05.3-.04.3-.26v-1.15c0-.22-.1-.33-.3-.33h-10.2c-.57,0-1.06-.21-1.48-.63-.42-.42-.63-.91-.63-1.48v-1.52c0-.57.21-1.06.63-1.48s.91-.63,1.48-.63h10.2c.2,0,.3-.1.3-.3v-.85c0-.22-.1-.33-.3-.33h-11.69c-.57,0-1.06-.21-1.48-.63-.42-.42-.63-.91-.63-1.48v-1.71c0-.57.21-1.06.63-1.48s.91-.63,1.48-.63h11.69c.2,0,.3-.11.3-.33v-.52c0-.57.21-1.06.63-1.48s.91-.63,1.48-.63h2.45c.57,0,1.06.21,1.48.63.42.42.63.91.63,1.48v.52c0,.22.11.33.33.33h6.45ZM320.89,188.33c1.26,0,2.11-.14,2.54-.41s.69-.87.76-1.78c0-.22-.07-.35-.22-.37-.89-.27-1.67-.41-2.34-.41-1.98,0-2.97.49-2.97,1.48s.74,1.48,2.23,1.48Z"/>
      <path class="cls-2" d="M339.1,204.58c.57-.02,1.06.17,1.48.57.42.41.64.9.67,1.47l.04,1.71c.02.59-.16,1.1-.56,1.52-.4.42-.89.64-1.48.67l-2.45.11c-.22,0-.33.11-.33.33v5.42c0,1.93-.43,3.34-1.28,4.23-.85.89-2.16,1.34-3.91,1.34-1.36,0-3.26-.22-5.71-.67-.57-.12-1.02-.43-1.35-.93-.33-.49-.45-1.03-.35-1.6l.37-1.97c.1-.57.38-1.02.85-1.35s.99-.46,1.56-.39c1.06.15,1.87.22,2.41.22.4,0,.65-.07.76-.22s.17-.51.17-1.08v-2.78c0-.22-.1-.33-.3-.33-.67.03-1.6.06-2.8.09-1.2.04-2.29.07-3.26.09-.98.02-1.91.04-2.8.04-.2,0-.3.11-.3.33v9.98c0,1.09.14,1.86.41,2.3.27.45.8.76,1.6.95.79.19,2.1.28,3.93.28,2.65,0,5.6-.17,8.87-.52.57-.05,1.08.11,1.52.46.44.36.69.82.74,1.39l.18,1.97c.05.59-.11,1.11-.48,1.56-.37.44-.85.69-1.45.74-3.46.35-6.59.52-9.38.52-3.46,0-6.07-.28-7.83-.85-1.76-.57-2.99-1.52-3.71-2.86-.72-1.33-1.08-3.31-1.08-5.94v-9.9c0-.22-.1-.33-.3-.33-.32,0-.81,0-1.47.02-.66.01-1.14.02-1.46.02-.57,0-1.06-.21-1.47-.63-.41-.42-.61-.91-.61-1.48v-1.71c0-.57.21-1.06.63-1.48.42-.42.91-.63,1.48-.63.32,0,.8,0,1.45-.02s1.13-.02,1.45-.02c.2,0,.3-.1.3-.3v-2.93c0-.57.21-1.06.63-1.48s.91-.63,1.48-.63h2.45c.57,0,1.06.21,1.48.63.42.42.63.92.63,1.48v2.86c0,.2.1.3.3.3.89,0,1.82-.01,2.8-.04.98-.02,2.06-.06,3.26-.09,1.2-.04,2.13-.07,2.8-.09.2,0,.3-.11.3-.33v-3.34c0-.57.21-1.06.63-1.48s.91-.63,1.48-.63h2.26c.57,0,1.06.21,1.48.63s.63.91.63,1.48v3.15c0,.2.11.3.33.3.27,0,.66-.01,1.15-.04s.88-.05,1.15-.07Z"/>
      <path class="cls-2" d="M339.62,255.06c.57.15,1,.48,1.3.98s.36,1.03.19,1.58c-1.14,3.93-2.38,6.62-3.73,8.07-1.35,1.45-3.07,2.17-5.17,2.17-2.32,0-4.1-.65-5.32-1.95-1.22-1.3-2.06-3.51-2.5-6.62-.17-1.31-.37-2.19-.59-2.63-.22-.45-.51-.67-.85-.67-.87,0-1.84.77-2.91,2.3-1.08,1.53-2.49,4.33-4.25,8.38-.25.54-.64.93-1.17,1.17-.53.24-1.07.25-1.61.06l-2.37-.82c-.54-.17-.93-.53-1.17-1.06-.24-.53-.25-1.07-.06-1.61,3.81-9.94,7.26-18.78,10.35-26.52.22-.54.61-.95,1.15-1.21.54-.26,1.1-.3,1.67-.13l2.41.67c.54.15.94.48,1.19,1,.25.52.27,1.04.07,1.56-2.5,6.38-3.78,9.66-3.86,9.83v.07h.11c1.19-.49,2.14-.74,2.86-.74,1.71,0,2.99.59,3.86,1.78s1.45,3.29,1.74,6.31c.15,1.51.33,2.52.56,3.02.22.51.52.76.89.76.79,0,1.66-1.61,2.6-4.82.17-.57.51-1,1.02-1.28.51-.28,1.03-.35,1.58-.2l2.04.56Z"/>
      <path class="cls-2" d="M329.11,277.3c0,1.85-1.48,3.34-3.34,3.34s-3.34-1.48-3.34-3.34,1.48-3.34,3.34-3.34,3.34,1.56,3.34,3.34ZM329.11,289.65c0,1.86-1.48,3.34-3.34,3.34s-3.34-1.48-3.34-3.34,1.48-3.34,3.34-3.34,3.34,1.56,3.34,3.34ZM329.11,302.01c0,1.86-1.48,3.34-3.34,3.34s-3.34-1.48-3.34-3.34,1.48-3.34,3.34-3.34,3.34,1.56,3.34,3.34Z"/>
    </g>
    <g>
      <path d="M312.28,30c-.74-.64-2.02-1.67-3.82-3.08-.44-.35-.7-.8-.78-1.37-.07-.57.07-1.08.45-1.52l1.04-1.19c.37-.47.85-.74,1.43-.82.58-.07,1.12.06,1.61.41,1.26.92,2.51,1.89,3.75,2.93.44.4.7.89.76,1.47.06.58-.09,1.11-.46,1.58l-1.11,1.37c-.35.45-.8.69-1.37.72s-1.06-.13-1.48-.5ZM316.14,33.27c.57.2,1,.57,1.28,1.11s.34,1.1.17,1.67c-.94,3.26-2.16,6.37-3.67,9.31-.25.52-.66.84-1.22.96-.57.12-1.09.04-1.56-.26l-1.82-1.11c-.5-.32-.82-.77-.96-1.34s-.09-1.11.19-1.63c1.21-2.4,2.32-5.07,3.34-8.01.2-.54.55-.94,1.06-1.19.51-.25,1.03-.27,1.58-.07l1.63.56ZM309.98,18.76c-.47-.35-.74-.8-.82-1.37-.07-.57.07-1.08.44-1.52l1.04-1.19c.4-.47.88-.75,1.45-.84.57-.09,1.1.04,1.6.39.87.62,1.86,1.37,2.97,2.26.47.37.74.85.8,1.43.06.58-.09,1.11-.46,1.58l-1.11,1.37c-.35.45-.8.69-1.37.74-.57.05-1.08-.11-1.52-.48-1.38-1.14-2.39-1.93-3-2.37ZM341.33,28.82c.42,0,.77.14,1.04.43.27.28.41.62.41,1.02v2c0,.57-.21,1.06-.63,1.48s-.92.63-1.48.63h-6.34c-.07,0-.13.03-.17.09-.04.06-.04.12-.02.17,1.26,2.18,3.71,4.24,7.35,6.19.49.27.83.69,1,1.24.17.56.12,1.08-.15,1.58l-1.15,2.04c-.27.52-.7.87-1.28,1.04-.58.17-1.12.11-1.61-.19-3.24-1.93-5.96-4.55-8.16-7.86-.02-.05-.07-.07-.15-.07s-.14.03-.18.07c-2.13,3.44-4.9,6.08-8.31,7.94-.52.27-1.06.32-1.63.15-.57-.17-1-.52-1.3-1.04l-1.26-2.11c-.27-.49-.31-1-.13-1.52.19-.52.53-.91,1.02-1.19,3.56-1.76,5.87-3.83,6.94-6.23.1-.2.04-.3-.19-.3h-5.45c-.57,0-1.06-.21-1.48-.63-.42-.42-.63-.91-.63-1.48v-1.33c0-.57.21-1.06.63-1.48s.91-.63,1.48-.63h6.27c.22,0,.33-.11.33-.33v-5.12c0-.2-.11-.3-.33-.3h-4.79c-.57,0-1.06-.21-1.48-.63s-.63-.91-.63-1.48v-1.52c0-.57.21-1.06.63-1.48s.91-.63,1.48-.63h4.79c.22,0,.33-.11.33-.33v-2c0-.57.21-1.06.63-1.48s.91-.63,1.48-.63h2.45c.57,0,1.06.21,1.48.63.42.42.63.91.63,1.48v2c0,.22.1.33.3.33h5.94c.57,0,1.06.21,1.48.63s.63.91.63,1.48v9.16c0,.15.07.22.22.22ZM334.98,28.48v-5.12c0-.2-.11-.3-.33-.3h-1.59c-.2,0-.3.1-.3.3v5.12c0,.22.1.33.3.33h1.59c.22,0,.33-.11.33-.33Z"/>
      <path d="M334.35,56.91c2.32,1.16,4.12,2.77,5.4,4.82,1.27,2.05,1.91,4.39,1.91,7.01,0,7.64-3.39,12.33-10.16,14.06-.57.15-1.11.06-1.63-.28-.52-.33-.85-.78-1-1.35l-.56-2.04c-.15-.52-.07-1.02.22-1.5.3-.48.72-.81,1.26-.98,1.78-.57,3.09-1.48,3.93-2.75.84-1.26,1.26-2.98,1.26-5.16s-.9-3.92-2.71-5.23c-.15-.12-.27-.09-.37.11-2.2,5.96-4.74,10.47-7.61,13.52s-5.74,4.58-8.61,4.58c-2.2,0-3.99-.9-5.36-2.71-1.37-1.8-2.06-4.36-2.06-7.68,0-2.42.48-4.67,1.43-6.75.95-2.08,2.28-3.86,3.99-5.34.15-.15.2-.32.15-.52-.35-1.26-.68-2.56-1-3.9-.12-.57-.03-1.09.28-1.58s.75-.77,1.32-.87l2.15-.48c.57-.12,1.11-.02,1.61.3s.82.77.95,1.34c.05.2.13.53.24,1,.11.47.2.83.28,1.08.05.17.17.24.37.18,1.76-.52,3.65-.78,5.68-.78.42,0,1.03.03,1.82.07.25,0,.38-.09.41-.26.07-.32.19-.79.33-1.41.15-.62.25-1,.3-1.15.12-.57.43-1.01.93-1.33s1.03-.42,1.6-.3l2.23.45c.57.1,1,.4,1.3.91.3.51.38,1.04.26,1.61-.25,1.09-.48,2.04-.71,2.86-.05.22.01.37.19.45ZM314.58,71.33c0,2.6.62,3.9,1.86,3.9.59,0,1.27-.33,2.04-1,.17-.15.22-.32.15-.52-.96-2.65-1.79-5.04-2.49-7.2-.02-.05-.07-.08-.13-.09-.06-.01-.12,0-.17.06-.84,1.41-1.26,3.03-1.26,4.86ZM325.6,61.99c.1-.2.04-.3-.18-.3-1.36.05-2.55.21-3.56.48-.22.05-.31.19-.26.41.05.2.25.88.61,2.04.36,1.16.64,2.05.84,2.67.02.05.07.07.13.07s.11-.02.13-.07c.82-1.63,1.58-3.4,2.3-5.31Z"/>
      <path d="M328.49,99.86c3.91,0,6.74.75,8.49,2.24s2.63,3.84,2.63,7.03-1.42,5.94-4.25,7.86-6.86,2.89-12.07,2.89c-2.45,0-4.91-.11-7.38-.33-.57-.05-1.04-.3-1.41-.76s-.53-.97-.48-1.54l.19-1.78c.05-.57.3-1.03.74-1.39.45-.36.95-.51,1.52-.46,2.65.22,4.92.33,6.83.33,2.6,0,4.64-.45,6.12-1.35,1.48-.9,2.23-2.06,2.23-3.47,0-2.23-1.42-3.34-4.27-3.34-2,0-4.85.96-8.53,2.89-1.24.67-2.55.87-3.93.59l-2.15-.48c-.57-.1-1.02-.39-1.35-.87-.33-.48-.45-1.01-.35-1.58.4-2.3.79-4.76,1.19-7.38.1-.59.38-1.07.84-1.43.46-.36.98-.51,1.58-.46l2.63.18c.57.05,1.04.3,1.41.76.37.46.52.97.45,1.54-.05.42-.13,1.01-.24,1.76s-.19,1.3-.24,1.65v.04h.07c3.51-2.1,6.76-3.15,9.76-3.15ZM318.55,89.33c5.09.52,9.93.82,14.5.89.57,0,1.06.21,1.48.63.42.42.63.91.63,1.48v1.71c0,.57-.21,1.06-.63,1.48s-.91.63-1.48.63c-5.39-.07-10.49-.37-15.28-.89-.57-.05-1.03-.3-1.39-.76-.36-.46-.5-.97-.43-1.54l.22-1.78c.07-.57.35-1.03.82-1.39.47-.36.99-.51,1.56-.46Z"/>
      <path d="M340.99,148.34l.96,1.34c.37.49.52,1.05.45,1.67-.07.62-.35,1.13-.82,1.52-2.47,2-4.86,3-7.16,3-2.05,0-3.55-.66-4.51-1.98-.95-1.32-1.43-3.63-1.43-6.92,0-1.31.18-2.73.56-4.27.37-1.63.56-3.05.56-4.27,0-1.73-.31-2.6-.93-2.6-.17,0-.39.09-.65.26-.26.17-.79.63-1.59,1.37-.8.74-2.07,1.94-3.8,3.6-.17.17-.26.36-.26.56v13.61c0,.57-.21,1.06-.63,1.48-.42.42-.92.63-1.48.63h-2.45c-.57,0-1.06-.21-1.48-.63s-.63-.92-.63-1.48v-7.12s-.03-.09-.07-.13c-.05-.04-.1-.03-.15.02-.49.47-1.27,1.24-2.34,2.3-.42.4-.93.59-1.52.59s-1.09-.2-1.48-.59l-1.48-1.48c-.4-.4-.59-.88-.59-1.45s.2-1.06.59-1.48c1.98-1.98,4.25-4.23,6.83-6.75.15-.15.22-.32.22-.52v-2.49c0-.2-.11-.3-.33-.3h-4.97c-.57,0-1.06-.21-1.48-.63s-.63-.91-.63-1.48v-1.71c0-.57.21-1.06.63-1.48.42-.42.91-.63,1.48-.63h4.97c.22,0,.33-.11.33-.33v-2.37c0-.57.21-1.06.63-1.48s.91-.63,1.48-.63h2.45c.57,0,1.06.21,1.48.63.42.42.63.91.63,1.48v5.16s.03.09.09.11.12.02.17,0c1.93-1.66,3.38-2.68,4.34-3.08.96-.4,2.15-.59,3.56-.59,2.2,0,3.77.63,4.71,1.89.94,1.26,1.41,3.6,1.41,7.01,0,1.21-.19,2.63-.56,4.27-.37,1.53-.56,2.95-.56,4.27,0,1.73.31,2.6.93,2.6.35,0,.91-.3,1.71-.89.45-.35.95-.48,1.5-.41.56.07,1,.35,1.32.82Z"/>
      <path d="M337.69,165.15c.57,0,1.06.21,1.48.63.42.42.63.91.63,1.48v1.71c0,.57-.21,1.06-.63,1.48s-.92.63-1.48.63h-6.45c-.22,0-.33.11-.33.33v.85c0,.2.11.3.33.3h4.97c.57,0,1.06.21,1.48.63.42.42.63.91.63,1.48v1.52c0,.57-.21,1.06-.63,1.48s-.91.63-1.48.63h-4.97c-.22,0-.33.11-.33.33v3.86c0,.22.1.4.3.52,2.05,1.29,4.15,2.89,6.31,4.82.42.4.65.88.69,1.47s-.14,1.08-.54,1.5l-1.26,1.34c-.4.42-.88.65-1.45.69-.57.04-1.06-.14-1.48-.54-.94-.87-1.89-1.68-2.86-2.45-.15-.15-.29-.11-.41.11-.59,1.58-1.65,2.73-3.15,3.43-1.51.71-3.56,1.06-6.16,1.06-2.8,0-4.98-.65-6.55-1.95-1.57-1.3-2.36-3.12-2.36-5.47s.77-4.05,2.3-5.32c1.53-1.27,3.73-1.91,6.6-1.91,1.09,0,2.1.09,3.04.26.2.05.3-.04.3-.26v-1.15c0-.22-.1-.33-.3-.33h-10.2c-.57,0-1.06-.21-1.48-.63-.42-.42-.63-.91-.63-1.48v-1.52c0-.57.21-1.06.63-1.48s.91-.63,1.48-.63h10.2c.2,0,.3-.1.3-.3v-.85c0-.22-.1-.33-.3-.33h-11.69c-.57,0-1.06-.21-1.48-.63-.42-.42-.63-.91-.63-1.48v-1.71c0-.57.21-1.06.63-1.48s.91-.63,1.48-.63h11.69c.2,0,.3-.11.3-.33v-.52c0-.57.21-1.06.63-1.48s.91-.63,1.48-.63h2.45c.57,0,1.06.21,1.48.63.42.42.63.91.63,1.48v.52c0,.22.11.33.33.33h6.45ZM320.89,188.52c1.26,0,2.11-.14,2.54-.41s.69-.87.76-1.78c0-.22-.07-.35-.22-.37-.89-.27-1.67-.41-2.34-.41-1.98,0-2.97.49-2.97,1.48s.74,1.48,2.23,1.48Z"/>
      <path d="M339.1,204.76c.57-.02,1.06.17,1.48.57.42.41.64.9.67,1.47l.04,1.71c.02.59-.16,1.1-.56,1.52-.4.42-.89.64-1.48.67l-2.45.11c-.22,0-.33.11-.33.33v5.42c0,1.93-.43,3.34-1.28,4.23-.85.89-2.16,1.34-3.91,1.34-1.36,0-3.26-.22-5.71-.67-.57-.12-1.02-.43-1.35-.93-.33-.49-.45-1.03-.35-1.6l.37-1.97c.1-.57.38-1.02.85-1.35s.99-.46,1.56-.39c1.06.15,1.87.22,2.41.22.4,0,.65-.07.76-.22s.17-.51.17-1.08v-2.78c0-.22-.1-.33-.3-.33-.67.03-1.6.06-2.8.09-1.2.04-2.29.07-3.26.09-.98.02-1.91.04-2.8.04-.2,0-.3.11-.3.33v9.98c0,1.09.14,1.86.41,2.3.27.45.8.76,1.6.95.79.19,2.1.28,3.93.28,2.65,0,5.6-.17,8.87-.52.57-.05,1.08.11,1.52.46.44.36.69.82.74,1.39l.18,1.97c.05.59-.11,1.11-.48,1.56-.37.44-.85.69-1.45.74-3.46.35-6.59.52-9.38.52-3.46,0-6.07-.28-7.83-.85-1.76-.57-2.99-1.52-3.71-2.86-.72-1.33-1.08-3.31-1.08-5.94v-9.9c0-.22-.1-.33-.3-.33-.32,0-.81,0-1.47.02-.66.01-1.14.02-1.46.02-.57,0-1.06-.21-1.47-.63-.41-.42-.61-.91-.61-1.48v-1.71c0-.57.21-1.06.63-1.48.42-.42.91-.63,1.48-.63.32,0,.8,0,1.45-.02s1.13-.02,1.45-.02c.2,0,.3-.1.3-.3v-2.93c0-.57.21-1.06.63-1.48s.91-.63,1.48-.63h2.45c.57,0,1.06.21,1.48.63.42.42.63.92.63,1.48v2.86c0,.2.1.3.3.3.89,0,1.82-.01,2.8-.04.98-.02,2.06-.06,3.26-.09,1.2-.04,2.13-.07,2.8-.09.2,0,.3-.11.3-.33v-3.34c0-.57.21-1.06.63-1.48s.91-.63,1.48-.63h2.26c.57,0,1.06.21,1.48.63s.63.91.63,1.48v3.15c0,.2.11.3.33.3.27,0,.66-.01,1.15-.04s.88-.05,1.15-.07Z"/>
      <path d="M339.62,255.24c.57.15,1,.48,1.3.98s.36,1.03.19,1.58c-1.14,3.93-2.38,6.62-3.73,8.07-1.35,1.45-3.07,2.17-5.17,2.17-2.32,0-4.1-.65-5.32-1.95-1.22-1.3-2.06-3.51-2.5-6.62-.17-1.31-.37-2.19-.59-2.63-.22-.45-.51-.67-.85-.67-.87,0-1.84.77-2.91,2.3-1.08,1.53-2.49,4.33-4.25,8.38-.25.54-.64.93-1.17,1.17-.53.24-1.07.25-1.61.06l-2.37-.82c-.54-.17-.93-.53-1.17-1.06-.24-.53-.25-1.07-.06-1.61,3.81-9.94,7.26-18.78,10.35-26.52.22-.54.61-.95,1.15-1.21.54-.26,1.1-.3,1.67-.13l2.41.67c.54.15.94.48,1.19,1,.25.52.27,1.04.07,1.56-2.5,6.38-3.78,9.66-3.86,9.83v.07h.11c1.19-.49,2.14-.74,2.86-.74,1.71,0,2.99.59,3.86,1.78s1.45,3.29,1.74,6.31c.15,1.51.33,2.52.56,3.02.22.51.52.76.89.76.79,0,1.66-1.61,2.6-4.82.17-.57.51-1,1.02-1.28.51-.28,1.03-.35,1.58-.2l2.04.56Z"/>
      <path d="M329.11,277.48c0,1.85-1.48,3.34-3.34,3.34s-3.34-1.48-3.34-3.34,1.48-3.34,3.34-3.34,3.34,1.56,3.34,3.34ZM329.11,289.84c0,1.86-1.48,3.34-3.34,3.34s-3.34-1.48-3.34-3.34,1.48-3.34,3.34-3.34,3.34,1.56,3.34,3.34ZM329.11,302.19c0,1.86-1.48,3.34-3.34,3.34s-3.34-1.48-3.34-3.34,1.48-3.34,3.34-3.34,3.34,1.56,3.34,3.34Z"/>
    </g>
    <ellipse class="cls-9" cx="163.84" cy="302.33" rx="70.2" ry="4.54"/>
    <polygon class="cls-3" points="55.36 157.35 42.4 157.35 35.92 170.35 42.4 183.36 55.36 183.36 61.83 170.35 55.36 157.35"/>
    <polygon class="cls-3" points="54.96 183.36 42.8 183.36 29.32 258.44 48.88 281.5 68.43 258.44 54.96 183.36"/>
    <polygon class="cls-6" points="278.26 182.88 266.4 182.88 260.48 194.78 266.4 206.68 278.26 206.68 284.19 194.78 278.26 182.88"/>
    <polygon class="cls-6" points="277.89 206.68 266.77 206.68 254.44 275.37 272.33 296.47 290.22 275.37 277.89 206.68"/>
    <circle class="cls-7" cx="58.32" cy="160.14" r="10.19"/>
    <path class="cls-8" d="M142.57,165.24c-26.02,17.33-73.96,6.54-73.96,6.54l-9-30.12c34.4,1.56,63.39-9.76,63.39-9.76l19.57,33.34Z"/>
    <circle class="cls-7" cx="265.2" cy="187.83" r="10.19"/>
    <path class="cls-8" d="M183.75,158.67c15.09,27.38,62.6,39.94,62.6,39.94l21.89-22.57c-31.23-14.49-51.73-37.91-51.73-37.91l-32.75,20.55Z"/>
    <path class="cls-8" d="M221.79,243.63c-.36,29.31-14.35,46.24-14.35,46.24h-83.65c-14.39-22.07-14.35-46.24-14.35-46.24h112.35Z"/>
    <polygon class="cls-8" points="233.07 245.12 98.16 245.12 121.69 125.3 206.92 125.3 233.07 245.12"/>
    <polygon class="cls-8" points="137.78 153.6 116.13 153.6 125.22 169.34 139.26 170.57 128.62 178.09 161.22 216.82 137.78 153.6"/>
    <polygon class="cls-8" points="190.46 153.6 212.1 153.6 203.02 169.34 188.98 170.57 199.62 178.09 167.02 216.82 190.46 153.6"/>
    <polygon class="cls-8" points="137.88 153.6 164.23 153.6 190.47 153.58 184.75 168.99 164.23 154.71 143.43 168.57 137.88 153.6"/>
    <polygon class="cls-1" points="154.05 161.49 157.2 172.05 171.71 172.05 174.42 161.49 164.23 154.71 154.05 161.49"/>
    <polygon class="cls-1" points="157.2 172.05 149.29 184.67 164.08 224.29 178.39 186.23 171.71 172.05 157.2 172.05"/>
    <line class="cls-5" x1="163.84" y1="289.45" x2="163.84" y2="259.1"/>
    <ellipse class="cls-10" cx="137.27" cy="293.16" rx="26.57" ry="12.37"/>
    <ellipse class="cls-10" cx="190.42" cy="293.16" rx="26.57" ry="12.37"/>
    <rect class="cls-4" x="59.04" y="12.98" width="210.39" height="140.4"/>
    <ellipse class="cls-1" cx="164.23" cy="85.2" rx="42.6" ry="42.56"/>
    <path class="cls-11" d="M81.99,27.46c.21,2.57,3.64,8.5,5.11,14.01,1.75,6.56-2.68,12.3-5.99,12.3s-6.83-5.56-5.99-12.3c.4-3.23,2.45-6.07,2.99-8.7"/>
    <g>
      <path class="cls-12" d="M54.65,200.28c-.1,1.37,0,4.81-.38,5.88-.19.16-.42.25-.68.25-.35,0-.59-.51-.59-.51-1.14,0-2.07.07-2.94.28-.19-.09-.42-.31-.42-.31-.16.28-.39.42-.65.42-.42,0-.86-.42-.81-.93-1.84,1.35-4.59,2.38-6.16,2.52-.33-.28-.49-.75-.49-1.45.54-.14,1.51-.19,2.29-.42.02-1.35-.02-2.21-.02-2.94-.19.03-.68.19-1.45.49-.37-.17-.7-.58-.47-.98.26-.23,1.24-.45,1.91-.59.05-.72-.07-1.75.02-2.22-1.05,0-1.75.54-2.21.47-.33-.05-.51-.3-.51-.7,0-.26.12-.44.35-.56.84-.35,5.34-.3,6.01-.07.31.1.47.31.49.63,0,.14-.1.4-.23.56-.84-.45-1.84-.4-2.75-.42.23.21.33.54.33,1.01,0,.39-.05.79-.05,1.17.4-.02.96.12,1.23.21.42.12.63.37.61.73-.09.17-.26.25-.49.25-.3,0-.84-.21-1.37-.19-.03.81.05,2.1.03,2.82.77-.12,1.87-.47,2.91-.84-.02-2.22-.02-4.24.03-5.18.04-.58.19-1,.33-1.31.4-.09.88-.03,1.16.3.07-.16.23-.26.38-.37,1.4-.4,3.57-.49,4.76.42-.07.49-.14,1.03-.17,1.59ZM51.05,207.37c0,1.3-3.47,5.58-5.29,5.48,0,0,.32-.37.6-.63,1.1-1.03,2.85-3.82,3.43-5.72.52-.09,1.26.28,1.26.87ZM49.77,199.02c-.4,1.84-.4,4.17-.24,6.06,1.52-.17,2.77-.17,3.64-.1.07-2.26.1-4.2.09-5.85-.93-.17-3.03.1-3.48-.1ZM50.54,203.6c-.19-.03-.3-.3-.3-.81.12-.21.44-.31.93-.31.68,0,1.03.17,1.03.54,0,.14-.07.3-.23.45-.6-.02-1.1-.09-1.44.12ZM50.54,201.49c-.23-.33-.28-.79.16-.98.35-.16.93-.14,1.26.05.38.21.42.53.26.89-.38-.12-.95-.12-1.68.03ZM53.99,211.99c-1.1,0-2.01-.56-2.26-1.58-.3-1.17,0-2.94.1-4.03.47-.03.91.16,1.37.54-.21,1.03-.31,2.22-.31,3.59.37.28,1.35.24,1.7-.03.28-.65.47-1.7.47-1.7,0,0,.26.54.35,1.38,0,0,.44.45.4,1.23-.56.4-1.16.6-1.82.6Z"/>
      <path class="cls-12" d="M45.78,217.4c-.24,2.05-.31,7.86-.31,10.68,0,.93-.23,1.52-.61,1.79-.67-.3-.75-1.07-.74-1.68.03-1.63.09-4.87.09-4.87-.65,1.19-1.47,2.36-2.24,2.98-.37-.32-.61-.89-.58-1.45.53-.59,2.21-1.7,2.84-2.52.05-2.5.12-5.67.33-6.74.32-.24,1.26.17,1.35.51.11.35-.09.96-.12,1.31ZM42.52,219.45c-.23-.7-.73-1.61-.73-1.61,1-.28,2.63,1.52,1.8,2.54-.66-.09-.89-.37-1.07-.93ZM54.21,229.81c-2.29-1.4-3.5-7.74-3.5-7.74-.44,2.94-1.65,5.15-3.54,6.71-.37.31-1.24.68-1.24.68,1.84-2.24,3.22-5.74,3.57-9-.88.05-2.08.28-2.8.54-.51-.14-.72-.47-.63-1,.86-.28,2.31-.47,3.52-.54.07-1.47.1-2.78.02-3.69.14-.16.3-.24.52-.24.33,0,.7.16,1.09.47.03.65.03,2.05-.07,3.4,1.21-.04,2.07,0,3.1.14.44.05,1.05.31,1.05.73,0,.39-.88.3-1.09.28-1.02-.11-2.05-.21-3.08-.16.53,3.5,3.15,7.23,4.6,8.47,0,0-1,.37-1.52.95ZM53.62,218.63c-.61,0-.73-.91-.93-1.35-.16-.35-.42-.88-.42-.88.95,0,1.77.49,2.03,1.49-.12.49-.35.74-.68.74Z"/>
      <path class="cls-12" d="M45.69,241.79c-.14-.19-.16-.47-.07-.7-.88.05-1.91.23-2.75.44-.3.07-.7.38-1,.37-.44-.02-.75-.54-.7-1.17.67-.61,1.37-1.77,2.19-2.59-.16-.16-.4-.53-.68-.54-.21-.02-.6.21-.75.19-.46-.05-1.03-.91-.75-1.38l.23-.09c.72-.95,1.47-1.77,2.28-2.61.28-.28.54-.58.75-.89.68.24,1,.58.95,1-.02.24-.28.58-.77.98-.68.58-1.16,1.09-1.73,1.77.47.21.89.47,1.23.81.63-.65,1.23-1.17,1.8-1.58.4.09.77.45.77.8,0,.51-.79.79-1.16,1.09-.4.33-1.59,1.52-2.59,2.8.66-.14,1.72-.21,2.61-.23-.05-.26-.24-.65-.33-1.19.38-.28.86-.1,1.28.05.19.58.47,2.42.17,2.84-.3.21-.74.14-.96-.16ZM41.12,246.31c.46-1.51.67-2.68.61-3.5.14-.42,1.05-.17,1.28.03.12,1.28-.4,2.63-1.89,3.47ZM44.95,245.89c.02.44.19,1.68-.42,1.79-.42.07-.75-.14-.86-.63-.03-.18-.03-.67-.07-1.49,0-.16-.16-3.26.16-3.69.65.02,1.05.16,1.24.42-.07,1.19-.09,2.4-.05,3.61ZM45.95,245.03c-.23-.28-.4-1.05-.52-2.33.75.03,1.51.95,1.42,1.72-.07.56-.4.72-.89.61ZM49.98,246.92c-.42.54-1.19.53-1.61-.05-.05-1.66-.1-4.64-.14-8.89-.39.44-.91.82-1.42,1.09,1.23-2.26,2.57-5.44,2.73-6.63.58-.12,1.19.14,1.52.61-.44,1.28-.91,2.4-1.42,3.36.65.05,1.52.02,2.64-.09.47-.89.58-1.93,1-2.84.45-.12,1.16.07,1.52.47-.33,1.07-2.05,2.36-2.05,2.36.73-.07,2.45-.17,3.03.05.35.14.46.44.21.72-.16.17-.35.31-.61.26-.61-.14-1.24-.12-1.86-.1v2.29s.88-.03,1.28.09c.49.14.44.75.14,1.05-.4-.09-.89-.1-1.42-.09l.02,1.89s.77.02,1.05.19c.33.21.39.75.05.87-.3.11-.75,0-1.12,0,0,0,.02,1.47.02,2.15,1.26.03,2.1.05,2.56.23.35.14.37.73.07.94-1.51-.28-4.69-.38-6.2.05ZM50.99,242.6c.28-.02.7-.07,1.17-.09l-.02-1.84s-.93.12-1.24-.09c-.33-.23-.28-.53-.23-.86.51-.09.95-.12,1.47-.14,0,0,.02-1.47,0-2.28-.67.07-1.17.17-1.77.17-.23,0-.44-.03-.59-.12-.23,3.13-.19,5.76-.03,8.65.75-.19,1.87-.28,2.43-.3.03-.75,0-2.14,0-2.14-.33.02-.74.09-1.03.16-.35-.12-.45-.37-.56-.7.03-.19.21-.42.4-.44Z"/>
      <path class="cls-12" d="M46.93,257.31c-.35.56-1,1.14-1.56,1.52-.03,1.37-.05,2.78-.17,3.9-.14,1.19-.39,2.1-1.79,2.1-.16-1.28-1.16-1.63-1.16-1.63l1.49.07c.1-.93.12-2.78.1-3.71-.65.38-1.73.95-2.26.95-.58,0-.47-1.19-.42-1.52.6-.18,1.52-.44,2.7-.84-.02-.81,0-2.59,0-3.48-.89.07-1.4.23-2.01.42-.35-.05-.6-.52-.65-.98.61-.31,1.47-.47,2.66-.54.02-1.12.03-2.59.09-3.34.49-.4,1.16,0,1.47.38,0,0-.02,1.82,0,2.94,0,0,.96.02,1.24.24.33.24.19.74,0,.95,0,0-.68-.12-1.26-.12l-.02,3.1,1.54-.4ZM55.23,256.56c-2.85-.28-4.97-.12-8.12.3-.37-.19-.44-.7-.25-1.05.79-.16,2.57-.33,3.85-.39l.02-2.5c-.61.02-1.42.16-1.87.28-.38.11-.7-.24-.67-.65.04-.31.37-.54,1-.58l1.56-.1c0-.4.03-.86.03-1.26,0-.56.16-.84.44-.84.6,0,1.16.47,1.16,1.03v1c.56,0,1.44,0,2.03.14.23.25.33.7.1.98-.59-.03-1.45-.09-2.15-.07-.02.91-.09,2.5-.09,2.5,1.54-.02,2.64.05,3.69.17.33.23.49.53.44.93-.26.12-.74.14-1.17.1ZM54.25,259.09c0,1.4-.05,3.43-.21,4.57-.12.91-.86,1.75-1.87,1.45-.33-.95-1.49-1.49-1.49-1.49,0,0,1.09.09,1.84-.02.1-.77.16-3.66.12-4.57-1.52-.02-3.48.17-4.31.33-.37.07-.74-.05-.82-.42.09-.47.26-.61.88-.7,1.1-.16,2.85-.31,4.24-.28,0-.32.05-.93.12-1.24.66-.02,1.1.12,1.31.4.19.26.23.89.23.89,0,0,.79.09,1,.17.3.12.59.4.42,1.02,0,0-.93-.12-1.45-.12ZM50.75,262.21c-.42.02-.75-.26-.96-.73-.21-.46-.47-1.4-.47-1.4.61-.11,1.19.23,1.47.73.26.47.21.93-.03,1.4Z"/>
    </g>
    <g>
      <path class="cls-12" d="M272.41,244.67c-.21.37-.5.53-.86.53-.23,0-.4-.11-.55-.31-.42.09-1.39.15-1.72.13-.02.48.02,1.12.04,1.5.44-.02,1.41,0,1.97,0,.74,0,1.11.22,1.11.62,0,.11-.11.29-.34.51-.8-.13-2.1-.07-2.71-.06,0,.7.1,1.74-.04,2.22-.46.26-1.18.31-1.47-.2-.04-.86-.06-1.94-.06-1.94-.86,0-1.91.13-3.42.35-.31-.13-.44-.5-.42-.94.88-.42,2.67-.48,3.82-.51.02-.42,0-1.03,0-1.45-.44-.04-1.45-.02-1.95.02-.17.39-.4.57-.69.57s-.55-.17-.78-.53c-.38-1.47-.44-4.66-.08-6.24.36-.02.9.02,1.24.16.34-.57,1.72-.55,2.2-.61,0-.4-.04-1.03-.04-1.45-.61.06-2.33.24-3.15.59-.67-.16-.82-.97-.31-1.43.78-.13,2.46-.27,3.42-.31.04-.75-.06-1.63.29-2.26.52.02,1.01.2,1.47.5-.02.51-.06,1.34-.06,1.65.59,0,1.66.09,2.1.15.8.09,1.2.2,1.2.64,0,.26-.13.44-.23.53-.63-.13-1.74-.17-3.07-.15-.06.39-.04,1.1-.06,1.47.8,0,1.99.15,2.83.4.23.09.76.68.76.9.02.55-.44,4.93-.44,4.93ZM266.95,242.6c-.27-.15-.42-.37-.42-.61,0-.44.15-.6.63-.72.08-.02.48-.07.59-.06,0-.5.02-.99-.02-1.58-.4.02-.92.07-1.26.28-.27-.07-.63-.24-.63-.24-.19,1.06-.23,3.08-.06,4.4.73-.05,1.47-.05,1.99-.04.04-.42.02-1.14.02-1.58-.17-.06-.59.07-.84.13ZM269.24,239.62c-.02.42-.02,1.14-.02,1.5.19-.02.48.02.9.09.23.44.34.73-.02,1.16-.31-.04-.59-.04-.88.02,0,.37-.02,1.16,0,1.63.46-.04,1.09-.02,1.7.02.08-.95.21-2.44.36-4.38-.59-.06-1.64-.06-2.04-.04ZM277.39,241.97l.02.5c-.32,1.12-1.09,3.3-1.41,4.37.84-.2,2.06-.37,2.98-.42-.08-.61-.17-1.16-.31-1.71.61-.28,1.22.11,1.66.48.25.92.52,2.7.52,3.63-.1.18-.42.39-.78.57-.4-.11-.65-.35-.76-.75-.04-.13-.08-.53-.13-1.16-1.55.17-3.23.61-5.06,1.27-.4-.37-.57-.92-.36-1.41.06-.06.21-.15.44-.22.61-1.34,1.28-3.74,1.68-5.1-.69.04-1.66.26-2.31.4-.48-.37-.48-1.03.02-1.38,1.89-.2,5.31-.51,7.62.06.17.39.36.72.02,1.06-1.15-.2-2.86-.2-3.86-.18ZM279.53,237.92c-1.05-.37-3.72-.37-4.62-.04-.36.13-.69.18-.97.17-.34-.2-.52-.62-.55-1.21.55-.44,1.11-.4,1.58-.28,1.45-.13,3.68-.02,5.38.2.36.29.52.83.42,1.27-.34.18-.92,0-1.24-.11Z"/>
      <path class="cls-12" d="M280.66,268.04c-.94-.15-2.08-2.53-2.37-3.23-1.01,1.17-2.33,2.57-4.26,3.08,1.26-1.43,2.77-3.34,3.65-4.44-.38-1.05-.8-2.51-.94-3.78-1.37,0-4.89.17-6.51.44-.36,0-.71-.09-.94-.26-.04,2.09-.06,5.96-.1,7.98-.29.22-.82.28-1.47-.2.08-2.55.13-4.22.13-5.01-.97.51-2.67,1.54-3.84,1.91-.69-.46-.9-1.01-.78-1.72l1.22-.27c-.1-2.48.15-6.09.4-7.45.52.02.97.17,1.3.44-.15,1.63-.34,4.49-.27,6.75l1.97-.5c.02-1.61.08-4.02.21-7.23-1.01-.02-3.07.04-3.99.24-.46-.22-.55-.64-.23-1.1,1.18-.09,3.93-.28,5.86-.09.74.07,1.11.39,1.13.99-.38-.04-1.03-.04-1.36-.04-.04,1.05-.1,3.23-.17,4.57,1.09-.13,2.75-.24,3.78-.26.34-.5.78-1.87.34-2.4.1-.11.38-.31.57-.39.44.22,1.05.48,1.13.79.15.53-.55,1.39-.86,1.93.88-.04,2.39-.07,2.39-.07-.13-1.17-.31-5.23-.02-6.29.46-.13.95.07,1.39.2-.13,1.74-.06,3.98.06,6.04.67-.04,1.83,0,2.67.02.25.22.34.53.27.93-.76.02-2.18-.02-2.9.04.08.68.23,1.72.5,2.51.34-.4.74-1.19.99-1.67.48.02.94.53.94.95,0,.9-.69,1.49-1.32,2.26.27.55.61,1.41,1.07,1.91.5-.06,1.18-.94,1.18-.94.08.94.08,2.4-.8,3.36ZM266.53,260.16c-.1-.15-.31-.4-.29-.53.04-.26.21-.39.5-.39.4,0,.76.29.69.73-.19.13-.5.18-.9.18ZM266.53,257.75c-.1-.13-.13-.4-.06-.79.4-.35,1.26.09,1.26.53,0,.26-.4.35-1.2.26ZM270.48,256.08c-.36-.24-.69-.44-.57-.84.65-.31,1.66-.31,2.41-.35.08-.51.1-1.71.23-2.26.73-.06,1.41.24,1.47.73.06.48-.04,1.14-.13,1.58.44.02.88.04,1.32.07.82.07.65.48.55.92-1.64-.17-3.59-.35-5.29.15ZM275.22,265.68c-.4.7-1.26.29-1.26.29-.5.18-1.53.24-2.08.15l-.84.73c-.34-.17-.69-.51-.8-1.12-.23-1.25-.29-2.39-.27-3.74,0-.64.27-.97.67-.97.15,0,.44.18.44.18l.46-.26c.63-.09,1.41-.11,2.12-.11,1.09,0,1.85.4,1.87.9.04.97-.06,2.66-.31,3.94ZM272.52,257.22c-.04.31-.53,1.08-.63,1.23-.63-.11-.94-.6-.94-1.5,0-.26.04-.48.1-.66.67.02,1.07.39,1.18,1.08l.29-.15ZM271.53,261.81c-.19.81-.15,2.53.06,3.47.59.11,1.62.04,2.27-.04.15-.84.23-2.59.13-3.52-.88-.17-1.93,0-2.46.09ZM272.52,263.99c-.63,0-.74-.33-.63-.77.15-.07.57-.11,1.24-.11.13.13.19.26.19.39,0,.33-.27.5-.8.5ZM280.29,257.2l-.73.17c-.71-.37-.63-1.74-.57-2.42.9.35,1.37.95,1.37,1.78,0,.16-.02.31-.06.48Z"/>
    </g>
  </g>
</svg>