<?xml version="1.0" encoding="UTF-8"?>
<svg id="_レイヤー_1" data-name="レイヤー 1" xmlns="http://www.w3.org/2000/svg" viewBox="0 0 370 319">
  <defs>
    <style>
      .cls-1 {
        opacity: .2;
      }

      .cls-1, .cls-2, .cls-3, .cls-4, .cls-5, .cls-6, .cls-7, .cls-8, .cls-9, .cls-10, .cls-11, .cls-12, .cls-13 {
        stroke-linecap: round;
        stroke-linejoin: round;
      }

      .cls-1, .cls-2, .cls-3, .cls-14, .cls-5, .cls-6, .cls-15, .cls-7, .cls-8, .cls-9, .cls-10, .cls-11, .cls-12, .cls-13 {
        stroke: #000;
        stroke-width: 2px;
      }

      .cls-2 {
        fill: red;
      }

      .cls-3 {
        fill: #999;
      }

      .cls-4 {
        stroke: #fff;
        stroke-width: 5px;
      }

      .cls-4, .cls-14, .cls-5 {
        fill: #fff;
      }

      .cls-14, .cls-15 {
        stroke-miterlimit: 10;
      }

      .cls-6 {
        fill: none;
      }

      .cls-15 {
        fill: #1b1464;
      }

      .cls-7 {
        fill: #f4db8e;
      }

      .cls-8 {
        fill: #ccc;
      }

      .cls-9 {
        fill: #231815;
      }

      .cls-10 {
        opacity: .3;
      }

      .cls-11 {
        fill: #40210f;
      }

      .cls-13 {
        fill: #009fe8;
      }
    </style>
  </defs>
  <g id="_おやすみなさい" data-name="おやすみなさい">
    <g>
      <path class="cls-4" d="M329.87,30.26c4.08,0,7.41,1.01,9.98,3.04,2.57,2.03,3.86,4.51,3.86,7.45,0,6.15-3.27,9.94-9.81,11.37-.64.14-1.25.02-1.82-.36s-.94-.9-1.11-1.57l-.5-2.1c-.14-.62-.04-1.2.29-1.74.34-.55.81-.9,1.43-1.07,1.37-.39,2.34-.91,2.92-1.55.57-.64.86-1.49.86-2.56s-.57-1.92-1.7-2.66-2.59-1.11-4.38-1.11h-.88c-.25,0-.38.13-.38.38v6.33c0,3.1-.56,5.21-1.68,6.31s-3.22,1.66-6.29,1.66-5.7-.91-7.78-2.73c-2.08-1.82-3.12-4.12-3.12-6.92,0-2.43.96-4.63,2.87-6.61s4.62-3.45,8.12-4.42c.22-.06.34-.21.34-.46v-3.69c0-.22-.13-.34-.38-.34h-6.46c-.64,0-1.2-.24-1.68-.71s-.71-1.04-.71-1.68v-1.51c0-.64.24-1.2.71-1.68.48-.47,1.04-.71,1.68-.71h6.46c.25,0,.38-.13.38-.38v-1.85c0-.64.24-1.2.71-1.68.48-.47,1.04-.71,1.68-.71h2.77c.64,0,1.2.24,1.68.71s.71,1.04.71,1.68v1.85c0,.25.13.38.38.38h5.2c.64,0,1.2.24,1.68.71.47.48.71,1.04.71,1.68v1.51c0,.64-.24,1.2-.71,1.68-.48.48-1.04.71-1.68.71h-5.2c-.25,0-.38.11-.38.34v2.68c0,.22.13.34.38.34h.88ZM321.07,43.47v-4.57c0-.08-.04-.15-.13-.19-.08-.04-.17-.05-.25-.02-2.26.89-3.4,2.14-3.4,3.73,0,.67.26,1.29.8,1.87.53.57,1.1.86,1.72.86.53,0,.87-.1,1.03-.29.15-.2.23-.66.23-1.38ZM347.57,27.15c.31.56.38,1.15.21,1.78s-.55,1.08-1.13,1.36l-1.26.67c-.59.31-1.2.36-1.82.17-.63-.2-1.11-.59-1.45-1.17-1.04-1.82-2.2-3.76-3.48-5.83-.34-.56-.43-1.16-.29-1.8.14-.64.49-1.13,1.05-1.47l1.17-.67c.56-.34,1.15-.43,1.78-.29.63.14,1.12.49,1.49,1.05,1.17,1.87,2.42,3.94,3.73,6.21Z"/>
      <path class="cls-4" d="M337.42,63.48c3.1,0,5.63.96,7.57,2.87,1.94,1.92,2.91,4.45,2.91,7.61,0,3.61-1.06,6.43-3.19,8.47s-4.98,3.06-8.56,3.06c-.9,0-1.86-.04-2.89-.13-.67-.06-1.21-.34-1.62-.86-.41-.52-.58-1.11-.52-1.78l.21-2.35c.06-.64.34-1.17.84-1.59.5-.42,1.08-.6,1.72-.55.34.03.81.04,1.43.04,1.34,0,2.45-.36,3.31-1.07.87-.71,1.3-1.66,1.3-2.83,0-2.52-1.26-3.78-3.77-3.78-.22,0-.31.11-.25.34.06.2.14.5.25.9.11.41.19.71.25.9.17.62.09,1.21-.23,1.78-.32.57-.8.96-1.45,1.15l-2.6.75c-.62.2-1.21.13-1.78-.19-.57-.32-.96-.8-1.15-1.45-.08-.28-.28-.89-.59-1.85-.06-.25-.21-.32-.46-.21-.03,0-.4.13-1.11.38-.71.25-1.27.45-1.66.59-.22.08-.31.25-.25.5,2.01,6.88,3.61,12.6,4.78,17.15.17.62.08,1.21-.25,1.78-.34.57-.83.93-1.47,1.07l-3.15.8c-.64.14-1.24.04-1.8-.29-.56-.34-.92-.83-1.09-1.47-1.57-6.1-3.05-11.51-4.45-16.23-.06-.25-.2-.32-.42-.21-.45.17-1.15.44-2.1.82-.95.38-1.69.68-2.22.9-.62.25-1.22.25-1.8,0-.59-.25-1.01-.68-1.26-1.3l-.96-2.31c-.25-.62-.25-1.22,0-1.82s.68-1.03,1.3-1.28c3.24-1.29,4.91-1.94,4.99-1.97.2-.08.27-.24.21-.46-.17-.59-.43-1.44-.8-2.56s-.64-1.97-.84-2.56c-.2-.61-.15-1.22.15-1.8.29-.59.76-.98,1.41-1.17l3.02-.88c.64-.19,1.25-.15,1.82.15.57.29.96.75,1.15,1.36.34,1.04.84,2.62,1.51,4.74.06.2.19.27.42.21.9-.34,1.85-.67,2.85-1.01.19-.06.26-.2.21-.42-.22-.7-.56-1.72-1.01-3.06-.2-.61-.13-1.21.19-1.78s.79-.94,1.4-1.11l2.94-.84c.64-.17,1.25-.09,1.82.23s.96.79,1.15,1.4c.56,1.93.87,2.99.92,3.19.06.22.22.31.5.25,1.17-.17,2.22-.25,3.15-.25Z"/>
      <path class="cls-4" d="M344.26,103.24c.64,0,1.2.24,1.68.71.47.48.71,1.04.71,1.68v1.51c0,.64-.24,1.2-.71,1.68s-1.04.71-1.68.71h-8.18c-.22,0-.34.13-.34.38v6.84c0,.14.06.35.17.63.87,1.79,1.3,3.65,1.3,5.58,0,4.11-1.16,7.24-3.48,9.37-2.32,2.14-6.18,3.55-11.58,4.22-.67.08-1.27-.08-1.78-.48-.52-.41-.85-.94-.99-1.61l-.42-2.01c-.11-.61.03-1.18.42-1.7.39-.52.91-.8,1.55-.86,2.12-.22,3.74-.46,4.84-.71,1.1-.25,1.88-.53,2.33-.84.45-.31.8-.73,1.05-1.26.03-.03.04-.07.04-.13s.01-.1.04-.13v-.08h-.08c-1.43.56-2.87.84-4.32.84-2.74,0-4.96-.77-6.67-2.31-1.71-1.54-2.56-3.57-2.56-6.08s.87-4.58,2.6-6.1c1.73-1.52,4.08-2.29,7.05-2.29.87,0,1.8.14,2.81.42h.08s.04-.01.04-.04v-1.26c0-.25-.13-.38-.38-.38h-15.69c-.64,0-1.2-.24-1.68-.71-.48-.47-.71-1.03-.71-1.68v-1.51c0-.64.24-1.2.71-1.68.48-.47,1.03-.71,1.68-.71h15.69c.25,0,.38-.13.38-.38v-1.01c0-.64.24-1.2.71-1.68.48-.47,1.03-.71,1.68-.71h2.77c.64,0,1.2.24,1.68.71.48.48.71,1.04.71,1.68v1.01c0,.25.11.38.34.38h8.18ZM323.77,120.98c.55.48,1.25.71,2.12.71s1.57-.24,2.12-.71c.55-.47.82-1.08.82-1.8s-.27-1.33-.82-1.8c-.55-.48-1.25-.71-2.12-.71s-1.57.24-2.12.71c-.55.48-.82,1.08-.82,1.8s.27,1.33.82,1.8Z"/>
      <path class="cls-4" d="M345.9,160.36c.59.31.97.78,1.15,1.43s.12,1.27-.19,1.89l-1.05,2.22c-.28.56-.73.93-1.34,1.11-.62.18-1.19.12-1.72-.19-.14-.06-.34-.17-.61-.34-.27-.17-.47-.28-.61-.34-.17-.08-.28-.01-.34.21-.48,2.96-1.27,5.25-2.39,6.86-1.12,1.61-2.85,3.17-5.2,4.68-.56.36-1.16.46-1.8.29-.64-.17-1.13-.53-1.47-1.09l-1.34-2.18c-.34-.56-.42-1.16-.25-1.8.17-.64.53-1.15,1.09-1.51,1.37-.89,2.36-1.89,2.98-2.98.61-1.09,1.05-2.73,1.3-4.91,0-.22-.1-.36-.29-.42-1.06-.25-2.35-.45-3.86-.59-.22,0-.36.11-.42.34-.48,2.52-.97,4.66-1.49,6.44-.52,1.78-1.06,3.21-1.61,4.3-.56,1.09-1.21,1.94-1.95,2.56-.74.62-1.48,1.03-2.22,1.24s-1.63.31-2.66.31c-2.57,0-4.93-1.11-7.07-3.33-2.14-2.22-3.21-4.75-3.21-7.57s1.13-5.09,3.4-7.05c2.27-1.96,5.45-3.26,9.56-3.9.19-.03.32-.15.38-.38.14-1.09.28-2.64.42-4.66,0-.25-.1-.38-.29-.38h-7.93c-.64,0-1.2-.24-1.68-.71s-.71-1.04-.71-1.68v-1.93c0-.64.24-1.2.71-1.68s1.03-.71,1.68-.71h14.09c.64,0,1.2.24,1.68.71.48.48.71,1.04.71,1.68v4.32c-.03.31-.11,1.04-.25,2.18-.14,1.15-.25,2.01-.34,2.6-.06.28.04.42.29.42.73.06,1.75.2,3.06.42.08.03.16,0,.23-.08.07-.08.1-.17.1-.25.03-1.23.04-3.31.04-6.25,0-.64.24-1.2.71-1.68.47-.48,1.03-.71,1.68-.71h2.77c.64,0,1.2.24,1.68.71.47.48.71,1.03.71,1.68,0,2.38-.06,5.19-.17,8.43,0,.25.11.42.34.5,1.2.48,2.43,1.06,3.69,1.76ZM318.76,169.93c1.12,0,2.07-2.14,2.85-6.42.03-.08.01-.16-.04-.23-.06-.07-.13-.09-.21-.06-2.99.73-4.49,1.99-4.49,3.78,0,.64.22,1.29.67,1.95.45.66.85.99,1.22.99Z"/>
      <path class="cls-4" d="M327.48,195.53h-4.99c-.25,0-.41.13-.46.38-1.65,6.49-3.51,12.54-5.58,18.16-.22.62-.64,1.07-1.24,1.36-.6.29-1.22.33-1.87.1l-2.39-.8c-.62-.22-1.06-.62-1.34-1.2-.28-.57-.32-1.17-.13-1.78,2.04-5.68,3.72-10.97,5.03-15.9.06-.22-.04-.34-.29-.34h-2.1c-.64,0-1.2-.24-1.68-.71-.48-.47-.71-1.03-.71-1.68v-1.93c0-.64.24-1.2.71-1.68s1.03-.71,1.68-.71h3.82c.22,0,.36-.11.42-.34.28-1.23.49-2.17.63-2.81s.48-1.16,1.03-1.55c.55-.39,1.15-.55,1.82-.46l2.43.25c.64.08,1.15.39,1.51.92.36.53.49,1.11.38,1.72-.06.22-.13.55-.21.96s-.15.74-.21.96c-.06.22.04.34.29.34h3.44c.64,0,1.2.24,1.68.71.47.48.71,1.04.71,1.68v1.93c0,.64-.24,1.2-.71,1.68s-1.04.71-1.68.71ZM344.68,189.37c.64.06,1.17.35,1.59.88.42.53.59,1.12.5,1.76l-.25,2.01c-.08.64-.39,1.16-.9,1.55-.52.39-1.1.55-1.74.46-1.34-.17-2.39-.26-3.15-.29-.25,0-.38.13-.38.38v10.82c0,.25.11.45.34.59,1.45,1.09,3.15,2.54,5.08,4.36.47.47.73,1.04.75,1.7.03.66-.18,1.24-.63,1.74l-1.43,1.51c-.45.48-.99.73-1.64.78-.64.04-1.2-.16-1.68-.61-.17-.14-.41-.35-.73-.63-.32-.28-.54-.47-.65-.59-.17-.17-.31-.15-.42.04-1.51,3.24-4.67,4.87-9.48,4.87-3.44,0-6.12-.79-8.03-2.37-1.92-1.58-2.87-3.73-2.87-6.44s.94-4.79,2.83-6.4c1.89-1.61,4.58-2.41,8.07-2.41.89,0,1.75.1,2.56.29.25.06.38-.03.38-.25v-11.91c0-.64.24-1.2.71-1.68s1.03-.7,1.68-.67c3.44.06,6.6.22,9.48.5ZM329.87,214.41c1.09,0,1.85-.26,2.26-.78.42-.52.64-1.53.67-3.04,0-.28-.11-.46-.34-.55-.87-.45-1.73-.67-2.6-.67-1.09,0-1.92.23-2.5.69-.57.46-.86,1.07-.86,1.82s.29,1.4.88,1.85c.59.45,1.41.67,2.47.67Z"/>
      <path class="cls-4" d="M343,230.03c.64-.03,1.21.18,1.7.63.49.45.75.99.78,1.64l.04,1.93c.03.64-.18,1.22-.63,1.72-.45.5-.99.77-1.64.8-.7.03-1.73.06-3.1.1-1.37.04-2.41.08-3.1.1-.22,0-.31.13-.25.38.67,2.35,1.73,4.8,3.19,7.34.31.56.36,1.13.17,1.7-.2.57-.57.99-1.13,1.24l-2.98,1.3c-1.31.56-2.74.52-4.28-.13-1.96-.84-3.98-1.26-6.08-1.26-1.51,0-2.66.29-3.44.88-.78.59-1.17,1.41-1.17,2.47,0,1.45.7,2.59,2.1,3.4,1.4.81,3.5,1.22,6.29,1.22,1.93,0,4.64-.28,8.14-.84.64-.11,1.24.02,1.78.4s.87.89.99,1.53l.42,2.01c.14.64.02,1.24-.36,1.78s-.89.87-1.53.99c-3.35.56-6.5.84-9.44.84-5.23,0-9.26-1.04-12.1-3.12-2.84-2.08-4.26-4.96-4.26-8.62,0-2.94,1.06-5.28,3.19-7.03,2.12-1.75,5.12-2.62,8.98-2.62,1.57,0,3.22.21,4.95.63h.08v-.13c-.45-1.09-.84-2.33-1.17-3.73-.06-.25-.21-.38-.46-.38-6.82.17-11.91.25-15.27.25-.67,0-1.24-.24-1.7-.71-.46-.47-.69-1.03-.69-1.68v-1.93c0-.64.23-1.2.69-1.68.46-.48,1.01-.71,1.66-.71,4.19,0,8.98-.07,14.35-.21.22,0,.34-.13.34-.38l-.13-1.64c-.03-.67.18-1.24.61-1.72.43-.47.99-.74,1.66-.8l2.77-.17c.64-.03,1.21.18,1.7.63.49.45.76.99.82,1.64.03.67.07,1.3.13,1.89,0,.2.13.29.38.29l7.05-.25Z"/>
      <path class="cls-4" d="M331.85,290c.61.22,1.06.64,1.34,1.24.28.6.29,1.21.04,1.82-1.48,3.55-3.29,6.31-5.43,8.26-2.14,1.96-4.24,2.94-6.31,2.94-2.57,0-4.96-1.66-7.17-4.99-2.21-3.33-3.31-7.4-3.31-12.21,0-4.31.55-8.57,1.64-12.79.17-.67.54-1.2,1.11-1.59.57-.39,1.21-.55,1.91-.46l3.06.34c.62.06,1.1.34,1.45.86.35.52.45,1.08.31,1.7-1.01,4.25-1.51,8.24-1.51,11.95,0,1.32.1,2.57.31,3.75.21,1.19.48,2.17.82,2.94s.68,1.38,1.03,1.85c.35.46.68.69.99.69.45,0,1.06-.5,1.85-1.49s1.61-2.44,2.47-4.34c.28-.59.72-1.01,1.32-1.26.6-.25,1.21-.26,1.82-.04l2.26.84ZM338.26,272.22c.67-.2,1.31-.15,1.93.13.61.28,1.05.73,1.3,1.34,2.88,6.99,4.45,14.85,4.7,23.57.03.64-.2,1.2-.67,1.68-.48.48-1.04.71-1.68.71h-3.19c-.64,0-1.2-.23-1.68-.69-.48-.46-.73-1.01-.75-1.66-.25-7.52-1.62-14.67-4.11-21.43-.22-.62-.2-1.21.08-1.78.28-.57.73-.94,1.34-1.11l2.73-.75Z"/>
    </g>
    <g>
      <path d="M329.94,30.26c4.08,0,7.41,1.01,9.98,3.04,2.57,2.03,3.86,4.51,3.86,7.45,0,6.15-3.27,9.94-9.81,11.37-.64.14-1.25.02-1.82-.36s-.94-.9-1.11-1.57l-.5-2.1c-.14-.62-.04-1.2.29-1.74.34-.55.81-.9,1.43-1.07,1.37-.39,2.34-.91,2.92-1.55.57-.64.86-1.49.86-2.56s-.57-1.92-1.7-2.66-2.59-1.11-4.38-1.11h-.88c-.25,0-.38.13-.38.38v6.33c0,3.1-.56,5.21-1.68,6.31s-3.22,1.66-6.29,1.66-5.7-.91-7.78-2.73c-2.08-1.82-3.12-4.12-3.12-6.92,0-2.43.96-4.63,2.87-6.61s4.62-3.45,8.12-4.42c.22-.06.34-.21.34-.46v-3.69c0-.22-.13-.34-.38-.34h-6.46c-.64,0-1.2-.24-1.68-.71s-.71-1.04-.71-1.68v-1.51c0-.64.24-1.2.71-1.68.48-.47,1.04-.71,1.68-.71h6.46c.25,0,.38-.13.38-.38v-1.85c0-.64.24-1.2.71-1.68.48-.47,1.04-.71,1.68-.71h2.77c.64,0,1.2.24,1.68.71s.71,1.04.71,1.68v1.85c0,.25.13.38.38.38h5.2c.64,0,1.2.24,1.68.71.47.48.71,1.04.71,1.68v1.51c0,.64-.24,1.2-.71,1.68-.48.48-1.04.71-1.68.71h-5.2c-.25,0-.38.11-.38.34v2.68c0,.22.13.34.38.34h.88ZM321.13,43.47v-4.57c0-.08-.04-.15-.13-.19-.08-.04-.17-.05-.25-.02-2.26.89-3.4,2.14-3.4,3.73,0,.67.26,1.29.8,1.87.53.57,1.1.86,1.72.86.53,0,.87-.1,1.03-.29.15-.2.23-.66.23-1.38ZM347.64,27.15c.31.56.38,1.15.21,1.78s-.55,1.08-1.13,1.36l-1.26.67c-.59.31-1.2.36-1.82.17-.63-.2-1.11-.59-1.45-1.17-1.04-1.82-2.2-3.76-3.48-5.83-.34-.56-.43-1.16-.29-1.8.14-.64.49-1.13,1.05-1.47l1.17-.67c.56-.34,1.15-.43,1.78-.29.63.14,1.12.49,1.49,1.05,1.17,1.87,2.42,3.94,3.73,6.21Z"/>
      <path d="M337.49,63.48c3.1,0,5.63.96,7.57,2.87s2.91,4.45,2.91,7.61c0,3.61-1.06,6.43-3.19,8.47s-4.98,3.06-8.56,3.06c-.9,0-1.86-.04-2.89-.13-.67-.06-1.21-.34-1.62-.86-.41-.52-.58-1.11-.52-1.78l.21-2.35c.06-.64.34-1.17.84-1.59.5-.42,1.08-.6,1.72-.55.34.03.81.04,1.43.04,1.34,0,2.45-.36,3.31-1.07.87-.71,1.3-1.66,1.3-2.83,0-2.52-1.26-3.78-3.77-3.78-.22,0-.31.11-.25.34.06.2.14.5.25.9.11.41.19.71.25.9.17.62.09,1.21-.23,1.78-.32.57-.8.96-1.45,1.15l-2.6.75c-.62.2-1.21.13-1.78-.19-.57-.32-.96-.8-1.15-1.45-.08-.28-.28-.89-.59-1.85-.06-.25-.21-.32-.46-.21-.03,0-.4.13-1.11.38-.71.25-1.27.45-1.66.59-.22.08-.31.25-.25.5,2.01,6.88,3.61,12.6,4.78,17.15.17.62.08,1.21-.25,1.78-.34.57-.83.93-1.47,1.07l-3.15.8c-.64.14-1.24.04-1.8-.29-.56-.34-.92-.83-1.09-1.47-1.57-6.1-3.05-11.51-4.45-16.23-.06-.25-.2-.32-.42-.21-.45.17-1.15.44-2.1.82-.95.38-1.69.68-2.22.9-.62.25-1.22.25-1.8,0-.59-.25-1.01-.68-1.26-1.3l-.96-2.31c-.25-.62-.25-1.22,0-1.82s.68-1.03,1.3-1.28c3.24-1.29,4.91-1.94,4.99-1.97.2-.08.27-.24.21-.46-.17-.59-.43-1.44-.8-2.56s-.64-1.97-.84-2.56c-.2-.61-.15-1.22.15-1.8.29-.59.76-.98,1.41-1.17l3.02-.88c.64-.19,1.25-.15,1.82.15.57.29.96.75,1.15,1.36.34,1.04.84,2.62,1.51,4.74.06.2.19.27.42.21.9-.34,1.85-.67,2.85-1.01.19-.06.26-.2.21-.42-.22-.7-.56-1.72-1.01-3.06-.2-.61-.13-1.21.19-1.78s.79-.94,1.4-1.11l2.94-.84c.64-.17,1.25-.09,1.82.23s.96.79,1.15,1.4c.56,1.93.87,2.99.92,3.19.06.22.22.31.5.25,1.17-.17,2.22-.25,3.15-.25Z"/>
      <path d="M344.33,103.24c.64,0,1.2.24,1.68.71.47.48.71,1.04.71,1.68v1.51c0,.64-.24,1.2-.71,1.68s-1.04.71-1.68.71h-8.18c-.22,0-.34.13-.34.38v6.84c0,.14.06.35.17.63.87,1.79,1.3,3.65,1.3,5.58,0,4.11-1.16,7.24-3.48,9.37-2.32,2.14-6.18,3.55-11.58,4.22-.67.08-1.27-.08-1.78-.48-.52-.41-.85-.94-.99-1.61l-.42-2.01c-.11-.61.03-1.18.42-1.7.39-.52.91-.8,1.55-.86,2.12-.22,3.74-.46,4.84-.71,1.1-.25,1.88-.53,2.33-.84.45-.31.8-.73,1.05-1.26.03-.03.04-.07.04-.13s.01-.1.04-.13v-.08h-.08c-1.43.56-2.87.84-4.32.84-2.74,0-4.96-.77-6.67-2.31s-2.56-3.57-2.56-6.08.87-4.58,2.6-6.1c1.73-1.52,4.08-2.29,7.05-2.29.87,0,1.8.14,2.81.42h.08s.04-.01.04-.04v-1.26c0-.25-.13-.38-.38-.38h-15.69c-.64,0-1.2-.24-1.68-.71-.48-.47-.71-1.03-.71-1.68v-1.51c0-.64.24-1.2.71-1.68.48-.47,1.03-.71,1.68-.71h15.69c.25,0,.38-.13.38-.38v-1.01c0-.64.24-1.2.71-1.68.48-.47,1.03-.71,1.68-.71h2.77c.64,0,1.2.24,1.68.71.48.48.71,1.04.71,1.68v1.01c0,.25.11.38.34.38h8.18ZM323.84,120.98c.55.48,1.25.71,2.12.71s1.57-.24,2.12-.71c.55-.47.82-1.08.82-1.8s-.27-1.33-.82-1.8c-.55-.48-1.25-.71-2.12-.71s-1.57.24-2.12.71c-.55.48-.82,1.08-.82,1.8s.27,1.33.82,1.8Z"/>
      <path d="M345.96,160.36c.59.31.97.78,1.15,1.43s.12,1.27-.19,1.89l-1.05,2.22c-.28.56-.73.93-1.34,1.11-.62.18-1.19.12-1.72-.19-.14-.06-.34-.17-.61-.34-.27-.17-.47-.28-.61-.34-.17-.08-.28-.01-.34.21-.48,2.96-1.27,5.25-2.39,6.86-1.12,1.61-2.85,3.17-5.2,4.68-.56.36-1.16.46-1.8.29-.64-.17-1.13-.53-1.47-1.09l-1.34-2.18c-.34-.56-.42-1.16-.25-1.8.17-.64.53-1.15,1.09-1.51,1.37-.89,2.36-1.89,2.98-2.98.61-1.09,1.05-2.73,1.3-4.91,0-.22-.1-.36-.29-.42-1.06-.25-2.35-.45-3.86-.59-.22,0-.36.11-.42.34-.48,2.52-.97,4.66-1.49,6.44-.52,1.78-1.06,3.21-1.61,4.3-.56,1.09-1.21,1.94-1.95,2.56-.74.62-1.48,1.03-2.22,1.24s-1.63.31-2.66.31c-2.57,0-4.93-1.11-7.07-3.33-2.14-2.22-3.21-4.75-3.21-7.57s1.13-5.09,3.4-7.05c2.27-1.96,5.45-3.26,9.56-3.9.19-.03.32-.15.38-.38.14-1.09.28-2.64.42-4.66,0-.25-.1-.38-.29-.38h-7.93c-.64,0-1.2-.24-1.68-.71s-.71-1.04-.71-1.68v-1.93c0-.64.24-1.2.71-1.68s1.03-.71,1.68-.71h14.09c.64,0,1.2.24,1.68.71.48.48.71,1.04.71,1.68v4.32c-.03.31-.11,1.04-.25,2.18-.14,1.15-.25,2.01-.34,2.6-.06.28.04.42.29.42.73.06,1.75.2,3.06.42.08.03.16,0,.23-.08.07-.08.1-.17.1-.25.03-1.23.04-3.31.04-6.25,0-.64.24-1.2.71-1.68.47-.48,1.03-.71,1.68-.71h2.77c.64,0,1.2.24,1.68.71.47.48.71,1.03.71,1.68,0,2.38-.06,5.19-.17,8.43,0,.25.11.42.34.5,1.2.48,2.43,1.06,3.69,1.76ZM318.83,169.93c1.12,0,2.07-2.14,2.85-6.42.03-.08.01-.16-.04-.23-.06-.07-.13-.09-.21-.06-2.99.73-4.49,1.99-4.49,3.78,0,.64.22,1.29.67,1.95.45.66.85.99,1.22.99Z"/>
      <path d="M327.55,195.53h-4.99c-.25,0-.41.13-.46.38-1.65,6.49-3.51,12.54-5.58,18.16-.22.62-.64,1.07-1.24,1.36-.6.29-1.22.33-1.87.1l-2.39-.8c-.62-.22-1.06-.62-1.34-1.2-.28-.57-.32-1.17-.13-1.78,2.04-5.68,3.72-10.97,5.03-15.9.06-.22-.04-.34-.29-.34h-2.1c-.64,0-1.2-.24-1.68-.71-.48-.47-.71-1.03-.71-1.68v-1.93c0-.64.24-1.2.71-1.68s1.03-.71,1.68-.71h3.82c.22,0,.36-.11.42-.34.28-1.23.49-2.17.63-2.81s.48-1.16,1.03-1.55c.55-.39,1.15-.55,1.82-.46l2.43.25c.64.08,1.15.39,1.51.92.36.53.49,1.11.38,1.72-.06.22-.13.55-.21.96s-.15.74-.21.96c-.06.22.04.34.29.34h3.44c.64,0,1.2.24,1.68.71.47.48.71,1.04.71,1.68v1.93c0,.64-.24,1.2-.71,1.68s-1.04.71-1.68.71ZM344.75,189.37c.64.06,1.17.35,1.59.88.42.53.59,1.12.5,1.76l-.25,2.01c-.08.64-.39,1.16-.9,1.55-.52.39-1.1.55-1.74.46-1.34-.17-2.39-.26-3.15-.29-.25,0-.38.13-.38.38v10.82c0,.25.11.45.34.59,1.45,1.09,3.15,2.54,5.08,4.36.47.47.73,1.04.75,1.7.03.66-.18,1.24-.63,1.74l-1.43,1.51c-.45.48-.99.73-1.64.78-.64.04-1.2-.16-1.68-.61-.17-.14-.41-.35-.73-.63-.32-.28-.54-.47-.65-.59-.17-.17-.31-.15-.42.04-1.51,3.24-4.67,4.87-9.48,4.87-3.44,0-6.12-.79-8.03-2.37-1.92-1.58-2.87-3.73-2.87-6.44s.94-4.79,2.83-6.4c1.89-1.61,4.58-2.41,8.07-2.41.89,0,1.75.1,2.56.29.25.06.38-.03.38-.25v-11.91c0-.64.24-1.2.71-1.68s1.03-.7,1.68-.67c3.44.06,6.6.22,9.48.5ZM329.94,214.41c1.09,0,1.85-.26,2.26-.78.42-.52.64-1.53.67-3.04,0-.28-.11-.46-.34-.55-.87-.45-1.73-.67-2.6-.67-1.09,0-1.92.23-2.5.69-.57.46-.86,1.07-.86,1.82s.29,1.4.88,1.85c.59.45,1.41.67,2.47.67Z"/>
      <path d="M343.07,230.03c.64-.03,1.21.18,1.7.63.49.45.75.99.78,1.64l.04,1.93c.03.64-.18,1.22-.63,1.72-.45.5-.99.77-1.64.8-.7.03-1.73.06-3.1.1-1.37.04-2.41.08-3.1.1-.22,0-.31.13-.25.38.67,2.35,1.73,4.8,3.19,7.34.31.56.36,1.13.17,1.7-.2.57-.57.99-1.13,1.24l-2.98,1.3c-1.31.56-2.74.52-4.28-.13-1.96-.84-3.98-1.26-6.08-1.26-1.51,0-2.66.29-3.44.88-.78.59-1.17,1.41-1.17,2.47,0,1.45.7,2.59,2.1,3.4,1.4.81,3.5,1.22,6.29,1.22,1.93,0,4.64-.28,8.14-.84.64-.11,1.24.02,1.78.4s.87.89.99,1.53l.42,2.01c.14.64.02,1.24-.36,1.78s-.89.87-1.53.99c-3.35.56-6.5.84-9.44.84-5.23,0-9.26-1.04-12.1-3.12-2.84-2.08-4.26-4.96-4.26-8.62,0-2.94,1.06-5.28,3.19-7.03,2.12-1.75,5.12-2.62,8.98-2.62,1.57,0,3.22.21,4.95.63h.08v-.13c-.45-1.09-.84-2.33-1.17-3.73-.06-.25-.21-.38-.46-.38-6.82.17-11.91.25-15.27.25-.67,0-1.24-.24-1.7-.71-.46-.47-.69-1.03-.69-1.68v-1.93c0-.64.23-1.2.69-1.68.46-.48,1.01-.71,1.66-.71,4.19,0,8.98-.07,14.35-.21.22,0,.34-.13.34-.38l-.13-1.64c-.03-.67.18-1.24.61-1.72.43-.47.99-.74,1.66-.8l2.77-.17c.64-.03,1.21.18,1.7.63.49.45.76.99.82,1.64.03.67.07,1.3.13,1.89,0,.2.13.29.38.29l7.05-.25Z"/>
      <path d="M331.91,290c.61.22,1.06.64,1.34,1.24.28.6.29,1.21.04,1.82-1.48,3.55-3.29,6.31-5.43,8.26-2.14,1.96-4.24,2.94-6.31,2.94-2.57,0-4.96-1.66-7.17-4.99-2.21-3.33-3.31-7.4-3.31-12.21,0-4.31.55-8.57,1.64-12.79.17-.67.54-1.2,1.11-1.59.57-.39,1.21-.55,1.91-.46l3.06.34c.62.06,1.1.34,1.45.86.35.52.45,1.08.31,1.7-1.01,4.25-1.51,8.24-1.51,11.95,0,1.32.1,2.57.31,3.75.21,1.19.48,2.17.82,2.94s.68,1.38,1.03,1.85c.35.46.68.69.99.69.45,0,1.06-.5,1.85-1.49s1.61-2.44,2.47-4.34c.28-.59.72-1.01,1.32-1.26.6-.25,1.21-.26,1.82-.04l2.26.84ZM338.33,272.22c.67-.2,1.31-.15,1.93.13.61.28,1.05.73,1.3,1.34,2.88,6.99,4.45,14.85,4.7,23.57.03.64-.2,1.2-.67,1.68-.48.48-1.04.71-1.68.71h-3.19c-.64,0-1.2-.23-1.68-.69-.48-.46-.73-1.01-.75-1.66-.25-7.52-1.62-14.67-4.11-21.43-.22-.62-.2-1.21.08-1.78.28-.57.73-.94,1.34-1.11l2.73-.75Z"/>
    </g>
    <g>
      <ellipse class="cls-10" cx="65.71" cy="99.92" rx="38.11" ry="7.83"/>
      <rect class="cls-12" x="37.68" y="19.78" width="3.22" height="30.05" rx="1.61" ry="1.61" transform="translate(91.64 38.59) rotate(142.61)"/>
      <path class="cls-3" d="M31.33,24.39c-7.44,5.68-9.64,15.3-4.92,21.47l26.93-20.58c-4.72-6.17-14.57-6.57-22.01-.89Z"/>
      <rect class="cls-12" x="90.38" y="19.78" width="3.22" height="30.05" rx="1.61" ry="1.61" transform="translate(40.04 -48.71) rotate(37.39)"/>
      <path class="cls-3" d="M99.95,24.39c7.44,5.68,9.64,15.3,4.92,21.47l-26.93-20.58c4.72-6.17,14.57-6.57,22.01-.89Z"/>
      <path class="cls-12" d="M68.19,20.98h-4.96c-.87,0-1.58.62-1.58,1.39s.71,1.39,1.58,1.39h1.33v5.53h1.94v-5.53h1.69c.87,0,1.58-.62,1.58-1.39s-.71-1.39-1.58-1.39Z"/>
      <polygon class="cls-12" points="43.58 103.13 41.28 101.36 49.96 88.26 53.96 91.32 43.58 103.13"/>
      <polygon class="cls-12" points="87.18 103.13 89.48 101.36 80.8 88.26 76.8 91.32 87.18 103.13"/>
      <ellipse class="cls-11" cx="65.71" cy="64.36" rx="34.4" ry="34.37"/>
      <ellipse class="cls-5" cx="65.71" cy="64.27" rx="29.29" ry="29.26"/>
      <line class="cls-6" x1="65.71" y1="64.27" x2="65.71" y2="43.9"/>
      <line class="cls-6" x1="65.71" y1="64.27" x2="53.49" y2="57.21"/>
      <circle class="cls-9" cx="65.71" cy="64.27" r="1.1"/>
    </g>
    <path class="cls-14" d="M264.9,195.05c-61.96,120.58-36.4,96.72-158.32,95.32-103.34-1.19-90.66-15.47-40.37-99.96,74.49-125.12,57.53-85.05,153.89-90.99,90.78-5.6,79.22,28.65,44.8,95.64Z"/>
    <rect class="cls-5" x="154.66" y="23.75" width="79.63" height="118.23" transform="translate(111.36 277.24) rotate(-89.93)"/>
    <polygon class="cls-8" points="253.54 122.76 259.24 118.08 259.22 37.96 253.64 43.13 253.54 122.76"/>
    <polygon class="cls-5" points="135.41 42.98 140.22 38.03 259.22 37.96 253.64 43.13 135.41 42.98"/>
    <ellipse class="cls-2" cx="193.89" cy="82.87" rx="23.94" ry="24.14"/>
    <path class="cls-13" d="M151.95,53.09c-.12,1.46-2.05,4.82-2.88,7.94-.99,3.72,1.5,6.98,3.36,6.98,1.86,0,3.84-3.15,3.37-6.97-.22-1.83-1.37-3.44-1.68-4.94"/>
    <path class="cls-2" d="M262.08,35.25c31.59,29.98,1.09,7.92.74,19.74-1.24,42.46-11.2,12.74-31.84,2.25-26.54-13.49-108.4-4.51-48.89-31.12,16.29-7.28,50.89-18.48,79.99,9.13Z"/>
    <path class="cls-1" d="M257.54,31.28c26.26,25.11-3.01,4.55-3.05,16-.1,27.32-4.6,25.13-13.39,16.99,0,0,11.57,12.33,15.98,12.87,4.41.55,6.51-12.57,5.98-23.55,0,0-1.02-4.74,11.44-1.66,10.46,2.59-16.95-20.65-16.95-20.65Z"/>
    <ellipse class="cls-5" cx="286.75" cy="58.73" rx="11.06" ry="11.15"/>
    <path class="cls-14" d="M260.62,196.04c-58.15,123.22-37.27,98.33-171.23,98.33-75.84,0-99.62-15.07-44.35-97.37,81.84-121.88,63.21-82.85,169.08-88.64,99.74-5.45,78.96,18.89,46.5,87.68Z"/>
    <path class="cls-1" d="M285.95,121.75c-3.22-10.67-22.85-11.65-22.85-11.65,27.12,9.39,10,34.44-12.94,83.05-38.56,81.71-42.81,100.8-80.06,102.7,0,0,26.47.93,38.8-8.09,12.8-9.36,34.42-54.4,34.42-54.4l40.71-89.14s5.22-11.53,1.92-22.47Z"/>
    <path class="cls-15" d="M229.28,193.63c-41.51,87.95-26.6,70.19-122.23,70.19-54.13,0-71.11-10.76-31.66-69.51,58.42-87,45.12-59.14,120.69-63.27,71.2-3.89,56.36,13.49,33.19,62.59Z"/>
    <ellipse class="cls-7" cx="171.59" cy="106.81" rx="18.14" ry="9.66"/>
    <path class="cls-1" d="M175.77,97.41s20.96,7.62.95,18.66c5.41-1.68,12.26-4.14,12.26-9.25s-7.64-7.77-13.21-9.4Z"/>
    <ellipse class="cls-7" cx="207.87" cy="106.74" rx="18.14" ry="9.66"/>
    <path class="cls-1" d="M212.06,97.35s20.96,7.62.95,18.66c5.41-1.68,12.26-4.14,12.26-9.25s-7.64-7.77-13.21-9.4Z"/>
  </g>
</svg>