<?xml version="1.0" encoding="UTF-8"?>
<svg id="_レイヤー_1" data-name="レイヤー 1" xmlns="http://www.w3.org/2000/svg" viewBox="0 0 370 320">
  <defs>
    <style>
      .cls-1 {
        fill: red;
      }

      .cls-1, .cls-2, .cls-3, .cls-4, .cls-5, .cls-6, .cls-7, .cls-8, .cls-9 {
        stroke-linecap: round;
        stroke-linejoin: round;
      }

      .cls-1, .cls-3, .cls-4, .cls-5, .cls-6, .cls-7, .cls-8, .cls-9 {
        stroke: #000;
        stroke-width: 2px;
      }

      .cls-2 {
        stroke: #fff;
        stroke-width: 5px;
      }

      .cls-2, .cls-3 {
        fill: #fff;
      }

      .cls-4 {
        fill: none;
      }

      .cls-5 {
        fill: #f4db8e;
      }

      .cls-6 {
        fill: #1b1464;
      }

      .cls-7 {
        opacity: .3;
      }

      .cls-8 {
        fill: #40210f;
      }

      .cls-9 {
        fill: #009fe8;
      }
    </style>
  </defs>
  <g id="_とりあえず_皆と同じで_" data-name="とりあえず、皆と同じで！">
    <g>
      <path class="cls-2" d="M341.08,23.66c.77.1,1.41.45,1.91,1.05s.74,1.31.7,2.11c-.13,1.84-.31,3.25-.53,4.22-.22.97-.59,1.74-1.11,2.31-.52.57-1.11.92-1.76,1.06-.65.13-1.63.23-2.94.3-2.08.07-3.58.1-4.52.1-1.21,0-2.71-.03-4.52-.1-1.41-.07-2.45-.13-3.12-.2-.27,0-.42.12-.45.35,0,.03,0,.08-.03.13-.02.05-.03.09-.03.13,0,.07-.03.2-.1.4-.07.2-.1.34-.1.4-.07.27.05.4.35.4h12.91c.77,0,1.44.29,2.01.85s.85,1.24.85,2.01v17.13c0,.77-.28,1.44-.85,2.01-.57.57-1.24.85-2.01.85h-5.13c-.34,0-.64-.13-.9-.38-.27-.25-.4-.56-.4-.93,0-.13-.07-.2-.2-.2h-20.2c-.13,0-.2.07-.2.2,0,.37-.13.68-.4.93-.27.25-.57.38-.9.38h-5.13c-.77,0-1.44-.29-2.01-.85-.57-.57-.85-1.24-.85-2.01v-17.13c0-.77.28-1.44.85-2.01.57-.57,1.24-.85,2.01-.85h9.9c.3,0,.49-.13.55-.4.07-.2.14-.52.23-.95.08-.43.14-.75.18-.95l.05-.05c.03-.1.02-.18-.05-.25-.07-.07-.15-.08-.25-.05-4.92.87-9.9,1.52-14.92,1.96-.8.07-1.51-.15-2.11-.65-.6-.5-.94-1.16-1-1.96l-.15-1.66c-.07-.77.15-1.46.65-2.06.5-.6,1.14-.94,1.91-1,.2,0,.49-.03.88-.1.38-.07.68-.1.88-.1.27,0,.4-.15.4-.45v-10.8c0-.77.28-1.44.85-2.01.57-.57,1.24-.85,2.01-.85h4.02c.67,0,1.24.24,1.71.73.47.49.7,1.05.7,1.68,0,.23.12.35.35.35h6.08c.77,0,1.44.29,2.01.85.57.57.85,1.24.85,2.01v1.31c0,.77-.29,1.44-.85,2.01-.57.57-1.24.85-2.01.85h-6.03c-.27,0-.4.13-.4.4v2.26c0,.3.13.42.4.35,2.61-.4,4.56-.72,5.83-.95.77-.17,1.47-.02,2.09.45.62.47.96,1.07,1.03,1.81l.15,1.66c.03.6-.07,1.16-.3,1.66-.03.07-.03.14.03.23.05.08.13.13.23.13l.95.1c.27,0,.4-.12.4-.35v-14.67c0-.77.28-1.44.85-2.01s1.24-.85,2.01-.85h3.57c.77,0,1.44.29,2.01.85.57.57.85,1.24.85,2.01v.55c0,.27.12.37.35.3,2.95-.9,5.46-1.77,7.54-2.61.74-.3,1.47-.31,2.21-.03.74.29,1.27.8,1.61,1.53l.7,1.56c.33.7.35,1.42.05,2.16-.3.74-.82,1.24-1.56,1.51-1.21.5-2.41.95-3.62,1.36-.03.03-.05.07-.05.1s.03.05.1.05l2.91.35ZM330.88,42.6h-19.75c-.27,0-.4.15-.4.45v.9c0,.27.13.4.4.4h19.75c.3,0,.45-.13.45-.4v-.9c0-.3-.15-.45-.45-.45ZM331.33,50.95v-.85c0-.3-.15-.45-.45-.45h-19.75c-.27,0-.4.15-.4.45v.85c0,.3.13.45.4.45h19.75c.3,0,.45-.15.45-.45ZM334.6,27.73c.4-.03.65-.21.75-.53.1-.32.17-1.26.2-2.84,0-.27-.13-.37-.4-.3-1.94.54-3.23.87-3.87,1-.3.07-.45.25-.45.55v1.41c0,.3.03.49.1.55.07.07.28.12.65.15.27.03.77.05,1.51.05.64,0,1.14-.02,1.51-.05Z"/>
      <path class="cls-2" d="M338.52,103.4c.1.8-.08,1.52-.55,2.14-.47.62-1.11,1-1.91,1.13-4.69.7-9.78,1.05-15.28,1.05-12.39,0-18.59-4.35-18.59-13.06,0-4.35,2.31-8.22,6.93-11.61.23-.17.32-.38.25-.65-1-4.35-1.89-8.73-2.66-13.11-.13-.77.03-1.46.48-2.08.45-.62,1.06-1,1.83-1.13l4.17-.6c.77-.13,1.47.03,2.11.5.64.47,1.04,1.09,1.21,1.86.77,3.95,1.44,7.2,2.01,9.75.07.3.23.39.5.25,4.22-1.71,9.25-3.25,15.07-4.62.74-.17,1.43-.04,2.09.38.65.42,1.06,1.01,1.23,1.78l.65,2.91c.17.77.03,1.5-.4,2.19-.44.69-1.02,1.11-1.76,1.28-7.81,1.88-13.7,3.94-17.69,6.18-3.99,2.24-5.98,4.32-5.98,6.23,0,1.71.67,2.97,2.01,3.79,1.34.82,3.52,1.23,6.53,1.23,4.62,0,9.38-.35,14.27-1.06.77-.13,1.46.03,2.08.5.62.47.98,1.09,1.08,1.86l.3,2.91Z"/>
      <path class="cls-2" d="M340.02,114.21c.77,0,1.44.29,2.01.85.57.57.85,1.24.85,2.01v32.56c0,1.71-.03,3.05-.08,4.02-.05.97-.19,1.88-.43,2.71-.23.84-.51,1.44-.83,1.81-.32.37-.85.69-1.61.95-.75.27-1.54.43-2.36.48-.82.05-1.98.08-3.49.08s-3.5-.05-6.18-.15c-.8-.03-1.51-.34-2.11-.9-.6-.57-.92-1.26-.95-2.06l-.25-3.97c0-.3-.15-.45-.45-.45h-5.18c-.3,0-.45.15-.45.45v.7c0,.77-.29,1.44-.85,2.01-.57.57-1.24.85-2.01.85h-2.31c-.77,0-1.44-.29-2.01-.85-.57-.57-.85-1.24-.85-2.01v-16.13c0-.77.28-1.44.85-2.01s1.24-.85,2.01-.85h14.87c.77,0,1.44.29,2.01.85.57.57.85,1.24.85,2.01v14.52c0,.3.15.45.45.45h.55c.8,0,1.3-.08,1.48-.25.18-.17.28-.67.28-1.51v-28.19c0-.3-.13-.45-.4-.45h-25.27c-.3,0-.45.15-.45.45v34.62c0,.77-.29,1.44-.85,2.01-.57.57-1.24.85-2.01.85h-3.32c-.77,0-1.44-.29-2.01-.85-.57-.57-.85-1.24-.85-2.01v-39.75c0-.77.28-1.44.85-2.01s1.24-.85,2.01-.85h38.49ZM329.47,131.29h-17.39c-.77,0-1.44-.28-2.01-.85s-.85-1.24-.85-2.01v-1.31c0-.77.28-1.44.85-2.01.57-.57,1.24-.85,2.01-.85h17.39c.77,0,1.44.29,2.01.85.57.57.85,1.24.85,2.01v1.31c0,.77-.29,1.44-.85,2.01-.57.57-1.24.85-2.01.85ZM323.04,145.41v-4.37c0-.3-.15-.45-.45-.45h-3.62c-.3,0-.45.15-.45.45v4.37c0,.3.15.45.45.45h3.62c.3,0,.45-.15.45-.45Z"/>
      <path class="cls-2" d="M338.21,188.07c.74.27,1.26.75,1.58,1.46.32.7.33,1.42.03,2.16-2.45,5.76-5.41,9.95-8.89,12.56-3.48,2.61-7.54,3.92-12.16,3.92-4.12,0-7.3-.59-9.55-1.76-2.24-1.17-3.89-3.2-4.95-6.08-1.05-2.88-1.58-6.97-1.58-12.26,0-6.2.18-12.61.55-19.24.07-.8.39-1.48.98-2.03.59-.55,1.28-.81,2.09-.78l4.07.15c.77.03,1.42.34,1.93.9.52.57.76,1.24.73,2.01-.37,6.37-.55,12.7-.55,18.99,0,3.05.21,5.37.63,6.96.42,1.59,1.06,2.67,1.93,3.24.87.57,2.11.85,3.72.85,2.45,0,4.67-.82,6.68-2.46,2.01-1.64,3.92-4.39,5.73-8.24.37-.74.91-1.26,1.63-1.56.72-.3,1.45-.32,2.19-.05l3.22,1.26ZM324.25,168.78c.7-.37,1.44-.44,2.21-.2.77.24,1.34.7,1.71,1.41.64,1.11,1.31,2.38,2.01,3.82.37.7.43,1.42.18,2.16-.25.74-.73,1.27-1.43,1.61l-.5.25c-.7.37-1.43.43-2.19.18-.75-.25-1.32-.73-1.68-1.43-.23-.44-.57-1.07-1-1.91-.44-.84-.77-1.46-1-1.86-.37-.67-.44-1.38-.23-2.14.22-.75.68-1.3,1.38-1.63l.55-.25ZM333.04,166.77c.7-.37,1.44-.43,2.21-.2.77.24,1.34.7,1.71,1.41.94,1.74,1.64,3.06,2.11,3.97.37.7.43,1.42.18,2.16-.25.74-.73,1.27-1.43,1.61l-.65.35c-.7.34-1.43.38-2.19.13-.75-.25-1.32-.73-1.68-1.43l-2.11-3.92c-.37-.67-.44-1.37-.2-2.11.23-.74.7-1.29,1.41-1.66l.65-.3Z"/>
      <path class="cls-2" d="M335.65,252.29l.35,3.07c.1.8-.08,1.52-.55,2.16-.47.64-1.11,1-1.91,1.11-1.54.2-3.12.3-4.72.3-6.16,0-11.1-1.58-14.8-4.75-3.7-3.17-5.55-7.44-5.55-12.84,0-2.51.67-5.03,2.01-7.54,1.34-2.51,3.17-4.66,5.48-6.43.03,0,.05-.03.05-.1,0-.03-.02-.05-.05-.05-4.79.13-9.56.24-14.32.3-.77,0-1.43-.28-1.98-.85-.55-.57-.83-1.24-.83-2.01v-2.81c0-.77.28-1.44.83-2.01.55-.57,1.21-.85,1.98-.85,12.96-.07,25.06-.35,36.28-.85.77-.03,1.45.22,2.03.75.59.54.9,1.19.93,1.96l.05,2.81c.03.8-.22,1.5-.75,2.08-.54.59-1.21.91-2.01.98-6.43.64-11.27,2.16-14.52,4.57-3.25,2.41-4.87,5.43-4.87,9.04,0,3.05.97,5.44,2.91,7.19,1.94,1.74,4.49,2.61,7.64,2.61,1.04,0,2.08-.07,3.12-.2.8-.1,1.52.08,2.14.53.62.45.98,1.06,1.08,1.83ZM334.35,234.05c.37.67.92,1.71,1.66,3.11.33.7.37,1.42.1,2.16-.27.74-.75,1.27-1.46,1.61-.74.34-1.47.37-2.21.1-.74-.27-1.29-.75-1.66-1.46-.17-.3-.7-1.29-1.61-2.96-.37-.67-.44-1.37-.2-2.11.23-.74.7-1.29,1.41-1.66h.05c.7-.37,1.44-.43,2.21-.2.77.24,1.34.7,1.71,1.41ZM342.39,232.24c1.11,2.11,1.67,3.2,1.71,3.27.37.7.43,1.42.18,2.16-.25.74-.73,1.27-1.43,1.61l-.15.1c-.7.34-1.43.38-2.19.13-.75-.25-1.32-.73-1.68-1.43-.17-.33-.44-.85-.8-1.56-.37-.7-.65-1.22-.85-1.56-.37-.67-.44-1.39-.23-2.16.22-.77.68-1.32,1.38-1.66l.15-.05c.7-.37,1.44-.44,2.21-.23.77.22,1.34.68,1.71,1.38Z"/>
      <path class="cls-2" d="M323.94,268.97c.77,0,1.42.29,1.96.85.54.57.79,1.24.75,2.01l-1.21,18.89c-.07.8-.39,1.48-.95,2.03-.57.55-1.26.83-2.06.83h-3.32c-.8,0-1.49-.28-2.06-.83-.57-.55-.89-1.23-.95-2.03l-1.21-18.89c-.03-.77.22-1.44.75-2.01.54-.57,1.19-.85,1.96-.85h6.33ZM322.94,297.61c.77,0,1.44.29,2.01.85.57.57.85,1.24.85,2.01v2.31c0,.77-.29,1.44-.85,2.01-.57.57-1.24.85-2.01.85h-4.32c-.77,0-1.44-.28-2.01-.85-.57-.57-.85-1.24-.85-2.01v-2.31c0-.77.28-1.44.85-2.01s1.24-.85,2.01-.85h4.32Z"/>
    </g>
    <g>
      <path d="M340.75,23.33c.77.1,1.41.45,1.91,1.05s.74,1.31.7,2.11c-.13,1.84-.31,3.25-.53,4.22-.22.97-.59,1.74-1.11,2.31-.52.57-1.11.92-1.76,1.06-.65.13-1.63.23-2.94.3-2.08.07-3.58.1-4.52.1-1.21,0-2.71-.03-4.52-.1-1.41-.07-2.45-.13-3.12-.2-.27,0-.42.12-.45.35,0,.03,0,.08-.03.13-.02.05-.03.09-.03.13,0,.07-.03.2-.1.4-.07.2-.1.34-.1.4-.07.27.05.4.35.4h12.91c.77,0,1.44.29,2.01.85s.85,1.24.85,2.01v17.13c0,.77-.28,1.44-.85,2.01-.57.57-1.24.85-2.01.85h-5.13c-.34,0-.64-.13-.9-.38-.27-.25-.4-.56-.4-.93,0-.13-.07-.2-.2-.2h-20.2c-.13,0-.2.07-.2.2,0,.37-.13.68-.4.93-.27.25-.57.38-.9.38h-5.13c-.77,0-1.44-.29-2.01-.85-.57-.57-.85-1.24-.85-2.01v-17.13c0-.77.28-1.44.85-2.01.57-.57,1.24-.85,2.01-.85h9.9c.3,0,.49-.13.55-.4.07-.2.14-.52.23-.95.08-.43.14-.75.18-.95l.05-.05c.03-.1.02-.18-.05-.25-.07-.07-.15-.08-.25-.05-4.92.87-9.9,1.52-14.92,1.96-.8.07-1.51-.15-2.11-.65-.6-.5-.94-1.16-1-1.96l-.15-1.66c-.07-.77.15-1.46.65-2.06.5-.6,1.14-.94,1.91-1,.2,0,.49-.03.88-.1.38-.07.68-.1.88-.1.27,0,.4-.15.4-.45v-10.8c0-.77.28-1.44.85-2.01.57-.57,1.24-.85,2.01-.85h4.02c.67,0,1.24.24,1.71.73.47.49.7,1.05.7,1.68,0,.23.12.35.35.35h6.08c.77,0,1.44.29,2.01.85.57.57.85,1.24.85,2.01v1.31c0,.77-.29,1.44-.85,2.01-.57.57-1.24.85-2.01.85h-6.03c-.27,0-.4.13-.4.4v2.26c0,.3.13.42.4.35,2.61-.4,4.56-.72,5.83-.95.77-.17,1.47-.02,2.09.45.62.47.96,1.07,1.03,1.81l.15,1.66c.03.6-.07,1.16-.3,1.66-.03.07-.03.14.03.23.05.08.13.13.23.13l.95.1c.27,0,.4-.12.4-.35v-14.67c0-.77.28-1.44.85-2.01s1.24-.85,2.01-.85h3.57c.77,0,1.44.29,2.01.85.57.57.85,1.24.85,2.01v.55c0,.27.12.37.35.3,2.95-.9,5.46-1.77,7.54-2.61.74-.3,1.47-.31,2.21-.03.74.29,1.27.8,1.61,1.53l.7,1.56c.33.7.35,1.42.05,2.16-.3.74-.82,1.24-1.56,1.51-1.21.5-2.41.95-3.62,1.36-.03.03-.05.07-.05.1s.03.05.1.05l2.91.35ZM330.55,42.27h-19.75c-.27,0-.4.15-.4.45v.9c0,.27.13.4.4.4h19.75c.3,0,.45-.13.45-.4v-.9c0-.3-.15-.45-.45-.45ZM331.01,50.61v-.85c0-.3-.15-.45-.45-.45h-19.75c-.27,0-.4.15-.4.45v.85c0,.3.13.45.4.45h19.75c.3,0,.45-.15.45-.45ZM334.27,27.4c.4-.03.65-.21.75-.53.1-.32.17-1.26.2-2.84,0-.27-.13-.37-.4-.3-1.94.54-3.23.87-3.87,1-.3.07-.45.25-.45.55v1.41c0,.3.03.49.1.55.07.07.28.12.65.15.27.03.77.05,1.51.05.64,0,1.14-.02,1.51-.05Z"/>
      <path d="M338.19,103.07c.1.8-.08,1.52-.55,2.14-.47.62-1.11,1-1.91,1.13-4.69.7-9.78,1.05-15.28,1.05-12.39,0-18.59-4.35-18.59-13.06,0-4.35,2.31-8.22,6.93-11.61.23-.17.32-.38.25-.65-1-4.35-1.89-8.73-2.66-13.11-.13-.77.03-1.46.48-2.08.45-.62,1.06-1,1.83-1.13l4.17-.6c.77-.13,1.47.03,2.11.5.64.47,1.04,1.09,1.21,1.86.77,3.95,1.44,7.2,2.01,9.75.07.3.23.39.5.25,4.22-1.71,9.25-3.25,15.07-4.62.74-.17,1.43-.04,2.09.38.65.42,1.06,1.01,1.23,1.78l.65,2.91c.17.77.03,1.5-.4,2.19-.44.69-1.02,1.11-1.76,1.28-7.81,1.88-13.7,3.94-17.69,6.18-3.99,2.24-5.98,4.32-5.98,6.23,0,1.71.67,2.97,2.01,3.79,1.34.82,3.52,1.23,6.53,1.23,4.62,0,9.38-.35,14.27-1.06.77-.13,1.46.03,2.08.5.62.47.98,1.09,1.08,1.86l.3,2.91Z"/>
      <path d="M339.7,113.88c.77,0,1.44.29,2.01.85.57.57.85,1.24.85,2.01v32.56c0,1.71-.03,3.05-.08,4.02-.05.97-.19,1.88-.43,2.71-.23.84-.51,1.44-.83,1.81-.32.37-.85.69-1.61.95-.75.27-1.54.43-2.36.48-.82.05-1.98.08-3.49.08s-3.5-.05-6.18-.15c-.8-.03-1.51-.34-2.11-.9-.6-.57-.92-1.26-.95-2.06l-.25-3.97c0-.3-.15-.45-.45-.45h-5.18c-.3,0-.45.15-.45.45v.7c0,.77-.29,1.44-.85,2.01-.57.57-1.24.85-2.01.85h-2.31c-.77,0-1.44-.29-2.01-.85-.57-.57-.85-1.24-.85-2.01v-16.13c0-.77.28-1.44.85-2.01s1.24-.85,2.01-.85h14.87c.77,0,1.44.29,2.01.85.57.57.85,1.24.85,2.01v14.52c0,.3.15.45.45.45h.55c.8,0,1.3-.08,1.48-.25.18-.17.28-.67.28-1.51v-28.19c0-.3-.13-.45-.4-.45h-25.27c-.3,0-.45.15-.45.45v34.62c0,.77-.29,1.44-.85,2.01-.57.57-1.24.85-2.01.85h-3.32c-.77,0-1.44-.29-2.01-.85-.57-.57-.85-1.24-.85-2.01v-39.75c0-.77.28-1.44.85-2.01s1.24-.85,2.01-.85h38.49ZM329.15,130.96h-17.39c-.77,0-1.44-.28-2.01-.85s-.85-1.24-.85-2.01v-1.31c0-.77.28-1.44.85-2.01.57-.57,1.24-.85,2.01-.85h17.39c.77,0,1.44.29,2.01.85.57.57.85,1.24.85,2.01v1.31c0,.77-.29,1.44-.85,2.01-.57.57-1.24.85-2.01.85ZM322.72,145.08v-4.37c0-.3-.15-.45-.45-.45h-3.62c-.3,0-.45.15-.45.45v4.37c0,.3.15.45.45.45h3.62c.3,0,.45-.15.45-.45Z"/>
      <path d="M337.89,187.74c.74.27,1.26.75,1.58,1.46.32.7.33,1.42.03,2.16-2.45,5.76-5.41,9.95-8.89,12.56-3.48,2.61-7.54,3.92-12.16,3.92-4.12,0-7.3-.59-9.55-1.76-2.24-1.17-3.89-3.2-4.95-6.08-1.05-2.88-1.58-6.97-1.58-12.26,0-6.2.18-12.61.55-19.24.07-.8.39-1.48.98-2.03.59-.55,1.28-.81,2.09-.78l4.07.15c.77.03,1.42.34,1.93.9.52.57.76,1.24.73,2.01-.37,6.37-.55,12.7-.55,18.99,0,3.05.21,5.37.63,6.96.42,1.59,1.06,2.67,1.93,3.24.87.57,2.11.85,3.72.85,2.45,0,4.67-.82,6.68-2.46,2.01-1.64,3.92-4.39,5.73-8.24.37-.74.91-1.26,1.63-1.56.72-.3,1.45-.32,2.19-.05l3.22,1.26ZM323.92,168.45c.7-.37,1.44-.44,2.21-.2.77.24,1.34.7,1.71,1.41.64,1.11,1.31,2.38,2.01,3.82.37.7.43,1.42.18,2.16-.25.74-.73,1.27-1.43,1.61l-.5.25c-.7.37-1.43.43-2.19.18-.75-.25-1.32-.73-1.68-1.43-.23-.44-.57-1.07-1-1.91-.44-.84-.77-1.46-1-1.86-.37-.67-.44-1.38-.23-2.14.22-.75.68-1.3,1.38-1.63l.55-.25ZM332.71,166.44c.7-.37,1.44-.43,2.21-.2.77.24,1.34.7,1.71,1.41.94,1.74,1.64,3.06,2.11,3.97.37.7.43,1.42.18,2.16-.25.74-.73,1.27-1.43,1.61l-.65.35c-.7.34-1.43.38-2.19.13-.75-.25-1.32-.73-1.68-1.43l-2.11-3.92c-.37-.67-.44-1.37-.2-2.11.23-.74.7-1.29,1.41-1.66l.65-.3Z"/>
      <path d="M335.33,251.96l.35,3.07c.1.8-.08,1.52-.55,2.16-.47.64-1.11,1-1.91,1.11-1.54.2-3.12.3-4.72.3-6.16,0-11.1-1.58-14.8-4.75-3.7-3.17-5.55-7.44-5.55-12.84,0-2.51.67-5.03,2.01-7.54,1.34-2.51,3.17-4.66,5.48-6.43.03,0,.05-.03.05-.1,0-.03-.02-.05-.05-.05-4.79.13-9.56.24-14.32.3-.77,0-1.43-.28-1.98-.85-.55-.57-.83-1.24-.83-2.01v-2.81c0-.77.28-1.44.83-2.01.55-.57,1.21-.85,1.98-.85,12.96-.07,25.06-.35,36.28-.85.77-.03,1.45.22,2.03.75.59.54.9,1.19.93,1.96l.05,2.81c.03.8-.22,1.5-.75,2.08-.54.59-1.21.91-2.01.98-6.43.64-11.27,2.16-14.52,4.57-3.25,2.41-4.87,5.43-4.87,9.04,0,3.05.97,5.44,2.91,7.19,1.94,1.74,4.49,2.61,7.64,2.61,1.04,0,2.08-.07,3.12-.2.8-.1,1.52.08,2.14.53.62.45.98,1.06,1.08,1.83ZM334.02,233.72c.37.67.92,1.71,1.66,3.11.33.7.37,1.42.1,2.16-.27.74-.75,1.27-1.46,1.61-.74.34-1.47.37-2.21.1-.74-.27-1.29-.75-1.66-1.46-.17-.3-.7-1.29-1.61-2.96-.37-.67-.44-1.37-.2-2.11.23-.74.7-1.29,1.41-1.66h.05c.7-.37,1.44-.43,2.21-.2.77.24,1.34.7,1.71,1.41ZM342.06,231.91c1.11,2.11,1.67,3.2,1.71,3.27.37.7.43,1.42.18,2.16-.25.74-.73,1.27-1.43,1.61l-.15.1c-.7.34-1.43.38-2.19.13-.75-.25-1.32-.73-1.68-1.43-.17-.33-.44-.85-.8-1.56-.37-.7-.65-1.22-.85-1.56-.37-.67-.44-1.39-.23-2.16.22-.77.68-1.32,1.38-1.66l.15-.05c.7-.37,1.44-.44,2.21-.23.77.22,1.34.68,1.71,1.38Z"/>
      <path d="M323.62,268.64c.77,0,1.42.29,1.96.85.54.57.79,1.24.75,2.01l-1.21,18.89c-.07.8-.39,1.48-.95,2.03-.57.55-1.26.83-2.06.83h-3.32c-.8,0-1.49-.28-2.06-.83-.57-.55-.89-1.23-.95-2.03l-1.21-18.89c-.03-.77.22-1.44.75-2.01.54-.57,1.19-.85,1.96-.85h6.33ZM322.61,297.28c.77,0,1.44.29,2.01.85.57.57.85,1.24.85,2.01v2.31c0,.77-.29,1.44-.85,2.01-.57.57-1.24.85-2.01.85h-4.32c-.77,0-1.44-.28-2.01-.85-.57-.57-.85-1.24-.85-2.01v-2.31c0-.77.28-1.44.85-2.01s1.24-.85,2.01-.85h4.32Z"/>
    </g>
    <g>
      <ellipse class="cls-7" cx="194.66" cy="228.87" rx="50.84" ry="3.29"/>
      <ellipse class="cls-5" cx="148.48" cy="167.06" rx="4.37" ry="6.79"/>
      <path class="cls-6" d="M151.05,108.91c-13.39,18.94-6.36,54.71-6.36,54.71l22.18,7.29c-.46-25.54,8.53-46.81,8.53-46.81l-24.35-15.19Z"/>
      <path class="cls-6" d="M238.1,184.76c-.27,21.77-10.65,34.34-10.65,34.34h-62.06c-10.68-16.39-10.64-34.34-10.64-34.34h83.35Z"/>
      <polygon class="cls-6" points="246.47 185.86 146.39 185.86 163.85 96.89 227.08 96.89 246.47 185.86"/>
      <polygon class="cls-6" points="175.78 117.91 159.72 117.91 166.47 129.6 176.88 130.51 168.99 136.09 193.17 164.85 175.78 117.91"/>
      <polygon class="cls-6" points="214.86 117.91 230.92 117.91 224.18 129.6 213.76 130.51 221.65 136.09 197.47 164.85 214.86 117.91"/>
      <polygon class="cls-6" points="175.85 117.91 195.41 117.91 214.87 117.89 210.63 129.34 195.41 118.73 179.97 129.02 175.85 117.91"/>
      <polygon class="cls-1" points="187.85 123.77 190.19 131.61 200.96 131.61 202.97 123.77 195.41 118.73 187.85 123.77"/>
      <polygon class="cls-1" points="190.19 131.61 184.33 140.98 195.3 170.4 205.91 142.14 200.96 131.61 190.19 131.61"/>
      <line class="cls-4" x1="195.12" y1="218.79" x2="195.12" y2="196.25"/>
      <ellipse class="cls-8" cx="175.41" cy="221.54" rx="19.71" ry="9.19"/>
      <ellipse class="cls-8" cx="214.83" cy="221.54" rx="19.71" ry="9.19"/>
      <rect class="cls-3" x="117.32" y="13.63" width="156.08" height="104.26"/>
      <path class="cls-6" d="M236.77,141.38c18.18-7.27,23.84-35.24,26.03-39.2l-14.45-11.55c-4.34,14.08-15.53,27.36-16.69,27.28l5.12,23.47Z"/>
      <circle class="cls-1" cx="195.12" cy="65.76" r="31.61"/>
      <path class="cls-9" d="M134.35,24.39c.15,1.91,2.7,6.31,3.79,10.4,1.3,4.87-1.99,9.14-4.44,9.14s-5.06-4.13-4.44-9.14c.3-2.4,1.82-4.5,2.22-6.46"/>
      <path class="cls-5" d="M269.57,95.5c2.45-8.34-.34-16.5-6.22-18.23-5.89-1.73-12.64,3.64-15.09,11.98-.02.06-.02.13-.04.19-1.96-1.03-3.95-1.23-5.46-.29-2.88,1.79-2.93,6.92-.1,11.48.6.98,1.3,1.82,2.04,2.57,2,2,4.13,3.74,7.18,4.46,2.25.53,4.47.47,6.43-.05,4.74-.87,9.34-5.53,11.27-12.1Z"/>
    </g>
    <g>
      <ellipse class="cls-7" cx="159.48" cy="266.64" rx="50.84" ry="3.29"/>
      <ellipse class="cls-5" cx="112.84" cy="204.69" rx="4.37" ry="6.79"/>
      <path class="cls-6" d="M115.42,146.55c-13.39,18.94-6.36,54.71-6.36,54.71l22.18,7.29c-.46-25.54,8.53-46.81,8.53-46.81l-24.35-15.19Z"/>
      <path class="cls-6" d="M202.47,222.4c-.27,21.77-10.65,34.34-10.65,34.34h-62.06c-10.68-16.39-10.64-34.34-10.64-34.34h83.35Z"/>
      <polygon class="cls-6" points="210.83 223.5 110.75 223.5 128.21 134.53 191.44 134.53 210.83 223.5"/>
      <polygon class="cls-6" points="140.14 155.55 124.08 155.55 130.83 167.23 141.24 168.14 133.35 173.73 157.53 202.49 140.14 155.55"/>
      <polygon class="cls-6" points="179.22 155.55 195.28 155.55 188.54 167.23 178.12 168.14 186.02 173.73 161.84 202.49 179.22 155.55"/>
      <polygon class="cls-6" points="140.21 155.55 159.77 155.55 179.23 155.53 174.99 166.97 159.77 156.36 144.33 166.66 140.21 155.55"/>
      <polygon class="cls-1" points="152.21 161.4 154.55 169.24 165.32 169.24 167.33 161.4 159.77 156.36 152.21 161.4"/>
      <polygon class="cls-1" points="154.55 169.24 148.69 178.61 159.66 208.04 170.27 179.78 165.32 169.24 154.55 169.24"/>
      <line class="cls-4" x1="159.48" y1="256.42" x2="159.48" y2="233.89"/>
      <ellipse class="cls-8" cx="139.77" cy="259.18" rx="19.71" ry="9.19"/>
      <ellipse class="cls-8" cx="179.19" cy="259.18" rx="19.71" ry="9.19"/>
      <rect class="cls-3" x="81.68" y="51.27" width="156.08" height="104.26"/>
      <path class="cls-6" d="M201.14,179.02c18.18-7.27,23.84-35.24,26.03-39.2l-14.45-11.55c-4.34,14.08-15.53,27.36-16.69,27.28l5.12,23.47Z"/>
      <circle class="cls-1" cx="159.48" cy="103.4" r="31.61"/>
      <path class="cls-9" d="M98.71,62.02c.15,1.91,2.7,6.31,3.79,10.4,1.3,4.87-1.99,9.14-4.44,9.14s-5.06-4.13-4.44-9.14c.3-2.4,1.82-4.5,2.22-6.46"/>
      <path class="cls-5" d="M233.93,133.13c2.45-8.34-.34-16.5-6.22-18.23-5.89-1.73-12.64,3.64-15.09,11.98-.02.06-.02.13-.04.19-1.96-1.03-3.95-1.23-5.46-.29-2.88,1.79-2.93,6.92-.1,11.48.6.98,1.3,1.82,2.04,2.57,2,2,4.13,3.74,7.18,4.46,2.25.53,4.47.47,6.43-.05,4.74-.87,9.34-5.53,11.27-12.1Z"/>
    </g>
    <g>
      <ellipse class="cls-7" cx="123.84" cy="304.32" rx="50.84" ry="3.29"/>
      <ellipse class="cls-5" cx="77.21" cy="242.32" rx="4.37" ry="6.79"/>
      <path class="cls-6" d="M79.78,184.18c-13.39,18.94-6.36,54.71-6.36,54.71l22.18,7.29c-.46-25.54,8.53-46.81,8.53-46.81l-24.35-15.19Z"/>
      <path class="cls-6" d="M166.83,260.03c-.27,21.77-10.65,34.34-10.65,34.34h-62.06c-10.68-16.39-10.64-34.34-10.64-34.34h83.35Z"/>
      <polygon class="cls-6" points="175.19 261.13 75.11 261.13 92.57 172.16 155.8 172.16 175.19 261.13"/>
      <polygon class="cls-6" points="104.5 193.17 88.45 193.17 95.19 204.86 105.6 205.77 97.71 211.36 121.89 240.11 104.5 193.17"/>
      <polygon class="cls-6" points="143.59 193.17 159.64 193.17 152.9 204.86 142.49 205.77 150.38 211.36 126.2 240.11 143.59 193.17"/>
      <polygon class="cls-6" points="104.58 193.17 124.13 193.17 143.59 193.16 139.35 204.6 124.13 193.99 108.69 204.29 104.58 193.17"/>
      <polygon class="cls-1" points="116.57 199.03 118.91 206.87 129.68 206.87 131.69 199.03 124.13 193.99 116.57 199.03"/>
      <polygon class="cls-1" points="118.91 206.87 113.05 216.24 124.02 245.66 134.63 217.41 129.68 206.87 118.91 206.87"/>
      <line class="cls-4" x1="123.84" y1="294.05" x2="123.84" y2="271.52"/>
      <ellipse class="cls-8" cx="104.13" cy="296.8" rx="19.71" ry="9.19"/>
      <ellipse class="cls-8" cx="143.55" cy="296.8" rx="19.71" ry="9.19"/>
      <rect class="cls-3" x="46.05" y="88.9" width="156.08" height="104.26"/>
      <path class="cls-6" d="M165.5,216.64c18.18-7.27,23.84-35.24,26.03-39.2l-14.45-11.55c-4.34,14.08-15.53,27.36-16.69,27.28l5.12,23.47Z"/>
      <circle class="cls-1" cx="123.84" cy="141.03" r="31.61"/>
      <path class="cls-9" d="M63.07,99.65c.15,1.91,2.7,6.31,3.79,10.4,1.3,4.87-1.99,9.14-4.44,9.14s-5.06-4.13-4.44-9.14c.3-2.4,1.82-4.5,2.22-6.46"/>
      <path class="cls-5" d="M198.29,170.76c2.45-8.34-.34-16.5-6.22-18.23-5.89-1.73-12.64,3.64-15.09,11.98-.02.06-.02.13-.04.19-1.96-1.03-3.95-1.23-5.46-.29-2.88,1.79-2.93,6.92-.1,11.48.6.98,1.3,1.82,2.04,2.57,2,2,4.13,3.74,7.18,4.46,2.25.53,4.47.47,6.43-.05,4.74-.87,9.34-5.53,11.27-12.1Z"/>
    </g>
  </g>
</svg>