<?xml version="1.0" encoding="UTF-8"?>
<svg id="_レイヤー_1" data-name="レイヤー 1" xmlns="http://www.w3.org/2000/svg" viewBox="0 0 370 320">
  <defs>
    <style>
      .cls-1 {
        opacity: .2;
      }

      .cls-1, .cls-2, .cls-3, .cls-4, .cls-5, .cls-6, .cls-7, .cls-8, .cls-9, .cls-10 {
        stroke-linecap: round;
        stroke-linejoin: round;
      }

      .cls-1, .cls-2, .cls-4, .cls-5, .cls-6, .cls-7, .cls-8, .cls-9, .cls-10 {
        stroke: #000;
        stroke-width: 2px;
      }

      .cls-2 {
        fill: red;
      }

      .cls-11, .cls-8 {
        opacity: .3;
      }

      .cls-3 {
        stroke: #fff;
        stroke-width: 5px;
      }

      .cls-3, .cls-4 {
        fill: #fff;
      }

      .cls-5 {
        fill: none;
      }

      .cls-6 {
        fill: #804f21;
      }

      .cls-12 {
        fill: #c8bb9b;
      }

      .cls-7 {
        fill: #39b54a;
      }

      .cls-13 {
        fill: #fff000;
      }

      .cls-9 {
        fill: #998675;
      }

      .cls-10 {
        fill: #009fe8;
      }
    </style>
  </defs>
  <g id="_察してください" data-name="察してください">
    <g>
      <path class="cls-3" d="M347.38,40.75c.51.48.83,1.07.95,1.76.13.69,0,1.33-.36,1.93l-1.57,2.62c-.31.54-.78.85-1.4.95-.62.1-1.16-.08-1.61-.53-1.38-1.33-2.63-2.64-3.73-3.94-.06-.06-.11-.07-.15-.04-.04.03-.06.07-.06.13v1.82c0,.65-.24,1.21-.72,1.69s-1.04.72-1.69.72h-4.53c-.25,0-.38.13-.38.38v3.13c0,.65-.23,1.21-.7,1.69-.47.48-1.02.72-1.67.72h-3.05c-.65,0-1.21-.24-1.67-.72-.47-.48-.7-1.04-.7-1.69v-3.13c0-.25-.13-.38-.38-.38h-4.53c-.65,0-1.21-.24-1.69-.72-.48-.48-.72-1.04-.72-1.69v-1.82c0-.06-.04-.09-.11-.11-.07-.01-.12,0-.15.06-1.21,1.44-2.44,2.75-3.68,3.94-.45.42-.99.59-1.61.49-.62-.1-1.09-.42-1.4-.95l-1.57-2.62c-.37-.59-.49-1.23-.36-1.93.13-.69.44-1.28.95-1.76,5.08-4.66,8.92-9.3,11.52-13.93.11-.23.06-.34-.17-.34h-8.85c-.65,0-1.21-.24-1.69-.72-.48-.48-.72-1.04-.72-1.69v-1.74c0-.65.24-1.21.72-1.69s1.04-.72,1.69-.72h12.37c.25,0,.38-.13.38-.38v-3.13c0-.65.23-1.21.7-1.69.47-.48,1.02-.72,1.67-.72h3.05c.65,0,1.21.24,1.67.72.46.48.7,1.04.7,1.69v3.13c0,.25.13.38.38.38h12.36c.65,0,1.21.24,1.69.72.48.48.72,1.04.72,1.69v1.74c0,.65-.24,1.21-.72,1.69s-1.04.72-1.69.72h-8.85c-.23,0-.28.11-.17.34,2.6,4.63,6.44,9.27,11.52,13.93ZM324.34,41.14v-7.54c0-.06-.03-.08-.08-.08s-.1.03-.13.08c-1.81,2.82-3.61,5.36-5.42,7.62-.14.2-.1.3.13.3h5.12c.25,0,.38-.13.38-.38ZM337.64,41.52c.06,0,.1-.04.13-.11.03-.07.03-.13,0-.19-1.89-2.4-3.7-4.97-5.42-7.71-.03-.03-.07-.04-.13-.02-.06.01-.08.05-.08.11v7.54c0,.25.13.38.38.38h5.12Z"/>
      <path class="cls-3" d="M345.72,69.04c.65,0,1.21.24,1.69.72.48.48.72,1.04.72,1.69v.68c0,.65-.24,1.21-.72,1.69s-1.04.72-1.69.72h-34.98c-.65,0-1.21-.24-1.69-.72-.48-.48-.72-1.04-.72-1.69v-.68c0-.65.24-1.21.72-1.69s1.04-.72,1.69-.72h5.76c.08,0,.15-.04.19-.11.04-.07.05-.13.02-.19-.37-.79-.72-1.48-1.06-2.08-.28-.51-.35-1.02-.21-1.52.06-.23-.03-.34-.25-.34h-3.18c-.65,0-1.21-.24-1.69-.72-.48-.48-.72-1.04-.72-1.69v-.89c0-.65.24-1.21.72-1.69s1.04-.72,1.69-.72h11.81c.25,0,.38-.13.38-.38v-.38c0-.65.24-1.21.72-1.69s1.04-.72,1.69-.72h3.22c.65,0,1.21.24,1.69.72.48.48.72,1.04.72,1.69v.38c0,.25.13.38.38.38h11.81c.65,0,1.21.24,1.69.72.48.48.72,1.04.72,1.69v.89c0,.65-.24,1.21-.72,1.69s-1.04.72-1.69.72h-3.43c-.17,0-.23.11-.17.34.23.54.21,1.07-.04,1.61-.11.23-.28.56-.51,1s-.4.77-.51,1c-.03.06-.02.12.02.19.04.07.11.11.19.11h5.72ZM341.28,76.24c.65,0,1.21.24,1.69.72s.72,1.04.72,1.69v14.65c0,.65-.24,1.21-.72,1.69-.48.48-1.04.72-1.69.72h-4.53c-.31,0-.57-.11-.78-.34-.21-.23-.32-.48-.32-.76,0-.11-.06-.17-.17-.17h-14.48c-.11,0-.17.06-.17.17,0,.28-.11.54-.32.76-.21.23-.47.34-.78.34h-4.53c-.65,0-1.21-.24-1.69-.72s-.72-1.04-.72-1.69v-14.65c0-.65.24-1.21.72-1.69.48-.48,1.04-.72,1.69-.72h26.08ZM335.65,82.84v-1.19c0-.23-.13-.34-.38-.34h-14.06c-.25,0-.38.11-.38.34v1.19c0,.25.13.38.38.38h14.06c.25,0,.38-.13.38-.38ZM335.65,89.2v-1.19c0-.23-.13-.34-.38-.34h-14.06c-.25,0-.38.11-.38.34v1.19c0,.25.13.38.38.38h14.06c.25,0,.38-.13.38-.38ZM324.04,67.05c.25.54.28,1.09.08,1.65-.06.23.01.34.21.34h7.79c.23,0,.31-.11.25-.34-.14-.51-.07-1.02.21-1.52.14-.23.49-.92,1.06-2.08.03-.06.02-.12-.02-.19-.04-.07-.11-.11-.19-.11h-10.21c-.23,0-.28.11-.17.34.45.85.78,1.48.97,1.91Z"/>
      <path class="cls-3" d="M317.27,101.39c.62.06,1.11.35,1.48.89s.48,1.12.34,1.74c-.96,4.46-1.44,9.32-1.44,14.57s.48,10.11,1.44,14.57c.14.65.03,1.23-.34,1.76-.37.52-.86.81-1.48.87l-2.75.34c-.68.08-1.3-.07-1.86-.47s-.92-.93-1.06-1.61c-1.04-4.86-1.57-10.01-1.57-15.46s.52-10.6,1.57-15.46c.14-.68.49-1.21,1.06-1.61s1.19-.55,1.86-.47l2.75.34ZM344.45,106.3c.65,0,1.21.24,1.69.72.48.48.72,1.04.72,1.69v1.95c0,.65-.24,1.21-.72,1.69-.48.48-1.04.72-1.69.72h-3.56c-.25,0-.38.13-.38.38v9.36c0,.2.1.4.3.59,1.07.99,2.68,2.6,4.83,4.83.48.48.71,1.06.7,1.74-.01.68-.26,1.26-.74,1.74l-1.48,1.48c-.48.45-1.04.67-1.69.66-.65-.01-1.2-.26-1.65-.74-.23-.23-.54-.56-.93-1.02-.17-.17-.31-.14-.42.08-1.58,2.79-4.46,4.19-8.64,4.19-3.33,0-5.93-.78-7.79-2.35s-2.79-3.75-2.79-6.54.92-4.9,2.75-6.5c1.83-1.59,4.45-2.39,7.83-2.39.62,0,1.2.04,1.74.13.25.06.38-.04.38-.3v-4.95c0-.25-.11-.38-.34-.38h-8.26c-.65,0-1.21-.24-1.69-.72s-.72-1.04-.72-1.69v-1.95c0-.65.24-1.21.72-1.69s1.04-.72,1.69-.72h8.26c.23,0,.34-.13.34-.38v-3.13c0-.65.24-1.21.72-1.69s1.04-.72,1.69-.72h2.79c.65,0,1.21.24,1.69.72.48.48.72,1.04.72,1.69v3.13c0,.25.13.38.38.38h3.56ZM332.89,127.05v-.68c0-.28-.11-.47-.34-.55-.65-.31-1.38-.47-2.2-.47-1.98,0-2.96.71-2.96,2.12s.99,2.12,2.96,2.12c.9,0,1.55-.2,1.95-.59.4-.39.59-1.04.59-1.95Z"/>
      <path class="cls-3" d="M346.66,168.25c.62.23,1.08.63,1.38,1.21.3.58.32,1.17.06,1.76l-1.27,3.05.04.04v3.05c0,.65-.24,1.21-.72,1.69s-1.04.72-1.69.72h-32.44c-.65,0-1.21-.24-1.69-.72-.48-.48-.72-1.04-.72-1.69v-3.05l.04-.04-1.27-3.05c-.23-.59-.2-1.18.08-1.76.28-.58.73-.98,1.35-1.21.99-.31,1.92-.66,2.79-1.06.03-.03.04-.06.04-.08s-.03-.04-.08-.04h-1.48c-.65,0-1.2-.23-1.65-.7-.45-.47-.68-1.01-.68-1.63s.23-1.17.68-1.63c.45-.47,1-.7,1.65-.7h8.21c.23,0,.44-.1.63-.3.03-.03.07-.08.13-.15s.1-.12.13-.15c.11-.17.07-.25-.13-.25h-5.29c-.65,0-1.21-.24-1.69-.72-.48-.48-.72-1.04-.72-1.69v-6.82c0-.65.24-1.21.72-1.69s1.04-.72,1.69-.72h1.86c.25,0,.38-.11.38-.34v-.34c0-.25-.13-.38-.38-.38h-5.46c-.65,0-1.21-.24-1.69-.72-.48-.48-.72-1.04-.72-1.69v-.68c0-.65.24-1.21.72-1.69s1.04-.72,1.69-.72h5.5c.23,0,.34-.11.34-.34,0-.62.21-1.14.63-1.57s.95-.63,1.57-.63h3.22c.62,0,1.14.21,1.57.63.42.42.63.95.63,1.57,0,.23.11.34.34.34h6.52c.23,0,.34-.11.34-.34,0-.62.21-1.14.64-1.57.42-.42.95-.63,1.57-.63h3.22c.62,0,1.14.21,1.57.63.42.42.63.95.63,1.57,0,.23.11.34.34.34h5.5c.65,0,1.21.24,1.69.72.48.48.72,1.04.72,1.69v.68c0,.65-.24,1.21-.72,1.69s-1.04.72-1.69.72h-5.46c-.25,0-.38.13-.38.38v.34c0,.23.13.34.38.34h1.86c.65,0,1.21.24,1.69.72.48.48.72,1.04.72,1.69v6.82c0,.65-.24,1.21-.72,1.69s-1.04.72-1.69.72h-12.96c-.23,0-.41.08-.55.25-.03.03-.07.08-.13.15s-.08.12-.08.15c-.14.2-.1.3.13.3h17.28c.65,0,1.2.23,1.65.7.45.46.68,1.01.68,1.63s-.23,1.16-.68,1.63c-.45.47-1,.7-1.65.7h-1.48c-.06,0-.08.02-.08.06s.03.08.08.11c.56.25,1.48.59,2.75,1.02ZM324.21,173.88v-.3c0-.25-.13-.38-.38-.38h-5.46c-.37,0-.68-.13-.95-.38-.27-.25-.4-.58-.4-.97,0-.14-.06-.18-.17-.13-1.72.88-3.57,1.68-5.55,2.41-.03.03-.04.06-.04.08,0,.03.03.04.08.04h12.49c.25,0,.38-.13.38-.38ZM320.19,153.47v.34c0,.23.13.34.38.34h15.37c.23,0,.34-.11.34-.34v-.34c0-.25-.11-.38-.34-.38h-15.37c-.25,0-.38.13-.38.38ZM320.19,157.79c0,.25.13.38.38.38h15.37c.23,0,.34-.13.34-.38v-.34c0-.23-.11-.34-.34-.34h-15.37c-.25,0-.38.11-.38.34v.34ZM331.16,167.7c.31,0,.57.11.78.34.21.23.32.48.32.76,0,.11.06.17.17.17h2.41c.06,0,.1-.03.13-.08.03-.06.01-.1-.04-.13-.71-.51-1.3-.99-1.78-1.44-.17-.17-.38-.25-.64-.25h-8.51c-.2,0-.4.07-.59.21-.62.57-1.21,1.06-1.78,1.48-.06.03-.08.07-.06.13.01.06.05.08.11.08h2.37c.11,0,.17-.06.17-.17,0-.28.11-.54.32-.76.21-.23.47-.34.78-.34h5.84ZM324.64,149.24v.34c0,.23.13.34.38.34h6.44c.25,0,.38-.11.38-.34v-.34c0-.25-.13-.38-.38-.38h-6.44c-.25,0-.38.13-.38.38ZM345.13,174.26s.05-.01.06-.04c.01-.03,0-.06-.02-.08-1.98-.73-3.83-1.54-5.55-2.41-.11-.06-.17-.03-.17.08,0,.37-.13.69-.4.97-.27.28-.6.42-1,.42h-5.42c-.25,0-.38.13-.38.38v.3c0,.25.13.38.38.38h12.49Z"/>
      <path class="cls-3" d="M345.72,200.94c.65,0,1.21.24,1.69.72.48.48.72,1.04.72,1.69v.04c0,.65-.24,1.21-.72,1.69s-1.04.72-1.69.72h-14.74c-.25,0-.45.08-.59.25-.28.34-.51.59-.68.76-.06.11-.01.2.13.25h15.03c.65,0,1.21.24,1.69.72.48.48.72,1.04.72,1.69v2.24c0,2.54-.08,4.52-.23,5.93s-.48,2.53-.97,3.37c-.49.83-1.1,1.36-1.82,1.59-.72.23-1.76.34-3.11.34-.4,0-1.44-.03-3.13-.08-.68-.03-1.26-.29-1.74-.78-.48-.49-.75-1.08-.8-1.76l-.08-1.19c0-.06-.04-.1-.11-.13s-.13-.01-.19.04c-1.19,1.16-2.31,2.14-3.39,2.96-.59.42-1.24.61-1.93.55-.69-.06-1.31-.33-1.84-.8l-.47-.38c-.45-.4-.65-.89-.59-1.48s.32-1.07.8-1.44c2.74-1.98,5.01-4.12,6.82-6.44.14-.2.1-.3-.13-.3h-.63c-.23,0-.42.08-.59.25-2.71,3.13-6.04,5.8-9.99,8-.62.34-1.28.44-1.97.3-.69-.14-1.29-.47-1.8-.97l-.3-.34c-.4-.42-.54-.92-.42-1.48.11-.56.44-.99.97-1.27,2.51-1.24,4.73-2.67,6.65-4.28.06-.03.07-.07.04-.13-.03-.06-.07-.08-.13-.08h-1.95c-.2,0-.41.07-.63.21-.2.14-.49.33-.89.55-.11.08-.23.14-.34.17-.2.08-.35.25-.47.51-.31.9-.89,1.54-1.74,1.91-3.05,1.38-6.03,2.53-8.93,3.43-.62.2-1.19.12-1.69-.23-.51-.35-.8-.85-.89-1.5l-.25-2.03c-.08-.68.08-1.28.49-1.82s.95-.88,1.63-1.02c.06,0,.13-.01.23-.04.1-.03.18-.04.23-.04.2-.03.3-.17.3-.42v-9.87c0-.25-.11-.38-.34-.38h-.21c-.65,0-1.21-.24-1.69-.72-.48-.48-.72-1.04-.72-1.69v-1.52c0-.65.24-1.21.72-1.69.48-.48,1.04-.72,1.69-.72h.21c.23,0,.34-.13.34-.38v-7.58c0-.65.24-1.21.72-1.69.48-.48,1.04-.72,1.69-.72h2.58c.65,0,1.21.24,1.69.72s.72,1.04.72,1.69v7.58c0,.25.13.38.38.38h1.23c.45,0,.87.11,1.27.34.2.14.3.1.3-.13v-8.17c0-.65.24-1.21.72-1.69.48-.48,1.04-.72,1.69-.72h19.52c.65,0,1.21.24,1.69.72s.72,1.04.72,1.69v10.42c0,.65-.24,1.21-.72,1.69s-1.04.72-1.69.72h-19.52c-.48,0-.92-.13-1.31-.38-.17-.11-.28-.07-.34.13-.14.51-.43.92-.87,1.25-.44.33-.93.49-1.46.49h-1.23c-.25,0-.38.13-.38.38v7.62c0,.06.02.1.06.13s.09.03.15,0c.17-.17.31-.28.42-.34,1.5-.88,2.91-1.85,4.23-2.92.06-.03.07-.07.04-.13-.03-.06-.07-.08-.13-.08h-.47c-.65,0-1.21-.24-1.69-.72-.48-.48-.72-1.04-.72-1.69v-.04c0-.65.24-1.21.72-1.69s1.04-.72,1.69-.72h22.7ZM329.3,190.31v.76c0,.23.13.34.38.34h8.38c.23,0,.34-.11.34-.34v-.76c0-.25-.11-.38-.34-.38h-8.38c-.25,0-.38.13-.38.38ZM329.3,194.97v.76c0,.23.13.34.38.34h8.38c.23,0,.34-.11.34-.34v-.76c0-.25-.11-.38-.34-.38h-8.38c-.25,0-.38.13-.38.38ZM337.34,216.69c-.14.2-.1.3.13.3.42.03.95.04,1.57.04s1.04-.18,1.16-.55.19-1.52.19-3.47c0-.06-.03-.1-.08-.13-.06-.03-.1-.01-.13.04-.99,1.5-1.93,2.75-2.84,3.77Z"/>
      <path class="cls-3" d="M342.76,230.37c.65,0,1.21.24,1.69.72.48.48.72,1.04.72,1.69v1.95c0,.65-.24,1.21-.72,1.69s-1.04.72-1.69.72h-7.37c-.25,0-.38.13-.38.38v.97c0,.23.13.34.38.34h5.67c.65,0,1.21.24,1.69.72.48.48.72,1.04.72,1.69v1.74c0,.65-.24,1.21-.72,1.69-.48.48-1.04.72-1.69.72h-5.67c-.25,0-.38.13-.38.38v4.4c0,.25.11.45.34.59,2.34,1.47,4.74,3.3,7.2,5.5.48.45.74,1.01.78,1.67.04.66-.16,1.24-.61,1.71l-1.44,1.52c-.45.48-1,.74-1.65.78-.65.04-1.21-.16-1.69-.61-1.07-.99-2.16-1.92-3.26-2.79-.17-.17-.33-.13-.47.13-.68,1.81-1.88,3.11-3.6,3.92-1.72.8-4.07,1.21-7.03,1.21-3.19,0-5.68-.74-7.47-2.22-1.79-1.48-2.69-3.56-2.69-6.25s.88-4.62,2.62-6.08c1.75-1.45,4.26-2.18,7.54-2.18,1.24,0,2.4.1,3.47.3.23.06.34-.04.34-.3v-1.31c0-.25-.11-.38-.34-.38h-11.64c-.65,0-1.21-.24-1.69-.72-.48-.48-.72-1.04-.72-1.69v-1.74c0-.65.24-1.21.72-1.69.48-.48,1.04-.72,1.69-.72h11.64c.23,0,.34-.11.34-.34v-.97c0-.25-.11-.38-.34-.38h-13.34c-.65,0-1.21-.24-1.69-.72-.48-.48-.72-1.04-.72-1.69v-1.95c0-.65.24-1.21.72-1.69s1.04-.72,1.69-.72h13.34c.23,0,.34-.13.34-.38v-.59c0-.65.24-1.21.72-1.69s1.04-.72,1.69-.72h2.79c.65,0,1.21.24,1.69.72.48.48.72,1.04.72,1.69v.59c0,.25.13.38.38.38h7.37ZM323.58,257.05c1.44,0,2.41-.16,2.9-.47s.78-.99.87-2.03c0-.25-.08-.39-.25-.42-1.02-.31-1.91-.47-2.67-.47-2.26,0-3.39.56-3.39,1.69s.85,1.69,2.54,1.69Z"/>
      <path class="cls-3" d="M340.77,300.58l.3,2.58c.08.68-.07,1.28-.47,1.82-.4.54-.93.85-1.61.93-1.3.17-2.62.25-3.98.25-5.19,0-9.35-1.33-12.47-4-3.12-2.67-4.68-6.27-4.68-10.82,0-2.12.56-4.23,1.69-6.35s2.67-3.92,4.62-5.42c.03,0,.04-.03.04-.08,0-.03-.01-.04-.04-.04-4.04.11-8.06.2-12.07.25-.65,0-1.21-.24-1.67-.72-.47-.48-.7-1.04-.7-1.69v-2.37c0-.65.23-1.21.7-1.69.47-.48,1.02-.72,1.67-.72,10.92-.06,21.11-.3,30.57-.72.65-.03,1.22.18,1.71.63.49.45.75,1,.78,1.65l.04,2.37c.03.68-.18,1.26-.63,1.76-.45.49-1.02.77-1.69.83-5.42.54-9.5,1.82-12.24,3.85-2.74,2.03-4.11,4.57-4.11,7.62,0,2.57.82,4.59,2.46,6.06s3.78,2.2,6.44,2.2c.88,0,1.75-.06,2.62-.17.68-.08,1.28.06,1.8.44s.83.9.91,1.55ZM339.67,285.21c.31.57.78,1.44,1.4,2.62.28.59.31,1.2.08,1.82-.23.62-.64,1.07-1.23,1.35-.62.28-1.24.31-1.86.08-.62-.23-1.09-.63-1.4-1.23-.14-.25-.59-1.09-1.35-2.5-.31-.56-.37-1.16-.17-1.78.2-.62.59-1.09,1.19-1.4h.04c.59-.31,1.21-.37,1.86-.17.65.2,1.13.59,1.44,1.19ZM346.45,283.68c.93,1.78,1.41,2.7,1.44,2.75.31.59.36,1.2.15,1.82-.21.62-.61,1.07-1.21,1.36l-.13.08c-.59.28-1.21.32-1.84.11-.64-.21-1.11-.61-1.42-1.21-.14-.28-.37-.72-.68-1.31s-.55-1.03-.72-1.31c-.31-.56-.37-1.17-.19-1.82s.57-1.11,1.16-1.4l.13-.04c.59-.31,1.21-.37,1.86-.19s1.13.57,1.44,1.16Z"/>
    </g>
    <g>
      <path d="M347.38,40.75c.51.48.83,1.07.95,1.76.13.69,0,1.33-.36,1.93l-1.57,2.62c-.31.54-.78.85-1.4.95-.62.1-1.16-.08-1.61-.53-1.38-1.33-2.63-2.64-3.73-3.94-.06-.06-.11-.07-.15-.04-.04.03-.06.07-.06.13v1.82c0,.65-.24,1.21-.72,1.69s-1.04.72-1.69.72h-4.53c-.25,0-.38.13-.38.38v3.13c0,.65-.23,1.21-.7,1.69-.47.48-1.02.72-1.67.72h-3.05c-.65,0-1.21-.24-1.67-.72-.47-.48-.7-1.04-.7-1.69v-3.13c0-.25-.13-.38-.38-.38h-4.53c-.65,0-1.21-.24-1.69-.72-.48-.48-.72-1.04-.72-1.69v-1.82c0-.06-.04-.09-.11-.11-.07-.01-.12,0-.15.06-1.21,1.44-2.44,2.75-3.68,3.94-.45.42-.99.59-1.61.49-.62-.1-1.09-.42-1.4-.95l-1.57-2.62c-.37-.59-.49-1.23-.36-1.93.13-.69.44-1.28.95-1.76,5.08-4.66,8.92-9.3,11.52-13.93.11-.23.06-.34-.17-.34h-8.85c-.65,0-1.21-.24-1.69-.72-.48-.48-.72-1.04-.72-1.69v-1.74c0-.65.24-1.21.72-1.69s1.04-.72,1.69-.72h12.37c.25,0,.38-.13.38-.38v-3.13c0-.65.23-1.21.7-1.69.47-.48,1.02-.72,1.67-.72h3.05c.65,0,1.21.24,1.67.72.46.48.7,1.04.7,1.69v3.13c0,.25.13.38.38.38h12.36c.65,0,1.21.24,1.69.72.48.48.72,1.04.72,1.69v1.74c0,.65-.24,1.21-.72,1.69s-1.04.72-1.69.72h-8.85c-.23,0-.28.11-.17.34,2.6,4.63,6.44,9.27,11.52,13.93ZM324.34,41.13v-7.54c0-.06-.03-.08-.08-.08s-.1.03-.13.08c-1.81,2.82-3.61,5.36-5.42,7.62-.14.2-.1.3.13.3h5.12c.25,0,.38-.13.38-.38ZM337.64,41.51c.06,0,.1-.04.13-.11.03-.07.03-.13,0-.19-1.89-2.4-3.7-4.97-5.42-7.71-.03-.03-.07-.04-.13-.02-.06.01-.08.05-.08.11v7.54c0,.25.13.38.38.38h5.12Z"/>
      <path d="M345.72,69.04c.65,0,1.21.24,1.69.72.48.48.72,1.04.72,1.69v.68c0,.65-.24,1.21-.72,1.69s-1.04.72-1.69.72h-34.98c-.65,0-1.21-.24-1.69-.72-.48-.48-.72-1.04-.72-1.69v-.68c0-.65.24-1.21.72-1.69s1.04-.72,1.69-.72h5.76c.08,0,.15-.04.19-.11.04-.07.05-.13.02-.19-.37-.79-.72-1.48-1.06-2.08-.28-.51-.35-1.02-.21-1.52.06-.23-.03-.34-.25-.34h-3.18c-.65,0-1.21-.24-1.69-.72-.48-.48-.72-1.04-.72-1.69v-.89c0-.65.24-1.21.72-1.69s1.04-.72,1.69-.72h11.81c.25,0,.38-.13.38-.38v-.38c0-.65.24-1.21.72-1.69s1.04-.72,1.69-.72h3.22c.65,0,1.21.24,1.69.72.48.48.72,1.04.72,1.69v.38c0,.25.13.38.38.38h11.81c.65,0,1.21.24,1.69.72.48.48.72,1.04.72,1.69v.89c0,.65-.24,1.21-.72,1.69s-1.04.72-1.69.72h-3.43c-.17,0-.23.11-.17.34.23.54.21,1.07-.04,1.61-.11.23-.28.56-.51,1s-.4.77-.51,1c-.03.06-.02.12.02.19.04.07.11.11.19.11h5.72ZM341.28,76.24c.65,0,1.21.24,1.69.72s.72,1.04.72,1.69v14.65c0,.65-.24,1.21-.72,1.69-.48.48-1.04.72-1.69.72h-4.53c-.31,0-.57-.11-.78-.34-.21-.23-.32-.48-.32-.76,0-.11-.06-.17-.17-.17h-14.48c-.11,0-.17.06-.17.17,0,.28-.11.54-.32.76-.21.23-.47.34-.78.34h-4.53c-.65,0-1.21-.24-1.69-.72s-.72-1.04-.72-1.69v-14.65c0-.65.24-1.21.72-1.69.48-.48,1.04-.72,1.69-.72h26.08ZM335.65,82.84v-1.19c0-.23-.13-.34-.38-.34h-14.06c-.25,0-.38.11-.38.34v1.19c0,.25.13.38.38.38h14.06c.25,0,.38-.13.38-.38ZM335.65,89.19v-1.19c0-.23-.13-.34-.38-.34h-14.06c-.25,0-.38.11-.38.34v1.19c0,.25.13.38.38.38h14.06c.25,0,.38-.13.38-.38ZM324.04,67.05c.25.54.28,1.09.08,1.65-.06.23.01.34.21.34h7.79c.23,0,.31-.11.25-.34-.14-.51-.07-1.02.21-1.52.14-.23.49-.92,1.06-2.08.03-.06.02-.12-.02-.19-.04-.07-.11-.11-.19-.11h-10.21c-.23,0-.28.11-.17.34.45.85.78,1.48.97,1.91Z"/>
      <path d="M317.27,101.39c.62.06,1.11.35,1.48.89s.48,1.12.34,1.74c-.96,4.46-1.44,9.32-1.44,14.57s.48,10.11,1.44,14.57c.14.65.03,1.23-.34,1.76-.37.52-.86.81-1.48.87l-2.75.34c-.68.08-1.3-.07-1.86-.47s-.92-.93-1.06-1.61c-1.04-4.86-1.57-10.01-1.57-15.46s.52-10.6,1.57-15.46c.14-.68.49-1.21,1.06-1.61s1.19-.55,1.86-.47l2.75.34ZM344.45,106.3c.65,0,1.21.24,1.69.72.48.48.72,1.04.72,1.69v1.95c0,.65-.24,1.21-.72,1.69-.48.48-1.04.72-1.69.72h-3.56c-.25,0-.38.13-.38.38v9.36c0,.2.1.4.3.59,1.07.99,2.68,2.6,4.83,4.83.48.48.71,1.06.7,1.74-.01.68-.26,1.26-.74,1.74l-1.48,1.48c-.48.45-1.04.67-1.69.66-.65-.01-1.2-.26-1.65-.74-.23-.23-.54-.56-.93-1.02-.17-.17-.31-.14-.42.08-1.58,2.79-4.46,4.19-8.64,4.19-3.33,0-5.93-.78-7.79-2.35s-2.79-3.75-2.79-6.54.92-4.9,2.75-6.5c1.83-1.59,4.45-2.39,7.83-2.39.62,0,1.2.04,1.74.13.25.06.38-.04.38-.3v-4.95c0-.25-.11-.38-.34-.38h-8.26c-.65,0-1.21-.24-1.69-.72s-.72-1.04-.72-1.69v-1.95c0-.65.24-1.21.72-1.69s1.04-.72,1.69-.72h8.26c.23,0,.34-.13.34-.38v-3.13c0-.65.24-1.21.72-1.69s1.04-.72,1.69-.72h2.79c.65,0,1.21.24,1.69.72.48.48.72,1.04.72,1.69v3.13c0,.25.13.38.38.38h3.56ZM332.89,127.05v-.68c0-.28-.11-.47-.34-.55-.65-.31-1.38-.47-2.2-.47-1.98,0-2.96.71-2.96,2.12s.99,2.12,2.96,2.12c.9,0,1.55-.2,1.95-.59.4-.39.59-1.04.59-1.95Z"/>
      <path d="M346.66,168.25c.62.23,1.08.63,1.38,1.21.3.58.32,1.17.06,1.76l-1.27,3.05.04.04v3.05c0,.65-.24,1.21-.72,1.69s-1.04.72-1.69.72h-32.44c-.65,0-1.21-.24-1.69-.72-.48-.48-.72-1.04-.72-1.69v-3.05l.04-.04-1.27-3.05c-.23-.59-.2-1.18.08-1.76.28-.58.73-.98,1.35-1.21.99-.31,1.92-.66,2.79-1.06.03-.03.04-.06.04-.08s-.03-.04-.08-.04h-1.48c-.65,0-1.2-.23-1.65-.7-.45-.47-.68-1.01-.68-1.63s.23-1.17.68-1.63c.45-.47,1-.7,1.65-.7h8.21c.23,0,.44-.1.63-.3.03-.03.07-.08.13-.15s.1-.12.13-.15c.11-.17.07-.25-.13-.25h-5.29c-.65,0-1.21-.24-1.69-.72-.48-.48-.72-1.04-.72-1.69v-6.82c0-.65.24-1.21.72-1.69s1.04-.72,1.69-.72h1.86c.25,0,.38-.11.38-.34v-.34c0-.25-.13-.38-.38-.38h-5.46c-.65,0-1.21-.24-1.69-.72-.48-.48-.72-1.04-.72-1.69v-.68c0-.65.24-1.21.72-1.69s1.04-.72,1.69-.72h5.5c.23,0,.34-.11.34-.34,0-.62.21-1.14.63-1.57s.95-.63,1.57-.63h3.22c.62,0,1.14.21,1.57.63.42.42.63.95.63,1.57,0,.23.11.34.34.34h6.52c.23,0,.34-.11.34-.34,0-.62.21-1.14.64-1.57.42-.42.95-.63,1.57-.63h3.22c.62,0,1.14.21,1.57.63.42.42.63.95.63,1.57,0,.23.11.34.34.34h5.5c.65,0,1.21.24,1.69.72.48.48.72,1.04.72,1.69v.68c0,.65-.24,1.21-.72,1.69s-1.04.72-1.69.72h-5.46c-.25,0-.38.13-.38.38v.34c0,.23.13.34.38.34h1.86c.65,0,1.21.24,1.69.72.48.48.72,1.04.72,1.69v6.82c0,.65-.24,1.21-.72,1.69s-1.04.72-1.69.72h-12.96c-.23,0-.41.08-.55.25-.03.03-.07.08-.13.15s-.08.12-.08.15c-.14.2-.1.3.13.3h17.28c.65,0,1.2.23,1.65.7.45.46.68,1.01.68,1.63s-.23,1.16-.68,1.63c-.45.47-1,.7-1.65.7h-1.48c-.06,0-.08.02-.08.06s.03.08.08.11c.56.25,1.48.59,2.75,1.02ZM324.21,173.88v-.3c0-.25-.13-.38-.38-.38h-5.46c-.37,0-.68-.13-.95-.38-.27-.25-.4-.58-.4-.97,0-.14-.06-.18-.17-.13-1.72.88-3.57,1.68-5.55,2.41-.03.03-.04.06-.04.08,0,.03.03.04.08.04h12.49c.25,0,.38-.13.38-.38ZM320.19,153.47v.34c0,.23.13.34.38.34h15.37c.23,0,.34-.11.34-.34v-.34c0-.25-.11-.38-.34-.38h-15.37c-.25,0-.38.13-.38.38ZM320.19,157.79c0,.25.13.38.38.38h15.37c.23,0,.34-.13.34-.38v-.34c0-.23-.11-.34-.34-.34h-15.37c-.25,0-.38.11-.38.34v.34ZM331.16,167.7c.31,0,.57.11.78.34.21.23.32.48.32.76,0,.11.06.17.17.17h2.41c.06,0,.1-.03.13-.08.03-.06.01-.1-.04-.13-.71-.51-1.3-.99-1.78-1.44-.17-.17-.38-.25-.64-.25h-8.51c-.2,0-.4.07-.59.21-.62.57-1.21,1.06-1.78,1.48-.06.03-.08.07-.06.13.01.06.05.08.11.08h2.37c.11,0,.17-.06.17-.17,0-.28.11-.54.32-.76.21-.23.47-.34.78-.34h5.84ZM324.64,149.24v.34c0,.23.13.34.38.34h6.44c.25,0,.38-.11.38-.34v-.34c0-.25-.13-.38-.38-.38h-6.44c-.25,0-.38.13-.38.38ZM345.13,174.26s.05-.01.06-.04c.01-.03,0-.06-.02-.08-1.98-.73-3.83-1.54-5.55-2.41-.11-.06-.17-.03-.17.08,0,.37-.13.69-.4.97-.27.28-.6.42-1,.42h-5.42c-.25,0-.38.13-.38.38v.3c0,.25.13.38.38.38h12.49Z"/>
      <path d="M345.72,200.94c.65,0,1.21.24,1.69.72.48.48.72,1.04.72,1.69v.04c0,.65-.24,1.21-.72,1.69s-1.04.72-1.69.72h-14.74c-.25,0-.45.08-.59.25-.28.34-.51.59-.68.76-.06.11-.01.2.13.25h15.03c.65,0,1.21.24,1.69.72.48.48.72,1.04.72,1.69v2.24c0,2.54-.08,4.52-.23,5.93s-.48,2.53-.97,3.37c-.49.83-1.1,1.36-1.82,1.59-.72.23-1.76.34-3.11.34-.4,0-1.44-.03-3.13-.08-.68-.03-1.26-.29-1.74-.78-.48-.49-.75-1.08-.8-1.76l-.08-1.19c0-.06-.04-.1-.11-.13s-.13-.01-.19.04c-1.19,1.16-2.31,2.14-3.39,2.96-.59.42-1.24.61-1.93.55-.69-.06-1.31-.33-1.84-.8l-.47-.38c-.45-.4-.65-.89-.59-1.48s.32-1.07.8-1.44c2.74-1.98,5.01-4.12,6.82-6.44.14-.2.1-.3-.13-.3h-.63c-.23,0-.42.08-.59.25-2.71,3.13-6.04,5.8-9.99,8-.62.34-1.28.44-1.97.3-.69-.14-1.29-.47-1.8-.97l-.3-.34c-.4-.42-.54-.92-.42-1.48.11-.56.44-.99.97-1.27,2.51-1.24,4.73-2.67,6.65-4.28.06-.03.07-.07.04-.13-.03-.06-.07-.08-.13-.08h-1.95c-.2,0-.41.07-.63.21-.2.14-.49.33-.89.55-.11.08-.23.14-.34.17-.2.08-.35.25-.47.51-.31.9-.89,1.54-1.74,1.91-3.05,1.38-6.03,2.53-8.93,3.43-.62.2-1.19.12-1.69-.23-.51-.35-.8-.85-.89-1.5l-.25-2.03c-.08-.68.08-1.28.49-1.82s.95-.88,1.63-1.02c.06,0,.13-.01.23-.04.1-.03.18-.04.23-.04.2-.03.3-.17.3-.42v-9.87c0-.25-.11-.38-.34-.38h-.21c-.65,0-1.21-.24-1.69-.72-.48-.48-.72-1.04-.72-1.69v-1.52c0-.65.24-1.21.72-1.69.48-.48,1.04-.72,1.69-.72h.21c.23,0,.34-.13.34-.38v-7.58c0-.65.24-1.21.72-1.69.48-.48,1.04-.72,1.69-.72h2.58c.65,0,1.21.24,1.69.72s.72,1.04.72,1.69v7.58c0,.25.13.38.38.38h1.23c.45,0,.87.11,1.27.34.2.14.3.1.3-.13v-8.17c0-.65.24-1.21.72-1.69.48-.48,1.04-.72,1.69-.72h19.52c.65,0,1.21.24,1.69.72s.72,1.04.72,1.69v10.42c0,.65-.24,1.21-.72,1.69s-1.04.72-1.69.72h-19.52c-.48,0-.92-.13-1.31-.38-.17-.11-.28-.07-.34.13-.14.51-.43.92-.87,1.25-.44.33-.93.49-1.46.49h-1.23c-.25,0-.38.13-.38.38v7.62c0,.06.02.1.06.13s.09.03.15,0c.17-.17.31-.28.42-.34,1.5-.88,2.91-1.85,4.23-2.92.06-.03.07-.07.04-.13-.03-.06-.07-.08-.13-.08h-.47c-.65,0-1.21-.24-1.69-.72-.48-.48-.72-1.04-.72-1.69v-.04c0-.65.24-1.21.72-1.69s1.04-.72,1.69-.72h22.7ZM329.3,190.31v.76c0,.23.13.34.38.34h8.38c.23,0,.34-.11.34-.34v-.76c0-.25-.11-.38-.34-.38h-8.38c-.25,0-.38.13-.38.38ZM329.3,194.97v.76c0,.23.13.34.38.34h8.38c.23,0,.34-.11.34-.34v-.76c0-.25-.11-.38-.34-.38h-8.38c-.25,0-.38.13-.38.38ZM337.34,216.69c-.14.2-.1.3.13.3.42.03.95.04,1.57.04s1.04-.18,1.16-.55.19-1.52.19-3.47c0-.06-.03-.1-.08-.13-.06-.03-.1-.01-.13.04-.99,1.5-1.93,2.75-2.84,3.77Z"/>
      <path d="M342.76,230.37c.65,0,1.21.24,1.69.72.48.48.72,1.04.72,1.69v1.95c0,.65-.24,1.21-.72,1.69s-1.04.72-1.69.72h-7.37c-.25,0-.38.13-.38.38v.97c0,.23.13.34.38.34h5.67c.65,0,1.21.24,1.69.72.48.48.72,1.04.72,1.69v1.74c0,.65-.24,1.21-.72,1.69-.48.48-1.04.72-1.69.72h-5.67c-.25,0-.38.13-.38.38v4.4c0,.25.11.45.34.59,2.34,1.47,4.74,3.3,7.2,5.5.48.45.74,1.01.78,1.67.04.66-.16,1.24-.61,1.71l-1.44,1.52c-.45.48-1,.74-1.65.78-.65.04-1.21-.16-1.69-.61-1.07-.99-2.16-1.92-3.26-2.79-.17-.17-.33-.13-.47.13-.68,1.81-1.88,3.11-3.6,3.92-1.72.8-4.07,1.21-7.03,1.21-3.19,0-5.68-.74-7.47-2.22-1.79-1.48-2.69-3.56-2.69-6.25s.88-4.62,2.62-6.08c1.75-1.45,4.26-2.18,7.54-2.18,1.24,0,2.4.1,3.47.3.23.06.34-.04.34-.3v-1.31c0-.25-.11-.38-.34-.38h-11.64c-.65,0-1.21-.24-1.69-.72-.48-.48-.72-1.04-.72-1.69v-1.74c0-.65.24-1.21.72-1.69.48-.48,1.04-.72,1.69-.72h11.64c.23,0,.34-.11.34-.34v-.97c0-.25-.11-.38-.34-.38h-13.34c-.65,0-1.21-.24-1.69-.72-.48-.48-.72-1.04-.72-1.69v-1.95c0-.65.24-1.21.72-1.69s1.04-.72,1.69-.72h13.34c.23,0,.34-.13.34-.38v-.59c0-.65.24-1.21.72-1.69s1.04-.72,1.69-.72h2.79c.65,0,1.21.24,1.69.72.48.48.72,1.04.72,1.69v.59c0,.25.13.38.38.38h7.37ZM323.58,257.04c1.44,0,2.41-.16,2.9-.47s.78-.99.87-2.03c0-.25-.08-.39-.25-.42-1.02-.31-1.91-.47-2.67-.47-2.26,0-3.39.56-3.39,1.69s.85,1.69,2.54,1.69Z"/>
      <path d="M340.77,300.58l.3,2.58c.08.68-.07,1.28-.47,1.82-.4.54-.93.85-1.61.93-1.3.17-2.62.25-3.98.25-5.19,0-9.35-1.33-12.47-4-3.12-2.67-4.68-6.27-4.68-10.82,0-2.12.56-4.23,1.69-6.35s2.67-3.92,4.62-5.42c.03,0,.04-.03.04-.08,0-.03-.01-.04-.04-.04-4.04.11-8.06.2-12.07.25-.65,0-1.21-.24-1.67-.72-.47-.48-.7-1.04-.7-1.69v-2.37c0-.65.23-1.21.7-1.69.47-.48,1.02-.72,1.67-.72,10.92-.06,21.11-.3,30.57-.72.65-.03,1.22.18,1.71.63.49.45.75,1,.78,1.65l.04,2.37c.03.68-.18,1.26-.63,1.76-.45.49-1.02.77-1.69.83-5.42.54-9.5,1.82-12.24,3.85-2.74,2.03-4.11,4.57-4.11,7.62,0,2.57.82,4.59,2.46,6.06s3.78,2.2,6.44,2.2c.88,0,1.75-.06,2.62-.17.68-.08,1.28.06,1.8.44s.83.9.91,1.55ZM339.67,285.2c.31.57.78,1.44,1.4,2.62.28.59.31,1.2.08,1.82-.23.62-.64,1.07-1.23,1.35-.62.28-1.24.31-1.86.08-.62-.23-1.09-.63-1.4-1.23-.14-.25-.59-1.09-1.35-2.5-.31-.56-.37-1.16-.17-1.78.2-.62.59-1.09,1.19-1.4h.04c.59-.31,1.21-.37,1.86-.17.65.2,1.13.59,1.44,1.19ZM346.45,283.68c.93,1.78,1.41,2.7,1.44,2.75.31.59.36,1.2.15,1.82-.21.62-.61,1.07-1.21,1.36l-.13.08c-.59.28-1.21.32-1.84.11-.64-.21-1.11-.61-1.42-1.21-.14-.28-.37-.72-.68-1.31s-.55-1.03-.72-1.31c-.31-.56-.37-1.17-.19-1.82s.57-1.11,1.16-1.4l.13-.04c.59-.31,1.21-.37,1.86-.19s1.13.57,1.44,1.16Z"/>
    </g>
    <path class="cls-8" d="M122.19,241.72s12.21,11.75,11.54,31.27l3.79-2.21s-1.79-23.02-13.52-30.35l-1.81,1.29Z"/>
    <g class="cls-11">
      <path d="M125.59,237.65c11.64-18.72-12.33-19.5-1.94-.06-10.39-19.43-23.05.93-1.03,1.65-22.03-.72-10.72,20.43.92,1.71-11.64,18.72,12.33,19.5,1.94.06,10.39,19.43,23.05-.93,1.03-1.65,22.03.72,10.72-20.43-.92-1.71Z"/>
      <path class="cls-5" d="M125.59,237.65c11.64-18.72-12.33-19.5-1.94-.06-10.39-19.43-23.05.93-1.03,1.65-22.03-.72-10.72,20.43.92,1.71-11.64,18.72,12.33,19.5,1.94.06,10.39,19.43,23.05-.93,1.03-1.65,22.03.72,10.72-20.43-.92-1.71Z"/>
    </g>
    <path class="cls-7" d="M120.2,242.24s12.21,11.75,11.54,31.27l3.79-2.21s-1.79-23.02-13.52-30.35l-1.81,1.29Z"/>
    <g>
      <path class="cls-13" d="M123.59,238.16c11.64-18.72-12.33-19.5-1.94-.06-10.39-19.43-23.05.93-1.03,1.65-22.03-.72-10.72,20.43.92,1.71-11.64,18.72,12.33,19.5,1.94.06,10.39,19.43,23.05-.93,1.03-1.65,22.03.72,10.72-20.43-.92-1.71Z"/>
      <path class="cls-5" d="M123.59,238.16c11.64-18.72-12.33-19.5-1.94-.06-10.39-19.43-23.05.93-1.03,1.65-22.03-.72-10.72,20.43.92,1.71-11.64,18.72,12.33,19.5,1.94.06,10.39,19.43,23.05-.93,1.03-1.65,22.03.72,10.72-20.43-.92-1.71Z"/>
    </g>
    <circle class="cls-7" cx="122.57" cy="239.81" r="3.27"/>
    <ellipse class="cls-8" cx="194.92" cy="300.44" rx="108.39" ry="7"/>
    <path class="cls-9" d="M198.47,128.01c-30.03,0-54.37,18.72-54.37,41.82v111.15h108.73v-111.15c0-23.1-24.34-41.82-54.37-41.82Z"/>
    <path class="cls-12" d="M193.79,129.79c-26.83,0-48.58,18.51-48.58,41.33v109.86h97.15v-109.86c0-22.83-21.75-41.33-48.58-41.33Z"/>
    <path class="cls-6" d="M277.27,301.59c0-29.68-36.87-53.73-82.35-53.73s-82.35,24.06-82.35,53.73h164.7Z"/>
    <g>
      <path d="M203.44,168.45c-.69,0-1.35-.38-2.49-1.66-2.11-2.32-6.2-7.86-7.79-12.16,0,0,.03,8.69.14,12.29,1-.03,2.77.03,3.6.07,1.7.03,2.53.62,2.53,1.35,0,.38-.21.8-.66,1.32-1.32-.55-3.22-.69-5.4-.66-.03,1.42.07,3.98-.03,5.19-.1,1.28-.55,2.04-1.21,2.04-1.35,0-1.84-1.32-1.84-2.84v-4.23c-1.45.03-3.46.62-4.67,1-.35.1-.66-.07-.93-.21-.48-.76-.48-1.63.21-2.29,1.21-.21,3.91-.52,5.4-.59-.07-3.36,0-11.43,0-11.43-1.73,3.95-6.2,10.01-9.97,12.29-.42.24-2.46,1.39-3.29,1.32,1.32-1.32,2.36-2.63,3.57-4.12,3.12-3.74,5.33-7.58,7.27-11.22-2.15.14-5.75,1.07-7.48,1.49-1.18.28-1.21-1.7-.97-2.46,2.49-.76,8-1.32,10.74-1.39.03-1.9-.17-4.5-.1-5.99.03-.59.48-.87,1.14-.87.87,0,2.01.59,2.32,1.14-.14,1.7-.28,3.81-.21,5.51,3.39,0,8.45.1,10.74.38.38.59.69,1.45.31,2.11-.24.17-.52.28-.83.24-2.39-.31-6.82-.52-9.32-.52,2.32,5.23,9.04,10.74,13.02,13.02-.83.73-2.46,1.84-3.78,1.84Z"/>
      <path d="M206.42,195.26c-1.01.35-2.36.14-3.53,0-6.06-.62-15.83-.69-21.47.42-.93.17-1.9.48-3.15.48-.83-.48-1.21-1.42-.62-2.29,2.8-.73,9.7-1.21,15.31-1.28.62-1.18,1.49-3.36,2.63-6.79.66-.17,3.15.24,3.12,1.28-.1,2.15-4.47,5.54-4.47,5.54,5.33.07,9.83.31,11.98.83.42.62.55,1.28.21,1.8ZM201.54,185.67c-3.43-.76-8.83-1.11-13.71-.55,1.14,1.66,1.97,3.22,1.97,4.02,0,.62-.21,1.18-.69,1.66-2.87.55-3.12-3.53-3.15-5.4-1.8.35-2.81.49-4.29,1.07-1.42.07-2.29-1.14-1.59-2.25,2.36-.76,6.44-1.25,10.32-1.45.24-.62.21-1.66.21-1.66-.17-.62-.69-2.25.55-2.25.8,0,2.46.9,2.63,1.77.14.66-.42,2.15-.42,2.15,3.19.07,5.92.31,8.83.83,1.07.83.42,1.7-.66,2.08ZM199.43,209.91c-.35.45-.9.62-1.25.73-.87-.1-1.25-.55-1.39-1.32-2.91-.31-6.2,0-8.9.28-.66.07-1.04-.28-1.04-.28,0,0-.42,1.18-1.77,1.59-1.59-1.35-2.04-8.07-2.08-10.98,0-1.18.17-2.32.48-2.87,1.59-.45,2.7.62,2.7.62,2.63-.69,8.52-.87,11.5-.55,1.97.21,2.84.87,3.39,1.8.17,2.42-.52,9.38-1.66,10.98ZM188.8,199.42c-1.04.17-2.67-.17-2.67-.17-.21,1.94.03,6.13.52,8.38,2.98-.48,7.55-.59,10.49-.28.62-1.39.9-5.47.8-8.03-3.67-.45-6.58-.31-9.14.1ZM189.87,204.4c-.52-.38-.76-.87-.66-1.49.14-.83.76-1.07,1.87-1.07.73,0,1.52.14,2.49.1,0,0,.69.97.52,2.01-1.14.48-2.74.42-4.23.45Z"/>
    </g>
    <path class="cls-1" d="M162.78,157.87c-.8-5.24-2.11-10.28-3.96-14.94l-55.28,60.65c33.08,26.24,93.5,23.06,93.5,23.06,1.56-.09-24.2-2.72-34.25-68.78Z"/>
    <path class="cls-4" d="M72.08,154.86c-8.24-.78-17.65.05-21.13,6.85,0,0-3.98,6.01,4.84,25.27,3.6,7.27,12.28,19.31,13.25.57l.36-9.17s.03-5.4,7.97-3.7"/>
    <path class="cls-4" d="M84.89,188.78c25.54,42.45,106.99,38.17,106.99,38.17,1.56-.09-24.2-2.72-34.25-68.78-4.59-30.19-26.45-53.64-68.08-37.33-24.38,9.55-20.36,41.84-4.66,67.94Z"/>
    <polygon class="cls-2" points="91.46 142.29 95.48 150.16 106.93 148.06 107.53 139.34 98.52 135.46 91.46 142.29"/>
    <polygon class="cls-2" points="95.48 150.16 98.38 183.54 108.48 190.41 115.22 180.39 106.93 148.06 95.48 150.16"/>
    <rect class="cls-4" x="24.42" y="47" width="140.36" height="93.76" transform="translate(-15.3 18.49) rotate(-10.33)"/>
    <circle class="cls-2" cx="95.28" cy="93.76" r="28.42"/>
    <polygon class="cls-4" points="79.61 12.55 46.4 67.49 132.73 51.13 79.61 12.55"/>
    <polygon class="cls-4" points="20.56 79.08 158.46 52.88 157.31 46.48 19.4 72.61 20.56 79.08"/>
    <path class="cls-4" d="M121.19,145.07c-8.24-.78-17.65.05-21.13,6.85,0,0-3.98,6.01,4.84,25.27,3.6,7.27,12.28,19.31,13.25.57l.36-9.17s.03-5.4,7.97-3.7"/>
    <path class="cls-10" d="M34.22,79.87c.43,1.61,3.29,4.98,4.86,8.3,1.87,3.96-.28,8.12-2.37,8.5-2.1.38-4.97-2.74-5.22-7.11-.12-2.09.85-4.13.89-5.87"/>
  </g>
</svg>