<?xml version="1.0" encoding="UTF-8"?>
<svg id="_レイヤー_1" data-name="レイヤー 1" xmlns="http://www.w3.org/2000/svg" viewBox="0 0 370 320">
  <defs>
    <style>
      .cls-1 {
        fill: #c79f62;
      }

      .cls-1, .cls-2, .cls-3, .cls-4, .cls-5, .cls-6, .cls-7, .cls-8, .cls-9, .cls-10, .cls-11, .cls-12 {
        stroke-linecap: round;
        stroke-linejoin: round;
      }

      .cls-1, .cls-2, .cls-3, .cls-5, .cls-6, .cls-7, .cls-8, .cls-9, .cls-10, .cls-11, .cls-12 {
        stroke: #000;
        stroke-width: 2px;
      }

      .cls-2 {
        opacity: .2;
      }

      .cls-3 {
        fill: red;
      }

      .cls-4 {
        stroke: #fff;
        stroke-width: 5px;
      }

      .cls-4, .cls-7 {
        fill: #fff;
      }

      .cls-5 {
        fill: #b28146;
      }

      .cls-6 {
        fill: #3e3a39;
      }

      .cls-8 {
        fill: #f4db8e;
      }

      .cls-9 {
        fill: #ccc;
      }

      .cls-10 {
        fill: #1b1464;
      }

      .cls-11 {
        opacity: .3;
      }

      .cls-12 {
        fill: #009fe8;
      }
    </style>
  </defs>
  <g id="_行けたら行きます" data-name="行けたら行きます">
    <g>
      <path class="cls-4" d="M330.41,24.65c.49.3.82.74.98,1.31.16.58.08,1.12-.24,1.61-.4.67-1.01,1.55-1.85,2.66-.15.17-.22.37-.22.59v14.8c0,.57-.21,1.06-.63,1.48-.42.42-.91.63-1.48.63h-2.44c-.57,0-1.06-.21-1.48-.63s-.63-.91-.63-1.48v-8.99s-.02-.09-.06-.11c-.04-.02-.08-.01-.13.04-.17.22-.53.63-1.07,1.22-.32.32-.7.41-1.13.28-.43-.13-.7-.44-.8-.91l-.67-3.26c-.27-1.36.14-2.48,1.22-3.37,2.1-1.7,4.05-3.79,5.85-6.26.35-.47.81-.76,1.39-.89.58-.12,1.13-.04,1.65.26l1.74,1ZM328.15,14.21l1.3,1c.47.35.73.8.8,1.37.06.57-.09,1.07-.46,1.52-2,2.29-4.23,4.27-6.7,5.92-.47.32-.97.4-1.5.22s-.91-.51-1.13-1l-.89-1.89c-.25-.54-.28-1.1-.11-1.68.17-.58.51-1.03,1-1.35,1.65-1.11,3.18-2.38,4.59-3.81.42-.42.92-.66,1.5-.72.58-.06,1.12.08,1.61.43ZM351.95,24.06c.57,0,1.06.21,1.48.63.42.42.63.91.63,1.48v1.52c0,.57-.21,1.06-.63,1.48-.42.42-.91.63-1.48.63h-2.74c-.22,0-.33.11-.33.33v9.84c0,1.26-.02,2.25-.06,2.96s-.15,1.38-.35,2c-.2.62-.42,1.06-.67,1.33-.25.27-.67.51-1.28.7-.6.2-1.24.31-1.91.35-.67.04-1.59.06-2.78.06-.67,0-1.92-.04-3.78-.11-.59-.02-1.12-.25-1.57-.67-.46-.42-.7-.92-.72-1.52l-.07-1.52c-.02-.54.15-1.02.54-1.42.38-.41.86-.6,1.43-.57,1.01.05,1.97.07,2.89.07.62,0,.99-.06,1.11-.17.12-.11.19-.49.19-1.13v-10.21c0-.22-.11-.33-.33-.33h-7.92c-.57,0-1.06-.21-1.48-.63-.42-.42-.63-.91-.63-1.48v-1.52c0-.57.21-1.06.63-1.48s.91-.63,1.48-.63h18.36ZM334.71,14.62h15.77c.57,0,1.06.21,1.48.63.42.42.63.91.63,1.48v1.52c0,.57-.21,1.06-.63,1.48-.42.42-.91.63-1.48.63h-15.77c-.57,0-1.06-.21-1.48-.63-.42-.42-.63-.91-.63-1.48v-1.52c0-.57.21-1.06.63-1.48s.91-.63,1.48-.63Z"/>
      <path class="cls-4" d="M327.82,52.71c.54.05.97.31,1.3.78.32.47.42.97.3,1.52-.84,3.9-1.26,8.14-1.26,12.73s.42,8.83,1.26,12.73c.12.54.02,1.05-.3,1.52-.32.47-.75.73-1.3.78l-2.78.3c-.59.05-1.14-.09-1.63-.43-.49-.33-.8-.8-.93-1.39-.91-4.24-1.37-8.75-1.37-13.51s.46-9.26,1.37-13.51c.12-.59.43-1.06.93-1.39.49-.33,1.04-.47,1.63-.43l2.78.3ZM350.84,58.48c.57,0,1.06.21,1.48.63.42.42.63.91.63,1.48v1.7c0,.57-.21,1.06-.63,1.48-.42.42-.91.63-1.48.63h-2.37c-.22,0-.33.11-.33.33v3c0,4.61-.69,7.98-2.07,10.1-1.38,2.12-3.96,3.75-7.74,4.88-.57.17-1.12.12-1.67-.15-.54-.27-.91-.69-1.11-1.26l-.74-2c-.2-.54-.17-1.06.07-1.55.25-.49.64-.83,1.18-1,2.42-.79,3.92-1.7,4.52-2.72.59-1.02.89-3.13.89-6.31v-3c0-.22-.11-.33-.33-.33h-7.18c-.57,0-1.06-.21-1.48-.63-.42-.42-.63-.91-.63-1.48v-1.7c0-.57.21-1.06.63-1.48s.91-.63,1.48-.63h7.18c.22,0,.33-.11.33-.33v-4.22c0-.57.21-1.06.63-1.48.42-.42.91-.63,1.48-.63h2.44c.57,0,1.06.21,1.48.63.42.42.63.91.63,1.48v4.22c0,.22.11.33.33.33h2.37Z"/>
      <path class="cls-4" d="M343.81,97.73h-11.07c-.2,0-.32.11-.37.33-1.41,7.13-3.1,13.94-5.07,20.43-.17.57-.52,1-1.04,1.29-.52.3-1.06.38-1.63.26l-2.59-.59c-.57-.12-.99-.42-1.26-.89-.27-.47-.32-.97-.15-1.52,1.85-5.92,3.48-12.26,4.89-19.02.05-.2-.04-.3-.26-.3h-2.04c-.57,0-1.06-.21-1.48-.63-.42-.42-.63-.91-.63-1.48v-1.7c0-.57.21-1.06.63-1.48s.91-.63,1.48-.63h3.18c.2,0,.32-.1.37-.3.02-.2.07-.48.15-.85.07-.37.12-.64.15-.81.1-.59.38-1.07.83-1.44s.98-.53,1.57-.48l2.52.18c.57.05,1.02.3,1.37.76.35.46.47.96.37,1.5-.02.12-.06.31-.09.55-.04.25-.07.43-.09.56-.05.22.04.33.26.33h9.99c.57,0,1.06.21,1.48.63.42.42.63.91.63,1.48v1.7c0,.57-.21,1.06-.63,1.48-.42.42-.91.63-1.48.63ZM351.36,115.34l.22,1.78c.07.59-.07,1.12-.43,1.57-.36.46-.82.73-1.39.83-1.97.27-3.87.41-5.7.41-3.65,0-6.54-.68-8.66-2.04-2.12-1.36-3.18-3.08-3.18-5.18,0-1.36.6-2.73,1.81-4.11.89-.99,2.05-1.22,3.48-.7l1.44.55c.47.17.75.5.85.98.1.48-.01.91-.33,1.28-.4.44-.59.86-.59,1.26,0,.59.44,1.08,1.31,1.46.88.38,2.17.57,3.87.57s3.43-.12,4.96-.37c.57-.1,1.08.02,1.54.37.46.35.72.79.8,1.33ZM348.77,99.21c.59,0,1.1.2,1.52.61.42.41.63.91.63,1.5v1.52c0,.57-.2,1.06-.61,1.48-.41.42-.89.63-1.46.63-3.18.02-6.85.21-10.99.55-.57.05-1.07-.12-1.52-.5-.44-.38-.69-.86-.74-1.42l-.07-1.52c-.05-.59.12-1.11.5-1.55.38-.44.87-.69,1.46-.74,4.27-.35,8.03-.53,11.29-.56Z"/>
      <path class="cls-4" d="M339.81,137.33c3.9,0,6.72.75,8.48,2.24,1.75,1.49,2.63,3.83,2.63,7.01s-1.41,5.92-4.24,7.85c-2.83,1.92-6.84,2.89-12.05,2.89-2.44,0-4.9-.11-7.37-.33-.57-.05-1.04-.3-1.41-.76-.37-.46-.53-.97-.48-1.54l.19-1.78c.05-.57.3-1.03.74-1.39s.95-.51,1.52-.46c2.64.22,4.91.33,6.81.33,2.59,0,4.63-.45,6.11-1.35s2.22-2.05,2.22-3.46c0-2.22-1.42-3.33-4.26-3.33-2,0-4.84.96-8.51,2.89-1.23.67-2.54.86-3.92.59l-2.15-.48c-.57-.1-1.02-.39-1.35-.87-.33-.48-.45-1-.35-1.57.39-2.29.79-4.75,1.18-7.37.1-.59.38-1.07.83-1.42.46-.36.98-.51,1.57-.46l2.63.18c.57.05,1.04.3,1.41.76.37.46.52.97.44,1.54-.05.42-.13,1.01-.24,1.76-.11.75-.19,1.3-.24,1.65v.04h.07c3.5-2.1,6.75-3.15,9.73-3.15ZM329.89,126.82c5.08.52,9.91.81,14.47.89.57,0,1.06.21,1.48.63.42.42.63.91.63,1.48v1.7c0,.57-.21,1.06-.63,1.48-.42.42-.91.63-1.48.63-5.38-.07-10.46-.37-15.25-.89-.57-.05-1.03-.3-1.39-.76-.36-.46-.5-.97-.43-1.54l.22-1.78c.07-.57.35-1.03.81-1.39.47-.36.99-.51,1.55-.46Z"/>
      <path class="cls-4" d="M330.41,172.7c.49.3.82.74.98,1.31.16.58.08,1.12-.24,1.61-.4.67-1.01,1.55-1.85,2.66-.15.17-.22.37-.22.59v14.8c0,.57-.21,1.06-.63,1.48-.42.42-.91.63-1.48.63h-2.44c-.57,0-1.06-.21-1.48-.63s-.63-.91-.63-1.48v-8.99s-.02-.09-.06-.11c-.04-.02-.08-.01-.13.04-.17.22-.53.63-1.07,1.22-.32.32-.7.41-1.13.28-.43-.13-.7-.44-.8-.91l-.67-3.26c-.27-1.36.14-2.48,1.22-3.37,2.1-1.7,4.05-3.79,5.85-6.26.35-.47.81-.76,1.39-.89.58-.12,1.13-.04,1.65.26l1.74,1ZM328.15,162.26l1.3,1c.47.35.73.8.8,1.37.06.57-.09,1.07-.46,1.52-2,2.29-4.23,4.27-6.7,5.92-.47.32-.97.4-1.5.22s-.91-.51-1.13-1l-.89-1.89c-.25-.54-.28-1.1-.11-1.68.17-.58.51-1.03,1-1.35,1.65-1.11,3.18-2.38,4.59-3.81.42-.42.92-.66,1.5-.72.58-.06,1.12.08,1.61.43ZM351.95,172.11c.57,0,1.06.21,1.48.63.42.42.63.91.63,1.48v1.52c0,.57-.21,1.06-.63,1.48-.42.42-.91.63-1.48.63h-2.74c-.22,0-.33.11-.33.33v9.84c0,1.26-.02,2.25-.06,2.96s-.15,1.38-.35,2c-.2.62-.42,1.06-.67,1.33-.25.27-.67.51-1.28.7-.6.2-1.24.31-1.91.35-.67.04-1.59.06-2.78.06-.67,0-1.92-.04-3.78-.11-.59-.02-1.12-.25-1.57-.67-.46-.42-.7-.92-.72-1.52l-.07-1.52c-.02-.54.15-1.02.54-1.42.38-.41.86-.6,1.43-.57,1.01.05,1.97.07,2.89.07.62,0,.99-.06,1.11-.17.12-.11.19-.49.19-1.13v-10.21c0-.22-.11-.33-.33-.33h-7.92c-.57,0-1.06-.21-1.48-.63-.42-.42-.63-.91-.63-1.48v-1.52c0-.57.21-1.06.63-1.48s.91-.63,1.48-.63h18.36ZM334.71,162.67h15.77c.57,0,1.06.21,1.48.63.42.42.63.91.63,1.48v1.52c0,.57-.21,1.06-.63,1.48-.42.42-.91.63-1.48.63h-15.77c-.57,0-1.06-.21-1.48-.63-.42-.42-.63-.91-.63-1.48v-1.52c0-.57.21-1.06.63-1.48s.91-.63,1.48-.63Z"/>
      <path class="cls-4" d="M349.29,209.05c.57-.02,1.07.16,1.5.56.43.39.66.88.68,1.44l.04,1.33c.02.57-.16,1.07-.56,1.52-.4.44-.88.68-1.44.7-.89.05-2.22.1-4,.15-.22,0-.28.1-.19.3.59,1.21,1.15,2.23,1.67,3.07.27.47.33.96.19,1.48-.15.52-.47.88-.96,1.07l-3.18,1.33c-1.23.52-2.53.57-3.89.15-1.65-.54-3.22-.81-4.7-.81-2.96,0-4.44.62-4.44,1.85,0,.84.56,1.45,1.67,1.83,1.11.38,3.15.57,6.11.57,1.7,0,3.96-.16,6.77-.48.57-.07,1.09.07,1.55.43.47.36.74.82.81,1.39l.22,1.59c.07.57-.07,1.08-.43,1.55-.36.47-.82.74-1.39.81-2.57.3-5.08.44-7.55.44-5.11,0-8.85-.68-11.23-2.05-2.38-1.37-3.57-3.4-3.57-6.09,0-2.17.97-3.89,2.92-5.14,1.95-1.26,4.8-1.89,8.55-1.89,1.6,0,3.06.12,4.37.37h.07v-.07c-.05-.15-.14-.34-.26-.59-.12-.25-.21-.44-.26-.59-.1-.2-.23-.3-.41-.3-4.39.12-9.33.21-14.8.26-.59,0-1.09-.21-1.5-.63-.41-.42-.61-.91-.61-1.48v-1.33c0-.57.2-1.06.61-1.48.41-.42.89-.63,1.46-.63,3.82,0,8.14-.06,12.95-.19.2,0,.27-.11.22-.33-.02-.1-.06-.25-.11-.46-.05-.21-.09-.36-.11-.46-.05-.2-.19-.3-.41-.3-5.92.12-9.46.19-10.62.19-.59,0-1.1-.2-1.52-.61-.42-.41-.63-.91-.63-1.5v-1.33c0-.57.21-1.06.63-1.48.42-.42.91-.63,1.48-.63,2.15,0,5.39-.05,9.73-.15.25,0,.35-.1.3-.3,0-.07-.01-.19-.04-.35-.02-.16-.04-.28-.04-.35-.05-.57.12-1.07.5-1.5.38-.43.87-.67,1.46-.72l2.44-.15c.57-.02,1.07.15,1.5.54.43.38.67.87.72,1.46.02.1.04.24.04.43s.01.33.04.43c0,.2.11.3.33.3,2.76-.1,4.82-.19,6.18-.26.57-.02,1.07.16,1.5.56.43.39.66.88.68,1.44l.04,1.33c.02.57-.16,1.07-.56,1.52-.4.44-.88.68-1.44.7-1.18.05-2.99.12-5.4.22-.2,0-.27.11-.22.33.02.12.07.29.13.5.06.21.1.35.13.42.05.2.17.3.37.3l5.89-.22Z"/>
      <path class="cls-4" d="M348.99,239.47c.57,0,1.06.21,1.48.63.42.42.63.91.63,1.48v1.7c0,.57-.21,1.06-.63,1.48-.42.42-.91.63-1.48.63h-6.44c-.22,0-.33.11-.33.33v.85c0,.2.11.3.33.3h4.96c.57,0,1.06.21,1.48.63.42.42.63.91.63,1.48v1.52c0,.57-.21,1.06-.63,1.48-.42.42-.91.63-1.48.63h-4.96c-.22,0-.33.11-.33.33v3.85c0,.22.1.4.3.52,2.05,1.28,4.15,2.89,6.29,4.81.42.39.65.88.69,1.46.04.58-.14,1.08-.54,1.5l-1.26,1.33c-.4.42-.88.65-1.44.68-.57.04-1.06-.14-1.48-.54-.94-.86-1.89-1.68-2.85-2.44-.15-.15-.28-.11-.41.11-.59,1.58-1.64,2.72-3.15,3.42-1.51.7-3.55,1.05-6.14,1.05-2.79,0-4.97-.65-6.53-1.94-1.57-1.29-2.35-3.11-2.35-5.46s.76-4.04,2.29-5.31c1.53-1.27,3.73-1.91,6.59-1.91,1.09,0,2.1.09,3.04.26.2.05.3-.04.3-.26v-1.15c0-.22-.1-.33-.3-.33h-10.18c-.57,0-1.06-.21-1.48-.63-.42-.42-.63-.91-.63-1.48v-1.52c0-.57.21-1.06.63-1.48s.91-.63,1.48-.63h10.18c.2,0,.3-.1.3-.3v-.85c0-.22-.1-.33-.3-.33h-11.66c-.57,0-1.06-.21-1.48-.63-.42-.42-.63-.91-.63-1.48v-1.7c0-.57.21-1.06.63-1.48s.91-.63,1.48-.63h11.66c.2,0,.3-.11.3-.33v-.52c0-.57.21-1.06.63-1.48s.91-.63,1.48-.63h2.44c.57,0,1.06.21,1.48.63.42.42.63.91.63,1.48v.52c0,.22.11.33.33.33h6.44ZM332.23,262.79c1.26,0,2.1-.14,2.54-.41s.69-.86.76-1.78c0-.22-.07-.35-.22-.37-.89-.27-1.67-.41-2.33-.41-1.97,0-2.96.49-2.96,1.48s.74,1.48,2.22,1.48Z"/>
      <path class="cls-4" d="M350.47,276.11c.57,0,1.06.21,1.48.63.42.42.63.91.63,1.48v1.33c0,.57-.21,1.06-.63,1.48-.42.42-.91.63-1.48.63h-7.22c-.2,0-.3.11-.3.33v6.03c0,.12.05.31.15.55.76,1.58,1.15,3.22,1.15,4.92,0,3.63-1.02,6.38-3.07,8.27-2.05,1.89-5.45,3.13-10.21,3.72-.59.07-1.12-.07-1.57-.43-.46-.36-.75-.83-.87-1.42l-.37-1.78c-.1-.54.02-1.04.37-1.5.35-.46.8-.71,1.37-.76,1.87-.2,3.3-.41,4.27-.63.97-.22,1.66-.47,2.05-.74.39-.27.7-.64.93-1.11.02-.02.04-.06.04-.11s.01-.09.04-.11v-.07h-.07c-1.26.49-2.53.74-3.81.74-2.42,0-4.38-.68-5.88-2.04-1.51-1.36-2.26-3.15-2.26-5.37s.76-4.04,2.29-5.38c1.53-1.34,3.6-2.02,6.22-2.02.76,0,1.59.12,2.48.37h.07s.04-.01.04-.04v-1.11c0-.22-.11-.33-.33-.33h-13.84c-.57,0-1.06-.21-1.48-.63-.42-.42-.63-.91-.63-1.48v-1.33c0-.57.21-1.06.63-1.48s.91-.63,1.48-.63h13.84c.22,0,.33-.11.33-.33v-.89c0-.57.21-1.06.63-1.48s.91-.63,1.48-.63h2.44c.57,0,1.06.21,1.48.63.42.42.63.91.63,1.48v.89c0,.22.1.33.3.33h7.22ZM332.39,291.77c.48.42,1.1.63,1.87.63s1.39-.21,1.87-.63c.48-.42.72-.95.72-1.59s-.24-1.17-.72-1.59c-.48-.42-1.1-.63-1.87-.63s-1.39.21-1.87.63c-.48.42-.72.95-.72,1.59s.24,1.17.72,1.59Z"/>
    </g>
    <g>
      <path d="M330.41,24.38c.49.3.82.74.98,1.31.16.58.08,1.12-.24,1.61-.4.67-1.01,1.55-1.85,2.66-.15.17-.22.37-.22.59v14.8c0,.57-.21,1.06-.63,1.48-.42.42-.91.63-1.48.63h-2.44c-.57,0-1.06-.21-1.48-.63s-.63-.91-.63-1.48v-8.99s-.02-.09-.06-.11c-.04-.02-.08-.01-.13.04-.17.22-.53.63-1.07,1.22-.32.32-.7.41-1.13.28-.43-.13-.7-.44-.8-.91l-.67-3.26c-.27-1.36.14-2.48,1.22-3.37,2.1-1.7,4.05-3.79,5.85-6.26.35-.47.81-.76,1.39-.89.58-.12,1.13-.04,1.65.26l1.74,1ZM328.15,13.94l1.3,1c.47.35.73.8.8,1.37.06.57-.09,1.07-.46,1.52-2,2.29-4.23,4.27-6.7,5.92-.47.32-.97.4-1.5.22s-.91-.51-1.13-1l-.89-1.89c-.25-.54-.28-1.1-.11-1.68.17-.58.51-1.03,1-1.35,1.65-1.11,3.18-2.38,4.59-3.81.42-.42.92-.66,1.5-.72.58-.06,1.12.08,1.61.43ZM351.95,23.78c.57,0,1.06.21,1.48.63.42.42.63.91.63,1.48v1.52c0,.57-.21,1.06-.63,1.48-.42.42-.91.63-1.48.63h-2.74c-.22,0-.33.11-.33.33v9.84c0,1.26-.02,2.25-.06,2.96s-.15,1.38-.35,2c-.2.62-.42,1.06-.67,1.33-.25.27-.67.51-1.28.7-.6.2-1.24.31-1.91.35-.67.04-1.59.06-2.78.06-.67,0-1.92-.04-3.78-.11-.59-.02-1.12-.25-1.57-.67-.46-.42-.7-.92-.72-1.52l-.07-1.52c-.02-.54.15-1.02.54-1.42.38-.41.86-.6,1.43-.57,1.01.05,1.97.07,2.89.07.62,0,.99-.06,1.11-.17.12-.11.19-.49.19-1.13v-10.21c0-.22-.11-.33-.33-.33h-7.92c-.57,0-1.06-.21-1.48-.63-.42-.42-.63-.91-.63-1.48v-1.52c0-.57.21-1.06.63-1.48s.91-.63,1.48-.63h18.36ZM334.71,14.35h15.77c.57,0,1.06.21,1.48.63.42.42.63.91.63,1.48v1.52c0,.57-.21,1.06-.63,1.48-.42.42-.91.63-1.48.63h-15.77c-.57,0-1.06-.21-1.48-.63-.42-.42-.63-.91-.63-1.48v-1.52c0-.57.21-1.06.63-1.48s.91-.63,1.48-.63Z"/>
      <path d="M327.82,52.44c.54.05.97.31,1.3.78.32.47.42.97.3,1.52-.84,3.9-1.26,8.14-1.26,12.73s.42,8.83,1.26,12.73c.12.54.02,1.05-.3,1.52-.32.47-.75.73-1.3.78l-2.78.3c-.59.05-1.14-.09-1.63-.43-.49-.33-.8-.8-.93-1.39-.91-4.24-1.37-8.75-1.37-13.51s.46-9.26,1.37-13.51c.12-.59.43-1.06.93-1.39.49-.33,1.04-.47,1.63-.43l2.78.3ZM350.84,58.21c.57,0,1.06.21,1.48.63.42.42.63.91.63,1.48v1.7c0,.57-.21,1.06-.63,1.48-.42.42-.91.63-1.48.63h-2.37c-.22,0-.33.11-.33.33v3c0,4.61-.69,7.98-2.07,10.1-1.38,2.12-3.96,3.75-7.74,4.88-.57.17-1.12.12-1.67-.15-.54-.27-.91-.69-1.11-1.26l-.74-2c-.2-.54-.17-1.06.07-1.55.25-.49.64-.83,1.18-1,2.42-.79,3.92-1.7,4.52-2.72.59-1.02.89-3.13.89-6.31v-3c0-.22-.11-.33-.33-.33h-7.18c-.57,0-1.06-.21-1.48-.63-.42-.42-.63-.91-.63-1.48v-1.7c0-.57.21-1.06.63-1.48s.91-.63,1.48-.63h7.18c.22,0,.33-.11.33-.33v-4.22c0-.57.21-1.06.63-1.48.42-.42.91-.63,1.48-.63h2.44c.57,0,1.06.21,1.48.63.42.42.63.91.63,1.48v4.22c0,.22.11.33.33.33h2.37Z"/>
      <path d="M343.81,97.45h-11.07c-.2,0-.32.11-.37.33-1.41,7.13-3.1,13.94-5.07,20.43-.17.57-.52,1-1.04,1.29-.52.3-1.06.38-1.63.26l-2.59-.59c-.57-.12-.99-.42-1.26-.89-.27-.47-.32-.97-.15-1.52,1.85-5.92,3.48-12.26,4.89-19.02.05-.2-.04-.3-.26-.3h-2.04c-.57,0-1.06-.21-1.48-.63-.42-.42-.63-.91-.63-1.48v-1.7c0-.57.21-1.06.63-1.48s.91-.63,1.48-.63h3.18c.2,0,.32-.1.37-.3.02-.2.07-.48.15-.85.07-.37.12-.64.15-.81.1-.59.38-1.07.83-1.44s.98-.53,1.57-.48l2.52.18c.57.05,1.02.3,1.37.76.35.46.47.96.37,1.5-.02.12-.06.31-.09.55-.04.25-.07.43-.09.56-.05.22.04.33.26.33h9.99c.57,0,1.06.21,1.48.63.42.42.63.91.63,1.48v1.7c0,.57-.21,1.06-.63,1.48-.42.42-.91.63-1.48.63ZM351.36,115.07l.22,1.78c.07.59-.07,1.12-.43,1.57-.36.46-.82.73-1.39.83-1.97.27-3.87.41-5.7.41-3.65,0-6.54-.68-8.66-2.04-2.12-1.36-3.18-3.08-3.18-5.18,0-1.36.6-2.73,1.81-4.11.89-.99,2.05-1.22,3.48-.7l1.44.55c.47.17.75.5.85.98.1.48-.01.91-.33,1.28-.4.44-.59.86-.59,1.26,0,.59.44,1.08,1.31,1.46.88.38,2.17.57,3.87.57s3.43-.12,4.96-.37c.57-.1,1.08.02,1.54.37.46.35.72.79.8,1.33ZM348.77,98.93c.59,0,1.1.2,1.52.61.42.41.63.91.63,1.5v1.52c0,.57-.2,1.06-.61,1.48-.41.42-.89.63-1.46.63-3.18.02-6.85.21-10.99.55-.57.05-1.07-.12-1.52-.5-.44-.38-.69-.86-.74-1.42l-.07-1.52c-.05-.59.12-1.11.5-1.55.38-.44.87-.69,1.46-.74,4.27-.35,8.03-.53,11.29-.56Z"/>
      <path d="M339.81,137.05c3.9,0,6.72.75,8.48,2.24,1.75,1.49,2.63,3.83,2.63,7.01s-1.41,5.92-4.24,7.85c-2.83,1.92-6.84,2.89-12.05,2.89-2.44,0-4.9-.11-7.37-.33-.57-.05-1.04-.3-1.41-.76-.37-.46-.53-.97-.48-1.54l.19-1.78c.05-.57.3-1.03.74-1.39s.95-.51,1.52-.46c2.64.22,4.91.33,6.81.33,2.59,0,4.63-.45,6.11-1.35s2.22-2.05,2.22-3.46c0-2.22-1.42-3.33-4.26-3.33-2,0-4.84.96-8.51,2.89-1.23.67-2.54.86-3.92.59l-2.15-.48c-.57-.1-1.02-.39-1.35-.87-.33-.48-.45-1-.35-1.57.39-2.29.79-4.75,1.18-7.37.1-.59.38-1.07.83-1.42.46-.36.98-.51,1.57-.46l2.63.18c.57.05,1.04.3,1.41.76.37.46.52.97.44,1.54-.05.42-.13,1.01-.24,1.76-.11.75-.19,1.3-.24,1.65v.04h.07c3.5-2.1,6.75-3.15,9.73-3.15ZM329.89,126.54c5.08.52,9.91.81,14.47.89.57,0,1.06.21,1.48.63.42.42.63.91.63,1.48v1.7c0,.57-.21,1.06-.63,1.48-.42.42-.91.63-1.48.63-5.38-.07-10.46-.37-15.25-.89-.57-.05-1.03-.3-1.39-.76-.36-.46-.5-.97-.43-1.54l.22-1.78c.07-.57.35-1.03.81-1.39.47-.36.99-.51,1.55-.46Z"/>
      <path d="M330.41,172.42c.49.3.82.74.98,1.31.16.58.08,1.12-.24,1.61-.4.67-1.01,1.55-1.85,2.66-.15.17-.22.37-.22.59v14.8c0,.57-.21,1.06-.63,1.48-.42.42-.91.63-1.48.63h-2.44c-.57,0-1.06-.21-1.48-.63s-.63-.91-.63-1.48v-8.99s-.02-.09-.06-.11c-.04-.02-.08-.01-.13.04-.17.22-.53.63-1.07,1.22-.32.32-.7.41-1.13.28-.43-.13-.7-.44-.8-.91l-.67-3.26c-.27-1.36.14-2.48,1.22-3.37,2.1-1.7,4.05-3.79,5.85-6.26.35-.47.81-.76,1.39-.89.58-.12,1.13-.04,1.65.26l1.74,1ZM328.15,161.99l1.3,1c.47.35.73.8.8,1.37.06.57-.09,1.07-.46,1.52-2,2.29-4.23,4.27-6.7,5.92-.47.32-.97.4-1.5.22s-.91-.51-1.13-1l-.89-1.89c-.25-.54-.28-1.1-.11-1.68.17-.58.51-1.03,1-1.35,1.65-1.11,3.18-2.38,4.59-3.81.42-.42.92-.66,1.5-.72.58-.06,1.12.08,1.61.43ZM351.95,171.83c.57,0,1.06.21,1.48.63.42.42.63.91.63,1.48v1.52c0,.57-.21,1.06-.63,1.48-.42.42-.91.63-1.48.63h-2.74c-.22,0-.33.11-.33.33v9.84c0,1.26-.02,2.25-.06,2.96s-.15,1.38-.35,2c-.2.62-.42,1.06-.67,1.33-.25.27-.67.51-1.28.7-.6.2-1.24.31-1.91.35-.67.04-1.59.06-2.78.06-.67,0-1.92-.04-3.78-.11-.59-.02-1.12-.25-1.57-.67-.46-.42-.7-.92-.72-1.52l-.07-1.52c-.02-.54.15-1.02.54-1.42.38-.41.86-.6,1.43-.57,1.01.05,1.97.07,2.89.07.62,0,.99-.06,1.11-.17.12-.11.19-.49.19-1.13v-10.21c0-.22-.11-.33-.33-.33h-7.92c-.57,0-1.06-.21-1.48-.63-.42-.42-.63-.91-.63-1.48v-1.52c0-.57.21-1.06.63-1.48s.91-.63,1.48-.63h18.36ZM334.71,162.39h15.77c.57,0,1.06.21,1.48.63.42.42.63.91.63,1.48v1.52c0,.57-.21,1.06-.63,1.48-.42.42-.91.63-1.48.63h-15.77c-.57,0-1.06-.21-1.48-.63-.42-.42-.63-.91-.63-1.48v-1.52c0-.57.21-1.06.63-1.48s.91-.63,1.48-.63Z"/>
      <path d="M349.29,208.78c.57-.02,1.07.16,1.5.56.43.39.66.88.68,1.44l.04,1.33c.02.57-.16,1.07-.56,1.52-.4.44-.88.68-1.44.7-.89.05-2.22.1-4,.15-.22,0-.28.1-.19.3.59,1.21,1.15,2.23,1.67,3.07.27.47.33.96.19,1.48-.15.52-.47.88-.96,1.07l-3.18,1.33c-1.23.52-2.53.57-3.89.15-1.65-.54-3.22-.81-4.7-.81-2.96,0-4.44.62-4.44,1.85,0,.84.56,1.45,1.67,1.83,1.11.38,3.15.57,6.11.57,1.7,0,3.96-.16,6.77-.48.57-.07,1.09.07,1.55.43.47.36.74.82.81,1.39l.22,1.59c.07.57-.07,1.08-.43,1.55-.36.47-.82.74-1.39.81-2.57.3-5.08.44-7.55.44-5.11,0-8.85-.68-11.23-2.05-2.38-1.37-3.57-3.4-3.57-6.09,0-2.17.97-3.89,2.92-5.14,1.95-1.26,4.8-1.89,8.55-1.89,1.6,0,3.06.12,4.37.37h.07v-.07c-.05-.15-.14-.34-.26-.59-.12-.25-.21-.44-.26-.59-.1-.2-.23-.3-.41-.3-4.39.12-9.33.21-14.8.26-.59,0-1.09-.21-1.5-.63-.41-.42-.61-.91-.61-1.48v-1.33c0-.57.2-1.06.61-1.48.41-.42.89-.63,1.46-.63,3.82,0,8.14-.06,12.95-.19.2,0,.27-.11.22-.33-.02-.1-.06-.25-.11-.46-.05-.21-.09-.36-.11-.46-.05-.2-.19-.3-.41-.3-5.92.12-9.46.19-10.62.19-.59,0-1.1-.2-1.52-.61-.42-.41-.63-.91-.63-1.5v-1.33c0-.57.21-1.06.63-1.48.42-.42.91-.63,1.48-.63,2.15,0,5.39-.05,9.73-.15.25,0,.35-.1.3-.3,0-.07-.01-.19-.04-.35-.02-.16-.04-.28-.04-.35-.05-.57.12-1.07.5-1.5.38-.43.87-.67,1.46-.72l2.44-.15c.57-.02,1.07.15,1.5.54.43.38.67.87.72,1.46.02.1.04.24.04.43s.01.33.04.43c0,.2.11.3.33.3,2.76-.1,4.82-.19,6.18-.26.57-.02,1.07.16,1.5.56.43.39.66.88.68,1.44l.04,1.33c.02.57-.16,1.07-.56,1.52-.4.44-.88.68-1.44.7-1.18.05-2.99.12-5.4.22-.2,0-.27.11-.22.33.02.12.07.29.13.5.06.21.1.35.13.42.05.2.17.3.37.3l5.89-.22Z"/>
      <path d="M348.99,239.2c.57,0,1.06.21,1.48.63.42.42.63.91.63,1.48v1.7c0,.57-.21,1.06-.63,1.48-.42.42-.91.63-1.48.63h-6.44c-.22,0-.33.11-.33.33v.85c0,.2.11.3.33.3h4.96c.57,0,1.06.21,1.48.63.42.42.63.91.63,1.48v1.52c0,.57-.21,1.06-.63,1.48-.42.42-.91.63-1.48.63h-4.96c-.22,0-.33.11-.33.33v3.85c0,.22.1.4.3.52,2.05,1.28,4.15,2.89,6.29,4.81.42.39.65.88.69,1.46.04.58-.14,1.08-.54,1.5l-1.26,1.33c-.4.42-.88.65-1.44.68-.57.04-1.06-.14-1.48-.54-.94-.86-1.89-1.68-2.85-2.44-.15-.15-.28-.11-.41.11-.59,1.58-1.64,2.72-3.15,3.42-1.51.7-3.55,1.05-6.14,1.05-2.79,0-4.97-.65-6.53-1.94-1.57-1.29-2.35-3.11-2.35-5.46s.76-4.04,2.29-5.31c1.53-1.27,3.73-1.91,6.59-1.91,1.09,0,2.1.09,3.04.26.2.05.3-.04.3-.26v-1.15c0-.22-.1-.33-.3-.33h-10.18c-.57,0-1.06-.21-1.48-.63-.42-.42-.63-.91-.63-1.48v-1.52c0-.57.21-1.06.63-1.48s.91-.63,1.48-.63h10.18c.2,0,.3-.1.3-.3v-.85c0-.22-.1-.33-.3-.33h-11.66c-.57,0-1.06-.21-1.48-.63-.42-.42-.63-.91-.63-1.48v-1.7c0-.57.21-1.06.63-1.48s.91-.63,1.48-.63h11.66c.2,0,.3-.11.3-.33v-.52c0-.57.21-1.06.63-1.48s.91-.63,1.48-.63h2.44c.57,0,1.06.21,1.48.63.42.42.63.91.63,1.48v.52c0,.22.11.33.33.33h6.44ZM332.23,262.51c1.26,0,2.1-.14,2.54-.41s.69-.86.76-1.78c0-.22-.07-.35-.22-.37-.89-.27-1.67-.41-2.33-.41-1.97,0-2.96.49-2.96,1.48s.74,1.48,2.22,1.48Z"/>
      <path d="M350.47,275.84c.57,0,1.06.21,1.48.63.42.42.63.91.63,1.48v1.33c0,.57-.21,1.06-.63,1.48-.42.42-.91.63-1.48.63h-7.22c-.2,0-.3.11-.3.33v6.03c0,.12.05.31.15.55.76,1.58,1.15,3.22,1.15,4.92,0,3.63-1.02,6.38-3.07,8.27-2.05,1.89-5.45,3.13-10.21,3.72-.59.07-1.12-.07-1.57-.43-.46-.36-.75-.83-.87-1.42l-.37-1.78c-.1-.54.02-1.04.37-1.5.35-.46.8-.71,1.37-.76,1.87-.2,3.3-.41,4.27-.63.97-.22,1.66-.47,2.05-.74.39-.27.7-.64.93-1.11.02-.02.04-.06.04-.11s.01-.09.04-.11v-.07h-.07c-1.26.49-2.53.74-3.81.74-2.42,0-4.38-.68-5.88-2.04-1.51-1.36-2.26-3.15-2.26-5.37s.76-4.04,2.29-5.38c1.53-1.34,3.6-2.02,6.22-2.02.76,0,1.59.12,2.48.37h.07s.04-.01.04-.04v-1.11c0-.22-.11-.33-.33-.33h-13.84c-.57,0-1.06-.21-1.48-.63-.42-.42-.63-.91-.63-1.48v-1.33c0-.57.21-1.06.63-1.48s.91-.63,1.48-.63h13.84c.22,0,.33-.11.33-.33v-.89c0-.57.21-1.06.63-1.48s.91-.63,1.48-.63h2.44c.57,0,1.06.21,1.48.63.42.42.63.91.63,1.48v.89c0,.22.1.33.3.33h7.22ZM332.39,291.49c.48.42,1.1.63,1.87.63s1.39-.21,1.87-.63c.48-.42.72-.95.72-1.59s-.24-1.17-.72-1.59c-.48-.42-1.1-.63-1.87-.63s-1.39.21-1.87.63c-.48.42-.72.95-.72,1.59s.24,1.17.72,1.59Z"/>
    </g>
    <ellipse class="cls-11" cx="187.52" cy="268.53" rx="120.76" ry="11.96"/>
    <path class="cls-5" d="M103.37,150.53h170.65c5.41,0,11.34,4.5,13.25,10.19l12.75,38.07c2.54,7.57-.7,14.03-7.29,14.03H84.66c-6.6,0-9.83-6.46-7.29-14.03l12.75-38.07c1.91-5.69,7.84-10.19,13.25-10.19Z"/>
    <path class="cls-7" d="M282.37,142.4c-26.05-6.25-19.87-2.81-32.52-5.07-11.75-2.1-16.02-8.77-30.06-8.38-5.37-.88-4.65-5.81-6.84-4.4-2.05,1.32.09,6.46-2.5,9.49-3.43,4.79-5.04,13.42-5.91,29.36-.87,15.91-.51,24.4,2.2,30.62,1.61,4.32.55,4.63.41,9.87-.09,3.63,2,1.79,4.89-.69.36-.3,1.54-1.09,3.86.58,5.63,4.26,18.29,1.15,30.12,3.26,11.24,2.01,21.24,8.11,29.02,8.35,3.8-.52,5.61,6.07,6.23,3.2.55-2.57.23-4.25,2.19-6.62,4.16-4.56,6.94-14.31,7.97-33.03.77-14.12,1.27-20.84-1.28-28.21-1.05-3.19-.49-4.53-.31-8.21.17-3.62-3.95.63-7.48-.13Z"/>
    <path class="cls-2" d="M243.26,144.18c-23.5,4.6-17.15,5.14-28.26,8.02-10.31,2.67-16.39-1.28-27.58,4.33-4.68,1.29-6.04-3.09-7.25-1.09-1.14,1.87,2.62,5.35,1.73,8.85-.88,5.29,1.23,13.08,6.81,26.7,5.57,13.58,9.21,20.52,13.85,24.69,3.01,2.99,2.26,3.65,4.22,8.07,1.36,3.06,2.32.74,3.68-2.41.17-.39.82-1.49,3.35-.97,6.22,1.43,15.22-5.93,25.61-8.62,9.87-2.55,20.35-1.23,26.72-3.96,2.86-1.87,6.93,2.94,6.3.32-.57-2.35-1.49-3.63-.84-6.34,1.56-5.36-.03-14.54-6.59-30.53-4.94-12.06-7.19-17.85-12.16-23.03-2.11-2.26-2.18-3.59-3.49-6.72-1.29-3.08-2.94,2.01-6.09,2.71Z"/>
    <path class="cls-3" d="M238.76,143.61c-24.2,5-17.68,5.45-29.13,8.52-10.63,2.85-16.81-1.04-28.38,4.79-4.83,1.37-6.15-3.03-7.43-.99-1.19,1.91,2.61,5.35,1.64,8.9-.98,5.35,1.06,13.18,6.58,26.83,5.51,13.62,9.14,20.56,13.84,24.7,3.04,2.97,2.27,3.65,4.21,8.08,1.35,3.07,2.37.71,3.82-2.49.18-.39.86-1.51,3.45-1.03,6.37,1.35,15.71-6.21,26.42-9.08,10.17-2.73,20.91-1.56,27.5-4.4,2.96-1.93,7.07,2.86,6.46.23-.54-2.36-1.48-3.64-.77-6.38,1.69-5.43.19-14.67-6.3-30.7-4.89-12.09-7.11-17.89-12.13-23.05-2.13-2.25-2.18-3.59-3.48-6.73-1.27-3.09-3.05,2.07-6.29,2.82Z"/>
    <path class="cls-1" d="M85.24,239.09l2.06,28.62c.08,1.1,1,1.96,2.11,1.96h6.15c1.1,0,2.02-.85,2.11-1.95l2.17-28.63h-14.6Z"/>
    <path class="cls-1" d="M281.25,239.09l2.06,28.62c.08,1.1,1,1.96,2.11,1.96h6.15c1.1,0,2.02-.85,2.11-1.95l2.17-28.63h-14.6Z"/>
    <ellipse class="cls-8" cx="43.94" cy="156.4" rx="8.16" ry="10.48" transform="translate(-113.48 116.26) rotate(-60)"/>
    <path class="cls-10" d="M81.87,188.93c-18.55-.65-37.92-22.47-37.92-22.47l6.11-17.66c16.04,12.67,33.94,17.26,33.94,17.26l-2.13,22.87Z"/>
    <path class="cls-10" d="M154.63,168.87c24.78,1.89,49.5,32.14,49.5,32.14l-9.14,23.28c-20.76-17.83-44.46-24.95-44.46-24.95l4.1-30.48Z"/>
    <path class="cls-10" d="M157.58,177.21s12.42,8.98,42.07,12.83l-13.74,30.15s-52.96-7.22-56.74-9.82l28.41-33.17Z"/>
    <ellipse class="cls-8" cx="199.65" cy="210.83" rx="16.4" ry="7.64" transform="translate(-90.32 225.95) rotate(-49.54)"/>
    <ellipse class="cls-8" cx="196.3" cy="202.36" rx="16.4" ry="7.64" transform="translate(-85.05 220.43) rotate(-49.54)"/>
    <path class="cls-10" d="M120.01,127.71l-46.52,39.46,36.61,69.2,73.63-62.45s-42.48-18.25-63.72-46.2Z"/>
    <polygon class="cls-10" points="98.73 154.63 87.23 164.39 99.16 168.67 107.18 162.99 104.92 171.79 139.73 177.7 98.73 154.63"/>
    <polygon class="cls-10" points="126.74 130.87 138.25 121.11 140.52 133.59 133.61 140.57 142.66 139.78 142.81 175.08 126.74 130.87"/>
    <polygon class="cls-10" points="98.79 154.59 112.8 142.7 126.74 130.86 130.66 141.64 113.3 143.29 108.49 160.05 98.79 154.59"/>
    <polygon class="cls-3" points="110.95 151.49 117.38 155.69 125.1 149.14 121.78 142.3 113.3 143.29 110.95 151.49"/>
    <polygon class="cls-3" points="117.38 155.69 118.88 165.97 144.63 180.38 135.06 153.68 125.1 149.14 117.38 155.69"/>
    <path class="cls-5" d="M300.87,177.83h-9.67c-4.94,0-8.99,4.04-8.99,8.99v25.28h-.13c-9.7-4.59-27.83-7.67-48.62-7.67s-37.1,2.79-47.1,7c-10-4.21-27.35-7-47.1-7-17.89,0-33.81,2.29-44.09,5.85v-23.46c0-4.94-4.04-8.99-8.99-8.99h-9.67c-4.94,0-8.99,4.04-8.99,8.99v43.94c0,4.94,4.04,8.99,8.99,8.99h224.36c4.94,0,8.99-4.04,8.99-8.99v-43.94c0-4.94-4.04-8.99-8.99-8.99Z"/>
    <rect class="cls-7" x="33.26" y="68.54" width="126.44" height="84.46" transform="translate(-41.3 59.82) rotate(-28.65)"/>
    <polygon class="cls-9" points="61.24 178.14 53.52 176.71 12.88 102.06 20.75 104.02 61.24 178.14"/>
    <polygon class="cls-7" points="131.71 43.4 124.68 41.26 12.88 102.06 20.75 104.02 131.71 43.4"/>
    <circle class="cls-3" cx="97.02" cy="110.47" r="25.6"/>
    <path class="cls-12" d="M42.33,103.58c.85,1.3,4.37,3.44,6.73,5.92,2.82,2.96,2.13,7.27.39,8.22-1.74.95-5.2-.97-6.71-4.77-.72-1.82-.46-3.91-.93-5.46"/>
    <rect class="cls-6" x="101.7" y="111.54" width="30.11" height="45.89" rx=".97" ry=".97" transform="translate(282.44 199.8) rotate(152.48)"/>
    <ellipse class="cls-8" cx="127.71" cy="131.9" rx="8.16" ry="10.48" transform="translate(-47.42 187.01) rotate(-63.39)"/>
    <path class="cls-10" d="M161.23,139.94c-4.35-2.61-13.27-5.56-24.2-14.48l-7.86,16.91s14.43,16.09,25.63,16.61l2.59.12c4.97.57,9.21-3.24,9.94-8.18.7-4.76-1.87-8.61-6.1-10.97Z"/>
  </g>
</svg>