<?xml version="1.0" encoding="UTF-8"?>
<svg id="_レイヤー_1" data-name="レイヤー 1" xmlns="http://www.w3.org/2000/svg" xmlns:xlink="http://www.w3.org/1999/xlink" viewBox="0 0 370 320">
  <defs>
    <style>
      .cls-1 {
        fill: url(#_ホワイト_ブラック_2);
      }

      .cls-1, .cls-2, .cls-3, .cls-4, .cls-5, .cls-6, .cls-7, .cls-8, .cls-9, .cls-10, .cls-11 {
        stroke-linecap: round;
        stroke-linejoin: round;
      }

      .cls-1, .cls-2, .cls-4, .cls-5, .cls-6, .cls-7, .cls-8, .cls-9, .cls-10, .cls-11 {
        stroke: #000;
        stroke-width: 2px;
      }

      .cls-2 {
        fill: red;
      }

      .cls-3 {
        stroke: #fff;
        stroke-width: 5px;
      }

      .cls-3, .cls-4 {
        fill: #fff;
      }

      .cls-5 {
        fill: none;
      }

      .cls-6 {
        fill: #f4db8e;
      }

      .cls-7 {
        fill: #1b1464;
      }

      .cls-8 {
        opacity: .3;
      }

      .cls-9 {
        fill: #f29600;
      }

      .cls-10 {
        fill: #40210f;
      }

      .cls-11 {
        fill: #009fe8;
      }
    </style>
    <linearGradient id="_ホワイト_ブラック_2" data-name="ホワイト、ブラック 2" x1="70.58" y1="174" x2="92.87" y2="174" gradientTransform="translate(30.91 -11.4) rotate(9.83)" gradientUnits="userSpaceOnUse">
      <stop offset="0" stop-color="#fff"/>
      <stop offset="1" stop-color="#231815"/>
    </linearGradient>
  </defs>
  <g id="_とりあえず_生で_" data-name="とりあえず、生で！">
    <g>
      <path class="cls-3" d="M334.5,41.54c.08.6-.06,1.14-.41,1.6-.35.46-.83.75-1.43.85-3.51.53-7.33.79-11.44.79-9.29,0-13.93-3.26-13.93-9.79,0-3.26,1.73-6.16,5.2-8.7.17-.13.24-.29.19-.49-.75-3.26-1.42-6.54-1.99-9.83-.1-.58.02-1.1.36-1.56.34-.46.8-.75,1.37-.85l3.12-.45c.58-.1,1.1.03,1.58.38.48.35.78.82.9,1.39.58,2.96,1.08,5.4,1.51,7.3.05.23.18.29.38.19,3.16-1.28,6.93-2.43,11.29-3.46.55-.13,1.07-.03,1.56.28.49.31.8.76.92,1.34l.49,2.18c.13.58.02,1.12-.3,1.64-.33.51-.77.83-1.32.96-5.85,1.41-10.27,2.95-13.25,4.63-2.99,1.68-4.48,3.24-4.48,4.67,0,1.28.5,2.23,1.51,2.84,1,.62,2.64.92,4.89.92,3.46,0,7.03-.26,10.69-.79.58-.1,1.1.03,1.56.38.46.35.73.82.81,1.39l.23,2.18Z"/>
      <path class="cls-3" d="M324.59,51.89c3.34,0,5.99,1.12,7.96,3.37,1.97,2.25,2.95,5.39,2.95,9.43,0,6-1.66,10.44-4.97,13.33-3.31,2.89-8.61,4.45-15.89,4.71-.6.02-1.11-.17-1.52-.58-.41-.41-.65-.92-.7-1.52l-.15-2.11c-.03-.58.16-1.08.55-1.51.39-.43.87-.65,1.45-.68,5.2-.18,8.78-1.12,10.75-2.84,1.97-1.72,2.95-4.65,2.95-8.79s-1.38-6.02-4.14-6.02c-2.08,0-3.95.89-5.61,2.67-1.66,1.78-2.69,4.07-3.09,6.85-.08.6-.33,1.11-.75,1.52-.43.41-.94.62-1.54.62h-2.48c-.58,0-1.08-.21-1.51-.64-.43-.43-.64-.93-.64-1.51v-14.91c0-.58.21-1.08.64-1.51.43-.43.93-.64,1.51-.64h2.67c.58,0,1.08.21,1.51.64.43.43.64.93.64,1.51v3.12l.08-.04c2.68-2.99,5.8-4.48,9.34-4.48Z"/>
      <path class="cls-3" d="M323.47,98.58c4.49,0,7.94.98,10.33,2.94,2.4,1.96,3.59,4.62,3.59,7.98,0,2.61-.79,4.9-2.37,6.87-1.58,1.97-3.75,3.39-6.51,4.27-.55.18-1.09.11-1.62-.19-.53-.3-.88-.74-1.05-1.32l-.6-1.96c-.18-.55-.13-1.09.13-1.6.26-.51.67-.9,1.22-1.15,1.23-.58,2.21-1.31,2.94-2.2.73-.89,1.09-1.8,1.09-2.73,0-1.1-.24-2.01-.71-2.71-.03-.05-.08-.08-.17-.08s-.14.04-.17.11c-1.81,4.02-4.15,7.1-7.04,9.24-2.89,2.15-5.96,3.22-9.22,3.22-2.48,0-4.49-.72-6-2.15-1.52-1.43-2.28-3.35-2.28-5.76,0-2.53.76-4.78,2.28-6.74,1.52-1.96,3.68-3.46,6.49-4.52.17-.08.26-.21.26-.41v-2.67c0-.23-.1-.34-.3-.34h-4.71c-.58,0-1.08-.21-1.51-.64-.43-.43-.64-.93-.64-1.51v-1.36c0-.58.21-1.08.64-1.51.43-.43.93-.64,1.51-.64h4.71c.2,0,.3-.11.3-.34v-1.28c0-.58.21-1.08.64-1.51.43-.43.93-.64,1.51-.64h2.11c.58,0,1.08.21,1.51.64.43.43.64.93.64,1.51v1.28c0,.23.11.34.34.34h12.57c.58,0,1.08.21,1.51.64.43.43.64.93.64,1.51v1.36c0,.58-.21,1.08-.64,1.51-.43.43-.93.64-1.51.64h-12.57c-.23,0-.34.11-.34.34v1.36c0,.2.1.3.3.3.85-.08,1.76-.11,2.71-.11ZM311.8,110.62c0,1.61.65,2.48,1.96,2.64.1.03.18,0,.23-.08.05-.08.08-.16.08-.26v-5.65c0-.2-.09-.24-.26-.11-1.33,1.05-2,2.21-2,3.46ZM323.5,104.9c.02-.08.01-.14-.04-.21-.05-.06-.11-.09-.19-.09-.6,0-1.43.05-2.48.15-.23.05-.34.16-.34.34v4.14c0,.05.02.09.07.11.05.03.09.01.11-.04,1.13-1.33,2.08-2.8,2.86-4.41Z"/>
      <path class="cls-3" d="M336.27,152.65l.38,1.81c.13.58.02,1.12-.32,1.62-.34.5-.8.8-1.37.9-1.33.23-2.65.34-3.95.34-2.56,0-4.49-.36-5.8-1.09-1.31-.73-2.13-1.87-2.48-3.43-.23-1-.45-1.69-.68-2.07-.23-.38-.5-.56-.83-.56-.3,0-.93.3-1.9.88-.97.59-3.75,2.4-8.34,5.44-.5.35-1.05.47-1.64.36-.59-.11-1.06-.41-1.41-.88l-1.28-1.81c-.33-.48-.44-1-.34-1.56s.4-1.01.9-1.34l16.79-10.8s.04-.01.04-.04-.01-.04-.04-.04h-13.44c-.58,0-1.08-.21-1.51-.64-.43-.43-.64-.93-.64-1.51v-1.73c0-.58.21-1.08.64-1.51s.93-.64,1.51-.64h20.93c.58,0,1.08.21,1.51.64.43.43.64.93.64,1.51v2.75c0,1.46-.6,2.56-1.81,3.31l-5.12,3.35.04.04c.35,0,.73.26,1.13.77.4.51.69,1.16.87,1.94.25,1.08.55,1.76.88,2.03.34.28,1.05.41,2.13.41.45,0,1.13-.05,2.03-.15.58-.08,1.11.05,1.6.38.49.33.78.77.88,1.32ZM314.32,125.54c4.92.5,9.65.79,14.19.87.58.03,1.07.25,1.49.68.41.43.62.93.62,1.51v1.92c0,.6-.22,1.11-.66,1.52-.44.41-.95.61-1.52.58-4.89-.13-9.85-.46-14.87-1.02-.58-.05-1.05-.31-1.43-.79-.38-.48-.53-1-.45-1.58l.23-1.81c.07-.58.35-1.05.83-1.41.48-.36,1-.52,1.58-.47Z"/>
      <path class="cls-3" d="M326.1,177.67c0,.15.05.35.15.6.78,1.61,1.17,3.28,1.17,5.01,0,3.69-1.04,6.49-3.12,8.41-2.08,1.92-5.55,3.18-10.39,3.78-.6.08-1.14-.07-1.6-.43-.46-.36-.76-.85-.88-1.45l-.38-1.81c-.1-.55.02-1.06.38-1.52s.82-.72,1.39-.77c1.91-.2,3.36-.41,4.35-.64.99-.23,1.69-.48,2.09-.75.4-.28.71-.65.94-1.13.02-.02.04-.06.04-.11s.01-.09.04-.11v-.08h-.08c-1.28.5-2.57.75-3.88.75-2.46,0-4.46-.69-5.99-2.07-1.53-1.38-2.3-3.2-2.3-5.46s.78-4.11,2.33-5.48c1.56-1.37,3.66-2.05,6.32-2.05.78,0,1.62.13,2.52.38h.08s.04-.01.04-.04v-1.17c0-.2-.11-.3-.34-.3h-12.95c-.58,0-1.08-.21-1.51-.64s-.64-.93-.64-1.51v-1.36c0-.58.21-1.08.64-1.51.43-.43.93-.64,1.51-.64h12.95c.23,0,.34-.11.34-.34v-.9c0-.58.21-1.08.64-1.51.43-.43.93-.64,1.51-.64h2.48c.58,0,1.08.21,1.51.64.43.43.64.93.64,1.51v.9c0,.23.11.34.34.34h8.43c.58,0,1.08.21,1.51.64.43.43.64.93.64,1.51v1.36c0,.58-.21,1.08-.64,1.51-.43.43-.93.64-1.51.64h-8.43c-.23,0-.34.1-.34.3v6.14ZM315.35,181.51c.49.43,1.12.64,1.9.64s1.41-.21,1.9-.64c.49-.43.73-.97.73-1.62s-.25-1.19-.73-1.62c-.49-.43-1.12-.64-1.9-.64s-1.41.21-1.9.64c-.49.43-.73.97-.73,1.62s.24,1.19.73,1.62ZM331.56,176.32c.27.5.69,1.28,1.24,2.33.25.53.28,1.07.07,1.62-.2.55-.56.95-1.09,1.2-.55.25-1.1.28-1.66.08-.55-.2-.97-.56-1.24-1.09-.1-.23-.5-.97-1.2-2.22-.28-.5-.33-1.03-.15-1.58.18-.55.53-.97,1.05-1.24h.04c.53-.28,1.08-.33,1.66-.15.58.18,1,.53,1.28,1.05ZM337.58,174.96c.83,1.58,1.25,2.4,1.28,2.45.28.53.32,1.07.13,1.62-.19.55-.54.95-1.07,1.2l-.11.08c-.53.25-1.07.28-1.64.09s-.98-.55-1.26-1.07c-.15-.25-.36-.64-.64-1.17-.28-.53-.48-.92-.6-1.17-.28-.5-.33-1.04-.17-1.62.16-.58.51-.99,1.03-1.24l.11-.04c.53-.28,1.08-.33,1.66-.17.58.16,1,.51,1.28,1.04Z"/>
      <path class="cls-3" d="M336,227.89c.58,0,1.08.21,1.51.64.43.43.64.93.64,1.51v1.54c0,.58-.21,1.08-.64,1.51-.43.43-.93.64-1.51.64h-29.59c-.58,0-1.08-.21-1.51-.64s-.64-.93-.64-1.51v-1.54c0-.58.21-1.08.64-1.51.43-.43.93-.64,1.51-.64h11.44c.23,0,.34-.11.34-.34v-5.72c0-.23-.11-.34-.34-.34h-6.74c-.58,0-1.08-.21-1.51-.64-.43-.43-.64-.93-.64-1.51v-.26c0-.23-.1-.38-.3-.45l-3.58-1.54c-.55-.25-.93-.65-1.15-1.19-.21-.54-.21-1.09.02-1.64,1.51-3.76,2.76-7.69,3.76-11.78.15-.58.48-1.03.98-1.36.5-.33,1.04-.44,1.62-.34l2.18.38c.58.1,1.03.4,1.37.88.34.49.45,1.02.32,1.6-.02.13-.06.29-.11.49s-.09.35-.11.45c-.02.08,0,.15.06.23.06.08.13.11.21.11h3.61c.23,0,.34-.11.34-.34v-2.6c0-.58.21-1.08.64-1.51.43-.43.93-.64,1.51-.64h2.86c.58,0,1.08.21,1.51.64.43.43.64.93.64,1.51v2.6c0,.23.11.34.34.34h9.19c.58,0,1.08.21,1.51.64.43.43.64.93.64,1.51v1.54c0,.58-.21,1.08-.64,1.51s-.93.64-1.51.64h-9.19c-.23,0-.34.11-.34.34v4.4c0,.23.11.34.34.34h7.3c.58,0,1.08.21,1.51.64.43.43.64.93.64,1.51v1.36c0,.58-.21,1.08-.64,1.51s-.93.64-1.51.64h-7.3c-.23,0-.34.11-.34.34v5.72c0,.23.11.34.34.34h10.32ZM318.19,215.51v-4.4c0-.23-.11-.34-.34-.34h-5.27c-.2,0-.34.1-.41.3-.38,1.15-.92,2.65-1.62,4.48-.03.08-.01.14.04.21.05.06.11.09.19.09h7.08c.23,0,.34-.11.34-.34Z"/>
      <path class="cls-3" d="M332.35,266.03l.26,2.3c.08.6-.06,1.14-.41,1.62s-.83.75-1.43.83c-1.15.15-2.33.23-3.54.23-4.62,0-8.31-1.19-11.09-3.56-2.77-2.37-4.16-5.58-4.16-9.62,0-1.88.5-3.76,1.51-5.65,1-1.88,2.37-3.49,4.1-4.82.02,0,.04-.02.04-.08,0-.03-.01-.04-.04-.04-3.59.1-7.17.18-10.73.23-.58,0-1.07-.21-1.49-.64-.41-.43-.62-.93-.62-1.51v-2.11c0-.58.21-1.08.62-1.51.41-.43.91-.64,1.49-.64,9.71-.05,18.77-.26,27.18-.64.58-.02,1.09.16,1.52.56.44.4.67.89.7,1.47l.04,2.11c.02.6-.16,1.12-.56,1.56-.4.44-.9.68-1.51.73-4.82.48-8.45,1.62-10.88,3.43-2.44,1.81-3.65,4.07-3.65,6.78,0,2.28.73,4.08,2.18,5.38,1.46,1.31,3.36,1.96,5.72,1.96.78,0,1.56-.05,2.33-.15.6-.08,1.14.06,1.6.4s.73.8.81,1.37ZM331.37,252.37c.28.5.69,1.28,1.24,2.33.25.53.28,1.07.08,1.62-.2.55-.56.95-1.09,1.2-.55.25-1.1.28-1.66.08-.55-.2-.97-.56-1.24-1.09-.13-.23-.53-.97-1.2-2.22-.28-.5-.33-1.03-.15-1.58.17-.55.53-.97,1.05-1.24h.04c.53-.28,1.08-.33,1.66-.15.58.18,1,.53,1.28,1.05ZM337.39,251.01c.83,1.58,1.25,2.4,1.28,2.45.28.53.32,1.07.13,1.62-.19.55-.55.95-1.07,1.2l-.11.08c-.53.25-1.07.28-1.64.09-.56-.19-.98-.55-1.26-1.07-.13-.25-.33-.64-.6-1.17-.28-.53-.49-.92-.64-1.17-.28-.5-.33-1.04-.17-1.62.16-.58.51-.99,1.04-1.24l.11-.04c.53-.28,1.08-.33,1.66-.17.58.16,1,.51,1.28,1.04Z"/>
      <path class="cls-3" d="M323.58,278.53c.58,0,1.07.21,1.47.64.4.43.59.93.56,1.51l-.9,14.16c-.05.6-.29,1.11-.72,1.52-.43.41-.94.62-1.54.62h-2.49c-.6,0-1.12-.21-1.54-.62-.43-.41-.66-.92-.71-1.52l-.9-14.16c-.03-.58.16-1.08.56-1.51.4-.43.89-.64,1.47-.64h4.74ZM322.83,299.99c.58,0,1.08.21,1.51.64s.64.93.64,1.51v1.73c0,.58-.21,1.08-.64,1.51-.43.43-.93.64-1.51.64h-3.24c-.58,0-1.08-.21-1.51-.64-.43-.43-.64-.93-.64-1.51v-1.73c0-.58.21-1.08.64-1.51.43-.43.93-.64,1.51-.64h3.24Z"/>
    </g>
    <g>
      <path d="M334.5,41.54c.08.6-.06,1.14-.41,1.6-.35.46-.83.75-1.43.85-3.51.53-7.33.79-11.44.79-9.29,0-13.93-3.26-13.93-9.79,0-3.26,1.73-6.16,5.2-8.7.17-.13.24-.29.19-.49-.75-3.26-1.42-6.54-1.99-9.83-.1-.58.02-1.1.36-1.56.34-.46.8-.75,1.37-.85l3.12-.45c.58-.1,1.1.03,1.58.38.48.35.78.82.9,1.39.58,2.96,1.08,5.4,1.51,7.3.05.23.18.29.38.19,3.16-1.28,6.93-2.43,11.29-3.46.55-.13,1.07-.03,1.56.28.49.31.8.76.92,1.34l.49,2.18c.13.58.02,1.12-.3,1.64-.33.51-.77.83-1.32.96-5.85,1.41-10.27,2.95-13.25,4.63-2.99,1.68-4.48,3.24-4.48,4.67,0,1.28.5,2.23,1.51,2.84,1,.62,2.64.92,4.89.92,3.46,0,7.03-.26,10.69-.79.58-.1,1.1.03,1.56.38.46.35.73.82.81,1.39l.23,2.18Z"/>
      <path d="M324.59,51.89c3.34,0,5.99,1.12,7.96,3.37,1.97,2.25,2.95,5.39,2.95,9.43,0,6-1.66,10.44-4.97,13.33-3.31,2.89-8.61,4.45-15.89,4.71-.6.02-1.11-.17-1.52-.58-.41-.41-.65-.92-.7-1.52l-.15-2.11c-.03-.58.16-1.08.55-1.51.39-.43.87-.65,1.45-.68,5.2-.18,8.78-1.12,10.75-2.84,1.97-1.72,2.95-4.65,2.95-8.79s-1.38-6.02-4.14-6.02c-2.08,0-3.95.89-5.61,2.67-1.66,1.78-2.69,4.07-3.09,6.85-.08.6-.33,1.11-.75,1.52-.43.41-.94.62-1.54.62h-2.48c-.58,0-1.08-.21-1.51-.64-.43-.43-.64-.93-.64-1.51v-14.91c0-.58.21-1.08.64-1.51.43-.43.93-.64,1.51-.64h2.67c.58,0,1.08.21,1.51.64.43.43.64.93.64,1.51v3.12l.08-.04c2.68-2.99,5.8-4.48,9.34-4.48Z"/>
      <path d="M323.47,98.58c4.49,0,7.94.98,10.33,2.94,2.4,1.96,3.59,4.62,3.59,7.98,0,2.61-.79,4.9-2.37,6.87-1.58,1.97-3.75,3.39-6.51,4.27-.55.18-1.09.11-1.62-.19-.53-.3-.88-.74-1.05-1.32l-.6-1.96c-.18-.55-.13-1.09.13-1.6.26-.51.67-.9,1.22-1.15,1.23-.58,2.21-1.31,2.94-2.2.73-.89,1.09-1.8,1.09-2.73,0-1.1-.24-2.01-.71-2.71-.03-.05-.08-.08-.17-.08s-.14.04-.17.11c-1.81,4.02-4.15,7.1-7.04,9.24-2.89,2.15-5.96,3.22-9.22,3.22-2.48,0-4.49-.72-6-2.15-1.52-1.43-2.28-3.35-2.28-5.76,0-2.53.76-4.78,2.28-6.74,1.52-1.96,3.68-3.46,6.49-4.52.17-.08.26-.21.26-.41v-2.67c0-.23-.1-.34-.3-.34h-4.71c-.58,0-1.08-.21-1.51-.64-.43-.43-.64-.93-.64-1.51v-1.36c0-.58.21-1.08.64-1.51.43-.43.93-.64,1.51-.64h4.71c.2,0,.3-.11.3-.34v-1.28c0-.58.21-1.08.64-1.51.43-.43.93-.64,1.51-.64h2.11c.58,0,1.08.21,1.51.64.43.43.64.93.64,1.51v1.28c0,.23.11.34.34.34h12.57c.58,0,1.08.21,1.51.64.43.43.64.93.64,1.51v1.36c0,.58-.21,1.08-.64,1.51-.43.43-.93.64-1.51.64h-12.57c-.23,0-.34.11-.34.34v1.36c0,.2.1.3.3.3.85-.08,1.76-.11,2.71-.11ZM311.8,110.62c0,1.61.65,2.48,1.96,2.64.1.03.18,0,.23-.08.05-.08.08-.16.08-.26v-5.65c0-.2-.09-.24-.26-.11-1.33,1.05-2,2.21-2,3.46ZM323.5,104.9c.02-.08.01-.14-.04-.21-.05-.06-.11-.09-.19-.09-.6,0-1.43.05-2.48.15-.23.05-.34.16-.34.34v4.14c0,.05.02.09.07.11.05.03.09.01.11-.04,1.13-1.33,2.08-2.8,2.86-4.41Z"/>
      <path d="M336.27,152.65l.38,1.81c.13.58.02,1.12-.32,1.62-.34.5-.8.8-1.37.9-1.33.23-2.65.34-3.95.34-2.56,0-4.49-.36-5.8-1.09-1.31-.73-2.13-1.87-2.48-3.43-.23-1-.45-1.69-.68-2.07-.23-.38-.5-.56-.83-.56-.3,0-.93.3-1.9.88-.97.59-3.75,2.4-8.34,5.44-.5.35-1.05.47-1.64.36-.59-.11-1.06-.41-1.41-.88l-1.28-1.81c-.33-.48-.44-1-.34-1.56s.4-1.01.9-1.34l16.79-10.8s.04-.01.04-.04-.01-.04-.04-.04h-13.44c-.58,0-1.08-.21-1.51-.64-.43-.43-.64-.93-.64-1.51v-1.73c0-.58.21-1.08.64-1.51s.93-.64,1.51-.64h20.93c.58,0,1.08.21,1.51.64.43.43.64.93.64,1.51v2.75c0,1.46-.6,2.56-1.81,3.31l-5.12,3.35.04.04c.35,0,.73.26,1.13.77.4.51.69,1.16.87,1.94.25,1.08.55,1.76.88,2.03.34.28,1.05.41,2.13.41.45,0,1.13-.05,2.03-.15.58-.08,1.11.05,1.6.38.49.33.78.77.88,1.32ZM314.32,125.54c4.92.5,9.65.79,14.19.87.58.03,1.07.25,1.49.68.41.43.62.93.62,1.51v1.92c0,.6-.22,1.11-.66,1.52-.44.41-.95.61-1.52.58-4.89-.13-9.85-.46-14.87-1.02-.58-.05-1.05-.31-1.43-.79-.38-.48-.53-1-.45-1.58l.23-1.81c.07-.58.35-1.05.83-1.41.48-.36,1-.52,1.58-.47Z"/>
      <path d="M326.1,177.67c0,.15.05.35.15.6.78,1.61,1.17,3.28,1.17,5.01,0,3.69-1.04,6.49-3.12,8.41-2.08,1.92-5.55,3.18-10.39,3.78-.6.08-1.14-.07-1.6-.43-.46-.36-.76-.85-.88-1.45l-.38-1.81c-.1-.55.02-1.06.38-1.52s.82-.72,1.39-.77c1.91-.2,3.36-.41,4.35-.64.99-.23,1.69-.48,2.09-.75.4-.28.71-.65.94-1.13.02-.02.04-.06.04-.11s.01-.09.04-.11v-.08h-.08c-1.28.5-2.57.75-3.88.75-2.46,0-4.46-.69-5.99-2.07-1.53-1.38-2.3-3.2-2.3-5.46s.78-4.11,2.33-5.48c1.56-1.37,3.66-2.05,6.32-2.05.78,0,1.62.13,2.52.38h.08s.04-.01.04-.04v-1.17c0-.2-.11-.3-.34-.3h-12.95c-.58,0-1.08-.21-1.51-.64s-.64-.93-.64-1.51v-1.36c0-.58.21-1.08.64-1.51.43-.43.93-.64,1.51-.64h12.95c.23,0,.34-.11.34-.34v-.9c0-.58.21-1.08.64-1.51.43-.43.93-.64,1.51-.64h2.48c.58,0,1.08.21,1.51.64.43.43.64.93.64,1.51v.9c0,.23.11.34.34.34h8.43c.58,0,1.08.21,1.51.64.43.43.64.93.64,1.51v1.36c0,.58-.21,1.08-.64,1.51-.43.43-.93.64-1.51.64h-8.43c-.23,0-.34.1-.34.3v6.14ZM315.35,181.51c.49.43,1.12.64,1.9.64s1.41-.21,1.9-.64c.49-.43.73-.97.73-1.62s-.25-1.19-.73-1.62c-.49-.43-1.12-.64-1.9-.64s-1.41.21-1.9.64c-.49.43-.73.97-.73,1.62s.24,1.19.73,1.62ZM331.56,176.32c.27.5.69,1.28,1.24,2.33.25.53.28,1.07.07,1.62-.2.55-.56.95-1.09,1.2-.55.25-1.1.28-1.66.08-.55-.2-.97-.56-1.24-1.09-.1-.23-.5-.97-1.2-2.22-.28-.5-.33-1.03-.15-1.58.18-.55.53-.97,1.05-1.24h.04c.53-.28,1.08-.33,1.66-.15.58.18,1,.53,1.28,1.05ZM337.58,174.96c.83,1.58,1.25,2.4,1.28,2.45.28.53.32,1.07.13,1.62-.19.55-.54.95-1.07,1.2l-.11.08c-.53.25-1.07.28-1.64.09s-.98-.55-1.26-1.07c-.15-.25-.36-.64-.64-1.17-.28-.53-.48-.92-.6-1.17-.28-.5-.33-1.04-.17-1.62.16-.58.51-.99,1.03-1.24l.11-.04c.53-.28,1.08-.33,1.66-.17.58.16,1,.51,1.28,1.04Z"/>
      <path d="M336,227.89c.58,0,1.08.21,1.51.64.43.43.64.93.64,1.51v1.54c0,.58-.21,1.08-.64,1.51-.43.43-.93.64-1.51.64h-29.59c-.58,0-1.08-.21-1.51-.64s-.64-.93-.64-1.51v-1.54c0-.58.21-1.08.64-1.51.43-.43.93-.64,1.51-.64h11.44c.23,0,.34-.11.34-.34v-5.72c0-.23-.11-.34-.34-.34h-6.74c-.58,0-1.08-.21-1.51-.64-.43-.43-.64-.93-.64-1.51v-.26c0-.23-.1-.38-.3-.45l-3.58-1.54c-.55-.25-.93-.65-1.15-1.19-.21-.54-.21-1.09.02-1.64,1.51-3.76,2.76-7.69,3.76-11.78.15-.58.48-1.03.98-1.36.5-.33,1.04-.44,1.62-.34l2.18.38c.58.1,1.03.4,1.37.88.34.49.45,1.02.32,1.6-.02.13-.06.29-.11.49s-.09.35-.11.45c-.02.08,0,.15.06.23.06.08.13.11.21.11h3.61c.23,0,.34-.11.34-.34v-2.6c0-.58.21-1.08.64-1.51.43-.43.93-.64,1.51-.64h2.86c.58,0,1.08.21,1.51.64.43.43.64.93.64,1.51v2.6c0,.23.11.34.34.34h9.19c.58,0,1.08.21,1.51.64.43.43.64.93.64,1.51v1.54c0,.58-.21,1.08-.64,1.51s-.93.64-1.51.64h-9.19c-.23,0-.34.11-.34.34v4.4c0,.23.11.34.34.34h7.3c.58,0,1.08.21,1.51.64.43.43.64.93.64,1.51v1.36c0,.58-.21,1.08-.64,1.51s-.93.64-1.51.64h-7.3c-.23,0-.34.11-.34.34v5.72c0,.23.11.34.34.34h10.32ZM318.19,215.51v-4.4c0-.23-.11-.34-.34-.34h-5.27c-.2,0-.34.1-.41.3-.38,1.15-.92,2.65-1.62,4.48-.03.08-.01.14.04.21.05.06.11.09.19.09h7.08c.23,0,.34-.11.34-.34Z"/>
      <path d="M332.35,266.03l.26,2.3c.08.6-.06,1.14-.41,1.62s-.83.75-1.43.83c-1.15.15-2.33.23-3.54.23-4.62,0-8.31-1.19-11.09-3.56-2.77-2.37-4.16-5.58-4.16-9.62,0-1.88.5-3.76,1.51-5.65,1-1.88,2.37-3.49,4.1-4.82.02,0,.04-.02.04-.08,0-.03-.01-.04-.04-.04-3.59.1-7.17.18-10.73.23-.58,0-1.07-.21-1.49-.64-.41-.43-.62-.93-.62-1.51v-2.11c0-.58.21-1.08.62-1.51.41-.43.91-.64,1.49-.64,9.71-.05,18.77-.26,27.18-.64.58-.02,1.09.16,1.52.56.44.4.67.89.7,1.47l.04,2.11c.02.6-.16,1.12-.56,1.56-.4.44-.9.68-1.51.73-4.82.48-8.45,1.62-10.88,3.43-2.44,1.81-3.65,4.07-3.65,6.78,0,2.28.73,4.08,2.18,5.38,1.46,1.31,3.36,1.96,5.72,1.96.78,0,1.56-.05,2.33-.15.6-.08,1.14.06,1.6.4s.73.8.81,1.37ZM331.37,252.36c.28.5.69,1.28,1.24,2.33.25.53.28,1.07.08,1.62-.2.55-.56.95-1.09,1.2-.55.25-1.1.28-1.66.08-.55-.2-.97-.56-1.24-1.09-.13-.23-.53-.97-1.2-2.22-.28-.5-.33-1.03-.15-1.58.17-.55.53-.97,1.05-1.24h.04c.53-.28,1.08-.33,1.66-.15.58.18,1,.53,1.28,1.05ZM337.39,251.01c.83,1.58,1.25,2.4,1.28,2.45.28.53.32,1.07.13,1.62-.19.55-.55.95-1.07,1.2l-.11.08c-.53.25-1.07.28-1.64.09-.56-.19-.98-.55-1.26-1.07-.13-.25-.33-.64-.6-1.17-.28-.53-.49-.92-.64-1.17-.28-.5-.33-1.04-.17-1.62.16-.58.51-.99,1.04-1.24l.11-.04c.53-.28,1.08-.33,1.66-.17.58.16,1,.51,1.28,1.04Z"/>
      <path d="M323.58,278.53c.58,0,1.07.21,1.47.64.4.43.59.93.56,1.51l-.9,14.16c-.05.6-.29,1.11-.72,1.52-.43.41-.94.62-1.54.62h-2.49c-.6,0-1.12-.21-1.54-.62-.43-.41-.66-.92-.71-1.52l-.9-14.16c-.03-.58.16-1.08.56-1.51.4-.43.89-.64,1.47-.64h4.74ZM322.83,299.99c.58,0,1.08.21,1.51.64s.64.93.64,1.51v1.73c0,.58-.21,1.08-.64,1.51-.43.43-.93.64-1.51.64h-3.24c-.58,0-1.08-.21-1.51-.64-.43-.43-.64-.93-.64-1.51v-1.73c0-.58.21-1.08.64-1.51.43-.43.93-.64,1.51-.64h3.24Z"/>
    </g>
    <ellipse class="cls-8" cx="166.93" cy="302.12" rx="73.19" ry="4.73"/>
    <path class="cls-7" d="M230.44,227.26c16.13-36.99-4.63-73.79-14.25-74.21l-30.65.23c10.66,32.86,7.41,63.92,7.41,63.92l37.49,10.06Z"/>
    <path class="cls-7" d="M225.07,243.48c-.36,29.44-14.4,46.44-14.4,46.44h-83.93c-14.44-22.16-14.39-46.44-14.39-46.44h112.72Z"/>
    <polygon class="cls-7" points="236.39 244.97 101.03 244.97 124.64 124.64 210.15 124.64 236.39 244.97"/>
    <polygon class="cls-7" points="140.78 153.06 119.06 153.06 128.18 168.87 142.27 170.1 131.59 177.66 164.3 216.55 140.78 153.06"/>
    <polygon class="cls-7" points="193.64 153.06 215.35 153.06 206.23 168.87 192.15 170.1 202.82 177.66 170.12 216.55 193.64 153.06"/>
    <polygon class="cls-7" points="140.88 153.06 167.33 153.06 193.65 153.04 187.91 168.52 167.33 154.17 146.45 168.1 140.88 153.06"/>
    <polygon class="cls-2" points="157.1 160.99 160.26 171.59 174.83 171.59 177.55 160.99 167.33 154.17 157.1 160.99"/>
    <polygon class="cls-2" points="160.26 171.59 152.34 184.26 167.17 224.05 181.53 185.84 174.83 171.59 160.26 171.59"/>
    <line class="cls-5" x1="166.93" y1="289.5" x2="166.93" y2="259.02"/>
    <ellipse class="cls-10" cx="140.27" cy="293.22" rx="26.66" ry="12.43"/>
    <ellipse class="cls-10" cx="193.59" cy="293.22" rx="26.66" ry="12.43"/>
    <rect class="cls-4" x="61.72" y="12.03" width="211.09" height="141"/>
    <circle class="cls-2" cx="166.93" cy="82.54" r="42.74"/>
    <path class="cls-11" d="M84.75,26.58c.21,2.58,3.65,8.54,5.12,14.07,1.76,6.59-2.69,12.36-6.01,12.36s-6.85-5.58-6.01-12.36c.4-3.24,2.46-6.09,3-8.74"/>
    <ellipse class="cls-1" cx="81.73" cy="174" rx="10.89" ry="17.69" transform="translate(-28.51 16.51) rotate(-9.83)"/>
    <ellipse class="cls-7" cx="81.73" cy="174" rx="5.39" ry="10.65" transform="translate(-28.51 16.51) rotate(-9.83)"/>
    <path class="cls-9" d="M85.41,131.76v73.53c0,6.05,11.81,10.96,26.37,10.96s26.37-4.9,26.37-10.96v-73.53h-52.74Z"/>
    <path class="cls-4" d="M104.59,155.73c-1.47,0-2.67,1.19-2.67,2.67s1.19,2.67,2.67,2.67,2.67-1.19,2.67-2.67-1.19-2.67-2.67-2.67Z"/>
    <path class="cls-4" d="M136.37,121.44c-.1,0-.19.03-.29.03-1.65-3.78-4.99-6.4-8.9-6.4-1.6,0-3.08.47-4.42,1.24-2.36-2.85-5.66-4.65-9.33-4.65-2.82,0-5.41,1.07-7.53,2.85-2.13-1.77-4.71-2.85-7.53-2.85-5.68,0-10.45,4.27-12.19,10.17-.25-.02-.49-.09-.75-.09-5.38,0-9.74,5.05-9.74,11.29s4.36,11.29,9.74,11.29c2.59,0,4.88-1.24,6.62-3.16,0,.11-.03.22-.03.33,0,2.97,1.81,5.52,4.39,6.6-.03.2-.12.38-.12.59,0,2.59,2.1,4.69,4.69,4.69s4.69-2.1,4.69-4.69c0-1.03-.4-1.93-.96-2.7,1-1.23,1.62-2.78,1.62-4.49,0-.93-.19-1.8-.51-2.62.03-.02.06-.04.08-.06,2.13,1.77,4.71,2.85,7.53,2.85,3.68,0,6.98-1.8,9.33-4.65,1.34.77,2.83,1.24,4.42,1.24.1,0,.19-.03.29-.03,1.65,3.78,4.99,6.4,8.9,6.4,5.53,0,10-5.19,10-11.6s-4.48-11.6-10-11.6Z"/>
    <ellipse class="cls-6" cx="73.96" cy="176.95" rx="8.68" ry="13.21" transform="translate(-46.52 27.74) rotate(-16.24)"/>
    <ellipse id="_親指" data-name="親指" class="cls-6" cx="77.73" cy="171.59" rx="6.59" ry="4.66" transform="translate(-109.04 196.09) rotate(-73.1)"/>
  </g>
</svg>