<?xml version="1.0" encoding="UTF-8"?>
<svg id="_レイヤー_1" data-name="レイヤー 1" xmlns="http://www.w3.org/2000/svg" viewBox="0 0 370 320">
  <defs>
    <style>
      .cls-1 {
        fill: red;
      }

      .cls-1, .cls-2, .cls-3, .cls-4, .cls-5, .cls-6, .cls-7, .cls-8, .cls-9 {
        stroke-linecap: round;
        stroke-linejoin: round;
      }

      .cls-1, .cls-3, .cls-4, .cls-5, .cls-6, .cls-7, .cls-8, .cls-9 {
        stroke: #000;
        stroke-width: 2px;
      }

      .cls-2 {
        stroke: #fff;
        stroke-width: 5px;
      }

      .cls-2, .cls-3 {
        fill: #fff;
      }

      .cls-4 {
        fill: none;
      }

      .cls-10 {
        opacity: .2;
      }

      .cls-5 {
        fill: #f4db8e;
      }

      .cls-6 {
        fill: #1b1464;
      }

      .cls-7 {
        opacity: .3;
      }

      .cls-8 {
        fill: #40210f;
      }

      .cls-9 {
        fill: #009fe8;
      }
    </style>
  </defs>
  <g>
    <path class="cls-2" d="M333.14,18.67c.46,0,.85.17,1.19.5.34.34.5.73.5,1.19v16.64c0,.46-.17.85-.5,1.19s-.73.5-1.19.5h-2.52c-.36,0-.66-.12-.9-.37-.25-.25-.37-.55-.37-.9,0-.14-.07-.21-.21-.21h-4.15c-.16,0-.24.09-.24.27v4.12c0,.46-.17.85-.5,1.19-.34.34-.73.5-1.19.5h-1.96c-.46,0-.85-.17-1.19-.5s-.5-.73-.5-1.19v-4.12c0-.18-.09-.27-.27-.27h-4.12c-.14,0-.21.07-.21.21,0,.36-.12.66-.37.9s-.55.37-.91.37h-2.52c-.46,0-.85-.17-1.19-.5-.34-.34-.5-.73-.5-1.19v-16.64c0-.45.17-.85.5-1.19.34-.34.73-.5,1.19-.5h8.13c.18,0,.27-.09.27-.27v-1.31c0-.46.17-.85.5-1.19s.73-.5,1.19-.5h1.96c.45,0,.85.17,1.19.5.34.34.5.73.5,1.19v1.31c0,.18.08.27.24.27h8.16ZM319.4,25.53v-2.17c0-.16-.09-.24-.27-.24h-4.06c-.18,0-.27.08-.27.24v2.17c0,.18.09.27.27.27h4.06c.18,0,.27-.09.27-.27ZM319.4,32.65v-2.28c0-.18-.09-.27-.27-.27h-4.06c-.18,0-.27.09-.27.27v2.28c0,.18.09.27.27.27h4.06c.18,0,.27-.09.27-.27ZM329.34,25.53v-2.17c0-.16-.09-.24-.27-.24h-4.09c-.16,0-.24.08-.24.24v2.17c0,.18.08.27.24.27h4.09c.18,0,.27-.09.27-.27ZM329.34,32.65v-2.28c0-.18-.09-.27-.27-.27h-4.09c-.16,0-.24.09-.24.27v2.28c0,.18.08.27.24.27h4.09c.18,0,.27-.09.27-.27Z"/>
    <path class="cls-2" d="M332.96,59.62c.43.16.75.45.93.86.19.42.19.84.01,1.28-1.44,3.4-3.19,5.87-5.25,7.42-2.06,1.54-4.45,2.31-7.18,2.31-2.43,0-4.31-.35-5.64-1.04-1.33-.69-2.3-1.89-2.92-3.59-.62-1.7-.93-4.11-.93-7.24,0-3.66.11-7.45.33-11.36.04-.47.23-.88.58-1.2.35-.33.76-.48,1.23-.46l2.4.09c.46.02.84.2,1.14.53.31.34.45.73.43,1.19-.22,3.76-.33,7.5-.33,11.21,0,1.8.12,3.17.37,4.11.25.94.63,1.58,1.14,1.91.51.34,1.25.5,2.2.5,1.44,0,2.76-.48,3.95-1.45,1.19-.97,2.31-2.59,3.38-4.87.22-.44.54-.74.96-.92s.86-.19,1.29-.03l1.9.74Z"/>
    <path class="cls-2" d="M317.71,84.09h-7.89c-.46,0-.85-.17-1.19-.5-.34-.34-.5-.73-.5-1.19v-.62c0-.46.17-.85.5-1.19s.73-.5,1.19-.5h7.89c.45,0,.85.17,1.19.5.34.34.5.73.5,1.19v.62c0,.46-.17.85-.5,1.19s-.73.5-1.19.5ZM331.48,90.12c.81,2.67,2.17,5.05,4.06,7.15.34.36.52.77.56,1.25.04.47-.08.91-.36,1.31l-1.1,1.48c-.28.38-.65.59-1.11.64-.47.05-.87-.08-1.2-.4-1.31-1.25-2.51-2.86-3.6-4.85-1.1-1.99-1.96-4.17-2.6-6.54-.04-.18-.15-.27-.33-.27h-.39c-.2,0-.3.09-.3.27-.34,4.25-1.21,7.92-2.61,11.01-.2.4-.51.65-.93.77-.43.12-.83.05-1.2-.21l-1.48-1.01c-.16-.08-.27-.05-.33.09-.34.53-.82.8-1.45.8h-3.83c-.08,0-.12.04-.12.12,0,.22-.08.4-.24.55-.16.15-.34.22-.53.22h-1.84c-.46,0-.85-.17-1.19-.5s-.5-.73-.5-1.19v-5.96c0-.46.17-.85.5-1.19s.73-.5,1.19-.5h6.56c.46,0,.85.17,1.19.5.34.34.5.73.5,1.19v.95s.04.03.06.03c.85-2.85,1.28-7.4,1.28-13.65v-4.69c0-.45.17-.85.5-1.19s.73-.5,1.19-.5h12.05c.46,0,.85.17,1.19.5.34.34.5.73.5,1.19v10.71c0,.46-.17.85-.5,1.19-.34.34-.73.5-1.19.5h-2.23c-.16,0-.22.08-.18.24ZM316.97,75.79c.45,0,.85.17,1.19.5.34.34.5.73.5,1.19v.18c0,.46-.17.85-.5,1.19-.34.34-.73.5-1.19.5h-6.41c-.46,0-.85-.17-1.19-.5-.34-.34-.5-.73-.5-1.19v-.18c0-.45.17-.85.5-1.19s.73-.5,1.19-.5h6.41ZM318.66,86.52v.03c0,.46-.17.85-.5,1.19-.34.34-.73.5-1.19.5h-6.11c-.46,0-.85-.17-1.19-.5s-.5-.73-.5-1.19v-.03c0-.45.17-.85.5-1.19.34-.34.73-.5,1.19-.5h6.11c.45,0,.85.17,1.19.5.34.34.5.73.5,1.19ZM316.97,88.99c.45,0,.85.17,1.19.5.34.34.5.73.5,1.19v.03c0,.46-.17.85-.5,1.19s-.73.5-1.19.5h-6.11c-.46,0-.85-.17-1.19-.5-.34-.34-.5-.73-.5-1.19v-.03c0-.45.17-.85.5-1.19s.73-.5,1.19-.5h6.11ZM315.1,98.07v-1.42c0-.16-.09-.24-.27-.24h-1.42c-.16,0-.24.08-.24.24v1.42c0,.18.08.27.24.27h1.42c.18,0,.27-.09.27-.27ZM330.23,85.16v-4.54c0-.16-.09-.24-.27-.24h-4.36c-.18,0-.27.08-.27.24v4.57c0,.16.08.24.24.24h4.39c.18,0,.27-.09.27-.27Z"/>
    <path class="cls-2" d="M332.04,125.95l.39,1.72c.1.46.02.89-.24,1.29-.26.41-.61.66-1.07.76-3.44.73-6.56,1.1-9.35,1.1-3.64,0-6.48-.62-8.51-1.87-2.04-1.25-3.06-2.9-3.06-4.95,0-1.05.28-2.1.83-3.16s1.51-2.29,2.88-3.69c.34-.34.75-.52,1.23-.55.48-.03.92.09,1.32.37l1.42,1.01c.36.26.55.6.58,1.04s-.1.81-.4,1.13c-1.38,1.46-2.08,2.55-2.08,3.26s.48,1.29,1.44,1.72,2.41.65,4.35.65c2.35,0,5.12-.36,8.31-1.07.45-.1.88-.02,1.26.22.39.25.62.59.7,1.02ZM330.98,109.7c0,.46-.17.85-.5,1.19s-.73.5-1.19.5h-14.72c-.46,0-.85-.17-1.19-.5-.34-.34-.5-.73-.5-1.19v-1.51c0-.45.17-.85.5-1.19s.73-.5,1.19-.5h14.72c.45,0,.85.17,1.19.5.34.34.5.73.5,1.19v1.51ZM326.58,113.94c.42-.22.85-.26,1.31-.12.45.14.79.42,1.01.83.22.4.54,1.01.98,1.84.2.42.22.84.06,1.28s-.44.75-.86.95c-.44.2-.87.22-1.31.06-.44-.16-.76-.45-.98-.86-.1-.18-.42-.76-.95-1.75-.22-.4-.26-.81-.12-1.25.14-.44.42-.76.83-.98h.03ZM333.65,113.58c.65,1.25.99,1.89,1.01,1.93.22.42.25.84.1,1.28s-.43.75-.85.95l-.09.06c-.42.2-.85.22-1.29.07-.45-.15-.78-.43-.99-.85-.1-.2-.26-.5-.47-.92-.22-.42-.39-.72-.5-.92-.22-.4-.26-.82-.13-1.28.13-.46.4-.78.82-.98l.09-.03c.42-.22.85-.26,1.31-.13.45.13.79.4,1.01.82Z"/>
    <path class="cls-2" d="M332.1,138.35c.45-.02.85.13,1.2.44.35.32.53.7.55,1.16l.03,1.36c.02.46-.13.86-.44,1.22s-.7.54-1.16.56c-.04,0-1.78.06-5.22.18-.16,0-.22.09-.18.27.45,1.52,1.19,3.16,2.2,4.92.22.4.26.8.12,1.2-.14.41-.41.7-.8.88l-2.11.92c-.93.4-1.94.37-3.03-.09-1.38-.59-2.82-.89-4.3-.89-.81,0-1.46.22-1.94.65-.48.44-.73,1.01-.73,1.72,0,1.03.49,1.83,1.48,2.4.99.57,2.47.86,4.45.86,1.36,0,3.28-.2,5.76-.59.45-.08.88.02,1.26.28.39.27.62.63.7,1.08l.3,1.42c.1.46.01.88-.25,1.26-.27.39-.63.62-1.08.7-2.37.4-4.6.59-6.68.59-3.7,0-6.55-.74-8.56-2.21-2.01-1.47-3.01-3.51-3.01-6.1,0-2.06.72-3.71,2.17-4.95,1.44-1.25,3.39-1.87,5.84-1.87,1.11,0,2.27.15,3.5.45h.06v-.09c-.34-.83-.59-1.62-.77-2.37-.04-.18-.14-.27-.3-.27-3.72.1-7.05.15-10,.15-.47,0-.88-.17-1.2-.5-.33-.34-.49-.73-.49-1.19v-1.36c0-.45.16-.85.49-1.19.33-.34.72-.5,1.17-.5,2.06,0,5.16-.04,9.32-.12.12,0,.18-.09.18-.27-.02-.46-.05-.93-.09-1.42-.02-.47.12-.88.43-1.22.31-.34.7-.52,1.17-.56l1.96-.12c.46-.02.86.13,1.2.45.35.32.54.7.58,1.16.02.36.05.87.09,1.54,0,.18.09.27.27.27.24,0,.6,0,1.08-.03.48-.02.85-.03,1.08-.03.06,0,.1-.03.13-.09.03-.06.02-.11-.01-.15-.06-.12-.18-.35-.36-.7-.18-.35-.32-.61-.42-.79-.2-.38-.23-.77-.1-1.17.13-.41.38-.71.76-.9.4-.2.8-.23,1.2-.09.41.14.72.41.93.8.1.18.24.44.42.79.18.35.32.61.42.79.18.38.21.75.09,1.13-.04.16,0,.24.12.24h.53ZM335.07,134.97c.1.2.24.48.43.86.19.38.32.64.4.8.2.4.23.79.09,1.19-.14.4-.41.69-.8.89-.4.2-.8.23-1.2.09-.41-.14-.72-.41-.93-.8-.18-.36-.46-.89-.86-1.6-.2-.4-.23-.8-.1-1.2.13-.41.39-.71.79-.91.4-.2.81-.23,1.25-.09.43.14.75.4.95.77Z"/>
    <path class="cls-2" d="M324.66,180.15c.43.16.75.45.95.88.2.43.21.86.03,1.29-1.05,2.51-2.33,4.46-3.84,5.84-1.51,1.38-3,2.08-4.46,2.08-1.82,0-3.51-1.18-5.07-3.53-1.56-2.35-2.34-5.23-2.34-8.63,0-3.05.39-6.06,1.16-9.05.12-.47.38-.85.79-1.13s.86-.39,1.35-.33l2.17.24c.43.04.78.24,1.02.61.25.37.32.77.22,1.2-.71,3.01-1.07,5.83-1.07,8.46,0,.93.07,1.81.22,2.66s.34,1.53.58,2.08c.24.54.48.98.73,1.31.25.33.48.49.7.49.32,0,.75-.35,1.31-1.05.55-.7,1.14-1.73,1.75-3.07.2-.42.51-.71.93-.89.42-.18.85-.19,1.29-.03l1.6.59ZM329.19,167.58c.47-.14.93-.11,1.36.09.44.2.74.51.92.95,2.04,4.94,3.15,10.5,3.32,16.67.02.46-.14.85-.47,1.19s-.73.5-1.19.5h-2.25c-.46,0-.85-.16-1.19-.49-.34-.33-.51-.72-.53-1.17-.18-5.32-1.15-10.37-2.91-15.16-.16-.43-.14-.85.06-1.26.2-.41.51-.67.95-.79l1.93-.53Z"/>
    <path class="cls-2" d="M332.25,196.68c.45,0,.85.17,1.19.5.34.34.5.73.5,1.19v1.36c0,.46-.17.85-.5,1.19s-.73.5-1.19.5h-5.16c-.18,0-.27.09-.27.27v.68c0,.16.09.24.27.24h3.98c.46,0,.85.17,1.19.5.34.34.5.73.5,1.19v1.22c0,.46-.17.85-.5,1.19s-.73.5-1.19.5h-3.98c-.18,0-.27.09-.27.27v3.09c0,.18.08.32.24.42,1.64,1.03,3.32,2.31,5.04,3.86.34.32.52.71.55,1.17.03.46-.11.87-.43,1.2l-1.01,1.07c-.32.34-.7.52-1.16.55s-.85-.11-1.19-.43c-.75-.69-1.51-1.34-2.28-1.96-.12-.12-.23-.09-.33.09-.47,1.27-1.32,2.18-2.52,2.74-1.21.56-2.85.85-4.92.85-2.24,0-3.98-.52-5.24-1.56-1.26-1.04-1.88-2.5-1.88-4.38s.61-3.24,1.84-4.26c1.23-1.02,2.99-1.53,5.28-1.53.87,0,1.68.07,2.43.21.16.04.24-.03.24-.21v-.92c0-.18-.08-.27-.24-.27h-8.16c-.46,0-.85-.17-1.19-.5-.34-.34-.5-.73-.5-1.19v-1.22c0-.46.17-.85.5-1.19.34-.34.73-.5,1.19-.5h8.16c.16,0,.24-.08.24-.24v-.68c0-.18-.08-.27-.24-.27h-9.35c-.46,0-.85-.17-1.19-.5-.34-.34-.5-.73-.5-1.19v-1.36c0-.45.17-.85.5-1.19s.73-.5,1.19-.5h9.35c.16,0,.24-.09.24-.27v-.42c0-.45.17-.85.5-1.19.34-.34.73-.5,1.19-.5h1.96c.45,0,.85.17,1.19.5.34.34.5.73.5,1.19v.42c0,.18.09.27.27.27h5.16ZM318.81,215.38c1.01,0,1.69-.11,2.03-.33.35-.22.55-.69.61-1.42,0-.18-.06-.28-.18-.3-.71-.22-1.33-.33-1.87-.33-1.58,0-2.37.4-2.37,1.19s.59,1.19,1.78,1.19Z"/>
    <path class="cls-2" d="M333.38,228.34c.45-.02.85.13,1.19.46.34.33.51.72.53,1.17l.03,1.36c.02.47-.13.88-.44,1.22-.32.34-.71.51-1.19.53l-1.96.09c-.18,0-.27.09-.27.27v4.33c0,1.54-.34,2.67-1.02,3.38-.68.71-1.73,1.07-3.13,1.07-1.09,0-2.61-.18-4.57-.53-.46-.1-.82-.35-1.08-.74-.27-.4-.36-.82-.28-1.28l.3-1.57c.08-.45.31-.82.68-1.08.38-.27.79-.37,1.25-.31.85.12,1.49.18,1.93.18.32,0,.52-.06.61-.18s.13-.41.13-.86v-2.23c0-.18-.08-.27-.24-.27-.53.02-1.28.04-2.24.07-.96.03-1.83.05-2.61.07-.78.02-1.53.03-2.24.03-.16,0-.24.09-.24.27v7.98c0,.87.11,1.48.33,1.84.22.36.64.61,1.28.76.63.15,1.68.22,3.15.22,2.12,0,4.48-.14,7.09-.42.45-.04.86.08,1.22.37.36.29.55.66.59,1.11l.15,1.57c.04.47-.09.89-.39,1.25-.3.36-.68.55-1.16.59-2.77.28-5.27.42-7.51.42-2.77,0-4.86-.23-6.26-.68s-2.39-1.22-2.97-2.28c-.57-1.07-.86-2.65-.86-4.75v-7.92c0-.18-.08-.27-.24-.27-.26,0-.65,0-1.17.01-.52.01-.92.01-1.17.01-.46,0-.85-.17-1.17-.5s-.49-.73-.49-1.19v-1.36c0-.45.17-.85.5-1.19s.73-.5,1.19-.5c.26,0,.64,0,1.16-.02.51,0,.9-.01,1.16-.01.16,0,.24-.08.24-.24v-2.34c0-.46.17-.85.5-1.19.34-.34.73-.5,1.19-.5h1.96c.45,0,.85.17,1.19.5.34.34.5.73.5,1.19v2.28c0,.16.08.24.24.24.71,0,1.46,0,2.24-.03.78-.02,1.65-.04,2.61-.07.96-.03,1.71-.05,2.24-.07.16,0,.24-.09.24-.27v-2.67c0-.45.17-.85.5-1.19.34-.34.73-.5,1.19-.5h1.81c.45,0,.85.17,1.19.5.34.34.5.73.5,1.19v2.52c0,.16.09.24.27.24.22,0,.52,0,.92-.03.4-.02.7-.04.92-.06Z"/>
    <path class="cls-2" d="M333.79,268.71c.46.12.8.38,1.04.79s.29.83.15,1.26c-.91,3.15-1.9,5.3-2.98,6.45-1.08,1.16-2.46,1.74-4.14,1.74-1.86,0-3.28-.52-4.26-1.56s-1.65-2.8-2-5.3c-.14-1.05-.3-1.75-.47-2.11-.18-.36-.41-.53-.68-.53-.69,0-1.47.61-2.33,1.84-.86,1.23-1.99,3.46-3.4,6.71-.2.43-.51.75-.93.93-.43.19-.86.2-1.29.04l-1.9-.65c-.44-.14-.75-.42-.93-.85-.19-.42-.2-.85-.04-1.29,3.05-7.95,5.8-15.02,8.28-21.21.18-.43.48-.76.92-.96.43-.21.88-.24,1.33-.1l1.93.53c.43.12.75.39.95.8.2.42.22.83.06,1.25-2,5.1-3.03,7.72-3.09,7.86v.06h.09c.95-.4,1.71-.59,2.28-.59,1.36,0,2.39.47,3.09,1.42.69.95,1.16,2.63,1.39,5.04.12,1.21.27,2.01.45,2.42.18.41.42.61.71.61.63,0,1.32-1.29,2.08-3.86.14-.45.41-.8.82-1.02.41-.23.83-.28,1.26-.16l1.63.44Z"/>
    <path class="cls-2" d="M323.94,285.39c.45,0,.84.17,1.16.5.32.34.46.73.45,1.19l-.71,11.16c-.04.47-.23.88-.56,1.2-.34.33-.74.49-1.22.49h-1.96c-.47,0-.88-.16-1.22-.49-.34-.33-.52-.73-.56-1.2l-.71-11.16c-.02-.46.13-.85.44-1.19.32-.34.7-.5,1.16-.5h3.74ZM323.35,302.3c.46,0,.85.17,1.19.5.34.34.5.73.5,1.19v1.36c0,.46-.17.85-.5,1.19-.34.34-.73.5-1.19.5h-2.55c-.46,0-.85-.17-1.19-.5-.34-.34-.5-.73-.5-1.19v-1.36c0-.46.17-.85.5-1.19.34-.34.73-.5,1.19-.5h2.55Z"/>
  </g>
  <g>
    <path d="M333.14,18.67c.46,0,.85.17,1.19.5.34.34.5.73.5,1.19v16.64c0,.46-.17.85-.5,1.19s-.73.5-1.19.5h-2.52c-.36,0-.66-.12-.9-.37-.25-.25-.37-.55-.37-.9,0-.14-.07-.21-.21-.21h-4.15c-.16,0-.24.09-.24.27v4.12c0,.46-.17.85-.5,1.19-.34.34-.73.5-1.19.5h-1.96c-.46,0-.85-.17-1.19-.5s-.5-.73-.5-1.19v-4.12c0-.18-.09-.27-.27-.27h-4.12c-.14,0-.21.07-.21.21,0,.36-.12.66-.37.9s-.55.37-.91.37h-2.52c-.46,0-.85-.17-1.19-.5-.34-.34-.5-.73-.5-1.19v-16.64c0-.45.17-.85.5-1.19.34-.34.73-.5,1.19-.5h8.13c.18,0,.27-.09.27-.27v-1.31c0-.46.17-.85.5-1.19s.73-.5,1.19-.5h1.96c.45,0,.85.17,1.19.5.34.34.5.73.5,1.19v1.31c0,.18.08.27.24.27h8.16ZM319.4,25.53v-2.17c0-.16-.09-.24-.27-.24h-4.06c-.18,0-.27.08-.27.24v2.17c0,.18.09.27.27.27h4.06c.18,0,.27-.09.27-.27ZM319.4,32.65v-2.28c0-.18-.09-.27-.27-.27h-4.06c-.18,0-.27.09-.27.27v2.28c0,.18.09.27.27.27h4.06c.18,0,.27-.09.27-.27ZM329.34,25.53v-2.17c0-.16-.09-.24-.27-.24h-4.09c-.16,0-.24.08-.24.24v2.17c0,.18.08.27.24.27h4.09c.18,0,.27-.09.27-.27ZM329.34,32.65v-2.28c0-.18-.09-.27-.27-.27h-4.09c-.16,0-.24.09-.24.27v2.28c0,.18.08.27.24.27h4.09c.18,0,.27-.09.27-.27Z"/>
    <path d="M332.96,59.62c.43.16.75.45.93.86.19.42.19.84.01,1.28-1.44,3.4-3.19,5.87-5.25,7.42-2.06,1.54-4.45,2.31-7.18,2.31-2.43,0-4.31-.35-5.64-1.04-1.33-.69-2.3-1.89-2.92-3.59-.62-1.7-.93-4.11-.93-7.24,0-3.66.11-7.45.33-11.36.04-.47.23-.88.58-1.2.35-.33.76-.48,1.23-.46l2.4.09c.46.02.84.2,1.14.53.31.34.45.73.43,1.19-.22,3.76-.33,7.5-.33,11.21,0,1.8.12,3.17.37,4.11.25.94.63,1.58,1.14,1.91.51.34,1.25.5,2.2.5,1.44,0,2.76-.48,3.95-1.45,1.19-.97,2.31-2.59,3.38-4.87.22-.44.54-.74.96-.92s.86-.19,1.29-.03l1.9.74Z"/>
    <path d="M317.71,84.09h-7.89c-.46,0-.85-.17-1.19-.5-.34-.34-.5-.73-.5-1.19v-.62c0-.46.17-.85.5-1.19s.73-.5,1.19-.5h7.89c.45,0,.85.17,1.19.5.34.34.5.73.5,1.19v.62c0,.46-.17.85-.5,1.19s-.73.5-1.19.5ZM331.48,90.12c.81,2.67,2.17,5.05,4.06,7.15.34.36.52.77.56,1.25.04.47-.08.91-.36,1.31l-1.1,1.48c-.28.38-.65.59-1.11.64-.47.05-.87-.08-1.2-.4-1.31-1.25-2.51-2.86-3.6-4.85-1.1-1.99-1.96-4.17-2.6-6.54-.04-.18-.15-.27-.33-.27h-.39c-.2,0-.3.09-.3.27-.34,4.25-1.21,7.92-2.61,11.01-.2.4-.51.65-.93.77-.43.12-.83.05-1.2-.21l-1.48-1.01c-.16-.08-.27-.05-.33.09-.34.53-.82.8-1.45.8h-3.83c-.08,0-.12.04-.12.12,0,.22-.08.4-.24.55-.16.15-.34.22-.53.22h-1.84c-.46,0-.85-.17-1.19-.5s-.5-.73-.5-1.19v-5.96c0-.46.17-.85.5-1.19s.73-.5,1.19-.5h6.56c.46,0,.85.17,1.19.5.34.34.5.73.5,1.19v.95s.04.03.06.03c.85-2.85,1.28-7.4,1.28-13.65v-4.69c0-.45.17-.85.5-1.19s.73-.5,1.19-.5h12.05c.46,0,.85.17,1.19.5.34.34.5.73.5,1.19v10.71c0,.46-.17.85-.5,1.19-.34.34-.73.5-1.19.5h-2.23c-.16,0-.22.08-.18.24ZM316.97,75.79c.45,0,.85.17,1.19.5.34.34.5.73.5,1.19v.18c0,.46-.17.85-.5,1.19-.34.34-.73.5-1.19.5h-6.41c-.46,0-.85-.17-1.19-.5-.34-.34-.5-.73-.5-1.19v-.18c0-.45.17-.85.5-1.19s.73-.5,1.19-.5h6.41ZM318.66,86.52v.03c0,.46-.17.85-.5,1.19-.34.34-.73.5-1.19.5h-6.11c-.46,0-.85-.17-1.19-.5s-.5-.73-.5-1.19v-.03c0-.45.17-.85.5-1.19.34-.34.73-.5,1.19-.5h6.11c.45,0,.85.17,1.19.5.34.34.5.73.5,1.19ZM316.97,88.99c.45,0,.85.17,1.19.5.34.34.5.73.5,1.19v.03c0,.46-.17.85-.5,1.19s-.73.5-1.19.5h-6.11c-.46,0-.85-.17-1.19-.5-.34-.34-.5-.73-.5-1.19v-.03c0-.45.17-.85.5-1.19s.73-.5,1.19-.5h6.11ZM315.1,98.07v-1.42c0-.16-.09-.24-.27-.24h-1.42c-.16,0-.24.08-.24.24v1.42c0,.18.08.27.24.27h1.42c.18,0,.27-.09.27-.27ZM330.23,85.16v-4.54c0-.16-.09-.24-.27-.24h-4.36c-.18,0-.27.08-.27.24v4.57c0,.16.08.24.24.24h4.39c.18,0,.27-.09.27-.27Z"/>
    <path d="M332.04,125.95l.39,1.72c.1.46.02.89-.24,1.29-.26.41-.61.66-1.07.76-3.44.73-6.56,1.1-9.35,1.1-3.64,0-6.48-.62-8.51-1.87-2.04-1.25-3.06-2.9-3.06-4.95,0-1.05.28-2.1.83-3.16s1.51-2.29,2.88-3.69c.34-.34.75-.52,1.23-.55.48-.03.92.09,1.32.37l1.42,1.01c.36.26.55.6.58,1.04s-.1.81-.4,1.13c-1.38,1.46-2.08,2.55-2.08,3.26s.48,1.29,1.44,1.72,2.41.65,4.35.65c2.35,0,5.12-.36,8.31-1.07.45-.1.88-.02,1.26.22.39.25.62.59.7,1.02ZM330.97,109.7c0,.46-.17.85-.5,1.19s-.73.5-1.19.5h-14.72c-.46,0-.85-.17-1.19-.5-.34-.34-.5-.73-.5-1.19v-1.51c0-.45.17-.85.5-1.19s.73-.5,1.19-.5h14.72c.45,0,.85.17,1.19.5.34.34.5.73.5,1.19v1.51ZM326.58,113.94c.42-.22.85-.26,1.31-.12.45.14.79.42,1.01.83.22.4.54,1.01.98,1.84.2.42.22.84.06,1.28s-.44.75-.86.95c-.44.2-.87.22-1.31.06-.44-.16-.76-.45-.98-.86-.1-.18-.42-.76-.95-1.75-.22-.4-.26-.81-.12-1.25.14-.44.42-.76.83-.98h.03ZM333.64,113.58c.65,1.25.99,1.89,1.01,1.93.22.42.25.84.1,1.28s-.43.75-.85.95l-.09.06c-.42.2-.85.22-1.29.07-.45-.15-.78-.43-.99-.85-.1-.2-.26-.5-.47-.92-.22-.42-.39-.72-.5-.92-.22-.4-.26-.82-.13-1.28.13-.46.4-.78.82-.98l.09-.03c.42-.22.85-.26,1.31-.13.45.13.79.4,1.01.82Z"/>
    <path d="M332.1,138.35c.45-.02.85.13,1.2.44.35.32.53.7.55,1.16l.03,1.36c.02.46-.13.86-.44,1.22s-.7.54-1.16.56c-.04,0-1.78.06-5.22.18-.16,0-.22.09-.18.27.45,1.52,1.19,3.16,2.2,4.92.22.4.26.8.12,1.2-.14.41-.41.7-.8.88l-2.11.92c-.93.4-1.94.37-3.03-.09-1.38-.59-2.82-.89-4.3-.89-.81,0-1.46.22-1.94.65-.48.44-.73,1.01-.73,1.72,0,1.03.49,1.83,1.48,2.4.99.57,2.47.86,4.45.86,1.36,0,3.28-.2,5.76-.59.45-.08.88.02,1.26.28.39.27.62.63.7,1.08l.3,1.42c.1.46.01.88-.25,1.26-.27.39-.63.62-1.08.7-2.37.4-4.6.59-6.68.59-3.7,0-6.55-.74-8.56-2.21-2.01-1.47-3.01-3.51-3.01-6.1,0-2.06.72-3.71,2.17-4.95,1.44-1.25,3.39-1.87,5.84-1.87,1.11,0,2.27.15,3.5.45h.06v-.09c-.34-.83-.59-1.62-.77-2.37-.04-.18-.14-.27-.3-.27-3.72.1-7.05.15-10,.15-.47,0-.88-.17-1.2-.5-.33-.34-.49-.73-.49-1.19v-1.36c0-.45.16-.85.49-1.19.33-.34.72-.5,1.17-.5,2.06,0,5.16-.04,9.32-.12.12,0,.18-.09.18-.27-.02-.46-.05-.93-.09-1.42-.02-.47.12-.88.43-1.22.31-.34.7-.52,1.17-.56l1.96-.12c.46-.02.86.13,1.2.45.35.32.54.7.58,1.16.02.36.05.87.09,1.54,0,.18.09.27.27.27.24,0,.6,0,1.08-.03.48-.02.85-.03,1.08-.03.06,0,.1-.03.13-.09.03-.06.02-.11-.01-.15-.06-.12-.18-.35-.36-.7-.18-.35-.32-.61-.42-.79-.2-.38-.23-.77-.1-1.17.13-.41.38-.71.76-.9.4-.2.8-.23,1.2-.09.41.14.72.41.93.8.1.18.24.44.42.79.18.35.32.61.42.79.18.38.21.75.09,1.13-.04.16,0,.24.12.24h.53ZM335.07,134.97c.1.2.24.48.43.86.19.38.32.64.4.8.2.4.23.79.09,1.19-.14.4-.41.69-.8.89-.4.2-.8.23-1.2.09-.41-.14-.72-.41-.93-.8-.18-.36-.46-.89-.86-1.6-.2-.4-.23-.8-.1-1.2.13-.41.39-.71.79-.91.4-.2.81-.23,1.25-.09.43.14.75.4.95.77Z"/>
    <path d="M324.66,180.15c.43.16.75.45.95.88.2.43.21.86.03,1.29-1.05,2.51-2.33,4.46-3.84,5.84-1.51,1.38-3,2.08-4.46,2.08-1.82,0-3.51-1.18-5.07-3.53-1.56-2.35-2.34-5.23-2.34-8.63,0-3.05.39-6.06,1.16-9.05.12-.47.38-.85.79-1.13s.86-.39,1.35-.33l2.17.24c.43.04.78.24,1.02.61.25.37.32.77.22,1.2-.71,3.01-1.07,5.83-1.07,8.46,0,.93.07,1.81.22,2.66s.34,1.53.58,2.08c.24.54.48.98.73,1.31.25.33.48.49.7.49.32,0,.75-.35,1.31-1.05.55-.7,1.14-1.73,1.75-3.07.2-.42.51-.71.93-.89.42-.18.85-.19,1.29-.03l1.6.59ZM329.19,167.58c.47-.14.93-.11,1.36.09.44.2.74.51.92.95,2.04,4.94,3.15,10.5,3.32,16.67.02.46-.14.85-.47,1.19s-.73.5-1.19.5h-2.25c-.46,0-.85-.16-1.19-.49-.34-.33-.51-.72-.53-1.17-.18-5.32-1.15-10.37-2.91-15.16-.16-.43-.14-.85.06-1.26.2-.41.51-.67.95-.79l1.93-.53Z"/>
    <path d="M332.25,196.68c.45,0,.85.17,1.19.5.34.34.5.73.5,1.19v1.36c0,.46-.17.85-.5,1.19s-.73.5-1.19.5h-5.16c-.18,0-.27.09-.27.27v.68c0,.16.09.24.27.24h3.98c.46,0,.85.17,1.19.5.34.34.5.73.5,1.19v1.22c0,.46-.17.85-.5,1.19s-.73.5-1.19.5h-3.98c-.18,0-.27.09-.27.27v3.09c0,.18.08.32.24.42,1.64,1.03,3.32,2.31,5.04,3.86.34.32.52.71.55,1.17.03.46-.11.87-.43,1.2l-1.01,1.07c-.32.34-.7.52-1.16.55s-.85-.11-1.19-.43c-.75-.69-1.51-1.34-2.28-1.96-.12-.12-.23-.09-.33.09-.47,1.27-1.32,2.18-2.52,2.74-1.21.56-2.85.85-4.92.85-2.24,0-3.98-.52-5.24-1.56-1.26-1.04-1.88-2.5-1.88-4.38s.61-3.24,1.84-4.26c1.23-1.02,2.99-1.53,5.28-1.53.87,0,1.68.07,2.43.21.16.04.24-.03.24-.21v-.92c0-.18-.08-.27-.24-.27h-8.16c-.46,0-.85-.17-1.19-.5-.34-.34-.5-.73-.5-1.19v-1.22c0-.46.17-.85.5-1.19.34-.34.73-.5,1.19-.5h8.16c.16,0,.24-.08.24-.24v-.68c0-.18-.08-.27-.24-.27h-9.35c-.46,0-.85-.17-1.19-.5-.34-.34-.5-.73-.5-1.19v-1.36c0-.45.17-.85.5-1.19s.73-.5,1.19-.5h9.35c.16,0,.24-.09.24-.27v-.42c0-.45.17-.85.5-1.19.34-.34.73-.5,1.19-.5h1.96c.45,0,.85.17,1.19.5.34.34.5.73.5,1.19v.42c0,.18.09.27.27.27h5.16ZM318.81,215.38c1.01,0,1.69-.11,2.03-.33.35-.22.55-.69.61-1.42,0-.18-.06-.28-.18-.3-.71-.22-1.33-.33-1.87-.33-1.58,0-2.37.4-2.37,1.19s.59,1.19,1.78,1.19Z"/>
    <path d="M333.38,228.34c.45-.02.85.13,1.19.46.34.33.51.72.53,1.17l.03,1.36c.02.47-.13.88-.44,1.22-.32.34-.71.51-1.19.53l-1.96.09c-.18,0-.27.09-.27.27v4.33c0,1.54-.34,2.67-1.02,3.38-.68.71-1.73,1.07-3.13,1.07-1.09,0-2.61-.18-4.57-.53-.46-.1-.82-.35-1.08-.74-.27-.4-.36-.82-.28-1.28l.3-1.57c.08-.45.31-.82.68-1.08.38-.27.79-.37,1.25-.31.85.12,1.49.18,1.93.18.32,0,.52-.06.61-.18s.13-.41.13-.86v-2.23c0-.18-.08-.27-.24-.27-.53.02-1.28.04-2.24.07-.96.03-1.83.05-2.61.07-.78.02-1.53.03-2.24.03-.16,0-.24.09-.24.27v7.98c0,.87.11,1.48.33,1.84.22.36.64.61,1.28.76.63.15,1.68.22,3.15.22,2.12,0,4.48-.14,7.09-.42.45-.04.86.08,1.22.37.36.29.55.66.59,1.11l.15,1.57c.04.47-.09.89-.39,1.25-.3.36-.68.55-1.16.59-2.77.28-5.27.42-7.51.42-2.77,0-4.86-.23-6.26-.68s-2.39-1.22-2.97-2.28c-.57-1.07-.86-2.65-.86-4.75v-7.92c0-.18-.08-.27-.24-.27-.26,0-.65,0-1.17.01-.52.01-.92.01-1.17.01-.46,0-.85-.17-1.17-.5s-.49-.73-.49-1.19v-1.36c0-.45.17-.85.5-1.19s.73-.5,1.19-.5c.26,0,.64,0,1.16-.02.51,0,.9-.01,1.16-.01.16,0,.24-.08.24-.24v-2.34c0-.46.17-.85.5-1.19.34-.34.73-.5,1.19-.5h1.96c.45,0,.85.17,1.19.5.34.34.5.73.5,1.19v2.28c0,.16.08.24.24.24.71,0,1.46,0,2.24-.03.78-.02,1.65-.04,2.61-.07.96-.03,1.71-.05,2.24-.07.16,0,.24-.09.24-.27v-2.67c0-.45.17-.85.5-1.19.34-.34.73-.5,1.19-.5h1.81c.45,0,.85.17,1.19.5.34.34.5.73.5,1.19v2.52c0,.16.09.24.27.24.22,0,.52,0,.92-.03.4-.02.7-.04.92-.06Z"/>
    <path d="M333.79,268.71c.46.12.8.38,1.04.79s.29.83.15,1.26c-.91,3.15-1.9,5.3-2.98,6.45-1.08,1.16-2.46,1.74-4.14,1.74-1.86,0-3.28-.52-4.26-1.56s-1.65-2.8-2-5.3c-.14-1.05-.3-1.75-.47-2.11-.18-.36-.41-.53-.68-.53-.69,0-1.47.61-2.33,1.84-.86,1.23-1.99,3.46-3.4,6.71-.2.43-.51.75-.93.93-.43.19-.86.2-1.29.04l-1.9-.65c-.44-.14-.75-.42-.93-.85-.19-.42-.2-.85-.04-1.29,3.05-7.95,5.8-15.02,8.28-21.21.18-.43.48-.76.92-.96.43-.21.88-.24,1.33-.1l1.93.53c.43.12.75.39.95.8.2.42.22.83.06,1.25-2,5.1-3.03,7.72-3.09,7.86v.06h.09c.95-.4,1.71-.59,2.28-.59,1.36,0,2.39.47,3.09,1.42.69.95,1.16,2.63,1.39,5.04.12,1.21.27,2.01.45,2.42.18.41.42.61.71.61.63,0,1.32-1.29,2.08-3.86.14-.45.41-.8.82-1.02.41-.23.83-.28,1.26-.16l1.63.44Z"/>
    <path d="M323.94,285.39c.45,0,.84.17,1.16.5.32.34.46.73.45,1.19l-.71,11.16c-.04.47-.23.88-.56,1.2-.34.33-.74.49-1.22.49h-1.96c-.47,0-.88-.16-1.22-.49-.34-.33-.52-.73-.56-1.2l-.71-11.16c-.02-.46.13-.85.44-1.19.32-.34.7-.5,1.16-.5h3.74ZM323.35,302.3c.46,0,.85.17,1.19.5.34.34.5.73.5,1.19v1.36c0,.46-.17.85-.5,1.19-.34.34-.73.5-1.19.5h-2.55c-.46,0-.85-.17-1.19-.5-.34-.34-.5-.73-.5-1.19v-1.36c0-.46.17-.85.5-1.19.34-.34.73-.5,1.19-.5h2.55Z"/>
  </g>
  <ellipse class="cls-7" cx="170.86" cy="302.4" rx="74.41" ry="4.81"/>
  <path class="cls-6" d="M229.97,236.44c-.37,32.52-14.68,51.31-14.68,51.31h-85.58c-14.73-24.48-14.68-51.31-14.68-51.31h114.94Z"/>
  <ellipse class="cls-8" cx="143.5" cy="291.39" rx="27.19" ry="13.73"/>
  <ellipse class="cls-8" cx="197.88" cy="291.39" rx="27.19" ry="13.73"/>
  <polygon class="cls-6" points="240.86 243.32 102.84 243.32 126.91 110.38 214.11 110.38 240.86 243.32"/>
  <line class="cls-4" x1="170.69" y1="288.59" x2="170.69" y2="256.86"/>
  <polygon class="cls-6" points="143.37 141.78 121.22 141.78 130.52 159.24 144.89 160.61 134 168.95 167.35 211.92 143.37 141.78"/>
  <polygon class="cls-6" points="197.27 141.78 219.41 141.78 210.11 159.24 195.75 160.61 206.63 168.95 173.29 211.92 197.27 141.78"/>
  <polygon class="cls-6" points="143.47 141.78 170.44 141.78 197.28 141.75 191.43 158.86 170.44 143.01 149.15 158.39 143.47 141.78"/>
  <polygon class="cls-1" points="160.01 150.54 163.24 162.25 178.09 162.25 180.86 150.54 170.44 143.01 160.01 150.54"/>
  <polygon class="cls-1" points="163.24 162.25 155.15 176.25 170.28 220.21 184.92 177.99 178.09 162.25 163.24 162.25"/>
  <path class="cls-5" d="M190.18,218.55c-4.65,7.73-12.13,11.37-16.72,8.13-4.59-3.24-4.55-12.13.1-19.86,4.65-7.73,12.13-11.37,16.72-8.13,4.59,3.24,4.55,12.13-.1,19.86Z"/>
  <path class="cls-5" d="M152.19,219.1c4.37,7.27,11.41,10.69,15.73,7.65,4.32-3.05,4.28-11.41-.09-18.68-4.37-7.27-11.41-10.69-15.73-7.65-4.32,3.05-4.28,11.41.09,18.68Z"/>
  <path class="cls-6" d="M234.31,139.72c1.79,34.61-32.61,74.33-32.61,74.33l-31.26-8.36c19.23-31.98,24.29-66.04,24.29-66.04l39.58.07Z"/>
  <path class="cls-6" d="M106.5,139.72c-1.79,34.61,32.61,74.33,32.61,74.33l31.26-8.36c-19.23-31.98-24.29-66.04-24.29-66.04l-39.58.07Z"/>
  <polygon class="cls-10" points="230.42 164.61 110.39 164.61 106 145.46 235.72 146.01 230.42 164.61"/>
  <polygon class="cls-3" points="58.53 34.87 285.82 34.87 268.72 155.03 75.63 155.03 58.53 34.87"/>
  <path class="cls-1" d="M214.13,100.56c-1.11,19.46-20.01,34.49-42.27,34.49s-41.17-15.03-42.3-34.49c-1.19-20.54,17.7-38.06,42.27-38.06s43.47,17.52,42.3,38.06Z"/>
  <path class="cls-9" d="M84.56,46.31c.2,2.5,3.53,8.27,4.96,13.63,1.7,6.39-2.61,11.97-5.82,11.97s-6.63-5.41-5.82-11.97c.39-3.14,2.38-5.9,2.91-8.46"/>
  <polyline class="cls-3" points="60.09 34.87 58.53 34.87 62.88 25.27 282.13 25.27 285.82 34.87 60.09 34.87"/>
  <path class="cls-9" d="M51.77,112.81c-2.75.47-8.83,4.73-14.63,6.84-6.92,2.52-13.53-1.72-13.85-5.28-.32-3.57,5.35-7.89,12.7-7.63,3.52.12,6.78,2.06,9.67,2.4"/>
  <path class="cls-9" d="M57.96,128.39c-2.12,1.82-5.14,8.6-9.03,13.39-4.64,5.72-12.49,5.49-14.59,2.59-2.11-2.9.53-9.52,6.97-13.08,3.08-1.7,6.88-1.72,9.53-2.92"/>
</svg>