<?xml version="1.0" encoding="UTF-8"?>
<svg id="_レイヤー_2" data-name="レイヤー 2" xmlns="http://www.w3.org/2000/svg" viewBox="0 0 495.15 284.92">
  <defs>
    <style>
      .cls-1 {
        fill: #231815;
      }
    </style>
  </defs>
  <g id="_レイヤー_1-2" data-name="レイヤー 1">
    <g>
      <path class="cls-1" d="M494.86,239.44c-.02.08-.03.14-.03.14.01-.05.02-.09.03-.14Z"/>
      <path class="cls-1" d="M494.86,239.44c.02-.1.05-.27.08-.49,0,.17-.04.33-.08.49Z"/>
      <path class="cls-1" d="M48.51,265.47c-5.89,5.47-13.96,5.19-13.96,5.19,14.09,3.63,21.66-.85,24.22-2.9,4.32,1.41,7.2,1.19,7.2,1.19-6.97,4.42-18.6,3.18-18.6,3.18,12.76,5.13,16.67,3,16.67,3-5.89,5.47-13.96,5.19-13.96,5.19,17.84,4.59,25.23-3.81,25.23-3.81,1.82-1.39,2.81-3.34,3.05-5.32l26.22-4.61c5.11,2.73,17.71,8.37,30.08,5.3,11.2-2.78,20.15-8.22,23.89-13.86,27.54,10.57,54.16,19.13,75.54,22.8,92.77,15.92,138.07-17.62,146.06-47.43,5.1,1.22,10.47,1.89,16.02,1.89,17.09,0,32.48-6.21,43.29-16.13,3.46,4.4,8.43,7.19,14.91,5.86,18.88-3.88,40.82,7.83,40.57,13.93.53-3.75,1.93-23.6-24.69-39.89-5.26-3.22-10.61-5.53-15.53-6.87.44-2.49.67-5.04.67-7.63,0-28.01-26.51-50.72-59.22-50.72-20.39,0-38.38,8.83-49.03,22.27-13.32-30.58-45.97-62.06-94.2-69.42C149.56,70.9,85.8,0,85.8,0c0,0,12.29,38.13,34.54,80.55-24.65-18.62-39.62-34.34-39.62-34.34,0,0,22.52,38.86,63.52,76.1-27.83-16.29-45.36-31.02-45.36-31.02,0,0,34.3,46.43,90.51,81.32,1.99,1.23,3.97,2.44,5.94,3.64,1.85,1.41,3.7,2.79,5.55,4.15-37.27,3.91-81.62,5.15-119.16,5.32C35.18,181.05.11,168.55.11,168.55c0,0,11.59,7.56,31.01,16.82-19.09-.35-31.13-.81-31.13-.81,0,0,49.35,26.46,106.72,51.91-10.01,4.66-16.71,13.87-19.08,17.53l-25.06,4.41c-1.03-3.48-4.58-6.09-10.25-4.44-10.34,3.01-19.85-1.9-19.85-1.9,9.65,7.91,17.97,7.22,17.97,7.22-6.97,4.42-18.6,3.18-18.6,3.18,12.76,5.13,16.67,3,16.67,3ZM61.8,264.57c.57-.96.91-2,1.04-3.05l26.22-4.61c2.97,1.59,8.48,4.16,15,5.43-.34.49-.64.94-.89,1.32l-25.06,4.41c-1.03-3.48-4.58-6.09-10.25-4.44-2.08.6-4.11.88-6.05.95Z"/>
    </g>
  </g>
</svg>