<?xml version="1.0" encoding="UTF-8"?>
<svg id="_レイヤー_2" data-name="レイヤー 2" xmlns="http://www.w3.org/2000/svg" viewBox="0 0 497.49 508.07">
  <defs>
    <style>
      .cls-1 {
        fill: #00913a;
      }

      .cls-1, .cls-2, .cls-3, .cls-4, .cls-5, .cls-6, .cls-7 {
        stroke: #231815;
        stroke-miterlimit: 10;
        stroke-width: 2px;
      }

      .cls-2 {
        fill: none;
      }

      .cls-8, .cls-4 {
        fill: #fff;
      }

      .cls-3 {
        fill: #c9bc9c;
      }

      .cls-5 {
        fill: #009a3e;
      }

      .cls-9 {
        fill: #231815;
      }

      .cls-10 {
        fill: #7ecef4;
      }

      .cls-6 {
        fill: #e60012;
      }

      .cls-7 {
        fill: #c9a063;
      }
    </style>
  </defs>
  <g id="_レイヤー_1-2" data-name="レイヤー 1">
    <g>
      <polygon class="cls-9" points="497.49 38.97 442.75 11.46 403.68 89.21 224.36 140.05 287.8 363.79 475.33 310.62 434.08 165.15 497.49 38.97"/>
      <path class="cls-9" d="M262.67,400.73h-27.96v-70.54c0-2.83-2.29-5.13-5.13-5.13h-70.88c-2.14,0-5.38.94-7.18,2.09l-117.7,74.81c-2.1,1.33-3.37,3.65-3.37,6.14v8.42c-9.61,9.67-15.55,22.99-15.55,37.7s5.94,28.03,15.55,37.7v11c0,2.83,2.3,5.13,5.13,5.13h82.32c3.55,0,7.01-1.08,9.93-3.09l19.66-13.52h111.87c2.24,0,4.38-.89,5.97-2.47l3.31-3.31c1.58-1.58,2.47-3.73,2.47-5.97v-70.54c0-4.66-3.78-8.44-8.44-8.44Z"/>
      <rect class="cls-4" x="237.47" y="98.94" width="194.92" height="232.56" transform="translate(-46.01 99.53) rotate(-15.83)"/>
      <polygon class="cls-7" points="359.05 142.25 411.19 168.46 365.84 193.73 359.05 142.25"/>
      <polygon class="cls-9" points="363.02 171.69 385.35 182.91 365.93 193.73 363.02 171.69"/>
      <rect class="cls-5" x="389.38" y="6.75" width="61.26" height="156.8" transform="translate(82.96 -179.53) rotate(26.68)"/>
      <path class="cls-3" d="M219.81,418.91v-98.83c0-2.83-2.29-5.13-5.13-5.13h-70.88c-2.14,0-5.38.94-7.18,2.09h0s-117.7,74.81-117.7,74.81c-2.1,1.33-3.37,3.65-3.37,6.14v94.83c0,2.83,2.3,5.13,5.13,5.13h82.32c3.55,0,7.01-1.08,9.93-3.09l104.89-72.16c1.25-.86,1.99-2.28,1.99-3.79h0"/>
      <circle class="cls-9" cx="53.5" cy="444.12" r="53.5"/>
      <line class="cls-2" x1="210.96" y1="323.5" x2="105.48" y2="395.24"/>
      <path class="cls-3" d="M121.44,393.09l-3.31,3.31c-1.58,1.58-2.47,3.73-2.47,5.97v70.54c0,4.66,3.78,8.44,8.44,8.44h120.36c2.24,0,4.38-.89,5.97-2.47l3.31-3.31c1.58-1.58,2.47-3.73,2.47-5.97v-70.54c0-4.66-3.78-8.44-8.44-8.44h-120.36c-2.24,0-4.38.89-5.97,2.47Z"/>
      <line class="cls-2" x1="123.91" y1="398.87" x2="243.91" y2="398.87"/>
      <line class="cls-2" x1="247.01" y1="404.32" x2="247.01" y2="474.46"/>
      <rect class="cls-9" x="111.92" y="415.93" width="7.48" height="46.93" rx="2.77" ry="2.77"/>
      <path class="cls-6" d="M368.58,203.89c7.79,20.45,2.28,39.19-16.63,50.19-18.91,11-37.55,6.21-51.85-10.34-14.48-16.75-17.49-39.21,12.77-56.82,31.15-18.13,47.86-3.64,55.71,16.97Z"/>
      <path class="cls-1" d="M324.1,193.78c4.9-2.15,10.89-6.73,10.89-6.73,0,0-9.22-2.77-14.12-.62-1.94.85-3.61,1.89-4.88,2.97.06-1.26,0-2.64-.2-4.09-.75-5.3-5.56-12.5-5.56-12.5,0,0-3.14,8.33-2.4,13.63.23,1.6.6,3.08,1.08,4.37-1.6-.59-3.6-.99-5.8-1.1-5.34-.26-12.88,4.82-12.88,4.82,0,0,7.14,2.94,12.48,3.2,1.41.07,2.76,0,3.99-.16-.68.75-1.34,1.59-1.96,2.51-2.99,4.43-1.59,13.27-1.59,13.27,0,0,5.26-4.34,8.25-8.78,1.16-1.72,2.01-3.45,2.51-5.02.92,1.34,2.22,2.76,3.81,4.06,4.13,3.4,11.42,5.62,11.42,5.62,0,0-2.19-8.42-6.32-11.82-1.07-.88-2.16-1.62-3.22-2.21,1.4-.27,2.94-.74,4.5-1.43Z"/>
      <circle class="cls-10" cx="53.5" cy="444.68" r="37.46"/>
      <circle class="cls-8" cx="36.28" cy="434.18" r="10.5"/>
    </g>
  </g>
</svg>