<?xml version="1.0" encoding="UTF-8"?>
<svg id="_レイヤー_2" data-name="レイヤー 2" xmlns="http://www.w3.org/2000/svg" viewBox="0 0 1074.53 685.52">
  <defs>
    <style>
      .cls-1 {
        fill: #2e3192;
      }

      .cls-2 {
        fill: #ff0;
      }
    </style>
  </defs>
  <g id="_レイヤー_1-2" data-name="レイヤー 1">
    <path d="M11.78,601.55c78.51,66.14,184.86,98,293.73,78.1,193.54-35.38,321.76-220.95,286.38-414.49-19.9-108.87-87.32-197.07-176.95-247.11,0,0,32.37,228.67-69.87,360.94,0,0-94.56,156.33-333.28,222.56"/>
    <path class="cls-2" d="M571.54,240.45c-18.9-103.41-80.68-188.16-163.63-239.29-5.38-3.32-12.24.92-11.63,7.21,5.08,53,14.97,233.97-71.56,345.91,0,0-90.85,150.19-319.26,218.52-5.97,1.79-7.39,9.56-2.46,13.38,77.22,59.76,178.55,87.7,282.17,68.77,193.54-35.38,321.76-220.95,286.38-414.49Z"/>
    <g id="uuid-ea3bcba7-943a-4faf-9580-3f40518e1546" data-name=" レイヤー 1-2">
      <path d="M956.11,393.11c-19.52,0-37.92,2.5-54.15,6.92-7.78-30.51-57.32-54.03-117.31-54.03-32.43,0-61.81,6.88-83.2,18.01-20.89-17.7-58.12-29.49-100.57-29.49-65.4,0-118.41,27.94-118.41,62.42,0,.47.04.93.07,1.4h-.07c-65.4,0-118.41,27.95-118.41,62.42s53.01,62.42,118.41,62.42c27.51,0,52.8-4.96,72.92-13.26,21.59,12.08,52.18,19.62,86.15,19.62,39.34,0,74.18-10.12,95.71-25.68,20.92,17.65,58.08,29.39,100.47,29.39,32.51,0,61.94-6.91,83.34-18.09,11.08,1.81,22.86,2.79,35.07,2.79,65.4,0,118.41-27.94,118.41-62.42s-53.01-62.42-118.41-62.42h-.01Z"/>
    </g>
    <g id="uuid-f08bd6f8-8251-4e16-afb5-bed8e1703836" data-name=" レイヤー 1-2">
      <path d="M895.97,581.97c-12.64,0-24.55,1.62-35.06,4.48-5.03-19.75-37.11-34.98-75.94-34.98-21,0-40.01,4.45-53.86,11.66-13.53-11.46-37.62-19.09-65.11-19.09-42.34,0-76.65,18.09-76.65,40.41,0,.3.03.6.05.9h-.05c-42.34,0-76.65,18.1-76.65,40.41s34.32,40.41,76.65,40.41c17.81,0,34.18-3.21,47.2-8.58,13.98,7.82,33.78,12.7,55.77,12.7,25.47,0,48.02-6.55,61.96-16.63,13.54,11.42,37.6,19.03,65.04,19.03,21.04,0,40.1-4.47,53.95-11.71,7.17,1.17,14.8,1.8,22.7,1.8,42.34,0,76.65-18.09,76.65-40.41s-34.32-40.41-76.65-40.41h0Z"/>
    </g>
    <g id="uuid-c6ab1977-b7c5-4d36-b8ff-645ee76701bb" data-name=" レイヤー 1-2">
      <path class="cls-1" d="M932.73,377.99c-19.52,0-37.92,2.5-54.15,6.92-7.78-30.51-57.32-54.03-117.31-54.03-32.43,0-61.81,6.88-83.2,18.01-20.89-17.7-58.12-29.49-100.57-29.49-65.4,0-118.41,27.94-118.41,62.42,0,.47.04.93.07,1.4h-.07c-65.4,0-118.41,27.95-118.41,62.42s53.01,62.42,118.41,62.42c27.51,0,52.8-4.96,72.92-13.26,21.59,12.08,52.18,19.62,86.15,19.62,39.34,0,74.18-10.12,95.71-25.68,20.92,17.65,58.08,29.39,100.47,29.39,32.51,0,61.94-6.91,83.34-18.09,11.08,1.81,22.86,2.79,35.07,2.79,65.4,0,118.41-27.94,118.41-62.42s-53.01-62.42-118.41-62.42h-.01Z"/>
    </g>
    <g id="uuid-c2bcb496-2f2f-4638-8ec2-ce90e298d318" data-name=" レイヤー 1-2">
      <path class="cls-1" d="M872.6,566.85c-12.64,0-24.55,1.62-35.06,4.48-5.03-19.75-37.11-34.98-75.94-34.98-21,0-40.01,4.45-53.86,11.66-13.53-11.46-37.62-19.09-65.11-19.09-42.34,0-76.65,18.09-76.65,40.41,0,.3.03.6.05.9h-.05c-42.34,0-76.65,18.1-76.65,40.41s34.32,40.41,76.65,40.41c17.81,0,34.18-3.21,47.2-8.58,13.98,7.82,33.78,12.7,55.77,12.7,25.47,0,48.02-6.55,61.96-16.63,13.54,11.42,37.6,19.03,65.04,19.03,21.04,0,40.1-4.47,53.95-11.71,7.17,1.17,14.8,1.8,22.7,1.8,42.34,0,76.65-18.09,76.65-40.41s-34.32-40.41-76.65-40.41h0Z"/>
    </g>
  </g>
</svg>