<?xml version="1.0" encoding="UTF-8"?>
<svg id="_レイヤー_2" data-name="レイヤー 2" xmlns="http://www.w3.org/2000/svg" viewBox="0 0 475.31 459.51">
  <defs>
    <style>
      .cls-1, .cls-2 {
        fill: #3e3a39;
      }

      .cls-1, .cls-2, .cls-3, .cls-4, .cls-5, .cls-6, .cls-7, .cls-8, .cls-9, .cls-10, .cls-11, .cls-12, .cls-13, .cls-14, .cls-15, .cls-16, .cls-17 {
        stroke: #231815;
        stroke-width: 2px;
      }

      .cls-1, .cls-3, .cls-6, .cls-10, .cls-13, .cls-14, .cls-16, .cls-17 {
        stroke-linejoin: round;
      }

      .cls-2, .cls-4, .cls-5, .cls-7, .cls-8, .cls-9, .cls-11, .cls-12, .cls-15 {
        stroke-miterlimit: 10;
      }

      .cls-3, .cls-12 {
        fill: #e60012;
      }

      .cls-18 {
        opacity: .5;
      }

      .cls-18, .cls-19, .cls-11, .cls-17 {
        fill: #231815;
      }

      .cls-4 {
        fill: #40220f;
      }

      .cls-5 {
        fill: #00a0e9;
      }

      .cls-6 {
        fill: #956134;
      }

      .cls-7 {
        fill: #171c61;
      }

      .cls-8 {
        fill: #fff100;
      }

      .cls-9 {
        fill: #faee00;
      }

      .cls-10 {
        fill: #595757;
      }

      .cls-13 {
        fill: #fce2ba;
      }

      .cls-14 {
        fill: #fff;
      }

      .cls-15 {
        fill: none;
        stroke-linecap: round;
      }

      .cls-16 {
        fill: #7f4f21;
      }
    </style>
  </defs>
  <g id="_レイヤー_1-2" data-name="レイヤー 1">
    <g>
      <polygon class="cls-6" points="474.31 240.39 11.38 240.39 76.27 163.86 409.42 163.86 474.31 240.39"/>
      <rect class="cls-16" x="11.38" y="240.39" width="462.92" height="81.99"/>
      <path class="cls-1" d="M337.42,202.02h-189.36c-8.02,0-10.85-6.34-6.61-13.52l3.7-6.28c3.63-6.16,11.88-10.87,18.58-10.87h158.03c6.69,0,14.95,4.71,18.58,10.87l3.7,6.28c4.23,7.18,1.41,13.52-6.61,13.52Z"/>
      <ellipse class="cls-18" cx="241.72" cy="447.64" rx="76.11" ry="11.87"/>
      <polygon class="cls-19" points="188.35 397.01 89.32 363.96 56.44 383.73 56.16 384.64 28.23 384.64 3.3 413.8 3.6 428.87 107.7 428.87 115.41 419.29 150.7 431.07 183.88 409.8 188.35 397.01 188.35 397.01"/>
      <g>
        <polygon class="cls-10" points="105.4 426.25 1.31 426.25 1 411.18 105.4 411.18 105.4 426.25"/>
        <polygon class="cls-17" points="105.4 411.18 105.4 426.25 130.14 395.56 130.33 382.02 105.4 411.18"/>
        <polygon class="cls-1" points="105.4 411.18 1 411.18 25.93 382.02 130.33 382.02 105.4 411.18"/>
        <path class="cls-11" d="M33.27,402.16c-7.36,0-11.22-2.5-8.57-5.57h0c2.65-3.06,10.83-5.57,18.19-5.57l-9.62,11.13Z"/>
        <path class="cls-11" d="M88.71,402.16c7.36,0,15.55-2.5,18.19-5.57h0c2.65-3.06-1.21-5.57-8.57-5.57l-9.62,11.13Z"/>
        <polygon class="cls-14" points="38.55 402.16 83.43 402.16 93.05 391.03 48.17 391.03 38.55 402.16"/>
        <polygon class="cls-10" points="148.41 428.45 49.67 395.5 54.15 381.1 153.18 414.16 148.41 428.45"/>
        <polygon class="cls-17" points="153.18 414.16 148.41 428.45 181.58 407.18 186.06 394.39 153.18 414.16"/>
        <polygon class="cls-1" points="153.18 414.16 54.15 381.1 87.03 361.34 186.06 394.39 153.18 414.16"/>
        <path class="cls-11" d="M87.61,382.77c-6.98-2.33-9.85-5.93-6.37-7.99h0c3.48-2.07,12.04-1.85,19.02.48l-12.65,7.51Z"/>
        <path class="cls-11" d="M140.2,400.32c6.98,2.33,15.54,2.55,19.02.48h0c3.48-2.07.61-5.66-6.37-7.99l-12.65,7.51Z"/>
        <polygon class="cls-14" points="92.62 384.44 135.19 398.65 147.84 391.14 105.27 376.93 92.62 384.44"/>
      </g>
      <ellipse class="cls-12" cx="186.06" cy="347.56" rx="18.62" ry="30.55" transform="translate(-148.85 139.59) rotate(-30)"/>
      <ellipse class="cls-12" cx="297.33" cy="347.56" rx="30.55" ry="18.62" transform="translate(-146.81 456.85) rotate(-63.28)"/>
      <path class="cls-7" d="M175.89,355.73c0,52.57-10.08,95.19,66.05,95.19s65.73-42.62,65.73-95.19h-131.78Z"/>
      <path class="cls-12" d="M315.34,410.96c0-59.41-23.75-115.2-73.41-115.2s-73.82,55.79-73.82,115.2h147.23Z"/>
      <rect class="cls-2" x="92.91" y="1" width="299.87" height="187.47" rx="14.29" ry="14.29"/>
      <rect class="cls-7" x="106.95" y="12.66" width="273.05" height="164.15" rx="12.76" ry="12.76"/>
      <path class="cls-11" d="M323.08,131.28s-7.26-32.04-10.71-60.7c-4.16-34.56-37.83-33.64-37.83-33.64-37.51,0-37.2,35.89-37.2,35.89-.48,16.2-3.48,41.28-12,58.44h16.55c-1.85,5.53-2.88,11.63-2.88,18.04,0,25.16,15.8,45.56,35.3,45.56s35.3-20.4,35.3-45.56c0-6.41-1.03-12.51-2.88-18.04h16.35Z"/>
      <path class="cls-9" d="M254.26,143.43s-7.26-32.04-10.71-60.7c-4.16-34.56-37.83-33.64-37.83-33.64-37.51,0-37.2,35.89-37.2,35.89-.48,16.2-3.48,41.28-12,58.44h97.74Z"/>
      <ellipse class="cls-3" cx="205.49" cy="161.47" rx="35.3" ry="45.56"/>
      <path class="cls-13" d="M204.64,68.13c-10.76,10.64-29.52,16.92-29.52,16.92,0,22.3,13.3,39.3,30.37,39.3s30.91-18.08,30.91-40.38c-20.24-5.4-31.76-15.84-31.76-15.84Z"/>
      <path class="cls-15" d="M211.6,88.44c3.45.02,7.29.29,11.41.99"/>
      <path class="cls-15" d="M188.15,89.27c3.42-.47,7.25-.75,11.43-.64"/>
      <path class="cls-4" d="M353.42,337.09s-12.21-13.39-23.2-128.91c-7.79-81.94-89.44-79.53-89.44-79.53-88.69-.01-94.42,81.34-94.42,81.34,0,0-5.4,101.63-30.63,127.1h237.69Z"/>
      <ellipse class="cls-5" cx="197.26" cy="97.95" rx="2.32" ry="3.24"/>
      <ellipse class="cls-5" cx="211.91" cy="97.95" rx="2.32" ry="3.24"/>
      <path class="cls-8" d="M292.64,63.47s-2.65,8.72-11.6,13.66c0,0,7.91,5.3,11.42,15.44,0,0,4.29-11.76,10.89-15.24-5.16-2.58-9.36-9.24-10.71-13.86Z"/>
      <path class="cls-8" d="M254.52,63.47s-2.65,8.72-11.6,13.66c0,0,7.91,5.3,11.42,15.44,0,0,4.29-11.76,10.89-15.24-5.16-2.58-9.36-9.24-10.71-13.86Z"/>
    </g>
  </g>
</svg>