<?xml version="1.0" encoding="UTF-8"?>
<svg id="_レイヤー_2" data-name="レイヤー 2" xmlns="http://www.w3.org/2000/svg" viewBox="0 0 566.93 566.93">
  <defs>
    <style>
      .cls-1, .cls-2 {
        fill: #fff;
      }

      .cls-1, .cls-3 {
        stroke: #231815;
        stroke-miterlimit: 10;
        stroke-width: 5px;
      }

      .cls-4, .cls-3 {
        fill: #231815;
      }
    </style>
  </defs>
  <g id="_レイヤー_1-2" data-name="レイヤー 1">
    <g>
      <rect class="cls-2" width="566.93" height="566.93"/>
      <ellipse class="cls-4" cx="283.46" cy="448.05" rx="166.88" ry="40.31"/>
      <path class="cls-1" d="M455.77,298.7c-1.74,95.17-54.39,161.87-148.58,175.59-94.19,13.72-161.63-35.86-192.51-125.89-31.26-91.12-6.97-186.63,143.77-208.6,155.14-22.6,199.07,62.97,197.32,158.9Z"/>
      <path class="cls-3" d="M292.65,185.72c23.26-.73,54.87-9.5,54.87-9.5,0,0-32.7-26.15-55.96-25.42-9.2.29-17.66,1.78-24.53,4.07,2.3-4.98,4.3-10.67,5.82-16.82,5.58-22.6-2.13-59.49-2.13-59.49,0,0-26.21,28.52-31.79,51.11-1.68,6.82-2.57,13.42-2.75,19.38-5.49-4.97-12.94-9.84-21.62-13.83-21.14-9.72-59.79-1.44-59.79-1.44,0,0,24.05,23.46,45.19,33.18,5.6,2.57,11.14,4.51,16.34,5.82-3.94,1.91-7.98,4.23-11.99,6.95-19.28,13.04-27.97,50.97-27.97,50.97,0,0,28.27-8.99,47.55-22.03,7.46-5.04,13.7-10.69,18.25-16.18,1.54,6.92,4.49,14.74,8.77,22.57,11.15,20.43,36.98,41.24,36.98,41.24,0,0,4.84-37.54-6.31-57.97-2.89-5.29-6.09-10.07-9.41-14.17,6.09,1.2,13.06,1.78,20.46,1.55Z"/>
    </g>
  </g>
</svg>