<?xml version="1.0" encoding="UTF-8"?>
<svg id="_レイヤー_2" data-name="レイヤー 2" xmlns="http://www.w3.org/2000/svg" viewBox="0 0 362.78 542.34">
  <defs>
    <style>
      .cls-1 {
        fill: none;
        stroke: #231815;
        stroke-linecap: round;
        stroke-linejoin: round;
      }

      .cls-2 {
        fill: #b38247;
      }

      .cls-3 {
        fill: #8fc31f;
      }

      .cls-4 {
        fill: #efd78f;
      }
    </style>
  </defs>
  <g id="_レイヤー_1-2" data-name="レイヤー 1">
    <g>
      <g>
        <path class="cls-2" d="M0,509.1h7.15c5.15,0,8.65,1.73,8.65,6.15,0,2.5-1.42,4.73-4.42,5.49v.15c3.69.58,5.84,2.58,5.84,6.03,0,4.96-3.84,7.38-9.49,7.38H0v-25.21ZM6.61,519.71c4.3,0,6.03-1.38,6.03-4.19s-2-3.73-5.88-3.73h-3.57v7.92h3.42ZM7.26,531.62c4.3,0,6.8-1.42,6.8-4.84,0-3.11-2.38-4.38-6.8-4.38H3.19v9.22h4.07Z"/>
        <path class="cls-2" d="M21.87,524.93c0-6.07,4.53-9.76,9.53-9.76,5.38,0,8.53,3.5,8.53,8.76,0,.73-.08,1.42-.15,1.92h-15.79v-2.46h13.91l-.81.88c0-4.42-2.19-6.61-5.61-6.61s-6.46,2.61-6.46,7.26,3.15,7.3,7.3,7.3c2.23,0,4-.69,5.69-1.77l1.15,2.07c-1.84,1.23-4.23,2.23-7.22,2.23-5.61,0-10.07-3.61-10.07-9.84Z"/>
        <path class="cls-2" d="M44.89,541.95l.65-2.53c.5.15,1.11.27,1.69.27,2.61,0,4.19-1.65,5.11-3.96l.54-1.38-8.68-18.71h3.23l4.53,10.3c.73,1.65,1.54,3.61,2.31,5.42h.15c.65-1.77,1.38-3.73,2-5.42l4.03-10.3h3.07l-8.26,20.21c-1.38,3.69-3.65,6.49-7.92,6.49-.88,0-1.81-.15-2.46-.39Z"/>
        <path class="cls-2" d="M67.68,525.01c0-6.26,4.3-9.84,9.22-9.84s9.22,3.57,9.22,9.84-4.3,9.76-9.22,9.76-9.22-3.57-9.22-9.76ZM82.86,525.01c0-4.3-2.38-7.19-5.96-7.19s-5.96,2.88-5.96,7.19,2.38,7.11,5.96,7.11,5.96-2.84,5.96-7.11Z"/>
        <path class="cls-2" d="M92.01,515.63h2.61l.27,3.15h.15c1.96-2.04,4.11-3.61,7.03-3.61,4.42,0,6.46,2.61,6.46,7.53v11.6h-3.19v-11.18c0-3.54-1.23-5.19-4.27-5.19-2.23,0-3.73,1.11-5.88,3.34v13.03h-3.19v-18.67Z"/>
        <path class="cls-2" d="M113.8,525.01c0-6.07,4.03-9.84,8.45-9.84,2.23,0,3.96.88,5.61,2.38h.08l-.15-3.42v-7.18h3.19v27.36h-2.61l-.27-2.46h-.12c-1.54,1.58-3.77,2.92-6.11,2.92-4.84,0-8.07-3.54-8.07-9.76ZM127.79,529.31v-9.3c-1.69-1.58-3.27-2.15-4.88-2.15-3.23,0-5.84,2.84-5.84,7.11s2.07,7.11,5.49,7.11c1.84,0,3.57-.92,5.23-2.77Z"/>
        <path class="cls-2" d="M165.54,527.04v-8.84h-5.3v-2.38l5.42-.19.42-5.99h2.65v5.99h9.15v2.58h-9.15v8.88c0,3.34,1.11,5.07,4.73,5.07,1.73,0,3.11-.35,4.46-.85l.69,2.34c-1.69.61-3.5,1.12-5.84,1.12-5.46,0-7.22-3.11-7.22-7.72Z"/>
        <path class="cls-2" d="M184.25,506.95h3.19v7.45l-.19,4.42h.12c1.88-2.08,4.07-3.65,6.96-3.65,4.42,0,6.46,2.61,6.46,7.53v11.6h-3.19v-11.18c0-3.54-1.23-5.19-4.27-5.19-2.23,0-3.73,1.11-5.88,3.34v13.03h-3.19v-27.36Z"/>
        <path class="cls-2" d="M206.35,524.93c0-6.07,4.53-9.76,9.53-9.76,5.38,0,8.53,3.5,8.53,8.76,0,.73-.08,1.42-.15,1.92h-15.79v-2.46h13.91l-.81.88c0-4.42-2.19-6.61-5.61-6.61s-6.46,2.61-6.46,7.26,3.15,7.3,7.3,7.3c2.23,0,4-.69,5.69-1.77l1.15,2.07c-1.84,1.23-4.23,2.23-7.22,2.23-5.61,0-10.07-3.61-10.07-9.84Z"/>
        <path class="cls-2" d="M254.97,509.1h15.49v2.73h-12.26v8.49h10.37v2.73h-10.37v11.26h-3.23v-25.21Z"/>
        <path class="cls-2" d="M278.49,515.63h2.65l.31,4.42h.08c1.96-3.04,4.88-4.88,8.34-4.88,1.38,0,2.54.19,3.69.77l-.73,2.73c-1.31-.42-2-.61-3.46-.61-2.81,0-5.46,1.42-7.69,5.34v10.91h-3.19v-18.67Z"/>
        <path class="cls-2" d="M299.06,529.47c0-4.19,3.92-6.22,13.56-6.99-.12-2.54-1.34-4.69-4.96-4.69-2.42,0-4.8,1.15-6.53,2.23l-1.27-2.15c1.92-1.23,5.07-2.69,8.34-2.69,5.11,0,7.61,3.04,7.61,7.69v11.45h-2.65l-.27-2.54h-.12c-2.04,1.61-4.73,3-7.34,3-3.5,0-6.38-1.96-6.38-5.3ZM312.62,529.43v-4.84c-7.99.61-10.41,2.19-10.41,4.65,0,2.11,1.92,2.96,4.07,2.96s4.19-1,6.34-2.77Z"/>
        <path class="cls-2" d="M321.27,515.63h2.54l.27,2.46h.08c.96-1.73,2.11-2.92,4.27-2.92,1.84,0,3,1.08,3.54,3.23,1.08-2,2.23-3.23,4.38-3.23,2.61,0,4.15,2.04,4.15,5.76v13.37h-3.15v-13.14c0-2.15-.61-3.27-2-3.27-1.31,0-2,.96-3,2.88v13.53h-2.92v-13.14c0-2.15-.54-3.27-1.92-3.27-1.31,0-2.15.96-3.07,2.88v13.53h-3.15v-18.67Z"/>
        <path class="cls-2" d="M344.72,524.93c0-6.07,4.53-9.76,9.53-9.76,5.38,0,8.53,3.5,8.53,8.76,0,.73-.08,1.42-.15,1.92h-15.79v-2.46h13.91l-.81.88c0-4.42-2.19-6.61-5.61-6.61s-6.46,2.61-6.46,7.26,3.15,7.3,7.3,7.3c2.23,0,4-.69,5.69-1.77l1.15,2.07c-1.84,1.23-4.23,2.23-7.22,2.23-5.61,0-10.07-3.61-10.07-9.84Z"/>
      </g>
      <g>
        <path class="cls-4" d="M152.36,111.46c-2.24,7.09-4.71,14.58-6.68,21.85h-.59c-2.3-7.64-4.64-15.02-7.22-21.85l-12.23-31.28h-21.43l31.47,70.93-1.42,3.8c-2.36,5.63-6.89,9.5-15.28,9.5-1.78,0-3.7-.33-5.61-.92l-3.87,16.46c3.13.88,6.86,1.47,11.09,1.47,18.41,0,27.06-9.44,34.15-27.66l28.69-73.58h-20.42l-10.64,31.28Z"/>
        <path class="cls-4" d="M243.11,128.04c-4.96,6.39-8.75,8.3-14.11,8.3-8.03,0-10.61-4.34-10.61-13.99v-42.17h-21.6v44.95c0,18.36,7.04,29.61,23.59,29.61,10.48,0,18.1-4.81,24.55-12.22h.59l1.56,10.46h17.64v-72.8h-21.6v47.86Z"/>
        <polygon class="cls-2" points="165.85 256.77 195.8 300.02 172.35 300.02 153.28 270.22 165.85 256.77"/>
        <polygon class="cls-2" points="142.55 281.71 142.55 300.02 120.94 300.02 120.94 197.24 142.55 197.24 142.55 256.49 142.55 281.71"/>
        <polygon class="cls-3" points="209.43 244.15 238.74 244.15 238.74 300.02 260.34 300.02 260.34 227.23 209.43 227.23 209.43 244.15"/>
        <path class="cls-4" d="M242.9,178.74c-11.62,0-20,7.68-20,18.71s8.39,18.41,20,18.41,20-7.33,20-18.41-8.39-18.71-20-18.71Z"/>
        <path class="cls-4" d="M160.81,314.52c-10.83,0-18.84,5.28-25.16,11.46h-.59l-1.56-9.7h-17.6v72.8h21.6v-48.58c5.04-4.91,8.96-7.58,14.72-7.58,7.89,0,10.68,4.3,10.68,13.99v42.17h21.6v-44.95c0-18.36-7.25-29.61-23.7-29.61Z"/>
        <path class="cls-4" d="M238.97,314.52c-12.37,0-23.98,4.09-34.07,9.85l7.7,14.15c8.19-4.11,15.17-6.82,22.19-6.82,9.77,0,14.68,3.98,15.44,10.49-34.4,2.09-47.88,10.39-47.88,26.71,0,12.24,9.21,21.94,23.93,21.94,9.34,0,18.45-4.44,25.8-9.96h.55l1.56,8.2h17.64v-41.61c0-22.31-12.4-32.95-32.86-32.95ZM250.23,367.16c-5.15,4-10.64,6.97-17.12,6.97-6.1,0-10.05-2.28-10.05-6.96,0-6.21,5.75-10.86,27.17-11.93v11.92Z"/>
        <path class="cls-3" d="M142.55,256.65s9.07-21.72,28.93-32.43c19.86-10.71,42.99-6.35,42.99-6.35,0,0-9.07,21.72-28.93,32.43-19.86,10.71-42.99,6.35-42.99,6.35Z"/>
      </g>
      <g>
        <path class="cls-1" d="M106.98,99.01l24.86,56.03-1.42,3.8c-2.36,5.63-6.89,9.5-15.28,9.5-1.78,0-3.7-.33-5.61-.92l-3.87,16.46c3.13.88,6.86,1.47,11.09,1.47,18.41,0,27.06-9.44,34.15-27.66l28.69-73.58h-20.42l-10.64,31.28c-2.24,7.09-4.71,14.58-6.68,21.85h-.59c-2.3-7.64-4.64-15.02-7.22-21.85l-12.23-31.28h-21.43"/>
        <path class="cls-1" d="M260.86,84.11h-21.6v47.86c-4.96,6.39-8.75,8.3-14.11,8.3-8.03,0-10.61-4.34-10.61-13.99v-42.17h-21.6v44.95c0,18.36,7.04,29.61,23.59,29.61,10.48,0,18.1-4.81,24.55-12.22h.59l1.56,10.46h17.64v-56.81"/>
        <polygon class="cls-1" points="162 260.7 191.95 303.95 168.49 303.95 149.43 274.15 162 260.7"/>
        <polyline class="cls-1" points="117.09 201.17 138.69 201.17 138.69 260.42 138.69 285.64 138.69 303.95 117.09 303.95 117.09 216.99"/>
        <polyline class="cls-1" points="256.49 286.36 256.49 231.15 205.57 231.15 205.57 248.08 234.88 248.08 234.88 303.95 256.49 303.95"/>
        <path class="cls-1" d="M239.04,182.67c-11.62,0-20,7.68-20,18.71s8.39,18.41,20,18.41,20-7.33,20-18.41-8.39-18.71-20-18.71Z"/>
        <path class="cls-1" d="M112.06,336.49v56.52h21.6v-48.58c5.04-4.91,8.96-7.58,14.72-7.58,7.89,0,10.68,4.3,10.68,13.99v42.17h21.6v-44.95c0-18.36-7.25-29.61-23.7-29.61-10.83,0-18.84,5.28-25.16,11.46h-.59l-1.56-9.7h-17.6"/>
        <path class="cls-1" d="M267.98,378.05v-26.66c0-22.31-12.4-32.95-32.86-32.95-12.37,0-23.98,4.09-34.07,9.85l7.7,14.15c8.19-4.11,15.17-6.82,22.19-6.82,9.77,0,14.68,3.98,15.44,10.49-34.4,2.09-47.88,10.39-47.88,26.71,0,12.24,9.21,21.94,23.93,21.94,9.34,0,18.45-4.44,25.8-9.96h.55l1.56,8.2h17.64M246.38,371.08c-5.15,4-10.64,6.97-17.12,6.97-6.1,0-10.05-2.28-10.05-6.96,0-6.21,5.75-10.86,27.17-11.93v11.92Z"/>
        <path class="cls-1" d="M138.69,260.58s9.07-21.72,28.93-32.43c19.86-10.71,42.99-6.35,42.99-6.35,0,0-9.07,21.72-28.93,32.43-19.86,10.71-42.99,6.35-42.99,6.35Z"/>
      </g>
      <polyline class="cls-1" points="345.61 100.92 345.61 465.24 23.41 465.24"/>
      <polyline class="cls-1" points="23.41 362.82 23.41 .5 345.61 .5"/>
    </g>
  </g>
</svg>