<?xml version="1.0" encoding="UTF-8"?>
<svg id="_レイヤー_2" data-name="レイヤー 2" xmlns="http://www.w3.org/2000/svg" viewBox="0 0 238.98 408.05">
  <defs>
    <style>
      .cls-1, .cls-2 {
        fill: #fff;
      }

      .cls-3 {
        fill: #956235;
      }

      .cls-4 {
        fill: #b28247;
      }

      .cls-5, .cls-6 {
        fill: #8fc31f;
      }

      .cls-5, .cls-2 {
        stroke: #231815;
        stroke-miterlimit: 10;
      }

      .cls-7 {
        fill: #b38247;
      }

      .cls-8 {
        fill: #efd78f;
      }
    </style>
  </defs>
  <g id="_レイヤー_1-2" data-name="レイヤー 1">
    <g>
      <rect class="cls-5" x="46.49" y=".5" width="147.58" height="244.19"/>
      <path class="cls-1" d="M121.65,167.1s-36.65-32.82-36.65-73.31c0-40.49,36.65-73.31,36.65-73.31,0,0,36.65,32.82,36.65,73.31s-36.65,73.31-36.65,73.31Z"/>
      <path class="cls-1" d="M145.2,184.48s.13-4.32,2.86-6.62c2.72-2.29,7.01-1.69,7.01-1.69,0,0-.13,4.32-2.86,6.62-2.72,2.29-7.01,1.69-7.01,1.69Z"/>
      <g>
        <path class="cls-1" d="M108.52,179.4c-.54.55-1.39.83-2.35.49-.09-.96-.25-2.32,0-3.29.49-.66,1.97-.32,2.46.1.74.88.57,2.01-.11,2.7ZM108.11,176.91c-.33-.22-1-.28-1.45-.17-.14.88-.05,2.22.05,2.84.64.12,1.16-.12,1.47-.5.47-.58.51-1.52-.07-2.17Z"/>
        <path class="cls-1" d="M112.01,180.09c-.47.06-.89-.02-1.2-.22-.42-.27-.65-.74-.65-1.21,0-.52.24-1.05.63-1.32.39-.27,1.15-.33,1.57-.04.3.21.58.8.48,1.04-.09.25-.33.27-.54.31-.35.07-1.07.16-1.56.21.07.58.56.78,1.03.77.21,0,.55-.12.73-.24.27-.14.47-.28.52,0,.08.38-.73.66-1.01.7ZM111.56,177.55c-.39.05-.86.46-.84.85.54-.02,1.2-.11,1.56-.21-.03-.41-.39-.68-.73-.64Z"/>
        <path class="cls-1" d="M115.25,180.11c-.57,0-1.12-.26-1.11-.84.12-.23.3-.21.44-.09.13.1.22.29.22.44.23.13.62.14.89,0,.18-.1.31-.28.25-.55-.03-.14-.17-.29-.33-.31-.34-.05-1.04.02-1.34-.35-.22-.29-.02-.93.3-1.14.32-.2.95-.22,1.33-.01.24.13.38.33.28.59-.1.03-.22-.06-.35-.16-.17-.09-.38-.16-.56-.16-.35-.01-.59.21-.59.59.32.24.98.06,1.37.28.37.2.5.62.4,1.04-.14.43-.68.65-1.2.66Z"/>
        <path class="cls-1" d="M118.35,176.97c-.45.08-.62-.21-.59-.45.02-.26.33-.46.74-.28.18.28.06.57-.14.73ZM117.88,179.9c-.03-.29-.1-1.41-.08-1.98.02-.39.17-.61.58-.41.13.66.09,1.96.05,2.57-.23.18-.43-.05-.56-.18Z"/>
        <path class="cls-1" d="M121.29,179.06c-.1.11-.21.23-.22.43.32-.12.77-.16,1.05.02.25.17.42.41.37.82-.04.35-.27.52-.44.67-.24.13-.54.15-.77.09-.37-.09-.61-.37-.3-.75.32-.04.46.12.54.32.51.04.59-.59.27-.84-.41-.13-.84.06-1,.24-.16,0-.29-.05-.36-.17.04-.36.12-.55.24-.82-.56-.06-.82-.51-.8-.96.02-.43.35-.86.89-.9.08-.09.03-.25.09-.35.06-.11.19-.16.39-.13.1.09.18.2.14.43.81-.04,1.23.46,1.21.95-.02.47-.47.95-1.3.93ZM122,177.87c-.16-.27-.51-.35-.87-.31-.45.05-.77.29-.76.59,0,.1.05.21.17.33.18.18.53.23.87.16.32-.07.53-.25.62-.42,0-.19,0-.21-.03-.35Z"/>
        <path class="cls-1" d="M126.55,180.09c-.26.04-.37-.08-.48-.18.03-1.32.08-1.81-.18-2.19-.58-.16-1.04-.03-1.3.36-.2.29-.26.73-.2,1.28.02.24.07.57.04.73-.18.09-.36,0-.51-.11-.14-.79-.17-1.75-.14-2.65.1-.24.39-.2.54-.08l.02.38c.25-.27.78-.48,1.24-.48.43,0,.84.14.99.53.12.29.13,1.21.11,1.71,0,.27-.02.53-.11.7Z"/>
        <path class="cls-1" d="M129.65,180.09c-.47.06-.89-.02-1.2-.22-.42-.27-.65-.74-.65-1.21,0-.52.24-1.05.63-1.32.39-.27,1.15-.33,1.57-.04.3.21.58.8.48,1.04-.09.25-.33.27-.54.31-.35.07-1.07.16-1.56.21.07.58.56.78,1.03.77.21,0,.55-.12.73-.24.27-.14.47-.28.52,0,.08.38-.73.66-1.01.7ZM129.2,177.55c-.39.05-.86.46-.84.85.54-.02,1.2-.11,1.56-.21-.03-.41-.39-.68-.73-.64Z"/>
        <path class="cls-1" d="M133.93,177.88c-.2.12-.33.08-.45,0-.13-.09-.23-.22-.39-.24-.25-.02-.53.25-.59.46-.15.46-.02,1.43-.03,1.95-.21.1-.4-.04-.55-.1-.07-.48-.16-1.53-.06-2.27.05-.37.17-.62.4-.55.13.04.17.28.17.28.18-.16.55-.24.89-.22.38.03.72.2.68.6l-.07.1Z"/>
        <path class="cls-1" d="M99.67,189.45c-.18-.03-.62-.1-.9-.11v.32s.35.29.62.58c.39.4.61.78.61,1.32,0,.17-.03.33-.09.48-.07.02-.14.03-.19.03-.25,0-.44-.28-.58-.86-.16-.68-.38-1.16-.38-1.16-.07,1.88-.02,4.22.06,5.86-.39.14-.77.19-.91-.16-.08-2.12-.01-4.84-.01-4.84-.4,1.16-.94,2.76-2.08,3.62,0,0,.31-.9.4-1.15.48-1.4,1.01-2.5,1.33-3.95-.3.03-1.08.19-1.46.32,0,0-.24-.17-.24-.34,0-.24.1-.4.32-.45.53-.14,1.2-.18,1.68-.2.01-.52.02-1.51.2-2.13.47,0,.68.1.93.34-.07.32-.19,1.03-.2,1.75.32.02.9-.01,1.28.17.04.11.06.22.06.29,0,.18-.15.34-.45.28ZM104.91,195.39c-.22.22-.56.46-.89.38,0,0-.06-.28-.06-.53-.67-.06-1.63,0-2.41.08-.09.31-.45.45-.77.4,0,0-.09-.32-.19-.53-.14-1.42-.25-6.96.16-8.05.23-.14.56-.03.73.16l.2-.29c.47-.03,1.14-.09,1.61-.1.93-.01,1.48.23,1.66.67.03,1.31.07,5.35-.04,7.83ZM103.96,187.63c-.53-.03-1.21.04-1.86.04-.22,0-.39-.03-.52-.08-.12,1.94-.11,4.6-.09,7.05.92-.16,1.93-.18,2.51-.08-.01-1.84-.03-5.3-.03-6.94ZM103.19,190.34c-.22-.01-.49.01-.85.05-.19-.12-.26-.54-.08-.7.09-.06.23-.08.39-.08.35,0,.68.16.68.39,0,.09-.06.25-.14.35ZM102.49,192.5c-.34-.05-.3-.45-.22-.69.26-.07.56-.05.82-.05.2.17.24.58.02.75-.15.02-.42.01-.62-.01Z"/>
        <path class="cls-1" d="M109.48,191.91c-.24,1.51-.77,2.95-1.75,3.86,0,0,.12-.76.21-.98.57-2.21.68-4.95.66-7.45,0-.16.12-.33.31-.33.27,0,.75.24.83.47-.02,1.21-.02,2.92-.26,4.43ZM112.66,192.78c-.03.37-.44.44-.64.43-.23-.09-.36-.26-.36-.51.02-1.46.08-3.51.06-4.98.19-.19.89-.12,1.03.17.03,1.35-.02,3.79-.09,4.89ZM116.02,188.35c0,.71.07,5.25-.05,6.23-.07.57-.68,1.33-1.31,1.33-.18-.56-1.13-1.25-1.13-1.25l1.38-.06c.1-2.01.03-3.97.03-6,0-.74-.01-1.31.18-1.51.57-.07,1.01.26.99.82-.06.09-.1.24-.1.44Z"/>
        <path class="cls-1" d="M130.52,190.29l.22-1.27c-.58-.23-2-.17-2.65-.15-.05.56-.05,2.37-.29,2.74-.33.02-.57-.04-.7-.19-.14-.15-.14-.53-.14-.53-.46.32-.86.78-1.54.78-.35,0-.54-.25-.59-.74.74-.09,1.38-.1,2.11-.34,0-.5-.06-1.12-.06-1.62-.65,0-1.35.19-2.03.19-.17,0-.33-.01-.45-.03-.27.39-.45,1.35-.74,1.76-.38-.09-.59-.16-.65-.19-.19-.1-.28-.29-.26-.56.02-.27.57-1.6.81-1.68.18-.07.56.06.7.15.9-.16,1.85-.25,2.61-.33.01-.24.05-.77.24-.92.34-.01.63.1.91.31.08.19.1.29.09.56.95.02,2.76-.06,3.75.36.25.1.42.24.37.34-.17.42-.9,1-1.7,1.37ZM129.91,187.35c-1.19-.25-4.37-.14-5.37.23-.27.1-.45.14-.53.12-.24-.03-.51-.34-.48-.56.03-.17.31-.28.81-.35,2.03-.27,4.31-.27,6.42-.11.11.08.39.19.28.42-.12.28-.62.35-1.14.25ZM130.21,196.07c-.08.15-.25.22-.47.22-.29,0-.45-.1-.51-.31-1.29-.06-2.62.16-3.49.27-.5.07-.65-.28-.54-.69,1.26-.27,2.47-.38,3.76-.29l.32.11c.11-.91.28-1.56.28-2.47-1.06-.28-2.78-.17-3.77.2-.28.1-.47.14-.57.12-.36-.05-.62-.39-.59-.72,1.79-.56,4.95-.83,6.14.23-.12.96-.25,2.33-.57,3.33ZM125.78,190.3c-.24-.11-.67-.27-.86-.5.15-.19.4-.29.74-.29s.58.11.7.32c.08.38-.38.44-.58.48ZM126.64,194.56c-.27-.16-.39-.34-.35-.64.32-.38,1.46-.51,1.86-.2.2.16.18.37.09.58-.51.02-1.16,0-1.6.26ZM129.41,190.03c-.4.15-.85.23-1.25.08,0,0,.58-.54.76-.77.28-.06.65.07.92.22.01.24-.23.41-.43.48ZM129.73,191.4c-.51.05-1.02-.27-1.42-.59.07-.19.27-.28.61-.28.43,0,.93.19,1.07.44-.01.15-.26.43-.26.43Z"/>
        <path class="cls-1" d="M142.2,188.17c-.47,0-.86-.08-1.42-.11-.02.33-.11.53-.28.64-.2.11-.47.06-.66-.07v-.62c-.66-.01-1.34.01-2.02.1,0,.25.05.5.05.5-.09.33-.51.45-.93.35,0,0-.08-.36-.1-.71-.74.11-1.19.27-1.53.28-.29.01-.64-.17-.61-.51.35-.15,1.21-.28,2.12-.41-.03-.53.01-1.04.01-1.04.08-.15.15-.22.34-.22.31,0,.52.09.66.28,0,0-.03.45-.01.85.65-.07,1.53-.09,2.08-.09.01-.4-.03-.92-.03-.92.38-.02.72-.04.92.26,0,0,.07.34.03.67.5.02,1.08.03,1.48.16.28.09.47.24.47.49-.15.08-.33.12-.54.12ZM142.21,195.02c-.12.17-.33.22-.61.21-.45-.02-1.78-1.32-2.15-1.92,0,0-.01,1.7.02,2.52-.17.26-.59.39-.89.26-.17-.56-.17-1.68-.15-2.55-.75.95-2.19,1.78-3.7,1.86,0,0,2.05-1.16,3.11-2.5-.76.07-1.55.25-1.55.25-.38.01-.58-.16-.64-.42.15-.16.32-.24.49-.26.78-.11,1.53-.17,2.33-.19.01-.36-.02-.67-.02-.67.34-.32.75-.19.98.01,0,0,.05.33.05.64.88.03,1.73.03,2.58.2,0,0,.22.45-.14.54-.37.09-1.68-.11-2.43-.11.69.57,2,1.41,3.2,1.77,0,0-.33.16-.48.36ZM135.04,190.12s3.12-1.01,4.14-1.67c.34.01.6.18.79.57-.71.67-4.02,1.31-4.94,1.1ZM137.13,191.62c-.29.01-.59-.38-.88-1.11,0,0,.64-.27,1.06.15.22.22.29.45.25.71,0,0-.12.24-.42.25ZM138.58,191.14c-.22-.2-.32-.48-.32-.83,0-.18.1-.5.1-.5.5.09.9.61.86,1.07-.18.31-.65.26-.65.26ZM141.58,190.56c-.67.35-1.86,1.08-1.86,1.08.12-.57.86-1.53,1.25-1.91.4.06.76.3.92.73-.07.14-.31.1-.31.1Z"/>
        <path class="cls-1" d="M81.52,209.99c-.52.01-1.34.02-1.54-.17-.09-.09-.12-.59-.13-.78-.06-.8,0-2.05.16-2.71.33-.05,1.2-.05,1.64-.04.38.01.44.17.43.41-.14.07-.32.04-.51.02-.38-.02-.83-.04-1.16.05-.02.32-.07.82-.06,1.08.25,0,.76-.02,1.03-.01.31,0,.45.05.44.27-.12.14-.36.16-.63.16-.31,0-.64.01-.84.02,0,.39.03,1.05.13,1.28.25.02.9-.01,1.24-.02.34-.01.44,0,.48.35-.13.1-.46.1-.67.1Z"/>
        <path class="cls-1" d="M87.17,209.98c-.03-.66.16-1.97-.35-2.35-.41-.06-.93.13-1.01.54-.1.51,0,1.38,0,1.84-.13.07-.38.1-.54.03-.04-.41-.06-1.25-.06-1.75-.05-.31-.16-.54-.37-.59-.36-.09-.59.06-.72.32-.21.42-.16,1.41-.14,2-.12.07-.46.05-.54-.04-.06-.79-.04-2.23.18-2.81.2,0,.35.29.35.29.19-.16.51-.25.82-.24.35,0,.66.17.79.42.25-.25.59-.48,1.11-.48.46,0,.74.22.91.65.22.59.2,1.45.14,2.15-.13.11-.4.14-.56.03Z"/>
        <path class="cls-1" d="M91.34,210.08c-.23-.02-.5-.14-.52-.25-.24.14-.53.21-.81.21-.53,0-1-.23-1.08-.7-.07-.43.18-.91.57-1.04.36-.13.9-.13,1.18-.14.04-.58-.27-.64-.64-.61-.28.03-.59.1-.82.05.01-.5.65-.54,1.01-.52.45.03.87.27.96.7.06.27.03.53,0,.78-.05.35-.05.69.03.89.03.09.15.13.25.18.12.06.21.12.2.23,0,.18-.15.23-.33.21ZM90.64,208.6c-.31-.05-.65-.01-.89.11-.28.14-.41.48-.16.84.42.13.81.01,1.04-.16-.02-.17-.03-.53,0-.8Z"/>
        <path class="cls-1" d="M93.46,206.95c-.45.08-.62-.21-.59-.45.02-.26.33-.46.74-.28.18.28.06.57-.14.73ZM92.99,209.88c-.03-.29-.1-1.41-.08-1.98.02-.39.17-.61.58-.41.13.66.09,1.96.05,2.57-.23.18-.43-.05-.56-.18Z"/>
        <path class="cls-1" d="M95.24,209.9c-.06-1.05-.05-2.69,0-3.69.06-.12.24-.06.34-.04.22.29.23.76.23,1.17,0,.9.02,2.05.02,2.68-.17.2-.48.06-.59-.12Z"/>
        <path class="cls-1" d="M99.13,209.04c-.02-.26.19-.43.4-.43.24,0,.48.2.38.56-.21.29-.74.23-.77-.13ZM99.85,207.62c-.3.1-.56.08-.69-.25-.02-.13-.03-.23.03-.3.1-.16.54-.22.73.03.06.18,0,.4-.08.51Z"/>
        <path class="cls-1" d="M103.8,210.3c-1.11.02-2.09-.92-2.09-2.05s.89-2.14,2.1-2.14c1.33,0,2.12.95,2.12,2.08,0,1.31-.9,2.09-2.13,2.11ZM103.85,206.41c-1.03,0-1.81.86-1.81,1.85s.87,1.73,1.76,1.73c1.06,0,1.78-.73,1.78-1.78s-.72-1.79-1.73-1.79Z"/>
        <path class="cls-1" d="M109.57,210.3c-1.11.02-2.09-.92-2.09-2.05s.89-2.14,2.1-2.14c1.33,0,2.12.95,2.12,2.08,0,1.31-.9,2.09-2.13,2.11ZM109.63,206.41c-1.03,0-1.81.86-1.81,1.85s.87,1.73,1.76,1.73c1.06,0,1.78-.73,1.78-1.78s-.72-1.79-1.73-1.79Z"/>
        <path class="cls-1" d="M116.01,209.31c-.19,0-.46-.05-.54-.26-.17.09-.35.16-.54.16-.52-.02-.8-.45-.77-.94.05-.73.54-1.38,1.34-1.24.27.05.57.18.75.32.05.36-.31,1.22-.47,1.48.05.14.33.17.55.08.28-.13.53-.5.54-1.04.01-1.02-.78-1.43-1.64-1.43-1.05,0-1.71.7-1.71,1.67,0,1.04.66,1.68,1.71,1.71.57.01.94-.11,1.3-.29.15.06.17.22.05.32-.29.21-.95.3-1.35.29-1.27-.02-2.11-.78-2.11-2.05,0-1.13.9-1.97,2.15-1.97.99,0,1.99.59,1.99,1.78,0,.9-.63,1.45-1.25,1.43ZM114.85,207.79c-.17.29-.23.76-.04.99.21.07.36-.06.48-.17.22-.21.36-.78.43-1.08-.24-.18-.62-.16-.87.26Z"/>
        <path class="cls-1" d="M120.21,210.07c-.47.06-.89-.02-1.2-.22-.42-.27-.65-.74-.65-1.21,0-.52.24-1.05.63-1.32.39-.27,1.15-.33,1.57-.04.3.21.58.8.48,1.04-.09.25-.33.27-.54.31-.35.07-1.07.16-1.56.21.07.58.56.78,1.03.77.21,0,.55-.12.73-.24.27-.14.47-.28.52,0,.08.38-.73.66-1.01.7ZM119.76,207.53c-.39.05-.86.46-.84.85.54-.02,1.2-.11,1.56-.21-.03-.41-.39-.68-.73-.64Z"/>
        <path class="cls-1" d="M124.72,207.69c-.25.17-.7.53-.8.65.37.52.7,1.19.6,1.7-.29.02-.39,0-.5-.16-.1-.23-.26-.9-.47-1.14-.34.39-.67.99-.89,1.31-.13.06-.27,0-.44-.29.21-.44.58-1.01.93-1.44-.16-.27-.44-.5-.67-.75-.09-.1-.16-.23-.19-.4.22-.16.43-.1.61.04.24.18.52.53.66.68.19-.16.52-.48.81-.65.18-.1.38-.13.61.03-.03.2-.14.31-.26.42Z"/>
        <path class="cls-1" d="M128.39,210.08c-.23-.02-.5-.14-.52-.25-.24.14-.53.21-.81.21-.53,0-1-.23-1.08-.7-.07-.43.18-.91.57-1.04.36-.13.9-.13,1.18-.14.04-.58-.27-.64-.64-.61-.28.03-.59.1-.82.05.01-.5.65-.54,1.01-.52.45.03.87.27.96.7.06.27.03.53,0,.78-.05.35-.05.69.03.89.03.09.15.13.25.18.12.06.21.12.2.23,0,.18-.15.23-.33.21ZM127.69,208.6c-.31-.05-.65-.01-.89.11-.28.14-.41.48-.16.84.42.13.81.01,1.04-.16-.02-.17-.03-.53,0-.8Z"/>
        <path class="cls-1" d="M133.56,209.98c-.03-.66.16-1.97-.35-2.35-.41-.06-.93.13-1.01.54-.1.51,0,1.38,0,1.84-.13.07-.38.1-.54.03-.04-.41-.06-1.25-.06-1.75-.05-.31-.16-.54-.37-.59-.36-.09-.59.06-.72.32-.21.42-.16,1.41-.14,2-.12.07-.46.05-.54-.04-.06-.79-.04-2.23.18-2.81.2,0,.35.29.35.29.19-.16.51-.25.82-.24.35,0,.66.17.79.42.25-.25.59-.48,1.11-.48.46,0,.74.22.91.65.22.59.2,1.45.14,2.15-.13.11-.4.14-.56.03Z"/>
        <path class="cls-1" d="M136.82,209.99c-.25,0-.58-.04-.83-.18,0,.28.06,1.01-.07,1.3-.17-.04-.35-.06-.45-.17-.07-.99-.1-2.88.03-3.88.14-.06.26-.09.38-.04.07.12.14.28.12.49.34-.24,1.09-.48,1.57-.13.37.27.62.75.62,1.18,0,.73-.54,1.4-1.38,1.43ZM136.86,207.7c-.6,0-.99.57-.88,1.45.16.24.61.46,1.06.35.24-.06.52-.44.56-.73.09-.66-.29-1.07-.74-1.07Z"/>
        <path class="cls-1" d="M139.57,209.9c-.06-1.05-.05-2.69,0-3.69.06-.12.24-.06.34-.04.22.29.23.76.23,1.17,0,.9.02,2.05.02,2.68-.17.2-.48.06-.59-.12Z"/>
        <path class="cls-1" d="M143.31,210.07c-.47.06-.89-.02-1.2-.22-.42-.27-.65-.74-.65-1.21,0-.52.24-1.05.63-1.32.39-.27,1.15-.33,1.57-.04.3.21.58.8.48,1.04-.09.25-.33.27-.54.31-.35.07-1.07.16-1.56.21.07.58.56.78,1.03.77.21,0,.55-.12.73-.24.27-.14.47-.28.52,0,.08.38-.73.66-1.01.7ZM142.86,207.53c-.39.05-.86.46-.84.85.54-.02,1.2-.11,1.56-.21-.03-.41-.39-.68-.73-.64Z"/>
        <path class="cls-1" d="M146.19,210.07c-.3.1-.53.08-.65-.25-.02-.13-.03-.23.04-.29.1-.16.5-.22.69.03.06.18,0,.39-.08.51Z"/>
        <path class="cls-1" d="M149.48,210.06c-1.1.21-1.79-.52-1.8-1.42,0-.39.12-.8.36-1.16.35-.4.97-.55,1.54-.38.32.09.67.4.66.52-.02.26-.25.24-.49.13-.12-.13-.38-.25-.52-.27-.63-.08-1.05.6-1.03,1.22.02.65.55,1,1.12.89.28-.05.47-.27.58-.43.14-.14.25-.3.51-.22.13.54-.48,1.02-.94,1.11Z"/>
        <path class="cls-1" d="M153.1,210.14c-.26.02-.61-.04-.85-.16-.38-.18-.92-.82-.76-1.7.09-.5.6-1.09,1.32-1.19,1.02-.14,1.75.51,1.8,1.4.05.99-.57,1.59-1.5,1.65ZM153.56,207.59c-.17-.08-.45-.13-.73-.07-.58.12-.83.65-.81,1.12.02.55.4,1.12,1.03,1.1.14,0,.3-.04.47-.12.36-.16.51-.61.51-1.04,0-.41-.17-.85-.47-1Z"/>
        <path class="cls-1" d="M156.49,210.07c-.3.1-.53.08-.65-.25-.02-.13-.03-.23.04-.29.1-.16.5-.22.69.03.06.18,0,.39-.08.51Z"/>
        <path class="cls-1" d="M159.66,210.31c-.12.27-.31.46-.62.55-.21.06-.57.13-.85.07-.24-.05-.41-.18-.38-.47,0,0,.22-.03.35-.03.35.01.77.09.95-.26.1-.4.1-1.14.09-1.53-.02-.54-.03-1.07.02-1.4.29-.16.43.01.5.29.07.29.06.69.08.97.03.74.04,1.37-.14,1.8ZM159.48,206.91c-.2,0-.42-.13-.44-.36-.01-.14.08-.29.35-.36.25-.06.46.05.47.28.01.3-.18.44-.38.44Z"/>
        <path class="cls-1" d="M162.54,209.99c-.25,0-.58-.04-.83-.18,0,.28.06,1.01-.07,1.3-.17-.04-.35-.06-.45-.17-.07-.99-.1-2.88.03-3.88.14-.06.26-.09.38-.04.07.12.14.28.12.49.34-.24,1.09-.48,1.57-.13.37.27.62.75.62,1.18,0,.73-.54,1.4-1.38,1.43ZM162.58,207.7c-.6,0-.99.57-.88,1.45.16.24.61.46,1.06.35.24-.06.52-.44.56-.73.09-.66-.29-1.07-.74-1.07Z"/>
        <path class="cls-1" d="M83.86,218.62c-.36.28-.88.42-1.46.4-.01.28.05.92,0,1.2-.21.1-.43-.04-.53-.17.01-.95-.15-2.83.2-3.64.49.06,1.05-.23,1.51-.07.37.14.74.59.78,1.1.04.51-.16.91-.5,1.18ZM83.47,216.8c-.29-.13-.7-.07-1.08.11,0,.48-.05,1.19,0,1.66.65.07,1.23-.21,1.44-.72.06-.57-.08-.92-.36-1.05Z"/>
        <path class="cls-1" d="M87.06,220.24c-.26.02-.61-.04-.85-.16-.38-.18-.92-.82-.76-1.7.09-.5.6-1.09,1.32-1.19,1.02-.14,1.75.51,1.8,1.4.05.99-.57,1.59-1.5,1.65ZM87.52,217.69c-.17-.08-.45-.13-.73-.07-.58.12-.83.65-.81,1.12.02.55.4,1.12,1.03,1.1.14,0,.3-.04.47-.12.36-.16.51-.61.51-1.04,0-.41-.17-.85-.47-1Z"/>
        <path class="cls-1" d="M91.85,217.96c-.2.12-.33.08-.45,0-.13-.09-.23-.22-.39-.24-.25-.02-.53.25-.59.46-.15.46-.02,1.43-.03,1.95-.21.1-.4-.04-.55-.1-.07-.48-.16-1.53-.06-2.27.05-.37.17-.62.4-.55.13.04.17.28.17.28.18-.16.55-.24.89-.22.38.03.72.2.68.6l-.07.1Z"/>
        <path class="cls-1" d="M95.32,219.82c-.12.21-.4.36-.67.35-.36,0-.78-.17-.87-.47-.13-.47-.11-1.36-.1-1.88-.13,0-.29,0-.44-.03-.2-.04-.36-.06-.33-.26.03-.19.41-.16.77-.17,0-.2,0-.47.05-.67.06-.24.19-.38.48-.17.02.23,0,.84,0,.84.18.02.52.03.7.07l.1.3c-.1.17-.5.1-.78.1-.03.39-.03,1.29.07,1.8.25.16.46.1.61-.03.12-.11.2-.29.41-.21.17.12.08.32,0,.43Z"/>
        <path class="cls-1" d="M97.94,216.71c-.23.09-.21.4-.21.85l.6.02c.18.01.34.06.35.23,0,.14-.11.16-.29.17-.16,0-.63-.01-.63-.01,0,.56,0,1.71-.03,2.27-.21,0-.42.02-.48-.17-.02-.57.01-1.54,0-2.08-.31,0-.77.07-.89-.09.08-.34.43-.32.87-.32,0-.36-.02-.74.19-1,.2-.24.5-.37.85-.31.11.02.31.1.42.23s.13.28-.03.4c0,0-.42-.29-.7-.18Z"/>
        <path class="cls-1" d="M101.4,220.24c-.26.02-.61-.04-.85-.16-.38-.18-.92-.82-.76-1.7.09-.5.6-1.09,1.32-1.19,1.02-.14,1.75.51,1.8,1.4.05.99-.57,1.59-1.5,1.65ZM101.86,217.69c-.17-.08-.45-.13-.73-.07-.58.12-.83.65-.81,1.12.02.55.4,1.12,1.03,1.1.14,0,.3-.04.47-.12.36-.16.51-.61.51-1.04,0-.41-.17-.85-.47-1Z"/>
        <path class="cls-1" d="M104.27,220c-.06-1.05-.05-2.69,0-3.69.06-.12.24-.06.34-.04.22.29.23.76.23,1.17,0,.9.02,2.05.02,2.68-.17.2-.48.06-.59-.12Z"/>
        <path class="cls-1" d="M107,217.06c-.45.08-.62-.21-.59-.45.02-.26.33-.46.74-.28.18.28.06.57-.14.73ZM106.53,219.99c-.03-.29-.1-1.41-.08-1.98.02-.39.17-.61.58-.41.13.66.09,1.96.05,2.57-.23.18-.43-.05-.56-.18Z"/>
        <path class="cls-1" d="M110.1,220.24c-.26.02-.61-.04-.85-.16-.38-.18-.92-.82-.76-1.7.09-.5.6-1.09,1.32-1.19,1.02-.14,1.75.51,1.8,1.4.05.99-.57,1.59-1.5,1.65ZM110.56,217.69c-.17-.08-.45-.13-.73-.07-.58.12-.83.65-.81,1.12.02.55.4,1.12,1.03,1.1.14,0,.3-.04.47-.12.36-.16.51-.61.51-1.04,0-.41-.17-.85-.47-1Z"/>
        <path class="cls-1" d="M114.63,219.15c-.02-.26.19-.43.4-.43.24,0,.48.2.38.56-.21.29-.74.23-.77-.13ZM115.36,217.72c-.3.1-.57.08-.69-.25-.02-.13-.03-.23.03-.3.1-.16.54-.22.73.03.06.18,0,.4-.07.51Z"/>
        <path class="cls-1" d="M121.18,220.08c-.2.01-.34-.04-.47-.11-.12-.47-.32-.92-.52-1.31-.28.45-.49,1.04-.73,1.53-.19.07-.35,0-.5-.07-.1-.41-.51-1.47-.57-2.09-.08-.71.09-1,.47-.77.07.76.22,1.56.44,2.17.17-.43.47-.95.63-1.41.07-.2.01-.46.25-.55.37.03.26.39.32.66.1.4.34.91.51,1.19.36-.6.62-1.49.85-2.21.3-.05.39.14.47.29-.33.95-.65,1.9-1.15,2.68Z"/>
        <path class="cls-1" d="M126.02,220.08c-.2.01-.34-.04-.47-.11-.12-.47-.32-.92-.52-1.31-.28.45-.49,1.04-.73,1.53-.19.07-.35,0-.5-.07-.1-.41-.51-1.47-.57-2.09-.08-.71.09-1,.47-.77.07.76.22,1.56.44,2.17.17-.43.47-.95.63-1.41.07-.2.01-.46.25-.55.37.03.26.39.32.66.1.4.34.91.51,1.19.36-.6.62-1.49.85-2.21.3-.05.39.14.47.29-.33.95-.65,1.9-1.15,2.68Z"/>
        <path class="cls-1" d="M130.86,220.08c-.2.01-.34-.04-.47-.11-.12-.47-.32-.92-.52-1.31-.28.45-.49,1.04-.73,1.53-.19.07-.35,0-.5-.07-.1-.41-.51-1.47-.57-2.09-.08-.71.09-1,.47-.77.07.76.22,1.56.44,2.17.17-.43.47-.95.63-1.41.07-.2.01-.46.25-.55.37.03.26.39.32.66.1.4.34.91.51,1.19.36-.6.62-1.49.85-2.21.3-.05.39.14.47.29-.33.95-.65,1.9-1.15,2.68Z"/>
        <path class="cls-1" d="M133.77,220.18c-.3.1-.53.08-.65-.25-.02-.13-.03-.23.04-.29.1-.16.5-.22.69.03.06.18,0,.39-.08.51Z"/>
        <path class="cls-1" d="M137.59,220.4c-1.11.02-2.09-.92-2.09-2.05s.89-2.14,2.1-2.14c1.33,0,2.12.95,2.12,2.08,0,1.31-.9,2.09-2.13,2.11ZM137.65,216.51c-1.03,0-1.81.86-1.81,1.85s.87,1.73,1.77,1.73c1.06,0,1.78-.73,1.78-1.78s-.72-1.79-1.73-1.79Z"/>
        <path class="cls-1" d="M143.37,220.4c-1.11.02-2.09-.92-2.09-2.05s.89-2.14,2.1-2.14c1.33,0,2.12.95,2.12,2.08,0,1.31-.9,2.09-2.13,2.11ZM143.43,216.51c-1.03,0-1.81.86-1.81,1.85s.87,1.73,1.77,1.73c1.06,0,1.78-.73,1.78-1.78s-.72-1.79-1.73-1.79Z"/>
        <path class="cls-1" d="M147.65,220.18c-.3.1-.53.08-.65-.25-.02-.13-.03-.23.04-.29.1-.16.5-.22.69.03.06.18,0,.39-.08.51Z"/>
        <path class="cls-1" d="M150.95,220.16c-1.1.21-1.79-.52-1.8-1.42,0-.39.12-.8.36-1.16.35-.4.97-.55,1.54-.38.32.09.67.4.66.52-.02.26-.25.24-.49.13-.12-.13-.38-.25-.52-.27-.63-.08-1.05.6-1.03,1.22.02.65.55,1,1.12.89.28-.05.47-.27.58-.43.14-.14.25-.3.51-.22.13.54-.48,1.02-.94,1.11Z"/>
        <path class="cls-1" d="M154.57,220.24c-.26.02-.61-.04-.85-.16-.38-.18-.92-.82-.76-1.7.09-.5.6-1.09,1.32-1.19,1.02-.14,1.75.51,1.8,1.4.05.99-.57,1.59-1.5,1.65ZM155.03,217.69c-.17-.08-.45-.13-.73-.07-.58.12-.83.65-.81,1.12.02.55.4,1.12,1.03,1.1.14,0,.3-.04.47-.12.36-.16.51-.61.51-1.04,0-.41-.17-.85-.47-1Z"/>
        <path class="cls-1" d="M160.99,220.09c-.03-.66.16-1.97-.35-2.35-.41-.06-.93.13-1.01.54-.1.51,0,1.38,0,1.84-.13.07-.38.1-.54.03-.04-.41-.06-1.25-.06-1.75-.05-.31-.16-.54-.37-.59-.36-.09-.59.06-.72.32-.21.42-.16,1.41-.14,2-.12.07-.46.05-.54-.04-.06-.79-.04-2.23.18-2.81.2,0,.35.29.35.29.19-.16.51-.25.82-.24.35,0,.66.17.79.42.25-.25.59-.48,1.11-.48.46,0,.74.22.91.65.22.59.2,1.45.14,2.15-.13.11-.4.14-.56.03Z"/>
        <path class="cls-1" d="M85.9,227.17c-.12-.09-.29-.22-.47-.23-.36-.03-.97.43-.85.9.08.32.53.18.92.21.72.05,1.33.57,1.09,1.32-.17.55-.78.88-1.43.9-.35.01-.71-.09-1.01-.23-.24-.18-.46-.49-.28-.81.26-.09.35.12.52.27.2.17.47.27.78.27.08,0,.16,0,.25-.03.29-.08.71-.44.64-.83-.05-.3-.41-.33-.8-.33s-.85.03-1.05-.17c-.33-.44-.28-.91-.04-1.28.27-.43.79-.73,1.26-.73.32,0,.76.22.93.57.03.08,0,.18-.02.23-.19.14-.32.07-.46-.03Z"/>
        <path class="cls-1" d="M90.6,230.09c-.13.11-.33.21-.46.08-.62-.92-1.19-1.88-1.73-2.85-.08.77-.05,2.17-.01,2.85-.14.05-.38.05-.5-.13-.09-1.14-.02-2.64.03-3.58.07-.09.26-.04.52.05.43.77,1.19,2.04,1.71,2.86.06-.82.05-1.91.05-2.47,0-.25.07-.46.2-.49.2-.05.31.03.31.12,0,.84-.06,2.72-.14,3.56Z"/>
        <path class="cls-1" d="M94.08,227.17c-.12-.09-.29-.22-.47-.23-.36-.03-.97.43-.85.9.08.32.53.18.92.21.72.05,1.33.57,1.09,1.32-.17.55-.78.88-1.43.9-.35.01-.71-.09-1.01-.23-.24-.18-.46-.49-.28-.81.26-.09.35.12.52.27.2.17.47.27.78.27.08,0,.16,0,.25-.03.29-.08.71-.44.64-.83-.05-.3-.41-.33-.8-.33s-.85.03-1.05-.17c-.33-.44-.28-.91-.04-1.28.27-.43.79-.73,1.26-.73.32,0,.76.22.93.57.03.08,0,.18-.02.23-.19.14-.32.07-.46-.03Z"/>
        <path class="cls-1" d="M97.86,229.25c-.02-.26.19-.43.4-.43.24,0,.48.2.38.56-.21.29-.74.23-.77-.13ZM98.58,227.82c-.3.1-.56.08-.69-.25-.02-.13-.03-.23.03-.3.1-.16.54-.22.73.03.06.18,0,.4-.08.51Z"/>
        <path class="cls-1" d="M104.65,229.51c-.19,0-.46-.05-.54-.26-.17.09-.35.16-.54.16-.52-.02-.8-.45-.77-.94.05-.73.54-1.38,1.34-1.24.27.05.57.18.75.32.05.36-.31,1.22-.47,1.48.05.14.33.17.55.08.28-.13.53-.5.54-1.04.01-1.02-.78-1.43-1.64-1.43-1.05,0-1.71.7-1.71,1.67,0,1.04.66,1.68,1.71,1.71.57.01.94-.11,1.3-.29.15.06.17.22.05.32-.29.21-.95.3-1.35.29-1.27-.02-2.11-.78-2.11-2.05,0-1.13.9-1.97,2.15-1.97.99,0,1.99.59,1.99,1.78,0,.9-.63,1.45-1.25,1.43ZM103.48,228c-.17.29-.23.76-.04.99.21.07.36-.06.48-.17.22-.21.36-.78.43-1.08-.24-.18-.62-.16-.87.26Z"/>
        <path class="cls-1" d="M109.33,230.51c-1.11.02-2.09-.92-2.09-2.05s.89-2.14,2.1-2.14c1.33,0,2.12.95,2.12,2.08,0,1.31-.9,2.09-2.13,2.11ZM109.39,226.61c-1.03,0-1.81.86-1.81,1.85s.87,1.73,1.76,1.73c1.06,0,1.78-.73,1.78-1.78s-.72-1.79-1.73-1.79Z"/>
        <path class="cls-1" d="M115.1,230.51c-1.11.02-2.09-.92-2.09-2.05s.89-2.14,2.1-2.14c1.33,0,2.12.95,2.12,2.08,0,1.31-.9,2.09-2.13,2.11ZM115.16,226.61c-1.03,0-1.81.86-1.81,1.85s.87,1.73,1.76,1.73c1.06,0,1.78-.73,1.78-1.78s-.72-1.79-1.73-1.79Z"/>
        <path class="cls-1" d="M120.69,228.35c-.01-.92.58-2.17,1.17-2.47.2.21.05.4-.09.57-.3.36-.66,1.2-.66,1.88,0,.93.36,1.62.68,1.96.17.18.27.35.1.57-.75-.48-1.18-1.47-1.19-2.51Z"/>
        <path class="cls-1" d="M123.47,230.18c-.05-.66-.05-1.71-.05-2.53,0-.42,0-.86.05-1.17.13-.13.39-.05.5.04.05,1.07.01,2.57.06,3.69-.17.09-.43.08-.57-.04Z"/>
        <path class="cls-1" d="M128.28,230.28c-.26.04-.37-.08-.48-.18.03-1.32.08-1.81-.18-2.19-.58-.16-1.04-.03-1.3.36-.2.29-.26.73-.2,1.28.02.24.07.57.04.73-.18.09-.36,0-.51-.11-.14-.79-.17-1.75-.14-2.65.1-.24.39-.2.54-.08l.02.38c.25-.27.78-.48,1.24-.48.43,0,.84.14.99.53.12.29.13,1.21.11,1.71,0,.27-.02.53-.11.7Z"/>
        <path class="cls-1" d="M130.73,230.3c-.57,0-1.12-.26-1.11-.84.12-.23.3-.21.44-.09.13.1.22.29.22.44.23.13.62.14.89,0,.18-.1.31-.28.25-.55-.03-.14-.17-.29-.33-.31-.34-.05-1.04.02-1.34-.35-.22-.29-.02-.93.3-1.14.32-.2.95-.22,1.33-.01.24.13.38.33.28.59-.1.03-.22-.06-.35-.16-.17-.09-.38-.16-.56-.16-.35-.01-.59.21-.59.59.32.24.98.06,1.37.28.37.2.5.62.4,1.04-.14.43-.68.65-1.2.66Z"/>
        <path class="cls-1" d="M135.42,229.92c-.12.21-.4.36-.67.35-.36,0-.78-.17-.87-.47-.13-.47-.11-1.36-.1-1.88-.13,0-.29,0-.44-.03-.2-.04-.36-.06-.33-.26.03-.19.41-.16.77-.17,0-.2,0-.47.05-.67.06-.24.19-.38.48-.17.02.23,0,.84,0,.84.18.02.52.03.7.07l.1.3c-.1.17-.5.1-.78.1-.03.39-.03,1.29.07,1.8.25.16.46.1.61-.03.12-.11.2-.29.41-.21.17.12.08.32,0,.43Z"/>
        <path class="cls-1" d="M138.9,230.29c-.23-.02-.5-.14-.52-.25-.24.14-.53.21-.81.21-.53,0-1-.23-1.08-.7-.07-.43.18-.91.57-1.04.36-.13.9-.13,1.18-.14.04-.58-.27-.64-.64-.61-.28.03-.59.1-.82.05.01-.5.65-.54,1.01-.52.45.03.87.27.96.7.06.27.03.53,0,.78-.05.35-.05.69.03.89.03.09.15.13.25.18.12.06.21.12.2.23,0,.18-.15.23-.33.21ZM138.21,228.81c-.31-.05-.65-.01-.89.11-.28.14-.41.48-.16.84.42.13.81.01,1.04-.16-.02-.17-.03-.53,0-.8Z"/>
        <path class="cls-1" d="M141.69,229.25c-.1.11-.21.23-.22.43.32-.12.77-.16,1.05.02.25.17.42.41.37.82-.04.35-.27.52-.44.67-.24.13-.54.15-.77.09-.37-.09-.61-.37-.3-.75.32-.04.46.12.54.32.51.04.59-.59.27-.84-.41-.13-.84.06-1,.24-.16,0-.29-.05-.36-.17.04-.36.12-.55.24-.82-.56-.06-.82-.51-.8-.96.02-.43.35-.86.89-.9.08-.09.03-.25.09-.35.06-.11.19-.16.39-.13.1.09.18.2.14.43.81-.04,1.23.46,1.21.95-.02.47-.47.95-1.3.93ZM142.4,228.06c-.16-.27-.51-.35-.87-.31-.45.05-.77.29-.76.59,0,.1.05.21.17.33.18.18.53.23.87.16.32-.07.53-.25.62-.42,0-.19,0-.21-.03-.35Z"/>
        <path class="cls-1" d="M146.28,228.07c-.2.12-.33.08-.45,0-.13-.09-.23-.22-.39-.24-.25-.02-.53.25-.59.46-.15.46-.02,1.43-.03,1.95-.21.1-.4-.04-.55-.1-.07-.48-.16-1.53-.06-2.27.05-.37.17-.62.4-.55.13.04.17.28.17.28.18-.16.55-.24.89-.22.38.03.72.2.68.6l-.07.1Z"/>
        <path class="cls-1" d="M149.77,230.29c-.23-.02-.5-.14-.52-.25-.24.14-.53.21-.81.21-.53,0-1-.23-1.08-.7-.07-.43.18-.91.57-1.04.36-.13.9-.13,1.18-.14.04-.58-.27-.64-.64-.61-.28.03-.59.1-.82.05.01-.5.65-.54,1.01-.52.45.03.87.27.96.7.06.27.03.53,0,.78-.05.35-.05.69.03.89.03.09.15.13.25.18.12.06.21.12.2.23,0,.18-.15.23-.33.21ZM149.07,228.81c-.31-.05-.65-.01-.89.11-.28.14-.41.48-.16.84.42.13.81.01,1.04-.16-.02-.17-.03-.53,0-.8Z"/>
        <path class="cls-1" d="M154.94,230.19c-.03-.66.16-1.97-.35-2.35-.41-.06-.93.13-1.01.54-.1.51,0,1.38,0,1.84-.13.07-.38.1-.54.03-.04-.41-.06-1.25-.06-1.75-.05-.31-.16-.54-.37-.59-.36-.09-.59.06-.72.32-.21.42-.16,1.41-.14,2-.12.07-.46.05-.54-.04-.06-.79-.04-2.23.18-2.81.2,0,.35.29.35.29.19-.16.51-.25.82-.24.35,0,.66.17.79.42.25-.25.59-.48,1.11-.48.46,0,.74.22.91.65.22.59.2,1.45.14,2.15-.13.11-.4.14-.56.03Z"/>
        <path class="cls-1" d="M156.83,230.86c-.17-.22-.07-.39.1-.57.32-.35.68-1.03.68-1.96,0-.68-.36-1.52-.66-1.88-.14-.17-.29-.36-.09-.57.59.29,1.18,1.55,1.17,2.47-.02,1.04-.44,2.03-1.19,2.51Z"/>
      </g>
      <path class="cls-8" d="M113.66,70.76c-.46,1.44-.96,2.97-1.36,4.45h-.12c-.47-1.55-.94-3.05-1.47-4.45l-2.49-6.36h-4.36l6.4,14.43-.29.77c-.48,1.14-1.4,1.93-3.11,1.93-.36,0-.75-.07-1.14-.19l-.79,3.35c.64.18,1.4.3,2.26.3,3.74,0,5.51-1.92,6.95-5.63l5.84-14.97h-4.15l-2.17,6.36Z"/>
      <path class="cls-8" d="M132.12,74.13c-1.01,1.3-1.78,1.69-2.87,1.69-1.63,0-2.16-.88-2.16-2.85v-8.58h-4.39v9.14c0,3.73,1.43,6.02,4.8,6.02,2.13,0,3.68-.98,4.99-2.49h.12l.32,2.13h3.59v-14.81h-4.39v9.74Z"/>
      <polygon class="cls-7" points="116.4 100.32 122.49 109.12 117.72 109.12 113.85 103.06 116.4 100.32"/>
      <polygon class="cls-7" points="111.66 105.4 111.66 109.12 107.27 109.12 107.27 88.21 111.66 88.21 111.66 100.27 111.66 105.4"/>
      <polygon class="cls-6" points="125.27 97.75 131.23 97.75 131.23 109.12 135.62 109.12 135.62 94.31 125.27 94.31 125.27 97.75"/>
      <path class="cls-8" d="M132.08,84.45c-2.36,0-4.07,1.56-4.07,3.81s1.71,3.75,4.07,3.75,4.07-1.49,4.07-3.75-1.71-3.81-4.07-3.81Z"/>
      <path class="cls-8" d="M115.38,112.07c-2.2,0-3.83,1.07-5.12,2.33h-.12l-.32-1.97h-3.58v14.81h4.39v-9.88c1.03-1,1.82-1.54,3-1.54,1.6,0,2.17.87,2.17,2.85v8.58h4.39v-9.14c0-3.73-1.47-6.02-4.82-6.02Z"/>
      <path class="cls-8" d="M131.28,112.07c-2.52,0-4.88.83-6.93,2l1.57,2.88c1.67-.84,3.09-1.39,4.51-1.39,1.99,0,2.99.81,3.14,2.13-7,.42-9.74,2.11-9.74,5.43,0,2.49,1.87,4.46,4.87,4.46,1.9,0,3.75-.9,5.25-2.03h.11l.32,1.67h3.59v-8.47c0-4.54-2.52-6.7-6.69-6.7ZM133.57,122.78c-1.05.81-2.16,1.42-3.48,1.42-1.24,0-2.04-.46-2.04-1.42,0-1.26,1.17-2.21,5.53-2.43v2.43Z"/>
      <path class="cls-6" d="M111.66,100.3s1.85-4.42,5.89-6.6,8.75-1.29,8.75-1.29c0,0-1.85,4.42-5.89,6.6s-8.75,1.29-8.75,1.29Z"/>
    </g>
    <g>
      <rect class="cls-2" x="47.57" y="216.64" width="143.83" height="237.98" transform="translate(455.12 216.14) rotate(90)"/>
      <path class="cls-6" d="M94.69,407.09s51.86-87.97,143.4-91.94v91.94H94.69Z"/>
      <path class="cls-4" d="M70.34,264.19H1.01v142.97h178.14c-91.09-52.77-108.81-142.97-108.81-142.97Z"/>
      <g>
        <g>
          <path class="cls-1" d="M44.26,341.9c-.52.54-1.36.81-2.3.48-.09-.94-.25-2.26,0-3.22.47-.65,1.92-.31,2.4.1.73.86.56,1.96-.11,2.63ZM43.86,339.47c-.32-.21-.98-.28-1.42-.17-.14.86-.04,2.17.05,2.78.62.11,1.13-.11,1.44-.49.46-.57.5-1.48-.07-2.12Z"/>
          <path class="cls-1" d="M47.66,342.57c-.46.06-.87-.02-1.17-.22-.41-.26-.63-.72-.63-1.18,0-.51.24-1.03.61-1.29.38-.26,1.12-.32,1.53-.03.29.2.56.78.47,1.02-.09.25-.33.26-.53.3-.34.07-1.04.15-1.53.21.07.56.55.77,1,.75.2,0,.53-.11.71-.23.26-.14.46-.28.51,0,.08.37-.71.64-.99.68ZM47.22,340.1c-.38.04-.84.45-.82.83.52-.02,1.17-.11,1.53-.2-.03-.4-.38-.67-.71-.62Z"/>
          <path class="cls-1" d="M50.81,342.6c-.56,0-1.09-.25-1.08-.82.11-.23.29-.21.43-.09.12.1.22.28.22.43.23.12.61.14.87,0,.18-.1.3-.27.24-.54-.03-.14-.17-.28-.33-.3-.33-.05-1.02.02-1.31-.34-.22-.28-.02-.91.29-1.11.31-.2.93-.21,1.3-.01.23.13.37.33.27.58-.1.03-.22-.06-.34-.15-.16-.09-.37-.15-.55-.16-.34-.01-.58.21-.58.58.32.24.96.06,1.34.27.36.2.48.6.39,1.02-.14.42-.66.64-1.17.64Z"/>
          <path class="cls-1" d="M53.83,339.53c-.44.08-.6-.2-.58-.44.02-.25.32-.44.72-.27.17.27.06.55-.14.71ZM53.37,342.39c-.03-.28-.1-1.37-.07-1.93.02-.38.17-.6.57-.4.12.64.08,1.91.05,2.51-.22.17-.42-.04-.55-.17Z"/>
          <path class="cls-1" d="M56.7,341.57c-.1.11-.2.23-.21.42.32-.12.75-.15,1.03.02.25.16.41.4.36.8-.03.34-.26.51-.43.66-.23.12-.52.15-.75.09-.36-.09-.6-.36-.29-.73.32-.03.45.12.52.32.5.03.57-.58.26-.82-.4-.12-.82.06-.97.23-.15,0-.28-.05-.35-.17.03-.35.12-.54.24-.8-.55-.06-.8-.5-.78-.93.02-.42.34-.84.87-.88.07-.09.03-.24.09-.34.06-.11.19-.15.38-.12.1.09.18.19.14.42.79-.04,1.2.44,1.18.93-.02.46-.46.92-1.27.91ZM57.39,340.41c-.16-.26-.5-.34-.84-.3-.44.04-.75.28-.74.57,0,.1.05.21.17.32.18.17.51.23.84.16.32-.07.51-.24.61-.41,0-.19,0-.2-.03-.34Z"/>
          <path class="cls-1" d="M61.83,342.57c-.26.04-.36-.07-.47-.17.03-1.29.08-1.77-.17-2.14-.57-.16-1.01-.03-1.27.35-.2.29-.25.71-.2,1.25.02.24.07.55.03.72-.18.08-.35,0-.5-.11-.13-.77-.16-1.71-.13-2.58.1-.23.38-.19.52-.07l.02.37c.25-.26.76-.47,1.21-.47.42,0,.82.14.96.52.11.29.12,1.18.11,1.67,0,.26-.02.52-.11.68Z"/>
          <path class="cls-1" d="M64.84,342.57c-.46.06-.87-.02-1.17-.22-.41-.26-.63-.72-.63-1.18,0-.51.24-1.03.61-1.29.38-.26,1.12-.32,1.53-.03.29.2.56.78.47,1.02-.09.25-.33.26-.53.3-.34.07-1.04.15-1.53.21.07.56.55.77,1,.75.2,0,.53-.11.71-.23.26-.14.46-.28.51,0,.08.37-.71.64-.99.68ZM64.4,340.1c-.38.04-.84.45-.82.83.52-.02,1.17-.11,1.53-.2-.03-.4-.38-.67-.71-.62Z"/>
          <path class="cls-1" d="M69.01,340.42c-.2.11-.33.07-.44,0-.12-.08-.23-.22-.38-.23-.25-.02-.52.25-.58.45-.15.44-.02,1.4-.03,1.9-.21.1-.39-.04-.54-.1-.07-.47-.16-1.5-.06-2.22.05-.36.17-.6.39-.54.12.03.17.28.17.28.17-.15.53-.24.87-.21.37.03.7.2.66.59l-.07.1Z"/>
          <path class="cls-1" d="M35.62,351.69c-.18-.03-.61-.1-.88-.11v.31s.34.29.61.56c.38.39.6.76.6,1.29,0,.17-.03.32-.09.47-.07.02-.13.03-.19.03-.24,0-.43-.28-.56-.84-.16-.67-.37-1.13-.37-1.13-.07,1.84-.02,4.12.06,5.72-.38.13-.75.19-.89-.16-.08-2.07-.01-4.72-.01-4.72-.39,1.13-.92,2.69-2.03,3.53,0,0,.3-.88.39-1.12.47-1.36.99-2.44,1.3-3.86-.29.03-1.05.19-1.43.31,0,0-.23-.17-.23-.33,0-.23.1-.39.31-.44.52-.13,1.17-.18,1.64-.2.01-.51.02-1.47.2-2.08.45,0,.66.1.91.33-.07.31-.19,1.01-.2,1.71.31.02.88-.01,1.25.17.04.11.05.21.05.29,0,.18-.14.33-.44.28ZM40.74,357.49c-.21.21-.54.44-.86.37,0,0-.06-.28-.06-.52-.65-.06-1.6,0-2.35.08-.09.3-.44.44-.75.39,0,0-.09-.31-.19-.52-.13-1.38-.24-6.79.16-7.85.22-.13.54-.03.71.16l.2-.29c.45-.03,1.11-.09,1.57-.1.91-.01,1.44.22,1.62.65.03,1.27.07,5.22-.04,7.64ZM39.81,349.92c-.52-.03-1.18.04-1.82.04-.21,0-.38-.03-.51-.08-.12,1.89-.11,4.49-.09,6.88.9-.16,1.88-.18,2.45-.08-.01-1.79-.03-5.17-.03-6.77ZM39.05,352.56c-.21-.01-.48.01-.83.04-.19-.12-.25-.53-.08-.69.09-.05.22-.08.38-.08.34,0,.66.16.66.38,0,.09-.06.24-.13.34ZM38.38,354.67c-.33-.04-.29-.44-.21-.68.25-.07.54-.04.8-.04.2.17.23.56.02.73-.14.02-.41.01-.61-.01Z"/>
          <path class="cls-1" d="M45.18,354.1c-.23,1.47-.75,2.88-1.71,3.77,0,0,.12-.74.21-.95.55-2.16.67-4.83.64-7.27,0-.16.12-.32.3-.32.27,0,.73.23.81.45-.02,1.19-.02,2.85-.25,4.32ZM48.29,354.94c-.03.37-.43.43-.62.42-.22-.09-.35-.25-.35-.5.02-1.43.08-3.42.06-4.86.19-.19.86-.12,1.01.17.03,1.32-.02,3.7-.09,4.77ZM51.57,350.62c0,.7.07,5.12-.04,6.08-.07.55-.66,1.3-1.27,1.3-.18-.54-1.11-1.22-1.11-1.22l1.35-.05c.1-1.96.03-3.88.03-5.86,0-.72-.01-1.27.18-1.47.55-.07.99.25.96.8-.06.09-.1.23-.1.43Z"/>
          <path class="cls-1" d="M65.69,352.51l.21-1.24c-.57-.22-1.95-.17-2.58-.14-.04.54-.04,2.32-.29,2.67-.32.02-.55-.04-.69-.19-.13-.14-.13-.52-.13-.52-.45.31-.84.76-1.51.76-.34,0-.53-.24-.58-.72.72-.09,1.35-.1,2.06-.33,0-.49-.06-1.1-.06-1.58-.63,0-1.32.19-1.98.19-.17,0-.32-.01-.44-.03-.27.38-.44,1.32-.72,1.72-.37-.09-.58-.16-.63-.19-.19-.1-.28-.29-.25-.54.02-.27.55-1.56.79-1.64.18-.07.54.06.69.14.88-.16,1.81-.24,2.55-.32.01-.23.04-.75.23-.9.33-.01.62.1.89.3.08.19.1.29.09.54.93.02,2.69-.06,3.66.35.24.1.41.23.37.33-.17.41-.88.98-1.66,1.34ZM65.1,349.64c-1.16-.24-4.26-.13-5.24.22-.27.1-.44.13-.52.12-.23-.03-.5-.33-.46-.54.03-.17.3-.28.79-.34,1.98-.27,4.21-.27,6.27-.11.11.08.38.19.28.41-.12.28-.61.34-1.11.24ZM65.39,358.15c-.08.14-.24.21-.45.21-.29,0-.44-.1-.5-.3-1.26-.05-2.56.16-3.4.27-.49.07-.63-.28-.53-.68,1.23-.27,2.42-.37,3.67-.29l.31.11c.11-.89.28-1.52.28-2.42-1.03-.28-2.71-.17-3.68.2-.28.1-.45.13-.55.12-.35-.04-.61-.38-.58-.7,1.75-.54,4.83-.81,5.99.22-.12.94-.24,2.27-.55,3.25ZM61.07,352.52c-.23-.11-.65-.27-.84-.49.14-.19.39-.29.72-.29s.57.11.69.31c.08.37-.37.43-.57.46ZM61.91,356.68c-.27-.16-.38-.33-.34-.62.31-.37,1.43-.5,1.82-.2.2.16.18.37.09.56-.5.02-1.13,0-1.56.25ZM64.62,352.26c-.39.14-.83.22-1.22.08,0,0,.57-.53.74-.75.28-.06.63.07.9.21.01.23-.22.4-.42.46ZM64.93,353.6c-.5.04-1-.27-1.38-.58.07-.19.27-.28.6-.28.42,0,.91.19,1.04.43-.01.14-.25.42-.25.42Z"/>
          <path class="cls-1" d="M77.08,350.44c-.45,0-.84-.08-1.38-.11-.02.32-.11.52-.28.62-.2.11-.45.05-.64-.07v-.61c-.64-.01-1.31.01-1.97.1,0,.24.04.49.04.49-.09.32-.5.44-.91.34,0,0-.08-.35-.1-.7-.72.11-1.16.27-1.5.28-.29.01-.62-.17-.6-.5.34-.14,1.19-.28,2.07-.4-.03-.52.01-1.02.01-1.02.08-.14.14-.21.33-.21.3,0,.51.09.64.28,0,0-.03.44-.01.83.63-.07,1.5-.09,2.03-.09.01-.39-.03-.9-.03-.9.37-.02.7-.04.9.25,0,0,.07.33.03.65.49.02,1.05.03,1.44.16.28.09.45.23.45.48-.14.08-.32.12-.53.12ZM77.1,357.13c-.12.17-.32.21-.6.2-.44-.02-1.74-1.29-2.09-1.87,0,0-.01,1.66.02,2.46-.17.25-.58.38-.86.25-.17-.54-.17-1.64-.14-2.49-.73.93-2.14,1.74-3.61,1.82,0,0,2.01-1.13,3.04-2.44-.74.07-1.52.24-1.52.24-.37.01-.57-.16-.62-.41.14-.16.31-.23.48-.25.76-.11,1.5-.17,2.27-.19.01-.35-.02-.65-.02-.65.33-.31.73-.19.95.01,0,0,.04.32.04.62.86.03,1.68.03,2.51.2,0,0,.21.44-.13.53-.37.09-1.64-.11-2.37-.11.68.55,1.95,1.37,3.12,1.73,0,0-.32.16-.46.35ZM70.09,352.35s3.05-.99,4.04-1.63c.33.01.59.18.78.55-.7.65-3.92,1.27-4.82,1.07ZM72.13,353.81c-.29.01-.58-.37-.86-1.08,0,0,.62-.27,1.03.14.21.21.29.44.24.7,0,0-.12.23-.41.24ZM73.55,353.34c-.21-.2-.31-.47-.31-.81,0-.18.1-.49.1-.49.49.09.88.6.84,1.04-.18.3-.63.25-.63.25ZM76.47,352.78c-.65.34-1.82,1.05-1.82,1.05.12-.55.84-1.5,1.22-1.86.39.06.74.29.9.71-.07.13-.3.1-.3.1Z"/>
          <path class="cls-1" d="M17.94,371.72c-.51.01-1.31.02-1.5-.16-.08-.08-.11-.58-.13-.77-.06-.78,0-2,.16-2.65.33-.05,1.17-.05,1.61-.03.37.01.43.17.42.4-.14.07-.32.03-.5.02-.37-.02-.81-.04-1.13.04-.02.32-.07.8-.06,1.05.25,0,.74-.02,1.01-.01.3,0,.44.04.43.26-.11.13-.36.16-.62.15-.3,0-.62.01-.82.02,0,.38.03,1.02.12,1.25.24.02.88-.01,1.21-.02.33-.01.43,0,.47.34-.12.1-.45.1-.66.1Z"/>
          <path class="cls-1" d="M23.45,371.71c-.03-.64.16-1.92-.34-2.29-.4-.06-.91.12-.99.53-.1.5,0,1.35,0,1.8-.13.07-.37.1-.53.03-.04-.4-.06-1.22-.06-1.71-.04-.3-.16-.53-.36-.58-.35-.08-.57.06-.7.31-.21.41-.16,1.38-.14,1.95-.12.07-.44.04-.52-.03-.06-.77-.04-2.18.17-2.75.2,0,.34.28.34.28.19-.16.5-.24.8-.24.34,0,.64.16.77.41.24-.24.57-.47,1.09-.47.45,0,.72.21.88.64.22.58.2,1.41.14,2.09-.13.11-.39.14-.55.03Z"/>
          <path class="cls-1" d="M27.5,371.81c-.22-.02-.48-.14-.51-.24-.23.14-.51.21-.79.21-.51,0-.98-.23-1.05-.69-.07-.42.17-.88.55-1.02.35-.13.88-.12,1.15-.14.04-.57-.26-.62-.62-.59-.28.03-.58.1-.8.04.01-.48.64-.53.99-.51.44.03.84.26.94.68.06.26.03.52,0,.76-.05.34-.05.67.03.87.03.08.15.13.25.18.12.06.2.11.2.23,0,.17-.15.22-.33.21ZM26.82,370.36c-.3-.04-.64-.01-.87.11-.27.14-.4.47-.15.82.41.12.79.01,1.02-.15-.02-.16-.03-.51,0-.78Z"/>
          <path class="cls-1" d="M29.57,368.75c-.44.08-.6-.2-.58-.44.02-.25.32-.44.72-.27.17.27.06.55-.14.71ZM29.11,371.61c-.03-.28-.1-1.37-.07-1.93.02-.38.17-.6.57-.4.12.64.08,1.91.05,2.51-.22.17-.42-.04-.55-.17Z"/>
          <path class="cls-1" d="M31.3,371.63c-.06-1.03-.05-2.62,0-3.6.06-.12.23-.06.33-.04.22.29.22.74.22,1.14,0,.88.02,2,.02,2.61-.16.2-.47.06-.57-.11Z"/>
          <path class="cls-1" d="M35.09,370.79c-.02-.25.19-.42.39-.42.24,0,.47.19.37.55-.2.29-.73.22-.75-.13ZM35.79,369.4c-.29.1-.55.08-.67-.24-.02-.12-.03-.22.03-.29.1-.16.52-.21.71.03.06.17,0,.39-.07.5Z"/>
          <path class="cls-1" d="M39.64,372.02c-1.08.02-2.04-.9-2.04-2s.87-2.09,2.06-2.09c1.29,0,2.07.93,2.07,2.03,0,1.28-.88,2.04-2.08,2.05ZM39.7,368.22c-1.01,0-1.77.84-1.77,1.8s.85,1.69,1.72,1.69c1.04,0,1.73-.71,1.73-1.74s-.7-1.75-1.69-1.75Z"/>
          <path class="cls-1" d="M45.27,372.02c-1.08.02-2.04-.9-2.04-2s.87-2.09,2.06-2.09c1.29,0,2.07.93,2.07,2.03,0,1.28-.88,2.04-2.08,2.05ZM45.33,368.22c-1.01,0-1.77.84-1.77,1.8s.85,1.69,1.72,1.69c1.04,0,1.73-.71,1.73-1.74s-.7-1.75-1.69-1.75Z"/>
          <path class="cls-1" d="M51.55,371.05c-.19,0-.44-.05-.53-.25-.16.09-.34.16-.52.15-.51-.02-.78-.44-.75-.92.05-.71.52-1.35,1.31-1.21.26.04.55.18.73.32.04.35-.3,1.19-.46,1.44.05.14.33.17.54.07.27-.12.52-.48.52-1.02.01-1-.76-1.4-1.6-1.4-1.03,0-1.67.69-1.67,1.63,0,1.02.65,1.64,1.67,1.67.55.01.92-.11,1.27-.29.15.06.17.22.05.31-.28.21-.93.29-1.32.29-1.24-.02-2.06-.76-2.06-2,0-1.1.88-1.92,2.09-1.92.96,0,1.94.58,1.94,1.73,0,.88-.61,1.41-1.22,1.4ZM50.41,369.57c-.17.28-.22.74-.03.97.2.07.35-.06.47-.16.22-.2.35-.76.42-1.06-.24-.18-.6-.16-.85.25Z"/>
          <path class="cls-1" d="M55.64,371.79c-.46.06-.87-.02-1.17-.22-.41-.26-.63-.72-.63-1.18,0-.51.24-1.03.61-1.29.38-.26,1.12-.32,1.53-.03.29.2.56.78.47,1.02-.09.25-.33.26-.53.3-.34.07-1.04.15-1.53.21.07.56.55.77,1,.75.2,0,.53-.11.71-.23.26-.14.46-.28.51,0,.08.37-.71.64-.99.68ZM55.2,369.32c-.38.04-.84.45-.82.83.52-.02,1.17-.11,1.53-.2-.03-.4-.38-.67-.71-.62Z"/>
          <path class="cls-1" d="M60.04,369.47c-.25.17-.68.52-.78.63.36.51.68,1.16.58,1.66-.28.02-.38,0-.49-.16-.1-.23-.25-.88-.46-1.11-.33.38-.66.97-.87,1.28-.12.06-.26,0-.43-.29.2-.43.56-.99.91-1.4-.15-.26-.43-.48-.66-.74-.09-.1-.16-.22-.19-.39.22-.15.42-.1.6.04.24.18.51.52.65.66.19-.16.51-.47.79-.63.18-.1.37-.12.59.03-.03.19-.14.3-.25.41Z"/>
          <path class="cls-1" d="M63.61,371.81c-.22-.02-.48-.14-.51-.24-.23.14-.51.21-.79.21-.51,0-.98-.23-1.05-.69-.07-.42.17-.88.55-1.02.35-.13.88-.12,1.15-.14.04-.57-.26-.62-.62-.59-.28.03-.58.1-.8.04.01-.48.64-.53.99-.51.44.03.84.26.94.68.06.26.03.52,0,.76-.05.34-.05.67.03.87.03.08.15.13.25.18.12.06.2.11.2.23,0,.17-.15.22-.33.21ZM62.93,370.36c-.3-.04-.64-.01-.87.11-.27.14-.4.47-.15.82.41.12.79.01,1.02-.15-.02-.16-.03-.51,0-.78Z"/>
          <path class="cls-1" d="M68.66,371.71c-.03-.64.16-1.92-.34-2.29-.4-.06-.91.12-.99.53-.1.5,0,1.35,0,1.8-.13.07-.37.1-.53.03-.04-.4-.06-1.22-.06-1.71-.04-.3-.16-.53-.36-.58-.35-.08-.57.06-.7.31-.21.41-.16,1.38-.14,1.95-.12.07-.44.04-.52-.03-.06-.77-.04-2.18.17-2.75.2,0,.34.28.34.28.19-.16.5-.24.8-.24.34,0,.64.16.77.41.24-.24.57-.47,1.09-.47.45,0,.72.21.88.64.22.58.2,1.41.14,2.09-.13.11-.39.14-.55.03Z"/>
          <path class="cls-1" d="M71.83,371.72c-.24,0-.56-.04-.8-.17,0,.27.06.99-.07,1.27-.16-.04-.34-.06-.44-.17-.07-.96-.1-2.82.03-3.78.14-.06.25-.08.37-.03.07.11.13.27.11.48.33-.23,1.06-.47,1.53-.13.37.26.61.73.61,1.15,0,.71-.52,1.37-1.35,1.4ZM71.87,369.49c-.58,0-.97.56-.86,1.41.16.23.6.45,1.03.34.23-.06.51-.43.55-.72.08-.64-.29-1.04-.72-1.04Z"/>
          <path class="cls-1" d="M74.5,371.63c-.06-1.03-.05-2.62,0-3.6.06-.12.23-.06.33-.04.22.29.22.74.22,1.14,0,.88.02,2,.02,2.61-.16.2-.47.06-.57-.11Z"/>
          <path class="cls-1" d="M78.15,371.79c-.46.06-.87-.02-1.17-.22-.41-.26-.63-.72-.63-1.18,0-.51.24-1.03.61-1.29.38-.26,1.12-.32,1.53-.03.29.2.56.78.47,1.02-.09.25-.33.26-.53.3-.34.07-1.04.15-1.53.21.07.56.55.77,1,.75.2,0,.53-.11.71-.23.26-.14.46-.28.51,0,.08.37-.71.64-.99.68ZM77.71,369.32c-.38.04-.84.45-.82.83.52-.02,1.17-.11,1.53-.2-.03-.4-.38-.67-.71-.62Z"/>
          <path class="cls-1" d="M80.95,371.8c-.29.1-.52.08-.64-.24-.02-.12-.03-.22.03-.29.1-.15.49-.21.68.03.06.17,0,.38-.07.5Z"/>
          <path class="cls-1" d="M84.17,371.78c-1.08.21-1.75-.51-1.76-1.38,0-.38.12-.78.35-1.13.34-.39.95-.54,1.5-.37.31.09.66.39.65.51-.02.26-.25.23-.48.13-.11-.12-.37-.25-.51-.26-.62-.07-1.02.58-1,1.19.02.64.54.98,1.09.87.27-.05.46-.26.57-.42.13-.14.25-.29.5-.22.12.53-.47,1-.92,1.09Z"/>
          <path class="cls-1" d="M87.69,371.86c-.25.02-.59-.03-.83-.15-.37-.17-.9-.8-.74-1.66.09-.48.59-1.06,1.28-1.16,1-.14,1.71.5,1.76,1.36.05.96-.56,1.55-1.46,1.61ZM88.14,369.37c-.17-.08-.44-.12-.71-.07-.57.12-.81.63-.79,1.1.02.54.39,1.09,1,1.07.14,0,.29-.04.46-.11.35-.15.5-.6.5-1.01,0-.4-.17-.83-.46-.97Z"/>
          <path class="cls-1" d="M91,371.8c-.29.1-.52.08-.64-.24-.02-.12-.03-.22.03-.29.1-.15.49-.21.68.03.06.17,0,.38-.07.5Z"/>
          <path class="cls-1" d="M94.09,372.03c-.11.26-.3.45-.6.54-.21.06-.56.12-.83.07-.23-.05-.4-.18-.37-.46,0,0,.21-.03.34-.03.34.01.75.08.93-.25.1-.39.1-1.11.08-1.5-.02-.52-.03-1.04.02-1.37.29-.15.42.01.49.29.07.28.06.68.07.95.03.72.04,1.33-.14,1.76ZM93.91,368.71c-.2,0-.41-.13-.43-.35-.01-.14.08-.29.34-.36.24-.06.44.04.46.28.01.29-.17.43-.37.43Z"/>
          <path class="cls-1" d="M96.89,371.72c-.24,0-.56-.04-.8-.17,0,.27.06.99-.07,1.27-.16-.04-.34-.06-.44-.17-.07-.96-.1-2.82.03-3.78.14-.06.25-.08.37-.03.07.11.13.27.11.48.33-.23,1.06-.47,1.53-.13.37.26.61.73.61,1.15,0,.71-.52,1.37-1.35,1.4ZM96.93,369.49c-.58,0-.97.56-.86,1.41.16.23.6.45,1.03.34.23-.06.51-.43.55-.72.08-.64-.29-1.04-.72-1.04Z"/>
          <path class="cls-1" d="M20.21,380.13c-.35.28-.86.41-1.42.39-.01.27.04.9,0,1.17-.2.1-.42-.04-.51-.17.01-.93-.15-2.76.19-3.55.48.06,1.02-.22,1.47-.07.37.14.73.58.77,1.08.04.5-.15.88-.49,1.15ZM19.83,378.35c-.29-.13-.69-.07-1.05.11,0,.47-.05,1.16,0,1.62.63.07,1.2-.21,1.4-.7.06-.55-.08-.9-.35-1.03Z"/>
          <path class="cls-1" d="M23.33,381.71c-.25.02-.59-.03-.83-.15-.37-.17-.9-.8-.74-1.66.09-.48.58-1.06,1.28-1.16,1-.14,1.71.5,1.76,1.36.05.96-.56,1.55-1.46,1.61ZM23.78,379.22c-.17-.08-.44-.12-.71-.07-.57.12-.81.63-.79,1.1.02.54.39,1.09,1,1.07.14,0,.29-.04.46-.11.35-.15.5-.6.5-1.01,0-.4-.17-.83-.46-.97Z"/>
          <path class="cls-1" d="M28,379.48c-.2.11-.33.07-.44,0-.12-.08-.23-.22-.38-.23-.25-.02-.52.25-.58.45-.15.44-.02,1.4-.03,1.9-.21.1-.39-.04-.54-.1-.07-.47-.16-1.5-.06-2.22.05-.36.17-.6.39-.54.12.03.17.28.17.28.17-.15.53-.24.87-.21.37.03.7.2.66.59l-.07.1Z"/>
          <path class="cls-1" d="M31.38,381.3c-.12.2-.39.35-.65.34-.35,0-.77-.17-.84-.46-.12-.46-.11-1.32-.1-1.84-.12,0-.28,0-.43-.03-.2-.04-.35-.06-.32-.25.03-.19.4-.15.75-.17,0-.19,0-.46.05-.66.06-.24.19-.37.47-.16.02.23,0,.82,0,.82.17.02.51.03.68.07l.1.29c-.1.16-.48.1-.77.1-.03.38-.03,1.26.07,1.76.25.15.44.1.59-.03.12-.11.2-.28.4-.21.16.12.08.32,0,.42Z"/>
          <path class="cls-1" d="M33.94,378.26c-.22.08-.2.39-.2.83l.58.02c.18.01.33.06.34.23,0,.13-.11.15-.29.17-.16,0-.62-.01-.62-.01,0,.55,0,1.67-.03,2.22-.2,0-.41.02-.47-.17-.02-.56.01-1.5,0-2.03-.3,0-.75.07-.87-.09.08-.33.42-.32.85-.31,0-.35-.02-.73.19-.98.2-.23.49-.36.83-.3.11.02.3.1.41.22.11.12.12.27-.03.39,0,0-.41-.28-.69-.18Z"/>
          <path class="cls-1" d="M37.3,381.71c-.25.02-.59-.03-.83-.15-.37-.17-.9-.8-.74-1.66.09-.48.59-1.06,1.28-1.16,1-.14,1.71.5,1.76,1.36.05.96-.56,1.55-1.46,1.61ZM37.75,379.22c-.17-.08-.44-.12-.71-.07-.57.12-.81.63-.79,1.1.02.54.39,1.09,1,1.07.14,0,.29-.04.46-.11.35-.15.5-.6.5-1.01,0-.4-.17-.83-.46-.97Z"/>
          <path class="cls-1" d="M40.11,381.47c-.06-1.03-.05-2.62,0-3.6.06-.12.23-.06.33-.04.22.29.22.74.22,1.14,0,.88.02,2,.02,2.61-.16.2-.47.06-.57-.11Z"/>
          <path class="cls-1" d="M42.76,378.6c-.44.08-.6-.2-.58-.44.02-.25.32-.44.72-.27.17.27.06.55-.14.71ZM42.3,381.46c-.03-.28-.1-1.37-.07-1.93.02-.38.17-.6.57-.4.12.64.08,1.91.05,2.51-.22.17-.42-.04-.55-.17Z"/>
          <path class="cls-1" d="M45.78,381.71c-.25.02-.59-.03-.83-.15-.37-.17-.9-.8-.74-1.66.09-.48.58-1.06,1.28-1.16,1-.14,1.71.5,1.76,1.36.05.96-.56,1.55-1.46,1.61ZM46.23,379.22c-.17-.08-.44-.12-.71-.07-.57.12-.81.63-.79,1.1.02.54.39,1.09,1,1.07.14,0,.29-.04.46-.11.35-.15.5-.6.5-1.01,0-.4-.17-.83-.46-.97Z"/>
          <path class="cls-1" d="M50.21,380.64c-.02-.25.19-.42.39-.42.24,0,.47.19.37.55-.2.29-.73.22-.75-.13ZM50.91,379.25c-.29.1-.55.08-.67-.24-.02-.12-.03-.22.03-.29.1-.16.52-.21.71.03.06.17,0,.39-.07.5Z"/>
          <path class="cls-1" d="M56.59,381.55c-.2.01-.33-.04-.46-.11-.12-.46-.31-.9-.51-1.28-.27.44-.48,1.02-.71,1.49-.19.07-.34,0-.49-.07-.1-.4-.5-1.43-.56-2.04-.07-.69.09-.97.46-.75.07.74.21,1.53.43,2.12.17-.42.46-.92.61-1.37.07-.2.01-.45.25-.54.36.03.25.38.32.65.1.39.33.89.5,1.16.35-.59.6-1.45.83-2.16.29-.04.38.13.46.28-.33.92-.63,1.86-1.12,2.61Z"/>
          <path class="cls-1" d="M61.3,381.55c-.2.01-.33-.04-.46-.11-.12-.46-.31-.9-.51-1.28-.27.44-.48,1.02-.71,1.49-.19.07-.34,0-.49-.07-.1-.4-.5-1.43-.56-2.04-.07-.69.09-.97.46-.75.07.74.21,1.53.43,2.12.17-.42.46-.92.61-1.37.07-.2.01-.45.25-.54.36.03.25.38.32.65.1.39.33.89.5,1.16.35-.59.6-1.45.83-2.16.29-.04.38.13.46.28-.33.92-.63,1.86-1.12,2.61Z"/>
          <path class="cls-1" d="M66.02,381.55c-.2.01-.33-.04-.46-.11-.12-.46-.31-.9-.51-1.28-.27.44-.48,1.02-.71,1.49-.19.07-.34,0-.49-.07-.1-.4-.5-1.43-.56-2.04-.07-.69.09-.97.46-.75.07.74.21,1.53.43,2.12.17-.42.46-.92.61-1.37.07-.2.01-.45.25-.54.36.03.25.38.32.65.1.39.33.89.5,1.16.35-.59.6-1.45.83-2.16.29-.04.38.13.46.28-.33.92-.63,1.86-1.12,2.61Z"/>
          <path class="cls-1" d="M68.86,381.65c-.29.1-.52.08-.64-.24-.02-.12-.03-.22.03-.29.1-.15.49-.21.68.03.06.17,0,.38-.07.5Z"/>
          <path class="cls-1" d="M72.58,381.87c-1.08.02-2.04-.89-2.04-2s.87-2.09,2.06-2.09c1.29,0,2.07.93,2.07,2.03,0,1.28-.88,2.04-2.08,2.05ZM72.64,378.07c-1.01,0-1.77.84-1.77,1.8s.85,1.69,1.72,1.69c1.04,0,1.73-.71,1.73-1.74s-.7-1.75-1.69-1.75Z"/>
          <path class="cls-1" d="M78.21,381.87c-1.08.02-2.04-.89-2.04-2s.87-2.09,2.06-2.09c1.29,0,2.07.93,2.07,2.03,0,1.28-.88,2.04-2.08,2.05ZM78.27,378.07c-1.01,0-1.77.84-1.77,1.8s.85,1.69,1.72,1.69c1.04,0,1.73-.71,1.73-1.74s-.7-1.75-1.69-1.75Z"/>
          <path class="cls-1" d="M82.38,381.65c-.29.1-.52.08-.64-.24-.02-.12-.03-.22.03-.29.1-.15.49-.21.68.03.06.17,0,.38-.07.5Z"/>
          <path class="cls-1" d="M85.6,381.63c-1.08.21-1.75-.51-1.76-1.38,0-.38.12-.78.35-1.13.34-.39.95-.54,1.5-.37.31.09.66.39.65.51-.02.26-.25.23-.48.13-.11-.12-.37-.25-.51-.26-.62-.07-1.02.58-1,1.19.02.64.54.98,1.09.87.27-.05.46-.26.57-.42.13-.14.25-.29.5-.22.12.53-.47,1-.92,1.09Z"/>
          <path class="cls-1" d="M89.13,381.71c-.25.02-.59-.03-.83-.15-.37-.17-.9-.8-.74-1.66.09-.48.59-1.06,1.28-1.16,1-.14,1.71.5,1.76,1.36.05.96-.56,1.55-1.46,1.61ZM89.58,379.22c-.17-.08-.44-.12-.71-.07-.57.12-.81.63-.79,1.1.02.54.39,1.09,1,1.07.14,0,.29-.04.46-.11.35-.15.5-.6.5-1.01,0-.4-.17-.83-.46-.97Z"/>
          <path class="cls-1" d="M95.39,381.56c-.03-.64.16-1.92-.34-2.29-.4-.06-.91.12-.99.53-.1.5,0,1.35,0,1.8-.13.07-.37.1-.53.03-.04-.4-.06-1.22-.06-1.71-.04-.3-.16-.53-.36-.58-.35-.08-.57.06-.7.31-.21.41-.16,1.38-.14,1.95-.12.07-.44.04-.52-.03-.06-.77-.04-2.18.17-2.75.2,0,.34.28.34.28.19-.16.5-.24.8-.24.34,0,.64.16.77.41.24-.24.57-.47,1.09-.47.45,0,.72.21.88.64.22.58.2,1.41.14,2.09-.13.11-.39.14-.55.03Z"/>
          <path class="cls-1" d="M22.2,388.45c-.12-.08-.29-.21-.46-.23-.35-.03-.95.42-.83.88.08.31.51.18.9.21.7.05,1.3.55,1.06,1.28-.17.53-.77.86-1.4.88-.34.01-.69-.08-.98-.23-.24-.18-.45-.48-.28-.79.25-.08.34.12.51.26.19.16.46.26.77.26.07,0,.16,0,.25-.03.29-.08.69-.43.62-.81-.05-.29-.4-.32-.78-.32s-.83.03-1.02-.16c-.32-.43-.27-.89-.04-1.25.26-.42.77-.71,1.23-.71.32,0,.74.22.91.55.03.08,0,.17-.02.23-.19.13-.32.07-.45-.03Z"/>
          <path class="cls-1" d="M26.79,391.3c-.13.11-.32.2-.45.07-.6-.9-1.17-1.83-1.69-2.78-.08.75-.04,2.12-.01,2.78-.14.05-.37.04-.48-.13-.09-1.11-.02-2.57.03-3.49.07-.08.25-.04.51.05.42.75,1.16,1.99,1.67,2.79.06-.8.04-1.86.05-2.41,0-.24.07-.45.2-.48.2-.05.3.03.3.12,0,.82-.06,2.66-.13,3.47Z"/>
          <path class="cls-1" d="M30.17,388.45c-.12-.08-.29-.21-.46-.23-.35-.03-.95.42-.83.88.08.31.51.18.9.21.7.05,1.3.55,1.06,1.28-.17.53-.77.86-1.4.88-.34.01-.69-.08-.98-.23-.24-.18-.45-.48-.28-.79.25-.08.34.12.51.26.19.16.46.26.77.26.07,0,.16,0,.25-.03.29-.08.69-.43.62-.81-.05-.29-.4-.32-.78-.32s-.83.03-1.02-.16c-.32-.43-.27-.89-.04-1.25.26-.42.77-.71,1.23-.71.32,0,.74.22.91.55.03.08,0,.17-.02.23-.19.13-.32.07-.45-.03Z"/>
          <path class="cls-1" d="M33.86,390.49c-.02-.25.19-.42.39-.42.24,0,.47.19.37.55-.2.29-.73.22-.75-.13ZM34.56,389.09c-.29.1-.55.08-.67-.24-.02-.12-.03-.22.03-.29.1-.16.52-.21.71.03.06.17,0,.39-.07.5Z"/>
          <path class="cls-1" d="M40.47,390.74c-.19,0-.44-.05-.53-.25-.16.09-.34.16-.52.15-.51-.02-.78-.44-.75-.92.05-.71.52-1.35,1.31-1.21.26.04.55.18.73.32.04.35-.3,1.19-.46,1.44.05.14.33.17.54.07.27-.12.52-.48.52-1.02.01-1-.76-1.4-1.6-1.4-1.03,0-1.67.69-1.67,1.63,0,1.02.65,1.64,1.67,1.67.55.01.92-.11,1.27-.29.15.06.17.22.05.31-.28.21-.93.29-1.32.29-1.24-.02-2.06-.76-2.06-2,0-1.1.88-1.92,2.09-1.92.96,0,1.94.58,1.94,1.73,0,.88-.61,1.41-1.22,1.4ZM39.33,389.26c-.17.28-.22.74-.03.97.2.07.35-.06.47-.16.22-.2.35-.76.42-1.06-.24-.18-.6-.16-.85.25Z"/>
          <path class="cls-1" d="M45.03,391.71c-1.08.02-2.04-.9-2.04-2s.87-2.09,2.06-2.09c1.29,0,2.07.93,2.07,2.03,0,1.28-.88,2.04-2.08,2.05ZM45.09,387.91c-1.01,0-1.77.84-1.77,1.8s.85,1.69,1.72,1.69c1.04,0,1.73-.71,1.73-1.74s-.7-1.75-1.69-1.75Z"/>
          <path class="cls-1" d="M50.66,391.71c-1.08.02-2.04-.9-2.04-2s.87-2.09,2.06-2.09c1.29,0,2.07.93,2.07,2.03,0,1.28-.88,2.04-2.08,2.05ZM50.72,387.91c-1.01,0-1.77.84-1.77,1.8s.85,1.69,1.72,1.69c1.04,0,1.73-.71,1.73-1.74s-.7-1.75-1.69-1.75Z"/>
          <path class="cls-1" d="M56.1,389.61c-.01-.9.56-2.12,1.14-2.41.19.2.04.39-.09.56-.29.35-.64,1.17-.64,1.84,0,.91.35,1.58.66,1.91.16.18.26.34.1.56-.73-.47-1.15-1.44-1.17-2.46Z"/>
          <path class="cls-1" d="M58.82,391.4c-.05-.65-.05-1.67-.05-2.47,0-.41,0-.84.05-1.14.12-.13.38-.05.49.04.04,1.04.01,2.51.06,3.6-.17.09-.42.08-.55-.03Z"/>
          <path class="cls-1" d="M63.51,391.49c-.26.04-.36-.07-.47-.17.03-1.29.08-1.77-.17-2.14-.57-.16-1.01-.03-1.27.35-.2.29-.25.71-.2,1.25.02.24.07.55.03.72-.18.08-.35,0-.5-.11-.13-.77-.16-1.71-.13-2.58.1-.23.38-.19.52-.07l.02.37c.25-.26.76-.47,1.21-.47.42,0,.82.14.96.52.11.29.12,1.18.11,1.67,0,.26-.02.52-.11.68Z"/>
          <path class="cls-1" d="M65.89,391.51c-.56,0-1.09-.25-1.08-.82.11-.23.29-.21.43-.09.12.1.22.28.22.43.23.12.61.14.87,0,.18-.1.3-.27.24-.54-.03-.14-.17-.28-.33-.3-.33-.05-1.02.02-1.31-.34-.22-.28-.02-.91.29-1.11.31-.2.93-.21,1.3-.01.23.13.37.33.27.58-.1.03-.22-.06-.34-.15-.16-.09-.37-.15-.55-.16-.34-.01-.58.21-.58.58.32.24.96.06,1.34.27.36.2.48.6.39,1.02-.14.42-.66.64-1.17.64Z"/>
          <path class="cls-1" d="M70.46,391.14c-.12.2-.39.35-.65.34-.35,0-.77-.17-.84-.46-.12-.46-.11-1.32-.1-1.84-.12,0-.28,0-.43-.03-.2-.04-.35-.06-.32-.25.03-.19.4-.15.75-.17,0-.19,0-.46.05-.66.06-.24.19-.37.47-.16.02.23,0,.82,0,.82.17.02.51.03.68.07l.1.29c-.1.16-.48.1-.77.1-.03.38-.03,1.26.07,1.76.25.15.44.1.59-.03.12-.11.2-.28.4-.21.16.12.08.32,0,.42Z"/>
          <path class="cls-1" d="M73.86,391.5c-.22-.02-.48-.14-.51-.24-.23.14-.51.21-.79.21-.51,0-.98-.23-1.05-.69-.07-.42.17-.88.55-1.02.35-.13.88-.12,1.15-.14.04-.57-.26-.62-.62-.59-.28.03-.58.1-.8.04.01-.48.64-.53.99-.51.44.03.84.26.94.68.06.26.03.52,0,.76-.05.34-.05.67.03.87.03.08.15.13.25.18.12.06.2.11.2.23,0,.17-.15.22-.33.21ZM73.18,390.06c-.3-.04-.64-.01-.87.11-.27.14-.4.47-.15.82.41.12.79.01,1.02-.15-.02-.16-.03-.51,0-.78Z"/>
          <path class="cls-1" d="M76.57,390.49c-.1.11-.2.23-.21.42.32-.12.75-.15,1.03.02.25.16.41.4.36.8-.03.34-.26.51-.43.66-.23.12-.52.15-.75.09-.36-.09-.6-.36-.29-.73.32-.03.45.12.52.32.5.03.57-.58.26-.82-.4-.12-.82.06-.97.23-.15,0-.28-.05-.35-.17.03-.35.12-.54.24-.8-.55-.06-.8-.5-.78-.93.02-.42.34-.84.87-.88.07-.09.03-.24.09-.34.06-.11.19-.15.38-.12.1.09.18.19.14.42.79-.04,1.2.44,1.18.93-.02.46-.46.92-1.27.91ZM77.27,389.33c-.16-.26-.5-.34-.84-.3-.44.04-.75.28-.74.57,0,.1.05.21.17.32.18.17.51.23.84.16.32-.07.51-.24.61-.41,0-.19,0-.2-.03-.34Z"/>
          <path class="cls-1" d="M81.05,389.33c-.2.11-.33.07-.44,0-.12-.08-.23-.22-.38-.23-.25-.02-.52.25-.58.45-.15.44-.02,1.4-.03,1.9-.21.1-.39-.04-.54-.1-.07-.47-.16-1.5-.06-2.22.05-.36.17-.6.39-.54.12.03.17.28.17.28.17-.15.53-.24.87-.21.37.03.7.2.66.59l-.07.1Z"/>
          <path class="cls-1" d="M84.45,391.5c-.22-.02-.48-.14-.51-.24-.23.14-.51.21-.79.21-.51,0-.98-.23-1.05-.69-.07-.42.17-.88.55-1.02.35-.13.88-.12,1.15-.14.04-.57-.26-.62-.62-.59-.28.03-.58.1-.8.04.01-.48.64-.53.99-.51.44.03.84.26.94.68.06.26.03.52,0,.76-.05.34-.05.67.03.87.03.08.15.13.25.18.12.06.2.11.2.23,0,.17-.15.22-.33.21ZM83.77,390.06c-.3-.04-.64-.01-.87.11-.27.14-.4.47-.15.82.41.12.79.01,1.02-.15-.02-.16-.03-.51,0-.78Z"/>
          <path class="cls-1" d="M89.49,391.4c-.03-.64.16-1.92-.34-2.29-.4-.06-.91.12-.99.53-.1.5,0,1.35,0,1.8-.13.07-.37.1-.53.03-.04-.4-.06-1.22-.06-1.71-.04-.3-.16-.53-.36-.58-.35-.08-.57.06-.7.31-.21.41-.16,1.38-.14,1.95-.12.07-.44.04-.52-.03-.06-.77-.04-2.18.17-2.75.2,0,.34.28.34.28.19-.16.5-.24.8-.24.34,0,.64.16.77.41.24-.24.57-.47,1.09-.47.45,0,.72.21.88.64.22.58.2,1.41.14,2.09-.13.11-.39.14-.55.03Z"/>
          <path class="cls-1" d="M91.32,392.06c-.17-.22-.07-.38.1-.56.31-.34.66-1,.66-1.91,0-.67-.35-1.48-.64-1.84-.13-.16-.28-.35-.09-.56.57.29,1.15,1.51,1.14,2.41-.02,1.02-.43,1.98-1.17,2.46Z"/>
        </g>
        <path class="cls-6" d="M79.99,346.85s.13-4.21,2.78-6.45c2.65-2.24,6.83-1.64,6.83-1.64,0,0-.13,4.21-2.78,6.45-2.65,2.24-6.83,1.64-6.83,1.64Z"/>
      </g>
      <g>
        <g>
          <path class="cls-8" d="M134.69,291.19c-.44,1.41-.93,2.89-1.32,4.33h-.12c-.46-1.51-.92-2.98-1.43-4.33l-2.43-6.2h-4.25l6.24,14.06-.28.75c-.47,1.12-1.37,1.88-3.03,1.88-.35,0-.73-.07-1.11-.18l-.77,3.26c.62.17,1.36.29,2.2.29,3.65,0,5.36-1.87,6.77-5.48l5.69-14.59h-4.05l-2.11,6.2Z"/>
          <path class="cls-8" d="M152.68,294.47c-.98,1.27-1.73,1.64-2.8,1.64-1.59,0-2.1-.86-2.1-2.77v-8.36h-4.28v8.91c0,3.64,1.39,5.87,4.68,5.87,2.08,0,3.59-.95,4.87-2.42h.12l.31,2.07h3.5v-14.43h-4.28v9.49Z"/>
          <polygon class="cls-7" points="171.1 290.84 177.04 299.42 172.39 299.42 168.61 293.51 171.1 290.84"/>
          <polygon class="cls-7" points="166.48 295.79 166.48 299.42 162.2 299.42 162.2 279.04 166.48 279.04 166.48 290.79 166.48 295.79"/>
          <polygon class="cls-6" points="179.74 288.34 185.55 288.34 185.55 299.42 189.83 299.42 189.83 284.99 179.74 284.99 179.74 288.34"/>
          <path class="cls-6" d="M166.48,290.82s1.8-4.31,5.74-6.43c3.94-2.12,8.52-1.26,8.52-1.26,0,0-1.8,4.31-5.74,6.43s-8.52,1.26-8.52,1.26Z"/>
          <path class="cls-8" d="M186.37,275.38c-2.3,0-3.97,1.52-3.97,3.71s1.66,3.65,3.97,3.65,3.97-1.45,3.97-3.65-1.66-3.71-3.97-3.71Z"/>
          <path class="cls-8" d="M203.97,284.64c-2.15,0-3.73,1.05-4.99,2.27h-.12l-.31-1.92h-3.49v14.43h4.28v-9.63c1-.97,1.78-1.5,2.92-1.5,1.56,0,2.12.85,2.12,2.77v8.36h4.28v-8.91c0-3.64-1.44-5.87-4.7-5.87Z"/>
          <path class="cls-8" d="M219.46,284.64c-2.45,0-4.75.81-6.75,1.95l1.53,2.8c1.62-.81,3.01-1.35,4.4-1.35,1.94,0,2.91.79,3.06,2.08-6.82.41-9.49,2.06-9.49,5.29,0,2.43,1.82,4.35,4.74,4.35,1.85,0,3.66-.88,5.12-1.98h.11l.31,1.63h3.5v-8.25c0-4.42-2.46-6.53-6.52-6.53ZM221.7,295.07c-1.02.79-2.11,1.38-3.39,1.38-1.21,0-1.99-.45-1.99-1.38,0-1.23,1.14-2.15,5.39-2.37v2.36Z"/>
        </g>
        <g>
          <path class="cls-3" d="M182.1,302.05h.85c.61,0,1.03.21,1.03.73,0,.3-.17.56-.53.66v.02c.44.07.7.31.7.72,0,.59-.46.88-1.13.88h-.92v-3.01ZM182.89,303.31c.51,0,.72-.16.72-.5s-.24-.44-.7-.44h-.43v.94h.41ZM182.96,304.74c.51,0,.81-.17.81-.58,0-.37-.28-.52-.81-.52h-.49v1.1h.49Z"/>
          <path class="cls-3" d="M184.7,303.94c0-.72.54-1.16,1.14-1.16.64,0,1.02.42,1.02,1.05,0,.09,0,.17-.02.23h-1.88v-.29h1.66l-.1.11c0-.53-.26-.79-.67-.79s-.77.31-.77.87.38.87.87.87c.27,0,.48-.08.68-.21l.14.25c-.22.15-.5.27-.86.27-.67,0-1.2-.43-1.2-1.17Z"/>
          <path class="cls-3" d="M187.45,305.97l.08-.3c.06.02.13.03.2.03.31,0,.5-.2.61-.47l.06-.16-1.04-2.23h.38l.54,1.23c.09.2.18.43.27.65h.02c.08-.21.16-.44.24-.65l.48-1.23h.37l-.99,2.41c-.16.44-.44.77-.94.77-.11,0-.22-.02-.29-.05Z"/>
          <path class="cls-3" d="M190.17,303.95c0-.75.51-1.17,1.1-1.17s1.1.43,1.1,1.17-.51,1.16-1.1,1.16-1.1-.43-1.1-1.16ZM191.98,303.95c0-.51-.28-.86-.71-.86s-.71.34-.71.86.28.85.71.85.71-.34.71-.85Z"/>
          <path class="cls-3" d="M193.07,302.83h.31l.03.38h.02c.23-.24.49-.43.84-.43.53,0,.77.31.77.9v1.38h-.38v-1.33c0-.42-.15-.62-.51-.62-.27,0-.44.13-.7.4v1.55h-.38v-2.23Z"/>
          <path class="cls-3" d="M195.67,303.95c0-.72.48-1.17,1.01-1.17.27,0,.47.11.67.28h0l-.02-.41v-.86h.38v3.26h-.31l-.03-.29h-.01c-.18.19-.45.35-.73.35-.58,0-.96-.42-.96-1.16ZM197.33,304.46v-1.11c-.2-.19-.39-.26-.58-.26-.38,0-.7.34-.7.85s.25.85.66.85c.22,0,.43-.11.62-.33Z"/>
          <path class="cls-3" d="M201.83,304.19v-1.05h-.63v-.28l.65-.02.05-.71h.32v.71h1.09v.31h-1.09v1.06c0,.4.13.6.56.6.21,0,.37-.04.53-.1l.08.28c-.2.07-.42.13-.7.13-.65,0-.86-.37-.86-.92Z"/>
          <path class="cls-3" d="M204.07,301.79h.38v.89l-.02.53h.01c.22-.25.49-.44.83-.44.53,0,.77.31.77.9v1.38h-.38v-1.33c0-.42-.15-.62-.51-.62-.27,0-.44.13-.7.4v1.55h-.38v-3.26Z"/>
          <path class="cls-3" d="M206.7,303.94c0-.72.54-1.16,1.14-1.16.64,0,1.02.42,1.02,1.05,0,.09,0,.17-.02.23h-1.88v-.29h1.66l-.1.11c0-.53-.26-.79-.67-.79s-.77.31-.77.87.38.87.87.87c.27,0,.48-.08.68-.21l.14.25c-.22.15-.5.27-.86.27-.67,0-1.2-.43-1.2-1.17Z"/>
          <path class="cls-3" d="M212.5,302.05h1.85v.33h-1.46v1.01h1.24v.33h-1.24v1.34h-.38v-3.01Z"/>
          <path class="cls-3" d="M215.3,302.83h.32l.04.53h0c.23-.36.58-.58.99-.58.16,0,.3.02.44.09l-.09.33c-.16-.05-.24-.07-.41-.07-.33,0-.65.17-.92.64v1.3h-.38v-2.23Z"/>
          <path class="cls-3" d="M217.75,304.48c0-.5.47-.74,1.62-.83-.01-.3-.16-.56-.59-.56-.29,0-.57.14-.78.27l-.15-.26c.23-.15.61-.32.99-.32.61,0,.91.36.91.92v1.37h-.32l-.03-.3h-.01c-.24.19-.56.36-.88.36-.42,0-.76-.23-.76-.63ZM219.37,304.47v-.58c-.95.07-1.24.26-1.24.55,0,.25.23.35.49.35s.5-.12.76-.33Z"/>
          <path class="cls-3" d="M220.4,302.83h.3l.03.29h0c.11-.21.25-.35.51-.35.22,0,.36.13.42.38.13-.24.27-.38.52-.38.31,0,.49.24.49.69v1.59h-.38v-1.57c0-.26-.07-.39-.24-.39-.16,0-.24.11-.36.34v1.61h-.35v-1.57c0-.26-.06-.39-.23-.39-.16,0-.26.11-.37.34v1.61h-.38v-2.23Z"/>
          <path class="cls-3" d="M223.2,303.94c0-.72.54-1.16,1.14-1.16.64,0,1.02.42,1.02,1.05,0,.09,0,.17-.02.23h-1.88v-.29h1.66l-.1.11c0-.53-.26-.79-.67-.79s-.77.31-.77.87.38.87.87.87c.27,0,.48-.08.68-.21l.14.25c-.22.15-.5.27-.86.27-.67,0-1.2-.43-1.2-1.17Z"/>
        </g>
      </g>
    </g>
  </g>
</svg>