<?xml version="1.0" encoding="UTF-8"?>
<svg id="_レイヤー_2" data-name="レイヤー 2" xmlns="http://www.w3.org/2000/svg" viewBox="0 0 1064.07 248.51">
  <defs>
    <style>
      .cls-1 {
        fill: #39b54a;
      }
    </style>
  </defs>
  <g id="_レイヤー_1-2" data-name="レイヤー 1">
    <path class="cls-1" d="M636.54,192.36c10.05-35.24,4.59-86.62,3.6-94.96,5.34,1.01,17.17,3.25,27.15,5.22,13.89,2.74,25.3-6.43,24.95-12.53-.35-6.1-12.1-10.38-26.23-9.56-12.43.72-25.54,11.5-28.45,14.41-1.65-.83-19.12-8.21-32.08-4.44-13.6,3.95-23.24,11.9-21.53,17.77,1.7,5.87,15.52,10.7,27.7,3.48,8.95-5.3,19.64-11.53,24.17-14.17.87,7.43,5.95,59.18-4.21,94.79"/>
    <path class="cls-1" d="M478.23,182.69c16.41-57.52,7.49-141.36,5.88-154.99,8.71,1.65,28.02,5.31,44.31,8.52,22.67,4.46,41.3-10.49,40.72-20.45-.58-9.96-19.74-16.94-42.81-15.61-20.28,1.18-41.68,18.77-46.43,23.52-2.7-1.35-31.21-13.39-52.35-7.25-22.19,6.44-37.92,19.43-35.14,29.01,2.78,9.58,25.33,17.46,45.21,5.68,14.61-8.66,32.05-18.83,39.44-23.13,1.42,12.12,9.7,96.58-6.88,154.7"/>
    <path class="cls-1" d="M289.96,204c9.63-33.77,4.4-82.99,3.45-90.98,5.11.97,16.45,3.12,26.01,5,13.31,2.62,24.24-6.16,23.91-12-.34-5.84-11.59-9.95-25.13-9.16-11.9.69-24.47,11.02-27.25,13.81-1.58-.79-18.32-7.86-30.73-4.26-13.03,3.78-22.26,11.41-20.63,17.03s14.87,10.25,26.54,3.33c8.58-5.08,18.81-11.05,23.15-13.58.84,7.12,5.7,56.7-4.04,90.82"/>
    <path class="cls-1" d="M79.98,244.39c15.24-53.4,6.95-131.25,5.46-143.89,8.09,1.53,26.02,4.93,41.13,7.91,21.05,4.15,38.34-9.74,37.81-18.98-.54-9.24-18.33-15.73-39.75-14.49-18.83,1.09-38.7,17.43-43.1,21.83-2.5-1.25-28.98-12.43-48.61-6.73C12.32,96.01-2.29,108.06.3,116.96c2.58,8.89,23.52,16.21,41.98,5.27,13.56-8.04,29.76-17.48,36.62-21.47,1.32,11.25,9.01,89.67-6.39,143.63"/>
    <path class="cls-1" d="M1004.64,248.51c10.72-37.59,4.9-92.39,3.85-101.29,5.69,1.08,18.31,3.47,28.96,5.57,14.82,2.92,26.99-6.86,26.61-13.36-.38-6.51-12.9-11.07-27.98-10.2-13.25.77-27.24,12.27-30.34,15.37-1.76-.88-20.4-8.75-34.22-4.74-14.5,4.21-24.78,12.7-22.97,18.96s16.56,11.41,29.55,3.71c9.55-5.66,20.95-12.3,25.77-15.11.93,7.92,6.34,63.12-4.5,101.1"/>
    <path class="cls-1" d="M834.75,240.24c18.66-65.4,8.52-160.73,6.69-176.22,9.9,1.87,31.86,6.04,50.37,9.68,25.78,5.08,46.96-11.93,46.3-23.25-.66-11.32-22.45-19.26-48.68-17.74-23.06,1.34-47.39,21.34-52.79,26.74-3.07-1.54-35.49-15.23-59.53-8.25-25.23,7.32-43.12,22.09-39.96,32.98,3.16,10.89,28.8,19.85,51.41,6.46,16.61-9.84,36.44-21.4,44.84-26.29,1.62,13.78,11.03,109.81-7.82,175.89"/>
  </g>
</svg>