<?xml version="1.0" encoding="UTF-8"?>
<svg id="_レイヤー_2" data-name="レイヤー 2" xmlns="http://www.w3.org/2000/svg" viewBox="0 0 543.88 200.99">
  <defs>
    <style>
      .cls-1 {
        fill: #3eac4a;
      }
    </style>
  </defs>
  <g id="_レイヤー_1-2" data-name="レイヤー 1">
    <g>
      <path class="cls-1" d="M308.97,200.85c5.14-18.01,26.56-120.32,18.22-151.07,2.73.52,8.78,1.66,13.88,2.67,7.1,1.4,12.93-3.29,12.75-6.4-.18-3.12-6.18-5.31-13.41-4.89-6.35.37-13.05,5.88-14.54,7.37-.84-.42-9.78-4.19-16.4-2.27-6.95,2.02-11.88,6.08-11.01,9.08.87,3,7.93,5.47,14.16,1.78,4.58-2.71,10.04-5.9,12.35-7.24,9.59,24.66-13.34,132.78-18.53,150.98"/>
      <path class="cls-1" d="M225.12,200.82c8.39-29.4,31.1-154.48,22.33-186.66,4.45.84,14.32,2.71,22.65,4.35,11.59,2.28,21.11-5.36,20.81-10.45-.3-5.09-10.09-8.66-21.88-7.98-10.36.6-21.3,9.59-23.73,12.02-1.38-.69-15.95-6.84-26.76-3.71-11.34,3.29-19.38,9.93-17.96,14.83s12.95,8.92,23.11,2.9c7.47-4.42,16.38-9.62,20.16-11.82,9.38,34.67-14.36,156.8-22.84,186.51"/>
      <path class="cls-1" d="M126.37,200.52c4.92-17.26,31.09-108.47,23.61-142.75,2.61.49,8.41,1.59,13.29,2.56,6.8,1.34,12.39-3.15,12.22-6.14-.17-2.99-5.92-5.08-12.85-4.68-6.08.35-12.51,5.63-13.93,7.06-.81-.41-9.37-4.02-15.71-2.18-6.66,1.93-11.38,5.83-10.54,8.7s7.6,5.24,13.57,1.7c4.38-2.6,9.62-5.65,11.83-6.94,7.26,34.02-18.93,125.23-23.9,142.67"/>
      <path class="cls-1" d="M28.4,200.38c7.79-27.3,28.26-85.65,15.27-149.01,4.13.78,13.3,2.52,21.03,4.04,10.76,2.12,19.6-4.98,19.32-9.7-.27-4.72-9.37-8.04-20.32-7.41-9.62.56-19.78,8.91-22.03,11.16-1.28-.64-14.81-6.35-24.84-3.44C6.3,49.07-1.17,55.23.15,59.78c1.32,4.55,12.02,8.28,21.46,2.69,6.93-4.11,15.21-8.93,18.72-10.97,12.37,55.31-7.88,121.3-15.74,148.88"/>
      <path class="cls-1" d="M495.26,200.91c5.48-19.21,27.95-102.74,20.21-125.67,2.91.55,9.36,1.77,14.8,2.85,7.57,1.49,13.8-3.5,13.6-6.83-.19-3.33-6.6-5.66-14.3-5.21-6.77.39-13.92,6.27-15.51,7.86-.9-.45-10.43-4.47-17.49-2.42-7.41,2.15-12.67,6.49-11.74,9.69s8.46,5.83,15.1,1.9c4.88-2.89,10.71-6.29,13.17-7.73,7.34,21.15-15,106.16-20.54,125.57"/>
      <path class="cls-1" d="M401.34,200.99c9.54-33.43,42.31-128.73,28.74-168.26,5.06.96,16.28,3.09,25.75,4.95,13.17,2.59,24-6.1,23.67-11.88-.34-5.79-11.47-9.85-24.88-9.07-11.78.68-24.22,10.91-26.98,13.67-1.57-.78-18.14-7.78-30.43-4.22-12.9,3.74-22.04,11.29-20.42,16.86,1.62,5.57,14.72,10.14,26.28,3.3,8.49-5.03,18.63-10.94,22.92-13.44,13.71,40.8-19.68,134.32-29.32,168.09"/>
    </g>
  </g>
</svg>