<?xml version="1.0" encoding="UTF-8"?>
<svg id="_レイヤー_2" data-name="レイヤー 2" xmlns="http://www.w3.org/2000/svg" viewBox="0 0 514.39 303.3">
  <defs>
    <style>
      .cls-1 {
        fill: #b28247;
      }

      .cls-1, .cls-2, .cls-3, .cls-4, .cls-5, .cls-6, .cls-7, .cls-8, .cls-9, .cls-10, .cls-11 {
        stroke: #231815;
        stroke-width: 2px;
      }

      .cls-1, .cls-4, .cls-6, .cls-8, .cls-9 {
        stroke-linejoin: round;
      }

      .cls-2 {
        fill: #00a0e9;
      }

      .cls-2, .cls-3, .cls-5, .cls-7, .cls-10, .cls-11 {
        stroke-miterlimit: 10;
      }

      .cls-2, .cls-10 {
        stroke-linecap: round;
      }

      .cls-3 {
        fill: #40220f;
      }

      .cls-4, .cls-11 {
        fill: #f5db90;
      }

      .cls-5, .cls-9 {
        fill: #fff;
      }

      .cls-12 {
        fill: #231815;
      }

      .cls-6 {
        fill: #009a3e;
      }

      .cls-7 {
        fill: #e60012;
      }

      .cls-8 {
        fill: #c9a063;
      }

      .cls-10 {
        fill: none;
      }
    </style>
  </defs>
  <g id="_レイヤー_1-2" data-name="レイヤー 1">
    <g>
      <path class="cls-3" d="M390.88,172.52s-10.05-11.02-19.09-106.07C365.38-.98,298.19,1.01,298.19,1.01c-72.98,0-77.69,66.93-77.69,66.93,0,0-4.44,83.63-25.21,104.59h195.58Z"/>
      <path class="cls-7" d="M368.48,228.83c0-48.88-33.13-88.51-73.99-88.51s-73.99,39.63-73.99,88.51h147.98Z"/>
      <path class="cls-11" d="M368.52,93.23c-.62-.17-1.24-.27-1.86-.33-18.19-43.23-53.87-63.26-53.87-63.26-48.27,6.48-84.21,57.95-88.75,63.21-.26.04-.51.07-.77.13-7.06,1.64-11.16,10.01-9.14,18.7,1.99,8.61,16.13,12.69,16.41,12.77,11.56,24.1,36.18,40.73,64.69,40.73s53.26-16.73,64.78-40.93c1.94-.5,14.51-3.99,16.75-11.91,2.43-8.59-1.26-17.15-8.24-19.12Z"/>
      <ellipse class="cls-12" cx="270.61" cy="112.51" rx="4.93" ry="5.92"/>
      <ellipse class="cls-12" cx="312.73" cy="112.51" rx="4.93" ry="5.92"/>
      <path class="cls-10" d="M307.8,96.2c9.33-1.26,17.49-3.23,24.18-5.22"/>
      <path class="cls-10" d="M253.93,90.98c6.93,2.14,14.79,4.02,23.5,5.22"/>
      <g>
        <rect class="cls-1" x="187.28" y="102.81" width="13.22" height="385.17" transform="translate(-101.79 488.85) rotate(-89.91)"/>
        <g>
          <polygon class="cls-8" points="386.36 288.96 1 288.38 127.88 195.04 513.24 195.61 386.36 288.96"/>
          <polygon class="cls-1" points="386.51 289.07 386.49 302.3 513.38 208.48 513.39 195.73 386.51 289.07"/>
        </g>
      </g>
      <g>
        <path class="cls-9" d="M411.91,192.09l-.04,5.76-70.26,61.47h-.06c-4.54-1.99-20.21-7.3-52.72-7.82-32.06-.51-61.59,2.02-67.48,5.72h-.06s-.06,0-.06,0c-4.26-1.7-18.14-7.09-49.01-7.58-30.45-.49-58.95,1.99-65.1,5.58l-.19-4.03s105.26-64.8,304.98-59.09Z"/>
        <path class="cls-9" d="M411.56,193.17c3.93-3.44-18.79-6.29-50.31-6.37-31.1-.09-59.45,2.55-63.72,5.91-.16.13-.28.26-.37.38h-.12s-.12,0-.12,0c.23-.13.44-.25.6-.38,4.27-3.36-16.94-6.13-46.97-6.21-29.64-.08-57.07,2.49-61.64,5.77-.17.13-.3.25-.41.37h-.11s-81.47,58.42-81.47,58.42h.05c6.14-3.59,34.57-6.07,64.94-5.58,30.79.49,44.64,5.88,48.88,7.58h.06s.06,0,.06,0c5.88-3.69,35.33-6.23,67.31-5.72,32.43.52,48.06,5.84,52.59,7.82h.06s70.69-61.99,70.69-61.99"/>
        <line class="cls-9" x1="297.53" y1="192.71" x2="220.8" y2="253.06"/>
      </g>
      <rect class="cls-6" x="229.72" y="152.92" width="4.42" height="57.26" transform="translate(-30.36 47.55) rotate(-10.99)"/>
      <ellipse class="cls-11" cx="233.05" cy="186.49" rx="12.25" ry="14.36" transform="translate(-59.47 245.84) rotate(-50.14)"/>
      <ellipse class="cls-11" cx="352.1" cy="187.83" rx="14.36" ry="12.25" transform="translate(-25.72 316.29) rotate(-46.86)"/>
      <polygon class="cls-4" points="235.22 210.07 239.56 209.23 238.53 214.07 236.67 211.82 235.22 210.07"/>
      <path class="cls-10" d="M156.06,232.29s28.58-7.56,60.79,6.14"/>
      <path class="cls-10" d="M163.91,222.12s27.75-5.71,59.97,7.98"/>
      <path class="cls-10" d="M177.45,212.33c-5.73,1.06,21.15-4.36,54.08,9.2"/>
      <path class="cls-10" d="M184.77,204.4s20.98-4.03,53.2,9.67"/>
      <path class="cls-5" d="M223.24,54.3s64.82,11.19,146.82.99c0,0,1.26,6.11,2.2,16.01,0,0-64.99,15.08-151.89-1.19,0,0,.95-10.85,2.88-15.81Z"/>
      <path class="cls-2" d="M376.8,25.93c2.16-.87,6.36-5.41,10.71-8.16,5.19-3.27,11.33-.99,12.21,1.86s-2.96,7.37-9,8.46c-2.89.52-5.89-.48-8.3-.24"/>
      <path class="cls-2" d="M372.41,22.26c.74-1.59.69-6.26,1.66-10.02,1.16-4.48,5.71-6.4,7.67-5.3s2.19,5.58-.57,9.3c-1.32,1.78-3.48,2.78-4.69,4.16"/>
    </g>
  </g>
</svg>