<?xml version="1.0" encoding="UTF-8"?>
<svg id="_レイヤー_2" data-name="レイヤー 2" xmlns="http://www.w3.org/2000/svg" viewBox="0 0 1111.99 696.03">
  <defs>
    <style>
      .cls-1 {
        fill: #ff931e;
      }

      .cls-2 {
        fill: #f7931e;
      }

      .cls-3 {
        fill: #ed1c24;
      }
    </style>
  </defs>
  <g id="_レイヤー_1-2" data-name="レイヤー 1">
    <g>
      <circle cx="367.35" cy="354.99" r="341.04"/>
      <circle class="cls-3" cx="341.04" cy="341.04" r="341.04"/>
      <g id="uuid-f6da4ab9-7ca8-4d81-8499-d38f8fb922e5" data-name=" レイヤー 1-2">
        <path d="M993.57,370.1c-19.52,0-37.92,2.5-54.15,6.92-7.78-30.51-57.32-54.03-117.31-54.03-32.43,0-61.81,6.88-83.2,18.01-20.89-17.7-58.12-29.49-100.57-29.49-65.4,0-118.41,27.94-118.41,62.42,0,.47.04.93.07,1.4h-.07c-65.4,0-118.41,27.95-118.41,62.42s53.01,62.42,118.41,62.42c27.51,0,52.8-4.96,72.92-13.26,21.59,12.08,52.18,19.62,86.15,19.62,39.34,0,74.18-10.12,95.71-25.68,20.92,17.65,58.08,29.39,100.47,29.39,32.51,0,61.94-6.91,83.34-18.09,11.08,1.81,22.86,2.79,35.07,2.79,65.4,0,118.41-27.94,118.41-62.42s-53.01-62.42-118.41-62.42h-.01Z"/>
      </g>
      <g id="uuid-a81a2438-57d3-44e9-ad69-6454c3563c19" data-name=" レイヤー 1-2">
        <path d="M933.43,558.96c-12.64,0-24.55,1.62-35.06,4.48-5.03-19.75-37.11-34.98-75.94-34.98-21,0-40.01,4.45-53.86,11.66-13.53-11.46-37.62-19.09-65.11-19.09-42.34,0-76.65,18.09-76.65,40.41,0,.3.03.6.05.9h-.05c-42.34,0-76.65,18.1-76.65,40.41s34.32,40.41,76.65,40.41c17.81,0,34.18-3.21,47.2-8.58,13.98,7.82,33.78,12.7,55.77,12.7,25.47,0,48.02-6.55,61.96-16.63,13.54,11.42,37.6,19.03,65.04,19.03,21.04,0,40.1-4.47,53.95-11.71,7.17,1.17,14.8,1.8,22.7,1.8,42.34,0,76.65-18.09,76.65-40.41s-34.32-40.41-76.65-40.41h0Z"/>
      </g>
      <g id="uuid-95cb1509-c35d-480f-8627-f157f1dc7b3a" data-name=" レイヤー 1-2">
        <path class="cls-2" d="M970.19,354.98c-19.52,0-37.92,2.5-54.15,6.92-7.78-30.51-57.32-54.03-117.31-54.03-32.43,0-61.81,6.88-83.2,18.01-20.89-17.7-58.12-29.49-100.57-29.49-65.4,0-118.41,27.94-118.41,62.42,0,.47.04.93.07,1.4h-.07c-65.4,0-118.41,27.95-118.41,62.42s53.01,62.42,118.41,62.42c27.51,0,52.8-4.96,72.92-13.26,21.59,12.08,52.18,19.62,86.15,19.62,39.34,0,74.18-10.12,95.71-25.68,20.92,17.65,58.08,29.39,100.47,29.39,32.51,0,61.94-6.91,83.34-18.09,11.08,1.81,22.86,2.79,35.07,2.79,65.4,0,118.41-27.94,118.41-62.42s-53.01-62.42-118.41-62.42h-.01Z"/>
      </g>
      <g id="uuid-259a8dbd-3b81-4fe6-9255-c1a3d9f8f21e" data-name=" レイヤー 1-2">
        <path class="cls-1" d="M910.06,543.84c-12.64,0-24.55,1.62-35.06,4.48-5.03-19.75-37.11-34.98-75.94-34.98-21,0-40.01,4.45-53.86,11.66-13.53-11.46-37.62-19.09-65.11-19.09-42.34,0-76.65,18.09-76.65,40.41,0,.3.03.6.05.9h-.05c-42.34,0-76.65,18.1-76.65,40.41s34.32,40.41,76.65,40.41c17.81,0,34.18-3.21,47.2-8.58,13.98,7.82,33.78,12.7,55.77,12.7,25.47,0,48.02-6.55,61.96-16.63,13.54,11.42,37.6,19.03,65.04,19.03,21.04,0,40.1-4.47,53.95-11.71,7.17,1.17,14.8,1.8,22.7,1.8,42.34,0,76.65-18.09,76.65-40.41s-34.32-40.41-76.65-40.41h0Z"/>
      </g>
    </g>
  </g>
</svg>