<?xml version="1.0" encoding="UTF-8"?>
<svg id="_レイヤー_2" data-name="レイヤー 2" xmlns="http://www.w3.org/2000/svg" viewBox="0 0 566.93 566.93">
  <defs>
    <style>
      .cls-1 {
        fill: #fff;
      }

      .cls-2 {
        fill: #231815;
      }
    </style>
  </defs>
  <g id="_レイヤー_1-2" data-name="レイヤー 1">
    <g>
      <rect class="cls-1" width="566.93" height="566.93"/>
      <g>
        <path class="cls-2" d="M115.96,185.13l2.17,4.2-48.52,24.75v.15l48.52,24.75-2.17,4.2-56.17-28.87v-.3l56.17-28.87Z"/>
        <path class="cls-2" d="M156.39,241.26c-5.02,0-8.61-1.03-10.69-3.04-2.09-2.01-3.11-5.49-3.11-10.47v-22.41h-10.95v-5.24h10.95v-10.73l6.74-2.93v13.66h15.31v5.24h-15.31v22.41c0,3,.59,5.13,1.72,6.34,1.13,1.21,3.11,1.79,6.01,1.79h7.58v5.38h-8.24Z"/>
        <path class="cls-2" d="M181.52,236.68c-3.08-3.81-4.5-9.23-4.5-16.08s1.5-12.27,4.5-15.97,7.36-5.53,13.04-5.53,10.14,1.9,13.07,5.53c3,3.7,4.5,9.01,4.5,15.93s-1.46,12.45-4.5,16.11c-2.93,3.63-7.32,5.49-13.07,5.49s-10-1.83-13.04-5.49ZM202.35,232.43c1.76-2.67,2.64-6.59,2.64-11.79s-.88-9.16-2.64-11.83-4.36-3.99-7.8-3.99-6.01,1.32-7.76,3.99-2.64,6.63-2.64,11.83.88,9.12,2.64,11.79,4.36,4.03,7.76,4.03,6.04-1.35,7.8-4.03Z"/>
        <path class="cls-2" d="M221.14,200.09h5.53l.59,3.52c.81-1.46,1.83-2.6,3.04-3.37,1.21-.77,2.56-1.14,4.14-1.14,1.79,0,3.33.44,4.61,1.28,1.21.84,2.16,2.12,2.86,3.88.84-1.79,1.9-3.08,3.19-3.92,1.28-.84,2.82-1.25,4.62-1.25,3.37,0,5.71,1.32,6.99,3.81,1.36,2.53,2.01,7.36,2.01,14.43v23.77h-6.15v-23.47c0-6.19-.29-9.3-.99-10.8-.55-1.28-1.57-2.09-3.62-2.09-1.87,0-3.11.66-3.85,2.23-.84,1.72-1.13,4.83-1.13,10.66v23.47h-6.15v-23.47c0-7.14-.48-9.56-1.06-10.84-.62-1.28-1.79-2.05-3.7-2.05-2.05,0-3.11.88-3.7,2.2-.7,1.46-1.1,4.28-1.1,10.69v23.47h-6.12v-41.02Z"/>
        <path class="cls-2" d="M271.02,238.62c-2.34-2.23-3.74-5.2-3.74-9.48,0-4.5,1.54-7.98,4.61-10.36,3.04-2.38,7.51-3.55,13.48-3.55h9.05v-1.06c0-3.11-.84-5.64-2.49-7.14-1.61-1.46-4.29-2.2-7.8-2.2-2.31,0-4.65.33-6.99.99-2.38.66-4.65,1.61-6.85,2.89v-6.74c2.05-.77,4.65-1.61,7.18-2.16,2.23-.48,4.47-.7,6.7-.7,3.48,0,6.22.51,8.68,1.54,2.23.99,4.36,2.49,5.79,4.43,1.03,1.43,1.65,3.04,1.98,4.54.4,1.79.59,4.47.59,8.09v8.39c.11,2.82.07,4.87.33,6.74.26,2.05.59,4.03.84,4.94.33,1.5.88,3.08.99,3.33h-6.78c-.26-.59-.66-1.83-.99-3.19-.26-1.06-.48-2.27-.59-3.04-1.43,2.45-3.85,4.39-6.01,5.53-2.34,1.21-4.94,1.76-7.91,1.76-4.25,0-7.62-1.17-10.07-3.55ZM291.2,232.65c2.16-2.64,3.22-6.19,3.22-10.66v-1.5h-8.53c-3.92,0-6.85.7-8.86,2.05-2.09,1.43-3,3.48-3,6.23,0,2.53.81,4.39,2.23,5.71,1.43,1.28,3.41,2.05,6.22,2.05,3.7,0,6.59-1.28,8.72-3.88Z"/>
        <path class="cls-2" d="M337.01,241.26c-5.02,0-8.61-1.03-10.69-3.04-2.09-2.01-3.11-5.49-3.11-10.47v-22.41h-10.95v-5.24h10.95v-10.73l6.74-2.93v13.66h15.31v5.24h-15.31v22.41c0,3,.59,5.13,1.72,6.34,1.13,1.21,3.11,1.79,6.01,1.79h7.58v5.38h-8.24Z"/>
        <path class="cls-2" d="M362.13,236.68c-3.08-3.81-4.5-9.23-4.5-16.08s1.5-12.27,4.5-15.97,7.36-5.53,13.04-5.53,10.14,1.9,13.07,5.53c3,3.7,4.5,9.01,4.5,15.93s-1.46,12.45-4.5,16.11c-2.93,3.63-7.32,5.49-13.07,5.49s-10-1.83-13.04-5.49ZM382.97,232.43c1.76-2.67,2.64-6.59,2.64-11.79s-.88-9.16-2.64-11.83-4.36-3.99-7.8-3.99-6.01,1.32-7.76,3.99-2.64,6.63-2.64,11.83.88,9.12,2.64,11.79,4.36,4.03,7.76,4.03,6.04-1.35,7.8-4.03Z"/>
        <path class="cls-2" d="M408.64,185.13l56.17,28.87v.3l-56.17,28.87-2.18-4.2,48.52-24.75v-.15l-48.52-24.75,2.18-4.2Z"/>
        <path class="cls-2" d="M115.96,327.47l2.17,4.2-48.52,24.75v.15l48.52,24.75-2.17,4.2-56.17-28.87v-.3l56.17-28.87Z"/>
        <path class="cls-2" d="M159.4,328.78h6.96l-28.78,61.63h-7l28.82-61.63Z"/>
        <path class="cls-2" d="M201.55,383.6c-5.02,0-8.61-1.03-10.69-3.04-2.09-2.01-3.11-5.49-3.11-10.47v-22.41h-10.95v-5.24h10.95v-10.73l6.74-2.93v13.66h15.31v5.24h-15.31v22.41c0,3,.59,5.13,1.72,6.33,1.13,1.21,3.11,1.79,6.01,1.79h7.58v5.38h-8.24Z"/>
        <path class="cls-2" d="M226.67,379.03c-3.08-3.81-4.5-9.23-4.5-16.08s1.5-12.27,4.5-15.97,7.36-5.53,13.04-5.53,10.14,1.9,13.07,5.53c3,3.7,4.5,9.01,4.5,15.93s-1.46,12.45-4.5,16.11c-2.93,3.62-7.32,5.49-13.07,5.49s-10-1.83-13.04-5.49ZM247.51,374.78c1.76-2.67,2.64-6.59,2.64-11.79s-.88-9.15-2.64-11.83-4.36-3.99-7.8-3.99-6.01,1.32-7.76,3.99-2.64,6.63-2.64,11.83.88,9.12,2.64,11.79c1.76,2.67,4.36,4.03,7.76,4.03s6.04-1.35,7.8-4.03Z"/>
        <path class="cls-2" d="M266.3,342.44h5.53l.59,3.52c.81-1.46,1.83-2.6,3.04-3.37,1.21-.77,2.56-1.14,4.14-1.14,1.79,0,3.33.44,4.61,1.28,1.21.84,2.16,2.12,2.86,3.88.84-1.79,1.9-3.08,3.19-3.92,1.28-.84,2.82-1.25,4.62-1.25,3.37,0,5.71,1.32,6.99,3.81,1.36,2.53,2.01,7.36,2.01,14.43v23.77h-6.15v-23.47c0-6.19-.29-9.3-.99-10.8-.55-1.28-1.57-2.09-3.62-2.09-1.87,0-3.11.66-3.85,2.23-.84,1.72-1.13,4.83-1.13,10.66v23.47h-6.15v-23.47c0-7.14-.48-9.56-1.06-10.84-.62-1.28-1.79-2.05-3.7-2.05-2.05,0-3.11.88-3.7,2.2-.7,1.46-1.1,4.28-1.1,10.69v23.47h-6.12v-41.02Z"/>
        <path class="cls-2" d="M316.17,380.97c-2.34-2.23-3.74-5.2-3.74-9.49,0-4.5,1.54-7.98,4.61-10.36,3.04-2.38,7.51-3.55,13.48-3.55h9.05v-1.06c0-3.11-.84-5.64-2.49-7.14-1.61-1.46-4.29-2.2-7.8-2.2-2.31,0-4.65.33-6.99.99-2.38.66-4.65,1.61-6.85,2.89v-6.74c2.05-.77,4.65-1.61,7.18-2.16,2.23-.48,4.47-.7,6.7-.7,3.48,0,6.22.51,8.68,1.54,2.23.99,4.36,2.49,5.79,4.43,1.03,1.43,1.65,3.04,1.98,4.54.4,1.79.59,4.47.59,8.09v8.39c.11,2.82.07,4.87.33,6.74.26,2.05.59,4.03.84,4.94.33,1.5.88,3.08.99,3.33h-6.78c-.26-.59-.66-1.83-.99-3.19-.26-1.06-.48-2.27-.59-3.04-1.43,2.45-3.85,4.39-6.01,5.53-2.34,1.21-4.94,1.76-7.91,1.76-4.25,0-7.62-1.17-10.07-3.55ZM336.35,375c2.16-2.64,3.22-6.19,3.22-10.66v-1.5h-8.53c-3.92,0-6.85.7-8.86,2.05-2.09,1.43-3,3.48-3,6.23,0,2.53.81,4.39,2.23,5.71,1.43,1.28,3.41,2.05,6.22,2.05,3.7,0,6.59-1.28,8.72-3.88Z"/>
        <path class="cls-2" d="M382.16,383.6c-5.02,0-8.61-1.03-10.69-3.04-2.09-2.01-3.11-5.49-3.11-10.47v-22.41h-10.95v-5.24h10.95v-10.73l6.74-2.93v13.66h15.31v5.24h-15.31v22.41c0,3,.59,5.13,1.72,6.33,1.13,1.21,3.11,1.79,6.01,1.79h7.58v5.38h-8.24Z"/>
        <path class="cls-2" d="M407.29,379.03c-3.08-3.81-4.5-9.23-4.5-16.08s1.5-12.27,4.5-15.97,7.36-5.53,13.04-5.53,10.14,1.9,13.07,5.53c3,3.7,4.5,9.01,4.5,15.93s-1.46,12.45-4.5,16.11c-2.93,3.62-7.32,5.49-13.07,5.49s-10-1.83-13.04-5.49ZM428.13,374.78c1.76-2.67,2.64-6.59,2.64-11.79s-.88-9.15-2.64-11.83-4.36-3.99-7.8-3.99-6.01,1.32-7.76,3.99-2.64,6.63-2.64,11.83.88,9.12,2.64,11.79c1.76,2.67,4.36,4.03,7.76,4.03s6.04-1.35,7.8-4.03Z"/>
        <path class="cls-2" d="M453.8,327.47l56.17,28.87v.3l-56.17,28.87-2.18-4.2,48.52-24.75v-.15l-48.52-24.75,2.18-4.2Z"/>
      </g>
    </g>
  </g>
</svg>