<?xml version="1.0" encoding="UTF-8"?>
<svg id="_レイヤー_2" data-name="レイヤー 2" xmlns="http://www.w3.org/2000/svg" viewBox="0 0 120.61 223.53">
  <defs>
    <style>
      .cls-1 {
        fill: #b28247;
      }

      .cls-2 {
        fill: #8fc31f;
      }

      .cls-3 {
        fill: #efd68e;
      }
    </style>
  </defs>
  <g id="_レイヤー_1-2" data-name="レイヤー 1">
    <g>
      <path class="cls-3" d="M34.64,22.51c-1.61,5.1-3.39,10.49-4.81,15.72h-.42c-1.65-5.5-3.34-10.8-5.19-15.72L15.42,0H0l22.64,51.04-1.02,2.73c-1.7,4.05-4.96,6.84-11,6.84-1.28,0-2.66-.24-4.04-.66l-2.79,11.84c2.25.63,4.94,1.06,7.98,1.06,13.24,0,19.47-6.79,24.57-19.9L56.99,0h-14.69l-7.66,22.51Z"/>
      <path class="cls-3" d="M99.94,34.44c-3.57,4.59-6.3,5.97-10.15,5.97-5.78,0-7.64-3.12-7.64-10.06V0h-15.54v32.34c0,13.21,5.06,21.3,16.98,21.3,7.54,0,13.02-3.46,17.66-8.79h.42l1.12,7.53h12.69V0h-15.54v34.44Z"/>
      <polygon class="cls-1" points="44.35 127.07 65.9 158.19 49.02 158.19 35.3 136.74 44.35 127.07"/>
      <polygon class="cls-1" points="27.58 145.01 27.58 158.19 12.04 158.19 12.04 84.23 27.58 84.23 27.58 126.86 27.58 145.01"/>
      <polygon class="cls-2" points="75.7 117.98 96.79 117.98 96.79 158.19 112.33 158.19 112.33 105.81 75.7 105.81 75.7 117.98"/>
      <path class="cls-3" d="M99.79,70.92c-8.36,0-14.39,5.53-14.39,13.46s6.03,13.25,14.39,13.25,14.39-5.27,14.39-13.25-6.04-13.46-14.39-13.46Z"/>
      <path class="cls-3" d="M40.72,168.62c-7.8,0-13.56,3.8-18.1,8.25h-.42l-1.12-6.98h-12.66v52.38h15.54v-34.95c3.63-3.53,6.45-5.45,10.59-5.45,5.67,0,7.68,3.09,7.68,10.06v30.34h15.54v-32.34c0-13.21-5.22-21.3-17.05-21.3Z"/>
      <path class="cls-3" d="M96.96,168.62c-8.9,0-17.25,2.95-24.51,7.09l5.54,10.18c5.89-2.96,10.92-4.9,15.97-4.9,7.03,0,10.56,2.87,11.11,7.55-24.75,1.5-34.45,7.48-34.45,19.22,0,8.8,6.62,15.79,17.22,15.79,6.72,0,13.28-3.19,18.57-7.17h.39l1.12,5.9h12.69v-29.94c0-16.05-8.92-23.71-23.65-23.71ZM105.07,206.49c-3.7,2.88-7.65,5.01-12.32,5.01-4.39,0-7.23-1.64-7.23-5.01,0-4.47,4.14-7.81,19.55-8.59v8.58Z"/>
      <path class="cls-2" d="M27.58,126.98s6.53-15.63,20.82-23.33c14.29-7.71,30.93-4.57,30.93-4.57,0,0-6.53,15.63-20.82,23.33-14.29,7.71-30.93,4.57-30.93,4.57Z"/>
    </g>
  </g>
</svg>