<?xml version="1.0" encoding="UTF-8"?>
<svg id="_レイヤー_1" data-name="レイヤー 1" xmlns="http://www.w3.org/2000/svg" viewBox="0 0 370 320">
  <defs>
    <style>
      .cls-1 {
        opacity: .2;
      }

      .cls-1, .cls-2, .cls-3, .cls-4, .cls-5, .cls-6, .cls-7, .cls-8, .cls-9, .cls-10, .cls-11 {
        stroke-linecap: round;
        stroke-linejoin: round;
      }

      .cls-1, .cls-2, .cls-4, .cls-5, .cls-6, .cls-7, .cls-8, .cls-9, .cls-10, .cls-11 {
        stroke: #000;
        stroke-width: 2px;
      }

      .cls-2 {
        fill: red;
      }

      .cls-3 {
        stroke: #fff;
        stroke-width: 5px;
      }

      .cls-3, .cls-4 {
        fill: #fff;
      }

      .cls-5 {
        fill: none;
      }

      .cls-6 {
        fill: #f4db8e;
      }

      .cls-7 {
        fill: #1b1464;
      }

      .cls-8 {
        fill: #231815;
      }

      .cls-9 {
        opacity: .3;
      }

      .cls-10 {
        fill: #40210f;
      }

      .cls-11 {
        fill: #009fe8;
      }
    </style>
  </defs>
  <g id="_分前行動_基本です_" data-name="５分前行動、基本です！">
    <g>
      <path class="cls-3" d="M334.44,22.97c2.99,0,5.29.75,6.91,2.24,1.62,1.49,2.43,3.61,2.43,6.35,0,6.47-4.11,9.71-12.32,9.71-2.22,0-4.41-.29-6.57-.86-.57-.15-1-.49-1.29-1.01-.29-.52-.35-1.08-.21-1.68l.45-1.79c.12-.55.44-.96.93-1.25.5-.29,1.02-.34,1.57-.17,1.94.57,3.52.86,4.74.86,3.61,0,5.42-1.27,5.42-3.81,0-.95-.31-1.68-.93-2.2-.62-.52-1.49-.78-2.61-.78-.37,0-.77.06-1.19.19-.17.05-.57.2-1.18.45-.61.25-1.11.42-1.51.52-.4.1-.81.15-1.23.15h-2.09c-.57,0-1.06-.21-1.46-.63-.4-.42-.59-.92-.56-1.49l.52-11.99c.02-.6.26-1.1.69-1.51.44-.41.95-.62,1.55-.62h13.85c.57,0,1.07.21,1.49.64.42.42.63.92.63,1.49v1.72c0,.57-.21,1.07-.63,1.49s-.92.63-1.49.63h-8.92c-.22,0-.34.1-.34.3l-.19,3.58s.01.04.04.04h.11c1.19-.37,2.33-.56,3.4-.56Z"/>
      <path class="cls-3" d="M343.07,49.84c2.07,3.86,4.48,7.26,7.25,10.19.42.42.63.93.63,1.53s-.21,1.1-.63,1.49l-1.87,1.87c-.42.42-.92.63-1.49.63s-1.06-.21-1.46-.63c-.05-.05-.1-.06-.15-.04-.05.02-.07.06-.07.11v1.05c0,2.61-.03,4.74-.09,6.39-.06,1.64-.21,3.11-.45,4.39-.24,1.28-.5,2.23-.78,2.86-.29.62-.76,1.14-1.42,1.55-.66.41-1.34.66-2.04.75-.7.09-1.66.13-2.88.13-.62,0-2.09-.07-4.41-.22-.6-.02-1.11-.26-1.53-.71-.42-.45-.65-.97-.67-1.57l-.04-1.72c-.03-.55.17-1.03.58-1.44.41-.41.9-.59,1.48-.54,1.87.12,3.04.19,3.51.19s.83-.15,1.06-.45c.24-.3.42-.93.56-1.9.14-.97.21-2.41.21-4.33v-4.52c0-.22-.11-.34-.34-.34h-6.01c-.22,0-.34.1-.34.3-.37,4.23-1.26,7.62-2.65,10.18-1.39,2.55-3.54,4.79-6.42,6.7-.5.32-1.05.44-1.64.34-.6-.1-1.1-.39-1.49-.86l-1.61-1.94c-.35-.42-.47-.91-.35-1.46.11-.55.4-.96.88-1.23,2.04-1.24,3.56-2.75,4.56-4.52,1-1.77,1.66-4.16,1.98-7.17,0-.22-.1-.34-.3-.34h-2.8c-.2,0-.37.07-.52.22l-.04.07c-.02.05-.05.07-.07.07-.4.42-.89.63-1.48.63s-1.09-.21-1.51-.63l-1.87-1.87c-.4-.42-.6-.92-.6-1.49s.2-1.07.6-1.49c2.74-2.91,5.15-6.34,7.24-10.27.27-.55.7-.94,1.27-1.18.57-.24,1.15-.26,1.72-.06l2.32.78c.55.17.93.52,1.16,1.03.22.51.21,1.03-.04,1.55-1.12,2.39-2.37,4.58-3.73,6.57-.05.05-.06.11-.02.17.04.06.09.09.17.09h13.82c.07,0,.13-.03.17-.09.04-.06.03-.12-.02-.17-1.49-2.22-2.75-4.41-3.77-6.57-.25-.52-.26-1.04-.02-1.55.24-.51.63-.85,1.18-1.03l2.32-.78c.57-.17,1.15-.14,1.72.09.57.24,1,.63,1.27,1.18Z"/>
      <path class="cls-3" d="M348.37,87.61c.57,0,1.07.21,1.49.63.42.42.63.92.63,1.49v.97c0,.57-.21,1.07-.63,1.49-.42.42-.92.63-1.49.63h-30.1c-.57,0-1.07-.21-1.49-.63-.42-.42-.63-.92-.63-1.49v-.97c0-.57.21-1.07.63-1.49.42-.42.92-.63,1.49-.63h5.04c.07,0,.13-.03.17-.09.04-.06.03-.12-.02-.17l-.15-.3c-.25-.47-.26-.95-.04-1.42.22-.47.6-.76,1.12-.86l2.35-.49c.62-.12,1.23-.06,1.81.21.58.26,1.03.67,1.33,1.21.35.7.61,1.23.78,1.61.07.2.24.3.49.3h4.59c.22,0,.37-.09.45-.26.27-.5.52-1,.75-1.49.27-.57.68-1.01,1.23-1.33.55-.31,1.12-.42,1.72-.32l2.54.45c.55.1.95.38,1.2.84.25.46.26.94.04,1.44-.02.05-.06.11-.09.19-.04.07-.07.14-.09.19-.1.2-.04.3.19.3h4.71ZM331.94,94.33c.57,0,1.07.21,1.49.63.42.42.63.92.63,1.49v18.24c0,.51-.04,1.06-.11,1.64s-.14,1-.21,1.25c-.06.25-.21.52-.45.8-.24.29-.45.47-.65.54s-.54.16-1.03.26c-.49.1-.93.15-1.34.15h-1.81c-.42,0-.78-.01-1.08-.04-.6-.03-1.1-.26-1.51-.71-.41-.45-.63-.97-.65-1.57l-.04-.97c-.02-.55.17-1.02.58-1.42.41-.4.9-.57,1.48-.52h.49c.37,0,.59-.06.65-.17.06-.11.09-.49.09-1.14v-.6c0-.22-.11-.34-.34-.34h-3.85c-.2,0-.3.11-.3.34v5c0,.57-.21,1.07-.63,1.49-.42.42-.92.63-1.49.63h-2.46c-.57,0-1.07-.21-1.49-.63s-.63-.92-.63-1.49v-20.76c0-.57.21-1.07.63-1.49s.92-.63,1.49-.63h12.55ZM328.47,100.9v-1.05c0-.2-.11-.3-.34-.3h-3.85c-.2,0-.3.1-.3.3v1.05c0,.22.1.34.3.34h3.85c.22,0,.34-.11.34-.34ZM328.47,107.06v-1.01c0-.22-.11-.34-.34-.34h-3.85c-.2,0-.3.11-.3.34v1.01c0,.22.1.34.3.34h3.85c.22,0,.34-.11.34-.34ZM339.22,111.51h-1.53c-.57,0-1.07-.21-1.49-.63-.42-.42-.63-.92-.63-1.49v-12.55c0-.57.21-1.07.63-1.49.42-.42.92-.63,1.49-.63h1.53c.57,0,1.07.21,1.49.63.42.42.63.92.63,1.49v12.55c0,.57-.21,1.07-.63,1.49-.42.42-.92.63-1.49.63ZM347.25,94.33c.57,0,1.07.21,1.49.63.42.42.64.92.64,1.49v15.42c0,1.27-.02,2.27-.06,2.99-.04.72-.14,1.39-.32,2.02-.17.62-.37,1.07-.58,1.34-.21.27-.58.51-1.12.71-.54.2-1.09.32-1.66.35-.57.04-1.38.06-2.43.06-.62,0-1.73-.04-3.32-.11-.6-.03-1.11-.25-1.53-.67s-.66-.93-.71-1.53l-.07-1.53c-.05-.57.12-1.06.52-1.46.4-.4.87-.58,1.42-.56,1.44.05,2.18.07,2.2.07.57,0,.9-.06.99-.17.09-.11.13-.49.13-1.14v-15.8c0-.57.21-1.07.63-1.49s.92-.63,1.49-.63h2.28Z"/>
      <path class="cls-3" d="M327.38,133.35c.5.3.83.74.99,1.33.16.59.08,1.13-.24,1.62-.4.67-1.02,1.57-1.87,2.69-.15.17-.22.37-.22.6v14.94c0,.57-.21,1.07-.63,1.49-.42.42-.92.63-1.49.63h-2.46c-.57,0-1.07-.21-1.49-.63-.42-.42-.63-.92-.63-1.49v-9.07s-.02-.09-.06-.11c-.04-.02-.08-.01-.13.04-.17.22-.54.63-1.08,1.23-.32.32-.7.42-1.14.28-.44-.14-.7-.44-.8-.91l-.67-3.29c-.27-1.37.14-2.5,1.23-3.4,2.12-1.72,4.08-3.82,5.9-6.31.35-.47.81-.77,1.4-.9.58-.12,1.14-.04,1.66.26l1.76,1.01ZM325.11,122.82l1.31,1.01c.47.35.74.81.8,1.38.06.57-.09,1.08-.47,1.53-2.02,2.32-4.27,4.31-6.76,5.98-.47.32-.98.4-1.51.22-.54-.17-.92-.51-1.14-1.01l-.9-1.9c-.25-.55-.29-1.11-.11-1.7.17-.58.51-1.04,1.01-1.36,1.67-1.12,3.21-2.4,4.63-3.85.42-.42.93-.67,1.51-.73.58-.06,1.13.08,1.62.43ZM349.12,132.75c.57,0,1.07.21,1.49.63s.64.92.64,1.49v1.53c0,.57-.21,1.07-.64,1.49-.42.42-.92.63-1.49.63h-2.76c-.22,0-.34.11-.34.34v9.93c0,1.27-.02,2.27-.06,2.99-.04.72-.16,1.39-.35,2.02-.2.62-.42,1.07-.67,1.34-.25.27-.68.51-1.29.71-.61.2-1.25.32-1.92.35-.67.04-1.61.06-2.8.06-.67,0-1.94-.04-3.81-.11-.6-.03-1.13-.25-1.59-.67-.46-.42-.7-.93-.73-1.53l-.07-1.53c-.02-.55.16-1.03.54-1.44.39-.41.86-.6,1.44-.58,1.02.05,1.99.07,2.91.07.62,0,1-.06,1.12-.17.12-.11.19-.49.19-1.14v-10.31c0-.22-.11-.34-.34-.34h-7.99c-.57,0-1.07-.21-1.49-.63-.42-.42-.63-.92-.63-1.49v-1.53c0-.57.21-1.07.63-1.49.42-.42.92-.63,1.49-.63h18.52ZM331.71,123.23h15.91c.57,0,1.07.21,1.49.63.42.42.63.92.63,1.49v1.53c0,.57-.21,1.07-.63,1.49s-.92.63-1.49.63h-15.91c-.57,0-1.07-.21-1.49-.63s-.63-.92-.63-1.49v-1.53c0-.57.21-1.07.63-1.49.42-.42.92-.63,1.49-.63Z"/>
      <path class="cls-3" d="M348.56,166.93c.57,0,1.07.21,1.49.63.42.42.63.92.63,1.49v1.98c0,9.81-.24,15.96-.71,18.45-.37,1.99-1.08,3.2-2.13,3.62-.52.22-1.44.34-2.76.34-.65,0-1.69-.06-3.14-.19-.6-.05-1.1-.3-1.51-.75-.41-.45-.63-.97-.65-1.57l-.04-1.98s-.02-.04-.06-.04-.07.01-.09.04c-.42,1.07-.97,2.22-1.64,3.44-.27.5-.69.8-1.25.9-.56.1-1.06-.02-1.51-.37l-.56-.45c-.17-.12-.35-.12-.52,0-.32.25-.69.39-1.08.41-3.93.3-8.86.58-14.79.86-.6.02-1.11-.16-1.53-.56-.42-.4-.66-.88-.71-1.46l-.07-.63c-.05-.57.12-1.08.5-1.51.39-.44.86-.67,1.44-.69,2.09-.05,3.66-.1,4.71-.15.2,0,.3-.11.3-.34v-.6c0-.22-.11-.34-.34-.34h-4.15c-.55,0-1.03-.21-1.44-.62-.41-.41-.62-.89-.62-1.44s.21-1.03.62-1.44c.41-.41.89-.62,1.44-.62h4.15c.22,0,.34-.1.34-.3v-.49c0-.22-.11-.34-.34-.34h-3.51c-.57,0-1.07-.21-1.49-.63-.42-.42-.63-.92-.63-1.49v-6.57c0-.57.21-1.07.63-1.49.42-.42.92-.63,1.49-.63h3.51c.22,0,.34-.1.34-.3v-.49c0-.22-.11-.34-.34-.34h-4.33c-.57,0-1.06-.21-1.46-.62-.4-.41-.6-.89-.6-1.44s.2-1.03.6-1.44c.4-.41.88-.62,1.46-.62h4.33c.22,0,.34-.11.34-.34v-.56c0-.2-.1-.3-.3-.3-1.67.1-2.85.16-3.55.19-.6.03-1.12-.16-1.57-.54-.45-.39-.7-.88-.75-1.48v-.07c-.05-.57.11-1.08.49-1.51.37-.44.85-.68,1.42-.73,4.41-.22,9.04-.6,13.89-1.12.57-.05,1.1.1,1.57.45.47.35.75.81.82,1.38l.04.3c.07.57-.07,1.09-.45,1.55-.37.46-.85.72-1.42.77-.4.05-.97.11-1.72.17-.75.06-1.29.11-1.64.13-.2,0-.3.11-.3.34v1.05c0,.22.11.34.34.34h3.21c.77,0,1.36.32,1.76.97.07.15.2.17.37.07.35-.2.72-.3,1.12-.3h.82c.22,0,.34-.1.34-.3.05-2.09.07-3.77.07-5.04,0-.57.21-1.07.63-1.49.42-.42.92-.63,1.49-.63h1.34c.57,0,1.07.21,1.49.63.42.42.63.92.63,1.49,0,1.25-.02,2.91-.07,5,0,.22.1.34.3.34h5.3ZM323.24,175.4v-.67c0-.22-.11-.34-.34-.34h-.86c-.2,0-.3.11-.3.34v.67c0,.2.1.3.3.3h.86c.22,0,.34-.1.34-.3ZM323.24,178.91v-.67c0-.2-.11-.3-.34-.3h-.86c-.2,0-.3.1-.3.3v.67c0,.22.1.34.3.34h.86c.22,0,.34-.11.34-.34ZM329.03,174.73v.67c0,.2.11.3.34.3h.82c.22,0,.34-.1.34-.3v-.67c0-.22-.11-.34-.34-.34h-.82c-.22,0-.34.11-.34.34ZM329.03,178.91c0,.22.11.34.34.34h.82c.22,0,.34-.11.34-.34v-.67c0-.2-.11-.3-.34-.3h-.82c-.22,0-.34.1-.34.3v.67ZM333.66,188.18c1.79-3.51,2.93-8.61,3.4-15.31,0-.22-.1-.34-.3-.34h-.56c-.57,0-1.07-.21-1.49-.63-.42-.42-.63-.92-.63-1.49v-.11c0-.07-.03-.13-.09-.17-.06-.04-.12-.04-.17-.02-.3.12-.58.19-.86.19h-3.21c-.22,0-.34.1-.34.3v.49c0,.22.11.34.34.34h3.14c.57,0,1.07.21,1.49.63.42.42.63.92.63,1.49v6.57c0,.57-.21,1.07-.63,1.49-.42.42-.92.63-1.49.63h-3.14c-.22,0-.34.1-.34.3v.49c0,.22.11.34.34.34h2.65c.57,0,1.06.21,1.46.62.4.41.6.89.6,1.44s-.2,1.03-.6,1.44c-.4.41-.88.62-1.46.62h-2.65c-.22,0-.34.11-.34.34v.34c0,.22.11.34.34.34.37-.02.9-.06,1.57-.09.67-.04,1.15-.06,1.42-.06.22,0,.39.01.49.04.2.05.35-.01.45-.19ZM344.15,176.08v-3.21c0-.22-.11-.34-.34-.34h-.82c-.22,0-.34.1-.34.3-.4,5.8-1.17,10.48-2.32,14.04-.05.2.02.32.22.37,1,.15,1.76.22,2.28.22.27,0,.48-.1.62-.3.14-.2.26-.68.37-1.44.11-.76.19-1.9.24-3.44.05-1.53.07-3.6.07-6.22Z"/>
      <path class="cls-3" d="M343.81,199.4c.67.82,2.09,2.58,4.26,5.27.35.45.48.95.39,1.51-.09.56-.37,1.01-.84,1.36l-1.34.97c-.5.32-1.03.44-1.61.35-.57-.09-1.05-.37-1.42-.84-.47-.57-1.83-2.22-4.07-4.93-.37-.45-.54-.96-.49-1.53.05-.57.3-1.03.75-1.38l1.38-1.12c.47-.37,1-.52,1.57-.45.57.07,1.05.34,1.42.78Z"/>
      <path class="cls-3" d="M304.79,182.01c.55.17.94.52,1.18,1.03.24.51.25,1.03.06,1.55l-.49,1.27c-.22.55-.6.95-1.14,1.2-.54.25-1.08.27-1.62.07-1.05-.4-1.96-.78-2.73-1.16-.1-.05-.15-.01-.15.11,0,.32-.12.6-.35.84s-.52.35-.84.35h-6.31c-.22,0-.34.11-.34.34v.49c0,.2.11.3.34.3h10.61c.57,0,1.07.21,1.49.63.42.42.63.92.63,1.49v.78c0,.57-.21,1.07-.63,1.49-.42.42-.92.63-1.49.63h-28.98c-.57,0-1.07-.21-1.49-.63s-.64-.92-.64-1.49v-.78c0-.57.21-1.07.64-1.49s.92-.63,1.49-.63h10.61c.22,0,.34-.1.34-.3v-.49c0-.22-.11-.34-.34-.34h-6.35c-.32,0-.6-.11-.82-.34s-.34-.5-.34-.82c0-.12-.06-.16-.19-.11-1.64.72-2.54,1.11-2.69,1.16-.55.2-1.09.17-1.62-.09-.54-.26-.92-.67-1.14-1.21l-.49-1.27c-.2-.52-.18-1.04.06-1.55.24-.51.63-.85,1.18-1.03,1.24-.37,2.44-.81,3.58-1.31.05-.02.07-.06.07-.09s-.03-.06-.07-.06h-2.35c-.57,0-1.07-.21-1.49-.63-.42-.42-.63-.92-.63-1.49v-.6c0-.57.21-1.07.63-1.49.42-.42.92-.63,1.49-.63h2.76c.22,0,.34-.1.34-.3v-8.14c0-.22-.11-.34-.34-.34h-2.39c-.57,0-1.07-.21-1.49-.63s-.63-.92-.63-1.49v-.78c0-.57.21-1.07.63-1.49.42-.42.92-.63,1.49-.63h2.39c.22,0,.34-.11.34-.34v-.34c0-.57.21-1.07.64-1.49s.92-.63,1.49-.63h2.65c.57,0,1.07.21,1.49.63.42.42.63.92.63,1.49v.34c0,.22.11.34.34.34h9.41c.22,0,.34-.11.34-.34v-.34c0-.57.21-1.07.63-1.49.42-.42.92-.63,1.49-.63h2.65c.57,0,1.07.21,1.49.63.42.42.63.92.63,1.49v.34c0,.22.11.34.34.34h2.39c.57,0,1.07.21,1.49.63.42.42.63.92.63,1.49v.78c0,.57-.21,1.07-.63,1.49-.42.42-.92.63-1.49.63h-2.39c-.22,0-.34.11-.34.34v8.14c0,.2.11.3.34.3h2.76c.57,0,1.07.21,1.49.63.42.42.63.92.63,1.49v.6c0,.57-.21,1.07-.63,1.49s-.92.63-1.49.63h-2.35s-.07.02-.07.06.02.07.07.09c1.15.5,2.34.93,3.58,1.31ZM294.89,182.98s.09-.02.11-.06c.02-.04.01-.08-.04-.13-.67-.55-1.34-1.21-2.02-1.98-.17-.17-.36-.26-.56-.26h-7.58c-.2,0-.37.07-.52.22-.8.85-1.49,1.51-2.09,1.98-.05.03-.07.07-.06.13.01.06.04.09.09.09h2.5c.15,0,.22-.07.22-.22,0-.42.14-.77.43-1.05.29-.27.63-.41,1.03-.41h4.18c.4,0,.74.14,1.03.41.29.27.43.62.43,1.05,0,.15.07.22.22.22h2.61ZM283.47,167.26v.3c0,.2.11.3.34.3h9.41c.22,0,.34-.1.34-.3v-.3c0-.22-.11-.34-.34-.34h-9.41c-.22,0-.34.11-.34.34ZM283.47,171.18v.26c0,.22.11.34.34.34h9.41c.22,0,.34-.11.34-.34v-.26c0-.22-.11-.34-.34-.34h-9.41c-.22,0-.34.11-.34.34ZM283.47,175.11v.3c0,.2.11.3.34.3h9.41c.22,0,.34-.1.34-.3v-.3c0-.22-.11-.34-.34-.34h-9.41c-.22,0-.34.11-.34.34Z"/>
      <path class="cls-3" d="M305.39,220.22c.45.42.73.94.84,1.55.11.61,0,1.18-.32,1.7l-1.38,2.31c-.27.47-.69.75-1.23.84-.55.09-1.02-.07-1.42-.47-1.22-1.17-2.32-2.33-3.29-3.47-.05-.05-.09-.06-.13-.04-.04.03-.06.06-.06.11v1.61c0,.57-.21,1.07-.63,1.49-.42.42-.92.64-1.49.64h-4c-.22,0-.34.11-.34.34v2.76c0,.57-.21,1.07-.62,1.49-.41.42-.9.63-1.48.63h-2.69c-.57,0-1.06-.21-1.48-.63-.41-.42-.62-.92-.62-1.49v-2.76c0-.22-.11-.34-.34-.34h-4c-.57,0-1.07-.21-1.49-.64-.42-.42-.63-.92-.63-1.49v-1.61s-.03-.08-.09-.09c-.06-.01-.11,0-.13.06-1.07,1.27-2.15,2.43-3.25,3.47-.4.37-.87.52-1.42.43-.55-.09-.96-.37-1.23-.84l-1.38-2.31c-.32-.52-.43-1.09-.32-1.7.11-.61.39-1.13.84-1.55,4.48-4.11,7.87-8.2,10.16-12.29.1-.2.05-.3-.15-.3h-7.81c-.57,0-1.07-.21-1.49-.63-.42-.42-.63-.92-.63-1.49v-1.53c0-.57.21-1.07.63-1.49s.92-.63,1.49-.63h10.9c.22,0,.34-.11.34-.34v-2.76c0-.57.21-1.07.62-1.49s.9-.64,1.48-.64h2.69c.57,0,1.06.21,1.48.64.41.42.62.92.62,1.49v2.76c0,.22.11.34.34.34h10.9c.57,0,1.07.21,1.49.63.42.42.63.92.63,1.49v1.53c0,.57-.21,1.07-.63,1.49-.42.42-.92.63-1.49.63h-7.81c-.2,0-.25.1-.15.3,2.29,4.08,5.68,8.18,10.16,12.29ZM285.07,220.55v-6.65s-.02-.07-.07-.07-.09.02-.11.07c-1.59,2.49-3.19,4.73-4.78,6.72-.12.17-.09.26.11.26h4.52c.22,0,.34-.11.34-.34ZM296.8,220.89s.09-.03.11-.09c.02-.06.02-.12,0-.17-1.67-2.12-3.26-4.38-4.78-6.8-.03-.02-.06-.03-.11-.02-.05.01-.07.04-.07.09v6.65c0,.22.11.34.34.34h4.52Z"/>
      <path class="cls-3" d="M299.56,262.64l.26,2.28c.07.6-.06,1.13-.41,1.61-.35.47-.82.75-1.42.82-1.15.15-2.32.22-3.51.22-4.58,0-8.25-1.18-11-3.53-2.75-2.35-4.13-5.53-4.13-9.54,0-1.87.5-3.73,1.49-5.6,1-1.87,2.35-3.46,4.07-4.78.02,0,.04-.02.04-.07,0-.02-.01-.04-.04-.04-3.56.1-7.11.17-10.64.22-.57,0-1.06-.21-1.48-.63-.41-.42-.62-.92-.62-1.49v-2.09c0-.57.21-1.07.62-1.49.41-.42.9-.63,1.48-.63,9.63-.05,18.62-.26,26.96-.63.57-.02,1.08.16,1.51.56.44.4.67.88.69,1.46l.04,2.09c.02.6-.16,1.11-.56,1.55-.4.44-.9.68-1.49.73-4.78.47-8.38,1.61-10.79,3.4-2.42,1.79-3.62,4.03-3.62,6.72,0,2.27.72,4.05,2.17,5.34,1.44,1.29,3.34,1.94,5.68,1.94.77,0,1.54-.05,2.32-.15.6-.07,1.13.06,1.59.39.46.34.73.79.8,1.36ZM298.59,249.09c.27.5.68,1.27,1.23,2.32.25.52.27,1.06.07,1.61-.2.55-.56.95-1.08,1.2-.55.25-1.1.27-1.64.07-.55-.2-.96-.56-1.23-1.08-.12-.22-.52-.96-1.2-2.2-.27-.5-.32-1.02-.15-1.57.17-.55.52-.96,1.05-1.23h.04c.52-.27,1.07-.32,1.64-.15.57.17,1,.52,1.27,1.05ZM304.57,247.74c.82,1.57,1.24,2.38,1.27,2.43.27.52.32,1.06.13,1.61-.19.55-.54.95-1.06,1.2l-.11.07c-.52.25-1.06.28-1.62.09-.56-.19-.98-.54-1.25-1.06-.12-.25-.32-.63-.6-1.16-.27-.52-.49-.91-.63-1.16-.27-.5-.33-1.03-.17-1.61.16-.57.5-.98,1.03-1.23l.11-.04c.52-.27,1.07-.33,1.64-.17.57.16,1,.5,1.27,1.03Z"/>
      <path class="cls-3" d="M302.81,275.04c.57,0,1.07.21,1.49.64s.63.92.63,1.49v1.34c0,.57-.21,1.07-.63,1.49-.42.42-.92.63-1.49.63h-7.28c-.2,0-.3.11-.3.34v6.09c0,.12.05.31.15.56.77,1.59,1.16,3.25,1.16,4.97,0,3.66-1.03,6.44-3.1,8.35-2.07,1.9-5.5,3.16-10.31,3.75-.6.07-1.13-.07-1.59-.43-.46-.36-.75-.84-.88-1.44l-.37-1.79c-.1-.55.02-1.05.37-1.51.35-.46.81-.72,1.38-.77,1.89-.2,3.33-.41,4.31-.63s1.67-.47,2.07-.75c.4-.27.71-.65.93-1.12.02-.02.04-.06.04-.11s.01-.09.04-.11v-.07h-.07c-1.27.5-2.55.75-3.85.75-2.44,0-4.42-.68-5.94-2.05s-2.28-3.17-2.28-5.42.77-4.08,2.32-5.43c1.54-1.36,3.63-2.04,6.27-2.04.77,0,1.61.12,2.5.37h.07s.04-.01.04-.04v-1.12c0-.22-.11-.34-.34-.34h-13.97c-.57,0-1.07-.21-1.49-.63-.42-.42-.63-.92-.63-1.49v-1.34c0-.57.21-1.07.63-1.49.42-.42.92-.64,1.49-.64h13.97c.22,0,.34-.11.34-.34v-.9c0-.57.21-1.07.63-1.49.42-.42.92-.63,1.49-.63h2.46c.57,0,1.07.21,1.49.63.42.42.64.92.64,1.49v.9c0,.22.1.34.3.34h7.28ZM284.57,290.83c.49.42,1.11.63,1.89.63s1.4-.21,1.89-.63.73-.96.73-1.61-.24-1.18-.73-1.61c-.49-.42-1.11-.63-1.89-.63s-1.4.21-1.89.63c-.49.42-.73.96-.73,1.61s.24,1.18.73,1.61Z"/>
    </g>
    <g>
      <path d="M334.44,23.28c2.99,0,5.29.75,6.91,2.24,1.62,1.49,2.43,3.61,2.43,6.35,0,6.47-4.11,9.71-12.32,9.71-2.22,0-4.41-.29-6.57-.86-.57-.15-1-.49-1.29-1.01-.29-.52-.35-1.08-.21-1.68l.45-1.79c.12-.55.44-.96.93-1.25.5-.29,1.02-.34,1.57-.17,1.94.57,3.52.86,4.74.86,3.61,0,5.42-1.27,5.42-3.81,0-.95-.31-1.68-.93-2.2-.62-.52-1.49-.78-2.61-.78-.37,0-.77.06-1.19.19-.17.05-.57.2-1.18.45-.61.25-1.11.42-1.51.52-.4.1-.81.15-1.23.15h-2.09c-.57,0-1.06-.21-1.46-.63-.4-.42-.59-.92-.56-1.49l.52-11.99c.02-.6.26-1.1.69-1.51.44-.41.95-.62,1.55-.62h13.85c.57,0,1.07.21,1.49.64.42.42.63.92.63,1.49v1.72c0,.57-.21,1.07-.63,1.49s-.92.63-1.49.63h-8.92c-.22,0-.34.1-.34.3l-.19,3.58s.01.04.04.04h.11c1.19-.37,2.33-.56,3.4-.56Z"/>
      <path d="M343.07,50.15c2.07,3.86,4.48,7.26,7.25,10.19.42.42.63.93.63,1.53s-.21,1.1-.63,1.49l-1.87,1.87c-.42.42-.92.63-1.49.63s-1.06-.21-1.46-.63c-.05-.05-.1-.06-.15-.04-.05.02-.07.06-.07.11v1.05c0,2.61-.03,4.74-.09,6.39-.06,1.64-.21,3.11-.45,4.39-.24,1.28-.5,2.23-.78,2.86-.29.62-.76,1.14-1.42,1.55-.66.41-1.34.66-2.04.75-.7.09-1.66.13-2.88.13-.62,0-2.09-.07-4.41-.22-.6-.02-1.11-.26-1.53-.71-.42-.45-.65-.97-.67-1.57l-.04-1.72c-.03-.55.17-1.03.58-1.44.41-.41.9-.59,1.48-.54,1.87.12,3.04.19,3.51.19s.83-.15,1.06-.45c.24-.3.42-.93.56-1.9.14-.97.21-2.41.21-4.33v-4.52c0-.22-.11-.34-.34-.34h-6.01c-.22,0-.34.1-.34.3-.37,4.23-1.26,7.62-2.65,10.18-1.39,2.55-3.54,4.79-6.42,6.7-.5.32-1.05.44-1.64.34-.6-.1-1.1-.39-1.49-.86l-1.61-1.94c-.35-.42-.47-.91-.35-1.46.11-.55.4-.96.88-1.23,2.04-1.24,3.56-2.75,4.56-4.52,1-1.77,1.66-4.16,1.98-7.17,0-.22-.1-.34-.3-.34h-2.8c-.2,0-.37.07-.52.22l-.04.07c-.02.05-.05.07-.07.07-.4.42-.89.63-1.48.63s-1.09-.21-1.51-.63l-1.87-1.87c-.4-.42-.6-.92-.6-1.49s.2-1.07.6-1.49c2.74-2.91,5.15-6.34,7.24-10.27.27-.55.7-.94,1.27-1.18.57-.24,1.15-.26,1.72-.06l2.32.78c.55.17.93.52,1.16,1.03.22.51.21,1.03-.04,1.55-1.12,2.39-2.37,4.58-3.73,6.57-.05.05-.06.11-.02.17.04.06.09.09.17.09h13.82c.07,0,.13-.03.17-.09.04-.06.03-.12-.02-.17-1.49-2.22-2.75-4.41-3.77-6.57-.25-.52-.26-1.04-.02-1.55.24-.51.63-.85,1.18-1.03l2.32-.78c.57-.17,1.15-.14,1.72.09.57.24,1,.63,1.27,1.18Z"/>
      <path d="M348.37,87.92c.57,0,1.07.21,1.49.63.42.42.63.92.63,1.49v.97c0,.57-.21,1.07-.63,1.49-.42.42-.92.63-1.49.63h-30.1c-.57,0-1.07-.21-1.49-.63-.42-.42-.63-.92-.63-1.49v-.97c0-.57.21-1.07.63-1.49.42-.42.92-.63,1.49-.63h5.04c.07,0,.13-.03.17-.09.04-.06.03-.12-.02-.17l-.15-.3c-.25-.47-.26-.95-.04-1.42.22-.47.6-.76,1.12-.86l2.35-.49c.62-.12,1.23-.06,1.81.21.58.26,1.03.67,1.33,1.21.35.7.61,1.23.78,1.61.07.2.24.3.49.3h4.59c.22,0,.37-.09.45-.26.27-.5.52-1,.75-1.49.27-.57.68-1.01,1.23-1.33.55-.31,1.12-.42,1.72-.32l2.54.45c.55.1.95.38,1.2.84.25.46.26.94.04,1.44-.02.05-.06.11-.09.19-.04.07-.07.14-.09.19-.1.2-.04.3.19.3h4.71ZM331.94,94.64c.57,0,1.07.21,1.49.63.42.42.63.92.63,1.49v18.24c0,.51-.04,1.06-.11,1.64s-.14,1-.21,1.25c-.06.25-.21.52-.45.8-.24.29-.45.47-.65.54s-.54.16-1.03.26c-.49.1-.93.15-1.34.15h-1.81c-.42,0-.78-.01-1.08-.04-.6-.03-1.1-.26-1.51-.71-.41-.45-.63-.97-.65-1.57l-.04-.97c-.02-.55.17-1.02.58-1.42.41-.4.9-.57,1.48-.52h.49c.37,0,.59-.06.65-.17.06-.11.09-.49.09-1.14v-.6c0-.22-.11-.34-.34-.34h-3.85c-.2,0-.3.11-.3.34v5c0,.57-.21,1.07-.63,1.49-.42.42-.92.63-1.49.63h-2.46c-.57,0-1.07-.21-1.49-.63s-.63-.92-.63-1.49v-20.76c0-.57.21-1.07.63-1.49s.92-.63,1.49-.63h12.55ZM328.47,101.21v-1.05c0-.2-.11-.3-.34-.3h-3.85c-.2,0-.3.1-.3.3v1.05c0,.22.1.34.3.34h3.85c.22,0,.34-.11.34-.34ZM328.47,107.37v-1.01c0-.22-.11-.34-.34-.34h-3.85c-.2,0-.3.11-.3.34v1.01c0,.22.1.34.3.34h3.85c.22,0,.34-.11.34-.34ZM339.22,111.82h-1.53c-.57,0-1.07-.21-1.49-.63-.42-.42-.63-.92-.63-1.49v-12.55c0-.57.21-1.07.63-1.49.42-.42.92-.63,1.49-.63h1.53c.57,0,1.07.21,1.49.63.42.42.63.92.63,1.49v12.55c0,.57-.21,1.07-.63,1.49-.42.42-.92.63-1.49.63ZM347.25,94.64c.57,0,1.07.21,1.49.63.42.42.64.92.64,1.49v15.42c0,1.27-.02,2.27-.06,2.99-.04.72-.14,1.39-.32,2.02-.17.62-.37,1.07-.58,1.34-.21.27-.58.51-1.12.71-.54.2-1.09.32-1.66.35-.57.04-1.38.06-2.43.06-.62,0-1.73-.04-3.32-.11-.6-.03-1.11-.25-1.53-.67s-.66-.93-.71-1.53l-.07-1.53c-.05-.57.12-1.06.52-1.46.4-.4.87-.58,1.42-.56,1.44.05,2.18.07,2.2.07.57,0,.9-.06.99-.17.09-.11.13-.49.13-1.14v-15.8c0-.57.21-1.07.63-1.49s.92-.63,1.49-.63h2.28Z"/>
      <path d="M327.38,133.66c.5.3.83.74.99,1.33.16.59.08,1.13-.24,1.62-.4.67-1.02,1.57-1.87,2.69-.15.17-.22.37-.22.6v14.94c0,.57-.21,1.07-.63,1.49-.42.42-.92.63-1.49.63h-2.46c-.57,0-1.07-.21-1.49-.63-.42-.42-.63-.92-.63-1.49v-9.07s-.02-.09-.06-.11c-.04-.02-.08-.01-.13.04-.17.22-.54.63-1.08,1.23-.32.32-.7.42-1.14.28-.44-.14-.7-.44-.8-.91l-.67-3.29c-.27-1.37.14-2.5,1.23-3.4,2.12-1.72,4.08-3.82,5.9-6.31.35-.47.81-.77,1.4-.9.58-.12,1.14-.04,1.66.26l1.76,1.01ZM325.11,123.13l1.31,1.01c.47.35.74.81.8,1.38.06.57-.09,1.08-.47,1.53-2.02,2.32-4.27,4.31-6.76,5.98-.47.32-.98.4-1.51.22-.54-.17-.92-.51-1.14-1.01l-.9-1.9c-.25-.55-.29-1.11-.11-1.7.17-.58.51-1.04,1.01-1.36,1.67-1.12,3.21-2.4,4.63-3.85.42-.42.93-.67,1.51-.73.58-.06,1.13.08,1.62.43ZM349.12,133.06c.57,0,1.07.21,1.49.63s.64.92.64,1.49v1.53c0,.57-.21,1.07-.64,1.49-.42.42-.92.63-1.49.63h-2.76c-.22,0-.34.11-.34.34v9.93c0,1.27-.02,2.27-.06,2.99-.04.72-.16,1.39-.35,2.02-.2.62-.42,1.07-.67,1.34-.25.27-.68.51-1.29.71-.61.2-1.25.32-1.92.35-.67.04-1.61.06-2.8.06-.67,0-1.94-.04-3.81-.11-.6-.03-1.13-.25-1.59-.67-.46-.42-.7-.93-.73-1.53l-.07-1.53c-.02-.55.16-1.03.54-1.44.39-.41.86-.6,1.44-.58,1.02.05,1.99.07,2.91.07.62,0,1-.06,1.12-.17.12-.11.19-.49.19-1.14v-10.31c0-.22-.11-.34-.34-.34h-7.99c-.57,0-1.07-.21-1.49-.63-.42-.42-.63-.92-.63-1.49v-1.53c0-.57.21-1.07.63-1.49.42-.42.92-.63,1.49-.63h18.52ZM331.71,123.54h15.91c.57,0,1.07.21,1.49.63.42.42.63.92.63,1.49v1.53c0,.57-.21,1.07-.63,1.49s-.92.63-1.49.63h-15.91c-.57,0-1.07-.21-1.49-.63s-.63-.92-.63-1.49v-1.53c0-.57.21-1.07.63-1.49.42-.42.92-.63,1.49-.63Z"/>
      <path d="M348.56,167.24c.57,0,1.07.21,1.49.63.42.42.63.92.63,1.49v1.98c0,9.81-.24,15.96-.71,18.45-.37,1.99-1.08,3.2-2.13,3.62-.52.22-1.44.34-2.76.34-.65,0-1.69-.06-3.14-.19-.6-.05-1.1-.3-1.51-.75-.41-.45-.63-.97-.65-1.57l-.04-1.98s-.02-.04-.06-.04-.07.01-.09.04c-.42,1.07-.97,2.22-1.64,3.44-.27.5-.69.8-1.25.9-.56.1-1.06-.02-1.51-.37l-.56-.45c-.17-.12-.35-.12-.52,0-.32.25-.69.39-1.08.41-3.93.3-8.86.58-14.79.86-.6.02-1.11-.16-1.53-.56-.42-.4-.66-.88-.71-1.46l-.07-.63c-.05-.57.12-1.08.5-1.51.39-.44.86-.67,1.44-.69,2.09-.05,3.66-.1,4.71-.15.2,0,.3-.11.3-.34v-.6c0-.22-.11-.34-.34-.34h-4.15c-.55,0-1.03-.21-1.44-.62-.41-.41-.62-.89-.62-1.44s.21-1.03.62-1.44c.41-.41.89-.62,1.44-.62h4.15c.22,0,.34-.1.34-.3v-.49c0-.22-.11-.34-.34-.34h-3.51c-.57,0-1.07-.21-1.49-.63-.42-.42-.63-.92-.63-1.49v-6.57c0-.57.21-1.07.63-1.49.42-.42.92-.63,1.49-.63h3.51c.22,0,.34-.1.34-.3v-.49c0-.22-.11-.34-.34-.34h-4.33c-.57,0-1.06-.21-1.46-.62-.4-.41-.6-.89-.6-1.44s.2-1.03.6-1.44c.4-.41.88-.62,1.46-.62h4.33c.22,0,.34-.11.34-.34v-.56c0-.2-.1-.3-.3-.3-1.67.1-2.85.16-3.55.19-.6.03-1.12-.16-1.57-.54-.45-.39-.7-.88-.75-1.48v-.07c-.05-.57.11-1.08.49-1.51.37-.44.85-.68,1.42-.73,4.41-.22,9.04-.6,13.89-1.12.57-.05,1.1.1,1.57.45.47.35.75.81.82,1.38l.04.3c.07.57-.07,1.09-.45,1.55-.37.46-.85.72-1.42.77-.4.05-.97.11-1.72.17-.75.06-1.29.11-1.64.13-.2,0-.3.11-.3.34v1.05c0,.22.11.34.34.34h3.21c.77,0,1.36.32,1.76.97.07.15.2.17.37.07.35-.2.72-.3,1.12-.3h.82c.22,0,.34-.1.34-.3.05-2.09.07-3.77.07-5.04,0-.57.21-1.07.63-1.49.42-.42.92-.63,1.49-.63h1.34c.57,0,1.07.21,1.49.63.42.42.63.92.63,1.49,0,1.25-.02,2.91-.07,5,0,.22.1.34.3.34h5.3ZM323.24,175.71v-.67c0-.22-.11-.34-.34-.34h-.86c-.2,0-.3.11-.3.34v.67c0,.2.1.3.3.3h.86c.22,0,.34-.1.34-.3ZM323.24,179.22v-.67c0-.2-.11-.3-.34-.3h-.86c-.2,0-.3.1-.3.3v.67c0,.22.1.34.3.34h.86c.22,0,.34-.11.34-.34ZM329.03,175.04v.67c0,.2.11.3.34.3h.82c.22,0,.34-.1.34-.3v-.67c0-.22-.11-.34-.34-.34h-.82c-.22,0-.34.11-.34.34ZM329.03,179.22c0,.22.11.34.34.34h.82c.22,0,.34-.11.34-.34v-.67c0-.2-.11-.3-.34-.3h-.82c-.22,0-.34.1-.34.3v.67ZM333.66,188.48c1.79-3.51,2.93-8.61,3.4-15.31,0-.22-.1-.34-.3-.34h-.56c-.57,0-1.07-.21-1.49-.63-.42-.42-.63-.92-.63-1.49v-.11c0-.07-.03-.13-.09-.17-.06-.04-.12-.04-.17-.02-.3.12-.58.19-.86.19h-3.21c-.22,0-.34.1-.34.3v.49c0,.22.11.34.34.34h3.14c.57,0,1.07.21,1.49.63.42.42.63.92.63,1.49v6.57c0,.57-.21,1.07-.63,1.49-.42.42-.92.63-1.49.63h-3.14c-.22,0-.34.1-.34.3v.49c0,.22.11.34.34.34h2.65c.57,0,1.06.21,1.46.62.4.41.6.89.6,1.44s-.2,1.03-.6,1.44c-.4.41-.88.62-1.46.62h-2.65c-.22,0-.34.11-.34.34v.34c0,.22.11.34.34.34.37-.02.9-.06,1.57-.09.67-.04,1.15-.06,1.42-.06.22,0,.39.01.49.04.2.05.35-.01.45-.19ZM344.15,176.39v-3.21c0-.22-.11-.34-.34-.34h-.82c-.22,0-.34.1-.34.3-.4,5.8-1.17,10.48-2.32,14.04-.05.2.02.32.22.37,1,.15,1.76.22,2.28.22.27,0,.48-.1.62-.3.14-.2.26-.68.37-1.44.11-.76.19-1.9.24-3.44.05-1.53.07-3.6.07-6.22Z"/>
      <path d="M343.81,199.71c.67.82,2.09,2.58,4.26,5.27.35.45.48.95.39,1.51-.09.56-.37,1.01-.84,1.36l-1.34.97c-.5.32-1.03.44-1.61.35-.57-.09-1.05-.37-1.42-.84-.47-.57-1.83-2.22-4.07-4.93-.37-.45-.54-.96-.49-1.53.05-.57.3-1.03.75-1.38l1.38-1.12c.47-.37,1-.52,1.57-.45.57.07,1.05.34,1.42.78Z"/>
      <path d="M304.79,182.32c.55.17.94.52,1.18,1.03.24.51.25,1.03.06,1.55l-.49,1.27c-.22.55-.6.95-1.14,1.2-.54.25-1.08.27-1.62.07-1.05-.4-1.96-.78-2.73-1.16-.1-.05-.15-.01-.15.11,0,.32-.12.6-.35.84s-.52.35-.84.35h-6.31c-.22,0-.34.11-.34.34v.49c0,.2.11.3.34.3h10.61c.57,0,1.07.21,1.49.63.42.42.63.92.63,1.49v.78c0,.57-.21,1.07-.63,1.49-.42.42-.92.63-1.49.63h-28.98c-.57,0-1.07-.21-1.49-.63s-.64-.92-.64-1.49v-.78c0-.57.21-1.07.64-1.49s.92-.63,1.49-.63h10.61c.22,0,.34-.1.34-.3v-.49c0-.22-.11-.34-.34-.34h-6.35c-.32,0-.6-.11-.82-.34s-.34-.5-.34-.82c0-.12-.06-.16-.19-.11-1.64.72-2.54,1.11-2.69,1.16-.55.2-1.09.17-1.62-.09-.54-.26-.92-.67-1.14-1.21l-.49-1.27c-.2-.52-.18-1.04.06-1.55.24-.51.63-.85,1.18-1.03,1.24-.37,2.44-.81,3.58-1.31.05-.02.07-.06.07-.09s-.03-.06-.07-.06h-2.35c-.57,0-1.07-.21-1.49-.63-.42-.42-.63-.92-.63-1.49v-.6c0-.57.21-1.07.63-1.49.42-.42.92-.63,1.49-.63h2.76c.22,0,.34-.1.34-.3v-8.14c0-.22-.11-.34-.34-.34h-2.39c-.57,0-1.07-.21-1.49-.63s-.63-.92-.63-1.49v-.78c0-.57.21-1.07.63-1.49.42-.42.92-.63,1.49-.63h2.39c.22,0,.34-.11.34-.34v-.34c0-.57.21-1.07.64-1.49s.92-.63,1.49-.63h2.65c.57,0,1.07.21,1.49.63.42.42.63.92.63,1.49v.34c0,.22.11.34.34.34h9.41c.22,0,.34-.11.34-.34v-.34c0-.57.21-1.07.63-1.49.42-.42.92-.63,1.49-.63h2.65c.57,0,1.07.21,1.49.63.42.42.63.92.63,1.49v.34c0,.22.11.34.34.34h2.39c.57,0,1.07.21,1.49.63.42.42.63.92.63,1.49v.78c0,.57-.21,1.07-.63,1.49-.42.42-.92.63-1.49.63h-2.39c-.22,0-.34.11-.34.34v8.14c0,.2.11.3.34.3h2.76c.57,0,1.07.21,1.49.63.42.42.63.92.63,1.49v.6c0,.57-.21,1.07-.63,1.49s-.92.63-1.49.63h-2.35s-.07.02-.07.06.02.07.07.09c1.15.5,2.34.93,3.58,1.31ZM294.89,183.29s.09-.02.11-.06c.02-.04.01-.08-.04-.13-.67-.55-1.34-1.21-2.02-1.98-.17-.17-.36-.26-.56-.26h-7.58c-.2,0-.37.07-.52.22-.8.85-1.49,1.51-2.09,1.98-.05.03-.07.07-.06.13.01.06.04.09.09.09h2.5c.15,0,.22-.07.22-.22,0-.42.14-.77.43-1.05.29-.27.63-.41,1.03-.41h4.18c.4,0,.74.14,1.03.41.29.27.43.62.43,1.05,0,.15.07.22.22.22h2.61ZM283.47,167.57v.3c0,.2.11.3.34.3h9.41c.22,0,.34-.1.34-.3v-.3c0-.22-.11-.34-.34-.34h-9.41c-.22,0-.34.11-.34.34ZM283.47,171.49v.26c0,.22.11.34.34.34h9.41c.22,0,.34-.11.34-.34v-.26c0-.22-.11-.34-.34-.34h-9.41c-.22,0-.34.11-.34.34ZM283.47,175.41v.3c0,.2.11.3.34.3h9.41c.22,0,.34-.1.34-.3v-.3c0-.22-.11-.34-.34-.34h-9.41c-.22,0-.34.11-.34.34Z"/>
      <path d="M305.39,220.53c.45.42.73.94.84,1.55.11.61,0,1.18-.32,1.7l-1.38,2.31c-.27.47-.69.75-1.23.84-.55.09-1.02-.07-1.42-.47-1.22-1.17-2.32-2.33-3.29-3.47-.05-.05-.09-.06-.13-.04-.04.03-.06.06-.06.11v1.61c0,.57-.21,1.07-.63,1.49-.42.42-.92.64-1.49.64h-4c-.22,0-.34.11-.34.34v2.76c0,.57-.21,1.07-.62,1.49-.41.42-.9.63-1.48.63h-2.69c-.57,0-1.06-.21-1.48-.63-.41-.42-.62-.92-.62-1.49v-2.76c0-.22-.11-.34-.34-.34h-4c-.57,0-1.07-.21-1.49-.64-.42-.42-.63-.92-.63-1.49v-1.61s-.03-.08-.09-.09c-.06-.01-.11,0-.13.06-1.07,1.27-2.15,2.43-3.25,3.47-.4.37-.87.52-1.42.43-.55-.09-.96-.37-1.23-.84l-1.38-2.31c-.32-.52-.43-1.09-.32-1.7.11-.61.39-1.13.84-1.55,4.48-4.11,7.87-8.2,10.16-12.29.1-.2.05-.3-.15-.3h-7.81c-.57,0-1.07-.21-1.49-.63-.42-.42-.63-.92-.63-1.49v-1.53c0-.57.21-1.07.63-1.49s.92-.63,1.49-.63h10.9c.22,0,.34-.11.34-.34v-2.76c0-.57.21-1.07.62-1.49s.9-.64,1.48-.64h2.69c.57,0,1.06.21,1.48.64.41.42.62.92.62,1.49v2.76c0,.22.11.34.34.34h10.9c.57,0,1.07.21,1.49.63.42.42.63.92.63,1.49v1.53c0,.57-.21,1.07-.63,1.49-.42.42-.92.63-1.49.63h-7.81c-.2,0-.25.1-.15.3,2.29,4.08,5.68,8.18,10.16,12.29ZM285.07,220.86v-6.65s-.02-.07-.07-.07-.09.02-.11.07c-1.59,2.49-3.19,4.73-4.78,6.72-.12.17-.09.26.11.26h4.52c.22,0,.34-.11.34-.34ZM296.8,221.2s.09-.03.11-.09c.02-.06.02-.12,0-.17-1.67-2.12-3.26-4.38-4.78-6.8-.03-.02-.06-.03-.11-.02-.05.01-.07.04-.07.09v6.65c0,.22.11.34.34.34h4.52Z"/>
      <path d="M299.56,262.95l.26,2.28c.07.6-.06,1.13-.41,1.61-.35.47-.82.75-1.42.82-1.15.15-2.32.22-3.51.22-4.58,0-8.25-1.18-11-3.53-2.75-2.35-4.13-5.53-4.13-9.54,0-1.87.5-3.73,1.49-5.6,1-1.87,2.35-3.46,4.07-4.78.02,0,.04-.02.04-.07,0-.02-.01-.04-.04-.04-3.56.1-7.11.17-10.64.22-.57,0-1.06-.21-1.48-.63-.41-.42-.62-.92-.62-1.49v-2.09c0-.57.21-1.07.62-1.49.41-.42.9-.63,1.48-.63,9.63-.05,18.62-.26,26.96-.63.57-.02,1.08.16,1.51.56.44.4.67.88.69,1.46l.04,2.09c.02.6-.16,1.11-.56,1.55-.4.44-.9.68-1.49.73-4.78.47-8.38,1.61-10.79,3.4-2.42,1.79-3.62,4.03-3.62,6.72,0,2.27.72,4.05,2.17,5.34,1.44,1.29,3.34,1.94,5.68,1.94.77,0,1.54-.05,2.32-.15.6-.07,1.13.06,1.59.39.46.34.73.79.8,1.36ZM298.59,249.39c.27.5.68,1.27,1.23,2.32.25.52.27,1.06.07,1.61-.2.55-.56.95-1.08,1.2-.55.25-1.1.27-1.64.07-.55-.2-.96-.56-1.23-1.08-.12-.22-.52-.96-1.2-2.2-.27-.5-.32-1.02-.15-1.57.17-.55.52-.96,1.05-1.23h.04c.52-.27,1.07-.32,1.64-.15.57.17,1,.52,1.27,1.05ZM304.57,248.05c.82,1.57,1.24,2.38,1.27,2.43.27.52.32,1.06.13,1.61-.19.55-.54.95-1.06,1.2l-.11.07c-.52.25-1.06.28-1.62.09-.56-.19-.98-.54-1.25-1.06-.12-.25-.32-.63-.6-1.16-.27-.52-.49-.91-.63-1.16-.27-.5-.33-1.03-.17-1.61.16-.57.5-.98,1.03-1.23l.11-.04c.52-.27,1.07-.33,1.64-.17.57.16,1,.5,1.27,1.03Z"/>
      <path d="M302.81,275.35c.57,0,1.07.21,1.49.64s.63.92.63,1.49v1.34c0,.57-.21,1.07-.63,1.49-.42.42-.92.63-1.49.63h-7.28c-.2,0-.3.11-.3.34v6.09c0,.12.05.31.15.56.77,1.59,1.16,3.25,1.16,4.97,0,3.66-1.03,6.44-3.1,8.35-2.07,1.9-5.5,3.16-10.31,3.75-.6.07-1.13-.07-1.59-.43-.46-.36-.75-.84-.88-1.44l-.37-1.79c-.1-.55.02-1.05.37-1.51.35-.46.81-.72,1.38-.77,1.89-.2,3.33-.41,4.31-.63s1.67-.47,2.07-.75c.4-.27.71-.65.93-1.12.02-.02.04-.06.04-.11s.01-.09.04-.11v-.07h-.07c-1.27.5-2.55.75-3.85.75-2.44,0-4.42-.68-5.94-2.05s-2.28-3.17-2.28-5.42.77-4.08,2.32-5.43c1.54-1.36,3.63-2.04,6.27-2.04.77,0,1.61.12,2.5.37h.07s.04-.01.04-.04v-1.12c0-.22-.11-.34-.34-.34h-13.97c-.57,0-1.07-.21-1.49-.63-.42-.42-.63-.92-.63-1.49v-1.34c0-.57.21-1.07.63-1.49.42-.42.92-.64,1.49-.64h13.97c.22,0,.34-.11.34-.34v-.9c0-.57.21-1.07.63-1.49.42-.42.92-.63,1.49-.63h2.46c.57,0,1.07.21,1.49.63.42.42.64.92.64,1.49v.9c0,.22.1.34.3.34h7.28ZM284.57,291.14c.49.42,1.11.63,1.89.63s1.4-.21,1.89-.63.73-.96.73-1.61-.24-1.18-.73-1.61c-.49-.42-1.11-.63-1.89-.63s-1.4.21-1.89.63c-.49.42-.73.96-.73,1.61s.24,1.18.73,1.61Z"/>
    </g>
    <ellipse class="cls-9" cx="164.64" cy="304.54" rx="70.14" ry="4.53"/>
    <ellipse class="cls-6" cx="54.93" cy="180.02" rx="18.67" ry="6.54"/>
    <path class="cls-7" d="M227.64,228.97c16.16-37.01-4.64-73.83-14.28-74.25l-30.7.23c10.68,32.88,7.42,63.96,7.42,63.96l37.55,10.07Z"/>
    <path class="cls-7" d="M136.96,190.52c-27.01,16.05-74.56,2.74-74.56,2.74l-7.48-30.7c34.44,3.34,64.12-6.52,64.12-6.52l17.92,34.47Z"/>
    <path class="cls-7" d="M222.87,245.41c-.36,29.45-14.42,46.46-14.42,46.46h-84.06c-14.46-22.17-14.42-46.46-14.42-46.46h112.9Z"/>
    <polygon class="cls-7" points="234.21 246.9 98.64 246.9 122.28 126.51 207.93 126.51 234.21 246.9"/>
    <polygon class="cls-7" points="138.45 154.94 116.7 154.94 125.83 170.76 139.94 171.99 129.25 179.55 162 218.46 138.45 154.94"/>
    <polygon class="cls-7" points="191.39 154.94 213.14 154.94 204.01 170.76 189.9 171.99 200.59 179.55 167.84 218.46 191.39 154.94"/>
    <polygon class="cls-7" points="138.55 154.94 165.04 154.94 191.4 154.92 185.66 170.41 165.04 156.05 144.13 169.98 138.55 154.94"/>
    <polygon class="cls-2" points="154.8 162.87 157.96 173.48 172.55 173.48 175.27 162.87 165.04 156.05 154.8 162.87"/>
    <polygon class="cls-2" points="157.96 173.48 150.02 186.16 164.89 225.97 179.27 187.73 172.55 173.48 157.96 173.48"/>
    <line class="cls-5" x1="164.64" y1="291.45" x2="164.64" y2="260.96"/>
    <ellipse class="cls-10" cx="137.94" cy="295.18" rx="26.7" ry="12.43"/>
    <ellipse class="cls-10" cx="191.35" cy="295.18" rx="26.7" ry="12.43"/>
    <rect class="cls-4" x="59.33" y="13.63" width="211.42" height="141.08"/>
    <ellipse class="cls-2" cx="165.04" cy="86.2" rx="42.81" ry="42.77"/>
    <path class="cls-11" d="M82.39,28.18c.21,2.58,3.65,8.54,5.13,14.08,1.76,6.6-2.69,12.36-6.02,12.36s-6.86-5.59-6.02-12.36c.4-3.24,2.46-6.1,3.01-8.74"/>
    <g>
      <path class="cls-1" d="M65.89,77.11c-2.22,0-4.41.14-6.56.41v77.19h51.07c4.5-7.65,7.08-16.56,7.08-26.07,0-28.46-23.1-51.53-51.59-51.53Z"/>
      <ellipse class="cls-10" cx="63.05" cy="129.81" rx="50.9" ry="50.85"/>
      <ellipse class="cls-4" cx="63.05" cy="129.81" rx="43.17" ry="43.13"/>
      <line class="cls-5" x1="63.12" y1="130.61" x2="49.55" y2="103.84"/>
      <line class="cls-5" x1="63.05" y1="130.71" x2="53.68" y2="149.27"/>
      <circle class="cls-8" cx="63.05" cy="130.61" r="1.62"/>
    </g>
  </g>
</svg>