<?xml version="1.0" encoding="UTF-8"?>
<svg id="_レイヤー_1" data-name="レイヤー 1" xmlns="http://www.w3.org/2000/svg" viewBox="0 0 370 320">
  <defs>
    <style>
      .cls-1 {
        opacity: .2;
      }

      .cls-1, .cls-2, .cls-3, .cls-4, .cls-5, .cls-6, .cls-7, .cls-8, .cls-9, .cls-10 {
        stroke-linecap: round;
        stroke-linejoin: round;
      }

      .cls-1, .cls-2, .cls-4, .cls-5, .cls-6, .cls-7, .cls-8, .cls-9, .cls-10 {
        stroke: #000;
        stroke-width: 2px;
      }

      .cls-2 {
        fill: red;
      }

      .cls-3 {
        stroke: #fff;
        stroke-width: 5px;
      }

      .cls-3, .cls-4 {
        fill: #fff;
      }

      .cls-5 {
        fill: none;
      }

      .cls-6 {
        fill: #f4db8e;
      }

      .cls-7 {
        fill: #1b1464;
      }

      .cls-8 {
        opacity: .3;
      }

      .cls-9 {
        fill: #40210f;
      }

      .cls-10 {
        fill: #009fe8;
      }
    </style>
  </defs>
  <g id="_作り笑い中" data-name="作り笑い中">
    <g>
      <path class="cls-3" d="M344.62,19.4c.91,0,1.69.34,2.37,1.01.67.67,1.01,1.46,1.01,2.37v2.13c0,.91-.34,1.7-1.01,2.37-.67.67-1.46,1.01-2.37,1.01h-12.42c-.32,0-.47.16-.47.47v5.79c0,.35.16.53.47.53h10.64c.91,0,1.69.33,2.37,1,.67.67,1.01,1.46,1.01,2.37v2.13c0,.91-.34,1.69-1.01,2.37-.67.67-1.46,1.01-2.37,1.01h-10.64c-.32,0-.47.16-.47.47v5.79c0,.36.16.53.47.53h10.64c.91,0,1.69.33,2.37,1.01.67.67,1.01,1.46,1.01,2.37v2.42c0,.91-.34,1.7-1.01,2.37-.67.67-1.46,1.01-2.37,1.01h-10.64c-.32,0-.47.16-.47.47v5.32c0,.91-.34,1.69-1.01,2.37-.67.67-1.46,1.01-2.37,1.01h-4.2c-.91,0-1.7-.33-2.37-1.01-.67-.67-1.01-1.46-1.01-2.37v-31.75c0-.08-.03-.12-.09-.12s-.11.04-.15.12c-.95,2.01-2.21,4.47-3.78,7.39-.39.75-1.03,1.21-1.89,1.39-.87.18-1.64,0-2.31-.56l-3.37-2.66c-.32-.24-.61-.59-.89-1.06-.04-.04-.09-.06-.15-.06s-.09.04-.09.12v27.2c0,.91-.34,1.69-1.01,2.37-.67.67-1.46,1.01-2.37,1.01h-3.9c-.91,0-1.7-.33-2.37-1.01-.67-.67-1.01-1.46-1.01-2.37v-19.45c0-.08-.03-.12-.09-.12s-.11.02-.15.06c-.16.24-.38.55-.65.95-.28.39-.43.63-.47.71-.43.55-.99.75-1.66.59-.67-.16-1.1-.57-1.3-1.24l-1.42-5.62c-.47-2.09-.04-4.04,1.3-5.85,3.94-5.12,6.68-11.16,8.22-18.09.2-.91.68-1.62,1.45-2.13.77-.51,1.61-.69,2.51-.53l3.13.59c.91.2,1.63.68,2.16,1.45.53.77.72,1.61.56,2.51-.67,3.27-1.6,6.43-2.78,9.46-.12.32-.18.61-.18.89v4.49c0,.08.03.12.09.12s.11-.02.15-.06c3.04-5.6,5.64-11.41,7.81-17.44.32-.91.9-1.61,1.74-2.1.85-.49,1.74-.64,2.69-.44l3.84.77c.87.16,1.52.61,1.95,1.36.43.75.51,1.54.24,2.37-.08.32.04.47.36.47h17.68Z"/>
      <path class="cls-3" d="M324.93,77.86c5.24,0,9.41,1.76,12.51,5.29,3.09,3.53,4.64,8.47,4.64,14.81,0,9.42-2.6,16.4-7.81,20.93-5.2,4.53-13.52,7-24.95,7.39-.95.04-1.74-.27-2.39-.92-.65-.65-1.02-1.45-1.09-2.39l-.24-3.31c-.04-.91.25-1.69.86-2.37.61-.67,1.37-1.03,2.28-1.06,8.16-.28,13.79-1.76,16.88-4.47,3.09-2.7,4.64-7.3,4.64-13.81s-2.17-9.46-6.5-9.46c-3.27,0-6.21,1.4-8.81,4.2-2.6,2.8-4.22,6.39-4.85,10.76-.12.95-.51,1.74-1.18,2.4-.67.65-1.48.98-2.42.98h-3.9c-.91,0-1.7-.33-2.37-1.01-.67-.67-1-1.46-1-2.37v-23.42c0-.91.33-1.69,1-2.37.67-.67,1.46-1.01,2.37-1.01h4.2c.91,0,1.69.33,2.37,1.01.67.67,1,1.46,1,2.37v4.91l.12-.06c4.22-4.69,9.11-7.04,14.66-7.04Z"/>
      <path class="cls-3" d="M343.73,163.07c.91,0,1.69.34,2.37,1.01.67.67,1,1.46,1,2.37v2.13c0,.91-.34,1.7-1,2.37-.67.67-1.46,1-2.37,1h-15.73c-.08,0-.14.04-.18.12-.04.08-.02.14.06.18,2.92,2.21,8.22,3.84,15.91,4.91.83.12,1.46.55,1.89,1.3.43.75.49,1.5.18,2.25l-1.36,3.25c-.39.91-1.02,1.6-1.86,2.07-.85.47-1.76.61-2.75.41-8.67-1.85-15.36-5.03-20.05-9.52-.24-.24-.45-.24-.65,0-4.18,4.69-10.82,7.88-19.93,9.58-.99.16-1.89,0-2.72-.47-.83-.47-1.44-1.16-1.83-2.07l-1.36-3.25c-.32-.75-.26-1.5.18-2.25.43-.75,1.06-1.18,1.89-1.3,7.25-.95,12.1-2.56,14.55-4.85.08-.08.1-.16.06-.24-.04-.08-.1-.12-.18-.12h-14.37c-.91,0-1.7-.33-2.37-1-.67-.67-1.01-1.46-1.01-2.37v-2.13c0-.91.33-1.69,1.01-2.37.67-.67,1.46-1.01,2.37-1.01h17.74c.39,0,.59-.16.59-.47.04-.32.06-.83.06-1.54,0-.32-.16-.47-.47-.47-4.93.24-8.81.38-11.65.41-.95,0-1.78-.33-2.51-.98-.73-.65-1.11-1.45-1.15-2.4l-.12-1.83c-.08-.91.2-1.69.83-2.37.63-.67,1.38-1.01,2.25-1.01,11.83-.16,22.47-1.12,31.93-2.9.08,0,.12-.04.12-.12s-.04-.14-.12-.18c-.79-.39-1.38-1.06-1.77-2.01-.08-.16-.19-.43-.33-.83-.14-.39-.25-.67-.33-.83-.16-.36-.39-.53-.71-.53-.36,0-.63.14-.83.41-.47.59-1.22,1.44-2.25,2.54-.67.71-1.49,1.08-2.45,1.12-.97.04-1.82-.26-2.57-.89l-3.37-2.9c-.2-.2-.49-.3-.89-.3h-2.72c-.32,0-.43.16-.36.47,0,.04.04.12.12.24.08.12.12.22.12.3.32.83.27,1.64-.15,2.42-.41.79-1.07,1.28-1.98,1.48l-3.25.83c-.91.24-1.78.13-2.63-.33-.85-.45-1.43-1.13-1.74-2.04l-1.24-3.19c-.08-.12-.2-.18-.36-.18s-.32.08-.47.24c-1.1,1.38-2.09,2.5-2.96,3.37-.67.67-1.47,1-2.4.98-.93-.02-1.72-.36-2.39-1.04l-1.77-1.77c-.63-.67-.95-1.47-.95-2.4s.32-1.72.95-2.4c1.85-2.09,3.43-4.32,4.73-6.68.47-.87,1.15-1.54,2.04-2.01.89-.47,1.8-.63,2.75-.47l3.73.59c.63.08,1.11.39,1.45.95.33.55.38,1.12.15,1.72-.08.24,0,.35.24.35h8.16c.91,0,1.69.34,2.37,1.01.67.67,1.01,1.46,1.01,2.37v1.3c0,.08.03.14.09.18s.13.02.21-.06c1.69-2.05,3.07-4,4.14-5.85.47-.87,1.15-1.55,2.04-2.04.89-.49,1.8-.66,2.75-.5l3.73.59c.63.08,1.11.39,1.45.95.33.55.38,1.12.15,1.72-.08.24,0,.35.24.35h8.75c.91,0,1.69.34,2.37,1.01.67.67,1.01,1.46,1.01,2.37v1.83c0,.91-.34,1.7-1.01,2.37-.67.67-1.46,1.01-2.37,1.01h-2.01c-.28,0-.38.12-.3.35.28.67.24,1.33-.12,1.98-.35.65-.89,1.07-1.6,1.27l-.47.12s-.06.09-.06.15.02.11.06.15c.95.39,1.63,1.06,2.07,2.01l.95,2.42c.32.83.3,1.64-.06,2.42s-.97,1.28-1.83,1.48c-3.94.91-8.73,1.66-14.37,2.25-.36.08-.53.28-.53.59,0,.24-.04.61-.12,1.12-.08.51-.12.91-.12,1.18,0,.35.16.53.47.53h18.33Z"/>
      <path class="cls-3" d="M324.75,224.09c.87.32,1.5.9,1.89,1.74.39.85.41,1.71.06,2.57-2.09,5.01-4.64,8.89-7.66,11.65-3.02,2.76-5.98,4.14-8.9,4.14-3.63,0-7-2.35-10.11-7.04-3.11-4.69-4.67-10.43-4.67-17.21,0-6.07.77-12.08,2.31-18.04.24-.95.76-1.69,1.57-2.25.81-.55,1.7-.77,2.69-.65l4.32.47c.87.08,1.55.48,2.04,1.21.49.73.64,1.53.44,2.4-1.42,5.99-2.13,11.61-2.13,16.85,0,1.85.15,3.62.44,5.29.3,1.68.68,3.06,1.15,4.14.47,1.09.96,1.95,1.45,2.6.49.65.95.98,1.39.98.63,0,1.5-.7,2.6-2.1,1.1-1.4,2.27-3.44,3.49-6.12.39-.83,1.01-1.42,1.86-1.77.85-.35,1.7-.37,2.57-.06l3.19,1.18ZM333.8,199.01c.95-.27,1.85-.22,2.72.18.87.39,1.48,1.03,1.83,1.89,4.06,9.86,6.27,20.93,6.62,33.23.04.91-.28,1.7-.95,2.37-.67.67-1.46,1.01-2.37,1.01h-4.49c-.91,0-1.7-.32-2.37-.98-.67-.65-1.03-1.43-1.06-2.34-.35-10.6-2.29-20.68-5.79-30.22-.32-.87-.28-1.7.12-2.51.39-.81,1.02-1.33,1.89-1.57l3.84-1.06Z"/>
      <path class="cls-3" d="M342.26,259.69c.91,0,1.69.33,2.37,1.01.67.67,1.01,1.46,1.01,2.37v26.37c0,.91-.34,1.7-1.01,2.37-.67.67-1.46,1.01-2.37,1.01h-4.43c-.71,0-1.31-.25-1.8-.74-.49-.49-.74-1.09-.74-1.8,0-.28-.14-.41-.41-.41h-9.11c-.36,0-.53.18-.53.53v12.36c0,.91-.34,1.69-1.01,2.37-.67.67-1.46,1.01-2.37,1.01h-4.49c-.91,0-1.7-.34-2.37-1.01-.67-.67-1.01-1.46-1.01-2.37v-12.36c0-.36-.18-.53-.53-.53h-9.11c-.28,0-.41.14-.41.41,0,.71-.25,1.31-.74,1.8-.49.49-1.09.74-1.8.74h-4.43c-.91,0-1.7-.33-2.37-1.01-.67-.67-1.01-1.46-1.01-2.37v-26.37c0-.91.33-1.69,1.01-2.37.67-.67,1.46-1.01,2.37-1.01h16.5c.36,0,.53-.18.53-.53v-5.26c0-.91.33-1.69,1.01-2.37.67-.67,1.46-1,2.37-1h4.49c.91,0,1.69.33,2.37,1,.67.67,1.01,1.46,1.01,2.37v5.26c0,.36.18.53.53.53h16.5ZM304.47,280.98h8.99c.36,0,.53-.18.53-.53v-11.12c0-.32-.18-.47-.53-.47h-8.99c-.36,0-.53.16-.53.47v11.12c0,.35.18.53.53.53ZM335.28,280.45v-11.12c0-.32-.18-.47-.53-.47h-8.99c-.36,0-.53.16-.53.47v11.12c0,.35.18.53.53.53h8.99c.36,0,.53-.18.53-.53Z"/>
    </g>
    <g>
      <path d="M344.62,19.4c.91,0,1.69.34,2.37,1.01.67.67,1.01,1.46,1.01,2.37v2.13c0,.91-.34,1.7-1.01,2.37-.67.67-1.46,1.01-2.37,1.01h-12.42c-.32,0-.47.16-.47.47v5.79c0,.35.16.53.47.53h10.64c.91,0,1.69.33,2.37,1,.67.67,1.01,1.46,1.01,2.37v2.13c0,.91-.34,1.69-1.01,2.37-.67.67-1.46,1.01-2.37,1.01h-10.64c-.32,0-.47.16-.47.47v5.79c0,.36.16.53.47.53h10.64c.91,0,1.69.33,2.37,1.01.67.67,1.01,1.46,1.01,2.37v2.42c0,.91-.34,1.7-1.01,2.37-.67.67-1.46,1.01-2.37,1.01h-10.64c-.32,0-.47.16-.47.47v5.32c0,.91-.34,1.69-1.01,2.37-.67.67-1.46,1.01-2.37,1.01h-4.2c-.91,0-1.7-.33-2.37-1.01-.67-.67-1.01-1.46-1.01-2.37v-31.75c0-.08-.03-.12-.09-.12s-.11.04-.15.12c-.95,2.01-2.21,4.47-3.78,7.39-.39.75-1.03,1.21-1.89,1.39-.87.18-1.64,0-2.31-.56l-3.37-2.66c-.32-.24-.61-.59-.89-1.06-.04-.04-.09-.06-.15-.06s-.09.04-.09.12v27.2c0,.91-.34,1.69-1.01,2.37-.67.67-1.46,1.01-2.37,1.01h-3.9c-.91,0-1.7-.33-2.37-1.01-.67-.67-1.01-1.46-1.01-2.37v-19.45c0-.08-.03-.12-.09-.12s-.11.02-.15.06c-.16.24-.38.55-.65.95-.28.39-.43.63-.47.71-.43.55-.99.75-1.66.59-.67-.16-1.1-.57-1.3-1.24l-1.42-5.62c-.47-2.09-.04-4.04,1.3-5.85,3.94-5.12,6.68-11.16,8.22-18.09.2-.91.68-1.62,1.45-2.13.77-.51,1.61-.69,2.51-.53l3.13.59c.91.2,1.63.68,2.16,1.45.53.77.72,1.61.56,2.51-.67,3.27-1.6,6.43-2.78,9.46-.12.32-.18.61-.18.89v4.49c0,.08.03.12.09.12s.11-.02.15-.06c3.04-5.6,5.64-11.41,7.81-17.44.32-.91.9-1.61,1.74-2.1.85-.49,1.74-.64,2.69-.44l3.84.77c.87.16,1.52.61,1.95,1.36.43.75.51,1.54.24,2.37-.08.32.04.47.36.47h17.68Z"/>
      <path d="M324.93,77.86c5.24,0,9.41,1.76,12.51,5.29,3.09,3.53,4.64,8.47,4.64,14.81,0,9.42-2.6,16.4-7.81,20.93-5.2,4.53-13.52,7-24.95,7.39-.95.04-1.74-.27-2.39-.92-.65-.65-1.02-1.45-1.09-2.39l-.24-3.31c-.04-.91.25-1.69.86-2.37.61-.67,1.37-1.03,2.28-1.06,8.16-.28,13.79-1.76,16.88-4.47,3.09-2.7,4.64-7.3,4.64-13.81s-2.17-9.46-6.5-9.46c-3.27,0-6.21,1.4-8.81,4.2-2.6,2.8-4.22,6.39-4.85,10.76-.12.95-.51,1.74-1.18,2.4-.67.65-1.48.98-2.42.98h-3.9c-.91,0-1.7-.33-2.37-1.01-.67-.67-1-1.46-1-2.37v-23.42c0-.91.33-1.69,1-2.37.67-.67,1.46-1.01,2.37-1.01h4.2c.91,0,1.69.33,2.37,1.01.67.67,1,1.46,1,2.37v4.91l.12-.06c4.22-4.69,9.11-7.04,14.66-7.04Z"/>
      <path d="M343.73,163.07c.91,0,1.69.34,2.37,1.01.67.67,1,1.46,1,2.37v2.13c0,.91-.34,1.7-1,2.37-.67.67-1.46,1-2.37,1h-15.73c-.08,0-.14.04-.18.12-.04.08-.02.14.06.18,2.92,2.21,8.22,3.84,15.91,4.91.83.12,1.46.55,1.89,1.3.43.75.49,1.5.18,2.25l-1.36,3.25c-.39.91-1.02,1.6-1.86,2.07-.85.47-1.76.61-2.75.41-8.67-1.85-15.36-5.03-20.05-9.52-.24-.24-.45-.24-.65,0-4.18,4.69-10.82,7.88-19.93,9.58-.99.16-1.89,0-2.72-.47-.83-.47-1.44-1.16-1.83-2.07l-1.36-3.25c-.32-.75-.26-1.5.18-2.25.43-.75,1.06-1.18,1.89-1.3,7.25-.95,12.1-2.56,14.55-4.85.08-.08.1-.16.06-.24-.04-.08-.1-.12-.18-.12h-14.37c-.91,0-1.7-.33-2.37-1-.67-.67-1.01-1.46-1.01-2.37v-2.13c0-.91.33-1.69,1.01-2.37.67-.67,1.46-1.01,2.37-1.01h17.74c.39,0,.59-.16.59-.47.04-.32.06-.83.06-1.54,0-.32-.16-.47-.47-.47-4.93.24-8.81.38-11.65.41-.95,0-1.78-.33-2.51-.98-.73-.65-1.11-1.45-1.15-2.4l-.12-1.83c-.08-.91.2-1.69.83-2.37.63-.67,1.38-1.01,2.25-1.01,11.83-.16,22.47-1.12,31.93-2.9.08,0,.12-.04.12-.12s-.04-.14-.12-.18c-.79-.39-1.38-1.06-1.77-2.01-.08-.16-.19-.43-.33-.83-.14-.39-.25-.67-.33-.83-.16-.36-.39-.53-.71-.53-.36,0-.63.14-.83.41-.47.59-1.22,1.44-2.25,2.54-.67.71-1.49,1.08-2.45,1.12-.97.04-1.82-.26-2.57-.89l-3.37-2.9c-.2-.2-.49-.3-.89-.3h-2.72c-.32,0-.43.16-.36.47,0,.04.04.12.12.24.08.12.12.22.12.3.32.83.27,1.64-.15,2.42-.41.79-1.07,1.28-1.98,1.48l-3.25.83c-.91.24-1.78.13-2.63-.33-.85-.45-1.43-1.13-1.74-2.04l-1.24-3.19c-.08-.12-.2-.18-.36-.18s-.32.08-.47.24c-1.1,1.38-2.09,2.5-2.96,3.37-.67.67-1.47,1-2.4.98-.93-.02-1.72-.36-2.39-1.04l-1.77-1.77c-.63-.67-.95-1.47-.95-2.4s.32-1.72.95-2.4c1.85-2.09,3.43-4.32,4.73-6.68.47-.87,1.15-1.54,2.04-2.01.89-.47,1.8-.63,2.75-.47l3.73.59c.63.08,1.11.39,1.45.95.33.55.38,1.12.15,1.72-.08.24,0,.35.24.35h8.16c.91,0,1.69.34,2.37,1.01.67.67,1.01,1.46,1.01,2.37v1.3c0,.08.03.14.09.18s.13.02.21-.06c1.69-2.05,3.07-4,4.14-5.85.47-.87,1.15-1.55,2.04-2.04.89-.49,1.8-.66,2.75-.5l3.73.59c.63.08,1.11.39,1.45.95.33.55.38,1.12.15,1.72-.08.24,0,.35.24.35h8.75c.91,0,1.69.34,2.37,1.01.67.67,1.01,1.46,1.01,2.37v1.83c0,.91-.34,1.7-1.01,2.37-.67.67-1.46,1.01-2.37,1.01h-2.01c-.28,0-.38.12-.3.35.28.67.24,1.33-.12,1.98-.35.65-.89,1.07-1.6,1.27l-.47.12s-.06.09-.06.15.02.11.06.15c.95.39,1.63,1.06,2.07,2.01l.95,2.42c.32.83.3,1.64-.06,2.42s-.97,1.28-1.83,1.48c-3.94.91-8.73,1.66-14.37,2.25-.36.08-.53.28-.53.59,0,.24-.04.61-.12,1.12-.08.51-.12.91-.12,1.18,0,.35.16.53.47.53h18.33Z"/>
      <path d="M324.75,224.09c.87.32,1.5.9,1.89,1.74.39.85.41,1.71.06,2.57-2.09,5.01-4.64,8.89-7.66,11.65-3.02,2.76-5.98,4.14-8.9,4.14-3.63,0-7-2.35-10.11-7.04-3.11-4.69-4.67-10.43-4.67-17.21,0-6.07.77-12.08,2.31-18.04.24-.95.76-1.69,1.57-2.25.81-.55,1.7-.77,2.69-.65l4.32.47c.87.08,1.55.48,2.04,1.21.49.73.64,1.53.44,2.4-1.42,5.99-2.13,11.61-2.13,16.85,0,1.85.15,3.62.44,5.29.3,1.68.68,3.06,1.15,4.14.47,1.09.96,1.95,1.45,2.6.49.65.95.98,1.39.98.63,0,1.5-.7,2.6-2.1,1.1-1.4,2.27-3.44,3.49-6.12.39-.83,1.01-1.42,1.86-1.77.85-.35,1.7-.37,2.57-.06l3.19,1.18ZM333.8,199.01c.95-.27,1.85-.22,2.72.18.87.39,1.48,1.03,1.83,1.89,4.06,9.86,6.27,20.93,6.62,33.23.04.91-.28,1.7-.95,2.37-.67.67-1.46,1.01-2.37,1.01h-4.49c-.91,0-1.7-.32-2.37-.98-.67-.65-1.03-1.43-1.06-2.34-.35-10.6-2.29-20.68-5.79-30.22-.32-.87-.28-1.7.12-2.51.39-.81,1.02-1.33,1.89-1.57l3.84-1.06Z"/>
      <path d="M342.26,259.69c.91,0,1.69.33,2.37,1.01.67.67,1.01,1.46,1.01,2.37v26.37c0,.91-.34,1.7-1.01,2.37-.67.67-1.46,1.01-2.37,1.01h-4.43c-.71,0-1.31-.25-1.8-.74-.49-.49-.74-1.09-.74-1.8,0-.28-.14-.41-.41-.41h-9.11c-.36,0-.53.18-.53.53v12.36c0,.91-.34,1.69-1.01,2.37-.67.67-1.46,1.01-2.37,1.01h-4.49c-.91,0-1.7-.34-2.37-1.01-.67-.67-1.01-1.46-1.01-2.37v-12.36c0-.36-.18-.53-.53-.53h-9.11c-.28,0-.41.14-.41.41,0,.71-.25,1.31-.74,1.8-.49.49-1.09.74-1.8.74h-4.43c-.91,0-1.7-.33-2.37-1.01-.67-.67-1.01-1.46-1.01-2.37v-26.37c0-.91.33-1.69,1.01-2.37.67-.67,1.46-1.01,2.37-1.01h16.5c.36,0,.53-.18.53-.53v-5.26c0-.91.33-1.69,1.01-2.37.67-.67,1.46-1,2.37-1h4.49c.91,0,1.69.33,2.37,1,.67.67,1.01,1.46,1.01,2.37v5.26c0,.36.18.53.53.53h16.5ZM304.47,280.98h8.99c.36,0,.53-.18.53-.53v-11.12c0-.32-.18-.47-.53-.47h-8.99c-.36,0-.53.16-.53.47v11.12c0,.35.18.53.53.53ZM335.28,280.45v-11.12c0-.32-.18-.47-.53-.47h-8.99c-.36,0-.53.16-.53.47v11.12c0,.35.18.53.53.53h8.99c.36,0,.53-.18.53-.53Z"/>
    </g>
    <ellipse class="cls-8" cx="169.43" cy="303.04" rx="74.65" ry="4.8"/>
    <path class="cls-7" d="M81.78,135.83c10.37,39.06,49.76,55.06,57.62,49.41l24.06-19.22c-28.95-19.18-45.79-45.58-45.79-45.58l-35.89,15.39Z"/>
    <path class="cls-7" d="M227.96,243.88c-.37,29.47-14.5,46.49-14.5,46.49h-84.5c-14.54-22.19-14.49-46.49-14.49-46.49h113.49Z"/>
    <polygon class="cls-7" points="239.36 245.37 103.07 245.37 126.84 124.9 212.95 124.9 239.36 245.37"/>
    <polygon class="cls-7" points="143.09 153.35 121.23 153.35 130.41 169.18 144.59 170.41 133.85 177.98 166.77 216.91 143.09 153.35"/>
    <polygon class="cls-7" points="196.32 153.35 218.18 153.35 209 169.18 194.82 170.41 205.56 177.98 172.64 216.91 196.32 153.35"/>
    <polygon class="cls-7" points="143.19 153.35 169.82 153.35 196.33 153.33 190.55 168.83 169.82 154.46 148.8 168.4 143.19 153.35"/>
    <polygon class="cls-2" points="159.53 161.29 162.71 171.9 177.38 171.9 180.11 161.29 169.82 154.46 159.53 161.29"/>
    <polygon class="cls-2" points="162.71 171.9 154.73 184.59 169.67 224.43 184.13 186.16 177.38 171.9 162.71 171.9"/>
    <line class="cls-5" x1="169.43" y1="289.95" x2="169.43" y2="259.43"/>
    <ellipse class="cls-9" cx="142.58" cy="293.67" rx="26.84" ry="12.44"/>
    <ellipse class="cls-9" cx="196.27" cy="293.67" rx="26.84" ry="12.44"/>
    <ellipse class="cls-6" cx="213.33" cy="225.06" rx="15.06" ry="9.75" transform="translate(-34.44 411.53) rotate(-83.5)"/>
    <path class="cls-7" d="M232.01,124.3c15.36,29.51-3.16,99.17-3.16,99.17l-33.09,5.98c5.71-36.14-7.26-105.15-7.26-105.15h43.5Z"/>
    <polygon class="cls-1" points="237.74 164.58 97.13 164.58 81.78 141.89 238.1 141.89 237.74 164.58"/>
    <rect class="cls-4" x="63.49" y="12.16" width="212.54" height="141.17"/>
    <ellipse class="cls-2" cx="169.43" cy="82.74" rx="43.04" ry="42.79"/>
    <path class="cls-10" d="M86.68,26.72c.21,2.58,3.67,8.55,5.16,14.09,1.77,6.6-2.71,12.37-6.05,12.37s-6.9-5.59-6.05-12.37c.4-3.24,2.48-6.1,3.03-8.75"/>
    <g>
      <path class="cls-5" d="M48.04,161c-10.25-2.77-16.31-13.32-13.54-23.56"/>
      <path class="cls-5" d="M29.75,153.82c2.69-4.2,7-7.36,12.27-8.45"/>
      <path class="cls-5" d="M37,163.54c1.04-5.13,4.04-9.36,8.05-12.08"/>
    </g>
    <g>
      <path class="cls-5" d="M31.3,55.63c-5.24-11.65-.05-25.34,11.6-30.58"/>
      <path class="cls-5" d="M24.03,33.14c5.96-.7,12.19.9,17.23,4.97"/>
      <path class="cls-5" d="M20.52,47.3c5.57-2.94,11.79-3.39,17.38-1.73"/>
    </g>
  </g>
</svg>