<?xml version="1.0" encoding="UTF-8"?>
<svg id="_レイヤー_1" data-name="レイヤー 1" xmlns="http://www.w3.org/2000/svg" viewBox="0 0 370 320">
  <defs>
    <style>
      .cls-1 {
        fill: #fff000;
      }

      .cls-1, .cls-2, .cls-3, .cls-4, .cls-5, .cls-6, .cls-7, .cls-8, .cls-9, .cls-10 {
        stroke-linecap: round;
        stroke-linejoin: round;
      }

      .cls-1, .cls-2, .cls-4, .cls-5, .cls-6, .cls-7, .cls-8, .cls-9, .cls-10 {
        stroke: #000;
        stroke-width: 2px;
      }

      .cls-2 {
        fill: red;
      }

      .cls-3 {
        stroke: #fff;
        stroke-width: 5px;
      }

      .cls-3, .cls-4 {
        fill: #fff;
      }

      .cls-5 {
        fill: none;
      }

      .cls-6 {
        fill: #f4db8e;
      }

      .cls-7 {
        fill: #1b1464;
      }

      .cls-8 {
        opacity: .3;
      }

      .cls-9 {
        fill: #40210f;
      }

      .cls-10 {
        fill: #009fe8;
      }
    </style>
  </defs>
  <g id="_こんな私ですが_" data-name="こんな私ですが…">
    <g>
      <path class="cls-3" d="M335.73,39.99c.12.57.02,1.12-.3,1.63-.32.51-.77.83-1.35.95-4.34.92-8.27,1.38-11.79,1.38-4.59,0-8.17-.79-10.74-2.36-2.57-1.57-3.85-3.65-3.85-6.25,0-1.32.35-2.65,1.05-3.98.7-1.33,1.91-2.89,3.63-4.66.42-.42.94-.65,1.55-.69.61-.04,1.17.12,1.67.47l1.8,1.27c.45.32.69.76.73,1.31s-.13,1.02-.5,1.42c-1.75,1.85-2.62,3.22-2.62,4.12s.6,1.62,1.81,2.17c1.21.55,3.04.82,5.48.82,2.97,0,6.46-.45,10.48-1.35.57-.12,1.1-.03,1.59.28.49.31.78.74.88,1.29l.49,2.17ZM313.21,14.03h18.56c.57,0,1.07.21,1.5.64.42.42.64.92.64,1.5v1.91c0,.57-.21,1.07-.64,1.5-.42.42-.92.64-1.5.64h-18.56c-.57,0-1.07-.21-1.5-.64-.42-.42-.64-.92-.64-1.5v-1.91c0-.57.21-1.07.64-1.5.42-.42.92-.64,1.5-.64Z"/>
      <path class="cls-3" d="M337.08,68.2c.57.15,1.01.48,1.31.99.3.51.36,1.04.19,1.59-1.15,3.97-2.4,6.68-3.76,8.14-1.36,1.46-3.1,2.19-5.22,2.19-2.34,0-4.13-.66-5.37-1.96-1.23-1.31-2.08-3.54-2.53-6.68-.17-1.32-.37-2.21-.6-2.66-.22-.45-.51-.67-.86-.67-.87,0-1.85.77-2.94,2.32-1.08,1.55-2.51,4.37-4.28,8.46-.25.55-.64.94-1.18,1.18-.54.24-1.08.26-1.63.06l-2.39-.82c-.55-.17-.94-.53-1.18-1.07-.24-.54-.26-1.08-.06-1.63,3.84-10.03,7.32-18.94,10.44-26.75.22-.55.61-.95,1.16-1.22.55-.26,1.11-.31,1.68-.13l2.43.67c.55.15.95.49,1.2,1.01.25.52.27,1.05.08,1.57-2.52,6.43-3.82,9.74-3.89,9.91v.08h.11c1.2-.5,2.16-.75,2.88-.75,1.72,0,3.02.6,3.89,1.8.87,1.2,1.46,3.32,1.76,6.36.15,1.52.34,2.54.56,3.05.22.51.52.77.9.77.8,0,1.67-1.62,2.62-4.86.17-.57.52-1,1.03-1.29.51-.29,1.04-.36,1.59-.21l2.06.56Z"/>
      <path class="cls-3" d="M321.66,96.73h-4.45c-.22,0-.36.11-.41.34-1.47,5.79-3.13,11.19-4.98,16.2-.2.55-.57.95-1.1,1.22-.54.26-1.09.29-1.67.09l-2.13-.71c-.55-.2-.95-.56-1.2-1.07-.25-.51-.29-1.04-.11-1.59,1.82-5.06,3.32-9.79,4.49-14.18.05-.2-.04-.3-.26-.3h-1.87c-.57,0-1.07-.21-1.5-.64-.42-.42-.64-.92-.64-1.5v-1.72c0-.57.21-1.07.64-1.5.42-.42.92-.64,1.5-.64h3.4c.2,0,.32-.1.37-.3.25-1.1.44-1.93.56-2.51.12-.57.43-1.04.92-1.38.49-.35,1.03-.49,1.63-.41l2.17.22c.57.07,1.02.35,1.35.82.32.47.44.99.34,1.53-.05.2-.11.49-.19.86-.08.38-.14.66-.19.86-.05.2.04.3.26.3h3.07c.57,0,1.07.21,1.5.64.42.42.64.92.64,1.5v1.72c0,.57-.21,1.07-.64,1.5-.42.42-.92.64-1.5.64ZM337,91.23c.57.05,1.05.31,1.42.79s.52,1,.45,1.57l-.22,1.8c-.07.57-.34,1.04-.8,1.38-.46.35-.98.49-1.55.41-1.2-.15-2.13-.24-2.81-.26-.22,0-.34.11-.34.34v9.65c0,.22.1.4.3.52,1.3.97,2.81,2.27,4.53,3.89.42.42.65.93.67,1.52.02.59-.16,1.1-.56,1.55l-1.27,1.35c-.4.42-.89.66-1.46.69-.57.04-1.07-.14-1.5-.54-.15-.12-.37-.31-.65-.56-.29-.25-.48-.42-.58-.52-.15-.15-.27-.14-.37.04-1.35,2.89-4.17,4.34-8.46,4.34-3.07,0-5.46-.71-7.16-2.11-1.71-1.41-2.56-3.32-2.56-5.74s.84-4.27,2.53-5.71c1.68-1.43,4.08-2.15,7.2-2.15.8,0,1.56.09,2.28.26.22.05.34-.02.34-.22v-10.62c0-.57.21-1.07.64-1.5s.92-.62,1.5-.6c3.07.05,5.89.2,8.46.45ZM323.8,113.57c.97,0,1.65-.23,2.02-.69.37-.46.57-1.37.6-2.71,0-.25-.1-.41-.3-.49-.77-.4-1.55-.6-2.32-.6-.97,0-1.71.21-2.23.62-.51.41-.77.95-.77,1.63s.26,1.25.79,1.65c.52.4,1.26.6,2.21.6Z"/>
      <path class="cls-3" d="M336.82,140.51c1.45,4.51,2.63,8.94,3.55,13.28.12.57.03,1.12-.28,1.63-.31.51-.75.85-1.33,1.03l-2.62.75c-.55.15-1.07.08-1.57-.21-.5-.29-.81-.72-.94-1.29l-.11-.56c-.05-.2-.17-.27-.37-.22-4.56.72-9.03,1.25-13.39,1.57-.57.05-1.09-.13-1.55-.52-.46-.4-.71-.89-.73-1.46l-.11-1.83c-.02-.5.14-.94.49-1.31.35-.37.77-.59,1.27-.64.15,0,.27-.1.37-.3l.79-2.25s.01-.09-.04-.13c-.05-.04-.09-.04-.11-.02l-.45.37c-.4.33-.87.41-1.4.26-.54-.15-.89-.46-1.07-.93-.07-.2-.18-.47-.32-.8s-.23-.57-.28-.69c-.03-.02-.05-.04-.07-.04s-.04.03-.04.08v9.35c0,.57-.21,1.07-.64,1.5-.42.42-.92.64-1.5.64h-2.09c-.57,0-1.07-.21-1.5-.64s-.64-.92-.64-1.5v-6.4s-.06-.04-.11-.04c-.5,1.35-1.02,2.54-1.57,3.59-.25.42-.61.63-1.08.62-.47-.01-.84-.23-1.08-.66l-1.27-2.13c-.67-1.15-.6-2.31.22-3.48,1.75-2.42,3.06-4.95,3.93-7.6.05-.2-.03-.3-.22-.3h-1.91c-.57,0-1.07-.21-1.5-.64-.42-.42-.64-.92-.64-1.5v-1.35c0-.57.21-1.07.64-1.5.42-.42.92-.64,1.5-.64h2.77c.22,0,.34-.1.34-.3v-2.99c0-.2-.11-.3-.34-.3-.2,0-.5.02-.92.06-.41.04-.73.07-.95.09-.6.02-1.12-.16-1.57-.54-.45-.39-.7-.88-.75-1.48l-.11-1.05c-.05-.57.11-1.08.47-1.52.36-.44.83-.67,1.4-.69,3.34-.22,6.81-.71,10.4-1.46.6-.12,1.17-.04,1.72.24.55.29.92.7,1.12,1.25l.37,1.08c.2.55.17,1.08-.09,1.59-.26.51-.67.83-1.22.95-.67.17-1.63.37-2.88.6-.2.05-.3.17-.3.37v3.78c0,.2.1.3.3.3h2.81c.57,0,1.07.21,1.5.64.42.42.64.92.64,1.5v1.35c0,.57-.21,1.07-.64,1.5-.42.42-.92.64-1.5.64h-1.16c-.07,0-.13.03-.17.09-.04.06-.04.12-.02.17,1.57,2.62,2.57,4.3,2.99,5.05.1.15.17.15.22,0,2.14-6.66,3.84-12.98,5.09-18.97.12-.57.42-1.03.9-1.38s1.01-.49,1.61-.41l2.92.41c.57.07,1.02.34,1.35.79.32.45.42.95.3,1.5-.9,4.12-2.03,8.59-3.4,13.43-.03.07-.01.14.04.19.05.05.11.06.19.04l3.63-1.05c.57-.17,1.13-.12,1.66.17.54.29.89.71,1.07,1.25ZM331.88,149.52c.2-.05.27-.17.22-.37-.7-2.74-1.42-5.3-2.17-7.67-.05-.12-.1-.14-.15-.04-.77,2.62-1.66,5.41-2.66,8.38-.03.15.05.22.22.22,1.12-.1,2.63-.27,4.53-.52Z"/>
      <path class="cls-3" d="M333.37,189.06l.26,2.28c.08.6-.06,1.13-.41,1.61-.35.47-.82.75-1.42.82-1.15.15-2.32.22-3.52.22-4.59,0-8.26-1.18-11.02-3.54-2.76-2.36-4.13-5.54-4.13-9.56,0-1.87.5-3.74,1.5-5.61,1-1.87,2.36-3.47,4.08-4.79.02,0,.04-.02.04-.07,0-.03-.01-.04-.04-.04-3.57.1-7.12.17-10.66.22-.57,0-1.07-.21-1.48-.64-.41-.42-.62-.92-.62-1.5v-2.09c0-.57.21-1.07.62-1.5.41-.42.9-.64,1.48-.64,9.65-.05,18.66-.26,27.01-.64.57-.02,1.08.16,1.52.56.44.4.67.88.69,1.46l.04,2.09c.02.6-.16,1.12-.56,1.55-.4.44-.9.68-1.5.73-4.79.47-8.39,1.61-10.81,3.4-2.42,1.8-3.63,4.04-3.63,6.74,0,2.27.72,4.05,2.17,5.35,1.45,1.3,3.34,1.95,5.69,1.95.77,0,1.55-.05,2.32-.15.6-.08,1.13.06,1.59.39.46.34.73.79.8,1.37ZM332.4,175.47c.27.5.69,1.27,1.23,2.32.25.52.27,1.06.08,1.61-.2.55-.56.95-1.09,1.2-.55.25-1.1.28-1.65.08-.55-.2-.96-.56-1.23-1.08-.13-.22-.52-.96-1.2-2.21-.27-.5-.32-1.02-.15-1.57.17-.55.52-.96,1.05-1.23h.04c.52-.27,1.07-.32,1.65-.15.57.17,1,.52,1.27,1.05ZM338.39,174.13c.82,1.57,1.25,2.38,1.27,2.43.27.52.32,1.06.13,1.61-.19.55-.54.95-1.07,1.2l-.11.08c-.52.25-1.07.28-1.63.09-.56-.19-.98-.54-1.25-1.07-.12-.25-.32-.64-.6-1.16s-.49-.91-.64-1.16c-.27-.5-.33-1.03-.17-1.61.16-.57.5-.99,1.03-1.23l.11-.04c.52-.27,1.07-.33,1.65-.17s1,.5,1.27,1.03Z"/>
      <path class="cls-3" d="M336.63,201.47c.57,0,1.07.21,1.5.64.42.42.64.92.64,1.5v1.35c0,.57-.21,1.07-.64,1.5-.42.42-.92.64-1.5.64h-7.3c-.2,0-.3.11-.3.34v6.1c0,.12.05.31.15.56.77,1.6,1.16,3.25,1.16,4.98,0,3.67-1.04,6.45-3.1,8.36-2.07,1.91-5.51,3.16-10.33,3.76-.6.08-1.13-.07-1.59-.43s-.75-.84-.88-1.44l-.37-1.8c-.1-.55.02-1.05.37-1.51.35-.46.81-.72,1.38-.77,1.9-.2,3.34-.41,4.32-.64.98-.22,1.68-.47,2.08-.75s.71-.65.94-1.12c.02-.03.04-.06.04-.11s.01-.09.04-.11v-.08h-.07c-1.27.5-2.56.75-3.85.75-2.44,0-4.43-.69-5.95-2.06-1.52-1.37-2.28-3.18-2.28-5.42s.77-4.08,2.32-5.44c1.55-1.36,3.64-2.04,6.29-2.04.77,0,1.61.12,2.51.37h.07s.04-.01.04-.04v-1.12c0-.22-.11-.34-.34-.34h-13.99c-.57,0-1.07-.21-1.5-.64-.42-.42-.64-.92-.64-1.5v-1.35c0-.57.21-1.07.64-1.5.42-.42.92-.64,1.5-.64h13.99c.22,0,.34-.11.34-.34v-.9c0-.57.21-1.07.64-1.5.42-.42.92-.64,1.5-.64h2.47c.57,0,1.07.21,1.5.64.42.42.64.92.64,1.5v.9c0,.22.1.34.3.34h7.3ZM318.35,217.3c.49.42,1.12.64,1.89.64s1.4-.21,1.89-.64c.49-.42.73-.96.73-1.61s-.24-1.18-.73-1.61-1.12-.64-1.89-.64-1.4.21-1.89.64-.73.96-.73,1.61.24,1.18.73,1.61Z"/>
      <path class="cls-3" d="M320.05,242.27h3.07c.65,0,1.4.08,2.26.24s1.43.29,1.72.39c.29.1.64.42,1.07.97.42.55.67,1.02.75,1.42.07.4.17,1.15.3,2.26.12,1.11.19,2.1.19,2.97v4.08c0,4.96-.6,8.51-1.81,10.64-1.21,2.13-2.97,3.2-5.29,3.2-1.67,0-3.73-.3-6.17-.9-.57-.15-1.01-.49-1.31-1.01-.3-.52-.37-1.07-.22-1.65l.45-1.87c.15-.55.47-.97.97-1.27.5-.3,1.03-.39,1.61-.26,1.6.4,2.66.6,3.18.6,1,0,1.5-2.87,1.5-8.61,0-2.59-.09-4.12-.28-4.56s-.84-.67-1.96-.67h-2.96c-.22,0-.36.1-.41.3-1.35,6.04-3.11,12.12-5.28,18.26-.2.57-.57.99-1.1,1.25-.54.26-1.08.31-1.63.13l-1.76-.6c-.55-.17-.95-.52-1.22-1.03-.26-.51-.29-1.05-.09-1.63,1.8-5.34,3.33-10.79,4.6-16.35.05-.22-.02-.34-.22-.34h-2.02c-.57,0-1.07-.21-1.5-.64-.42-.42-.64-.92-.64-1.5v-1.72c0-.57.21-1.07.64-1.5.42-.42.92-.64,1.5-.64h3.25c.2,0,.32-.1.37-.3.17-.87.45-2.44.82-4.71.1-.6.39-1.09.86-1.48.47-.39,1.01-.56,1.61-.51l1.91.15c.57.05,1.05.29,1.42.73.37.44.52.93.45,1.48-.2,1.5-.42,2.94-.67,4.34-.05.2.04.3.26.3h1.8ZM332.25,244.58c-.55.25-1.1.27-1.65.08-.55-.2-.96-.56-1.23-1.08-.12-.22-.52-.96-1.2-2.21-.27-.5-.32-1.02-.15-1.57.17-.55.52-.96,1.05-1.23h.04c.52-.27,1.07-.32,1.65-.15s1,.52,1.27,1.05c.27.5.69,1.27,1.23,2.32.25.52.27,1.06.07,1.61s-.56.95-1.08,1.2ZM337.53,248.06c.87,2.94,1.75,6.19,2.62,9.73.12.55.04,1.07-.26,1.57s-.74.81-1.31.94l-2.43.52c-.57.12-1.1.03-1.59-.28-.49-.31-.8-.77-.95-1.37-.85-3.44-1.68-6.55-2.51-9.32-.17-.55-.12-1.08.17-1.59.29-.51.72-.85,1.29-1.03l2.32-.64c.55-.17,1.08-.12,1.61.17.52.29.87.72,1.05,1.29ZM335.09,237.25c.52-.27,1.07-.33,1.65-.17.57.16,1,.51,1.27,1.03.82,1.57,1.25,2.38,1.27,2.43.27.52.32,1.06.13,1.61-.19.55-.54.95-1.07,1.2l-.11.07c-.52.25-1.07.28-1.63.09-.56-.19-.98-.54-1.25-1.07-.12-.25-.32-.64-.6-1.16-.27-.52-.49-.91-.64-1.16-.27-.5-.33-1.04-.17-1.61.16-.57.5-.98,1.03-1.23l.11-.04Z"/>
      <path class="cls-3" d="M326.47,277.69c0,1.87-1.5,3.37-3.37,3.37s-3.37-1.5-3.37-3.37,1.5-3.37,3.37-3.37,3.37,1.57,3.37,3.37ZM326.47,290.15c0,1.87-1.5,3.37-3.37,3.37s-3.37-1.5-3.37-3.37,1.5-3.37,3.37-3.37,3.37,1.57,3.37,3.37ZM326.47,302.6c0,1.87-1.5,3.37-3.37,3.37s-3.37-1.5-3.37-3.37,1.5-3.37,3.37-3.37,3.37,1.57,3.37,3.37Z"/>
    </g>
    <g>
      <path d="M335.73,39.99c.12.57.02,1.12-.3,1.63-.32.51-.77.83-1.35.95-4.34.92-8.27,1.38-11.79,1.38-4.59,0-8.17-.79-10.74-2.36-2.57-1.57-3.85-3.65-3.85-6.25,0-1.32.35-2.65,1.05-3.98.7-1.33,1.91-2.89,3.63-4.66.42-.42.94-.65,1.55-.69.61-.04,1.17.12,1.67.47l1.8,1.27c.45.32.69.76.73,1.31s-.13,1.02-.5,1.42c-1.75,1.85-2.62,3.22-2.62,4.12s.6,1.62,1.81,2.17c1.21.55,3.04.82,5.48.82,2.97,0,6.46-.45,10.48-1.35.57-.12,1.1-.03,1.59.28.49.31.78.74.88,1.29l.49,2.17ZM313.21,14.03h18.56c.57,0,1.07.21,1.5.64.42.42.64.92.64,1.5v1.91c0,.57-.21,1.07-.64,1.5-.42.42-.92.64-1.5.64h-18.56c-.57,0-1.07-.21-1.5-.64-.42-.42-.64-.92-.64-1.5v-1.91c0-.57.21-1.07.64-1.5.42-.42.92-.64,1.5-.64Z"/>
      <path d="M337.08,68.2c.57.15,1.01.48,1.31.99.3.51.36,1.04.19,1.59-1.15,3.97-2.4,6.68-3.76,8.14-1.36,1.46-3.1,2.19-5.22,2.19-2.34,0-4.13-.66-5.37-1.96-1.23-1.31-2.08-3.54-2.53-6.68-.17-1.32-.37-2.21-.6-2.66-.22-.45-.51-.67-.86-.67-.87,0-1.85.77-2.94,2.32-1.08,1.55-2.51,4.37-4.28,8.46-.25.55-.64.94-1.18,1.18-.54.24-1.08.26-1.63.06l-2.39-.82c-.55-.17-.94-.53-1.18-1.07-.24-.54-.26-1.08-.06-1.63,3.84-10.03,7.32-18.94,10.44-26.75.22-.55.61-.95,1.16-1.22.55-.26,1.11-.31,1.68-.13l2.43.67c.55.15.95.49,1.2,1.01.25.52.27,1.05.08,1.57-2.52,6.43-3.82,9.74-3.89,9.91v.08h.11c1.2-.5,2.16-.75,2.88-.75,1.72,0,3.02.6,3.89,1.8.87,1.2,1.46,3.32,1.76,6.36.15,1.52.34,2.54.56,3.05.22.51.52.77.9.77.8,0,1.67-1.62,2.62-4.86.17-.57.52-1,1.03-1.29.51-.29,1.04-.36,1.59-.21l2.06.56Z"/>
      <path d="M321.66,96.73h-4.45c-.22,0-.36.11-.41.34-1.47,5.79-3.13,11.19-4.98,16.2-.2.55-.57.95-1.1,1.22-.54.26-1.09.29-1.67.09l-2.13-.71c-.55-.2-.95-.56-1.2-1.07-.25-.51-.29-1.04-.11-1.59,1.82-5.06,3.32-9.79,4.49-14.18.05-.2-.04-.3-.26-.3h-1.87c-.57,0-1.07-.21-1.5-.64-.42-.42-.64-.92-.64-1.5v-1.72c0-.57.21-1.07.64-1.5.42-.42.92-.64,1.5-.64h3.4c.2,0,.32-.1.37-.3.25-1.1.44-1.93.56-2.51.12-.57.43-1.04.92-1.38.49-.35,1.03-.49,1.63-.41l2.17.22c.57.07,1.02.35,1.35.82.32.47.44.99.34,1.53-.05.2-.11.49-.19.86-.08.38-.14.66-.19.86-.05.2.04.3.26.3h3.07c.57,0,1.07.21,1.5.64.42.42.64.92.64,1.5v1.72c0,.57-.21,1.07-.64,1.5-.42.42-.92.64-1.5.64ZM337,91.23c.57.05,1.05.31,1.42.79s.52,1,.45,1.57l-.22,1.8c-.07.57-.34,1.04-.8,1.38-.46.35-.98.49-1.55.41-1.2-.15-2.13-.24-2.81-.26-.22,0-.34.11-.34.34v9.65c0,.22.1.4.3.52,1.3.97,2.81,2.27,4.53,3.89.42.42.65.93.67,1.52.02.59-.16,1.1-.56,1.55l-1.27,1.35c-.4.42-.89.66-1.46.69-.57.04-1.07-.14-1.5-.54-.15-.12-.37-.31-.65-.56-.29-.25-.48-.42-.58-.52-.15-.15-.27-.14-.37.04-1.35,2.89-4.17,4.34-8.46,4.34-3.07,0-5.46-.71-7.16-2.11-1.71-1.41-2.56-3.32-2.56-5.74s.84-4.27,2.53-5.71c1.68-1.43,4.08-2.15,7.2-2.15.8,0,1.56.09,2.28.26.22.05.34-.02.34-.22v-10.62c0-.57.21-1.07.64-1.5s.92-.62,1.5-.6c3.07.05,5.89.2,8.46.45ZM323.8,113.57c.97,0,1.65-.23,2.02-.69.37-.46.57-1.37.6-2.71,0-.25-.1-.41-.3-.49-.77-.4-1.55-.6-2.32-.6-.97,0-1.71.21-2.23.62-.51.41-.77.95-.77,1.63s.26,1.25.79,1.65c.52.4,1.26.6,2.21.6Z"/>
      <path d="M336.82,140.51c1.45,4.51,2.63,8.94,3.55,13.28.12.57.03,1.12-.28,1.63-.31.51-.75.85-1.33,1.03l-2.62.75c-.55.15-1.07.08-1.57-.21-.5-.29-.81-.72-.94-1.29l-.11-.56c-.05-.2-.17-.27-.37-.22-4.56.72-9.03,1.25-13.39,1.57-.57.05-1.09-.13-1.55-.52-.46-.4-.71-.89-.73-1.46l-.11-1.83c-.02-.5.14-.94.49-1.31.35-.37.77-.59,1.27-.64.15,0,.27-.1.37-.3l.79-2.25s.01-.09-.04-.13c-.05-.04-.09-.04-.11-.02l-.45.37c-.4.33-.87.41-1.4.26-.54-.15-.89-.46-1.07-.93-.07-.2-.18-.47-.32-.8s-.23-.57-.28-.69c-.03-.02-.05-.04-.07-.04s-.04.03-.04.08v9.35c0,.57-.21,1.07-.64,1.5-.42.42-.92.64-1.5.64h-2.09c-.57,0-1.07-.21-1.5-.64s-.64-.92-.64-1.5v-6.4s-.06-.04-.11-.04c-.5,1.35-1.02,2.54-1.57,3.59-.25.42-.61.63-1.08.62-.47-.01-.84-.23-1.08-.66l-1.27-2.13c-.67-1.15-.6-2.31.22-3.48,1.75-2.42,3.06-4.95,3.93-7.6.05-.2-.03-.3-.22-.3h-1.91c-.57,0-1.07-.21-1.5-.64-.42-.42-.64-.92-.64-1.5v-1.35c0-.57.21-1.07.64-1.5.42-.42.92-.64,1.5-.64h2.77c.22,0,.34-.1.34-.3v-2.99c0-.2-.11-.3-.34-.3-.2,0-.5.02-.92.06-.41.04-.73.07-.95.09-.6.02-1.12-.16-1.57-.54-.45-.39-.7-.88-.75-1.48l-.11-1.05c-.05-.57.11-1.08.47-1.52.36-.44.83-.67,1.4-.69,3.34-.22,6.81-.71,10.4-1.46.6-.12,1.17-.04,1.72.24.55.29.92.7,1.12,1.25l.37,1.08c.2.55.17,1.08-.09,1.59-.26.51-.67.83-1.22.95-.67.17-1.63.37-2.88.6-.2.05-.3.17-.3.37v3.78c0,.2.1.3.3.3h2.81c.57,0,1.07.21,1.5.64.42.42.64.92.64,1.5v1.35c0,.57-.21,1.07-.64,1.5-.42.42-.92.64-1.5.64h-1.16c-.07,0-.13.03-.17.09-.04.06-.04.12-.02.17,1.57,2.62,2.57,4.3,2.99,5.05.1.15.17.15.22,0,2.14-6.66,3.84-12.98,5.09-18.97.12-.57.42-1.03.9-1.38s1.01-.49,1.61-.41l2.92.41c.57.07,1.02.34,1.35.79.32.45.42.95.3,1.5-.9,4.12-2.03,8.59-3.4,13.43-.03.07-.01.14.04.19.05.05.11.06.19.04l3.63-1.05c.57-.17,1.13-.12,1.66.17.54.29.89.71,1.07,1.25ZM331.88,149.52c.2-.05.27-.17.22-.37-.7-2.74-1.42-5.3-2.17-7.67-.05-.12-.1-.14-.15-.04-.77,2.62-1.66,5.41-2.66,8.38-.03.15.05.22.22.22,1.12-.1,2.63-.27,4.53-.52Z"/>
      <path d="M333.37,189.06l.26,2.28c.08.6-.06,1.13-.41,1.61-.35.47-.82.75-1.42.82-1.15.15-2.32.22-3.52.22-4.59,0-8.26-1.18-11.02-3.54-2.76-2.36-4.13-5.54-4.13-9.56,0-1.87.5-3.74,1.5-5.61,1-1.87,2.36-3.47,4.08-4.79.02,0,.04-.02.04-.07,0-.03-.01-.04-.04-.04-3.57.1-7.12.17-10.66.22-.57,0-1.07-.21-1.48-.64-.41-.42-.62-.92-.62-1.5v-2.09c0-.57.21-1.07.62-1.5.41-.42.9-.64,1.48-.64,9.65-.05,18.66-.26,27.01-.64.57-.02,1.08.16,1.52.56.44.4.67.88.69,1.46l.04,2.09c.02.6-.16,1.12-.56,1.55-.4.44-.9.68-1.5.73-4.79.47-8.39,1.61-10.81,3.4-2.42,1.8-3.63,4.04-3.63,6.74,0,2.27.72,4.05,2.17,5.35,1.45,1.3,3.34,1.95,5.69,1.95.77,0,1.55-.05,2.32-.15.6-.08,1.13.06,1.59.39.46.34.73.79.8,1.37ZM332.4,175.47c.27.5.69,1.27,1.23,2.32.25.52.27,1.06.08,1.61-.2.55-.56.95-1.09,1.2-.55.25-1.1.28-1.65.08-.55-.2-.96-.56-1.23-1.08-.13-.22-.52-.96-1.2-2.21-.27-.5-.32-1.02-.15-1.57.17-.55.52-.96,1.05-1.23h.04c.52-.27,1.07-.32,1.65-.15.57.17,1,.52,1.27,1.05ZM338.39,174.13c.82,1.57,1.25,2.38,1.27,2.43.27.52.32,1.06.13,1.61-.19.55-.54.95-1.07,1.2l-.11.08c-.52.25-1.07.28-1.63.09-.56-.19-.98-.54-1.25-1.07-.12-.25-.32-.64-.6-1.16s-.49-.91-.64-1.16c-.27-.5-.33-1.03-.17-1.61.16-.57.5-.99,1.03-1.23l.11-.04c.52-.27,1.07-.33,1.65-.17s1,.5,1.27,1.03Z"/>
      <path d="M336.63,201.47c.57,0,1.07.21,1.5.64.42.42.64.92.64,1.5v1.35c0,.57-.21,1.07-.64,1.5-.42.42-.92.64-1.5.64h-7.3c-.2,0-.3.11-.3.34v6.1c0,.12.05.31.15.56.77,1.6,1.16,3.25,1.16,4.98,0,3.67-1.04,6.45-3.1,8.36-2.07,1.91-5.51,3.16-10.33,3.76-.6.08-1.13-.07-1.59-.43s-.75-.84-.88-1.44l-.37-1.8c-.1-.55.02-1.05.37-1.51.35-.46.81-.72,1.38-.77,1.9-.2,3.34-.41,4.32-.64.98-.22,1.68-.47,2.08-.75s.71-.65.94-1.12c.02-.03.04-.06.04-.11s.01-.09.04-.11v-.08h-.07c-1.27.5-2.56.75-3.85.75-2.44,0-4.43-.69-5.95-2.06-1.52-1.37-2.28-3.18-2.28-5.42s.77-4.08,2.32-5.44c1.55-1.36,3.64-2.04,6.29-2.04.77,0,1.61.12,2.51.37h.07s.04-.01.04-.04v-1.12c0-.22-.11-.34-.34-.34h-13.99c-.57,0-1.07-.21-1.5-.64-.42-.42-.64-.92-.64-1.5v-1.35c0-.57.21-1.07.64-1.5.42-.42.92-.64,1.5-.64h13.99c.22,0,.34-.11.34-.34v-.9c0-.57.21-1.07.64-1.5.42-.42.92-.64,1.5-.64h2.47c.57,0,1.07.21,1.5.64.42.42.64.92.64,1.5v.9c0,.22.1.34.3.34h7.3ZM318.35,217.3c.49.42,1.12.64,1.89.64s1.4-.21,1.89-.64c.49-.42.73-.96.73-1.61s-.24-1.18-.73-1.61-1.12-.64-1.89-.64-1.4.21-1.89.64-.73.96-.73,1.61.24,1.18.73,1.61Z"/>
      <path d="M320.05,242.27h3.07c.65,0,1.4.08,2.26.24s1.43.29,1.72.39c.29.1.64.42,1.07.97.42.55.67,1.02.75,1.42.07.4.17,1.15.3,2.26.12,1.11.19,2.1.19,2.97v4.08c0,4.96-.6,8.51-1.81,10.64-1.21,2.13-2.97,3.2-5.29,3.2-1.67,0-3.73-.3-6.17-.9-.57-.15-1.01-.49-1.31-1.01-.3-.52-.37-1.07-.22-1.65l.45-1.87c.15-.55.47-.97.97-1.27.5-.3,1.03-.39,1.61-.26,1.6.4,2.66.6,3.18.6,1,0,1.5-2.87,1.5-8.61,0-2.59-.09-4.12-.28-4.56s-.84-.67-1.96-.67h-2.96c-.22,0-.36.1-.41.3-1.35,6.04-3.11,12.12-5.28,18.26-.2.57-.57.99-1.1,1.25-.54.26-1.08.31-1.63.13l-1.76-.6c-.55-.17-.95-.52-1.22-1.03-.26-.51-.29-1.05-.09-1.63,1.8-5.34,3.33-10.79,4.6-16.35.05-.22-.02-.34-.22-.34h-2.02c-.57,0-1.07-.21-1.5-.64-.42-.42-.64-.92-.64-1.5v-1.72c0-.57.21-1.07.64-1.5.42-.42.92-.64,1.5-.64h3.25c.2,0,.32-.1.37-.3.17-.87.45-2.44.82-4.71.1-.6.39-1.09.86-1.48.47-.39,1.01-.56,1.61-.51l1.91.15c.57.05,1.05.29,1.42.73.37.44.52.93.45,1.48-.2,1.5-.42,2.94-.67,4.34-.05.2.04.3.26.3h1.8ZM332.25,244.58c-.55.25-1.1.27-1.65.08-.55-.2-.96-.56-1.23-1.08-.12-.22-.52-.96-1.2-2.21-.27-.5-.32-1.02-.15-1.57.17-.55.52-.96,1.05-1.23h.04c.52-.27,1.07-.32,1.65-.15s1,.52,1.27,1.05c.27.5.69,1.27,1.23,2.32.25.52.27,1.06.07,1.61s-.56.95-1.08,1.2ZM337.53,248.06c.87,2.94,1.75,6.19,2.62,9.73.12.55.04,1.07-.26,1.57s-.74.81-1.31.94l-2.43.52c-.57.12-1.1.03-1.59-.28-.49-.31-.8-.77-.95-1.37-.85-3.44-1.68-6.55-2.51-9.32-.17-.55-.12-1.08.17-1.59.29-.51.72-.85,1.29-1.03l2.32-.64c.55-.17,1.08-.12,1.61.17.52.29.87.72,1.05,1.29ZM335.09,237.25c.52-.27,1.07-.33,1.65-.17.57.16,1,.51,1.27,1.03.82,1.57,1.25,2.38,1.27,2.43.27.52.32,1.06.13,1.61-.19.55-.54.95-1.07,1.2l-.11.07c-.52.25-1.07.28-1.63.09-.56-.19-.98-.54-1.25-1.07-.12-.25-.32-.64-.6-1.16-.27-.52-.49-.91-.64-1.16-.27-.5-.33-1.04-.17-1.61.16-.57.5-.98,1.03-1.23l.11-.04Z"/>
      <path d="M326.47,277.69c0,1.87-1.5,3.37-3.37,3.37s-3.37-1.5-3.37-3.37,1.5-3.37,3.37-3.37,3.37,1.57,3.37,3.37ZM326.47,290.15c0,1.87-1.5,3.37-3.37,3.37s-3.37-1.5-3.37-3.37,1.5-3.37,3.37-3.37,3.37,1.57,3.37,3.37ZM326.47,302.6c0,1.87-1.5,3.37-3.37,3.37s-3.37-1.5-3.37-3.37,1.5-3.37,3.37-3.37,3.37,1.57,3.37,3.37Z"/>
    </g>
    <ellipse class="cls-8" cx="171.17" cy="302.56" rx="71.62" ry="4.63"/>
    <ellipse class="cls-6" cx="234.12" cy="211.07" rx="4.84" ry="7.52"/>
    <path class="cls-7" d="M233.27,145.96c14.83,20.98,7.04,60.6,7.04,60.6l-24.56,8.07c.51-28.28-9.44-51.84-9.44-51.84l26.97-16.82Z"/>
    <path class="cls-7" d="M121.42,178.58c-27.29-4.2-52.09-39.81-52.09-39.81l12.1-25.01c21.48,21.52,47.12,31.41,47.12,31.41l-7.14,33.41Z"/>
    <path class="cls-7" d="M229.12,243.54c-.36,29.35-14.35,46.29-14.35,46.29h-83.67c-14.4-22.09-14.35-46.29-14.35-46.29h112.37Z"/>
    <polygon class="cls-7" points="240.41 245.03 105.47 245.03 129.01 125.07 214.26 125.07 240.41 245.03"/>
    <polygon class="cls-7" points="145.1 153.41 123.45 153.41 132.54 169.16 146.58 170.39 135.94 177.93 168.54 216.69 145.1 153.41"/>
    <polygon class="cls-7" points="197.79 153.41 219.44 153.41 210.35 169.16 196.31 170.39 206.95 177.93 174.34 216.69 197.79 153.41"/>
    <polygon class="cls-7" points="145.2 153.41 171.56 153.41 197.8 153.38 192.08 168.82 171.56 154.51 150.75 168.39 145.2 153.41"/>
    <polygon class="cls-2" points="161.37 161.31 164.52 171.87 179.04 171.87 181.75 161.31 171.56 154.51 161.37 161.31"/>
    <polygon class="cls-2" points="164.52 171.87 156.62 184.51 171.41 224.18 185.72 186.08 179.04 171.87 164.52 171.87"/>
    <line class="cls-5" x1="171.17" y1="289.42" x2="171.17" y2="259.03"/>
    <ellipse class="cls-9" cx="144.59" cy="293.13" rx="26.58" ry="12.39"/>
    <ellipse class="cls-9" cx="197.75" cy="293.13" rx="26.58" ry="12.39"/>
    <rect class="cls-4" x="64.92" y="12.81" width="210.43" height="140.57"/>
    <circle class="cls-2" cx="171.17" cy="83.1" r="42.61"/>
    <path class="cls-10" d="M89.24,27.31c.21,2.57,3.64,8.51,5.11,14.03,1.75,6.57-2.68,12.32-5.99,12.32s-6.83-5.57-5.99-12.32c.4-3.23,2.45-6.07,3-8.71"/>
    <path class="cls-1" d="M198.11,153.42s-25.38,32.16-82.59,40.61l-6.29,31.89s79.29-7.16,129.26-72.5h-40.38Z"/>
    <path class="cls-4" d="M204.97,153.42c-5.5,7.68-31.12,36.25-90.52,45.82l-4.13,21.06c4.37.03,78.69-10.42,120.88-66.88h-26.23Z"/>
    <g>
      <path d="M167.08,203.88l-3.8,1.59-2.82-6.05c-.85-1.79-1.91-4.05-2.83-6.33l-.07.03c.41,2.26.77,4.87.98,6.72l.84,6.9-3.05,1.27-4.14-5.47c-1.12-1.47-2.61-3.6-3.86-5.57l-.07.03c.83,2.17,1.73,4.65,2.41,6.54l2.27,6.26-3.62,1.51-5.99-17.75,4.92-2.05,3.75,4.98c1.36,1.84,2.74,3.73,3.93,5.61l.09-.04c-.46-2.14-.88-4.56-1.19-6.78l-.81-6.18,4.85-2.03,8.21,16.82Z"/>
      <path d="M179.15,176.33l4.18,19.03-4.41,2.43-13.67-13.78,4.22-2.32,5.34,5.95c1.45,1.6,2.9,3.26,4.31,5.05l.07-.04c-.77-2.12-1.4-4.25-1.98-6.33l-2.18-7.71,4.13-2.27Z"/>
      <path d="M184.9,172.94c.89-.89,2.21-2.03,4-3.28,2.07-1.46,3.83-2.19,5.49-2.06,1.55.09,3.06.98,4.06,2.41,2.99,4.25.14,7.74-2.32,9.47-.34.24-.66.44-.92.59l3.84,5.46-3.55,2.5-10.6-15.07ZM193.29,177.33c.24-.14.47-.27.84-.53,1.66-1.17,1.87-2.77.9-4.15-.99-1.41-2.4-1.56-3.82-.56-.49.34-.83.67-.99.88l3.07,4.37Z"/>
    </g>
  </g>
</svg>