<?xml version="1.0" encoding="UTF-8"?>
<svg id="_レイヤー_1" data-name="レイヤー 1" xmlns="http://www.w3.org/2000/svg" viewBox="0 0 370 319">
  <defs>
    <style>
      .cls-1 {
        opacity: .2;
      }

      .cls-1, .cls-2, .cls-3, .cls-4, .cls-5, .cls-6, .cls-7, .cls-8, .cls-9, .cls-10 {
        stroke-linecap: round;
        stroke-linejoin: round;
      }

      .cls-1, .cls-2, .cls-4, .cls-5, .cls-6, .cls-7, .cls-8, .cls-9, .cls-10 {
        stroke: #000;
        stroke-width: 2px;
      }

      .cls-2 {
        fill: red;
      }

      .cls-3 {
        stroke: #fff;
        stroke-width: 5px;
      }

      .cls-3, .cls-4 {
        fill: #fff;
      }

      .cls-5 {
        fill: none;
      }

      .cls-6 {
        fill: #f4db8e;
      }

      .cls-7 {
        fill: #1b1464;
      }

      .cls-8 {
        opacity: .3;
      }

      .cls-9 {
        fill: #40210f;
      }

      .cls-10 {
        fill: #009fe8;
      }
    </style>
  </defs>
  <g id="_よろしくお願いします" data-name="よろしくお願いします">
    <g>
      <path class="cls-3" d="M345.31,25.34c-.23,0-.34.1-.34.3v6.34c0,.22.1.37.3.44,2.32,1.14,5.44,3.22,9.35,6.23.45.35.71.81.78,1.39.06.58-.11,1.08-.51,1.5l-1.48,1.71c-.4.45-.9.69-1.5.74-.59.05-1.13-.11-1.61-.48-2.17-1.68-3.9-2.98-5.19-3.89-.15-.1-.25-.05-.3.15-.71,4.48-3.81,6.71-9.31,6.71-3.23,0-5.74-.73-7.53-2.19-1.79-1.46-2.69-3.45-2.69-5.97s.88-4.51,2.65-5.97c1.77-1.46,4.29-2.19,7.57-2.19.43,0,1.07.03,1.93.07.23,0,.34-.1.34-.3v-13.61c0-.57.21-1.06.64-1.48s.93-.63,1.51-.63h2.88c.58,0,1.08.21,1.51.63.43.42.64.92.64,1.48v2.75c0,.22.11.33.34.33h8.1c.58,0,1.08.21,1.51.63.43.42.64.92.64,1.48v1.71c0,.57-.21,1.06-.64,1.48-.43.42-.93.63-1.51.63h-8.1ZM337.77,37.58v-1.04c0-.2-.11-.32-.34-.37-.4-.05-1.05-.07-1.93-.07-2.27,0-3.41.74-3.41,2.22,0,.77.26,1.33.79,1.69.53.36,1.4.54,2.61.54.86,0,1.45-.2,1.78-.61.33-.41.49-1.19.49-2.36Z"/>
      <path class="cls-3" d="M344.59,63.92c3.63,0,6.37.7,8.21,2.1,1.84,1.4,2.76,3.36,2.76,5.88,0,3.54-1.3,6.28-3.9,8.22-2.6,1.94-6.41,2.91-11.43,2.91-2.3,0-4.62-.07-6.96-.22-.61-.02-1.12-.26-1.53-.7-.42-.44-.64-.97-.66-1.56l-.04-2.08c-.03-.57.17-1.04.59-1.43.42-.38.9-.56,1.46-.54,2.22.15,4.42.22,6.59.22,5.3,0,7.95-1.42,7.95-4.27,0-1.19-.49-2.07-1.48-2.65-.98-.58-2.64-.87-4.96-.87-3.36,0-7.38,1.01-12.08,3.04-.56.25-1.1.27-1.65.06-.54-.21-.95-.57-1.23-1.09l-.57-1.04c-.25-.54-.3-1.1-.13-1.67s.5-1.01,1-1.34l13.13-8.13v-.04h-9.58c-.58,0-1.08-.21-1.51-.63s-.64-.91-.64-1.48v-1.52c0-.57.21-1.06.64-1.48.43-.42.93-.63,1.51-.63h19.91c.58,0,1.08.21,1.51.63.43.42.64.92.64,1.48v1.89c0,1.39-.64,2.4-1.93,3.04l-8.29,4.08.04.04c1.01-.15,1.88-.22,2.61-.22Z"/>
      <path class="cls-3" d="M354.69,105.47c.55.2.95.56,1.19,1.08s.25,1.05.02,1.6c-1.84,4.25-4.08,7.35-6.7,9.27-2.62,1.93-5.68,2.89-9.16,2.89-3.1,0-5.5-.43-7.19-1.3-1.69-.87-2.93-2.36-3.73-4.49-.79-2.13-1.19-5.14-1.19-9.05,0-4.57.14-9.31.42-14.21.05-.59.3-1.09.74-1.5.44-.41.97-.6,1.57-.57l3.07.11c.58.02,1.07.25,1.46.67.39.42.57.92.55,1.48-.28,4.7-.42,9.37-.42,14.02,0,2.25.16,3.96.47,5.14.32,1.17.8,1.97,1.46,2.39.66.42,1.59.63,2.8.63,1.84,0,3.52-.61,5.03-1.82,1.51-1.21,2.95-3.24,4.31-6.08.28-.54.69-.93,1.23-1.15.54-.22,1.09-.24,1.65-.04l2.42.93Z"/>
      <path class="cls-3" d="M350.45,152.43c.45.35.71.81.78,1.39.06.58-.09,1.08-.47,1.5l-1.74,2c-.4.45-.9.7-1.5.76-.59.06-1.13-.08-1.61-.43-3.61-2.65-7.48-5.37-11.62-8.16-2.47-1.68-4.18-2.91-5.11-3.69-.93-.78-1.56-1.48-1.89-2.11-.33-.63-.49-1.49-.49-2.58,0-1.63.4-2.87,1.19-3.71.79-.84,2.87-2.3,6.23-4.38,3.91-2.4,7.53-4.74,10.86-7.01.48-.35,1.02-.47,1.63-.37.61.1,1.08.38,1.44.85l1.59,2.15c.35.47.49.99.4,1.56s-.37,1.01-.85,1.34c-3.08,2.08-6.59,4.3-10.52,6.68-1.51.92-2.5,1.55-2.95,1.91s-.68.69-.68.98.2.61.59.95c.39.33,1.33,1,2.82,1.98,4.37,2.89,8.34,5.69,11.92,8.38Z"/>
      <path class="cls-3" d="M301.29,100.64c3.68,0,6.69.9,9.01,2.69,2.32,1.79,3.48,3.99,3.48,6.58,0,5.44-2.95,8.79-8.86,10.05-.58.12-1.13.02-1.65-.31-.52-.33-.85-.8-1-1.39l-.45-1.85c-.13-.54-.04-1.06.26-1.54s.73-.8,1.29-.95c1.24-.35,2.11-.8,2.63-1.37.52-.57.78-1.32.78-2.26s-.51-1.7-1.53-2.36-2.34-.98-3.96-.98h-.8c-.23,0-.34.11-.34.33v5.6c0,2.75-.51,4.61-1.51,5.58-1.01.98-2.9,1.47-5.68,1.47s-5.14-.8-7.02-2.41-2.82-3.65-2.82-6.12c0-2.15.86-4.1,2.59-5.84,1.73-1.74,4.17-3.05,7.32-3.91.2-.05.3-.19.3-.41v-3.26c0-.2-.11-.3-.34-.3h-5.83c-.58,0-1.09-.21-1.51-.63-.43-.42-.64-.91-.64-1.48v-1.34c0-.57.21-1.06.64-1.48.43-.42.93-.63,1.51-.63h5.83c.23,0,.34-.11.34-.33v-1.63c0-.57.21-1.06.64-1.48.43-.42.93-.63,1.51-.63h2.5c.58,0,1.09.21,1.51.63s.64.91.64,1.48v1.63c0,.22.11.33.34.33h4.69c.58,0,1.08.21,1.51.63s.64.91.64,1.48v1.34c0,.57-.21,1.06-.64,1.48-.43.42-.93.63-1.51.63h-4.69c-.23,0-.34.1-.34.3v2.37c0,.2.11.3.34.3h.8ZM293.34,112.33v-4.04c0-.07-.04-.13-.11-.17-.08-.04-.15-.04-.23-.02-2.04.79-3.07,1.89-3.07,3.3,0,.59.24,1.15.72,1.65.48.51,1,.76,1.55.76.48,0,.79-.09.93-.26s.21-.58.21-1.22ZM317.27,97.9c.28.5.34,1.02.19,1.58-.15.56-.49.96-1.02,1.21l-1.14.59c-.53.27-1.08.32-1.65.15s-1-.52-1.31-1.04c-.93-1.61-1.98-3.33-3.14-5.16-.3-.5-.39-1.03-.26-1.6s.44-1,.95-1.3l1.06-.59c.5-.3,1.04-.38,1.61-.26s1.02.43,1.34.93c1.06,1.66,2.18,3.49,3.37,5.49Z"/>
      <path class="cls-3" d="M301.1,145.09c0,.57-.21,1.06-.64,1.48-.43.42-.93.63-1.51.63h-1.1c-.23,0-.34.11-.34.33v5.23c0,1.46-.04,2.55-.11,3.26-.08.72-.28,1.3-.63,1.74-.34.45-.76.71-1.27.8s-1.29.13-2.35.13h-.49c-.61-.03-1.12-.26-1.55-.7-.43-.45-.66-.98-.68-1.6l-.04-1.22s-.06-.02-.11,0c-.03.07-.06.18-.11.31-.05.14-.09.24-.11.32-.2.54-.59.91-1.15,1.09s-1.1.14-1.61-.13l-.79-.41c-.2-.1-.33-.04-.38.19l-.11.33c-.15.44-.47.7-.95.78-.48.07-.87-.07-1.17-.44l-1.32-1.67c-.88-1.09-1.16-2.32-.83-3.71.33-1.56.55-3.29.66-5.19.11-1.9.17-5.06.17-9.46v-9.76c0-.57.21-1.06.64-1.48.43-.42.93-.63,1.51-.63h14.23c.58,0,1.08.21,1.51.63.43.42.64.92.64,1.48v1.15c0,.57-.21,1.06-.64,1.48-.43.42-.93.63-1.51.63h-.68c-.23,0-.37.1-.42.3-.03.1-.06.25-.11.46-.05.21-.09.37-.11.46-.05.17.02.26.23.26h1.1c.58,0,1.08.21,1.51.63.43.42.64.92.64,1.48v10.79ZM292.21,151.65v-4.12c0-.22-.11-.33-.34-.33h-1.1c-.58,0-1.09-.21-1.51-.63-.43-.42-.64-.91-.64-1.48v-10.79c0-.57.21-1.06.64-1.48.43-.42.93-.63,1.51-.63h.08c.23,0,.37-.1.42-.3.02-.1.07-.25.13-.44.06-.2.11-.35.13-.44.05-.2-.04-.3-.26-.3h-3.07c-.23,0-.34.1-.34.3v10.46c0,5.39-.34,9.58-1.02,12.58h.04c.53-1.38,1-2.93,1.4-4.64.13-.47.38-.83.76-1.09.38-.26.81-.35,1.29-.28.48.07.86.3,1.14.69.28.38.37.81.26,1.28-.25,1.19-.45,2.06-.61,2.63-.05.2.02.3.23.3.05,0,.11,0,.17.02s.11.02.13.02c.28,0,.44-.06.49-.17.05-.11.08-.49.08-1.13ZM295.99,137.59v-.82c0-.22-.11-.33-.34-.33h-1.78c-.23,0-.34.11-.34.33v.82c0,.22.11.33.34.33h1.78c.23,0,.34-.11.34-.33ZM295.99,142.6v-.85c0-.2-.11-.3-.34-.3h-1.78c-.23,0-.34.1-.34.3v.85c0,.22.11.33.34.33h1.78c.23,0,.34-.11.34-.33ZM316.51,153.54c.53.3.88.73,1.04,1.3.16.57.11,1.13-.17,1.67l-.57,1.04c-.25.52-.66.86-1.23,1.02s-1.1.1-1.61-.17c-1.99-1.04-3.91-1.93-5.75-2.67-.2-.07-.4-.05-.61.07-1.49.99-3.24,1.89-5.26,2.71-.56.22-1.12.22-1.68,0s-.99-.61-1.27-1.15l-.57-1.04c-.35-.74-.28-1.42.23-2.04.13-.15.11-.3-.04-.44-.23-.22-.38-.52-.45-.89-.1-.67-.28-1.64-.53-2.93-.1-.47-.02-.9.25-1.3s.64-.63,1.12-.71c.48-.07.91.02,1.31.28s.64.62.74,1.09l.57,3c.05.2.15.26.3.19,1.01-.5,1.64-.82,1.89-.97.02-.02.02-.06,0-.09-.03-.04-.05-.06-.08-.06-.58,0-1.07-.2-1.48-.59-.4-.4-.61-.88-.61-1.45v-15.51c0-.57.21-1.06.64-1.48s.93-.63,1.51-.63h.38c.23,0,.37-.1.42-.3,0-.05.02-.14.08-.26.05-.12.08-.21.08-.26.05-.2-.04-.3-.26-.3h-.87c-.58,0-1.09-.21-1.51-.63s-.64-.91-.64-1.48v-1.15c0-.57.21-1.06.64-1.48.43-.42.93-.63,1.51-.63h11.39c.58,0,1.08.21,1.51.63.43.42.64.92.64,1.48v1.15c0,.57-.21,1.06-.64,1.48s-.93.63-1.51.63h-3.14c-.23,0-.37.11-.42.33-.03.07-.05.16-.08.26-.03.1-.04.19-.04.26-.05.17.02.26.23.26h2.69c.58,0,1.08.21,1.51.63.43.42.64.92.64,1.48v15.43c0,.57-.21,1.06-.64,1.48s-.93.63-1.51.63h-2.23s-.03.06,0,.11c1.29.52,2.65,1.18,4.09,1.97ZM309.66,151.76c.1-.2.04-.3-.19-.3h-3.03c-.08,0-.13.03-.17.09s-.03.12.02.17l1.7,2.67c.1.15.2.15.3,0l1.36-2.63ZM310.76,137.59v-.67c0-.2-.11-.3-.34-.3h-2.39c-.2,0-.3.1-.3.3v.67c0,.22.1.33.3.33h2.39c.23,0,.34-.11.34-.33ZM310.76,142.04v-.67c0-.2-.11-.3-.34-.3h-2.39c-.2,0-.3.1-.3.3v.67c0,.22.1.33.3.33h2.39c.23,0,.34-.11.34-.33ZM310.76,146.5v-.67c0-.2-.11-.3-.34-.3h-2.39c-.2,0-.3.1-.3.3v.67c0,.22.1.33.3.33h2.39c.23,0,.34-.11.34-.33Z"/>
      <path class="cls-3" d="M303.07,181.99c.55.2.96.56,1.21,1.09.25.53.26,1.07.04,1.61-1.34,3.14-2.97,5.58-4.9,7.31s-3.83,2.6-5.7,2.6c-2.32,0-4.48-1.47-6.47-4.41-1.99-2.94-2.99-6.54-2.99-10.79,0-3.81.49-7.58,1.48-11.32.15-.59.49-1.06,1-1.41.52-.35,1.09-.48,1.72-.41l2.76.3c.55.05.99.3,1.31.76.32.46.41.96.28,1.5-.91,3.76-1.36,7.28-1.36,10.57,0,1.16.09,2.27.28,3.32.19,1.05.44,1.92.74,2.6.3.68.61,1.22.93,1.63.32.41.61.61.89.61.4,0,.96-.44,1.67-1.32.71-.88,1.45-2.16,2.23-3.84.25-.52.65-.89,1.19-1.11.54-.22,1.09-.24,1.65-.04l2.04.74ZM308.86,166.26c.61-.17,1.19-.14,1.74.11.55.25.95.64,1.17,1.19,2.6,6.18,4.01,13.13,4.24,20.85.02.57-.18,1.06-.61,1.48s-.93.63-1.51.63h-2.88c-.58,0-1.09-.2-1.51-.61-.43-.41-.66-.9-.68-1.47-.23-6.65-1.46-12.97-3.71-18.96-.2-.54-.18-1.07.08-1.58.25-.51.66-.83,1.21-.98l2.46-.67Z"/>
      <path class="cls-3" d="M313.67,216.76c.55.2.95.56,1.19,1.08s.25,1.05.02,1.6c-1.84,4.25-4.08,7.35-6.7,9.27-2.62,1.93-5.68,2.89-9.16,2.89-3.1,0-5.5-.43-7.19-1.3-1.69-.87-2.93-2.36-3.73-4.49-.79-2.13-1.19-5.14-1.19-9.05,0-4.57.14-9.31.42-14.21.05-.59.3-1.09.74-1.5.44-.41.97-.6,1.57-.57l3.07.11c.58.02,1.07.25,1.46.67.39.42.57.92.55,1.48-.28,4.7-.42,9.37-.42,14.02,0,2.25.16,3.96.47,5.14.32,1.17.8,1.97,1.46,2.39.66.42,1.59.63,2.8.63,1.84,0,3.52-.61,5.03-1.82,1.51-1.21,2.95-3.24,4.31-6.08.28-.54.69-.93,1.23-1.15.54-.22,1.09-.24,1.65-.04l2.42.93Z"/>
      <path class="cls-3" d="M312.76,239.76c.58,0,1.09.21,1.51.63s.64.91.64,1.48v1.71c0,.57-.21,1.06-.64,1.48-.43.42-.93.63-1.51.63h-6.59c-.23,0-.34.11-.34.33v.85c0,.2.11.3.34.3h5.07c.58,0,1.08.21,1.51.63.43.42.64.92.64,1.48v1.52c0,.57-.21,1.06-.64,1.48s-.93.63-1.51.63h-5.07c-.23,0-.34.11-.34.33v3.86c0,.22.1.4.3.52,2.09,1.29,4.24,2.89,6.43,4.82.43.4.66.88.7,1.47.04.58-.15,1.08-.55,1.5l-1.29,1.34c-.4.42-.9.65-1.48.69s-1.09-.14-1.51-.54c-.96-.87-1.93-1.68-2.92-2.45-.15-.15-.29-.11-.42.11-.61,1.58-1.68,2.73-3.22,3.43-1.54.7-3.63,1.06-6.28,1.06-2.85,0-5.08-.65-6.68-1.95-1.6-1.3-2.4-3.12-2.4-5.47s.78-4.05,2.35-5.32,3.81-1.91,6.74-1.91c1.11,0,2.14.09,3.1.26.2.05.3-.04.3-.26v-1.15c0-.22-.1-.33-.3-.33h-10.41c-.58,0-1.09-.21-1.51-.63-.43-.42-.64-.91-.64-1.48v-1.52c0-.57.21-1.06.64-1.48s.93-.63,1.51-.63h10.41c.2,0,.3-.1.3-.3v-.85c0-.22-.1-.33-.3-.33h-11.92c-.58,0-1.09-.21-1.51-.63-.43-.42-.64-.91-.64-1.48v-1.71c0-.57.21-1.06.64-1.48s.93-.63,1.51-.63h11.92c.2,0,.3-.11.3-.33v-.52c0-.57.21-1.06.64-1.48.43-.42.93-.63,1.51-.63h2.5c.58,0,1.08.21,1.51.63.43.42.64.92.64,1.48v.52c0,.22.11.33.34.33h6.59ZM295.62,263.13c1.29,0,2.15-.14,2.59-.41s.7-.87.78-1.78c0-.22-.08-.35-.23-.37-.91-.27-1.7-.41-2.39-.41-2.02,0-3.03.5-3.03,1.48s.76,1.48,2.27,1.48Z"/>
      <path class="cls-3" d="M314.28,276.48c.58,0,1.08.21,1.51.63s.64.91.64,1.48v1.34c0,.57-.21,1.06-.64,1.48-.43.42-.93.63-1.51.63h-7.38c-.2,0-.3.11-.3.33v6.05c0,.12.05.31.15.56.78,1.58,1.17,3.23,1.17,4.93,0,3.64-1.05,6.4-3.14,8.29-2.09,1.89-5.58,3.13-10.45,3.73-.61.07-1.14-.07-1.61-.43-.47-.36-.76-.83-.89-1.43l-.38-1.78c-.1-.54.02-1.04.38-1.5.35-.46.82-.71,1.4-.76,1.92-.2,3.37-.41,4.37-.63s1.7-.47,2.1-.74c.4-.27.72-.64.95-1.11.02-.02.04-.06.04-.11s.01-.09.04-.11v-.07h-.08c-1.29.5-2.59.74-3.9.74-2.47,0-4.48-.68-6.02-2.04-1.54-1.36-2.31-3.15-2.31-5.38s.78-4.05,2.35-5.4c1.56-1.35,3.68-2.02,6.36-2.02.78,0,1.63.12,2.54.37h.08s.04-.01.04-.04v-1.11c0-.22-.11-.33-.34-.33h-14.16c-.58,0-1.09-.21-1.51-.63-.43-.42-.64-.91-.64-1.48v-1.34c0-.57.21-1.06.64-1.48.43-.42.93-.63,1.51-.63h14.16c.23,0,.34-.11.34-.33v-.89c0-.57.21-1.06.64-1.48s.93-.63,1.51-.63h2.5c.58,0,1.09.21,1.51.63.43.42.64.92.64,1.48v.89c0,.22.1.33.3.33h7.38ZM295.79,292.18c.49.42,1.13.63,1.91.63s1.42-.21,1.91-.63.74-.95.74-1.6-.25-1.17-.74-1.6c-.49-.42-1.13-.63-1.91-.63s-1.42.21-1.91.63c-.49.42-.74.95-.74,1.6s.25,1.17.74,1.6Z"/>
    </g>
    <g>
      <path d="M345.31,25.34c-.23,0-.34.1-.34.3v6.34c0,.22.1.37.3.44,2.32,1.14,5.44,3.22,9.35,6.23.45.35.71.81.78,1.39.06.58-.11,1.08-.51,1.5l-1.48,1.71c-.4.45-.9.69-1.5.74-.59.05-1.13-.11-1.61-.48-2.17-1.68-3.9-2.98-5.19-3.89-.15-.1-.25-.05-.3.15-.71,4.48-3.81,6.71-9.31,6.71-3.23,0-5.74-.73-7.53-2.19-1.79-1.46-2.69-3.45-2.69-5.97s.88-4.51,2.65-5.97c1.77-1.46,4.29-2.19,7.57-2.19.43,0,1.07.03,1.93.07.23,0,.34-.1.34-.3v-13.61c0-.57.21-1.06.64-1.48s.93-.63,1.51-.63h2.88c.58,0,1.08.21,1.51.63.43.42.64.92.64,1.48v2.75c0,.22.11.33.34.33h8.1c.58,0,1.08.21,1.51.63.43.42.64.92.64,1.48v1.71c0,.57-.21,1.06-.64,1.48-.43.42-.93.63-1.51.63h-8.1ZM337.77,37.58v-1.04c0-.2-.11-.32-.34-.37-.4-.05-1.05-.07-1.93-.07-2.27,0-3.41.74-3.41,2.22,0,.77.26,1.33.79,1.69.53.36,1.4.54,2.61.54.86,0,1.45-.2,1.78-.61.33-.41.49-1.19.49-2.36Z"/>
      <path d="M344.59,63.92c3.63,0,6.37.7,8.21,2.1,1.84,1.4,2.76,3.36,2.76,5.88,0,3.54-1.3,6.28-3.9,8.22-2.6,1.94-6.41,2.91-11.43,2.91-2.3,0-4.62-.07-6.96-.22-.61-.02-1.12-.26-1.53-.7-.42-.44-.64-.97-.66-1.56l-.04-2.08c-.03-.57.17-1.04.59-1.43.42-.38.9-.56,1.46-.54,2.22.15,4.42.22,6.59.22,5.3,0,7.95-1.42,7.95-4.27,0-1.19-.49-2.07-1.48-2.65-.98-.58-2.64-.87-4.96-.87-3.36,0-7.38,1.01-12.08,3.04-.56.25-1.1.27-1.65.06-.54-.21-.95-.57-1.23-1.09l-.57-1.04c-.25-.54-.3-1.1-.13-1.67s.5-1.01,1-1.34l13.13-8.13v-.04h-9.58c-.58,0-1.08-.21-1.51-.63s-.64-.91-.64-1.48v-1.52c0-.57.21-1.06.64-1.48.43-.42.93-.63,1.51-.63h19.91c.58,0,1.08.21,1.51.63.43.42.64.92.64,1.48v1.89c0,1.39-.64,2.4-1.93,3.04l-8.29,4.08.04.04c1.01-.15,1.88-.22,2.61-.22Z"/>
      <path d="M354.69,105.47c.55.2.95.56,1.19,1.08s.25,1.05.02,1.6c-1.84,4.25-4.08,7.35-6.7,9.27-2.62,1.93-5.68,2.89-9.16,2.89-3.1,0-5.5-.43-7.19-1.3-1.69-.87-2.93-2.36-3.73-4.49-.79-2.13-1.19-5.14-1.19-9.05,0-4.57.14-9.31.42-14.21.05-.59.3-1.09.74-1.5.44-.41.97-.6,1.57-.57l3.07.11c.58.02,1.07.25,1.46.67.39.42.57.92.55,1.48-.28,4.7-.42,9.37-.42,14.02,0,2.25.16,3.96.47,5.14.32,1.17.8,1.97,1.46,2.39.66.42,1.59.63,2.8.63,1.84,0,3.52-.61,5.03-1.82,1.51-1.21,2.95-3.24,4.31-6.08.28-.54.69-.93,1.23-1.15.54-.22,1.09-.24,1.65-.04l2.42.93Z"/>
      <path d="M350.45,152.43c.45.35.71.81.78,1.39.06.58-.09,1.08-.47,1.5l-1.74,2c-.4.45-.9.7-1.5.76-.59.06-1.13-.08-1.61-.43-3.61-2.65-7.48-5.37-11.62-8.16-2.47-1.68-4.18-2.91-5.11-3.69-.93-.78-1.56-1.48-1.89-2.11-.33-.63-.49-1.49-.49-2.58,0-1.63.4-2.87,1.19-3.71.79-.84,2.87-2.3,6.23-4.38,3.91-2.4,7.53-4.74,10.86-7.01.48-.35,1.02-.47,1.63-.37.61.1,1.08.38,1.44.85l1.59,2.15c.35.47.49.99.4,1.56s-.37,1.01-.85,1.34c-3.08,2.08-6.59,4.3-10.52,6.68-1.51.92-2.5,1.55-2.95,1.91s-.68.69-.68.98.2.61.59.95c.39.33,1.33,1,2.82,1.98,4.37,2.89,8.34,5.69,11.92,8.38Z"/>
      <path d="M301.29,100.64c3.68,0,6.69.9,9.01,2.69,2.32,1.79,3.48,3.99,3.48,6.58,0,5.44-2.95,8.79-8.86,10.05-.58.12-1.13.02-1.65-.31-.52-.33-.85-.8-1-1.39l-.45-1.85c-.13-.54-.04-1.06.26-1.54s.73-.8,1.29-.95c1.24-.35,2.11-.8,2.63-1.37.52-.57.78-1.32.78-2.26s-.51-1.7-1.53-2.36-2.34-.98-3.96-.98h-.8c-.23,0-.34.11-.34.33v5.6c0,2.75-.51,4.61-1.51,5.58-1.01.98-2.9,1.47-5.68,1.47s-5.14-.8-7.02-2.41-2.82-3.65-2.82-6.12c0-2.15.86-4.1,2.59-5.84,1.73-1.74,4.17-3.05,7.32-3.91.2-.05.3-.19.3-.41v-3.26c0-.2-.11-.3-.34-.3h-5.83c-.58,0-1.09-.21-1.51-.63-.43-.42-.64-.91-.64-1.48v-1.34c0-.57.21-1.06.64-1.48.43-.42.93-.63,1.51-.63h5.83c.23,0,.34-.11.34-.33v-1.63c0-.57.21-1.06.64-1.48.43-.42.93-.63,1.51-.63h2.5c.58,0,1.09.21,1.51.63s.64.91.64,1.48v1.63c0,.22.11.33.34.33h4.69c.58,0,1.08.21,1.51.63s.64.91.64,1.48v1.34c0,.57-.21,1.06-.64,1.48-.43.42-.93.63-1.51.63h-4.69c-.23,0-.34.1-.34.3v2.37c0,.2.11.3.34.3h.8ZM293.34,112.33v-4.04c0-.07-.04-.13-.11-.17-.08-.04-.15-.04-.23-.02-2.04.79-3.07,1.89-3.07,3.3,0,.59.24,1.15.72,1.65.48.51,1,.76,1.55.76.48,0,.79-.09.93-.26s.21-.58.21-1.22ZM317.27,97.9c.28.5.34,1.02.19,1.58-.15.56-.49.96-1.02,1.21l-1.14.59c-.53.27-1.08.32-1.65.15s-1-.52-1.31-1.04c-.93-1.61-1.98-3.33-3.14-5.16-.3-.5-.39-1.03-.26-1.6s.44-1,.95-1.3l1.06-.59c.5-.3,1.04-.38,1.61-.26s1.02.43,1.34.93c1.06,1.66,2.18,3.49,3.37,5.49Z"/>
      <path d="M301.1,145.09c0,.57-.21,1.06-.64,1.48-.43.42-.93.63-1.51.63h-1.1c-.23,0-.34.11-.34.33v5.23c0,1.46-.04,2.55-.11,3.26-.08.72-.28,1.3-.63,1.74-.34.45-.76.71-1.27.8s-1.29.13-2.35.13h-.49c-.61-.03-1.12-.26-1.55-.7-.43-.45-.66-.98-.68-1.6l-.04-1.22s-.06-.02-.11,0c-.03.07-.06.18-.11.31-.05.14-.09.24-.11.32-.2.54-.59.91-1.15,1.09s-1.1.14-1.61-.13l-.79-.41c-.2-.1-.33-.04-.38.19l-.11.33c-.15.44-.47.7-.95.78-.48.07-.87-.07-1.17-.44l-1.32-1.67c-.88-1.09-1.16-2.32-.83-3.71.33-1.56.55-3.29.66-5.19.11-1.9.17-5.06.17-9.46v-9.76c0-.57.21-1.06.64-1.48.43-.42.93-.63,1.51-.63h14.23c.58,0,1.08.21,1.51.63.43.42.64.92.64,1.48v1.15c0,.57-.21,1.06-.64,1.48-.43.42-.93.63-1.51.63h-.68c-.23,0-.37.1-.42.3-.03.1-.06.25-.11.46-.05.21-.09.37-.11.46-.05.17.02.26.23.26h1.1c.58,0,1.08.21,1.51.63.43.42.64.92.64,1.48v10.79ZM292.21,151.65v-4.12c0-.22-.11-.33-.34-.33h-1.1c-.58,0-1.09-.21-1.51-.63-.43-.42-.64-.91-.64-1.48v-10.79c0-.57.21-1.06.64-1.48.43-.42.93-.63,1.51-.63h.08c.23,0,.37-.1.42-.3.02-.1.07-.25.13-.44.06-.2.11-.35.13-.44.05-.2-.04-.3-.26-.3h-3.07c-.23,0-.34.1-.34.3v10.46c0,5.39-.34,9.58-1.02,12.58h.04c.53-1.38,1-2.93,1.4-4.64.13-.47.38-.83.76-1.09.38-.26.81-.35,1.29-.28.48.07.86.3,1.14.69.28.38.37.81.26,1.28-.25,1.19-.45,2.06-.61,2.63-.05.2.02.3.23.3.05,0,.11,0,.17.02s.11.02.13.02c.28,0,.44-.06.49-.17.05-.11.08-.49.08-1.13ZM295.99,137.59v-.82c0-.22-.11-.33-.34-.33h-1.78c-.23,0-.34.11-.34.33v.82c0,.22.11.33.34.33h1.78c.23,0,.34-.11.34-.33ZM295.99,142.6v-.85c0-.2-.11-.3-.34-.3h-1.78c-.23,0-.34.1-.34.3v.85c0,.22.11.33.34.33h1.78c.23,0,.34-.11.34-.33ZM316.51,153.54c.53.3.88.73,1.04,1.3.16.57.11,1.13-.17,1.67l-.57,1.04c-.25.52-.66.86-1.23,1.02s-1.1.1-1.61-.17c-1.99-1.04-3.91-1.93-5.75-2.67-.2-.07-.4-.05-.61.07-1.49.99-3.24,1.89-5.26,2.71-.56.22-1.12.22-1.68,0s-.99-.61-1.27-1.15l-.57-1.04c-.35-.74-.28-1.42.23-2.04.13-.15.11-.3-.04-.44-.23-.22-.38-.52-.45-.89-.1-.67-.28-1.64-.53-2.93-.1-.47-.02-.9.25-1.3s.64-.63,1.12-.71c.48-.07.91.02,1.31.28s.64.62.74,1.09l.57,3c.05.2.15.26.3.19,1.01-.5,1.64-.82,1.89-.97.02-.02.02-.06,0-.09-.03-.04-.05-.06-.08-.06-.58,0-1.07-.2-1.48-.59-.4-.4-.61-.88-.61-1.45v-15.51c0-.57.21-1.06.64-1.48s.93-.63,1.51-.63h.38c.23,0,.37-.1.42-.3,0-.05.02-.14.08-.26.05-.12.08-.21.08-.26.05-.2-.04-.3-.26-.3h-.87c-.58,0-1.09-.21-1.51-.63s-.64-.91-.64-1.48v-1.15c0-.57.21-1.06.64-1.48.43-.42.93-.63,1.51-.63h11.39c.58,0,1.08.21,1.51.63.43.42.64.92.64,1.48v1.15c0,.57-.21,1.06-.64,1.48s-.93.63-1.51.63h-3.14c-.23,0-.37.11-.42.33-.03.07-.05.16-.08.26-.03.1-.04.19-.04.26-.05.17.02.26.23.26h2.69c.58,0,1.08.21,1.51.63.43.42.64.92.64,1.48v15.43c0,.57-.21,1.06-.64,1.48s-.93.63-1.51.63h-2.23s-.03.06,0,.11c1.29.52,2.65,1.18,4.09,1.97ZM309.66,151.76c.1-.2.04-.3-.19-.3h-3.03c-.08,0-.13.03-.17.09s-.03.12.02.17l1.7,2.67c.1.15.2.15.3,0l1.36-2.63ZM310.76,137.59v-.67c0-.2-.11-.3-.34-.3h-2.39c-.2,0-.3.1-.3.3v.67c0,.22.1.33.3.33h2.39c.23,0,.34-.11.34-.33ZM310.76,142.04v-.67c0-.2-.11-.3-.34-.3h-2.39c-.2,0-.3.1-.3.3v.67c0,.22.1.33.3.33h2.39c.23,0,.34-.11.34-.33ZM310.76,146.5v-.67c0-.2-.11-.3-.34-.3h-2.39c-.2,0-.3.1-.3.3v.67c0,.22.1.33.3.33h2.39c.23,0,.34-.11.34-.33Z"/>
      <path d="M303.07,181.99c.55.2.96.56,1.21,1.09.25.53.26,1.07.04,1.61-1.34,3.14-2.97,5.58-4.9,7.31s-3.83,2.6-5.7,2.6c-2.32,0-4.48-1.47-6.47-4.41-1.99-2.94-2.99-6.54-2.99-10.79,0-3.81.49-7.58,1.48-11.32.15-.59.49-1.06,1-1.41.52-.35,1.09-.48,1.72-.41l2.76.3c.55.05.99.3,1.31.76.32.46.41.96.28,1.5-.91,3.76-1.36,7.28-1.36,10.57,0,1.16.09,2.27.28,3.32.19,1.05.44,1.92.74,2.6.3.68.61,1.22.93,1.63.32.41.61.61.89.61.4,0,.96-.44,1.67-1.32.71-.88,1.45-2.16,2.23-3.84.25-.52.65-.89,1.19-1.11.54-.22,1.09-.24,1.65-.04l2.04.74ZM308.86,166.26c.61-.17,1.19-.14,1.74.11.55.25.95.64,1.17,1.19,2.6,6.18,4.01,13.13,4.24,20.85.02.57-.18,1.06-.61,1.48s-.93.63-1.51.63h-2.88c-.58,0-1.09-.2-1.51-.61-.43-.41-.66-.9-.68-1.47-.23-6.65-1.46-12.97-3.71-18.96-.2-.54-.18-1.07.08-1.58.25-.51.66-.83,1.21-.98l2.46-.67Z"/>
      <path d="M313.67,216.76c.55.2.95.56,1.19,1.08s.25,1.05.02,1.6c-1.84,4.25-4.08,7.35-6.7,9.27-2.62,1.93-5.68,2.89-9.16,2.89-3.1,0-5.5-.43-7.19-1.3-1.69-.87-2.93-2.36-3.73-4.49-.79-2.13-1.19-5.14-1.19-9.05,0-4.57.14-9.31.42-14.21.05-.59.3-1.09.74-1.5.44-.41.97-.6,1.57-.57l3.07.11c.58.02,1.07.25,1.46.67.39.42.57.92.55,1.48-.28,4.7-.42,9.37-.42,14.02,0,2.25.16,3.96.47,5.14.32,1.17.8,1.97,1.46,2.39.66.42,1.59.63,2.8.63,1.84,0,3.52-.61,5.03-1.82,1.51-1.21,2.95-3.24,4.31-6.08.28-.54.69-.93,1.23-1.15.54-.22,1.09-.24,1.65-.04l2.42.93Z"/>
      <path d="M312.76,239.76c.58,0,1.09.21,1.51.63s.64.91.64,1.48v1.71c0,.57-.21,1.06-.64,1.48-.43.42-.93.63-1.51.63h-6.59c-.23,0-.34.11-.34.33v.85c0,.2.11.3.34.3h5.07c.58,0,1.08.21,1.51.63.43.42.64.92.64,1.48v1.52c0,.57-.21,1.06-.64,1.48s-.93.63-1.51.63h-5.07c-.23,0-.34.11-.34.33v3.86c0,.22.1.4.3.52,2.09,1.29,4.24,2.89,6.43,4.82.43.4.66.88.7,1.47.04.58-.15,1.08-.55,1.5l-1.29,1.34c-.4.42-.9.65-1.48.69s-1.09-.14-1.51-.54c-.96-.87-1.93-1.68-2.92-2.45-.15-.15-.29-.11-.42.11-.61,1.58-1.68,2.73-3.22,3.43-1.54.7-3.63,1.06-6.28,1.06-2.85,0-5.08-.65-6.68-1.95-1.6-1.3-2.4-3.12-2.4-5.47s.78-4.05,2.35-5.32,3.81-1.91,6.74-1.91c1.11,0,2.14.09,3.1.26.2.05.3-.04.3-.26v-1.15c0-.22-.1-.33-.3-.33h-10.41c-.58,0-1.09-.21-1.51-.63-.43-.42-.64-.91-.64-1.48v-1.52c0-.57.21-1.06.64-1.48s.93-.63,1.51-.63h10.41c.2,0,.3-.1.3-.3v-.85c0-.22-.1-.33-.3-.33h-11.92c-.58,0-1.09-.21-1.51-.63-.43-.42-.64-.91-.64-1.48v-1.71c0-.57.21-1.06.64-1.48s.93-.63,1.51-.63h11.92c.2,0,.3-.11.3-.33v-.52c0-.57.21-1.06.64-1.48.43-.42.93-.63,1.51-.63h2.5c.58,0,1.08.21,1.51.63.43.42.64.92.64,1.48v.52c0,.22.11.33.34.33h6.59ZM295.62,263.13c1.29,0,2.15-.14,2.59-.41s.7-.87.78-1.78c0-.22-.08-.35-.23-.37-.91-.27-1.7-.41-2.39-.41-2.02,0-3.03.5-3.03,1.48s.76,1.48,2.27,1.48Z"/>
      <path d="M314.28,276.48c.58,0,1.08.21,1.51.63s.64.91.64,1.48v1.34c0,.57-.21,1.06-.64,1.48-.43.42-.93.63-1.51.63h-7.38c-.2,0-.3.11-.3.33v6.05c0,.12.05.31.15.56.78,1.58,1.17,3.23,1.17,4.93,0,3.64-1.05,6.4-3.14,8.29-2.09,1.89-5.58,3.13-10.45,3.73-.61.07-1.14-.07-1.61-.43-.47-.36-.76-.83-.89-1.43l-.38-1.78c-.1-.54.02-1.04.38-1.5.35-.46.82-.71,1.4-.76,1.92-.2,3.37-.41,4.37-.63s1.7-.47,2.1-.74c.4-.27.72-.64.95-1.11.02-.02.04-.06.04-.11s.01-.09.04-.11v-.07h-.08c-1.29.5-2.59.74-3.9.74-2.47,0-4.48-.68-6.02-2.04-1.54-1.36-2.31-3.15-2.31-5.38s.78-4.05,2.35-5.4c1.56-1.35,3.68-2.02,6.36-2.02.78,0,1.63.12,2.54.37h.08s.04-.01.04-.04v-1.11c0-.22-.11-.33-.34-.33h-14.16c-.58,0-1.09-.21-1.51-.63-.43-.42-.64-.91-.64-1.48v-1.34c0-.57.21-1.06.64-1.48.43-.42.93-.63,1.51-.63h14.16c.23,0,.34-.11.34-.33v-.89c0-.57.21-1.06.64-1.48s.93-.63,1.51-.63h2.5c.58,0,1.09.21,1.51.63.43.42.64.92.64,1.48v.89c0,.22.1.33.3.33h7.38ZM295.79,292.18c.49.42,1.13.63,1.91.63s1.42-.21,1.91-.63.74-.95.74-1.6-.25-1.17-.74-1.6c-.49-.42-1.13-.63-1.91-.63s-1.42.21-1.91.63c-.49.42-.74.95-.74,1.6s.25,1.17.74,1.6Z"/>
    </g>
    <ellipse class="cls-8" cx="153.95" cy="298.91" rx="64.23" ry="4.15"/>
    <path class="cls-7" d="M212.44,239.43c-.37,29.62-14.49,46.72-14.49,46.72h-84.44c-14.53-22.3-14.48-46.72-14.48-46.72h113.41Z"/>
    <ellipse class="cls-9" cx="127.12" cy="289.47" rx="26.82" ry="12.5"/>
    <ellipse class="cls-9" cx="180.77" cy="289.47" rx="26.82" ry="12.5"/>
    <polygon class="cls-7" points="223.83 240.93 87.64 240.93 111.39 119.86 197.43 119.86 223.83 240.93"/>
    <line class="cls-5" x1="153.95" y1="286.93" x2="153.95" y2="258.03"/>
    <polygon class="cls-7" points="127.63 148.46 105.78 148.46 114.96 164.36 129.13 165.6 118.39 173.21 151.29 212.33 127.63 148.46"/>
    <polygon class="cls-7" points="180.82 148.46 202.66 148.46 193.49 164.36 179.32 165.6 190.06 173.21 157.15 212.33 180.82 148.46"/>
    <polygon class="cls-7" points="127.73 148.46 154.34 148.46 180.82 148.43 175.05 164.01 154.34 149.57 133.33 163.58 127.73 148.46"/>
    <polygon class="cls-2" points="144.06 156.43 147.24 167.1 161.89 167.1 164.63 156.43 154.34 149.57 144.06 156.43"/>
    <polygon class="cls-2" points="147.24 167.1 139.26 179.85 154.19 219.89 168.63 181.43 161.89 167.1 147.24 167.1"/>
    <ellipse class="cls-6" cx="165.62" cy="213.03" rx="15.21" ry="9.79" transform="translate(-103.27 235.55) rotate(-56.93)"/>
    <ellipse class="cls-6" cx="144.06" cy="213.84" rx="9.21" ry="14.31" transform="translate(-93.36 113.27) rotate(-33.07)"/>
    <path class="cls-7" d="M217.37,146.58c1.77,31.52-32.18,67.69-32.18,67.69l-30.84-7.61c18.97-29.12,23.97-60.14,23.97-60.14l39.06.06Z"/>
    <path class="cls-7" d="M91.25,146.58c-1.77,31.52,32.18,67.69,32.18,67.69l30.84-7.61c-18.97-29.12-23.97-60.14-23.97-60.14l-39.06.06Z"/>
    <polygon class="cls-1" points="216.49 158.55 92.13 158.55 90.2 142.05 218.23 142.05 216.49 158.55"/>
    <polygon class="cls-4" points="40.91 28.89 270.55 28.89 253.29 150.3 58.18 150.3 40.91 28.89"/>
    <path class="cls-2" d="M198.13,95.27c-1.12,19.66-20.22,34.84-42.71,34.84s-41.6-15.19-42.74-34.84c-1.2-20.76,17.89-38.46,42.7-38.46s43.92,17.7,42.74,38.46Z"/>
    <path class="cls-10" d="M67.21,40.45c.2,2.53,3.57,8.36,5.01,13.77,1.72,6.45-2.63,12.09-5.88,12.09s-6.7-5.46-5.88-12.09c.39-3.17,2.41-5.96,2.94-8.55"/>
    <polyline class="cls-4" points="42.49 28.89 40.91 28.89 45.31 19.19 266.83 19.19 270.55 28.89 42.49 28.89"/>
  </g>
</svg>