<?xml version="1.0" encoding="UTF-8"?>
<svg id="_レイヤー_1" data-name="レイヤー 1" xmlns="http://www.w3.org/2000/svg" viewBox="0 0 370 320">
  <defs>
    <style>
      .cls-1 {
        fill: red;
      }

      .cls-1, .cls-2, .cls-3, .cls-4, .cls-5, .cls-6, .cls-7, .cls-8, .cls-9 {
        stroke-linecap: round;
        stroke-linejoin: round;
      }

      .cls-1, .cls-3, .cls-4, .cls-5, .cls-6, .cls-7, .cls-8, .cls-9 {
        stroke: #000;
        stroke-width: 2px;
      }

      .cls-2 {
        stroke: #fff;
        stroke-width: 5px;
      }

      .cls-2, .cls-3 {
        fill: #fff;
      }

      .cls-4 {
        fill: none;
      }

      .cls-5 {
        fill: #f4db8e;
      }

      .cls-6 {
        fill: #1b1464;
      }

      .cls-7 {
        opacity: .3;
      }

      .cls-8 {
        fill: #40210f;
      }

      .cls-9 {
        fill: #009fe8;
      }
    </style>
  </defs>
  <g>
    <path class="cls-2" d="M309.61,22.92c-.51,0-.95-.19-1.33-.56-.38-.38-.56-.82-.56-1.33v-.7c0-.51.19-.95.56-1.33s.82-.56,1.33-.56h6.84c.51,0,.95.19,1.33.56s.56.82.56,1.33v.7c0,.51-.19.95-.56,1.33-.38.38-.82.56-1.33.56h-6.84ZM338.25,37.32c.46.24.79.62.98,1.13.19.51.19,1.01.02,1.49l-.53,1.46c-.18.44-.49.75-.93.91-.44.17-.86.12-1.26-.15-.84-.55-1.74-1.23-2.69-2.02-.15-.11-.23-.08-.23.1v1.19c0,.51-.19.95-.56,1.33-.38.38-.82.56-1.33.56h-1.69c-.51,0-.95-.19-1.33-.56s-.56-.82-.56-1.33v-6.77c0-.2-.1-.3-.3-.3h-.93c-.18,0-.27.1-.27.3v6.77c0,.51-.19.95-.56,1.33s-.82.56-1.33.56h-1.53c-.51,0-.95-.19-1.33-.56s-.56-.82-.56-1.33v-1.03s-.03-.08-.08-.1c-.06-.02-.1-.02-.15,0-.55.49-1.33,1.08-2.32,1.79-.38.27-.78.34-1.23.23-.22-.04-.39-.04-.5,0-.27.11-.52.17-.76.17h-3.45c-.09,0-.13.04-.13.13,0,.24-.08.45-.25.61-.17.17-.37.25-.61.25h-1.73c-.51,0-.95-.19-1.33-.56-.38-.38-.56-.82-.56-1.33v-6.67c0-.51.19-.95.56-1.33s.82-.56,1.33-.56h6.17c.51,0,.95.19,1.33.56s.56.82.56,1.33v1.39c0,.07.03.12.08.15s.1.03.15-.02c.97-.62,1.82-1.25,2.55-1.89.04-.04.06-.09.05-.13-.01-.04-.04-.07-.08-.07h-.2c-.51,0-.95-.19-1.33-.56-.38-.38-.56-.82-.56-1.33v-.03c0-.51.19-.95.56-1.33.38-.38.82-.56,1.33-.56h.3c.2,0,.3-.1.3-.3v-.6c0-.18-.1-.27-.3-.27h-1.46c-.51,0-.95-.19-1.33-.56-.38-.38-.56-.82-.56-1.33v-.46s-.02-.08-.05-.1c-.03-.02-.07-.01-.12.03-.35.4-.82.6-1.39.6h-5.67c-.51,0-.95-.19-1.33-.56-.38-.38-.56-.82-.56-1.33v-.03c0-.51.19-.95.56-1.33.38-.38.82-.56,1.33-.56h5.67c.49,0,.91.16,1.28.48.36.32.57.72.61,1.21,0,.04.02.08.05.1s.07.01.12-.03c.35-.4.82-.6,1.39-.6h1.46c.2,0,.3-.1.3-.3v-.6c0-.18-.1-.27-.3-.27h-.3c-.51,0-.95-.19-1.33-.56-.38-.38-.56-.82-.56-1.33v-.03c0-.51.19-.95.56-1.33.38-.38.82-.56,1.33-.56h.3c.2,0,.3-.1.3-.3v-.4c0-.2-.1-.3-.3-.3h-1.29c-.51,0-.95-.19-1.33-.56-.38-.38-.56-.82-.56-1.33v-.27s-.02-.07-.05-.07-.06.01-.08.03c-.35.58-.89.86-1.59.86h-6.01c-.51,0-.95-.19-1.33-.56s-.56-.82-.56-1.33v-.2c0-.51.19-.95.56-1.33.38-.38.82-.56,1.33-.56h6.01c.46,0,.87.15,1.23.46.35.31.56.69.63,1.13,0,.04.02.07.07.08.04.01.08,0,.1-.02.38-.55.87-.83,1.49-.83h.07c.13,0,.18-.07.13-.2-.18-.38-.17-.75.02-1.11.19-.37.48-.58.88-.65l2.06-.37c.55-.11,1.08-.04,1.58.22.5.25.86.64,1.08,1.14l.3.7c.07.18.2.27.4.27h2.39c.2,0,.33-.09.4-.27.02-.07.06-.17.12-.32.05-.14.09-.25.12-.32.2-.51.53-.91.99-1.19.47-.29.96-.39,1.49-.3l2.12.33c.44.07.77.28.99.65.22.37.25.76.1,1.18-.04.15.01.23.17.23h1.99c.51,0,.95.19,1.33.56.38.38.56.82.56,1.33v.7c0,.51-.19.95-.56,1.33-.38.38-.82.56-1.33.56h-3.12c-.2,0-.3.1-.3.3v.4c0,.2.1.3.3.3h2.12c.51,0,.95.19,1.33.56.38.38.56.82.56,1.33v2.92c0,.11.05.17.17.17.29,0,.53.09.71.28.19.19.28.43.28.71v2.49c0,.29-.1.53-.28.71-.19.19-.43.28-.71.28-.11,0-.17.06-.17.17v2.92c0,.51-.19.95-.56,1.33-.38.38-.82.56-1.33.56h-1.92s-.07.02-.08.07c-.01.04,0,.09.05.13,1.17.93,2.57,1.85,4.18,2.75ZM310.44,32.21c-.51,0-.95-.19-1.33-.56-.38-.38-.56-.82-.56-1.33v-.03c0-.51.19-.95.56-1.33.38-.38.82-.56,1.33-.56h5.67c.51,0,.95.19,1.33.56.38.38.56.82.56,1.33v.03c0,.51-.19.95-.56,1.33-.38.38-.82.56-1.33.56h-5.67ZM314.36,38.54v-1.59c0-.18-.1-.27-.3-.27h-1.06c-.2,0-.3.09-.3.27v1.59c0,.2.1.3.3.3h1.06c.2,0,.3-.1.3-.3ZM328.13,19.63v-.4c0-.2-.1-.3-.3-.3h-.9c-.2,0-.3.1-.3.3v.4c0,.2.1.3.3.3h.9c.2,0,.3-.1.3-.3ZM328.13,24.61v-.6c0-.18-.1-.27-.3-.27h-.9c-.2,0-.3.09-.3.27v.6c0,.2.1.3.3.3h.9c.2,0,.3-.1.3-.3ZM328.13,30.25v-.6c0-.18-.1-.27-.3-.27h-.9c-.2,0-.3.09-.3.27v.6c0,.2.1.3.3.3h.9c.2,0,.3-.1.3-.3ZM333.77,24.61v-.6c0-.18-.1-.27-.3-.27h-.9c-.2,0-.3.09-.3.27v.6c0,.2.1.3.3.3h.9c.2,0,.3-.1.3-.3ZM333.77,30.25v-.6c0-.18-.1-.27-.3-.27h-.9c-.2,0-.3.09-.3.27v.6c0,.2.1.3.3.3h.9c.2,0,.3-.1.3-.3Z"/>
    <path class="cls-2" d="M337.19,71.53c.51,0,.94.19,1.29.56.35.38.51.82.46,1.33l-.07,1.03c-.02.53-.23.98-.63,1.34-.4.37-.86.55-1.39.55h-6.07c-4.51,0-8.01-.18-10.49-.53-2.48-.35-4.36-.96-5.64-1.83-.15-.11-.31-.11-.46,0-.84.66-1.65,1.26-2.42,1.79-.42.29-.88.38-1.38.28-.5-.1-.88-.37-1.15-.81l-.9-1.46c-.27-.44-.34-.91-.22-1.41s.4-.89.85-1.18c.13-.09.33-.22.58-.4.25-.18.45-.31.58-.4.15-.11.23-.25.23-.43v-5.94c0-.2-.1-.3-.3-.3h-.13c-.51,0-.95-.19-1.33-.56-.38-.38-.56-.82-.56-1.33v-1.19c0-.51.19-.95.56-1.33.38-.38.82-.56,1.33-.56h4.02c.51,0,.95.19,1.33.56.38.38.56.82.56,1.33v8.1c0,.2.05.39.17.56l.07.07.56.66c.66.6,1.89,1,3.68,1.19,1.79.2,5.05.3,9.79.3h7.07ZM310.31,47.74c.38-.35.83-.53,1.36-.51.53.01.98.2,1.36.58,1.26,1.26,2.29,2.34,3.09,3.25.35.4.52.86.5,1.38-.02.52-.22.97-.6,1.34l-1.16,1.16c-.38.35-.81.52-1.31.5s-.92-.22-1.28-.6c-.69-.75-1.76-1.88-3.22-3.38-.35-.38-.53-.81-.51-1.31s.2-.92.58-1.28l1.19-1.13ZM338.25,57.39c.09.4.22,1.03.4,1.89.18.86.31,1.5.4,1.92.11.53.03,1.03-.25,1.49-.28.46-.67.77-1.18.93l-.33.1c-.2.04-.25.15-.17.33.33.71.83,1.95,1.49,3.72.18.49.15.97-.07,1.44-.22.48-.58.81-1.06,1.01l-.3.1c-.49.18-.96.17-1.43-.03-.46-.2-.78-.54-.96-1.03-.4-1.11-.71-1.92-.93-2.46-.04-.02-.08-.02-.1,0v2.16c0,.51-.19.95-.56,1.33-.38.38-.82.56-1.33.56h-1.19c-.51,0-.95-.19-1.33-.56-.38-.38-.56-.82-.56-1.33v-2.22s-.02-.03-.05-.03-.05.01-.05.03c-.31.93-.62,1.78-.93,2.56-.2.49-.55.82-1.04,1.01-.5.19-.99.17-1.48-.05l-.37-.13c-.46-.2-.79-.54-.96-1.01-.18-.48-.15-.95.07-1.41.53-1.22,1.01-2.52,1.43-3.92,0-.07-.02-.1-.07-.1-.15.02-.29-.02-.4-.12s-.17-.23-.17-.38l-.07-1.86c0-.18-.09-.22-.27-.13-.09.04-.27.09-.53.13-.18.04-.27.16-.27.33v4.38c0,.95-.02,1.68-.07,2.19s-.1.95-.18,1.33-.24.63-.48.76c-.24.13-.51.23-.8.28-.29.06-.72.08-1.29.08-.15,0-.85-.02-2.09-.07-.55-.04-1.03-.24-1.43-.6-.4-.35-.62-.81-.66-1.36l-.1-1.1c-.04-.44.1-.82.43-1.13.33-.31.74-.51,1.23-.6.2-.02.3-.34.3-.96v-2.52c0-.18-.09-.24-.27-.2-.46.07-.88-.04-1.26-.33-.38-.29-.59-.67-.63-1.16l-.17-1.56c-.05-.53.1-1,.43-1.41.33-.41.75-.65,1.26-.71l.36-.03c.18-.04.27-.15.27-.33v-2.42c0-.31.11-.57.33-.78.22-.21.48-.32.76-.32.13,0,.21-.04.23-.13.15-.31.39-.8.7-1.46.07-.15,0-.23-.2-.23h-2.42c-.51,0-.95-.19-1.33-.56s-.56-.82-.56-1.33v-1.03c0-.51.19-.95.56-1.33.38-.38.82-.56,1.33-.56h6.01c.51,0,.95.19,1.33.56.38.38.56.82.56,1.33v1.03c0,1.31-.24,2.51-.73,3.62-.35.8-.81,1.73-1.36,2.79-.05.09-.07.18-.07.27,0,.07.04.1.13.1h.1c.42-.07.8.03,1.13.3.33.27.52.62.56,1.06l.1,1.59c0,.15.09.21.27.17.27-.09.46-.13.6-.13l.46-.03c.07,0,.12-.03.15-.1.03-.07.03-.12-.02-.17-.71-1.06-1.23-1.85-1.56-2.36-.31-.44-.45-.94-.41-1.49.03-.55.24-1.03.61-1.43l1.1-1.16c.15-.15.34-.22.56-.2.22.02.4.12.53.3.02.02.05.03.08.03s.06-.02.08-.07c.2-.22.42-.5.66-.83.11-.15.08-.23-.1-.23h-.17c-.53.02-.99-.15-1.38-.51-.39-.37-.6-.81-.65-1.34l-.07-.86c-.02-.51.14-.95.48-1.33.34-.38.77-.57,1.28-.6,3.21-.07,5.94-.28,8.2-.63.51-.09.97.02,1.39.33s.66.71.73,1.19l.13.93c.07.53-.05,1.01-.35,1.43-.3.42-.7.68-1.21.76h-.07s-.08.03-.1.08c-.02.06-.01.11.03.15l.07.03c.44.31.7.72.78,1.23.08.51-.04.97-.35,1.39-.58.8-1.22,1.62-1.92,2.46-.02.02-.02.06,0,.12.02.06.05.07.1.05l.43-.13c.49-.15.95-.11,1.39.13.44.24.71.61.8,1.1ZM328.79,64.29v-.56c0-.18-.09-.27-.27-.27l-2.46.17s-.02.06,0,.1l2.46.76c.18.04.27-.02.27-.2ZM330.75,56.13c1.37-1.61,2.62-3.22,3.75-4.81.09-.13.04-.2-.13-.2-.04,0-.12,0-.23.02-.11.01-.19.02-.23.02-.13,0-.27.09-.4.27-.91,1.28-1.97,2.67-3.19,4.15-.11.15-.11.3,0,.43l.03.07s.04.08.07.1c.07.13.18.12.33-.03ZM333.57,58.75l1.33-.07c.18,0,.24-.09.2-.27-.07-.27-.14-.64-.23-1.13-.02-.04-.06-.08-.12-.1-.06-.02-.1-.01-.12.03-.46.55-.85,1-1.16,1.33-.05.09-.01.16.1.2ZM335.89,63.53c.18-.04.24-.15.2-.33-.04-.15-.14-.23-.3-.23l-1.76.13c-.18,0-.26.1-.26.3v.6c0,.18.09.24.26.2l1.86-.66Z"/>
    <path class="cls-2" d="M321.49,85.14h2.72c.58,0,1.24.07,2.01.22.76.14,1.27.26,1.53.35.25.09.57.38.95.86s.6.91.66,1.26c.07.35.15,1.02.27,2.01.11.98.17,1.86.17,2.64v3.62c0,4.4-.54,7.55-1.61,9.44-1.07,1.89-2.64,2.84-4.7,2.84-1.48,0-3.31-.27-5.48-.8-.51-.13-.9-.43-1.16-.9-.27-.46-.33-.95-.2-1.46l.4-1.66c.13-.49.42-.86.86-1.13.44-.27.92-.34,1.43-.23,1.41.35,2.36.53,2.82.53.88,0,1.33-2.54,1.33-7.63,0-2.3-.08-3.65-.25-4.05s-.75-.6-1.74-.6h-2.62c-.2,0-.32.09-.37.27-1.19,5.35-2.75,10.75-4.68,16.19-.18.51-.5.88-.98,1.11-.48.23-.96.27-1.44.12l-1.56-.53c-.49-.16-.85-.46-1.08-.91-.23-.45-.26-.93-.08-1.44,1.59-4.73,2.95-9.57,4.08-14.5.04-.2-.02-.3-.2-.3h-1.79c-.51,0-.95-.19-1.33-.56-.38-.38-.56-.82-.56-1.33v-1.53c0-.51.19-.95.56-1.33.38-.38.82-.56,1.33-.56h2.89c.18,0,.29-.09.33-.27.15-.77.4-2.17.73-4.18.09-.53.34-.97.76-1.31.42-.34.9-.49,1.43-.45l1.69.13c.51.04.93.26,1.26.65.33.39.46.82.4,1.31-.18,1.33-.38,2.61-.6,3.85-.05.18.03.27.23.27h1.59ZM332.31,87.2c-.49.22-.97.24-1.46.07-.49-.18-.85-.5-1.1-.96-.11-.2-.46-.85-1.06-1.96-.24-.44-.29-.91-.13-1.39s.46-.85.93-1.1h.03c.46-.24.95-.29,1.46-.13.51.15.88.46,1.13.93.24.44.61,1.13,1.1,2.06.22.46.24.94.07,1.43-.18.49-.5.84-.96,1.06ZM336.99,90.28c.77,2.61,1.55,5.49,2.32,8.63.11.49.03.95-.23,1.39-.27.44-.65.72-1.16.83l-2.16.46c-.51.11-.98.03-1.41-.25-.43-.28-.71-.68-.85-1.21-.75-3.05-1.49-5.81-2.22-8.26-.15-.49-.11-.96.15-1.41.25-.45.64-.76,1.14-.91l2.06-.56c.49-.15.96-.1,1.43.15s.77.64.93,1.14ZM334.83,80.69c.46-.24.95-.29,1.46-.15.51.14.88.45,1.13.91.73,1.39,1.11,2.11,1.13,2.16.24.46.28.94.12,1.43-.17.49-.48.84-.95,1.06l-.1.07c-.46.22-.95.25-1.44.08-.5-.17-.87-.48-1.11-.95-.11-.22-.29-.56-.53-1.03-.24-.46-.43-.81-.56-1.03-.24-.44-.29-.92-.15-1.43.14-.51.45-.87.91-1.1l.1-.03Z"/>
    <path class="cls-2" d="M336.85,136.73c.51,0,.95.19,1.33.56s.56.82.56,1.33v1.53c0,.51-.19.95-.56,1.33-.38.38-.82.56-1.33.56h-26.74c-.51,0-.95-.19-1.33-.56-.38-.38-.56-.82-.56-1.33v-1.53c0-.51.19-.95.56-1.33s.82-.56,1.33-.56h1.13c.2,0,.3-.1.3-.3v-16.72c0-.51.19-.95.56-1.33.38-.38.82-.56,1.33-.56h2.19c.51,0,.95.19,1.33.56.38.38.56.82.56,1.33v16.72c0,.2.09.3.27.3h3.85c.18,0,.27-.1.27-.3v-21.7c0-.51.19-.95.56-1.33.38-.38.82-.56,1.33-.56h2.39c.51,0,.95.19,1.33.56.38.38.56.82.56,1.33v5.77c0,.2.09.3.27.3h7.53c.51,0,.95.19,1.33.56.38.38.56.82.56,1.33v1.36c0,.51-.19.95-.56,1.33-.38.38-.82.56-1.33.56h-7.53c-.18,0-.27.09-.27.27v10.22c0,.2.09.3.27.3h8.53Z"/>
    <path class="cls-2" d="M334.86,148.83c.51,0,.95.19,1.33.56.38.38.56.82.56,1.33v1.53c0,.51-.19.95-.56,1.33-.38.38-.82.56-1.33.56h-5.77c-.2,0-.3.1-.3.3v.76c0,.18.1.27.3.27h4.45c.51,0,.95.19,1.33.56.38.38.56.82.56,1.33v1.36c0,.51-.19.95-.56,1.33-.38.38-.82.56-1.33.56h-4.45c-.2,0-.3.1-.3.3v3.45c0,.2.09.35.27.46,1.84,1.15,3.72,2.59,5.64,4.31.38.35.58.79.61,1.31s-.13.97-.48,1.34l-1.13,1.19c-.35.38-.79.58-1.29.61s-.95-.13-1.33-.48c-.84-.77-1.69-1.5-2.56-2.19-.13-.13-.25-.1-.36.1-.53,1.42-1.47,2.44-2.82,3.07s-3.19.95-5.51.95c-2.5,0-4.45-.58-5.86-1.74-1.41-1.16-2.11-2.79-2.11-4.89s.68-3.62,2.06-4.76c1.37-1.14,3.34-1.71,5.91-1.71.97,0,1.88.08,2.72.23.18.04.27-.03.27-.23v-1.03c0-.2-.09-.3-.27-.3h-9.13c-.51,0-.95-.19-1.33-.56-.38-.38-.56-.82-.56-1.33v-1.36c0-.51.19-.95.56-1.33.38-.38.82-.56,1.33-.56h9.13c.18,0,.27-.09.27-.27v-.76c0-.2-.09-.3-.27-.3h-10.45c-.51,0-.95-.19-1.33-.56-.38-.38-.56-.82-.56-1.33v-1.53c0-.51.19-.95.56-1.33s.82-.56,1.33-.56h10.45c.18,0,.27-.1.27-.3v-.46c0-.51.19-.95.56-1.33s.82-.56,1.33-.56h2.19c.51,0,.95.19,1.33.56s.56.82.56,1.33v.46c0,.2.1.3.3.3h5.77ZM319.83,169.74c1.13,0,1.89-.12,2.27-.37s.61-.77.68-1.59c0-.2-.07-.31-.2-.33-.8-.24-1.49-.37-2.09-.37-1.77,0-2.65.44-2.65,1.33s.66,1.33,1.99,1.33Z"/>
    <path class="cls-2" d="M326.63,189.99c3.5,0,6.03.67,7.6,2.01,1.57,1.34,2.36,3.43,2.36,6.29s-1.27,5.31-3.8,7.03c-2.53,1.73-6.13,2.59-10.8,2.59-2.19,0-4.39-.1-6.6-.3-.51-.04-.93-.27-1.26-.68-.33-.41-.48-.87-.43-1.38l.17-1.59c.04-.51.27-.92.66-1.24.4-.32.85-.46,1.36-.41,2.37.2,4.4.3,6.11.3,2.32,0,4.15-.4,5.47-1.21,1.33-.81,1.99-1.84,1.99-3.1,0-1.99-1.27-2.99-3.82-2.99-1.79,0-4.34.86-7.63,2.59-1.11.6-2.28.77-3.52.53l-1.92-.43c-.51-.09-.91-.35-1.21-.78-.3-.43-.4-.9-.32-1.41.35-2.06.71-4.26,1.06-6.6.09-.53.34-.96.75-1.28.41-.32.88-.46,1.41-.41l2.36.17c.51.04.93.27,1.26.68.33.41.46.87.4,1.38-.04.38-.12.9-.22,1.58-.1.68-.17,1.17-.22,1.48v.03h.07c3.14-1.88,6.05-2.82,8.73-2.82ZM317.74,180.56c4.56.46,8.88.73,12.97.8.51,0,.95.19,1.33.56.38.38.56.82.56,1.33v1.53c0,.51-.19.95-.56,1.33-.38.38-.82.56-1.33.56-4.82-.07-9.38-.33-13.67-.8-.51-.04-.92-.27-1.24-.68-.32-.41-.45-.87-.38-1.38l.2-1.59c.07-.51.31-.92.73-1.24.42-.32.88-.46,1.39-.41Z"/>
    <path class="cls-2" d="M322.92,221.54h-3.95c-.2,0-.32.1-.36.3-1.31,5.13-2.78,9.92-4.41,14.37-.18.49-.5.85-.98,1.08-.48.23-.97.26-1.48.08l-1.89-.63c-.49-.18-.84-.49-1.06-.95-.22-.45-.25-.92-.1-1.41,1.61-4.49,2.94-8.68,3.98-12.58.04-.18-.03-.27-.23-.27h-1.66c-.51,0-.95-.19-1.33-.56-.38-.38-.56-.82-.56-1.33v-1.53c0-.51.19-.95.56-1.33.38-.38.82-.56,1.33-.56h3.02c.18,0,.29-.09.33-.27.22-.97.39-1.71.5-2.22s.38-.92.81-1.23c.43-.31.91-.43,1.44-.37l1.92.2c.51.07.91.31,1.19.73.29.42.39.87.3,1.36-.05.18-.1.43-.17.76-.07.33-.12.59-.17.76-.04.18.03.27.23.27h2.72c.51,0,.95.19,1.33.56.38.38.56.82.56,1.33v1.53c0,.51-.19.95-.56,1.33-.38.38-.82.56-1.33.56ZM336.52,216.66c.51.04.93.28,1.26.7.33.42.46.88.4,1.39l-.2,1.59c-.07.51-.3.92-.71,1.23-.41.31-.87.43-1.38.37-1.06-.13-1.89-.21-2.49-.23-.2,0-.3.1-.3.3v8.56c0,.2.09.35.27.46,1.15.86,2.49,2.01,4.02,3.45.38.38.57.82.6,1.34.02.52-.14.98-.5,1.38l-1.13,1.19c-.35.38-.79.58-1.29.61s-.95-.13-1.33-.48c-.13-.11-.33-.28-.58-.5-.25-.22-.43-.38-.51-.46-.13-.13-.24-.12-.33.03-1.2,2.57-3.7,3.85-7.5,3.85-2.72,0-4.84-.63-6.35-1.88-1.51-1.25-2.27-2.95-2.27-5.09s.75-3.79,2.24-5.06c1.49-1.27,3.62-1.91,6.39-1.91.71,0,1.38.08,2.02.23.2.04.3-.02.3-.2v-9.42c0-.51.19-.95.56-1.33.38-.38.82-.55,1.33-.53,2.72.04,5.22.18,7.5.4ZM324.81,236.47c.86,0,1.46-.2,1.79-.61.33-.41.51-1.21.53-2.41,0-.22-.09-.37-.27-.43-.69-.35-1.37-.53-2.06-.53-.86,0-1.52.18-1.97.55-.45.37-.68.85-.68,1.44s.23,1.11.7,1.46c.47.35,1.12.53,1.96.53Z"/>
    <path class="cls-2" d="M326.37,263.1c.49.18.84.5,1.06.98.22.48.23.96.03,1.44-1.17,2.81-2.6,4.99-4.3,6.54s-3.36,2.32-4.99,2.32c-2.04,0-3.93-1.32-5.67-3.95-1.75-2.63-2.62-5.85-2.62-9.66,0-3.41.43-6.78,1.29-10.12.13-.53.43-.95.88-1.26.45-.31.96-.43,1.51-.37l2.42.27c.49.04.87.27,1.14.68.28.41.36.86.25,1.34-.8,3.36-1.19,6.52-1.19,9.46,0,1.04.08,2.03.25,2.97.17.94.38,1.71.65,2.32.27.61.54,1.1.81,1.46.28.37.54.55.78.55.35,0,.84-.39,1.46-1.18.62-.78,1.27-1.93,1.96-3.43.22-.46.57-.8,1.04-1,.48-.2.96-.21,1.44-.03l1.79.66ZM331.44,249.04c.53-.15,1.04-.12,1.53.1.49.22.83.58,1.03,1.06,2.28,5.53,3.52,11.75,3.72,18.65.02.51-.15.95-.53,1.33-.38.38-.82.56-1.33.56h-2.52c-.51,0-.95-.18-1.33-.55-.38-.37-.58-.8-.6-1.31-.2-5.95-1.28-11.6-3.25-16.96-.18-.49-.16-.96.07-1.41.22-.45.58-.75,1.06-.88l2.16-.6Z"/>
    <path class="cls-2" d="M325.57,281.27c.51,0,.94.19,1.29.56.35.38.52.82.5,1.33l-.8,12.48c-.04.53-.25.98-.63,1.34-.38.37-.83.55-1.36.55h-2.19c-.53,0-.98-.18-1.36-.55s-.59-.81-.63-1.34l-.8-12.48c-.02-.51.14-.95.5-1.33.35-.38.78-.56,1.29-.56h4.18ZM324.91,300.19c.51,0,.95.19,1.33.56.38.38.56.82.56,1.33v1.53c0,.51-.19.95-.56,1.33-.38.38-.82.56-1.33.56h-2.85c-.51,0-.95-.19-1.33-.56s-.56-.82-.56-1.33v-1.53c0-.51.19-.95.56-1.33.38-.38.82-.56,1.33-.56h2.85Z"/>
  </g>
  <g>
    <path d="M309.61,22.82c-.51,0-.95-.19-1.33-.56-.38-.38-.56-.82-.56-1.33v-.7c0-.51.19-.95.56-1.33s.82-.56,1.33-.56h6.84c.51,0,.95.19,1.33.56s.56.82.56,1.33v.7c0,.51-.19.95-.56,1.33-.38.38-.82.56-1.33.56h-6.84ZM338.25,37.23c.46.24.79.62.98,1.13.19.51.19,1.01.02,1.49l-.53,1.46c-.18.44-.49.75-.93.91-.44.17-.86.12-1.26-.15-.84-.55-1.74-1.23-2.69-2.02-.15-.11-.23-.08-.23.1v1.19c0,.51-.19.95-.56,1.33-.38.38-.82.56-1.33.56h-1.69c-.51,0-.95-.19-1.33-.56s-.56-.82-.56-1.33v-6.77c0-.2-.1-.3-.3-.3h-.93c-.18,0-.27.1-.27.3v6.77c0,.51-.19.95-.56,1.33s-.82.56-1.33.56h-1.53c-.51,0-.95-.19-1.33-.56s-.56-.82-.56-1.33v-1.03s-.03-.08-.08-.1c-.06-.02-.1-.02-.15,0-.55.49-1.33,1.08-2.32,1.79-.38.27-.78.34-1.23.23-.22-.04-.39-.04-.5,0-.27.11-.52.17-.76.17h-3.45c-.09,0-.13.04-.13.13,0,.24-.08.45-.25.61-.17.17-.37.25-.61.25h-1.73c-.51,0-.95-.19-1.33-.56-.38-.38-.56-.82-.56-1.33v-6.67c0-.51.19-.95.56-1.33s.82-.56,1.33-.56h6.17c.51,0,.95.19,1.33.56s.56.82.56,1.33v1.39c0,.07.03.12.08.15s.1.03.15-.02c.97-.62,1.82-1.25,2.55-1.89.04-.04.06-.09.05-.13-.01-.04-.04-.07-.08-.07h-.2c-.51,0-.95-.19-1.33-.56-.38-.38-.56-.82-.56-1.33v-.03c0-.51.19-.95.56-1.33.38-.38.82-.56,1.33-.56h.3c.2,0,.3-.1.3-.3v-.6c0-.18-.1-.27-.3-.27h-1.46c-.51,0-.95-.19-1.33-.56-.38-.38-.56-.82-.56-1.33v-.46s-.02-.08-.05-.1c-.03-.02-.07-.01-.12.03-.35.4-.82.6-1.39.6h-5.67c-.51,0-.95-.19-1.33-.56-.38-.38-.56-.82-.56-1.33v-.03c0-.51.19-.95.56-1.33.38-.38.82-.56,1.33-.56h5.67c.49,0,.91.16,1.28.48.36.32.57.72.61,1.21,0,.04.02.08.05.1s.07.01.12-.03c.35-.4.82-.6,1.39-.6h1.46c.2,0,.3-.1.3-.3v-.6c0-.18-.1-.27-.3-.27h-.3c-.51,0-.95-.19-1.33-.56-.38-.38-.56-.82-.56-1.33v-.03c0-.51.19-.95.56-1.33.38-.38.82-.56,1.33-.56h.3c.2,0,.3-.1.3-.3v-.4c0-.2-.1-.3-.3-.3h-1.29c-.51,0-.95-.19-1.33-.56-.38-.38-.56-.82-.56-1.33v-.27s-.02-.07-.05-.07-.06.01-.08.03c-.35.58-.89.86-1.59.86h-6.01c-.51,0-.95-.19-1.33-.56s-.56-.82-.56-1.33v-.2c0-.51.19-.95.56-1.33.38-.38.82-.56,1.33-.56h6.01c.46,0,.87.15,1.23.46.35.31.56.69.63,1.13,0,.04.02.07.07.08.04.01.08,0,.1-.02.38-.55.87-.83,1.49-.83h.07c.13,0,.18-.07.13-.2-.18-.38-.17-.75.02-1.11.19-.37.48-.58.88-.65l2.06-.37c.55-.11,1.08-.04,1.58.22.5.25.86.64,1.08,1.14l.3.7c.07.18.2.27.4.27h2.39c.2,0,.33-.09.4-.27.02-.07.06-.17.12-.32.05-.14.09-.25.12-.32.2-.51.53-.91.99-1.19.47-.29.96-.39,1.49-.3l2.12.33c.44.07.77.28.99.65.22.37.25.76.1,1.18-.04.15.01.23.17.23h1.99c.51,0,.95.19,1.33.56.38.38.56.82.56,1.33v.7c0,.51-.19.95-.56,1.33-.38.38-.82.56-1.33.56h-3.12c-.2,0-.3.1-.3.3v.4c0,.2.1.3.3.3h2.12c.51,0,.95.19,1.33.56.38.38.56.82.56,1.33v2.92c0,.11.05.17.17.17.29,0,.53.09.71.28.19.19.28.43.28.71v2.49c0,.29-.1.53-.28.71-.19.19-.43.28-.71.28-.11,0-.17.06-.17.17v2.92c0,.51-.19.95-.56,1.33-.38.38-.82.56-1.33.56h-1.92s-.07.02-.08.07c-.01.04,0,.09.05.13,1.17.93,2.57,1.85,4.18,2.75ZM310.44,32.12c-.51,0-.95-.19-1.33-.56-.38-.38-.56-.82-.56-1.33v-.03c0-.51.19-.95.56-1.33.38-.38.82-.56,1.33-.56h5.67c.51,0,.95.19,1.33.56.38.38.56.82.56,1.33v.03c0,.51-.19.95-.56,1.33-.38.38-.82.56-1.33.56h-5.67ZM314.36,38.45v-1.59c0-.18-.1-.27-.3-.27h-1.06c-.2,0-.3.09-.3.27v1.59c0,.2.1.3.3.3h1.06c.2,0,.3-.1.3-.3ZM328.13,19.54v-.4c0-.2-.1-.3-.3-.3h-.9c-.2,0-.3.1-.3.3v.4c0,.2.1.3.3.3h.9c.2,0,.3-.1.3-.3ZM328.13,24.52v-.6c0-.18-.1-.27-.3-.27h-.9c-.2,0-.3.09-.3.27v.6c0,.2.1.3.3.3h.9c.2,0,.3-.1.3-.3ZM328.13,30.16v-.6c0-.18-.1-.27-.3-.27h-.9c-.2,0-.3.09-.3.27v.6c0,.2.1.3.3.3h.9c.2,0,.3-.1.3-.3ZM333.77,24.52v-.6c0-.18-.1-.27-.3-.27h-.9c-.2,0-.3.09-.3.27v.6c0,.2.1.3.3.3h.9c.2,0,.3-.1.3-.3ZM333.77,30.16v-.6c0-.18-.1-.27-.3-.27h-.9c-.2,0-.3.09-.3.27v.6c0,.2.1.3.3.3h.9c.2,0,.3-.1.3-.3Z"/>
    <path d="M337.19,71.44c.51,0,.94.19,1.29.56.35.38.51.82.46,1.33l-.07,1.03c-.02.53-.23.98-.63,1.34-.4.37-.86.55-1.39.55h-6.07c-4.51,0-8.01-.18-10.49-.53-2.48-.35-4.36-.96-5.64-1.83-.15-.11-.31-.11-.46,0-.84.66-1.65,1.26-2.42,1.79-.42.29-.88.38-1.38.28-.5-.1-.88-.37-1.15-.81l-.9-1.46c-.27-.44-.34-.91-.22-1.41s.4-.89.85-1.18c.13-.09.33-.22.58-.4.25-.18.45-.31.58-.4.15-.11.23-.25.23-.43v-5.94c0-.2-.1-.3-.3-.3h-.13c-.51,0-.95-.19-1.33-.56-.38-.38-.56-.82-.56-1.33v-1.19c0-.51.19-.95.56-1.33.38-.38.82-.56,1.33-.56h4.02c.51,0,.95.19,1.33.56.38.38.56.82.56,1.33v8.1c0,.2.05.39.17.56l.07.07.56.66c.66.6,1.89,1,3.68,1.19,1.79.2,5.05.3,9.79.3h7.07ZM310.31,47.64c.38-.35.83-.53,1.36-.51.53.01.98.2,1.36.58,1.26,1.26,2.29,2.34,3.09,3.25.35.4.52.86.5,1.38-.02.52-.22.97-.6,1.34l-1.16,1.16c-.38.35-.81.52-1.31.5s-.92-.22-1.28-.6c-.69-.75-1.76-1.88-3.22-3.38-.35-.38-.53-.81-.51-1.31s.2-.92.58-1.28l1.19-1.13ZM338.25,57.3c.09.4.22,1.03.4,1.89.18.86.31,1.5.4,1.92.11.53.03,1.03-.25,1.49-.28.46-.67.77-1.18.93l-.33.1c-.2.04-.25.15-.17.33.33.71.83,1.95,1.49,3.72.18.49.15.97-.07,1.44-.22.48-.58.81-1.06,1.01l-.3.1c-.49.18-.96.17-1.43-.03-.46-.2-.78-.54-.96-1.03-.4-1.11-.71-1.92-.93-2.46-.04-.02-.08-.02-.1,0v2.16c0,.51-.19.95-.56,1.33-.38.38-.82.56-1.33.56h-1.19c-.51,0-.95-.19-1.33-.56-.38-.38-.56-.82-.56-1.33v-2.22s-.02-.03-.05-.03-.05.01-.05.03c-.31.93-.62,1.78-.93,2.56-.2.49-.55.82-1.04,1.01-.5.19-.99.17-1.48-.05l-.37-.13c-.46-.2-.79-.54-.96-1.01-.18-.48-.15-.95.07-1.41.53-1.22,1.01-2.52,1.43-3.92,0-.07-.02-.1-.07-.1-.15.02-.29-.02-.4-.12s-.17-.23-.17-.38l-.07-1.86c0-.18-.09-.22-.27-.13-.09.04-.27.09-.53.13-.18.04-.27.16-.27.33v4.38c0,.95-.02,1.68-.07,2.19s-.1.95-.18,1.33-.24.63-.48.76c-.24.13-.51.23-.8.28-.29.06-.72.08-1.29.08-.15,0-.85-.02-2.09-.07-.55-.04-1.03-.24-1.43-.6-.4-.35-.62-.81-.66-1.36l-.1-1.1c-.04-.44.1-.82.43-1.13.33-.31.74-.51,1.23-.6.2-.02.3-.34.3-.96v-2.52c0-.18-.09-.24-.27-.2-.46.07-.88-.04-1.26-.33-.38-.29-.59-.67-.63-1.16l-.17-1.56c-.05-.53.1-1,.43-1.41.33-.41.75-.65,1.26-.71l.36-.03c.18-.04.27-.15.27-.33v-2.42c0-.31.11-.57.33-.78.22-.21.48-.32.76-.32.13,0,.21-.04.23-.13.15-.31.39-.8.7-1.46.07-.15,0-.23-.2-.23h-2.42c-.51,0-.95-.19-1.33-.56s-.56-.82-.56-1.33v-1.03c0-.51.19-.95.56-1.33.38-.38.82-.56,1.33-.56h6.01c.51,0,.95.19,1.33.56.38.38.56.82.56,1.33v1.03c0,1.31-.24,2.51-.73,3.62-.35.8-.81,1.73-1.36,2.79-.05.09-.07.18-.07.27,0,.07.04.1.13.1h.1c.42-.07.8.03,1.13.3.33.27.52.62.56,1.06l.1,1.59c0,.15.09.21.27.17.27-.09.46-.13.6-.13l.46-.03c.07,0,.12-.03.15-.1.03-.07.03-.12-.02-.17-.71-1.06-1.23-1.85-1.56-2.36-.31-.44-.45-.94-.41-1.49.03-.55.24-1.03.61-1.43l1.1-1.16c.15-.15.34-.22.56-.2.22.02.4.12.53.3.02.02.05.03.08.03s.06-.02.08-.07c.2-.22.42-.5.66-.83.11-.15.08-.23-.1-.23h-.17c-.53.02-.99-.15-1.38-.51-.39-.37-.6-.81-.65-1.34l-.07-.86c-.02-.51.14-.95.48-1.33.34-.38.77-.57,1.28-.6,3.21-.07,5.94-.28,8.2-.63.51-.09.97.02,1.39.33s.66.71.73,1.19l.13.93c.07.53-.05,1.01-.35,1.43-.3.42-.7.68-1.21.76h-.07s-.08.03-.1.08c-.02.06-.01.11.03.15l.07.03c.44.31.7.72.78,1.23.08.51-.04.97-.35,1.39-.58.8-1.22,1.62-1.92,2.46-.02.02-.02.06,0,.12.02.06.05.07.1.05l.43-.13c.49-.15.95-.11,1.39.13.44.24.71.61.8,1.1ZM328.79,64.2v-.56c0-.18-.09-.27-.27-.27l-2.46.17s-.02.06,0,.1l2.46.76c.18.04.27-.02.27-.2ZM330.75,56.04c1.37-1.61,2.62-3.22,3.75-4.81.09-.13.04-.2-.13-.2-.04,0-.12,0-.23.02-.11.01-.19.02-.23.02-.13,0-.27.09-.4.27-.91,1.28-1.97,2.67-3.19,4.15-.11.15-.11.3,0,.43l.03.07s.04.08.07.1c.07.13.18.12.33-.03ZM333.57,58.66l1.33-.07c.18,0,.24-.09.2-.27-.07-.27-.14-.64-.23-1.13-.02-.04-.06-.08-.12-.1-.06-.02-.1-.01-.12.03-.46.55-.85,1-1.16,1.33-.05.09-.01.16.1.2ZM335.89,63.44c.18-.04.24-.15.2-.33-.04-.15-.14-.23-.3-.23l-1.76.13c-.18,0-.26.1-.26.3v.6c0,.18.09.24.26.2l1.86-.66Z"/>
    <path d="M321.49,85.05h2.72c.58,0,1.24.07,2.01.22.76.14,1.27.26,1.53.35.25.09.57.38.95.86s.6.91.66,1.26c.07.35.15,1.02.27,2.01.11.98.17,1.86.17,2.64v3.62c0,4.4-.54,7.55-1.61,9.44-1.07,1.89-2.64,2.84-4.7,2.84-1.48,0-3.31-.27-5.48-.8-.51-.13-.9-.43-1.16-.9-.27-.46-.33-.95-.2-1.46l.4-1.66c.13-.49.42-.86.86-1.13.44-.27.92-.34,1.43-.23,1.41.35,2.36.53,2.82.53.88,0,1.33-2.54,1.33-7.63,0-2.3-.08-3.65-.25-4.05s-.75-.6-1.74-.6h-2.62c-.2,0-.32.09-.37.27-1.19,5.35-2.75,10.75-4.68,16.19-.18.51-.5.88-.98,1.11-.48.23-.96.27-1.44.12l-1.56-.53c-.49-.16-.85-.46-1.08-.91-.23-.45-.26-.93-.08-1.44,1.59-4.73,2.95-9.57,4.08-14.5.04-.2-.02-.3-.2-.3h-1.79c-.51,0-.95-.19-1.33-.56-.38-.38-.56-.82-.56-1.33v-1.53c0-.51.19-.95.56-1.33.38-.38.82-.56,1.33-.56h2.89c.18,0,.29-.09.33-.27.15-.77.4-2.17.73-4.18.09-.53.34-.97.76-1.31.42-.34.9-.49,1.43-.45l1.69.13c.51.04.93.26,1.26.65.33.39.46.82.4,1.31-.18,1.33-.38,2.61-.6,3.85-.05.18.03.27.23.27h1.59ZM332.31,87.1c-.49.22-.97.24-1.46.07-.49-.18-.85-.5-1.1-.96-.11-.2-.46-.85-1.06-1.96-.24-.44-.29-.91-.13-1.39s.46-.85.93-1.1h.03c.46-.24.95-.29,1.46-.13.51.15.88.46,1.13.93.24.44.61,1.13,1.1,2.06.22.46.24.94.07,1.43-.18.49-.5.84-.96,1.06ZM336.99,90.19c.77,2.61,1.55,5.49,2.32,8.63.11.49.03.95-.23,1.39-.27.44-.65.72-1.16.83l-2.16.46c-.51.11-.98.03-1.41-.25-.43-.28-.71-.68-.85-1.21-.75-3.05-1.49-5.81-2.22-8.26-.15-.49-.11-.96.15-1.41.25-.45.64-.76,1.14-.91l2.06-.56c.49-.15.96-.1,1.43.15s.77.64.93,1.14ZM334.83,80.6c.46-.24.95-.29,1.46-.15.51.14.88.45,1.13.91.73,1.39,1.11,2.11,1.13,2.16.24.46.28.94.12,1.43-.17.49-.48.84-.95,1.06l-.1.07c-.46.22-.95.25-1.44.08-.5-.17-.87-.48-1.11-.95-.11-.22-.29-.56-.53-1.03-.24-.46-.43-.81-.56-1.03-.24-.44-.29-.92-.15-1.43.14-.51.45-.87.91-1.1l.1-.03Z"/>
    <path d="M336.85,136.62c.51,0,.95.19,1.33.56s.56.82.56,1.33v1.53c0,.51-.19.95-.56,1.33-.38.38-.82.56-1.33.56h-26.74c-.51,0-.95-.19-1.33-.56-.38-.38-.56-.82-.56-1.33v-1.53c0-.51.19-.95.56-1.33s.82-.56,1.33-.56h1.13c.2,0,.3-.1.3-.3v-16.72c0-.51.19-.95.56-1.33.38-.38.82-.56,1.33-.56h2.19c.51,0,.95.19,1.33.56.38.38.56.82.56,1.33v16.72c0,.2.09.3.27.3h3.85c.18,0,.27-.1.27-.3v-21.7c0-.51.19-.95.56-1.33.38-.38.82-.56,1.33-.56h2.39c.51,0,.95.19,1.33.56.38.38.56.82.56,1.33v5.77c0,.2.09.3.27.3h7.53c.51,0,.95.19,1.33.56.38.38.56.82.56,1.33v1.36c0,.51-.19.95-.56,1.33-.38.38-.82.56-1.33.56h-7.53c-.18,0-.27.09-.27.27v10.22c0,.2.09.3.27.3h8.53Z"/>
    <path d="M334.86,148.74c.51,0,.95.19,1.33.56.38.38.56.82.56,1.33v1.53c0,.51-.19.95-.56,1.33-.38.38-.82.56-1.33.56h-5.77c-.2,0-.3.1-.3.3v.76c0,.18.1.27.3.27h4.45c.51,0,.95.19,1.33.56.38.38.56.82.56,1.33v1.36c0,.51-.19.95-.56,1.33-.38.38-.82.56-1.33.56h-4.45c-.2,0-.3.1-.3.3v3.45c0,.2.09.35.27.46,1.84,1.15,3.72,2.59,5.64,4.31.38.35.58.79.61,1.31s-.13.97-.48,1.34l-1.13,1.19c-.35.38-.79.58-1.29.61s-.95-.13-1.33-.48c-.84-.77-1.69-1.5-2.56-2.19-.13-.13-.25-.1-.36.1-.53,1.42-1.47,2.44-2.82,3.07s-3.19.95-5.51.95c-2.5,0-4.45-.58-5.86-1.74-1.41-1.16-2.11-2.79-2.11-4.89s.68-3.62,2.06-4.76c1.37-1.14,3.34-1.71,5.91-1.71.97,0,1.88.08,2.72.23.18.04.27-.03.27-.23v-1.03c0-.2-.09-.3-.27-.3h-9.13c-.51,0-.95-.19-1.33-.56-.38-.38-.56-.82-.56-1.33v-1.36c0-.51.19-.95.56-1.33.38-.38.82-.56,1.33-.56h9.13c.18,0,.27-.09.27-.27v-.76c0-.2-.09-.3-.27-.3h-10.45c-.51,0-.95-.19-1.33-.56-.38-.38-.56-.82-.56-1.33v-1.53c0-.51.19-.95.56-1.33s.82-.56,1.33-.56h10.45c.18,0,.27-.1.27-.3v-.46c0-.51.19-.95.56-1.33s.82-.56,1.33-.56h2.19c.51,0,.95.19,1.33.56s.56.82.56,1.33v.46c0,.2.1.3.3.3h5.77ZM319.83,169.65c1.13,0,1.89-.12,2.27-.37s.61-.77.68-1.59c0-.2-.07-.31-.2-.33-.8-.24-1.49-.37-2.09-.37-1.77,0-2.65.44-2.65,1.33s.66,1.33,1.99,1.33Z"/>
    <path d="M326.63,189.9c3.5,0,6.03.67,7.6,2.01,1.57,1.34,2.36,3.43,2.36,6.29s-1.27,5.31-3.8,7.03c-2.53,1.73-6.13,2.59-10.8,2.59-2.19,0-4.39-.1-6.6-.3-.51-.04-.93-.27-1.26-.68-.33-.41-.48-.87-.43-1.38l.17-1.59c.04-.51.27-.92.66-1.24.4-.32.85-.46,1.36-.41,2.37.2,4.4.3,6.11.3,2.32,0,4.15-.4,5.47-1.21,1.33-.81,1.99-1.84,1.99-3.1,0-1.99-1.27-2.99-3.82-2.99-1.79,0-4.34.86-7.63,2.59-1.11.6-2.28.77-3.52.53l-1.92-.43c-.51-.09-.91-.35-1.21-.78-.3-.43-.4-.9-.32-1.41.35-2.06.71-4.26,1.06-6.6.09-.53.34-.96.75-1.28.41-.32.88-.46,1.41-.41l2.36.17c.51.04.93.27,1.26.68.33.41.46.87.4,1.38-.04.38-.12.9-.22,1.58-.1.68-.17,1.17-.22,1.48v.03h.07c3.14-1.88,6.05-2.82,8.73-2.82ZM317.74,180.47c4.56.46,8.88.73,12.97.8.51,0,.95.19,1.33.56.38.38.56.82.56,1.33v1.53c0,.51-.19.95-.56,1.33-.38.38-.82.56-1.33.56-4.82-.07-9.38-.33-13.67-.8-.51-.04-.92-.27-1.24-.68-.32-.41-.45-.87-.38-1.38l.2-1.59c.07-.51.31-.92.73-1.24.42-.32.88-.46,1.39-.41Z"/>
    <path d="M322.92,221.45h-3.95c-.2,0-.32.1-.36.3-1.31,5.13-2.78,9.92-4.41,14.37-.18.49-.5.85-.98,1.08-.48.23-.97.26-1.48.08l-1.89-.63c-.49-.18-.84-.49-1.06-.95-.22-.45-.25-.92-.1-1.41,1.61-4.49,2.94-8.68,3.98-12.58.04-.18-.03-.27-.23-.27h-1.66c-.51,0-.95-.19-1.33-.56-.38-.38-.56-.82-.56-1.33v-1.53c0-.51.19-.95.56-1.33.38-.38.82-.56,1.33-.56h3.02c.18,0,.29-.09.33-.27.22-.97.39-1.71.5-2.22s.38-.92.81-1.23c.43-.31.91-.43,1.44-.37l1.92.2c.51.07.91.31,1.19.73.29.42.39.87.3,1.36-.05.18-.1.43-.17.76-.07.33-.12.59-.17.76-.04.18.03.27.23.27h2.72c.51,0,.95.19,1.33.56.38.38.56.82.56,1.33v1.53c0,.51-.19.95-.56,1.33-.38.38-.82.56-1.33.56ZM336.52,216.57c.51.04.93.28,1.26.7.33.42.46.88.4,1.39l-.2,1.59c-.07.51-.3.92-.71,1.23-.41.31-.87.43-1.38.37-1.06-.13-1.89-.21-2.49-.23-.2,0-.3.1-.3.3v8.56c0,.2.09.35.27.46,1.15.86,2.49,2.01,4.02,3.45.38.38.57.82.6,1.34.02.52-.14.98-.5,1.38l-1.13,1.19c-.35.38-.79.58-1.29.61s-.95-.13-1.33-.48c-.13-.11-.33-.28-.58-.5-.25-.22-.43-.38-.51-.46-.13-.13-.24-.12-.33.03-1.2,2.57-3.7,3.85-7.5,3.85-2.72,0-4.84-.63-6.35-1.88-1.51-1.25-2.27-2.95-2.27-5.09s.75-3.79,2.24-5.06c1.49-1.27,3.62-1.91,6.39-1.91.71,0,1.38.08,2.02.23.2.04.3-.02.3-.2v-9.42c0-.51.19-.95.56-1.33.38-.38.82-.55,1.33-.53,2.72.04,5.22.18,7.5.4ZM324.81,236.38c.86,0,1.46-.2,1.79-.61.33-.41.51-1.21.53-2.41,0-.22-.09-.37-.27-.43-.69-.35-1.37-.53-2.06-.53-.86,0-1.52.18-1.97.55-.45.37-.68.85-.68,1.44s.23,1.11.7,1.46c.47.35,1.12.53,1.96.53Z"/>
    <path d="M326.37,263.01c.49.18.84.5,1.06.98.22.48.23.96.03,1.44-1.17,2.81-2.6,4.99-4.3,6.54s-3.36,2.32-4.99,2.32c-2.04,0-3.93-1.32-5.67-3.95-1.75-2.63-2.62-5.85-2.62-9.66,0-3.41.43-6.78,1.29-10.12.13-.53.43-.95.88-1.26.45-.31.96-.43,1.51-.37l2.42.27c.49.04.87.27,1.14.68.28.41.36.86.25,1.34-.8,3.36-1.19,6.52-1.19,9.46,0,1.04.08,2.03.25,2.97.17.94.38,1.71.65,2.32.27.61.54,1.1.81,1.46.28.37.54.55.78.55.35,0,.84-.39,1.46-1.18.62-.78,1.27-1.93,1.96-3.43.22-.46.57-.8,1.04-1,.48-.2.96-.21,1.44-.03l1.79.66ZM331.44,248.95c.53-.15,1.04-.12,1.53.1.49.22.83.58,1.03,1.06,2.28,5.53,3.52,11.75,3.72,18.65.02.51-.15.95-.53,1.33-.38.38-.82.56-1.33.56h-2.52c-.51,0-.95-.18-1.33-.55-.38-.37-.58-.8-.6-1.31-.2-5.95-1.28-11.6-3.25-16.96-.18-.49-.16-.96.07-1.41.22-.45.58-.75,1.06-.88l2.16-.6Z"/>
    <path d="M325.57,281.18c.51,0,.94.19,1.29.56.35.38.52.82.5,1.33l-.8,12.48c-.04.53-.25.98-.63,1.34-.38.37-.83.55-1.36.55h-2.19c-.53,0-.98-.18-1.36-.55s-.59-.81-.63-1.34l-.8-12.48c-.02-.51.14-.95.5-1.33.35-.38.78-.56,1.29-.56h4.18ZM324.91,300.1c.51,0,.95.19,1.33.56.38.38.56.82.56,1.33v1.53c0,.51-.19.95-.56,1.33-.38.38-.82.56-1.33.56h-2.85c-.51,0-.95-.19-1.33-.56s-.56-.82-.56-1.33v-1.53c0-.51.19-.95.56-1.33.38-.38.82-.56,1.33-.56h2.85Z"/>
  </g>
  <ellipse class="cls-7" cx="165.92" cy="302.27" rx="76.26" ry="4.93"/>
  <path class="cls-6" d="M229.1,148.67c.55.95,14.62,20.98,13.64,40.28-.98,19.3-17.47,8.82-17.47,8.82l-19.9-50.92,23.73,1.82Z"/>
  <path class="cls-6" d="M119.68,180.54c-31.02-4.78-59.21-45.25-59.21-45.25l13.76-28.43c24.41,24.46,53.56,35.71,53.56,35.71l-8.11,37.97Z"/>
  <path class="cls-6" d="M224.08,243.46c-.36,29.45-14.4,46.45-14.4,46.45h-83.95c-14.45-22.17-14.4-46.45-14.4-46.45h112.76Z"/>
  <polygon class="cls-6" points="235.4 244.95 100 244.95 123.62 124.59 209.16 124.59 235.4 244.95"/>
  <polygon class="cls-6" points="139.76 153.02 118.04 153.02 127.16 168.83 141.25 170.06 130.57 177.62 163.29 216.52 139.76 153.02"/>
  <polygon class="cls-6" points="192.63 153.02 214.36 153.02 205.24 168.83 191.15 170.06 201.82 177.62 169.11 216.52 192.63 153.02"/>
  <polygon class="cls-6" points="139.86 153.02 166.31 153.02 192.64 152.99 186.91 168.48 166.31 154.13 145.43 168.05 139.86 153.02"/>
  <polygon class="cls-1" points="156.09 160.95 159.25 171.55 173.82 171.55 176.54 160.95 166.31 154.13 156.09 160.95"/>
  <polygon class="cls-1" points="159.25 171.55 151.32 184.22 166.16 224.03 180.52 185.8 173.82 171.55 159.25 171.55"/>
  <line class="cls-4" x1="165.92" y1="289.5" x2="165.92" y2="259"/>
  <ellipse class="cls-8" cx="139.25" cy="293.22" rx="26.67" ry="12.43"/>
  <ellipse class="cls-8" cx="192.59" cy="293.22" rx="26.67" ry="12.43"/>
  <path class="cls-9" d="M44.27,33.14c-2.22-1.34-9.06-2.04-14.41-4.07-6.38-2.43-8.45-9.41-6.51-12.1,1.94-2.69,8.54-2.29,13.54,2.35,2.39,2.22,3.5,5.56,5.33,7.55"/>
  <path class="cls-9" d="M43.36,51.45c-2.59-.01-8.82,2.92-14.46,3.92-6.72,1.2-12.09-3.72-11.81-7.03s6.14-6.36,12.82-4.95c3.2.67,5.87,2.97,8.45,3.73"/>
  <rect class="cls-3" x="60.68" y="11.94" width="211.15" height="141.05"/>
  <circle class="cls-1" cx="165.92" cy="82.47" r="42.76"/>
  <path class="cls-9" d="M83.71,26.49c.21,2.58,3.65,8.54,5.13,14.07,1.76,6.6-2.69,12.36-6.01,12.36s-6.85-5.59-6.01-12.36c.4-3.24,2.46-6.09,3.01-8.74"/>
  <path class="cls-5" d="M246.7,143.43c0-13.76-7.87-24.91-17.57-24.91s-17.57,11.15-17.57,24.91c0,.11.02.2.02.31-3.44-.7-6.54-.1-8.42,1.99-3.58,4-1.36,11.82,4.96,17.47,1.35,1.21,2.79,2.18,4.24,2.99,3.85,2.12,7.94,3.84,12.89,3.57,3.65-.2,7-1.27,9.74-2.95,6.81-3.43,11.72-12.55,11.72-23.38Z"/>
</svg>