<?xml version="1.0" encoding="UTF-8"?>
<svg id="_レイヤー_1" data-name="レイヤー 1" xmlns="http://www.w3.org/2000/svg" viewBox="0 0 370 320">
  <defs>
    <style>
      .cls-1 {
        fill: #c79f62;
      }

      .cls-1, .cls-2, .cls-3, .cls-4, .cls-5, .cls-6, .cls-7, .cls-8, .cls-9, .cls-10, .cls-11 {
        stroke-linecap: round;
        stroke-linejoin: round;
      }

      .cls-1, .cls-2, .cls-3, .cls-5, .cls-6, .cls-7, .cls-8, .cls-9, .cls-10, .cls-11 {
        stroke: #000;
        stroke-width: 2px;
      }

      .cls-2 {
        fill: #c8bb9b;
      }

      .cls-3 {
        fill: red;
      }

      .cls-4 {
        stroke: #fff;
        stroke-width: 5px;
      }

      .cls-4, .cls-5 {
        fill: #fff;
      }

      .cls-6 {
        fill: none;
      }

      .cls-7 {
        fill: #f4db8e;
      }

      .cls-8 {
        fill: #1b1464;
      }

      .cls-9 {
        opacity: .3;
      }

      .cls-10 {
        fill: #40210f;
      }

      .cls-11 {
        fill: #009fe8;
      }
    </style>
  </defs>
  <g id="_全然大丈夫です_" data-name="全然大丈夫です！">
    <g>
      <path class="cls-4" d="M331.5,21.89c.53.28.89.7,1.09,1.26s.18,1.12-.07,1.67l-.71,1.73c-.23.55-.61.93-1.17,1.13-.55.2-1.09.16-1.62-.11-.95-.48-2.04-1.06-3.27-1.77-.05-.05-.11-.06-.17-.02s-.09.09-.09.17v.6c0,.58-.21,1.08-.64,1.5-.43.43-.93.64-1.5.64h-4.7c-.2,0-.3.11-.3.34v2.56c0,.2.1.3.3.3h7.33c.58,0,1.08.21,1.5.64.43.43.64.93.64,1.5v1.17c0,.58-.21,1.08-.64,1.5s-.93.64-1.5.64h-7.33c-.2,0-.3.11-.3.34v2.93c0,.2.1.3.3.3h10.71c.58,0,1.08.21,1.5.64.43.43.64.93.64,1.5v1.35c0,.58-.21,1.08-.64,1.5-.43.43-.93.64-1.5.64h-29.18c-.58,0-1.08-.21-1.5-.64-.43-.43-.64-.93-.64-1.5v-1.35c0-.58.21-1.08.64-1.5.43-.43.93-.64,1.5-.64h10.68c.23,0,.34-.1.34-.3v-2.93c0-.23-.11-.34-.34-.34h-7.29c-.58,0-1.08-.21-1.5-.64-.43-.43-.64-.93-.64-1.5v-1.17c0-.58.21-1.08.64-1.5s.93-.64,1.5-.64h7.29c.23,0,.34-.1.34-.3v-2.56c0-.23-.11-.34-.34-.34h-4.47c-.58,0-1.08-.21-1.5-.64-.43-.43-.64-.93-.64-1.5v-.71c0-.08-.03-.13-.09-.17-.06-.04-.12-.03-.17.02-1.13.68-2.29,1.32-3.5,1.92-.5.25-1.03.27-1.58.06-.55-.21-.94-.58-1.17-1.11l-.71-1.73c-.25-.55-.28-1.11-.08-1.67s.56-.98,1.09-1.26c4.16-2.26,7.73-4.81,10.72-7.67,1.05-1,2.27-1.5,3.65-1.5h4.74c1.38,0,2.59.5,3.65,1.5,2.98,2.86,6.55,5.41,10.71,7.67ZM308,23.25h13.54c.15,0,.17-.05.07-.15-2.16-1.55-4.36-3.5-6.62-5.83-.15-.15-.3-.14-.45.04-2.08,2.16-4.29,4.09-6.62,5.79-.1.1-.08.15.07.15Z"/>
      <path class="cls-4" d="M305.14,75.59c.53.28.89.69,1.09,1.24.2.55.18,1.09-.07,1.62-1,1.98-1.96,3.7-2.86,5.15-.33.5-.77.81-1.33.94-.56.12-1.1.04-1.6-.26l-1.65-1.01c-.5-.3-.81-.74-.94-1.32-.13-.58-.04-1.1.26-1.58,1.1-1.8,1.97-3.32,2.59-4.55.05-.12.11-.23.19-.3.02-.05.02-.09,0-.13-.03-.04-.05-.04-.08-.02-.48.13-.94.08-1.39-.15s-.76-.58-.94-1.05l-.75-2.03c-.2-.55-.19-1.1.04-1.65.23-.55.6-.96,1.13-1.24.28-.13.79-.43,1.54-.9.17-.1.2-.24.07-.41-.85-1.13-1.59-2.08-2.22-2.86-.35-.45-.49-.97-.41-1.56.08-.59.35-1.05.83-1.37l.9-.64c.18-.13.21-.29.11-.49l-1.2-2.33c-.28-.55-.35-1.12-.21-1.71.14-.59.46-1.07.96-1.45,1.65-1.3,3.12-2.66,4.4-4.06.95-1.08,2.12-1.48,3.5-1.2l1.62.34c.48.1.8.36.98.79.18.43.14.84-.11,1.24-.1.15-.06.23.11.23h4.81c.58,0,1.08.21,1.5.64.43.43.64.93.64,1.5v1.47c0,.23.11.34.34.34h.26c.23,0,.34-.11.34-.34v-3.91c0-.58.21-1.08.64-1.5.43-.43.93-.64,1.5-.64h3.53c.3,0,.56.11.77.32.21.21.32.47.32.77,0,.02.01.04.04.06.02.01.05,0,.08-.02l.26-.38c.38-.48.86-.78,1.47-.9s1.17-.04,1.69.26c.65.38,1.45.88,2.41,1.5.48.33.76.78.86,1.35.1.58-.03,1.1-.38,1.58l-1.2,1.62s-.02.07.02.13c.04.06.07.09.09.09.5,0,.93.18,1.28.53.35.35.53.78.53,1.28v1.69c0,.58-.21,1.08-.64,1.5-.43.43-.93.64-1.5.64h-3.65c-.07,0-.14.03-.19.09-.05.06-.06.13-.04.21.93,2.31,2.73,4.49,5.41,6.54.45.35.71.81.79,1.37.07.56-.08,1.06-.45,1.48l-1.35,1.47c-.43.48-.93.75-1.52.83-.59.07-1.13-.08-1.64-.45-2.16-1.7-3.97-3.87-5.45-6.5-.1-.15-.2-.15-.3,0-1.68,2.83-3.8,5.25-6.35,7.26-.5.38-1.05.52-1.64.43-.59-.09-1.08-.36-1.49-.81l-1.35-1.47c-.38-.43-.52-.92-.43-1.49.09-.56.36-1.02.81-1.37,3.08-2.28,5.11-4.71,6.09-7.29.02-.08.01-.14-.04-.21-.05-.06-.11-.09-.19-.09h-1.58c-.23,0-.38.09-.45.26-2.86,4.91-6.83,8.85-11.92,11.81,0,.05.02.09.08.11.35,0,.69.07,1.01.23l1.62.75ZM301.49,60.85c-.18.13-.2.26-.07.41,1.03,1.28,1.98,2.49,2.86,3.65.12.18.26.19.41.04.05-.05.14-.14.26-.26s.23-.21.3-.26c.13-.18.14-.34.04-.49-.3-.38-.75-.96-1.35-1.77-.6-.8-1.05-1.39-1.35-1.77-.15-.18-.29-.2-.41-.08-.3.25-.53.43-.68.53ZM306.95,57.73c-.18,0-.2.09-.07.26.2.25.47.6.81,1.05.34.45.57.76.7.94.05.05.11.07.19.06.07-.01.14-.04.19-.09.38-.63.71-1.27,1.01-1.92.1-.2.04-.3-.19-.3h-2.63ZM314.13,77.36c.15,1.1.36,2.82.64,5.15.05.58-.11,1.09-.49,1.54s-.85.7-1.43.75l-2.18.19c-.58.05-1.09-.11-1.54-.49s-.7-.85-.75-1.43c-.28-2.43-.49-4.16-.64-5.19-.07-.58.06-1.09.41-1.54.35-.45.81-.7,1.39-.75l2.18-.19c.6-.05,1.13.11,1.6.49.46.38.73.86.81,1.47ZM321.76,76.72c.5,1.78.95,3.47,1.35,5.08.15.55.07,1.08-.24,1.58-.31.5-.76.81-1.33.94l-2.07.41c-.58.13-1.11.03-1.6-.28-.49-.31-.81-.76-.96-1.34-.33-1.25-.78-2.94-1.35-5.08-.15-.58-.08-1.11.21-1.62.29-.5.71-.8,1.26-.9l2.07-.41c.6-.13,1.15-.03,1.65.28.5.31.84.76,1.02,1.33ZM328.98,75.55c1.08,1.88,1.98,3.52,2.71,4.93.28.53.32,1.07.13,1.64-.19.56-.55.97-1.07,1.22l-1.69.86c-.53.28-1.07.33-1.62.15-.55-.18-.95-.53-1.2-1.05-.9-1.78-1.79-3.42-2.67-4.93-.28-.5-.34-1.03-.19-1.6.15-.56.48-.97.98-1.22l1.69-.86c.53-.28,1.07-.33,1.64-.15.56.18,1,.51,1.3,1.01ZM324.35,54.84v1.65c0,.2.11.3.34.3h2.78s.09-.02.11-.07c.02-.05.01-.09-.04-.11-.95-.65-1.93-1.29-2.93-1.92-.05-.05-.11-.06-.17-.02-.06.04-.09.09-.09.17Z"/>
      <path class="cls-4" d="M329.17,94.87c.58,0,1.08.21,1.5.64s.64.93.64,1.5v1.73c0,.58-.21,1.08-.64,1.5-.43.43-.93.64-1.5.64h-10.04c-.23,0-.31.1-.26.3.63,3.16,1.87,5.93,3.72,8.31,1.85,2.38,4.39,4.5,7.59,6.35.5.28.81.69.94,1.24.13.55.02,1.05-.3,1.5l-1.47,1.99c-.38.5-.86.83-1.45.98-.59.15-1.15.08-1.67-.23-2.26-1.33-4.34-3.05-6.24-5.17-1.91-2.12-3.5-4.47-4.77-7.05-.1-.15-.2-.15-.3,0-1.35,2.61-3.03,4.97-5.04,7.09-2.01,2.12-4.2,3.84-6.58,5.17-.55.3-1.12.37-1.69.21-.58-.16-1.05-.49-1.43-1l-1.47-1.99c-.33-.45-.43-.95-.3-1.5.12-.55.43-.96.9-1.24,3.21-1.85,5.75-3.97,7.61-6.35,1.87-2.38,3.11-5.15,3.74-8.31.05-.2-.04-.3-.26-.3h-10.04c-.58,0-1.08-.21-1.5-.64-.43-.43-.64-.93-.64-1.5v-1.73c0-.58.21-1.08.64-1.5.43-.43.93-.64,1.5-.64h10.49c.23,0,.34-.11.34-.34v-4.66c0-.58.21-1.08.64-1.5.43-.43.93-.64,1.5-.64h2.86c.58,0,1.08.21,1.5.64.43.43.64.93.64,1.5v4.66c0,.23.11.34.34.34h10.49Z"/>
      <path class="cls-4" d="M329.99,153.48c.53.13.91.43,1.17.9.25.48.26.97.04,1.47l-.9,2.11c-.25.58-.65,1.01-1.2,1.3-.55.29-1.13.37-1.73.24-4.71-1.08-9.09-2.9-13.12-5.45-.15-.13-.33-.11-.53.04-2.41,1.9-6.13,3.63-11.17,5.19-.6.17-1.19.15-1.77-.08-.58-.23-1.02-.61-1.32-1.17l-.98-1.88c-.25-.5-.28-1-.07-1.5.2-.5.56-.84,1.09-1.01,4.16-1.33,7.12-2.58,8.87-3.76.17-.13.19-.26.04-.41-2.01-1.98-3.65-4.12-4.93-6.43-.28-.5-.31-1.03-.11-1.58.2-.55.58-.95,1.13-1.2l2.11-.9c.55-.25,1.11-.28,1.67-.08.56.2.98.56,1.26,1.09.83,1.5,1.7,2.81,2.63,3.91.02.03.06.04.09.06.04.01.08,0,.13-.02.05-.02.08-.06.08-.11.48-1.7.78-4.01.9-6.92,0-.2-.1-.3-.3-.3h-12.71c-.58,0-1.08-.21-1.5-.64-.43-.43-.64-.93-.64-1.5v-1.73c0-.58.21-1.08.64-1.5.43-.43.93-.64,1.5-.64h12.75c.23,0,.34-.11.34-.34v-3.16c0-.58.21-1.08.64-1.5s.93-.64,1.5-.64h2.86c.58,0,1.08.21,1.5.64.43.43.64.93.64,1.5v3.16c0,.23.11.34.34.34h8.23c.58,0,1.08.21,1.5.64s.64.93.64,1.5v1.73c0,.58-.21,1.08-.64,1.5s-.93.64-1.5.64h-8.38c-.2,0-.3.11-.3.34-.28,4.86-1.09,8.7-2.44,11.5-.1.2-.05.35.15.45,3.01,1.73,6.94,3.13,11.81,4.21Z"/>
      <path class="cls-4" d="M329.17,177.21c.58,0,1.08.21,1.5.64s.64.93.64,1.5v1.17c0,.58-.21,1.08-.64,1.5-.43.43-.93.64-1.5.64h-8.72c-.08,0-.13.03-.17.09-.04.06-.04.12-.02.17,1.68,2.96,4.98,5.64,9.89,8.05.5.25.84.65,1.01,1.18.18.54.13,1.06-.15,1.56l-1.09,1.96c-.3.53-.73.88-1.3,1.05-.56.18-1.11.13-1.64-.15-5.36-2.83-9.29-6.3-11.77-10.41-.1-.15-.21-.14-.34.04-2.58,4.06-6.68,7.52-12.29,10.38-.55.28-1.11.33-1.67.15-.56-.18-1-.53-1.3-1.05l-1.09-1.96c-.28-.5-.33-1.02-.15-1.56.18-.54.51-.93,1.01-1.18,4.89-2.38,8.18-5.06,9.89-8.05.02-.05.02-.11-.02-.17-.04-.06-.09-.09-.17-.09h-8.72c-.58,0-1.08-.21-1.5-.64-.43-.43-.64-.93-.64-1.5v-1.17c0-.58.21-1.08.64-1.5.43-.43.93-.64,1.5-.64h10.34c.25,0,.38-.11.38-.34.08-.78.11-1.6.11-2.48v-1.02c0-.2-.11-.3-.34-.3h-8.99c-.58,0-1.08-.21-1.5-.64-.43-.43-.64-.93-.64-1.5v-1.54c0-.58.21-1.08.64-1.5.43-.43.93-.64,1.5-.64h8.99c.23,0,.34-.11.34-.34v-2.22c0-.58.21-1.08.64-1.5.43-.43.93-.64,1.5-.64h2.86c.58,0,1.08.21,1.5.64s.64.93.64,1.5v2.22c0,.23.11.34.34.34h8.99c.58,0,1.08.21,1.5.64.43.43.64.93.64,1.5v1.54c0,.58-.21,1.08-.64,1.5s-.93.64-1.5.64h-8.99c-.23,0-.34.1-.34.3v1.05c0,.85.04,1.67.11,2.44,0,.23.13.34.38.34h10.34Z"/>
      <path class="cls-4" d="M325.89,229.02l.26,2.29c.08.6-.06,1.14-.41,1.62-.35.48-.83.75-1.43.83-1.15.15-2.33.23-3.53.23-4.61,0-8.3-1.18-11.07-3.55-2.77-2.37-4.15-5.57-4.15-9.61,0-1.88.5-3.76,1.5-5.64,1-1.88,2.37-3.48,4.1-4.81.02,0,.04-.02.04-.07,0-.02-.01-.04-.04-.04-3.58.1-7.16.18-10.72.23-.58,0-1.07-.21-1.48-.64s-.62-.93-.62-1.5v-2.11c0-.58.21-1.08.62-1.5.41-.43.91-.64,1.48-.64,9.7-.05,18.75-.26,27.15-.64.58-.02,1.08.16,1.52.56.44.4.67.89.7,1.47l.04,2.11c.02.6-.16,1.12-.56,1.56-.4.44-.9.68-1.5.73-4.81.48-8.43,1.62-10.87,3.42-2.43,1.8-3.65,4.06-3.65,6.77,0,2.28.73,4.07,2.18,5.38,1.45,1.3,3.36,1.96,5.71,1.96.78,0,1.55-.05,2.33-.15.6-.08,1.13.06,1.6.39.46.34.73.8.81,1.37ZM324.92,215.37c.28.5.69,1.28,1.24,2.33.25.53.28,1.07.08,1.62-.2.55-.56.95-1.09,1.2-.55.25-1.1.28-1.65.08-.55-.2-.97-.56-1.24-1.09-.13-.23-.53-.96-1.2-2.22-.28-.5-.33-1.03-.15-1.58.17-.55.53-.96,1.05-1.24h.04c.53-.28,1.08-.33,1.65-.15.58.18,1,.53,1.28,1.05ZM330.93,214.02c.83,1.58,1.25,2.39,1.28,2.44.28.53.32,1.07.13,1.62-.19.55-.55.95-1.07,1.2l-.11.08c-.53.25-1.07.28-1.64.09-.56-.19-.98-.55-1.26-1.07-.13-.25-.33-.64-.6-1.17-.28-.53-.49-.91-.64-1.17-.28-.5-.33-1.04-.17-1.62.16-.58.51-.99,1.03-1.24l.11-.04c.53-.28,1.08-.33,1.65-.17.58.16,1,.51,1.28,1.03Z"/>
      <path class="cls-4" d="M329.17,241.5c.58,0,1.08.21,1.5.64.43.43.64.93.64,1.5v1.35c0,.58-.21,1.08-.64,1.5-.43.43-.93.64-1.5.64h-7.33c-.2,0-.3.11-.3.34v6.13c0,.13.05.31.15.56.78,1.6,1.17,3.27,1.17,5,0,3.68-1.04,6.49-3.12,8.4-2.08,1.92-5.54,3.18-10.38,3.78-.6.08-1.13-.07-1.6-.43-.46-.36-.76-.85-.88-1.45l-.38-1.8c-.1-.55.02-1.06.38-1.52.35-.46.81-.72,1.39-.77,1.9-.2,3.35-.41,4.34-.64.99-.23,1.69-.48,2.09-.75.4-.28.71-.65.94-1.13.02-.02.04-.06.04-.11s.01-.09.04-.11v-.07h-.08c-1.28.5-2.57.75-3.87.75-2.46,0-4.45-.69-5.98-2.07-1.53-1.38-2.29-3.2-2.29-5.45s.78-4.1,2.33-5.47c1.55-1.37,3.66-2.05,6.32-2.05.78,0,1.62.13,2.52.38h.08s.04-.01.04-.04v-1.13c0-.23-.11-.34-.34-.34h-14.06c-.58,0-1.08-.21-1.5-.64-.43-.43-.64-.93-.64-1.5v-1.35c0-.58.21-1.08.64-1.5s.93-.64,1.5-.64h14.06c.23,0,.34-.11.34-.34v-.9c0-.58.21-1.08.64-1.5.43-.43.93-.64,1.5-.64h2.48c.58,0,1.08.21,1.5.64.43.43.64.93.64,1.5v.9c0,.23.1.34.3.34h7.33ZM310.8,257.4c.49.43,1.12.64,1.9.64s1.41-.21,1.9-.64c.49-.43.73-.96.73-1.62s-.24-1.19-.73-1.62c-.49-.43-1.12-.64-1.9-.64s-1.41.21-1.9.64c-.49.43-.73.97-.73,1.62s.24,1.19.73,1.62Z"/>
      <path class="cls-4" d="M317.13,279.09c.58,0,1.06.21,1.47.64.4.43.59.93.56,1.5l-.9,14.14c-.05.6-.29,1.11-.71,1.52-.43.41-.94.62-1.54.62h-2.48c-.6,0-1.12-.21-1.54-.62-.43-.41-.66-.92-.71-1.52l-.9-14.14c-.02-.58.16-1.08.56-1.5.4-.43.89-.64,1.47-.64h4.74ZM316.38,300.52c.58,0,1.08.21,1.5.64.43.43.64.93.64,1.5v1.73c0,.58-.21,1.08-.64,1.5-.43.43-.93.64-1.5.64h-3.23c-.58,0-1.08-.21-1.5-.64-.43-.43-.64-.93-.64-1.5v-1.73c0-.58.21-1.08.64-1.5.43-.43.93-.64,1.5-.64h3.23Z"/>
    </g>
    <g>
      <path d="M331.5,21.89c.53.28.89.7,1.09,1.26s.18,1.12-.07,1.67l-.71,1.73c-.23.55-.61.93-1.17,1.13-.55.2-1.09.16-1.62-.11-.95-.48-2.04-1.06-3.27-1.77-.05-.05-.11-.06-.17-.02s-.09.09-.09.17v.6c0,.58-.21,1.08-.64,1.5-.43.43-.93.64-1.5.64h-4.7c-.2,0-.3.11-.3.34v2.56c0,.2.1.3.3.3h7.33c.58,0,1.08.21,1.5.64.43.43.64.93.64,1.5v1.17c0,.58-.21,1.08-.64,1.5s-.93.64-1.5.64h-7.33c-.2,0-.3.11-.3.34v2.93c0,.2.1.3.3.3h10.71c.58,0,1.08.21,1.5.64.43.43.64.93.64,1.5v1.35c0,.58-.21,1.08-.64,1.5-.43.43-.93.64-1.5.64h-29.18c-.58,0-1.08-.21-1.5-.64-.43-.43-.64-.93-.64-1.5v-1.35c0-.58.21-1.08.64-1.5.43-.43.93-.64,1.5-.64h10.68c.23,0,.34-.1.34-.3v-2.93c0-.23-.11-.34-.34-.34h-7.29c-.58,0-1.08-.21-1.5-.64-.43-.43-.64-.93-.64-1.5v-1.17c0-.58.21-1.08.64-1.5s.93-.64,1.5-.64h7.29c.23,0,.34-.1.34-.3v-2.56c0-.23-.11-.34-.34-.34h-4.47c-.58,0-1.08-.21-1.5-.64-.43-.43-.64-.93-.64-1.5v-.71c0-.08-.03-.13-.09-.17-.06-.04-.12-.03-.17.02-1.13.68-2.29,1.32-3.5,1.92-.5.25-1.03.27-1.58.06-.55-.21-.94-.58-1.17-1.11l-.71-1.73c-.25-.55-.28-1.11-.08-1.67s.56-.98,1.09-1.26c4.16-2.26,7.73-4.81,10.72-7.67,1.05-1,2.27-1.5,3.65-1.5h4.74c1.38,0,2.59.5,3.65,1.5,2.98,2.86,6.55,5.41,10.71,7.67ZM308,23.25h13.54c.15,0,.17-.05.07-.15-2.16-1.55-4.36-3.5-6.62-5.83-.15-.15-.3-.14-.45.04-2.08,2.16-4.29,4.09-6.62,5.79-.1.1-.08.15.07.15Z"/>
      <path d="M305.14,75.59c.53.28.89.69,1.09,1.24.2.55.18,1.09-.07,1.62-1,1.98-1.96,3.7-2.86,5.15-.33.5-.77.81-1.33.94-.56.12-1.1.04-1.6-.26l-1.65-1.01c-.5-.3-.81-.74-.94-1.32-.13-.58-.04-1.1.26-1.58,1.1-1.8,1.97-3.32,2.59-4.55.05-.12.11-.23.19-.3.02-.05.02-.09,0-.13-.03-.04-.05-.04-.08-.02-.48.13-.94.08-1.39-.15s-.76-.58-.94-1.05l-.75-2.03c-.2-.55-.19-1.1.04-1.65.23-.55.6-.96,1.13-1.24.28-.13.79-.43,1.54-.9.17-.1.2-.24.07-.41-.85-1.13-1.59-2.08-2.22-2.86-.35-.45-.49-.97-.41-1.56.08-.59.35-1.05.83-1.37l.9-.64c.18-.13.21-.29.11-.49l-1.2-2.33c-.28-.55-.35-1.12-.21-1.71.14-.59.46-1.07.96-1.45,1.65-1.3,3.12-2.66,4.4-4.06.95-1.08,2.12-1.48,3.5-1.2l1.62.34c.48.1.8.36.98.79.18.43.14.84-.11,1.24-.1.15-.06.23.11.23h4.81c.58,0,1.08.21,1.5.64.43.43.64.93.64,1.5v1.47c0,.23.11.34.34.34h.26c.23,0,.34-.11.34-.34v-3.91c0-.58.21-1.08.64-1.5.43-.43.93-.64,1.5-.64h3.53c.3,0,.56.11.77.32.21.21.32.47.32.77,0,.02.01.04.04.06.02.01.05,0,.08-.02l.26-.38c.38-.48.86-.78,1.47-.9s1.17-.04,1.69.26c.65.38,1.45.88,2.41,1.5.48.33.76.78.86,1.35.1.58-.03,1.1-.38,1.58l-1.2,1.62s-.02.07.02.13c.04.06.07.09.09.09.5,0,.93.18,1.28.53.35.35.53.78.53,1.28v1.69c0,.58-.21,1.08-.64,1.5-.43.43-.93.64-1.5.64h-3.65c-.07,0-.14.03-.19.09-.05.06-.06.13-.04.21.93,2.31,2.73,4.49,5.41,6.54.45.35.71.81.79,1.37.07.56-.08,1.06-.45,1.48l-1.35,1.47c-.43.48-.93.75-1.52.83-.59.07-1.13-.08-1.64-.45-2.16-1.7-3.97-3.87-5.45-6.5-.1-.15-.2-.15-.3,0-1.68,2.83-3.8,5.25-6.35,7.26-.5.38-1.05.52-1.64.43-.59-.09-1.08-.36-1.49-.81l-1.35-1.47c-.38-.43-.52-.92-.43-1.49.09-.56.36-1.02.81-1.37,3.08-2.28,5.11-4.71,6.09-7.29.02-.08.01-.14-.04-.21-.05-.06-.11-.09-.19-.09h-1.58c-.23,0-.38.09-.45.26-2.86,4.91-6.83,8.85-11.92,11.81,0,.05.02.09.08.11.35,0,.69.07,1.01.23l1.62.75ZM301.49,60.85c-.18.13-.2.26-.07.41,1.03,1.28,1.98,2.49,2.86,3.65.12.18.26.19.41.04.05-.05.14-.14.26-.26s.23-.21.3-.26c.13-.18.14-.34.04-.49-.3-.38-.75-.96-1.35-1.77-.6-.8-1.05-1.39-1.35-1.77-.15-.18-.29-.2-.41-.08-.3.25-.53.43-.68.53ZM306.95,57.73c-.18,0-.2.09-.07.26.2.25.47.6.81,1.05.34.45.57.76.7.94.05.05.11.07.19.06.07-.01.14-.04.19-.09.38-.63.71-1.27,1.01-1.92.1-.2.04-.3-.19-.3h-2.63ZM314.13,77.36c.15,1.1.36,2.82.64,5.15.05.58-.11,1.09-.49,1.54s-.85.7-1.43.75l-2.18.19c-.58.05-1.09-.11-1.54-.49s-.7-.85-.75-1.43c-.28-2.43-.49-4.16-.64-5.19-.07-.58.06-1.09.41-1.54.35-.45.81-.7,1.39-.75l2.18-.19c.6-.05,1.13.11,1.6.49.46.38.73.86.81,1.47ZM321.76,76.72c.5,1.78.95,3.47,1.35,5.08.15.55.07,1.08-.24,1.58-.31.5-.76.81-1.33.94l-2.07.41c-.58.13-1.11.03-1.6-.28-.49-.31-.81-.76-.96-1.34-.33-1.25-.78-2.94-1.35-5.08-.15-.58-.08-1.11.21-1.62.29-.5.71-.8,1.26-.9l2.07-.41c.6-.13,1.15-.03,1.65.28.5.31.84.76,1.02,1.33ZM328.98,75.55c1.08,1.88,1.98,3.52,2.71,4.93.28.53.32,1.07.13,1.64-.19.56-.55.97-1.07,1.22l-1.69.86c-.53.28-1.07.33-1.62.15-.55-.18-.95-.53-1.2-1.05-.9-1.78-1.79-3.42-2.67-4.93-.28-.5-.34-1.03-.19-1.6.15-.56.48-.97.98-1.22l1.69-.86c.53-.28,1.07-.33,1.64-.15.56.18,1,.51,1.3,1.01ZM324.35,54.84v1.65c0,.2.11.3.34.3h2.78s.09-.02.11-.07c.02-.05.01-.09-.04-.11-.95-.65-1.93-1.29-2.93-1.92-.05-.05-.11-.06-.17-.02-.06.04-.09.09-.09.17Z"/>
      <path d="M329.17,94.87c.58,0,1.08.21,1.5.64s.64.93.64,1.5v1.73c0,.58-.21,1.08-.64,1.5-.43.43-.93.64-1.5.64h-10.04c-.23,0-.31.1-.26.3.63,3.16,1.87,5.93,3.72,8.31,1.85,2.38,4.39,4.5,7.59,6.35.5.28.81.69.94,1.24.13.55.02,1.05-.3,1.5l-1.47,1.99c-.38.5-.86.83-1.45.98-.59.15-1.15.08-1.67-.23-2.26-1.33-4.34-3.05-6.24-5.17-1.91-2.12-3.5-4.47-4.77-7.05-.1-.15-.2-.15-.3,0-1.35,2.61-3.03,4.97-5.04,7.09-2.01,2.12-4.2,3.84-6.58,5.17-.55.3-1.12.37-1.69.21-.58-.16-1.05-.49-1.43-1l-1.47-1.99c-.33-.45-.43-.95-.3-1.5.12-.55.43-.96.9-1.24,3.21-1.85,5.75-3.97,7.61-6.35,1.87-2.38,3.11-5.15,3.74-8.31.05-.2-.04-.3-.26-.3h-10.04c-.58,0-1.08-.21-1.5-.64-.43-.43-.64-.93-.64-1.5v-1.73c0-.58.21-1.08.64-1.5.43-.43.93-.64,1.5-.64h10.49c.23,0,.34-.11.34-.34v-4.66c0-.58.21-1.08.64-1.5.43-.43.93-.64,1.5-.64h2.86c.58,0,1.08.21,1.5.64.43.43.64.93.64,1.5v4.66c0,.23.11.34.34.34h10.49Z"/>
      <path d="M329.99,153.48c.53.13.91.43,1.17.9.25.48.26.97.04,1.47l-.9,2.11c-.25.58-.65,1.01-1.2,1.3-.55.29-1.13.37-1.73.24-4.71-1.08-9.09-2.9-13.12-5.45-.15-.13-.33-.11-.53.04-2.41,1.9-6.13,3.63-11.17,5.19-.6.17-1.19.15-1.77-.08-.58-.23-1.02-.61-1.32-1.17l-.98-1.88c-.25-.5-.28-1-.07-1.5.2-.5.56-.84,1.09-1.01,4.16-1.33,7.12-2.58,8.87-3.76.17-.13.19-.26.04-.41-2.01-1.98-3.65-4.12-4.93-6.43-.28-.5-.31-1.03-.11-1.58.2-.55.58-.95,1.13-1.2l2.11-.9c.55-.25,1.11-.28,1.67-.08.56.2.98.56,1.26,1.09.83,1.5,1.7,2.81,2.63,3.91.02.03.06.04.09.06.04.01.08,0,.13-.02.05-.02.08-.06.08-.11.48-1.7.78-4.01.9-6.92,0-.2-.1-.3-.3-.3h-12.71c-.58,0-1.08-.21-1.5-.64-.43-.43-.64-.93-.64-1.5v-1.73c0-.58.21-1.08.64-1.5.43-.43.93-.64,1.5-.64h12.75c.23,0,.34-.11.34-.34v-3.16c0-.58.21-1.08.64-1.5s.93-.64,1.5-.64h2.86c.58,0,1.08.21,1.5.64.43.43.64.93.64,1.5v3.16c0,.23.11.34.34.34h8.23c.58,0,1.08.21,1.5.64s.64.93.64,1.5v1.73c0,.58-.21,1.08-.64,1.5s-.93.64-1.5.64h-8.38c-.2,0-.3.11-.3.34-.28,4.86-1.09,8.7-2.44,11.5-.1.2-.05.35.15.45,3.01,1.73,6.94,3.13,11.81,4.21Z"/>
      <path d="M329.17,177.21c.58,0,1.08.21,1.5.64s.64.93.64,1.5v1.17c0,.58-.21,1.08-.64,1.5-.43.43-.93.64-1.5.64h-8.72c-.08,0-.13.03-.17.09-.04.06-.04.12-.02.17,1.68,2.96,4.98,5.64,9.89,8.05.5.25.84.65,1.01,1.18.18.54.13,1.06-.15,1.56l-1.09,1.96c-.3.53-.73.88-1.3,1.05-.56.18-1.11.13-1.64-.15-5.36-2.83-9.29-6.3-11.77-10.41-.1-.15-.21-.14-.34.04-2.58,4.06-6.68,7.52-12.29,10.38-.55.28-1.11.33-1.67.15-.56-.18-1-.53-1.3-1.05l-1.09-1.96c-.28-.5-.33-1.02-.15-1.56.18-.54.51-.93,1.01-1.18,4.89-2.38,8.18-5.06,9.89-8.05.02-.05.02-.11-.02-.17-.04-.06-.09-.09-.17-.09h-8.72c-.58,0-1.08-.21-1.5-.64-.43-.43-.64-.93-.64-1.5v-1.17c0-.58.21-1.08.64-1.5.43-.43.93-.64,1.5-.64h10.34c.25,0,.38-.11.38-.34.08-.78.11-1.6.11-2.48v-1.02c0-.2-.11-.3-.34-.3h-8.99c-.58,0-1.08-.21-1.5-.64-.43-.43-.64-.93-.64-1.5v-1.54c0-.58.21-1.08.64-1.5.43-.43.93-.64,1.5-.64h8.99c.23,0,.34-.11.34-.34v-2.22c0-.58.21-1.08.64-1.5.43-.43.93-.64,1.5-.64h2.86c.58,0,1.08.21,1.5.64s.64.93.64,1.5v2.22c0,.23.11.34.34.34h8.99c.58,0,1.08.21,1.5.64.43.43.64.93.64,1.5v1.54c0,.58-.21,1.08-.64,1.5s-.93.64-1.5.64h-8.99c-.23,0-.34.1-.34.3v1.05c0,.85.04,1.67.11,2.44,0,.23.13.34.38.34h10.34Z"/>
      <path d="M325.89,229.02l.26,2.29c.08.6-.06,1.14-.41,1.62-.35.48-.83.75-1.43.83-1.15.15-2.33.23-3.53.23-4.61,0-8.3-1.18-11.07-3.55-2.77-2.37-4.15-5.57-4.15-9.61,0-1.88.5-3.76,1.5-5.64,1-1.88,2.37-3.48,4.1-4.81.02,0,.04-.02.04-.07,0-.02-.01-.04-.04-.04-3.58.1-7.16.18-10.72.23-.58,0-1.07-.21-1.48-.64s-.62-.93-.62-1.5v-2.11c0-.58.21-1.08.62-1.5.41-.43.91-.64,1.48-.64,9.7-.05,18.75-.26,27.15-.64.58-.02,1.08.16,1.52.56.44.4.67.89.7,1.47l.04,2.11c.02.6-.16,1.12-.56,1.56-.4.44-.9.68-1.5.73-4.81.48-8.43,1.62-10.87,3.42-2.43,1.8-3.65,4.06-3.65,6.77,0,2.28.73,4.07,2.18,5.38,1.45,1.3,3.36,1.96,5.71,1.96.78,0,1.55-.05,2.33-.15.6-.08,1.13.06,1.6.39.46.34.73.8.81,1.37ZM324.92,215.37c.28.5.69,1.28,1.24,2.33.25.53.28,1.07.08,1.62-.2.55-.56.95-1.09,1.2-.55.25-1.1.28-1.65.08-.55-.2-.97-.56-1.24-1.09-.13-.23-.53-.96-1.2-2.22-.28-.5-.33-1.03-.15-1.58.17-.55.53-.96,1.05-1.24h.04c.53-.28,1.08-.33,1.65-.15.58.18,1,.53,1.28,1.05ZM330.93,214.02c.83,1.58,1.25,2.39,1.28,2.44.28.53.32,1.07.13,1.62-.19.55-.55.95-1.07,1.2l-.11.08c-.53.25-1.07.28-1.64.09-.56-.19-.98-.55-1.26-1.07-.13-.25-.33-.64-.6-1.17-.28-.53-.49-.91-.64-1.17-.28-.5-.33-1.04-.17-1.62.16-.58.51-.99,1.03-1.24l.11-.04c.53-.28,1.08-.33,1.65-.17.58.16,1,.51,1.28,1.03Z"/>
      <path d="M329.17,241.5c.58,0,1.08.21,1.5.64.43.43.64.93.64,1.5v1.35c0,.58-.21,1.08-.64,1.5-.43.43-.93.64-1.5.64h-7.33c-.2,0-.3.11-.3.34v6.13c0,.13.05.31.15.56.78,1.6,1.17,3.27,1.17,5,0,3.68-1.04,6.49-3.12,8.4-2.08,1.92-5.54,3.18-10.38,3.78-.6.08-1.13-.07-1.6-.43-.46-.36-.76-.85-.88-1.45l-.38-1.8c-.1-.55.02-1.06.38-1.52.35-.46.81-.72,1.39-.77,1.9-.2,3.35-.41,4.34-.64.99-.23,1.69-.48,2.09-.75.4-.28.71-.65.94-1.13.02-.02.04-.06.04-.11s.01-.09.04-.11v-.07h-.08c-1.28.5-2.57.75-3.87.75-2.46,0-4.45-.69-5.98-2.07-1.53-1.38-2.29-3.2-2.29-5.45s.78-4.1,2.33-5.47c1.55-1.37,3.66-2.05,6.32-2.05.78,0,1.62.13,2.52.38h.08s.04-.01.04-.04v-1.13c0-.23-.11-.34-.34-.34h-14.06c-.58,0-1.08-.21-1.5-.64-.43-.43-.64-.93-.64-1.5v-1.35c0-.58.21-1.08.64-1.5s.93-.64,1.5-.64h14.06c.23,0,.34-.11.34-.34v-.9c0-.58.21-1.08.64-1.5.43-.43.93-.64,1.5-.64h2.48c.58,0,1.08.21,1.5.64.43.43.64.93.64,1.5v.9c0,.23.1.34.3.34h7.33ZM310.8,257.4c.49.43,1.12.64,1.9.64s1.41-.21,1.9-.64c.49-.43.73-.96.73-1.62s-.24-1.19-.73-1.62c-.49-.43-1.12-.64-1.9-.64s-1.41.21-1.9.64c-.49.43-.73.97-.73,1.62s.24,1.19.73,1.62Z"/>
      <path d="M317.13,279.09c.58,0,1.06.21,1.47.64.4.43.59.93.56,1.5l-.9,14.14c-.05.6-.29,1.11-.71,1.52-.43.41-.94.62-1.54.62h-2.48c-.6,0-1.12-.21-1.54-.62-.43-.41-.66-.92-.71-1.52l-.9-14.14c-.02-.58.16-1.08.56-1.5.4-.43.89-.64,1.47-.64h4.74ZM316.38,300.52c.58,0,1.08.21,1.5.64.43.43.64.93.64,1.5v1.73c0,.58-.21,1.08-.64,1.5-.43.43-.93.64-1.5.64h-3.23c-.58,0-1.08-.21-1.5-.64-.43-.43-.64-.93-.64-1.5v-1.73c0-.58.21-1.08.64-1.5.43-.43.93-.64,1.5-.64h3.23Z"/>
    </g>
    <ellipse class="cls-9" cx="161.53" cy="302.38" rx="72.74" ry="4.7"/>
    <ellipse class="cls-7" cx="230.64" cy="214.55" rx="5.24" ry="9.57"/>
    <path class="cls-8" d="M240.98,213.55c16.44-36.81-3.97-73.75-13.58-74.25l-30.62-.04c10.36,32.92,6.84,63.91,6.84,63.91l37.36,10.38Z"/>
    <path class="cls-8" d="M219.6,243.33c-.36,29.4-14.38,46.39-14.38,46.39h-83.84c-14.43-22.14-14.38-46.39-14.38-46.39h112.6Z"/>
    <polygon class="cls-8" points="230.64 244.69 95.44 244.69 119.02 124.49 204.44 124.49 230.64 244.69"/>
    <polygon class="cls-8" points="135.4 153.01 113.71 153.01 122.82 168.8 136.89 170.03 126.23 177.57 158.9 216.42 135.4 153.01"/>
    <polygon class="cls-8" points="188.21 153.01 209.9 153.01 200.79 168.8 186.72 170.03 197.38 177.57 164.71 216.42 188.21 153.01"/>
    <polygon class="cls-8" points="135.5 153.01 161.92 153.01 188.21 152.98 182.49 168.45 161.92 154.11 141.07 168.02 135.5 153.01"/>
    <polygon class="cls-3" points="151.71 160.92 154.87 171.51 169.42 171.51 172.13 160.92 161.92 154.11 151.71 160.92"/>
    <polygon class="cls-3" points="154.87 171.51 146.95 184.17 161.77 223.92 176.11 185.74 169.42 171.51 154.87 171.51"/>
    <path class="cls-8" d="M113.71,153.01s-37.1,52.12-28.03,58.54l21.32-25.82,6.71-32.72Z"/>
    <path class="cls-5" d="M188.58,149.89c5.96,30-16.65,74.03-16.65,74.03-20.19.65-31.04-33.99-31.04-33.99,19.71-.01,42.23-40.04,42.23-40.04h5.46Z"/>
    <ellipse class="cls-7" cx="166.84" cy="212.65" rx="11.26" ry="16.24" transform="translate(-54.59 367.64) rotate(-86.87)"/>
    <path class="cls-5" d="M144.02,152.15s4.01,54.37,27.07,71.77c0,0-72.71,6.96-84.42-5.85-11.71-12.81,29.91-38.13,49.64-65.92h7.71Z"/>
    <path class="cls-5" d="M140.71,148.32s-2.41,9.83-1.35,13.77"/>
    <path class="cls-5" d="M183.77,150.89s-.09,10.03-1.76,13.71"/>
    <path class="cls-5" d="M185.21,145.27s1.98,9.83,1.11,13.77"/>
    <line class="cls-6" x1="161.53" y1="289.29" x2="161.53" y2="258.84"/>
    <ellipse class="cls-10" cx="134.9" cy="293.01" rx="26.63" ry="12.41"/>
    <ellipse class="cls-10" cx="188.16" cy="293.01" rx="26.63" ry="12.41"/>
    <path class="cls-6" d="M131.07,177.14s-34.29,24.89-34.71,32.56"/>
    <path class="cls-6" d="M142.67,186.91s-.84,15.47,6.12,27.65"/>
    <rect class="cls-5" x="56.49" y="13.26" width="210.86" height="140.85"/>
    <circle class="cls-3" cx="163.04" cy="86.07" r="42.7"/>
    <path class="cls-11" d="M79.5,27.79c.21,2.58,3.64,8.53,5.12,14.05,1.76,6.59-2.69,12.34-6,12.34s-6.84-5.58-6-12.34c.4-3.24,2.46-6.09,3-8.73"/>
    <line class="cls-6" x1="232.39" y1="42.09" x2="238.74" y2="46.03"/>
    <line class="cls-6" x1="227.95" y1="44.92" x2="234.3" y2="48.86"/>
    <line class="cls-6" x1="226.68" y1="49.68" x2="230.6" y2="52.12"/>
    <line class="cls-6" x1="88.21" y1="111.58" x2="81.85" y2="115.5"/>
    <line class="cls-6" x1="87.27" y1="106.88" x2="80.9" y2="110.8"/>
    <rect class="cls-2" x="219.6" y="168.45" width="11.55" height="136.98" rx="5.77" ry="5.77" transform="translate(-31.82 34.99) rotate(-8.29)"/>
    <circle class="cls-1" cx="215.49" cy="169.1" r="7.19"/>
  </g>
</svg>