<?xml version="1.0" encoding="UTF-8"?>
<svg id="_レイヤー_1" data-name="レイヤー 1" xmlns="http://www.w3.org/2000/svg" viewBox="0 0 370 320">
  <defs>
    <style>
      .cls-1 {
        fill: #c79f62;
      }

      .cls-1, .cls-2, .cls-3, .cls-4, .cls-5, .cls-6, .cls-7, .cls-8, .cls-9, .cls-10, .cls-11 {
        stroke-linecap: round;
        stroke-linejoin: round;
      }

      .cls-1, .cls-2, .cls-4, .cls-5, .cls-6, .cls-7, .cls-8, .cls-9, .cls-10, .cls-11 {
        stroke: #000;
        stroke-width: 2px;
      }

      .cls-2 {
        fill: red;
      }

      .cls-3 {
        stroke: #fff;
        stroke-width: 5px;
      }

      .cls-3, .cls-4 {
        fill: #fff;
      }

      .cls-5 {
        fill: none;
      }

      .cls-6 {
        fill: #8c6239;
      }

      .cls-7 {
        fill: #f4db8e;
      }

      .cls-8 {
        fill: #1b1464;
      }

      .cls-9 {
        opacity: .3;
      }

      .cls-10 {
        fill: #40210f;
      }

      .cls-11 {
        fill: #009fe8;
      }
    </style>
  </defs>
  <g id="_ささやかではございますが_" data-name="ささやかではございますが…">
    <g>
      <path class="cls-3" d="M345.03,15.76c.45-.02.85.13,1.2.44.35.32.53.7.55,1.16l.03,1.36c.02.45-.13.86-.44,1.22-.32.36-.7.54-1.16.56-.49.02-1.22.04-2.19.07-.97.03-1.7.05-2.19.07-.16,0-.22.09-.18.27.47,1.66,1.22,3.39,2.25,5.19.22.4.26.8.12,1.2-.14.41-.4.7-.8.87l-2.1.92c-.93.4-1.94.37-3.02-.09-1.38-.59-2.82-.89-4.3-.89-1.07,0-1.88.21-2.43.62-.55.41-.83,1-.83,1.75,0,1.03.49,1.83,1.48,2.4.99.57,2.47.86,4.44.86,1.36,0,3.28-.2,5.75-.59.45-.08.87.01,1.26.28.39.27.62.63.7,1.08l.3,1.42c.1.46.01.87-.25,1.26-.27.39-.63.62-1.08.7-2.37.39-4.59.59-6.67.59-3.69,0-6.54-.74-8.55-2.21-2.01-1.47-3.01-3.5-3.01-6.09,0-2.07.75-3.73,2.25-4.96,1.5-1.23,3.62-1.85,6.34-1.85,1.11,0,2.27.15,3.5.44h.06v-.09c-.32-.77-.59-1.65-.83-2.64-.04-.18-.15-.27-.33-.27-4.82.12-8.42.18-10.79.18-.47,0-.87-.17-1.2-.5s-.49-.73-.49-1.19v-1.36c0-.45.16-.85.49-1.18s.72-.5,1.17-.5c2.96,0,6.34-.05,10.13-.15.16,0,.24-.09.24-.27l-.09-1.16c-.02-.47.12-.88.43-1.22.31-.34.7-.52,1.17-.56l1.96-.12c.45-.02.85.13,1.2.44.35.32.54.7.58,1.16.02.47.05.92.09,1.33,0,.14.09.21.27.21l4.98-.18Z"/>
      <path class="cls-3" d="M345.03,45.4c.45-.02.85.13,1.2.44.35.32.53.7.55,1.16l.03,1.36c.02.45-.13.86-.44,1.22-.32.36-.7.54-1.16.56-.49.02-1.22.04-2.19.07-.97.03-1.7.05-2.19.07-.16,0-.22.09-.18.27.47,1.66,1.22,3.39,2.25,5.19.22.4.26.8.12,1.2-.14.41-.4.7-.8.87l-2.1.92c-.93.4-1.94.37-3.02-.09-1.38-.59-2.82-.89-4.3-.89-1.07,0-1.88.21-2.43.62-.55.41-.83,1-.83,1.75,0,1.03.49,1.83,1.48,2.4.99.57,2.47.86,4.44.86,1.36,0,3.28-.2,5.75-.59.45-.08.87.01,1.26.28.39.27.62.63.7,1.08l.3,1.42c.1.46.01.87-.25,1.26-.27.39-.63.62-1.08.7-2.37.39-4.59.59-6.67.59-3.69,0-6.54-.74-8.55-2.21-2.01-1.47-3.01-3.5-3.01-6.09,0-2.07.75-3.73,2.25-4.96,1.5-1.23,3.62-1.85,6.34-1.85,1.11,0,2.27.15,3.5.44h.06v-.09c-.32-.77-.59-1.65-.83-2.64-.04-.18-.15-.27-.33-.27-4.82.12-8.42.18-10.79.18-.47,0-.87-.17-1.2-.5s-.49-.73-.49-1.19v-1.36c0-.45.16-.85.49-1.18s.72-.5,1.17-.5c2.96,0,6.34-.05,10.13-.15.16,0,.24-.09.24-.27l-.09-1.16c-.02-.47.12-.88.43-1.22.31-.34.7-.52,1.17-.56l1.96-.12c.45-.02.85.13,1.2.44.35.32.54.7.58,1.16.02.47.05.92.09,1.33,0,.14.09.21.27.21l4.98-.18Z"/>
      <path class="cls-3" d="M341.09,75.89c2.19,0,3.98.68,5.35,2.03s2.06,3.15,2.06,5.38c0,2.55-.75,4.54-2.25,5.99s-3.52,2.16-6.04,2.16c-.63,0-1.31-.03-2.05-.09-.47-.04-.85-.24-1.14-.61-.29-.37-.41-.79-.37-1.26l.15-1.66c.04-.45.24-.83.59-1.13.35-.3.76-.42,1.21-.39.24.02.57.03,1.01.03.95,0,1.73-.25,2.34-.76.61-.5.92-1.17.92-2,0-1.78-.89-2.67-2.67-2.67-.16,0-.22.08-.18.24.04.14.1.35.18.64.08.29.14.5.18.64.12.43.06.85-.16,1.26-.23.41-.57.68-1.02.81l-1.84.53c-.43.14-.85.09-1.26-.13s-.68-.57-.81-1.02c-.06-.2-.2-.63-.41-1.3-.04-.18-.15-.23-.33-.15-.02,0-.28.09-.79.27-.5.18-.89.32-1.17.41-.16.06-.22.18-.18.36,1.42,4.86,2.55,8.9,3.38,12.12.12.43.06.85-.18,1.26-.24.4-.58.66-1.04.76l-2.22.56c-.46.1-.88.03-1.27-.21-.39-.24-.65-.58-.77-1.04-1.11-4.31-2.15-8.13-3.14-11.47-.04-.18-.14-.23-.3-.15-.32.12-.81.31-1.48.58-.67.27-1.2.48-1.57.64-.43.18-.86.18-1.27,0-.41-.18-.71-.48-.89-.92l-.68-1.63c-.18-.43-.18-.86,0-1.29.18-.42.48-.73.92-.9,2.29-.91,3.47-1.37,3.53-1.39.14-.06.19-.17.15-.33-.12-.41-.31-1.02-.56-1.81-.26-.79-.46-1.39-.59-1.81-.14-.43-.1-.86.1-1.27.21-.41.54-.69.99-.83l2.13-.62c.45-.14.88-.1,1.29.1.4.21.68.53.81.96.24.73.59,1.85,1.07,3.35.04.14.14.19.3.15.63-.24,1.3-.47,2.01-.71.14-.04.19-.14.15-.3-.16-.49-.39-1.21-.71-2.16-.14-.43-.09-.85.13-1.26.23-.4.56-.67.99-.79l2.07-.59c.45-.12.88-.06,1.29.16.41.23.68.56.81.99.4,1.36.61,2.11.65,2.25.04.16.16.22.35.18.83-.12,1.57-.18,2.22-.18Z"/>
      <path class="cls-3" d="M332.5,106.65h2.43c.51,0,1.11.06,1.79.19.68.13,1.14.23,1.36.31.23.08.51.34.84.77.34.44.53.81.59,1.13.06.32.14.91.24,1.79.1.88.15,1.66.15,2.36v3.23c0,3.93-.48,6.74-1.44,8.43-.96,1.69-2.36,2.53-4.19,2.53-1.32,0-2.95-.24-4.89-.71-.45-.12-.8-.39-1.04-.8-.24-.41-.3-.85-.18-1.3l.36-1.48c.12-.43.37-.77.77-1.01.39-.24.82-.31,1.27-.21,1.26.32,2.1.47,2.52.47.79,0,1.19-2.27,1.19-6.82,0-2.05-.07-3.26-.22-3.62-.15-.36-.67-.53-1.56-.53h-2.05c-.18,0-.29.08-.33.24-1.07,4.78-2.46,9.6-4.18,14.46-.16.45-.45.79-.87.99-.42.21-.85.24-1.29.1l-1.39-.47c-.43-.14-.76-.41-.96-.81-.21-.4-.23-.83-.07-1.29,1.42-4.23,2.64-8.54,3.65-12.95.04-.18-.02-.27-.18-.27h-1.9c-.46,0-.85-.17-1.19-.5-.34-.34-.5-.73-.5-1.19v-1.36c0-.45.17-.85.5-1.19.34-.34.73-.5,1.19-.5h2.87c.16,0,.26-.08.3-.24.14-.69.36-1.94.65-3.73.08-.47.31-.86.68-1.17.38-.31.8-.44,1.27-.4l1.51.12c.45.04.83.23,1.13.58.3.35.41.74.35,1.17-.16,1.19-.34,2.33-.53,3.44-.04.16.03.24.21.24h1.13ZM345.21,106.47c1.24,3.67,2.4,7.55,3.47,11.62.12.43.06.85-.18,1.24-.24.4-.58.64-1.04.74l-1.9.47c-.45.1-.88.03-1.27-.21-.4-.24-.65-.58-.77-1.04-.95-3.62-2.11-7.47-3.5-11.56-.14-.43-.1-.85.12-1.24.22-.39.54-.64.98-.74l1.9-.47c.46-.12.89-.06,1.32.16s.72.57.87,1.02Z"/>
      <path class="cls-3" d="M343.34,153.41l.21,1.81c.06.47-.05.9-.33,1.27-.28.37-.65.59-1.13.65-.91.12-1.84.18-2.79.18-3.63,0-6.54-.93-8.73-2.8-2.18-1.87-3.28-4.39-3.28-7.57,0-1.48.39-2.96,1.19-4.44.79-1.48,1.87-2.75,3.23-3.79.02,0,.03-.02.03-.06,0-.02,0-.03-.03-.03-2.83.08-5.64.14-8.45.18-.45,0-.84-.17-1.17-.5-.33-.34-.49-.73-.49-1.19v-1.66c0-.45.16-.85.49-1.18.33-.34.72-.5,1.17-.5,7.65-.04,14.78-.21,21.39-.5.45-.02.85.13,1.2.44.35.32.53.7.55,1.16l.03,1.66c.02.47-.13.88-.44,1.23s-.71.54-1.19.58c-3.79.38-6.65,1.27-8.56,2.7-1.92,1.42-2.87,3.2-2.87,5.33,0,1.8.57,3.21,1.72,4.24,1.15,1.03,2.65,1.54,4.5,1.54.61,0,1.23-.04,1.84-.12.47-.06.89.04,1.26.31.36.27.58.63.64,1.08ZM342.57,142.65c.22.4.54,1.01.98,1.84.2.42.22.84.06,1.27-.16.43-.44.75-.86.95-.43.2-.87.22-1.3.06-.43-.16-.76-.44-.98-.86-.1-.18-.42-.76-.95-1.75-.22-.39-.26-.81-.12-1.24.14-.43.42-.76.83-.98h.03c.41-.22.85-.26,1.3-.12.45.14.79.42,1.01.83ZM347.32,141.58c.65,1.24.99,1.89,1.01,1.93.22.41.25.84.1,1.27-.15.43-.43.75-.85.95l-.09.06c-.42.2-.85.22-1.29.07-.44-.15-.78-.43-.99-.84-.1-.2-.26-.5-.47-.92-.22-.41-.39-.72-.5-.92-.22-.39-.26-.82-.13-1.27.13-.45.4-.78.81-.98l.09-.03c.42-.22.85-.26,1.3-.13.45.13.79.4,1.01.81Z"/>
      <path class="cls-3" d="M326.9,162.17c.43.04.78.25,1.04.62s.34.78.24,1.21c-.67,3.12-1.01,6.52-1.01,10.19s.34,7.07,1.01,10.19c.1.45.02.86-.24,1.23-.26.37-.6.57-1.04.61l-1.93.24c-.47.06-.91-.05-1.3-.33-.39-.28-.64-.65-.74-1.13-.73-3.4-1.1-7-1.1-10.82s.37-7.42,1.1-10.82c.1-.47.35-.85.74-1.13s.83-.39,1.3-.33l1.93.24ZM345.92,165.61c.45,0,.85.17,1.19.5.34.34.5.73.5,1.19v1.36c0,.45-.17.85-.5,1.18s-.73.5-1.19.5h-2.49c-.18,0-.27.09-.27.27v6.55c0,.14.07.28.21.41.75.69,1.88,1.82,3.38,3.38.34.34.5.74.49,1.22-.01.47-.18.88-.52,1.22l-1.04,1.04c-.34.32-.73.47-1.19.46s-.84-.18-1.16-.52c-.16-.16-.38-.39-.65-.71-.12-.12-.22-.1-.3.06-1.11,1.96-3.12,2.93-6.05,2.93-2.33,0-4.15-.55-5.45-1.64-1.3-1.1-1.96-2.62-1.96-4.58s.64-3.43,1.93-4.55c1.28-1.12,3.11-1.67,5.48-1.67.43,0,.84.03,1.22.09.18.04.27-.03.27-.21v-3.47c0-.18-.08-.27-.24-.27h-5.78c-.45,0-.85-.17-1.19-.5-.34-.34-.5-.73-.5-1.18v-1.36c0-.45.17-.85.5-1.19.34-.34.73-.5,1.19-.5h5.78c.16,0,.24-.09.24-.27v-2.19c0-.45.17-.85.5-1.19s.73-.5,1.19-.5h1.96c.45,0,.85.17,1.19.5.34.34.5.73.5,1.19v2.19c0,.18.09.27.27.27h2.49ZM337.83,180.13v-.47c0-.2-.08-.33-.24-.39-.45-.22-.97-.33-1.54-.33-1.38,0-2.07.49-2.07,1.48s.69,1.48,2.07,1.48c.63,0,1.09-.14,1.36-.42.28-.28.42-.73.42-1.36Z"/>
      <path class="cls-3" d="M308.05,122.53l.39,1.72c.1.45.02.88-.24,1.29-.26.4-.61.66-1.07.76-3.44.73-6.55,1.1-9.33,1.1-3.63,0-6.47-.62-8.5-1.87-2.04-1.24-3.05-2.89-3.05-4.95,0-1.05.28-2.1.83-3.16.55-1.06,1.51-2.29,2.87-3.69.34-.34.75-.52,1.23-.55.48-.03.92.09,1.32.37l1.42,1.01c.36.26.55.6.58,1.04.03.43-.1.81-.4,1.13-1.38,1.46-2.07,2.55-2.07,3.26s.48,1.28,1.44,1.72c.96.44,2.4.65,4.34.65,2.35,0,5.12-.36,8.3-1.07.45-.1.87-.02,1.26.22.39.25.62.59.7,1.02ZM306.98,106.29c0,.45-.17.85-.5,1.18s-.73.5-1.19.5h-14.7c-.46,0-.85-.17-1.19-.5-.34-.34-.5-.73-.5-1.18v-1.51c0-.45.17-.85.5-1.18.34-.34.73-.5,1.19-.5h14.7c.45,0,.85.17,1.19.5.34.34.5.73.5,1.18v1.51ZM302.59,110.53c.41-.22.85-.26,1.3-.12.46.14.79.41,1.01.83.22.4.54,1.01.98,1.84.2.41.22.84.06,1.27-.16.43-.44.75-.86.95-.43.2-.87.22-1.3.06-.43-.16-.76-.44-.98-.86-.1-.18-.42-.76-.95-1.75-.22-.39-.26-.81-.12-1.24s.42-.76.83-.98h.03ZM309.65,110.17c.65,1.24.99,1.89,1.01,1.93.22.41.25.84.1,1.27-.15.43-.43.75-.85.95l-.09.06c-.42.2-.85.22-1.29.07-.44-.15-.78-.43-.99-.84-.1-.2-.26-.5-.47-.92-.22-.41-.39-.72-.5-.92-.22-.39-.26-.82-.13-1.27.13-.45.4-.78.81-.98l.09-.03c.42-.22.85-.26,1.3-.13.45.13.79.4,1.01.81Z"/>
      <path class="cls-3" d="M308.1,134.91c.45-.02.85.13,1.2.44.35.32.53.7.55,1.16l.03,1.36c.02.45-.13.86-.44,1.22-.32.36-.7.54-1.16.56-.04,0-1.78.06-5.22.18-.16,0-.22.09-.18.27.46,1.52,1.19,3.16,2.19,4.92.22.4.26.79.12,1.2s-.4.7-.8.87l-2.1.92c-.93.4-1.94.37-3.02-.09-1.38-.59-2.82-.89-4.3-.89-.81,0-1.46.22-1.94.65-.49.44-.73,1.01-.73,1.72,0,1.03.49,1.83,1.48,2.4.99.57,2.47.86,4.44.86,1.36,0,3.28-.2,5.75-.59.45-.08.87.02,1.26.28.39.27.62.63.7,1.08l.3,1.42c.1.45.01.87-.25,1.26s-.63.62-1.08.7c-2.37.39-4.59.59-6.67.59-3.69,0-6.54-.74-8.55-2.21s-3.01-3.5-3.01-6.09c0-2.05.72-3.7,2.16-4.95,1.44-1.24,3.39-1.87,5.84-1.87,1.11,0,2.27.15,3.5.44h.06v-.09c-.34-.83-.59-1.62-.77-2.37-.04-.18-.14-.27-.3-.27-3.71.1-7.04.15-9.99.15-.47,0-.87-.17-1.2-.5s-.49-.73-.49-1.19v-1.36c0-.45.16-.85.49-1.18s.72-.5,1.17-.5c2.05,0,5.16-.04,9.3-.12.12,0,.18-.09.18-.27-.02-.45-.05-.93-.09-1.42-.02-.47.12-.88.43-1.22.31-.34.7-.52,1.17-.56l1.96-.12c.45-.02.85.13,1.2.44s.54.7.58,1.16c.02.36.05.87.09,1.54,0,.18.09.27.27.27.24,0,.6,0,1.08-.03.48-.02.85-.03,1.08-.03.06,0,.1-.03.13-.09.03-.06.02-.11-.02-.15-.06-.12-.18-.35-.35-.7s-.32-.61-.42-.79c-.2-.38-.23-.77-.1-1.17.13-.4.38-.71.76-.9.39-.2.79-.23,1.2-.09.4.14.72.41.93.8.1.18.24.44.42.79.18.35.32.61.42.79.18.38.21.75.09,1.13-.04.16,0,.24.12.24h.53ZM311.07,131.53c.1.2.24.48.43.86.19.38.32.64.4.8.2.4.23.79.09,1.19s-.4.69-.8.89-.8.23-1.2.09c-.4-.14-.72-.4-.93-.8-.18-.36-.46-.89-.86-1.6-.2-.39-.23-.79-.1-1.2.13-.4.39-.71.79-.9.39-.2.81-.23,1.24-.09.43.14.75.4.95.77Z"/>
      <path class="cls-3" d="M300.67,176.66c.43.16.75.45.95.87s.21.85.03,1.29c-1.05,2.51-2.33,4.45-3.84,5.84-1.51,1.38-3,2.07-4.46,2.07-1.82,0-3.51-1.18-5.07-3.53-1.56-2.35-2.34-5.22-2.34-8.62,0-3.04.39-6.05,1.16-9.04.12-.47.38-.85.78-1.13.41-.28.85-.39,1.35-.33l2.16.24c.43.04.78.24,1.02.61.25.37.32.77.22,1.2-.71,3-1.07,5.82-1.07,8.45,0,.93.07,1.81.22,2.65.15.84.34,1.53.58,2.07.24.54.48.98.73,1.3.25.33.48.49.7.49.32,0,.75-.35,1.3-1.05s1.14-1.72,1.75-3.07c.2-.41.51-.71.93-.89.42-.18.85-.19,1.29-.03l1.6.59ZM305.2,164.1c.47-.14.93-.11,1.36.09.43.2.74.51.92.95,2.03,4.94,3.14,10.49,3.32,16.65.02.45-.14.85-.47,1.19-.34.34-.73.5-1.19.5h-2.25c-.45,0-.85-.16-1.19-.49-.34-.33-.51-.72-.53-1.17-.18-5.31-1.15-10.36-2.9-15.14-.16-.43-.14-.85.06-1.26.2-.4.51-.67.95-.79l1.93-.53Z"/>
      <path class="cls-3" d="M308.25,193.17c.45,0,.85.17,1.19.5.34.34.5.73.5,1.19v1.36c0,.45-.17.85-.5,1.18s-.73.5-1.19.5h-5.16c-.18,0-.27.09-.27.27v.68c0,.16.09.24.27.24h3.97c.45,0,.85.17,1.19.5.34.34.5.73.5,1.19v1.22c0,.45-.17.85-.5,1.18s-.73.5-1.19.5h-3.97c-.18,0-.27.09-.27.27v3.08c0,.18.08.32.24.41,1.64,1.03,3.32,2.31,5.04,3.85.34.32.52.71.55,1.17.03.46-.11.86-.43,1.2l-1.01,1.07c-.32.34-.7.52-1.16.55-.46.03-.85-.11-1.19-.43-.75-.69-1.51-1.34-2.28-1.96-.12-.12-.23-.09-.33.09-.47,1.26-1.31,2.18-2.52,2.74s-2.84.84-4.92.84c-2.23,0-3.98-.52-5.23-1.56-1.26-1.04-1.88-2.49-1.88-4.37s.61-3.23,1.84-4.25c1.22-1.02,2.98-1.53,5.27-1.53.87,0,1.68.07,2.43.21.16.04.24-.03.24-.21v-.92c0-.18-.08-.27-.24-.27h-8.15c-.46,0-.85-.17-1.19-.5-.34-.34-.5-.73-.5-1.18v-1.22c0-.45.17-.85.5-1.19s.73-.5,1.19-.5h8.15c.16,0,.24-.08.24-.24v-.68c0-.18-.08-.27-.24-.27h-9.33c-.45,0-.85-.17-1.19-.5-.34-.34-.5-.73-.5-1.18v-1.36c0-.45.17-.85.5-1.19.34-.34.73-.5,1.19-.5h9.33c.16,0,.24-.09.24-.27v-.41c0-.45.17-.85.5-1.19.34-.34.73-.5,1.18-.5h1.96c.45,0,.85.17,1.18.5.34.34.5.73.5,1.19v.41c0,.18.09.27.27.27h5.16ZM294.83,211.84c1.01,0,1.68-.11,2.03-.33.35-.22.55-.69.61-1.42,0-.18-.06-.28-.18-.3-.71-.22-1.33-.33-1.87-.33-1.58,0-2.37.4-2.37,1.18s.59,1.19,1.78,1.19Z"/>
      <path class="cls-3" d="M309.44,222.51c.45,0,.85.17,1.19.5.34.34.5.73.5,1.19v1.07c0,.45-.17.85-.5,1.18s-.73.5-1.19.5h-5.78c-.16,0-.24.09-.24.27v4.83c0,.1.04.25.12.44.61,1.26.92,2.58.92,3.94,0,2.9-.82,5.11-2.46,6.62-1.64,1.51-4.37,2.5-8.18,2.98-.47.06-.89-.05-1.26-.34-.37-.29-.6-.67-.7-1.14l-.3-1.42c-.08-.43.02-.83.3-1.2.28-.37.64-.57,1.1-.61,1.5-.16,2.64-.33,3.42-.5.78-.18,1.33-.37,1.64-.59.32-.22.56-.51.74-.89.02-.02.03-.05.03-.09s0-.07.03-.09v-.06h-.06c-1.01.4-2.03.59-3.05.59-1.94,0-3.51-.54-4.71-1.63-1.2-1.09-1.81-2.52-1.81-4.3s.61-3.23,1.84-4.31c1.22-1.08,2.88-1.61,4.98-1.61.61,0,1.27.1,1.99.3h.06s.03,0,.03-.03v-.89c0-.18-.09-.27-.27-.27h-11.08c-.45,0-.85-.17-1.19-.5s-.5-.73-.5-1.18v-1.07c0-.45.17-.85.5-1.19.34-.34.73-.5,1.19-.5h11.08c.18,0,.27-.09.27-.27v-.71c0-.45.17-.85.5-1.19.34-.34.73-.5,1.19-.5h1.96c.45,0,.85.17,1.19.5.34.34.5.73.5,1.19v.71c0,.18.08.27.24.27h5.78ZM294.96,235.04c.39.34.88.5,1.5.5s1.11-.17,1.5-.5c.39-.34.58-.76.58-1.27s-.19-.94-.58-1.27c-.39-.34-.88-.5-1.5-.5s-1.11.17-1.5.5c-.39.34-.58.76-.58,1.27s.19.94.58,1.27Z"/>
      <path class="cls-3" d="M296.31,254.81h2.43c.51,0,1.11.06,1.79.19.68.13,1.14.23,1.36.31.23.08.51.34.84.77.34.44.53.81.59,1.13.06.32.14.91.24,1.79.1.88.15,1.66.15,2.36v3.23c0,3.93-.48,6.74-1.44,8.43-.96,1.69-2.36,2.53-4.19,2.53-1.32,0-2.95-.24-4.89-.71-.45-.12-.8-.39-1.04-.8-.24-.41-.3-.85-.18-1.3l.35-1.48c.12-.43.38-.77.77-1.01.39-.24.82-.31,1.27-.21,1.26.32,2.1.47,2.52.47.79,0,1.19-2.27,1.19-6.82,0-2.05-.07-3.26-.22-3.62-.15-.36-.67-.53-1.55-.53h-2.34c-.18,0-.29.08-.33.24-1.07,4.78-2.46,9.6-4.18,14.46-.16.45-.45.79-.87.99-.42.21-.85.24-1.29.1l-1.39-.47c-.43-.14-.76-.41-.96-.81-.21-.4-.23-.83-.07-1.29,1.42-4.23,2.64-8.54,3.65-12.95.04-.18-.02-.27-.18-.27h-1.6c-.45,0-.85-.17-1.19-.5-.34-.34-.5-.73-.5-1.19v-1.36c0-.45.17-.85.5-1.19.34-.34.73-.5,1.19-.5h2.58c.16,0,.26-.08.3-.24.14-.69.36-1.94.65-3.73.08-.47.31-.86.68-1.17.38-.31.8-.44,1.27-.4l1.51.12c.45.04.83.23,1.13.58.3.35.41.74.35,1.17-.16,1.19-.34,2.33-.53,3.44-.04.16.03.24.21.24h1.42ZM305.97,256.65c-.44.2-.87.22-1.3.06-.43-.16-.76-.44-.98-.86-.1-.18-.41-.76-.95-1.75-.22-.39-.26-.81-.12-1.24s.42-.76.83-.98h.03c.41-.22.85-.26,1.3-.12.45.14.79.41,1.01.83.22.4.54,1.01.98,1.84.2.41.22.84.06,1.27-.16.43-.44.75-.86.95ZM310.15,259.4c.69,2.33,1.38,4.9,2.07,7.7.1.43.03.85-.21,1.24-.24.4-.58.64-1.04.74l-1.93.41c-.46.1-.87.02-1.26-.22-.39-.25-.64-.61-.76-1.08-.67-2.73-1.33-5.19-1.99-7.38-.14-.43-.09-.85.13-1.26.23-.4.57-.68,1.02-.81l1.84-.5c.43-.14.86-.09,1.27.13.41.23.69.57.83,1.02ZM308.22,250.84c.42-.22.85-.26,1.3-.13.45.13.79.4,1.01.81.65,1.24.99,1.89,1.01,1.93.22.42.25.84.1,1.27-.15.43-.43.75-.85.95l-.09.06c-.42.2-.84.22-1.29.07-.45-.15-.78-.43-.99-.84-.1-.2-.26-.5-.47-.92-.22-.41-.39-.72-.5-.92-.22-.39-.26-.82-.13-1.27.13-.45.4-.78.81-.98l.09-.03Z"/>
      <path class="cls-3" d="M301.39,282.87c0,1.48-1.19,2.67-2.67,2.67s-2.67-1.19-2.67-2.67,1.19-2.67,2.67-2.67,2.67,1.24,2.67,2.67ZM301.39,292.73c0,1.48-1.19,2.67-2.67,2.67s-2.67-1.18-2.67-2.67,1.19-2.67,2.67-2.67,2.67,1.24,2.67,2.67ZM301.39,302.6c0,1.48-1.19,2.67-2.67,2.67s-2.67-1.18-2.67-2.67,1.19-2.67,2.67-2.67,2.67,1.24,2.67,2.67Z"/>
    </g>
    <g>
      <path d="M345.03,15.76c.45-.02.85.13,1.2.44.35.32.53.7.55,1.16l.03,1.36c.02.45-.13.86-.44,1.22-.32.36-.7.54-1.16.56-.49.02-1.22.04-2.19.07-.97.03-1.7.05-2.19.07-.16,0-.22.09-.18.27.47,1.66,1.22,3.39,2.25,5.19.22.4.26.8.12,1.2-.14.41-.4.7-.8.87l-2.1.92c-.93.4-1.94.37-3.02-.09-1.38-.59-2.82-.89-4.3-.89-1.07,0-1.88.21-2.43.62-.55.41-.83,1-.83,1.75,0,1.03.49,1.83,1.48,2.4.99.57,2.47.86,4.44.86,1.36,0,3.28-.2,5.75-.59.45-.08.87.01,1.26.28.39.27.62.63.7,1.08l.3,1.42c.1.46.01.87-.25,1.26-.27.39-.63.62-1.08.7-2.37.39-4.59.59-6.67.59-3.69,0-6.54-.74-8.55-2.21-2.01-1.47-3.01-3.5-3.01-6.09,0-2.07.75-3.73,2.25-4.96,1.5-1.23,3.62-1.85,6.34-1.85,1.11,0,2.27.15,3.5.44h.06v-.09c-.32-.77-.59-1.65-.83-2.64-.04-.18-.15-.27-.33-.27-4.82.12-8.42.18-10.79.18-.47,0-.87-.17-1.2-.5s-.49-.73-.49-1.19v-1.36c0-.45.16-.85.49-1.18s.72-.5,1.17-.5c2.96,0,6.34-.05,10.13-.15.16,0,.24-.09.24-.27l-.09-1.16c-.02-.47.12-.88.43-1.22.31-.34.7-.52,1.17-.56l1.96-.12c.45-.02.85.13,1.2.44.35.32.54.7.58,1.16.02.47.05.92.09,1.33,0,.14.09.21.27.21l4.98-.18Z"/>
      <path d="M345.03,45.4c.45-.02.85.13,1.2.44.35.32.53.7.55,1.16l.03,1.36c.02.45-.13.86-.44,1.22-.32.36-.7.54-1.16.56-.49.02-1.22.04-2.19.07-.97.03-1.7.05-2.19.07-.16,0-.22.09-.18.27.47,1.66,1.22,3.39,2.25,5.19.22.4.26.8.12,1.2-.14.41-.4.7-.8.87l-2.1.92c-.93.4-1.94.37-3.02-.09-1.38-.59-2.82-.89-4.3-.89-1.07,0-1.88.21-2.43.62-.55.41-.83,1-.83,1.75,0,1.03.49,1.83,1.48,2.4.99.57,2.47.86,4.44.86,1.36,0,3.28-.2,5.75-.59.45-.08.87.01,1.26.28.39.27.62.63.7,1.08l.3,1.42c.1.46.01.87-.25,1.26-.27.39-.63.62-1.08.7-2.37.39-4.59.59-6.67.59-3.69,0-6.54-.74-8.55-2.21-2.01-1.47-3.01-3.5-3.01-6.09,0-2.07.75-3.73,2.25-4.96,1.5-1.23,3.62-1.85,6.34-1.85,1.11,0,2.27.15,3.5.44h.06v-.09c-.32-.77-.59-1.65-.83-2.64-.04-.18-.15-.27-.33-.27-4.82.12-8.42.18-10.79.18-.47,0-.87-.17-1.2-.5s-.49-.73-.49-1.19v-1.36c0-.45.16-.85.49-1.18s.72-.5,1.17-.5c2.96,0,6.34-.05,10.13-.15.16,0,.24-.09.24-.27l-.09-1.16c-.02-.47.12-.88.43-1.22.31-.34.7-.52,1.17-.56l1.96-.12c.45-.02.85.13,1.2.44.35.32.54.7.58,1.16.02.47.05.92.09,1.33,0,.14.09.21.27.21l4.98-.18Z"/>
      <path d="M341.09,75.89c2.19,0,3.98.68,5.35,2.03s2.06,3.15,2.06,5.38c0,2.55-.75,4.54-2.25,5.99s-3.52,2.16-6.04,2.16c-.63,0-1.31-.03-2.05-.09-.47-.04-.85-.24-1.14-.61-.29-.37-.41-.79-.37-1.26l.15-1.66c.04-.45.24-.83.59-1.13.35-.3.76-.42,1.21-.39.24.02.57.03,1.01.03.95,0,1.73-.25,2.34-.76.61-.5.92-1.17.92-2,0-1.78-.89-2.67-2.67-2.67-.16,0-.22.08-.18.24.04.14.1.35.18.64.08.29.14.5.18.64.12.43.06.85-.16,1.26-.23.41-.57.68-1.02.81l-1.84.53c-.43.14-.85.09-1.26-.13s-.68-.57-.81-1.02c-.06-.2-.2-.63-.41-1.3-.04-.18-.15-.23-.33-.15-.02,0-.28.09-.79.27-.5.18-.89.32-1.17.41-.16.06-.22.18-.18.36,1.42,4.86,2.55,8.9,3.38,12.12.12.43.06.85-.18,1.26-.24.4-.58.66-1.04.76l-2.22.56c-.46.1-.88.03-1.27-.21-.39-.24-.65-.58-.77-1.04-1.11-4.31-2.15-8.13-3.14-11.47-.04-.18-.14-.23-.3-.15-.32.12-.81.31-1.48.58-.67.27-1.2.48-1.57.64-.43.18-.86.18-1.27,0-.41-.18-.71-.48-.89-.92l-.68-1.63c-.18-.43-.18-.86,0-1.29.18-.42.48-.73.92-.9,2.29-.91,3.47-1.37,3.53-1.39.14-.06.19-.17.15-.33-.12-.41-.31-1.02-.56-1.81-.26-.79-.46-1.39-.59-1.81-.14-.43-.1-.86.1-1.27.21-.41.54-.69.99-.83l2.13-.62c.45-.14.88-.1,1.29.1.4.21.68.53.81.96.24.73.59,1.85,1.07,3.35.04.14.14.19.3.15.63-.24,1.3-.47,2.01-.71.14-.04.19-.14.15-.3-.16-.49-.39-1.21-.71-2.16-.14-.43-.09-.85.13-1.26.23-.4.56-.67.99-.79l2.07-.59c.45-.12.88-.06,1.29.16.41.23.68.56.81.99.4,1.36.61,2.11.65,2.25.04.16.16.22.35.18.83-.12,1.57-.18,2.22-.18Z"/>
      <path d="M332.5,106.65h2.43c.51,0,1.11.06,1.79.19.68.13,1.14.23,1.36.31.23.08.51.34.84.77.34.44.53.81.59,1.13.06.32.14.91.24,1.79.1.88.15,1.66.15,2.36v3.23c0,3.93-.48,6.74-1.44,8.43-.96,1.69-2.36,2.53-4.19,2.53-1.32,0-2.95-.24-4.89-.71-.45-.12-.8-.39-1.04-.8-.24-.41-.3-.85-.18-1.3l.36-1.48c.12-.43.37-.77.77-1.01.39-.24.82-.31,1.27-.21,1.26.32,2.1.47,2.52.47.79,0,1.19-2.27,1.19-6.82,0-2.05-.07-3.26-.22-3.62-.15-.36-.67-.53-1.56-.53h-2.05c-.18,0-.29.08-.33.24-1.07,4.78-2.46,9.6-4.18,14.46-.16.45-.45.79-.87.99-.42.21-.85.24-1.29.1l-1.39-.47c-.43-.14-.76-.41-.96-.81-.21-.4-.23-.83-.07-1.29,1.42-4.23,2.64-8.54,3.65-12.95.04-.18-.02-.27-.18-.27h-1.9c-.46,0-.85-.17-1.19-.5-.34-.34-.5-.73-.5-1.19v-1.36c0-.45.17-.85.5-1.19.34-.34.73-.5,1.19-.5h2.87c.16,0,.26-.08.3-.24.14-.69.36-1.94.65-3.73.08-.47.31-.86.68-1.17.38-.31.8-.44,1.27-.4l1.51.12c.45.04.83.23,1.13.58.3.35.41.74.35,1.17-.16,1.19-.34,2.33-.53,3.44-.04.16.03.24.21.24h1.13ZM345.21,106.47c1.24,3.67,2.4,7.55,3.47,11.62.12.43.06.85-.18,1.24-.24.4-.58.64-1.04.74l-1.9.47c-.45.1-.88.03-1.27-.21-.4-.24-.65-.58-.77-1.04-.95-3.62-2.11-7.47-3.5-11.56-.14-.43-.1-.85.12-1.24.22-.39.54-.64.98-.74l1.9-.47c.46-.12.89-.06,1.32.16s.72.57.87,1.02Z"/>
      <path d="M343.34,153.41l.21,1.81c.06.47-.05.9-.33,1.27-.28.37-.65.59-1.13.65-.91.12-1.84.18-2.79.18-3.63,0-6.54-.93-8.73-2.8-2.18-1.87-3.28-4.39-3.28-7.57,0-1.48.39-2.96,1.19-4.44.79-1.48,1.87-2.75,3.23-3.79.02,0,.03-.02.03-.06,0-.02,0-.03-.03-.03-2.83.08-5.64.14-8.45.18-.45,0-.84-.17-1.17-.5-.33-.34-.49-.73-.49-1.19v-1.66c0-.45.16-.85.49-1.18.33-.34.72-.5,1.17-.5,7.65-.04,14.78-.21,21.39-.5.45-.02.85.13,1.2.44.35.32.53.7.55,1.16l.03,1.66c.02.47-.13.88-.44,1.23s-.71.54-1.19.58c-3.79.38-6.65,1.27-8.56,2.7-1.92,1.42-2.87,3.2-2.87,5.33,0,1.8.57,3.21,1.72,4.24,1.15,1.03,2.65,1.54,4.5,1.54.61,0,1.23-.04,1.84-.12.47-.06.89.04,1.26.31.36.27.58.63.64,1.08ZM342.57,142.65c.22.4.54,1.01.98,1.84.2.42.22.84.06,1.27-.16.43-.44.75-.86.95-.43.2-.87.22-1.3.06-.43-.16-.76-.44-.98-.86-.1-.18-.42-.76-.95-1.75-.22-.39-.26-.81-.12-1.24.14-.43.42-.76.83-.98h.03c.41-.22.85-.26,1.3-.12.45.14.79.42,1.01.83ZM347.32,141.58c.65,1.24.99,1.89,1.01,1.93.22.41.25.84.1,1.27-.15.43-.43.75-.85.95l-.09.06c-.42.2-.85.22-1.29.07-.44-.15-.78-.43-.99-.84-.1-.2-.26-.5-.47-.92-.22-.41-.39-.72-.5-.92-.22-.39-.26-.82-.13-1.27.13-.45.4-.78.81-.98l.09-.03c.42-.22.85-.26,1.3-.13.45.13.79.4,1.01.81Z"/>
      <path d="M326.9,162.17c.43.04.78.25,1.04.62s.34.78.24,1.21c-.67,3.12-1.01,6.52-1.01,10.19s.34,7.07,1.01,10.19c.1.45.02.86-.24,1.23-.26.37-.6.57-1.04.61l-1.93.24c-.47.06-.91-.05-1.3-.33-.39-.28-.64-.65-.74-1.13-.73-3.4-1.1-7-1.1-10.82s.37-7.42,1.1-10.82c.1-.47.35-.85.74-1.13s.83-.39,1.3-.33l1.93.24ZM345.92,165.61c.45,0,.85.17,1.19.5.34.34.5.73.5,1.19v1.36c0,.45-.17.85-.5,1.18s-.73.5-1.19.5h-2.49c-.18,0-.27.09-.27.27v6.55c0,.14.07.28.21.41.75.69,1.88,1.82,3.38,3.38.34.34.5.74.49,1.22-.01.47-.18.88-.52,1.22l-1.04,1.04c-.34.32-.73.47-1.19.46s-.84-.18-1.16-.52c-.16-.16-.38-.39-.65-.71-.12-.12-.22-.1-.3.06-1.11,1.96-3.12,2.93-6.05,2.93-2.33,0-4.15-.55-5.45-1.64-1.3-1.1-1.96-2.62-1.96-4.58s.64-3.43,1.93-4.55c1.28-1.12,3.11-1.67,5.48-1.67.43,0,.84.03,1.22.09.18.04.27-.03.27-.21v-3.47c0-.18-.08-.27-.24-.27h-5.78c-.45,0-.85-.17-1.19-.5-.34-.34-.5-.73-.5-1.18v-1.36c0-.45.17-.85.5-1.19.34-.34.73-.5,1.19-.5h5.78c.16,0,.24-.09.24-.27v-2.19c0-.45.17-.85.5-1.19s.73-.5,1.19-.5h1.96c.45,0,.85.17,1.19.5.34.34.5.73.5,1.19v2.19c0,.18.09.27.27.27h2.49ZM337.83,180.13v-.47c0-.2-.08-.33-.24-.39-.45-.22-.97-.33-1.54-.33-1.38,0-2.07.49-2.07,1.48s.69,1.48,2.07,1.48c.63,0,1.09-.14,1.36-.42.28-.28.42-.73.42-1.36Z"/>
      <path d="M308.05,122.53l.39,1.72c.1.45.02.88-.24,1.29-.26.4-.61.66-1.07.76-3.44.73-6.55,1.1-9.33,1.1-3.63,0-6.47-.62-8.5-1.87-2.04-1.24-3.05-2.89-3.05-4.95,0-1.05.28-2.1.83-3.16.55-1.06,1.51-2.29,2.87-3.69.34-.34.75-.52,1.23-.55.48-.03.92.09,1.32.37l1.42,1.01c.36.26.55.6.58,1.04.03.43-.1.81-.4,1.13-1.38,1.46-2.07,2.55-2.07,3.26s.48,1.28,1.44,1.72c.96.44,2.4.65,4.34.65,2.35,0,5.12-.36,8.3-1.07.45-.1.87-.02,1.26.22.39.25.62.59.7,1.02ZM306.98,106.29c0,.45-.17.85-.5,1.18s-.73.5-1.19.5h-14.7c-.46,0-.85-.17-1.19-.5-.34-.34-.5-.73-.5-1.18v-1.51c0-.45.17-.85.5-1.18.34-.34.73-.5,1.19-.5h14.7c.45,0,.85.17,1.19.5.34.34.5.73.5,1.18v1.51ZM302.59,110.53c.41-.22.85-.26,1.3-.12.46.14.79.41,1.01.83.22.4.54,1.01.98,1.84.2.41.22.84.06,1.27-.16.43-.44.75-.86.95-.43.2-.87.22-1.3.06-.43-.16-.76-.44-.98-.86-.1-.18-.42-.76-.95-1.75-.22-.39-.26-.81-.12-1.24s.42-.76.83-.98h.03ZM309.65,110.17c.65,1.24.99,1.89,1.01,1.93.22.41.25.84.1,1.27-.15.43-.43.75-.85.95l-.09.06c-.42.2-.85.22-1.29.07-.44-.15-.78-.43-.99-.84-.1-.2-.26-.5-.47-.92-.22-.41-.39-.72-.5-.92-.22-.39-.26-.82-.13-1.27.13-.45.4-.78.81-.98l.09-.03c.42-.22.85-.26,1.3-.13.45.13.79.4,1.01.81Z"/>
      <path d="M308.1,134.91c.45-.02.85.13,1.2.44.35.32.53.7.55,1.16l.03,1.36c.02.45-.13.86-.44,1.22-.32.36-.7.54-1.16.56-.04,0-1.78.06-5.22.18-.16,0-.22.09-.18.27.46,1.52,1.19,3.16,2.19,4.92.22.4.26.79.12,1.2s-.4.7-.8.87l-2.1.92c-.93.4-1.94.37-3.02-.09-1.38-.59-2.82-.89-4.3-.89-.81,0-1.46.22-1.94.65-.49.44-.73,1.01-.73,1.72,0,1.03.49,1.83,1.48,2.4.99.57,2.47.86,4.44.86,1.36,0,3.28-.2,5.75-.59.45-.08.87.02,1.26.28.39.27.62.63.7,1.08l.3,1.42c.1.45.01.87-.25,1.26s-.63.62-1.08.7c-2.37.39-4.59.59-6.67.59-3.69,0-6.54-.74-8.55-2.21s-3.01-3.5-3.01-6.09c0-2.05.72-3.7,2.16-4.95,1.44-1.24,3.39-1.87,5.84-1.87,1.11,0,2.27.15,3.5.44h.06v-.09c-.34-.83-.59-1.62-.77-2.37-.04-.18-.14-.27-.3-.27-3.71.1-7.04.15-9.99.15-.47,0-.87-.17-1.2-.5s-.49-.73-.49-1.19v-1.36c0-.45.16-.85.49-1.18s.72-.5,1.17-.5c2.05,0,5.16-.04,9.3-.12.12,0,.18-.09.18-.27-.02-.45-.05-.93-.09-1.42-.02-.47.12-.88.43-1.22.31-.34.7-.52,1.17-.56l1.96-.12c.45-.02.85.13,1.2.44s.54.7.58,1.16c.02.36.05.87.09,1.54,0,.18.09.27.27.27.24,0,.6,0,1.08-.03.48-.02.85-.03,1.08-.03.06,0,.1-.03.13-.09.03-.06.02-.11-.02-.15-.06-.12-.18-.35-.35-.7s-.32-.61-.42-.79c-.2-.38-.23-.77-.1-1.17.13-.4.38-.71.76-.9.39-.2.79-.23,1.2-.09.4.14.72.41.93.8.1.18.24.44.42.79.18.35.32.61.42.79.18.38.21.75.09,1.13-.04.16,0,.24.12.24h.53ZM311.07,131.53c.1.2.24.48.43.86.19.38.32.64.4.8.2.4.23.79.09,1.19s-.4.69-.8.89-.8.23-1.2.09c-.4-.14-.72-.4-.93-.8-.18-.36-.46-.89-.86-1.6-.2-.39-.23-.79-.1-1.2.13-.4.39-.71.79-.9.39-.2.81-.23,1.24-.09.43.14.75.4.95.77Z"/>
      <path d="M300.67,176.66c.43.16.75.45.95.87s.21.85.03,1.29c-1.05,2.51-2.33,4.45-3.84,5.84-1.51,1.38-3,2.07-4.46,2.07-1.82,0-3.51-1.18-5.07-3.53-1.56-2.35-2.34-5.22-2.34-8.62,0-3.04.39-6.05,1.16-9.04.12-.47.38-.85.78-1.13.41-.28.85-.39,1.35-.33l2.16.24c.43.04.78.24,1.02.61.25.37.32.77.22,1.2-.71,3-1.07,5.82-1.07,8.45,0,.93.07,1.81.22,2.65.15.84.34,1.53.58,2.07.24.54.48.98.73,1.3.25.33.48.49.7.49.32,0,.75-.35,1.3-1.05s1.14-1.72,1.75-3.07c.2-.41.51-.71.93-.89.42-.18.85-.19,1.29-.03l1.6.59ZM305.2,164.1c.47-.14.93-.11,1.36.09.43.2.74.51.92.95,2.03,4.94,3.14,10.49,3.32,16.65.02.45-.14.85-.47,1.19-.34.34-.73.5-1.19.5h-2.25c-.45,0-.85-.16-1.19-.49-.34-.33-.51-.72-.53-1.17-.18-5.31-1.15-10.36-2.9-15.14-.16-.43-.14-.85.06-1.26.2-.4.51-.67.95-.79l1.93-.53Z"/>
      <path d="M308.25,193.17c.45,0,.85.17,1.19.5.34.34.5.73.5,1.19v1.36c0,.45-.17.85-.5,1.18s-.73.5-1.19.5h-5.16c-.18,0-.27.09-.27.27v.68c0,.16.09.24.27.24h3.97c.45,0,.85.17,1.19.5.34.34.5.73.5,1.19v1.22c0,.45-.17.85-.5,1.18s-.73.5-1.19.5h-3.97c-.18,0-.27.09-.27.27v3.08c0,.18.08.32.24.41,1.64,1.03,3.32,2.31,5.04,3.85.34.32.52.71.55,1.17.03.46-.11.86-.43,1.2l-1.01,1.07c-.32.34-.7.52-1.16.55-.46.03-.85-.11-1.19-.43-.75-.69-1.51-1.34-2.28-1.96-.12-.12-.23-.09-.33.09-.47,1.26-1.31,2.18-2.52,2.74s-2.84.84-4.92.84c-2.23,0-3.98-.52-5.23-1.56-1.26-1.04-1.88-2.49-1.88-4.37s.61-3.23,1.84-4.25c1.22-1.02,2.98-1.53,5.27-1.53.87,0,1.68.07,2.43.21.16.04.24-.03.24-.21v-.92c0-.18-.08-.27-.24-.27h-8.15c-.46,0-.85-.17-1.19-.5-.34-.34-.5-.73-.5-1.18v-1.22c0-.45.17-.85.5-1.19s.73-.5,1.19-.5h8.15c.16,0,.24-.08.24-.24v-.68c0-.18-.08-.27-.24-.27h-9.33c-.45,0-.85-.17-1.19-.5-.34-.34-.5-.73-.5-1.18v-1.36c0-.45.17-.85.5-1.19.34-.34.73-.5,1.19-.5h9.33c.16,0,.24-.09.24-.27v-.41c0-.45.17-.85.5-1.19.34-.34.73-.5,1.18-.5h1.96c.45,0,.85.17,1.18.5.34.34.5.73.5,1.19v.41c0,.18.09.27.27.27h5.16ZM294.83,211.84c1.01,0,1.68-.11,2.03-.33.35-.22.55-.69.61-1.42,0-.18-.06-.28-.18-.3-.71-.22-1.33-.33-1.87-.33-1.58,0-2.37.4-2.37,1.18s.59,1.19,1.78,1.19Z"/>
      <path d="M309.44,222.51c.45,0,.85.17,1.19.5.34.34.5.73.5,1.19v1.07c0,.45-.17.85-.5,1.18s-.73.5-1.19.5h-5.78c-.16,0-.24.09-.24.27v4.83c0,.1.04.25.12.44.61,1.26.92,2.58.92,3.94,0,2.9-.82,5.11-2.46,6.62-1.64,1.51-4.37,2.5-8.18,2.98-.47.06-.89-.05-1.26-.34-.37-.29-.6-.67-.7-1.14l-.3-1.42c-.08-.43.02-.83.3-1.2.28-.37.64-.57,1.1-.61,1.5-.16,2.64-.33,3.42-.5.78-.18,1.33-.37,1.64-.59.32-.22.56-.51.74-.89.02-.02.03-.05.03-.09s0-.07.03-.09v-.06h-.06c-1.01.4-2.03.59-3.05.59-1.94,0-3.51-.54-4.71-1.63-1.2-1.09-1.81-2.52-1.81-4.3s.61-3.23,1.84-4.31c1.22-1.08,2.88-1.61,4.98-1.61.61,0,1.27.1,1.99.3h.06s.03,0,.03-.03v-.89c0-.18-.09-.27-.27-.27h-11.08c-.45,0-.85-.17-1.19-.5s-.5-.73-.5-1.18v-1.07c0-.45.17-.85.5-1.19.34-.34.73-.5,1.19-.5h11.08c.18,0,.27-.09.27-.27v-.71c0-.45.17-.85.5-1.19.34-.34.73-.5,1.19-.5h1.96c.45,0,.85.17,1.19.5.34.34.5.73.5,1.19v.71c0,.18.08.27.24.27h5.78ZM294.96,235.04c.39.34.88.5,1.5.5s1.11-.17,1.5-.5c.39-.34.58-.76.58-1.27s-.19-.94-.58-1.27c-.39-.34-.88-.5-1.5-.5s-1.11.17-1.5.5c-.39.34-.58.76-.58,1.27s.19.94.58,1.27Z"/>
      <path d="M296.31,254.81h2.43c.51,0,1.11.06,1.79.19.68.13,1.14.23,1.36.31.23.08.51.34.84.77.34.44.53.81.59,1.13.06.32.14.91.24,1.79.1.88.15,1.66.15,2.36v3.23c0,3.93-.48,6.74-1.44,8.43-.96,1.69-2.36,2.53-4.19,2.53-1.32,0-2.95-.24-4.89-.71-.45-.12-.8-.39-1.04-.8-.24-.41-.3-.85-.18-1.3l.35-1.48c.12-.43.38-.77.77-1.01.39-.24.82-.31,1.27-.21,1.26.32,2.1.47,2.52.47.79,0,1.19-2.27,1.19-6.82,0-2.05-.07-3.26-.22-3.62-.15-.36-.67-.53-1.55-.53h-2.34c-.18,0-.29.08-.33.24-1.07,4.78-2.46,9.6-4.18,14.46-.16.45-.45.79-.87.99-.42.21-.85.24-1.29.1l-1.39-.47c-.43-.14-.76-.41-.96-.81-.21-.4-.23-.83-.07-1.29,1.42-4.23,2.64-8.54,3.65-12.95.04-.18-.02-.27-.18-.27h-1.6c-.45,0-.85-.17-1.19-.5-.34-.34-.5-.73-.5-1.19v-1.36c0-.45.17-.85.5-1.19.34-.34.73-.5,1.19-.5h2.58c.16,0,.26-.08.3-.24.14-.69.36-1.94.65-3.73.08-.47.31-.86.68-1.17.38-.31.8-.44,1.27-.4l1.51.12c.45.04.83.23,1.13.58.3.35.41.74.35,1.17-.16,1.19-.34,2.33-.53,3.44-.04.16.03.24.21.24h1.42ZM305.97,256.65c-.44.2-.87.22-1.3.06-.43-.16-.76-.44-.98-.86-.1-.18-.41-.76-.95-1.75-.22-.39-.26-.81-.12-1.24s.42-.76.83-.98h.03c.41-.22.85-.26,1.3-.12.45.14.79.41,1.01.83.22.4.54,1.01.98,1.84.2.41.22.84.06,1.27-.16.43-.44.75-.86.95ZM310.15,259.4c.69,2.33,1.38,4.9,2.07,7.7.1.43.03.85-.21,1.24-.24.4-.58.64-1.04.74l-1.93.41c-.46.1-.87.02-1.26-.22-.39-.25-.64-.61-.76-1.08-.67-2.73-1.33-5.19-1.99-7.38-.14-.43-.09-.85.13-1.26.23-.4.57-.68,1.02-.81l1.84-.5c.43-.14.86-.09,1.27.13.41.23.69.57.83,1.02ZM308.22,250.84c.42-.22.85-.26,1.3-.13.45.13.79.4,1.01.81.65,1.24.99,1.89,1.01,1.93.22.42.25.84.1,1.27-.15.43-.43.75-.85.95l-.09.06c-.42.2-.84.22-1.29.07-.45-.15-.78-.43-.99-.84-.1-.2-.26-.5-.47-.92-.22-.41-.39-.72-.5-.92-.22-.39-.26-.82-.13-1.27.13-.45.4-.78.81-.98l.09-.03Z"/>
      <path d="M301.39,282.87c0,1.48-1.19,2.67-2.67,2.67s-2.67-1.19-2.67-2.67,1.19-2.67,2.67-2.67,2.67,1.24,2.67,2.67ZM301.39,292.73c0,1.48-1.19,2.67-2.67,2.67s-2.67-1.18-2.67-2.67,1.19-2.67,2.67-2.67,2.67,1.24,2.67,2.67ZM301.39,302.6c0,1.48-1.19,2.67-2.67,2.67s-2.67-1.18-2.67-2.67,1.19-2.67,2.67-2.67,2.67,1.24,2.67,2.67Z"/>
    </g>
    <ellipse class="cls-9" cx="168.78" cy="301.05" rx="72.67" ry="4.7"/>
    <path class="cls-8" d="M226.57,242.31c-.36,29.26-14.31,46.16-14.31,46.16h-83.43c-14.36-22.03-14.31-46.16-14.31-46.16h112.05Z"/>
    <polygon class="cls-8" points="237.82 243.78 103.27 243.78 126.74 124.17 211.75 124.17 237.82 243.78"/>
    <polygon class="cls-8" points="142.78 152.42 121.19 152.42 130.26 168.13 144.26 169.36 133.65 176.87 166.16 215.53 142.78 152.42"/>
    <polygon class="cls-8" points="195.33 152.42 216.91 152.42 207.85 168.13 193.85 169.36 204.46 176.87 171.95 215.53 195.33 152.42"/>
    <polygon class="cls-8" points="142.88 152.42 169.17 152.42 195.34 152.4 189.64 167.79 169.17 153.52 148.42 167.36 142.88 152.42"/>
    <polygon class="cls-2" points="159.01 160.3 162.15 170.84 176.63 170.84 179.33 160.3 169.17 153.52 159.01 160.3"/>
    <polygon class="cls-2" points="162.15 170.84 154.27 183.43 169.02 222.99 183.29 185 176.63 170.84 162.15 170.84"/>
    <line class="cls-5" x1="168.78" y1="288.05" x2="168.78" y2="257.75"/>
    <ellipse class="cls-10" cx="142.28" cy="291.75" rx="26.5" ry="12.35"/>
    <ellipse class="cls-10" cx="195.28" cy="291.75" rx="26.5" ry="12.35"/>
    <path class="cls-8" d="M231.44,141.83c1.74,31.14-31.8,66.88-31.8,66.88l-30.47-7.52c18.75-28.77,23.68-59.42,23.68-59.42l38.59.06Z"/>
    <path class="cls-8" d="M103.86,143.61c-1.74,31.14,31.8,66.88,31.8,66.88l30.47-7.52c-18.75-28.77-23.68-59.42-23.68-59.42l-38.59.06Z"/>
    <rect class="cls-4" x="64.19" y="12.23" width="209.84" height="140.17"/>
    <circle class="cls-2" cx="168.78" cy="82.31" r="42.49"/>
    <path class="cls-11" d="M87.08,26.69c.21,2.57,3.63,8.49,5.09,13.99,1.75,6.55-2.67,12.28-5.97,12.28s-6.81-5.55-5.97-12.28c.4-3.22,2.45-6.06,2.99-8.68"/>
    <ellipse class="cls-7" cx="158.12" cy="212.07" rx="10.66" ry="5.04"/>
    <ellipse class="cls-7" cx="179.44" cy="212.07" rx="10.66" ry="5.04"/>
    <polygon class="cls-1" points="208.4 150.84 132.13 150.84 115.25 200.08 120.31 211.34 219.65 211.34 225.85 200.08 208.4 150.84"/>
    <g>
      <polygon class="cls-4" points="208.32 192.2 131.44 192.2 142.65 157.96 196.72 157.96 208.32 192.2"/>
      <g>
        <path d="M158.73,166.78c-.31,3.45-1.01,9.76-2.29,14.9-.16.64-.65,1.4-1.22,1.4-.42,0-.84-.38-.7-1.06-3.74-.29-7.77-.08-12.17.19,0,0-.43.79-1.05.95-.47.11-.76-.25-.84-.81.69-3.92,3.59-13.06,5.03-16.12.51-.26.98.22.98.22l.23-.52c2.57-.53,9.24-.58,11.5-.13l.53.98ZM157.02,166.82c-2.33-.39-7.39-.21-9.78.24-.37-.04-.54-.19-.54-.19,0,0,.02.41-.15.85-1.37,3.46-2.95,9.12-3.8,12.9,3.1-.46,8.52-.64,12.17-.31.74-3.54,1.86-10.45,2.1-13.5ZM152.87,177.86c-1.95-.39-4.84-.36-7.42.44-.49-.05-.79-.22-.73-.71.06-.51.4-.67.85-.82.58-.19,1.79-.43,3.4-.57,0,0,.5-1.86.74-2.93-1,.07-1.52.26-2.13.4-.35-.18-.42-.7-.16-1.22.64-.21,1.85-.39,2.6-.43.27-1.03.47-2.32.47-2.32-.82.04-1.84.18-2.49.42-.33-.24-.62-.42-.56-.83.04-.26.24-.44.45-.48,1.48-.33,4.57-.51,6.91-.18.46.31.37,1.07-.14,1.38-.63-.24-2.07-.36-3.09-.38,0,0,.34.24.39.61,0,0-.13,1.01-.3,1.75,1-.06,2.25.06,2.25.06.18.36.09,1.01-.32,1.12-.45.11-1.25-.04-2.17.02-.21,1.02-.78,2.9-.78,2.9,1.29.05,2.32.21,2.84.42.51.21.71.6.53,1.13,0,0-.42.34-1.16.19ZM153.81,175.76c-.34.07-.59-.07-.83-.51-.14-.27-.17-.91-.11-1.42.45.02.8.16,1.11.31.45.25.59.59.47,1.02-.09.28-.47.58-.64.6Z"/>
        <path d="M175.57,171.5c-2.43-.25-6.94-.08-9.11.27l.18.68c-.41,2.41-1.79,7.76-4.89,9.54,0,0,2.63-5.72,3.29-10.06,0,0-.68-.19-.47-.99.99-.52,5.64-.7,6.57-.74.16-.65.39-1.77.45-2.37.6-.21,1.28-.1,1.73.41-.16.8-.89,1.48-1.23,1.91.66-.02,3.86.02,4.38.31.14.08.4.43.37.6-.03.33-.42.52-1.25.44ZM176.03,167.67c-2.27-.23-4.9-.32-7.21-.15,0,0,1.06.9.71,1.83-.27.5-.95.62-.95.62-.3-.14-.5-.46-.58-.96l-.22-1.38c-1.49.13-3.74.5-3.74.5,0,0-.19-.37-.14-.79.22-.28.62-.43,1.19-.53,1.04-.17,3.17-.35,4.69-.39,0,0,0-1.11.06-1.49.05-.28.27-.41.57-.41.32,0,.65.14.97.41-.01.34-.06.86-.07,1.41,1.62,0,3.23.04,4.56.26.61.09,1.04.34,1.08.54.06.32-.34.51-.93.51ZM177.28,183.16c-3.13-.35-6.99-.52-10.6.33-.32-.74-.22-1.49.76-1.81.74-.24,1.99-.42,3.61-.5l.02-2.55c-1.03.12-1.84.35-1.84.35,0,0-.5-.3-.47-.84.03-.41,1.17-.85,2.38-.92l.02-1.93c-.66,0-1.79.16-1.79.16-.55,1.5-2.28,3.83-3.41,4.24,0,0,2.31-4.65,2.2-7.27,0,0,.66-.09,1.07.26.51.41.42,1.39.42,1.39,0,0,.83-.11,1.55-.16.03-.93.04-1.92.04-1.92.4-.23.91-.15,1.51-.02,0,0,.13,1.03.11,1.85,0,0,1.47.04,1.89.13.6.13.89.63.84,1.15-.65.18-1.88.16-2.69.16v1.85s1.57-.02,2,.24c.36.24.48.8.34,1.27,0,0-1.47-.17-2.3-.12l-.03,2.62c2.32.03,4.37.37,4.37.37.5.37.45,1.34.02,1.67Z"/>
        <path d="M193.38,182.72c.15.63.17,1.13.04,1.41-.06.03-.32.06-.82.08-.78-.58-1.39-1.84-1.81-3.72-.29-1.28-.72-2.93-.94-4.13-1.83.02-4.35.09-6.09.02-.57,0-1.47-.49-1.57-1.16-.06-.41.24-.59.69-.64,1.09.09,4.06.14,6.62.05-.37-1.82-.82-3.67-1.13-5.03-.88.02-1.84.28-2.65.4-.17.59-.64,1.36-1,1.76-.37.43-1.14.98-1.57,1.09.5-2.3,1.02-4.46,1.11-6.62.82-.04,1.69.54,1.87,1.43.06.31.04.56-.08.87.71-.08,1.34-.14,2.03-.19-.25-1.04-.51-2.21-.75-3.26.4-.41,1.42.02,1.85.5.07.64.37,1.72.58,2.66,1.56-.06,2.75.04,3.67.21.25.23.4.43.46.63.16.54-.32.76-.79.7-.57-.08-1.89-.24-3.06-.24.34,1.39.96,3.82,1.28,5.05,1.63-.05,4.25-.34,5.47-.58.31.11.66.2.96.4.28.2.51.45.67.89-1.14.74-4.92.95-6.64,1,.44,1.8,1.03,4.09,1.6,6.42Z"/>
      </g>
    </g>
    <line class="cls-5" x1="130.09" y1="156.81" x2="140.17" y2="156.81"/>
    <line class="cls-5" x1="128.71" y1="160.82" x2="135.28" y2="160.82"/>
    <path class="cls-1" d="M225.85,200.08h-110.6,110.6Z"/>
    <polygon class="cls-6" points="219.65 211.34 120.31 211.34 115.25 200.08 225.85 200.08 219.65 211.34"/>
  </g>
</svg>