<?xml version="1.0" encoding="UTF-8"?>
<svg id="_レイヤー_1" data-name="レイヤー 1" xmlns="http://www.w3.org/2000/svg" viewBox="0 0 370 319">
  <defs>
    <style>
      .cls-1 {
        fill: red;
      }

      .cls-1, .cls-2, .cls-3, .cls-4, .cls-5, .cls-6, .cls-7, .cls-8, .cls-9, .cls-10, .cls-11 {
        stroke-linecap: round;
        stroke-linejoin: round;
      }

      .cls-1, .cls-3, .cls-4, .cls-5, .cls-6, .cls-7, .cls-8, .cls-9, .cls-10, .cls-11 {
        stroke: #000;
        stroke-width: 2px;
      }

      .cls-2 {
        stroke: #fff;
        stroke-width: 5px;
      }

      .cls-2, .cls-4 {
        fill: #fff;
      }

      .cls-3 {
        fill: #3e3a39;
      }

      .cls-5 {
        fill: none;
      }

      .cls-6 {
        fill: #f4db8e;
      }

      .cls-7 {
        fill: #2f2725;
      }

      .cls-8 {
        fill: #1b1464;
      }

      .cls-9 {
        opacity: .3;
      }

      .cls-10 {
        fill: #40210f;
      }

      .cls-11 {
        fill: #009fe8;
      }
    </style>
  </defs>
  <g id="_こんにちは" data-name="こんにちは">
    <g>
      <path class="cls-2" d="M338.45,58.54c.2.93.04,1.8-.48,2.62-.52.82-1.25,1.34-2.17,1.54-6.99,1.49-13.33,2.23-18.99,2.23-7.4,0-13.17-1.27-17.31-3.8-4.14-2.53-6.21-5.89-6.21-10.07,0-2.13.56-4.27,1.69-6.42s3.08-4.65,5.85-7.51c.68-.68,1.52-1.06,2.5-1.12s1.88.19,2.68.75l2.89,2.05c.72.52,1.11,1.23,1.17,2.11.06.88-.21,1.65-.81,2.29-2.81,2.98-4.22,5.19-4.22,6.63s.97,2.61,2.93,3.5c1.95.88,4.89,1.33,8.83,1.33,4.78,0,10.41-.72,16.88-2.17.92-.2,1.78-.05,2.56.45.78.5,1.26,1.2,1.42,2.08l.78,3.5ZM302.15,16.7h29.91c.92,0,1.73.34,2.41,1.02.68.68,1.02,1.49,1.02,2.41v3.08c0,.92-.34,1.73-1.02,2.41s-1.49,1.02-2.41,1.02h-29.91c-.93,0-1.73-.34-2.41-1.02-.68-.68-1.02-1.49-1.02-2.41v-3.08c0-.92.34-1.73,1.02-2.41s1.49-1.02,2.41-1.02Z"/>
      <path class="cls-2" d="M340.62,104c.92.24,1.63.77,2.11,1.6.48.82.58,1.68.3,2.56-1.85,6.39-3.87,10.76-6.06,13.11-2.19,2.35-5,3.53-8.41,3.53-3.78,0-6.66-1.06-8.65-3.17-1.99-2.11-3.35-5.7-4.07-10.76-.28-2.13-.6-3.56-.97-4.28-.36-.72-.82-1.09-1.39-1.09-1.41,0-2.99,1.25-4.73,3.74-1.75,2.49-4.05,7.04-6.9,13.63-.4.88-1.03,1.52-1.9,1.9s-1.74.41-2.62.09l-3.86-1.33c-.88-.28-1.52-.86-1.9-1.72-.38-.86-.41-1.74-.09-2.62,6.19-16.16,11.8-30.53,16.82-43.11.36-.88.98-1.54,1.87-1.96.88-.42,1.79-.49,2.71-.21l3.92,1.09c.88.24,1.53.78,1.93,1.63s.44,1.69.12,2.53c-4.06,10.37-6.15,15.7-6.27,15.98v.12h.18c1.93-.8,3.48-1.21,4.64-1.21,2.77,0,4.86.96,6.27,2.89,1.41,1.93,2.35,5.35,2.83,10.25.24,2.45.54,4.09.9,4.91.36.82.84,1.24,1.45,1.24,1.29,0,2.69-2.61,4.22-7.84.28-.92.83-1.62,1.66-2.08.82-.46,1.68-.57,2.56-.33l3.32.9Z"/>
      <path class="cls-2" d="M303.6,135.74c.88.08,1.59.5,2.11,1.27.52.76.68,1.59.48,2.47-1.37,6.35-2.05,13.26-2.05,20.74s.68,14.39,2.05,20.74c.2.88.04,1.71-.48,2.47-.52.76-1.23,1.19-2.11,1.27l-4.52.48c-.97.08-1.85-.15-2.65-.69-.81-.54-1.31-1.3-1.51-2.26-1.49-6.91-2.23-14.25-2.23-22.01s.74-15.09,2.23-22.01c.2-.96.7-1.72,1.51-2.26.8-.54,1.69-.77,2.65-.69l4.52.48ZM340.8,175.06l.54,3.2c.16.96-.04,1.84-.6,2.62-.56.78-1.31,1.28-2.23,1.48-3.74.72-7.56,1.09-11.46,1.09-5.87,0-10.45-1.17-13.75-3.5-3.3-2.33-4.95-5.49-4.95-9.47,0-1.49.46-3.24,1.39-5.25.92-2.01,2.19-3.96,3.8-5.85.6-.72,1.41-1.11,2.41-1.17,1-.06,1.89.21,2.65.81l2.41,1.81c.72.56,1.14,1.31,1.24,2.23.1.93-.13,1.75-.69,2.47-1.37,1.77-2.05,3.12-2.05,4.04,0,1.21.57,2.11,1.72,2.71,1.15.6,3.08.9,5.82.9,3.02,0,6.33-.3,9.95-.9.88-.16,1.7.03,2.44.57s1.2,1.28,1.36,2.2ZM336.58,138.82c.92,0,1.73.34,2.41,1.03s1.03,1.49,1.03,2.41v3.08c0,.93-.34,1.73-1.03,2.41s-1.49,1.02-2.41,1.02h-19.36c-.93,0-1.73-.34-2.41-1.02s-1.02-1.49-1.02-2.41v-3.08c0-.92.34-1.73,1.02-2.41s1.49-1.03,2.41-1.03h19.36Z"/>
      <path class="cls-2" d="M338.09,200.02c.92,0,1.73.34,2.41,1.02.68.68,1.02,1.49,1.02,2.41v2.77c0,.93-.34,1.73-1.02,2.41s-1.49,1.02-2.41,1.02h-24.18c-.36,0-.58.18-.66.54-.6,2.21-1.13,4-1.57,5.37v.12h.12c3.34-.8,6.41-1.21,9.23-1.21,5.63,0,9.95,1.33,12.96,3.98s4.52,6.35,4.52,11.09-2.07,8.8-6.21,11.79c-4.14,2.99-9.71,4.49-16.7,4.49-4.02,0-8.14-.38-12.36-1.15-.93-.16-1.66-.64-2.2-1.45s-.71-1.67-.51-2.59l.6-2.89c.2-.92.68-1.65,1.45-2.17.76-.52,1.59-.7,2.47-.54,4.06.76,7.58,1.15,10.55,1.15,3.58,0,6.38-.66,8.41-1.99,2.03-1.33,3.05-3.08,3.05-5.25,0-3.22-2.21-4.82-6.63-4.82-4.1,0-7.86.92-11.28,2.77-2.05,1.12-4.08,1.29-6.09.48l-3.56-1.39c-.88-.32-1.5-.91-1.84-1.78-.34-.86-.33-1.72.03-2.56,2.01-4.5,3.48-8.32,4.4-11.46.08-.36-.04-.54-.36-.54h-6.21c-.93,0-1.73-.34-2.41-1.02-.68-.68-1.02-1.49-1.02-2.41v-2.77c0-.92.34-1.73,1.02-2.41.68-.68,1.49-1.02,2.41-1.02h8.44c.32,0,.52-.16.6-.48.16-1.21.28-2.13.36-2.77.12-.92.56-1.71,1.33-2.35.76-.64,1.61-.92,2.53-.84l3.98.24c.96.08,1.75.46,2.35,1.15.6.68.85,1.49.72,2.41-.04.24-.09.6-.15,1.09s-.11.84-.15,1.09c-.08.32.06.48.42.48h22.13Z"/>
      <path class="cls-2" d="M301.19,256.33c.88.08,1.59.5,2.11,1.27.52.76.68,1.59.48,2.47-1.37,6.35-2.05,13.26-2.05,20.74s.68,14.39,2.05,20.74c.2.92.04,1.76-.48,2.5-.52.74-1.23,1.16-2.11,1.24l-3.92.48c-.96.12-1.85-.1-2.65-.66-.8-.56-1.31-1.33-1.51-2.29-1.49-6.91-2.23-14.25-2.23-22.01s.74-15.09,2.23-22.01c.2-.96.7-1.73,1.51-2.29s1.69-.78,2.65-.66l3.92.48ZM339.9,263.32c.92,0,1.73.34,2.41,1.02s1.03,1.49,1.03,2.41v2.77c0,.93-.34,1.73-1.03,2.41s-1.49,1.02-2.41,1.02h-5.07c-.36,0-.54.18-.54.54v13.33c0,.28.14.56.42.85,1.53,1.41,3.82,3.7,6.87,6.87.68.68,1.01,1.51,1,2.47-.02.97-.37,1.79-1.06,2.47l-2.11,2.11c-.68.64-1.49.95-2.41.93-.93-.02-1.71-.37-2.35-1.06-.32-.32-.76-.8-1.33-1.45-.24-.24-.44-.2-.6.12-2.25,3.98-6.35,5.97-12.3,5.97-4.74,0-8.44-1.12-11.09-3.35-2.65-2.23-3.98-5.34-3.98-9.32s1.31-6.98,3.92-9.26c2.61-2.27,6.33-3.41,11.16-3.41.88,0,1.71.06,2.47.18.36.08.54-.06.54-.42v-7.06c0-.36-.16-.54-.48-.54h-11.76c-.92,0-1.73-.34-2.41-1.02s-1.02-1.49-1.02-2.41v-2.77c0-.92.34-1.73,1.02-2.41s1.49-1.02,2.41-1.02h11.76c.32,0,.48-.18.48-.54v-4.46c0-.92.34-1.73,1.02-2.41.68-.68,1.49-1.02,2.41-1.02h3.98c.92,0,1.73.34,2.41,1.02.68.68,1.02,1.49,1.02,2.41v4.46c0,.36.18.54.54.54h5.07ZM323.44,292.87v-.96c0-.4-.16-.66-.48-.78-.93-.44-1.97-.66-3.14-.66-2.81,0-4.22,1.01-4.22,3.02s1.41,3.02,4.22,3.02c1.29,0,2.21-.28,2.77-.84.56-.56.84-1.49.84-2.77Z"/>
    </g>
    <g>
      <path d="M338.45,58.54c.2.93.04,1.8-.48,2.62-.52.82-1.25,1.34-2.17,1.54-6.99,1.49-13.33,2.23-18.99,2.23-7.4,0-13.17-1.27-17.31-3.8-4.14-2.53-6.21-5.89-6.21-10.07,0-2.13.56-4.27,1.69-6.42s3.08-4.65,5.85-7.51c.68-.68,1.52-1.06,2.5-1.12s1.88.19,2.68.75l2.89,2.05c.72.52,1.11,1.23,1.17,2.11.06.88-.21,1.65-.81,2.29-2.81,2.98-4.22,5.19-4.22,6.63s.97,2.61,2.93,3.5c1.95.88,4.89,1.33,8.83,1.33,4.78,0,10.41-.72,16.88-2.17.92-.2,1.78-.05,2.56.45.78.5,1.26,1.2,1.42,2.08l.78,3.5ZM302.15,16.7h29.91c.92,0,1.73.34,2.41,1.02.68.68,1.02,1.49,1.02,2.41v3.08c0,.92-.34,1.73-1.02,2.41s-1.49,1.02-2.41,1.02h-29.91c-.93,0-1.73-.34-2.41-1.02-.68-.68-1.02-1.49-1.02-2.41v-3.08c0-.92.34-1.73,1.02-2.41s1.49-1.02,2.41-1.02Z"/>
      <path d="M340.62,104c.92.24,1.63.77,2.11,1.6.48.82.58,1.68.3,2.56-1.85,6.39-3.87,10.76-6.06,13.11-2.19,2.35-5,3.53-8.41,3.53-3.78,0-6.66-1.06-8.65-3.17-1.99-2.11-3.35-5.7-4.07-10.76-.28-2.13-.6-3.56-.97-4.28-.36-.72-.82-1.09-1.39-1.09-1.41,0-2.99,1.25-4.73,3.74-1.75,2.49-4.05,7.04-6.9,13.63-.4.88-1.03,1.52-1.9,1.9s-1.74.41-2.62.09l-3.86-1.33c-.88-.28-1.52-.86-1.9-1.72-.38-.86-.41-1.74-.09-2.62,6.19-16.16,11.8-30.53,16.82-43.11.36-.88.98-1.54,1.87-1.96.88-.42,1.79-.49,2.71-.21l3.92,1.09c.88.24,1.53.78,1.93,1.63s.44,1.69.12,2.53c-4.06,10.37-6.15,15.7-6.27,15.98v.12h.18c1.93-.8,3.48-1.21,4.64-1.21,2.77,0,4.86.96,6.27,2.89,1.41,1.93,2.35,5.35,2.83,10.25.24,2.45.54,4.09.9,4.91.36.82.84,1.24,1.45,1.24,1.29,0,2.69-2.61,4.22-7.84.28-.92.83-1.62,1.66-2.08.82-.46,1.68-.57,2.56-.33l3.32.9Z"/>
      <path d="M303.6,135.74c.88.08,1.59.5,2.11,1.27.52.76.68,1.59.48,2.47-1.37,6.35-2.05,13.26-2.05,20.74s.68,14.39,2.05,20.74c.2.88.04,1.71-.48,2.47-.52.76-1.23,1.19-2.11,1.27l-4.52.48c-.97.08-1.85-.15-2.65-.69-.81-.54-1.31-1.3-1.51-2.26-1.49-6.91-2.23-14.25-2.23-22.01s.74-15.09,2.23-22.01c.2-.96.7-1.72,1.51-2.26.8-.54,1.69-.77,2.65-.69l4.52.48ZM340.8,175.06l.54,3.2c.16.96-.04,1.84-.6,2.62-.56.78-1.31,1.28-2.23,1.48-3.74.72-7.56,1.09-11.46,1.09-5.87,0-10.45-1.17-13.75-3.5-3.3-2.33-4.95-5.49-4.95-9.47,0-1.49.46-3.24,1.39-5.25.92-2.01,2.19-3.96,3.8-5.85.6-.72,1.41-1.11,2.41-1.17,1-.06,1.89.21,2.65.81l2.41,1.81c.72.56,1.14,1.31,1.24,2.23.1.93-.13,1.75-.69,2.47-1.37,1.77-2.05,3.12-2.05,4.04,0,1.21.57,2.11,1.72,2.71,1.15.6,3.08.9,5.82.9,3.02,0,6.33-.3,9.95-.9.88-.16,1.7.03,2.44.57s1.2,1.28,1.36,2.2ZM336.58,138.82c.92,0,1.73.34,2.41,1.03s1.03,1.49,1.03,2.41v3.08c0,.93-.34,1.73-1.03,2.41s-1.49,1.02-2.41,1.02h-19.36c-.93,0-1.73-.34-2.41-1.02s-1.02-1.49-1.02-2.41v-3.08c0-.92.34-1.73,1.02-2.41s1.49-1.03,2.41-1.03h19.36Z"/>
      <path d="M338.09,200.02c.92,0,1.73.34,2.41,1.02.68.68,1.02,1.49,1.02,2.41v2.77c0,.93-.34,1.73-1.02,2.41s-1.49,1.02-2.41,1.02h-24.18c-.36,0-.58.18-.66.54-.6,2.21-1.13,4-1.57,5.37v.12h.12c3.34-.8,6.41-1.21,9.23-1.21,5.63,0,9.95,1.33,12.96,3.98s4.52,6.35,4.52,11.09-2.07,8.8-6.21,11.79c-4.14,2.99-9.71,4.49-16.7,4.49-4.02,0-8.14-.38-12.36-1.15-.93-.16-1.66-.64-2.2-1.45s-.71-1.67-.51-2.59l.6-2.89c.2-.92.68-1.65,1.45-2.17.76-.52,1.59-.7,2.47-.54,4.06.76,7.58,1.15,10.55,1.15,3.58,0,6.38-.66,8.41-1.99,2.03-1.33,3.05-3.08,3.05-5.25,0-3.22-2.21-4.82-6.63-4.82-4.1,0-7.86.92-11.28,2.77-2.05,1.12-4.08,1.29-6.09.48l-3.56-1.39c-.88-.32-1.5-.91-1.84-1.78-.34-.86-.33-1.72.03-2.56,2.01-4.5,3.48-8.32,4.4-11.46.08-.36-.04-.54-.36-.54h-6.21c-.93,0-1.73-.34-2.41-1.02-.68-.68-1.02-1.49-1.02-2.41v-2.77c0-.92.34-1.73,1.02-2.41.68-.68,1.49-1.02,2.41-1.02h8.44c.32,0,.52-.16.6-.48.16-1.21.28-2.13.36-2.77.12-.92.56-1.71,1.33-2.35.76-.64,1.61-.92,2.53-.84l3.98.24c.96.08,1.75.46,2.35,1.15.6.68.85,1.49.72,2.41-.04.24-.09.6-.15,1.09s-.11.84-.15,1.09c-.08.32.06.48.42.48h22.13Z"/>
      <path d="M301.19,256.33c.88.08,1.59.5,2.11,1.27.52.76.68,1.59.48,2.47-1.37,6.35-2.05,13.26-2.05,20.74s.68,14.39,2.05,20.74c.2.92.04,1.76-.48,2.5-.52.74-1.23,1.16-2.11,1.24l-3.92.48c-.96.12-1.85-.1-2.65-.66-.8-.56-1.31-1.33-1.51-2.29-1.49-6.91-2.23-14.25-2.23-22.01s.74-15.09,2.23-22.01c.2-.96.7-1.73,1.51-2.29s1.69-.78,2.65-.66l3.92.48ZM339.9,263.32c.92,0,1.73.34,2.41,1.02s1.03,1.49,1.03,2.41v2.77c0,.93-.34,1.73-1.03,2.41s-1.49,1.02-2.41,1.02h-5.07c-.36,0-.54.18-.54.54v13.33c0,.28.14.56.42.85,1.53,1.41,3.82,3.7,6.87,6.87.68.68,1.01,1.51,1,2.47-.02.97-.37,1.79-1.06,2.47l-2.11,2.11c-.68.64-1.49.95-2.41.93-.93-.02-1.71-.37-2.35-1.06-.32-.32-.76-.8-1.33-1.45-.24-.24-.44-.2-.6.12-2.25,3.98-6.35,5.97-12.3,5.97-4.74,0-8.44-1.12-11.09-3.35-2.65-2.23-3.98-5.34-3.98-9.32s1.31-6.98,3.92-9.26c2.61-2.27,6.33-3.41,11.16-3.41.88,0,1.71.06,2.47.18.36.08.54-.06.54-.42v-7.06c0-.36-.16-.54-.48-.54h-11.76c-.92,0-1.73-.34-2.41-1.02s-1.02-1.49-1.02-2.41v-2.77c0-.92.34-1.73,1.02-2.41s1.49-1.02,2.41-1.02h11.76c.32,0,.48-.18.48-.54v-4.46c0-.92.34-1.73,1.02-2.41.68-.68,1.49-1.02,2.41-1.02h3.98c.92,0,1.73.34,2.41,1.02.68.68,1.02,1.49,1.02,2.41v4.46c0,.36.18.54.54.54h5.07ZM323.44,292.87v-.96c0-.4-.16-.66-.48-.78-.93-.44-1.97-.66-3.14-.66-2.81,0-4.22,1.01-4.22,3.02s1.41,3.02,4.22,3.02c1.29,0,2.21-.28,2.77-.84.56-.56.84-1.49.84-2.77Z"/>
    </g>
    <ellipse class="cls-9" cx="159.39" cy="305.34" rx="72.39" ry="4.14"/>
    <path class="cls-8" d="M217.59,246.1c-.36,29.42-14.42,46.42-14.42,46.42h-84.03c-14.46-22.15-14.41-46.42-14.41-46.42h112.86Z"/>
    <polygon class="cls-8" points="228.92 247.58 93.41 247.58 117.04 127.31 202.66 127.31 228.92 247.58"/>
    <polygon class="cls-8" points="133.2 155.72 111.46 155.72 120.59 171.52 134.69 172.75 124.01 180.31 156.75 219.18 133.2 155.72"/>
    <polygon class="cls-8" points="186.12 155.72 207.87 155.72 198.74 171.52 184.63 172.75 195.32 180.31 162.58 219.18 186.12 155.72"/>
    <polygon class="cls-8" points="133.3 155.72 159.78 155.72 186.13 155.7 180.39 171.17 159.78 156.83 138.88 170.75 133.3 155.72"/>
    <polygon class="cls-1" points="149.55 163.64 152.71 174.24 167.29 174.24 170.01 163.64 159.78 156.83 149.55 163.64"/>
    <polygon class="cls-1" points="152.71 174.24 144.77 186.9 159.63 226.68 174 188.48 167.29 174.24 152.71 174.24"/>
    <line class="cls-5" x1="159.39" y1="292.09" x2="159.39" y2="261.62"/>
    <ellipse class="cls-10" cx="132.69" cy="295.81" rx="26.69" ry="12.42"/>
    <ellipse class="cls-10" cx="186.08" cy="295.81" rx="26.69" ry="12.42"/>
    <rect class="cls-4" x="54.05" y="14.76" width="211.34" height="140.94"/>
    <ellipse class="cls-1" cx="159.39" cy="85.23" rx="42.8" ry="42.72"/>
    <path class="cls-11" d="M77.1,29.3c.21,2.58,3.65,8.54,5.13,14.06,1.76,6.59-2.69,12.35-6.02,12.35s-6.86-5.58-6.02-12.35c.4-3.24,2.46-6.09,3.01-8.73"/>
    <g>
      <rect class="cls-3" x="108.62" y="211.04" width="105.04" height="67.28" rx="11.08" ry="11.08"/>
      <path class="cls-7" d="M214.66,236.08v32.06c0,5.6-5.08,10.18-11.29,10.18h-84.5c-6.21,0-11.29-4.58-11.29-10.18v-32.3l107.08.24Z"/>
      <path class="cls-3" d="M180.12,219c.21-1.59.32-3.22.32-4.88,0-15.52-9.42-28.1-21.05-28.1s-21.05,12.58-21.05,28.1c0,1.69.11,3.35.33,4.96l5.27-.04c-.28-1.58-.43-3.23-.43-4.92,0-11.7,7.11-22.66,15.87-22.66s15.87,10.95,15.87,22.66c0,1.68-.15,3.31-.42,4.88h5.28Z"/>
      <path class="cls-3" d="M180.45,222.14c.21-1.59.32-3.22.32-4.88,0-15.52-9.42-28.1-21.05-28.1s-21.05,12.58-21.05,28.1c0,1.69.11,3.35.33,4.96l5.27-.04c-.28-1.58-.43-3.23-.43-4.92,0-11.7,7.11-22.66,15.87-22.66s15.87,10.95,15.87,22.66c0,1.68-.15,3.31-.42,4.88h5.28Z"/>
      <rect class="cls-3" x="136.3" y="217.88" width="9.31" height="12.61" rx="4.65" ry="4.65"/>
      <rect class="cls-3" x="172.7" y="217.88" width="9.31" height="12.61" rx="4.65" ry="4.65"/>
    </g>
    <path class="cls-8" d="M227.78,141.19c.39,1.02,11.1,23.04,7.05,41.94-4.04,18.89-18.65,5.93-18.65,5.93l-11.54-53.44,23.14,5.57Z"/>
    <path class="cls-6" d="M245.99,138.82c2.19-13.58-3.8-25.84-13.38-27.38s-19.12,8.21-21.31,21.79c-.02.1-.01.2-.03.31-3.28-1.23-6.44-1.14-8.63.63-4.17,3.37-3.22,11.45,2.11,18.03,1.14,1.41,2.41,2.6,3.71,3.62,3.47,2.71,7.22,5.06,12.16,5.58,3.64.39,7.11-.14,10.08-1.36,7.27-2.3,13.57-10.53,15.29-21.22Z"/>
    <path class="cls-8" d="M88.24,155.69s-2.16,34.24,16.92,43.21c0,0,16.36,7.74,31.14,9.53l13.25-24.48s-19.41-3.95-24.36-6.97c-4.4-2.68-7.01-4.65-8.67-21.25l-28.27-.04Z"/>
    <ellipse class="cls-6" cx="144.77" cy="196.75" rx="13.89" ry="10.64" transform="translate(-99.48 193.07) rotate(-52.79)"/>
  </g>
</svg>