<?xml version="1.0" encoding="UTF-8"?>
<svg id="_レイヤー_1" data-name="レイヤー 1" xmlns="http://www.w3.org/2000/svg" viewBox="0 0 370 319">
  <defs>
    <style>
      .cls-1 {
        opacity: .2;
      }

      .cls-1, .cls-2, .cls-3, .cls-4, .cls-5, .cls-6, .cls-7, .cls-8, .cls-9, .cls-10, .cls-11, .cls-12, .cls-13, .cls-14 {
        stroke-linecap: round;
        stroke-linejoin: round;
      }

      .cls-1, .cls-2, .cls-3, .cls-15, .cls-5, .cls-6, .cls-16, .cls-7, .cls-8, .cls-9, .cls-10, .cls-11, .cls-12, .cls-13, .cls-14 {
        stroke: #000;
        stroke-width: 2px;
      }

      .cls-2 {
        fill: red;
      }

      .cls-3 {
        fill: #999;
      }

      .cls-4 {
        stroke: #fff;
        stroke-width: 5px;
      }

      .cls-4, .cls-15, .cls-5 {
        fill: #fff;
      }

      .cls-15, .cls-16 {
        stroke-miterlimit: 10;
      }

      .cls-6 {
        fill: none;
      }

      .cls-16, .cls-9 {
        fill: #1b1464;
      }

      .cls-7 {
        fill: #f4db8e;
      }

      .cls-8 {
        fill: #ccc;
      }

      .cls-10 {
        fill: #231815;
      }

      .cls-11 {
        opacity: .3;
      }

      .cls-12 {
        fill: #40210f;
      }

      .cls-14 {
        fill: #009fe8;
      }
    </style>
  </defs>
  <g id="_おはようございます_" data-name="おはようございます！">
    <g>
      <path class="cls-4" d="M342.03,25.15c3.64,0,6.61.91,8.91,2.71,2.3,1.81,3.44,4.02,3.44,6.64,0,5.49-2.92,8.87-8.76,10.14-.57.12-1.12.02-1.63-.32-.51-.34-.84-.81-.99-1.4l-.45-1.87c-.13-.55-.04-1.07.26-1.55.3-.49.72-.81,1.27-.96,1.22-.35,2.09-.81,2.6-1.38.51-.57.77-1.34.77-2.28s-.51-1.72-1.52-2.38c-1.01-.66-2.31-.99-3.91-.99h-.79c-.22,0-.34.11-.34.34v5.65c0,2.77-.5,4.65-1.5,5.63-1,.99-2.87,1.48-5.61,1.48s-5.09-.81-6.94-2.43c-1.86-1.62-2.79-3.68-2.79-6.18,0-2.17.85-4.14,2.56-5.9,1.71-1.76,4.12-3.08,7.24-3.95.2-.05.3-.19.3-.41v-3.29c0-.2-.11-.3-.34-.3h-5.76c-.57,0-1.07-.21-1.5-.64-.42-.42-.64-.92-.64-1.5v-1.35c0-.57.21-1.07.64-1.5.42-.42.92-.64,1.5-.64h5.76c.22,0,.34-.11.34-.34v-1.65c0-.57.21-1.07.64-1.5.42-.42.92-.64,1.5-.64h2.47c.57,0,1.07.21,1.5.64.42.42.64.92.64,1.5v1.65c0,.22.11.34.34.34h4.64c.57,0,1.07.21,1.5.64.42.42.64.92.64,1.5v1.35c0,.57-.21,1.07-.64,1.5-.42.42-.92.64-1.5.64h-4.64c-.22,0-.34.1-.34.3v2.4c0,.2.11.3.34.3h.79ZM334.17,36.94v-4.08c0-.07-.04-.13-.11-.17-.07-.04-.15-.04-.22-.02-2.02.8-3.03,1.91-3.03,3.33,0,.6.24,1.16.71,1.67.47.51.99.77,1.53.77.47,0,.78-.09.92-.26.14-.17.21-.59.21-1.24ZM357.83,22.38c.27.5.34,1.03.19,1.59s-.49.97-1.01,1.22l-1.12.6c-.52.27-1.07.32-1.63.15s-.99-.52-1.29-1.05c-.92-1.62-1.96-3.36-3.11-5.2-.3-.5-.39-1.04-.26-1.61.12-.57.44-1.01.94-1.31l1.05-.6c.5-.3,1.03-.39,1.59-.26s1,.44,1.33.94c1.05,1.67,2.16,3.52,3.33,5.54Z"/>
      <path class="cls-4" d="M330.84,51.5c.55.05.99.31,1.31.79.32.47.42.99.3,1.53-.85,3.94-1.27,8.24-1.27,12.88s.42,8.93,1.27,12.88c.12.57.02,1.09-.3,1.55-.32.46-.76.72-1.31.77l-2.43.3c-.6.07-1.15-.06-1.65-.41-.5-.35-.81-.82-.94-1.42-.92-4.29-1.38-8.85-1.38-13.66s.46-9.37,1.38-13.66c.13-.6.44-1.07.94-1.42.5-.35,1.05-.49,1.65-.41l2.43.3ZM354.87,55.84c.57,0,1.07.21,1.5.64.42.42.64.92.64,1.5v1.72c0,.57-.21,1.07-.64,1.5-.42.42-.92.64-1.5.64h-3.14c-.22,0-.34.11-.34.34v8.27c0,.17.09.35.26.52.95.87,2.37,2.3,4.27,4.27.42.42.63.94.62,1.53-.01.6-.23,1.11-.66,1.54l-1.31,1.31c-.42.4-.92.59-1.5.58-.57-.01-1.06-.23-1.46-.65-.2-.2-.47-.5-.82-.9-.15-.15-.27-.12-.37.07-1.4,2.47-3.94,3.71-7.64,3.71-2.94,0-5.24-.69-6.89-2.08-1.65-1.38-2.47-3.31-2.47-5.78s.81-4.34,2.43-5.75c1.62-1.41,3.93-2.12,6.92-2.12.55,0,1.06.04,1.53.11.22.05.34-.04.34-.26v-4.38c0-.22-.1-.34-.3-.34h-7.3c-.57,0-1.07-.21-1.5-.64s-.64-.92-.64-1.5v-1.72c0-.57.21-1.07.64-1.5.42-.42.92-.64,1.5-.64h7.3c.2,0,.3-.11.3-.34v-2.77c0-.57.21-1.07.64-1.5.42-.42.92-.64,1.5-.64h2.47c.57,0,1.07.21,1.5.64.42.42.64.92.64,1.5v2.77c0,.22.11.34.34.34h3.14ZM344.65,74.19v-.6c0-.25-.1-.41-.3-.49-.57-.27-1.22-.41-1.95-.41-1.75,0-2.62.62-2.62,1.87s.87,1.87,2.62,1.87c.8,0,1.37-.17,1.72-.52.35-.35.52-.92.52-1.72Z"/>
      <path class="cls-4" d="M344.99,98.89c-.22,0-.34.1-.34.3v6.4c0,.22.1.37.3.45,2.3,1.15,5.38,3.24,9.25,6.29.45.35.7.82.77,1.4.06.59-.11,1.09-.51,1.52l-1.46,1.72c-.4.45-.89.7-1.48.75-.59.05-1.12-.11-1.59-.49-2.15-1.7-3.86-3.01-5.13-3.93-.15-.1-.25-.05-.3.15-.7,4.52-3.77,6.78-9.21,6.78-3.19,0-5.68-.74-7.45-2.21s-2.66-3.48-2.66-6.03.87-4.55,2.62-6.03c1.75-1.47,4.24-2.21,7.49-2.21.42,0,1.06.02,1.91.07.22,0,.34-.1.34-.3v-13.74c0-.57.21-1.07.64-1.5s.92-.64,1.5-.64h2.84c.57,0,1.07.21,1.5.64.42.42.64.92.64,1.5v2.77c0,.22.11.34.34.34h8.01c.57,0,1.07.21,1.5.64.42.42.64.92.64,1.5v1.72c0,.57-.21,1.07-.64,1.5-.42.42-.92.64-1.5.64h-8.01ZM337.54,111.24v-1.05c0-.2-.11-.32-.34-.37-.4-.05-1.04-.08-1.91-.08-2.25,0-3.37.75-3.37,2.25,0,.77.26,1.34.79,1.7.52.36,1.39.54,2.58.54.85,0,1.43-.21,1.76-.62.32-.41.49-1.2.49-2.38Z"/>
      <path class="cls-4" d="M343.16,135.21c3.89,0,6.86.76,8.91,2.28,2.05,1.52,3.07,3.63,3.07,6.33,0,7.56-6.53,11.99-19.58,13.29-.6.05-1.13-.11-1.59-.47-.46-.36-.74-.84-.84-1.44l-.34-1.98c-.1-.57.03-1.09.39-1.55.36-.46.83-.73,1.4-.81,4.82-.62,8.26-1.49,10.33-2.6,2.07-1.11,3.11-2.46,3.11-4.06,0-.87-.4-1.53-1.2-1.96-.8-.44-2.15-.66-4.04-.66-2.94,0-7.5.66-13.66,1.98-.57.12-1.11.03-1.61-.28-.5-.31-.81-.75-.94-1.33l-.52-2.06c-.13-.57-.04-1.12.26-1.63.3-.51.74-.83,1.31-.95,5.89-1.4,11.07-2.1,15.53-2.1ZM333.69,125.7c4.89.5,9.59.79,14.11.86.57.02,1.07.25,1.48.67.41.42.62.92.62,1.5v2.1c0,.6-.22,1.11-.65,1.52-.44.41-.94.6-1.52.58-4.87-.12-9.8-.46-14.79-1.01-.57-.05-1.05-.31-1.42-.79-.37-.47-.52-1-.45-1.57l.22-1.98c.07-.57.35-1.04.82-1.4.47-.36,1-.52,1.57-.47Z"/>
      <path class="cls-4" d="M315.68,113.71l.49,2.17c.12.57.02,1.12-.3,1.63s-.77.83-1.35.95c-4.34.92-8.27,1.39-11.79,1.39-4.59,0-8.17-.79-10.74-2.36-2.57-1.57-3.86-3.66-3.86-6.25,0-1.32.35-2.65,1.05-3.99.7-1.33,1.91-2.89,3.63-4.66.42-.42.94-.65,1.55-.69.61-.04,1.17.12,1.67.47l1.8,1.27c.45.32.69.76.73,1.31.04.55-.13,1.02-.51,1.42-1.75,1.85-2.62,3.22-2.62,4.12s.6,1.62,1.82,2.17c1.21.55,3.04.82,5.48.82,2.97,0,6.46-.45,10.48-1.35.57-.12,1.1-.03,1.59.28.49.31.78.74.88,1.29ZM314.33,93.2c0,.57-.21,1.07-.64,1.5-.42.42-.92.64-1.5.64h-18.57c-.57,0-1.07-.21-1.5-.64-.42-.42-.64-.92-.64-1.5v-1.91c0-.57.21-1.07.64-1.5s.92-.64,1.5-.64h18.57c.57,0,1.07.21,1.5.64.42.42.64.92.64,1.5v1.91ZM308.79,98.55c.52-.27,1.07-.32,1.65-.15.57.17,1,.52,1.27,1.05.27.5.69,1.27,1.24,2.32.25.52.27,1.06.07,1.61-.2.55-.56.95-1.09,1.2-.55.25-1.1.28-1.65.08-.55-.2-.96-.56-1.24-1.09-.13-.22-.52-.96-1.2-2.21-.28-.5-.32-1.02-.15-1.57.17-.55.52-.96,1.05-1.24h.04ZM317.7,98.1c.82,1.57,1.25,2.38,1.27,2.43.27.52.32,1.06.13,1.61-.19.55-.54.95-1.07,1.2l-.11.08c-.52.25-1.07.28-1.63.09s-.98-.54-1.25-1.07c-.13-.25-.32-.64-.6-1.16-.28-.52-.49-.91-.64-1.16-.27-.5-.33-1.04-.17-1.61s.51-.99,1.03-1.24l.11-.04c.52-.27,1.07-.33,1.65-.17.57.16,1,.51,1.27,1.03Z"/>
      <path class="cls-4" d="M315.76,129.36c.57-.02,1.08.16,1.52.56.44.4.67.89.69,1.46l.04,1.72c.03.57-.16,1.09-.56,1.53s-.89.69-1.46.71c-.05,0-2.25.07-6.59.22-.2,0-.27.11-.22.34.57,1.92,1.5,3.99,2.77,6.21.27.5.32,1.01.15,1.52-.18.51-.51.88-1.01,1.1l-2.66,1.16c-1.17.5-2.45.46-3.82-.11-1.75-.75-3.56-1.12-5.43-1.12-1.02,0-1.84.27-2.45.82-.61.55-.92,1.27-.92,2.17,0,1.3.62,2.31,1.87,3.03,1.25.72,3.12,1.09,5.61,1.09,1.72,0,4.14-.25,7.26-.75.57-.1,1.1.02,1.59.36s.78.79.88,1.37l.37,1.8c.12.57.02,1.1-.32,1.59s-.79.78-1.37.88c-2.99.5-5.8.75-8.42.75-4.67,0-8.27-.93-10.8-2.79-2.53-1.86-3.8-4.42-3.8-7.69,0-2.6.91-4.68,2.73-6.25,1.82-1.57,4.28-2.36,7.37-2.36,1.4,0,2.87.19,4.42.56h.07v-.11c-.42-1.05-.75-2.05-.97-2.99-.05-.22-.18-.34-.37-.34-4.69.12-8.9.19-12.61.19-.6,0-1.1-.21-1.52-.64-.41-.42-.62-.92-.62-1.5v-1.72c0-.57.21-1.07.62-1.5.41-.42.9-.64,1.48-.64,2.6,0,6.51-.05,11.75-.15.15,0,.22-.11.22-.34-.03-.57-.06-1.17-.11-1.8-.03-.6.16-1.11.54-1.53.39-.42.88-.66,1.48-.71l2.47-.15c.57-.03,1.08.16,1.52.56.44.4.68.89.73,1.46.02.45.06,1.1.11,1.95,0,.22.11.34.34.34.3,0,.75-.01,1.37-.04.61-.02,1.07-.04,1.37-.04.08,0,.13-.04.17-.11.04-.08.03-.14-.02-.19-.07-.15-.22-.44-.45-.88-.22-.44-.4-.77-.52-.99-.25-.47-.29-.97-.13-1.48.16-.51.48-.89.95-1.14.5-.25,1-.29,1.52-.11.51.17.9.51,1.18,1.01.12.22.3.55.52.99s.4.77.52.99c.22.47.26.95.11,1.42-.05.2,0,.3.15.3h.67ZM319.5,125.09c.12.25.31.61.54,1.09l.51,1.01c.25.5.29,1,.11,1.5-.18.5-.51.87-1.01,1.12-.5.25-1.01.29-1.52.11-.51-.17-.91-.51-1.18-1.01-.22-.45-.59-1.12-1.09-2.02-.25-.5-.29-1.01-.13-1.52.16-.51.49-.89.99-1.14.5-.25,1.02-.29,1.57-.11.55.18.95.5,1.2.97Z"/>
      <path class="cls-4" d="M306.36,182.1c.55.2.95.57,1.2,1.1.25.54.26,1.08.04,1.63-1.32,3.17-2.94,5.63-4.85,7.37-1.91,1.75-3.79,2.62-5.63,2.62-2.3,0-4.43-1.49-6.4-4.45-1.97-2.97-2.96-6.6-2.96-10.89,0-3.84.49-7.65,1.46-11.42.15-.6.48-1.07.99-1.42.51-.35,1.08-.49,1.7-.41l2.73.3c.55.05.98.31,1.29.77.31.46.41.97.28,1.52-.9,3.79-1.35,7.35-1.35,10.67,0,1.17.09,2.29.28,3.35.19,1.06.43,1.93.73,2.62.3.69.6,1.24.92,1.65.31.41.6.62.88.62.4,0,.95-.44,1.65-1.33.7-.89,1.43-2.18,2.21-3.87.25-.52.64-.9,1.18-1.12.54-.22,1.08-.24,1.63-.04l2.02.75ZM312.09,166.23c.6-.17,1.17-.14,1.72.11.55.25.94.65,1.16,1.2,2.57,6.24,3.97,13.25,4.19,21.04.02.57-.18,1.07-.6,1.5-.42.42-.92.64-1.5.64h-2.84c-.57,0-1.07-.21-1.5-.62-.42-.41-.65-.9-.67-1.48-.22-6.71-1.45-13.09-3.67-19.13-.2-.55-.17-1.08.08-1.59.25-.51.65-.84,1.2-.99l2.43-.67Z"/>
      <path class="cls-4" d="M315.94,202.95c.57,0,1.07.21,1.5.64.42.42.64.92.64,1.5v1.72c0,.57-.21,1.07-.64,1.5-.42.42-.92.64-1.5.64h-6.51c-.22,0-.34.11-.34.34v.86c0,.2.11.3.34.3h5.02c.57,0,1.07.21,1.5.64.42.42.64.92.64,1.5v1.53c0,.57-.21,1.07-.64,1.5-.42.42-.92.64-1.5.64h-5.02c-.22,0-.34.11-.34.34v3.89c0,.22.1.4.3.52,2.07,1.3,4.19,2.92,6.36,4.87.42.4.66.89.69,1.48.04.59-.14,1.09-.54,1.52l-1.27,1.35c-.4.42-.89.65-1.46.69-.57.04-1.07-.14-1.5-.54-.95-.87-1.91-1.7-2.88-2.47-.15-.15-.29-.11-.41.11-.6,1.6-1.66,2.75-3.18,3.46s-3.59,1.07-6.21,1.07c-2.82,0-5.02-.66-6.61-1.97-1.58-1.31-2.38-3.15-2.38-5.52s.77-4.09,2.32-5.37c1.55-1.28,3.77-1.93,6.66-1.93,1.1,0,2.12.09,3.07.26.2.05.3-.04.3-.26v-1.16c0-.22-.1-.34-.3-.34h-10.29c-.57,0-1.07-.21-1.5-.64-.42-.42-.64-.92-.64-1.5v-1.53c0-.57.21-1.07.64-1.5.42-.42.92-.64,1.5-.64h10.29c.2,0,.3-.1.3-.3v-.86c0-.22-.1-.34-.3-.34h-11.79c-.57,0-1.07-.21-1.5-.64-.42-.42-.64-.92-.64-1.5v-1.72c0-.57.21-1.07.64-1.5s.92-.64,1.5-.64h11.79c.2,0,.3-.11.3-.34v-.52c0-.57.21-1.07.64-1.5s.92-.64,1.5-.64h2.47c.57,0,1.07.21,1.5.64.42.42.64.92.64,1.5v.52c0,.22.11.34.34.34h6.51ZM298.99,226.54c1.27,0,2.13-.14,2.56-.41.44-.27.69-.87.77-1.8,0-.22-.08-.35-.22-.37-.9-.27-1.68-.41-2.36-.41-2,0-2.99.5-2.99,1.5s.75,1.5,2.25,1.5Z"/>
      <path class="cls-4" d="M317.44,240.01c.57,0,1.07.21,1.5.64.42.42.64.92.64,1.5v1.35c0,.57-.21,1.07-.64,1.5-.42.42-.92.64-1.5.64h-7.3c-.2,0-.3.11-.3.34v6.1c0,.13.05.31.15.56.77,1.6,1.16,3.26,1.16,4.98,0,3.67-1.04,6.46-3.11,8.37s-5.52,3.16-10.33,3.76c-.6.07-1.13-.07-1.59-.43-.46-.36-.75-.84-.88-1.44l-.37-1.8c-.1-.55.02-1.05.37-1.52.35-.46.81-.72,1.38-.77,1.9-.2,3.34-.41,4.32-.64.99-.22,1.68-.47,2.08-.75.4-.27.71-.65.94-1.12.02-.02.04-.06.04-.11s.01-.09.04-.11v-.07h-.08c-1.27.5-2.56.75-3.86.75-2.45,0-4.43-.69-5.95-2.06s-2.28-3.18-2.28-5.43.77-4.09,2.32-5.45c1.55-1.36,3.64-2.04,6.29-2.04.77,0,1.61.13,2.51.37h.07s.04-.01.04-.04v-1.12c0-.22-.11-.34-.34-.34h-14c-.57,0-1.07-.21-1.5-.64s-.64-.92-.64-1.5v-1.35c0-.57.21-1.07.64-1.5.42-.42.92-.64,1.5-.64h14c.22,0,.34-.11.34-.34v-.9c0-.57.21-1.07.64-1.5.42-.42.92-.64,1.5-.64h2.47c.57,0,1.07.21,1.5.64s.64.92.64,1.5v.9c0,.22.1.34.3.34h7.3ZM299.16,255.85c.49.42,1.12.64,1.89.64s1.4-.21,1.89-.64c.49-.42.73-.96.73-1.61s-.24-1.19-.73-1.61c-.49-.42-1.12-.64-1.89-.64s-1.4.21-1.89.64c-.49.42-.73.96-.73,1.61s.24,1.19.73,1.61Z"/>
      <path class="cls-4" d="M305.46,277.44c.57,0,1.06.21,1.46.64.4.42.59.92.56,1.5l-.9,14.07c-.05.6-.29,1.1-.71,1.52-.42.41-.94.62-1.53.62h-2.47c-.6,0-1.11-.21-1.53-.62-.42-.41-.66-.92-.71-1.52l-.9-14.07c-.03-.57.16-1.07.56-1.5.4-.42.89-.64,1.46-.64h4.72ZM304.71,298.78c.57,0,1.07.21,1.5.64.42.42.64.92.64,1.5v1.72c0,.57-.21,1.07-.64,1.5-.42.42-.92.64-1.5.64h-3.22c-.57,0-1.07-.21-1.5-.64-.42-.42-.64-.92-.64-1.5v-1.72c0-.57.21-1.07.64-1.5.42-.42.92-.64,1.5-.64h3.22Z"/>
    </g>
    <g>
      <path d="M342.22,25.04c3.64,0,6.61.91,8.91,2.71,2.3,1.81,3.44,4.02,3.44,6.64,0,5.49-2.92,8.87-8.76,10.14-.57.12-1.12.02-1.63-.32-.51-.34-.84-.81-.99-1.4l-.45-1.87c-.13-.55-.04-1.07.26-1.55.3-.49.72-.81,1.27-.96,1.22-.35,2.09-.81,2.6-1.38.51-.57.77-1.34.77-2.28s-.51-1.72-1.52-2.38c-1.01-.66-2.31-.99-3.91-.99h-.79c-.22,0-.34.11-.34.34v5.65c0,2.77-.5,4.65-1.5,5.63-1,.99-2.87,1.48-5.61,1.48s-5.09-.81-6.94-2.43c-1.86-1.62-2.79-3.68-2.79-6.18,0-2.17.85-4.14,2.56-5.9,1.71-1.76,4.12-3.08,7.24-3.95.2-.05.3-.19.3-.41v-3.29c0-.2-.11-.3-.34-.3h-5.76c-.57,0-1.07-.21-1.5-.64-.42-.42-.64-.92-.64-1.5v-1.35c0-.57.21-1.07.64-1.5.42-.42.92-.64,1.5-.64h5.76c.22,0,.34-.11.34-.34v-1.65c0-.57.21-1.07.64-1.5.42-.42.92-.64,1.5-.64h2.47c.57,0,1.07.21,1.5.64.42.42.64.92.64,1.5v1.65c0,.22.11.34.34.34h4.64c.57,0,1.07.21,1.5.64.42.42.64.92.64,1.5v1.35c0,.57-.21,1.07-.64,1.5-.42.42-.92.64-1.5.64h-4.64c-.22,0-.34.1-.34.3v2.4c0,.2.11.3.34.3h.79ZM334.36,36.83v-4.08c0-.07-.04-.13-.11-.17-.07-.04-.15-.04-.22-.02-2.02.8-3.03,1.91-3.03,3.33,0,.6.24,1.16.71,1.67.47.51.99.77,1.53.77.47,0,.78-.09.92-.26.14-.17.21-.59.21-1.24ZM358.02,22.27c.27.5.34,1.03.19,1.59s-.49.97-1.01,1.22l-1.12.6c-.52.27-1.07.32-1.63.15s-.99-.52-1.29-1.05c-.92-1.62-1.96-3.36-3.11-5.2-.3-.5-.39-1.04-.26-1.61.12-.57.44-1.01.94-1.31l1.05-.6c.5-.3,1.03-.39,1.59-.26s1,.44,1.33.94c1.05,1.67,2.16,3.52,3.33,5.54Z"/>
      <path d="M331.03,51.39c.55.05.99.31,1.31.79.32.47.42.99.3,1.53-.85,3.94-1.27,8.24-1.27,12.88s.42,8.93,1.27,12.88c.12.57.02,1.09-.3,1.55-.32.46-.76.72-1.31.77l-2.43.3c-.6.07-1.15-.06-1.65-.41-.5-.35-.81-.82-.94-1.42-.92-4.29-1.38-8.85-1.38-13.66s.46-9.37,1.38-13.66c.13-.6.44-1.07.94-1.42.5-.35,1.05-.49,1.65-.41l2.43.3ZM355.06,55.73c.57,0,1.07.21,1.5.64.42.42.64.92.64,1.5v1.72c0,.57-.21,1.07-.64,1.5-.42.42-.92.64-1.5.64h-3.14c-.22,0-.34.11-.34.34v8.27c0,.17.09.35.26.52.95.87,2.37,2.3,4.27,4.27.42.42.63.94.62,1.53-.01.6-.23,1.11-.66,1.54l-1.31,1.31c-.42.4-.92.59-1.5.58-.57-.01-1.06-.23-1.46-.65-.2-.2-.47-.5-.82-.9-.15-.15-.27-.12-.37.07-1.4,2.47-3.94,3.71-7.64,3.71-2.94,0-5.24-.69-6.89-2.08-1.65-1.38-2.47-3.31-2.47-5.78s.81-4.34,2.43-5.75c1.62-1.41,3.93-2.12,6.92-2.12.55,0,1.06.04,1.53.11.22.05.34-.04.34-.26v-4.38c0-.22-.1-.34-.3-.34h-7.3c-.57,0-1.07-.21-1.5-.64s-.64-.92-.64-1.5v-1.72c0-.57.21-1.07.64-1.5.42-.42.92-.64,1.5-.64h7.3c.2,0,.3-.11.3-.34v-2.77c0-.57.21-1.07.64-1.5.42-.42.92-.64,1.5-.64h2.47c.57,0,1.07.21,1.5.64.42.42.64.92.64,1.5v2.77c0,.22.11.34.34.34h3.14ZM344.84,74.07v-.6c0-.25-.1-.41-.3-.49-.57-.27-1.22-.41-1.95-.41-1.75,0-2.62.62-2.62,1.87s.87,1.87,2.62,1.87c.8,0,1.37-.17,1.72-.52.35-.35.52-.92.52-1.72Z"/>
      <path d="M345.18,98.78c-.22,0-.34.1-.34.3v6.4c0,.22.1.37.3.45,2.3,1.15,5.38,3.24,9.25,6.29.45.35.7.82.77,1.4.06.59-.11,1.09-.51,1.52l-1.46,1.72c-.4.45-.89.7-1.48.75-.59.05-1.12-.11-1.59-.49-2.15-1.7-3.86-3.01-5.13-3.93-.15-.1-.25-.05-.3.15-.7,4.52-3.77,6.78-9.21,6.78-3.19,0-5.68-.74-7.45-2.21s-2.66-3.48-2.66-6.03.87-4.55,2.62-6.03c1.75-1.47,4.24-2.21,7.49-2.21.42,0,1.06.02,1.91.07.22,0,.34-.1.34-.3v-13.74c0-.57.21-1.07.64-1.5s.92-.64,1.5-.64h2.84c.57,0,1.07.21,1.5.64.42.42.64.92.64,1.5v2.77c0,.22.11.34.34.34h8.01c.57,0,1.07.21,1.5.64.42.42.64.92.64,1.5v1.72c0,.57-.21,1.07-.64,1.5-.42.42-.92.64-1.5.64h-8.01ZM337.73,111.13v-1.05c0-.2-.11-.32-.34-.37-.4-.05-1.04-.08-1.91-.08-2.25,0-3.37.75-3.37,2.25,0,.77.26,1.34.79,1.7.52.36,1.39.54,2.58.54.85,0,1.43-.21,1.76-.62.32-.41.49-1.2.49-2.38Z"/>
      <path d="M343.34,135.1c3.89,0,6.86.76,8.91,2.28,2.05,1.52,3.07,3.63,3.07,6.33,0,7.56-6.53,11.99-19.58,13.29-.6.05-1.13-.11-1.59-.47-.46-.36-.74-.84-.84-1.44l-.34-1.98c-.1-.57.03-1.09.39-1.55.36-.46.83-.73,1.4-.81,4.82-.62,8.26-1.49,10.33-2.6s3.11-2.46,3.11-4.06c0-.87-.4-1.53-1.2-1.96-.8-.44-2.15-.66-4.04-.66-2.94,0-7.5.66-13.66,1.98-.57.12-1.11.03-1.61-.28-.5-.31-.81-.75-.94-1.33l-.52-2.06c-.13-.57-.04-1.12.26-1.63.3-.51.74-.83,1.31-.95,5.89-1.4,11.07-2.1,15.53-2.1ZM333.87,125.59c4.89.5,9.59.79,14.11.86.57.02,1.07.25,1.48.67.41.42.62.92.62,1.5v2.1c0,.6-.22,1.11-.65,1.52-.44.41-.94.6-1.52.58-4.87-.12-9.8-.46-14.79-1.01-.57-.05-1.05-.31-1.42-.79-.37-.47-.52-1-.45-1.57l.22-1.98c.07-.57.35-1.04.82-1.4.47-.36,1-.52,1.57-.47Z"/>
      <path d="M315.87,113.6l.49,2.17c.12.57.02,1.12-.3,1.63s-.77.83-1.35.95c-4.34.92-8.27,1.39-11.79,1.39-4.59,0-8.17-.79-10.74-2.36-2.57-1.57-3.86-3.66-3.86-6.25,0-1.32.35-2.65,1.05-3.99.7-1.33,1.91-2.89,3.63-4.66.42-.42.94-.65,1.55-.69.61-.04,1.17.12,1.67.47l1.8,1.27c.45.32.69.76.73,1.31.04.55-.13,1.02-.51,1.42-1.75,1.85-2.62,3.22-2.62,4.12s.6,1.62,1.82,2.17c1.21.55,3.04.82,5.48.82,2.97,0,6.46-.45,10.48-1.35.57-.12,1.1-.03,1.59.28.49.31.78.74.88,1.29ZM314.52,93.09c0,.57-.21,1.07-.64,1.5-.42.42-.92.64-1.5.64h-18.57c-.57,0-1.07-.21-1.5-.64-.42-.42-.64-.92-.64-1.5v-1.91c0-.57.21-1.07.64-1.5s.92-.64,1.5-.64h18.57c.57,0,1.07.21,1.5.64.42.42.64.92.64,1.5v1.91ZM308.98,98.44c.52-.27,1.07-.32,1.65-.15.57.17,1,.52,1.27,1.05.27.5.69,1.27,1.24,2.32.25.52.27,1.06.07,1.61-.2.55-.56.95-1.09,1.2-.55.25-1.1.28-1.65.08-.55-.2-.96-.56-1.24-1.09-.13-.22-.52-.96-1.2-2.21-.28-.5-.32-1.02-.15-1.57.17-.55.52-.96,1.05-1.24h.04ZM317.89,97.99c.82,1.57,1.25,2.38,1.27,2.43.27.52.32,1.06.13,1.61-.19.55-.54.95-1.07,1.2l-.11.08c-.52.25-1.07.28-1.63.09s-.98-.54-1.25-1.07c-.13-.25-.32-.64-.6-1.16-.28-.52-.49-.91-.64-1.16-.27-.5-.33-1.04-.17-1.61s.51-.99,1.03-1.24l.11-.04c.52-.27,1.07-.33,1.65-.17.57.16,1,.51,1.27,1.03Z"/>
      <path d="M315.94,129.25c.57-.02,1.08.16,1.52.56.44.4.67.89.69,1.46l.04,1.72c.03.57-.16,1.09-.56,1.53s-.89.69-1.46.71c-.05,0-2.25.07-6.59.22-.2,0-.27.11-.22.34.57,1.92,1.5,3.99,2.77,6.21.27.5.32,1.01.15,1.52-.18.51-.51.88-1.01,1.1l-2.66,1.16c-1.17.5-2.45.46-3.82-.11-1.75-.75-3.56-1.12-5.43-1.12-1.02,0-1.84.27-2.45.82-.61.55-.92,1.27-.92,2.17,0,1.3.62,2.31,1.87,3.03,1.25.72,3.12,1.09,5.61,1.09,1.72,0,4.14-.25,7.26-.75.57-.1,1.1.02,1.59.36s.78.79.88,1.37l.37,1.8c.12.57.02,1.1-.32,1.59s-.79.78-1.37.88c-2.99.5-5.8.75-8.42.75-4.67,0-8.27-.93-10.8-2.79-2.53-1.86-3.8-4.42-3.8-7.69,0-2.6.91-4.68,2.73-6.25,1.82-1.57,4.28-2.36,7.37-2.36,1.4,0,2.87.19,4.42.56h.07v-.11c-.42-1.05-.75-2.05-.97-2.99-.05-.22-.18-.34-.37-.34-4.69.12-8.9.19-12.61.19-.6,0-1.1-.21-1.52-.64-.41-.42-.62-.92-.62-1.5v-1.72c0-.57.21-1.07.62-1.5.41-.42.9-.64,1.48-.64,2.6,0,6.51-.05,11.75-.15.15,0,.22-.11.22-.34-.03-.57-.06-1.17-.11-1.8-.03-.6.16-1.11.54-1.53.39-.42.88-.66,1.48-.71l2.47-.15c.57-.03,1.08.16,1.52.56.44.4.68.89.73,1.46.02.45.06,1.1.11,1.95,0,.22.11.34.34.34.3,0,.75-.01,1.37-.04.61-.02,1.07-.04,1.37-.04.08,0,.13-.04.17-.11.04-.08.03-.14-.02-.19-.07-.15-.22-.44-.45-.88-.22-.44-.4-.77-.52-.99-.25-.47-.29-.97-.13-1.48.16-.51.48-.89.95-1.14.5-.25,1-.29,1.52-.11.51.17.9.51,1.18,1.01.12.22.3.55.52.99s.4.77.52.99c.22.47.26.95.11,1.42-.05.2,0,.3.15.3h.67ZM319.69,124.98c.12.25.31.61.54,1.09l.51,1.01c.25.5.29,1,.11,1.5-.18.5-.51.87-1.01,1.12-.5.25-1.01.29-1.52.11-.51-.17-.91-.51-1.18-1.01-.22-.45-.59-1.12-1.09-2.02-.25-.5-.29-1.01-.13-1.52.16-.51.49-.89.99-1.14.5-.25,1.02-.29,1.57-.11.55.18.95.5,1.2.97Z"/>
      <path d="M306.55,181.99c.55.2.95.57,1.2,1.1.25.54.26,1.08.04,1.63-1.32,3.17-2.94,5.63-4.85,7.37-1.91,1.75-3.79,2.62-5.63,2.62-2.3,0-4.43-1.49-6.4-4.45-1.97-2.97-2.96-6.6-2.96-10.89,0-3.84.49-7.65,1.46-11.42.15-.6.48-1.07.99-1.42.51-.35,1.08-.49,1.7-.41l2.73.3c.55.05.98.31,1.29.77.31.46.41.97.28,1.52-.9,3.79-1.35,7.35-1.35,10.67,0,1.17.09,2.29.28,3.35.19,1.06.43,1.93.73,2.62.3.69.6,1.24.92,1.65.31.41.6.62.88.62.4,0,.95-.44,1.65-1.33.7-.89,1.43-2.18,2.21-3.87.25-.52.64-.9,1.18-1.12.54-.22,1.08-.24,1.63-.04l2.02.75ZM312.27,166.12c.6-.17,1.17-.14,1.72.11.55.25.94.65,1.16,1.2,2.57,6.24,3.97,13.25,4.19,21.04.02.57-.18,1.07-.6,1.5-.42.42-.92.64-1.5.64h-2.84c-.57,0-1.07-.21-1.5-.62-.42-.41-.65-.9-.67-1.48-.22-6.71-1.45-13.09-3.67-19.13-.2-.55-.17-1.08.08-1.59.25-.51.65-.84,1.2-.99l2.43-.67Z"/>
      <path d="M316.13,202.84c.57,0,1.07.21,1.5.64.42.42.64.92.64,1.5v1.72c0,.57-.21,1.07-.64,1.5-.42.42-.92.64-1.5.64h-6.51c-.22,0-.34.11-.34.34v.86c0,.2.11.3.34.3h5.02c.57,0,1.07.21,1.5.64.42.42.64.92.64,1.5v1.53c0,.57-.21,1.07-.64,1.5-.42.42-.92.64-1.5.64h-5.02c-.22,0-.34.11-.34.34v3.89c0,.22.1.4.3.52,2.07,1.3,4.19,2.92,6.36,4.87.42.4.66.89.69,1.48.04.59-.14,1.09-.54,1.52l-1.27,1.35c-.4.42-.89.65-1.46.69-.57.04-1.07-.14-1.5-.54-.95-.87-1.91-1.7-2.88-2.47-.15-.15-.29-.11-.41.11-.6,1.6-1.66,2.75-3.18,3.46s-3.59,1.07-6.21,1.07c-2.82,0-5.02-.66-6.61-1.97-1.58-1.31-2.38-3.15-2.38-5.52s.77-4.09,2.32-5.37c1.55-1.28,3.77-1.93,6.66-1.93,1.1,0,2.12.09,3.07.26.2.05.3-.04.3-.26v-1.16c0-.22-.1-.34-.3-.34h-10.29c-.57,0-1.07-.21-1.5-.64-.42-.42-.64-.92-.64-1.5v-1.53c0-.57.21-1.07.64-1.5.42-.42.92-.64,1.5-.64h10.29c.2,0,.3-.1.3-.3v-.86c0-.22-.1-.34-.3-.34h-11.79c-.57,0-1.07-.21-1.5-.64-.42-.42-.64-.92-.64-1.5v-1.72c0-.57.21-1.07.64-1.5s.92-.64,1.5-.64h11.79c.2,0,.3-.11.3-.34v-.52c0-.57.21-1.07.64-1.5s.92-.64,1.5-.64h2.47c.57,0,1.07.21,1.5.64.42.42.64.92.64,1.5v.52c0,.22.11.34.34.34h6.51ZM299.17,226.42c1.27,0,2.13-.14,2.56-.41.44-.27.69-.87.77-1.8,0-.22-.08-.35-.22-.37-.9-.27-1.68-.41-2.36-.41-2,0-2.99.5-2.99,1.5s.75,1.5,2.25,1.5Z"/>
      <path d="M317.63,239.9c.57,0,1.07.21,1.5.64.42.42.64.92.64,1.5v1.35c0,.57-.21,1.07-.64,1.5-.42.42-.92.64-1.5.64h-7.3c-.2,0-.3.11-.3.34v6.1c0,.13.05.31.15.56.77,1.6,1.16,3.26,1.16,4.98,0,3.67-1.04,6.46-3.11,8.37s-5.52,3.16-10.33,3.76c-.6.07-1.13-.07-1.59-.43-.46-.36-.75-.84-.88-1.44l-.37-1.8c-.1-.55.02-1.05.37-1.52.35-.46.81-.72,1.38-.77,1.9-.2,3.34-.41,4.32-.64.99-.22,1.68-.47,2.08-.75.4-.27.71-.65.94-1.12.02-.02.04-.06.04-.11s.01-.09.04-.11v-.07h-.08c-1.27.5-2.56.75-3.86.75-2.45,0-4.43-.69-5.95-2.06s-2.28-3.18-2.28-5.43.77-4.09,2.32-5.45c1.55-1.36,3.64-2.04,6.29-2.04.77,0,1.61.13,2.51.37h.07s.04-.01.04-.04v-1.12c0-.22-.11-.34-.34-.34h-14c-.57,0-1.07-.21-1.5-.64s-.64-.92-.64-1.5v-1.35c0-.57.21-1.07.64-1.5.42-.42.92-.64,1.5-.64h14c.22,0,.34-.11.34-.34v-.9c0-.57.21-1.07.64-1.5.42-.42.92-.64,1.5-.64h2.47c.57,0,1.07.21,1.5.64s.64.92.64,1.5v.9c0,.22.1.34.3.34h7.3ZM299.34,255.73c.49.42,1.12.64,1.89.64s1.4-.21,1.89-.64c.49-.42.73-.96.73-1.61s-.24-1.19-.73-1.61c-.49-.42-1.12-.64-1.89-.64s-1.4.21-1.89.64c-.49.42-.73.96-.73,1.61s.24,1.19.73,1.61Z"/>
      <path d="M305.65,277.33c.57,0,1.06.21,1.46.64.4.42.59.92.56,1.5l-.9,14.07c-.05.6-.29,1.1-.71,1.52-.42.41-.94.62-1.53.62h-2.47c-.6,0-1.11-.21-1.53-.62-.42-.41-.66-.92-.71-1.52l-.9-14.07c-.03-.57.16-1.07.56-1.5.4-.42.89-.64,1.46-.64h4.72ZM304.9,298.67c.57,0,1.07.21,1.5.64.42.42.64.92.64,1.5v1.72c0,.57-.21,1.07-.64,1.5-.42.42-.92.64-1.5.64h-3.22c-.57,0-1.07-.21-1.5-.64-.42-.42-.64-.92-.64-1.5v-1.72c0-.57.21-1.07.64-1.5.42-.42.92-.64,1.5-.64h3.22Z"/>
    </g>
    <g>
      <ellipse class="cls-11" cx="64.72" cy="98.42" rx="38.11" ry="7.83"/>
      <rect class="cls-13" x="36.7" y="18.28" width="3.22" height="30.05" rx="1.61" ry="1.61" transform="translate(88.97 36.49) rotate(142.61)"/>
      <path class="cls-3" d="M30.35,22.89c-7.44,5.68-9.64,15.3-4.92,21.47l26.93-20.58c-4.72-6.17-14.57-6.57-22.01-.89Z"/>
      <rect class="cls-13" x="89.39" y="18.28" width="3.22" height="30.05" rx="1.61" ry="1.61" transform="translate(38.93 -48.42) rotate(37.39)"/>
      <path class="cls-3" d="M98.96,22.89c7.44,5.68,9.64,15.3,4.92,21.47l-26.93-20.58c4.72-6.17,14.57-6.57,22.01-.89Z"/>
      <path class="cls-13" d="M67.2,19.48h-4.96c-.87,0-1.58.62-1.58,1.39s.71,1.39,1.58,1.39h1.33v5.53h1.94v-5.53h1.69c.87,0,1.58-.62,1.58-1.39s-.71-1.39-1.58-1.39Z"/>
      <polygon class="cls-13" points="42.6 101.63 40.29 99.86 48.97 86.76 52.98 89.82 42.6 101.63"/>
      <polygon class="cls-13" points="86.19 101.63 88.5 99.86 79.82 86.76 75.82 89.82 86.19 101.63"/>
      <ellipse class="cls-12" cx="64.72" cy="62.86" rx="34.4" ry="34.37"/>
      <ellipse class="cls-5" cx="64.72" cy="62.86" rx="29.18" ry="29.15"/>
      <line class="cls-6" x1="64.72" y1="63.4" x2="64.72" y2="43.11"/>
      <line class="cls-6" x1="64.72" y1="63.4" x2="64.72" y2="77.45"/>
      <circle class="cls-10" cx="64.72" cy="63.4" r="1.09"/>
    </g>
    <path class="cls-15" d="M256.12,198.95c-59.89,116.57-35.19,93.5-153.05,92.15-99.89-1.15-87.64-14.96-39.02-96.63,72.01-120.95,55.61-82.22,148.76-87.96,87.75-5.41,76.58,27.7,43.31,92.45Z"/>
    <path class="cls-1" d="M278.09,122.04c-4.99-9.57-18.92-13.08-18.92-13.08,25.38,8.58,11.66,33.63-9.09,75.67l12.43,3.83,16.72-42.74s4-13.8-1.15-23.67Z"/>
    <ellipse class="cls-7" cx="112.17" cy="101.12" rx="9.34" ry="17.54" transform="translate(-34.88 66.73) rotate(-28.87)"/>
    <path class="cls-9" d="M134.15,158.13c-20.94-17.87-31.57-47.66-31.57-47.66l20.33-16.12c9.01,30.36,26.48,42.15,26.48,42.15l-15.24,21.63Z"/>
    <ellipse class="cls-9" cx="172.11" cy="173.43" rx="40.61" ry="66.62"/>
    <rect class="cls-5" x="137.13" y="41.03" width="76.98" height="114.29" transform="translate(77.22 273.66) rotate(-89.93)"/>
    <polygon class="cls-8" points="232.71 136.73 238.22 132.22 238.2 54.76 232.81 59.76 232.71 136.73"/>
    <polygon class="cls-5" points="118.52 59.61 123.17 54.83 238.2 54.76 232.81 59.76 118.52 59.61"/>
    <ellipse class="cls-7" cx="247.13" cy="106.05" rx="17.53" ry="9.34" transform="translate(21.32 252.1) rotate(-56.12)"/>
    <path class="cls-1" d="M230.42,97.95c-11.98,28.81-29.21,38.74-29.21,38.74,0,0,10.74-5.51,10.07,21.14,21.88-15.09,36.47-42.15,36.47-42.15l-17.34-17.73Z"/>
    <path class="cls-9" d="M233.23,97.95c-12.44,28.81-27.6,38.78-27.6,38.78,0,0,4.04,8.23,6.34,24.2,22.72-15.09,39.38-44.67,39.38-44.67l-18.11-18.31Z"/>
    <ellipse class="cls-2" cx="175.05" cy="98.17" rx="23.14" ry="23.34"/>
    <path class="cls-14" d="M134.51,69.39c-.11,1.41-1.98,4.66-2.78,7.68-.96,3.6,1.45,6.75,3.25,6.75,1.8,0,3.71-3.04,3.26-6.74-.22-1.77-1.33-3.33-1.62-4.77"/>
    <path class="cls-2" d="M240.97,52.14c30.54,28.99,1.05,7.65.72,19.08-1.2,41.04-10.82,12.32-30.78,2.17-25.65-13.04-104.79-4.36-47.26-30.08,15.75-7.04,49.19-17.87,77.32,8.83Z"/>
    <path class="cls-1" d="M236.58,48.3c25.38,24.27-2.91,4.4-2.95,15.47-.1,26.41-4.44,24.29-12.94,16.42,0,0,11.19,11.92,15.45,12.44,4.26.53,6.29-12.15,5.78-22.77,0,0-.98-4.58,11.06-1.6,10.11,2.5-16.38-19.96-16.38-19.96Z"/>
    <ellipse class="cls-5" cx="264.82" cy="74.84" rx="10.69" ry="10.78"/>
    <path class="cls-5" d="M58.02,179.51c-4.43,6.47-9.22,13.56-14.44,21.32-53.42,79.56-30.44,94.13,42.87,94.13,129.5,0,109.31,24.06,165.52-95.05,2.11-4.46,4.16-8.73,6.13-12.81l-200.09-7.59Z"/>
    <path class="cls-1" d="M244.45,186.58c-1.02,5.12-3.16,8.92-5.57,14.03-37.28,78.99-38.38,93.95-74.4,95.79,0,0,25.59.89,37.5-7.82,12.38-9.05,33.28-52.59,33.28-52.59l22.85-48.89-13.67-.52Z"/>
    <path class="cls-16" d="M85.91,180.57c-4.21,6.06-9.31,14-14.62,21.89-38.13,56.79-21.73,67.19,30.6,67.19,92.44,0,78.03,17.17,118.15-67.85,2.52-5.35,5.29-11.28,7.5-15.86l-141.64-5.37Z"/>
    <path class="cls-1" d="M249.45,197.02c-23.61,63.94,15.22,5.35-152.1,13.79-54.46,2.74-75.54,17.75-46.21-22.99,22.7-31.53,63.6-31.48,156.99-19.56,51.84,6.62,41.32,28.77,41.32,28.77Z"/>
    <path class="cls-15" d="M263.24,190.22c-25.62,63.94,16.52,5.35-165.09,13.79-59.11,2.74-81.99,17.75-50.15-22.99,24.64-31.53,69.03-31.48,170.4-19.56,56.27,6.62,44.85,28.77,44.85,28.77Z"/>
    <path class="cls-1" d="M254.27,171.8s-12.39,28.25-17.96,45.08c0,0,11.88,5.44,14.38,2.86.8-.82,2.05-2.02,4.56-8.26,2.01-5,8.93-24.19,8.93-24.19,0,0,2.2-8.73-9.92-15.49Z"/>
  </g>
</svg>