<?xml version="1.0" encoding="UTF-8"?>
<svg id="_レイヤー_1" data-name="レイヤー 1" xmlns="http://www.w3.org/2000/svg" viewBox="0 0 370 320">
  <defs>
    <style>
      .cls-1 {
        fill: #fff000;
      }

      .cls-1, .cls-2, .cls-3, .cls-4, .cls-5, .cls-6, .cls-7, .cls-8, .cls-9 {
        stroke-linecap: round;
        stroke-linejoin: round;
      }

      .cls-1, .cls-2, .cls-4, .cls-5, .cls-6, .cls-7, .cls-8, .cls-9 {
        stroke: #000;
        stroke-width: 2px;
      }

      .cls-2 {
        fill: red;
      }

      .cls-3 {
        stroke: #fff;
        stroke-width: 5px;
      }

      .cls-3, .cls-4 {
        fill: #fff;
      }

      .cls-5 {
        fill: none;
      }

      .cls-6 {
        fill: #1b1464;
      }

      .cls-7 {
        opacity: .3;
      }

      .cls-8 {
        fill: #40210f;
      }

      .cls-9 {
        fill: #009fe8;
      }
    </style>
  </defs>
  <g id="_本音は墓場まで" data-name="本音は墓場まで">
    <g>
      <path class="cls-3" d="M340.98,36.28c.59.31,1,.78,1.21,1.4.21.62.18,1.23-.11,1.82l-.64,1.19c-.56,1.1-1.44,1.54-2.63,1.31-.23-.06-.34.04-.34.3v1.14c0,.42-.15.78-.44,1.08-.3.3-.66.45-1.08.45-.03,0-.06.01-.08.04-.03.03-.03.06,0,.08.48.37,1.16.9,2.05,1.61.89.71,1.4,1.12,1.55,1.23.51.4.78.92.8,1.57.03.65-.18,1.2-.64,1.65l-1.14,1.19c-.45.48-1.02.74-1.71.78-.69.04-1.31-.15-1.84-.57-1.72-1.41-3.57-2.85-5.55-4.32-.48-.37-.76-.85-.83-1.44-.07-.59.11-1.12.53-1.57.06-.06.07-.11.04-.17-.03-.06-.07-.08-.13-.08h-1.95c-.25,0-.38.13-.38.38v.04c0,1.44-.02,2.56-.06,3.37s-.18,1.57-.4,2.29c-.23.72-.48,1.23-.76,1.54-.28.31-.77.58-1.46.8-.69.23-1.42.36-2.18.4-.76.04-1.82.06-3.18.06-1.24,0-2.43-.03-3.56-.08-.68-.03-1.26-.29-1.74-.78-.48-.49-.75-1.08-.8-1.76l-.17-1.95c0-.23-.1-.27-.3-.13-1.33,1.16-2.78,2.29-4.36,3.39-.56.39-1.19.54-1.86.44-.68-.1-1.26-.4-1.74-.91l-1.02-1.1c-.42-.48-.59-1.02-.51-1.63.08-.61.4-1.09.93-1.46,1.24-.82,2.5-1.74,3.77-2.75.03-.03.03-.06.02-.11-.01-.04-.04-.06-.06-.06-.54,0-1-.19-1.38-.57-.38-.38-.57-.84-.57-1.38v-.8c0-.2-.11-.27-.34-.21-.54.17-1.07.13-1.61-.13-.54-.25-.93-.65-1.19-1.19l-.51-1.19c-.28-.59-.3-1.19-.06-1.8.24-.61.66-1.05,1.25-1.33.06-.03.17-.08.34-.15.17-.07.3-.13.38-.19.08-.03.13-.1.15-.21.01-.11,0-.2-.06-.25l-.76-.89c-.4-.45-.55-.99-.47-1.61.08-.62.4-1.09.93-1.4l.3-.21c.23-.11.27-.27.13-.47l-.89-1.23c-.37-.51-.47-1.06-.3-1.65s.54-1.03,1.1-1.31c.17-.08.41-.2.72-.36.31-.15.54-.28.68-.36.03-.03.04-.06.04-.11s-.03-.06-.08-.06h-.3c-.65,0-1.21-.24-1.69-.72-.48-.48-.72-1.04-.72-1.69v-4.49c0-.65.24-1.21.72-1.69.48-.48,1.04-.72,1.69-.72h12.24c.25,0,.38-.13.38-.38v-.17c0-.65.24-1.21.72-1.69.48-.48,1.04-.72,1.69-.72h3.22c.65,0,1.21.24,1.69.72.48.48.72,1.04.72,1.69v.17c0,.25.13.38.38.38h12.24c.65,0,1.21.24,1.69.72s.72,1.04.72,1.69v4.49c0,1.02-.45,1.74-1.35,2.16-.2.08-.32.27-.38.55-.14,1.35-.61,2.54-1.4,3.56-1.07,1.35-1.93,2.37-2.58,3.05-.17.17-.14.31.08.42,1.35.96,3.08,1.98,5.17,3.05ZM310.58,32.76c.08-.03.13-.11.13-.23s-.03-.22-.08-.28c-.17-.17-.41-.42-.72-.74-.31-.32-.54-.57-.68-.74-.17-.17-.35-.2-.55-.08l-.89.51c-.2.11-.21.25-.04.42.17.17.41.43.72.78.31.35.55.61.72.78.17.23.35.25.55.08.08-.06.23-.14.42-.25.2-.11.34-.2.42-.25ZM310.54,22.26v.76c0,.08.03.15.11.19.07.04.13.04.19-.02.08-.06.2-.13.34-.23.14-.1.24-.18.3-.23,1.3-.96,2.63-1.1,3.98-.42l.89.47c.28.11.52.17.72.17h2.88c.2,0,.44-.06.72-.17l1.61-.72s.04-.06.04-.11-.03-.06-.08-.06h-11.31c-.25,0-.38.13-.38.38ZM311.47,39.24h21.93c.06,0,.08-.03.08-.08s-.01-.1-.04-.13c-.9-.59-1.82-1.24-2.75-1.95-.06-.06-.14-.08-.25-.08s-.18.04-.21.13c-.48.71-1.14,1.06-1.99,1.06h-11.26c-.85,0-1.51-.35-1.99-1.06-.11-.2-.27-.23-.47-.08-1.24.88-2.27,1.55-3.09,2.03-.03.03-.04.06-.04.11s.03.06.08.06ZM316.38,27.89c.06-.06.07-.12.04-.19-.03-.07-.07-.11-.13-.11h-2.67c-.08,0-.14.01-.17.04-.06.06-.06.11,0,.17.14.14.35.36.61.66.27.3.47.51.61.66.14.2.31.2.51,0,.28-.25.68-.66,1.19-1.23ZM319.64,46.65v-1.31c0-.25-.13-.38-.38-.38h-4.74c-.06,0-.08.03-.08.08s.01.1.04.13l.04.04c.4.34.61.76.64,1.27.03.51-.14.95-.51,1.31-.03.03-.04.07-.02.13.01.06.05.08.11.08,1.86.08,3.01.13,3.43.13.73,0,1.16-.06,1.29-.19.13-.13.19-.56.19-1.29ZM323.28,29.67c-.14-.17-.3-.17-.47,0-.51.59-1.31,1.44-2.41,2.54-.06.03-.07.08-.04.15.03.07.07.11.13.11h4.74c.06,0,.11-.04.15-.11.04-.07.04-.12-.02-.15-.68-.76-1.37-1.61-2.07-2.54ZM333.65,21.88h-7.62c-.06,0-.1.02-.13.06-.03.04-.01.09.04.15.2.14.37.37.51.68.31.59.8,1.43,1.48,2.5.03.03.06.03.11,0,.04-.03.06-.06.06-.08,0-.62.22-1.15.66-1.59.44-.44.97-.66,1.59-.66h3.3c.25,0,.38-.11.38-.34v-.34c0-.25-.13-.38-.38-.38ZM330.01,28.11c.45.51.8.89,1.06,1.14.17.17.34.17.51,0,.03-.03.38-.42,1.06-1.19.11-.17.07-.25-.13-.25h-2.37c-.06,0-.1.04-.13.11-.03.07-.03.13,0,.19Z"/>
      <path class="cls-3" d="M337.93,77.58c.62.23,1.07.64,1.33,1.23.27.59.28,1.2.02,1.82-2.06,4.86-4.56,8.38-7.49,10.59-2.94,2.2-6.35,3.3-10.25,3.3-3.47,0-6.15-.49-8.04-1.48-1.89-.99-3.28-2.7-4.17-5.12s-1.33-5.87-1.33-10.33c0-5.22.15-10.63.47-16.22.06-.68.33-1.25.83-1.71.49-.47,1.08-.68,1.76-.66l3.43.13c.65.03,1.19.28,1.63.76.44.48.64,1.04.61,1.69-.31,5.36-.47,10.7-.47,16,0,2.57.18,4.52.53,5.86.35,1.34.9,2.25,1.63,2.73.73.48,1.78.72,3.13.72,2.06,0,3.94-.69,5.63-2.08,1.69-1.38,3.3-3.7,4.83-6.94.31-.62.77-1.06,1.38-1.31.61-.25,1.22-.27,1.84-.04l2.71,1.06Z"/>
      <path class="cls-3" d="M337.68,102.91c.65-.03,1.22.18,1.71.63.49.45.75,1,.78,1.65l.04,2.37c.03.68-.18,1.26-.64,1.76-.45.49-1.02.77-1.69.83-5.39.54-9.46,1.8-12.22,3.79-2.75,1.99-4.13,4.41-4.13,7.26,0,2.37.83,4.27,2.48,5.7s3.79,2.14,6.41,2.14c.88,0,1.75-.06,2.63-.17.68-.08,1.28.06,1.8.44.52.38.83.9.91,1.55l.3,2.58c.08.68-.07,1.28-.47,1.82-.4.54-.93.85-1.61.93-1.3.17-2.63.25-3.98.25-5.19,0-9.35-1.31-12.47-3.94-3.12-2.63-4.68-6.11-4.68-10.46,0-1.92.57-3.92,1.71-5.99,1.14-2.08,2.67-3.86,4.59-5.36.03,0,.04-.03.04-.08,0-.03-.01-.04-.04-.04-4.04.11-8.06.2-12.07.25-.65,0-1.21-.24-1.67-.72-.47-.48-.7-1.04-.7-1.69v-2.37c0-.65.23-1.21.7-1.69.47-.48,1.02-.72,1.67-.72,10.92-.06,21.11-.3,30.57-.72Z"/>
      <path class="cls-3" d="M333.19,173.55c.51.4.8.92.87,1.59.07.66-.11,1.24-.53,1.71l-1.95,2.29c-.45.51-1.01.8-1.67.87-.66.07-1.26-.09-1.8-.49-4.04-3.02-8.37-6.12-13-9.32-2.77-1.92-4.67-3.32-5.72-4.21-1.04-.89-1.75-1.69-2.12-2.41-.37-.72-.55-1.7-.55-2.94,0-1.86.44-3.27,1.33-4.23.89-.96,3.21-2.62,6.97-5,4.38-2.74,8.43-5.41,12.15-8,.54-.39,1.14-.54,1.82-.42.68.11,1.21.44,1.61.97l1.78,2.46c.4.54.54,1.13.44,1.78-.1.65-.42,1.16-.95,1.52-3.44,2.37-7.37,4.91-11.77,7.62-1.69,1.04-2.79,1.77-3.3,2.18-.51.41-.76.78-.76,1.12s.22.7.66,1.08c.44.38,1.49,1.14,3.15,2.27,4.88,3.3,9.33,6.49,13.34,9.57Z"/>
      <path class="cls-3" d="M330.56,196.29h-12.66c-.23,0-.37.13-.42.38-1.61,8.16-3.54,15.95-5.8,23.37-.2.65-.59,1.14-1.19,1.48s-1.21.44-1.86.3l-2.96-.68c-.65-.14-1.13-.48-1.44-1.02-.31-.54-.37-1.11-.17-1.74,2.12-6.78,3.98-14.03,5.59-21.76.06-.23-.04-.34-.3-.34h-2.33c-.65,0-1.21-.24-1.69-.72-.48-.48-.72-1.04-.72-1.69v-1.95c0-.65.24-1.21.72-1.69s1.04-.72,1.69-.72h3.64c.23,0,.37-.11.42-.34.03-.23.08-.55.17-.97.08-.42.14-.73.17-.93.11-.68.43-1.23.95-1.65.52-.42,1.12-.61,1.8-.55l2.88.21c.65.06,1.17.35,1.57.87.39.52.54,1.09.42,1.71-.03.14-.06.35-.11.64s-.08.49-.11.63c-.06.25.04.38.3.38h11.43c.17,0,.37.03.59.08.06.03.11.01.15-.04s.05-.11.02-.17c-.08-.2-.23-.48-.42-.85-.2-.37-.34-.63-.42-.8-.28-.54-.33-1.09-.15-1.67.18-.58.54-1.01,1.08-1.29.56-.28,1.14-.32,1.71-.13.58.2,1.02.58,1.33,1.14.14.25.34.63.59,1.12.25.49.45.87.59,1.12.28.56.32,1.13.13,1.69-.2.57-.58.97-1.14,1.23-.54.23-1.03.28-1.48.17-.06-.03-.12-.01-.19.04-.07.06-.09.11-.06.17.06.23.08.42.08.59v1.95c0,.65-.24,1.21-.72,1.69-.48.48-1.04.72-1.69.72ZM339.2,216.44l.25,2.03c.08.68-.08,1.28-.49,1.8-.41.52-.94.84-1.59.95-2.26.31-4.43.46-6.52.46-4.18,0-7.48-.78-9.91-2.33-2.43-1.55-3.64-3.53-3.64-5.93,0-1.55.69-3.12,2.07-4.7,1.02-1.13,2.34-1.4,3.98-.8l1.65.63c.54.2.86.57.97,1.12.11.55-.01,1.04-.38,1.46-.45.51-.68.99-.68,1.44,0,.68.5,1.24,1.5,1.67,1,.44,2.48.66,4.42.66s3.92-.14,5.67-.42c.65-.11,1.23.03,1.76.42.52.4.83.9.91,1.52ZM321.08,201.24c-.06-.68.13-1.27.57-1.78.44-.51,1-.79,1.67-.85,4.88-.39,9.19-.61,12.91-.63.68,0,1.26.23,1.74.7.48.47.72,1.04.72,1.71v1.74c0,.65-.23,1.21-.7,1.69-.47.48-1.02.72-1.67.72-3.64.03-7.83.24-12.58.64-.65.06-1.23-.13-1.74-.57-.51-.44-.79-.98-.85-1.63l-.08-1.74ZM340.94,185.15c.14.28.35.69.61,1.23.27.54.46.92.57,1.14.28.57.32,1.13.13,1.69-.2.56-.58.99-1.14,1.27-.56.28-1.14.33-1.71.13-.58-.2-1.02-.58-1.33-1.14-.25-.51-.66-1.27-1.23-2.29-.28-.56-.33-1.14-.15-1.71.18-.58.56-1.01,1.12-1.29.56-.28,1.16-.32,1.78-.13.62.2,1.07.57,1.35,1.1Z"/>
      <path class="cls-3" d="M337.34,231.46c.65-.03,1.22.18,1.71.63.49.45.75,1,.78,1.65l.04,1.95c.03.65-.18,1.23-.63,1.74-.45.51-1,.78-1.65.8-.71.03-1.75.06-3.13.11-1.38.04-2.43.08-3.13.11-.23,0-.31.13-.25.38.68,2.37,1.75,4.84,3.22,7.41.31.56.37,1.14.17,1.71-.2.58-.58,1-1.14,1.25l-3.01,1.31c-1.33.56-2.77.52-4.32-.13-1.98-.85-4.02-1.27-6.14-1.27-1.52,0-2.68.3-3.47.89-.79.59-1.19,1.43-1.19,2.5,0,1.47.71,2.61,2.12,3.43,1.41.82,3.53,1.23,6.35,1.23,1.95,0,4.69-.28,8.21-.85.65-.11,1.25.02,1.8.4.55.38.88.9,1,1.54l.42,2.03c.14.65.02,1.25-.36,1.8-.38.55-.9.88-1.55,1-3.39.56-6.56.85-9.53.85-5.28,0-9.35-1.05-12.22-3.15-2.87-2.1-4.3-5-4.3-8.7,0-2.96,1.07-5.33,3.22-7.09,2.15-1.76,5.17-2.65,9.06-2.65,1.58,0,3.25.21,5,.63h.08v-.13c-.45-1.1-.85-2.36-1.19-3.77-.06-.25-.21-.38-.47-.38-6.89.17-12.02.25-15.41.25-.68,0-1.25-.24-1.71-.72-.47-.48-.7-1.04-.7-1.69v-1.95c0-.65.23-1.21.7-1.69.47-.48,1.02-.72,1.67-.72,4.23,0,9.06-.07,14.48-.21.23,0,.34-.13.34-.38l-.13-1.65c-.03-.68.18-1.26.61-1.74.44-.48,1-.75,1.67-.8l2.79-.17c.65-.03,1.22.18,1.71.63.49.45.77,1,.83,1.65.03.68.07,1.31.13,1.91,0,.2.13.3.38.3l7.11-.25Z"/>
      <path class="cls-3" d="M326.07,291.98c.62.23,1.07.64,1.35,1.25.28.61.3,1.22.04,1.84-1.5,3.58-3.32,6.37-5.48,8.34-2.16,1.98-4.28,2.96-6.37,2.96-2.6,0-5.01-1.68-7.24-5.04-2.23-3.36-3.35-7.47-3.35-12.32,0-4.35.55-8.65,1.65-12.92.17-.68.54-1.21,1.12-1.61s1.22-.55,1.93-.47l3.09.34c.62.06,1.11.35,1.46.87.35.52.46,1.09.32,1.71-1.02,4.29-1.52,8.31-1.52,12.07,0,1.33.11,2.59.32,3.79.21,1.2.49,2.19.83,2.96.34.78.68,1.4,1.04,1.86.35.47.68.7.99.7.45,0,1.07-.5,1.86-1.5.79-1,1.62-2.46,2.5-4.38.28-.59.73-1.02,1.33-1.27.61-.25,1.22-.27,1.84-.04l2.29.85ZM332.55,274.03c.68-.2,1.33-.16,1.95.13.62.28,1.06.73,1.31,1.35,2.91,7.06,4.49,14.99,4.74,23.8.03.65-.2,1.21-.68,1.69-.48.48-1.04.72-1.69.72h-3.22c-.65,0-1.21-.23-1.69-.7s-.73-1.02-.76-1.67c-.25-7.59-1.64-14.8-4.15-21.64-.23-.62-.2-1.22.08-1.8.28-.58.73-.95,1.35-1.12l2.75-.76Z"/>
    </g>
    <g>
      <path d="M340.98,36.28c.59.31,1,.78,1.21,1.4.21.62.18,1.23-.11,1.82l-.64,1.19c-.56,1.1-1.44,1.54-2.63,1.31-.23-.06-.34.04-.34.3v1.14c0,.42-.15.78-.44,1.08-.3.3-.66.45-1.08.45-.03,0-.06.01-.08.04-.03.03-.03.06,0,.08.48.37,1.16.9,2.05,1.61.89.71,1.4,1.12,1.55,1.23.51.4.78.92.8,1.57.03.65-.18,1.2-.64,1.65l-1.14,1.19c-.45.48-1.02.74-1.71.78-.69.04-1.31-.15-1.84-.57-1.72-1.41-3.57-2.85-5.55-4.32-.48-.37-.76-.85-.83-1.44-.07-.59.11-1.12.53-1.57.06-.06.07-.11.04-.17-.03-.06-.07-.08-.13-.08h-1.95c-.25,0-.38.13-.38.38v.04c0,1.44-.02,2.56-.06,3.37s-.18,1.57-.4,2.29c-.23.72-.48,1.23-.76,1.54-.28.31-.77.58-1.46.8-.69.23-1.42.36-2.18.4-.76.04-1.82.06-3.18.06-1.24,0-2.43-.03-3.56-.08-.68-.03-1.26-.29-1.74-.78-.48-.49-.75-1.08-.8-1.76l-.17-1.95c0-.23-.1-.27-.3-.13-1.33,1.16-2.78,2.29-4.36,3.39-.56.39-1.19.54-1.86.44-.68-.1-1.26-.4-1.74-.91l-1.02-1.1c-.42-.48-.59-1.02-.51-1.63.08-.61.4-1.09.93-1.46,1.24-.82,2.5-1.74,3.77-2.75.03-.03.03-.06.02-.11-.01-.04-.04-.06-.06-.06-.54,0-1-.19-1.38-.57-.38-.38-.57-.84-.57-1.38v-.8c0-.2-.11-.27-.34-.21-.54.17-1.07.13-1.61-.13-.54-.25-.93-.65-1.19-1.19l-.51-1.19c-.28-.59-.3-1.19-.06-1.8.24-.61.66-1.05,1.25-1.33.06-.03.17-.08.34-.15.17-.07.3-.13.38-.19.08-.03.13-.1.15-.21.01-.11,0-.2-.06-.25l-.76-.89c-.4-.45-.55-.99-.47-1.61.08-.62.4-1.09.93-1.4l.3-.21c.23-.11.27-.27.13-.47l-.89-1.23c-.37-.51-.47-1.06-.3-1.65s.54-1.03,1.1-1.31c.17-.08.41-.2.72-.36.31-.15.54-.28.68-.36.03-.03.04-.06.04-.11s-.03-.06-.08-.06h-.3c-.65,0-1.21-.24-1.69-.72-.48-.48-.72-1.04-.72-1.69v-4.49c0-.65.24-1.21.72-1.69.48-.48,1.04-.72,1.69-.72h12.24c.25,0,.38-.13.38-.38v-.17c0-.65.24-1.21.72-1.69.48-.48,1.04-.72,1.69-.72h3.22c.65,0,1.21.24,1.69.72.48.48.72,1.04.72,1.69v.17c0,.25.13.38.38.38h12.24c.65,0,1.21.24,1.69.72s.72,1.04.72,1.69v4.49c0,1.02-.45,1.74-1.35,2.16-.2.08-.32.27-.38.55-.14,1.35-.61,2.54-1.4,3.56-1.07,1.35-1.93,2.37-2.58,3.05-.17.17-.14.31.08.42,1.35.96,3.08,1.98,5.17,3.05ZM310.58,32.76c.08-.03.13-.11.13-.23s-.03-.22-.08-.28c-.17-.17-.41-.42-.72-.74-.31-.32-.54-.57-.68-.74-.17-.17-.35-.2-.55-.08l-.89.51c-.2.11-.21.25-.04.42.17.17.41.43.72.78.31.35.55.61.72.78.17.23.35.25.55.08.08-.06.23-.14.42-.25.2-.11.34-.2.42-.25ZM310.54,22.26v.76c0,.08.03.15.11.19.07.04.13.04.19-.02.08-.06.2-.13.34-.23.14-.1.24-.18.3-.23,1.3-.96,2.63-1.1,3.98-.42l.89.47c.28.11.52.17.72.17h2.88c.2,0,.44-.06.72-.17l1.61-.72s.04-.06.04-.11-.03-.06-.08-.06h-11.31c-.25,0-.38.13-.38.38ZM311.47,39.24h21.93c.06,0,.08-.03.08-.08s-.01-.1-.04-.13c-.9-.59-1.82-1.24-2.75-1.95-.06-.06-.14-.08-.25-.08s-.18.04-.21.13c-.48.71-1.14,1.06-1.99,1.06h-11.26c-.85,0-1.51-.35-1.99-1.06-.11-.2-.27-.23-.47-.08-1.24.88-2.27,1.55-3.09,2.03-.03.03-.04.06-.04.11s.03.06.08.06ZM316.38,27.89c.06-.06.07-.12.04-.19-.03-.07-.07-.11-.13-.11h-2.67c-.08,0-.14.01-.17.04-.06.06-.06.11,0,.17.14.14.35.36.61.66.27.3.47.51.61.66.14.2.31.2.51,0,.28-.25.68-.66,1.19-1.23ZM319.64,46.65v-1.31c0-.25-.13-.38-.38-.38h-4.74c-.06,0-.08.03-.08.08s.01.1.04.13l.04.04c.4.34.61.76.64,1.27.03.51-.14.95-.51,1.31-.03.03-.04.07-.02.13.01.06.05.08.11.08,1.86.08,3.01.13,3.43.13.73,0,1.16-.06,1.29-.19.13-.13.19-.56.19-1.29ZM323.28,29.67c-.14-.17-.3-.17-.47,0-.51.59-1.31,1.44-2.41,2.54-.06.03-.07.08-.04.15.03.07.07.11.13.11h4.74c.06,0,.11-.04.15-.11.04-.07.04-.12-.02-.15-.68-.76-1.37-1.61-2.07-2.54ZM333.65,21.88h-7.62c-.06,0-.1.02-.13.06-.03.04-.01.09.04.15.2.14.37.37.51.68.31.59.8,1.43,1.48,2.5.03.03.06.03.11,0,.04-.03.06-.06.06-.08,0-.62.22-1.15.66-1.59.44-.44.97-.66,1.59-.66h3.3c.25,0,.38-.11.38-.34v-.34c0-.25-.13-.38-.38-.38ZM330.01,28.11c.45.51.8.89,1.06,1.14.17.17.34.17.51,0,.03-.03.38-.42,1.06-1.19.11-.17.07-.25-.13-.25h-2.37c-.06,0-.1.04-.13.11-.03.07-.03.13,0,.19Z"/>
      <path d="M337.93,77.58c.62.23,1.07.64,1.33,1.23.27.59.28,1.2.02,1.82-2.06,4.86-4.56,8.38-7.49,10.59-2.94,2.2-6.35,3.3-10.25,3.3-3.47,0-6.15-.49-8.04-1.48-1.89-.99-3.28-2.7-4.17-5.12s-1.33-5.87-1.33-10.33c0-5.22.15-10.63.47-16.22.06-.68.33-1.25.83-1.71.49-.47,1.08-.68,1.76-.66l3.43.13c.65.03,1.19.28,1.63.76.44.48.64,1.04.61,1.69-.31,5.36-.47,10.7-.47,16,0,2.57.18,4.52.53,5.86.35,1.34.9,2.25,1.63,2.73.73.48,1.78.72,3.13.72,2.06,0,3.94-.69,5.63-2.08,1.69-1.38,3.3-3.7,4.83-6.94.31-.62.77-1.06,1.38-1.31.61-.25,1.22-.27,1.84-.04l2.71,1.06Z"/>
      <path d="M337.68,102.91c.65-.03,1.22.18,1.71.63.49.45.75,1,.78,1.65l.04,2.37c.03.68-.18,1.26-.64,1.76-.45.49-1.02.77-1.69.83-5.39.54-9.46,1.8-12.22,3.79-2.75,1.99-4.13,4.41-4.13,7.26,0,2.37.83,4.27,2.48,5.7s3.79,2.14,6.41,2.14c.88,0,1.75-.06,2.63-.17.68-.08,1.28.06,1.8.44.52.38.83.9.91,1.55l.3,2.58c.08.68-.07,1.28-.47,1.82-.4.54-.93.85-1.61.93-1.3.17-2.63.25-3.98.25-5.19,0-9.35-1.31-12.47-3.94-3.12-2.63-4.68-6.11-4.68-10.46,0-1.92.57-3.92,1.71-5.99,1.14-2.08,2.67-3.86,4.59-5.36.03,0,.04-.03.04-.08,0-.03-.01-.04-.04-.04-4.04.11-8.06.2-12.07.25-.65,0-1.21-.24-1.67-.72-.47-.48-.7-1.04-.7-1.69v-2.37c0-.65.23-1.21.7-1.69.47-.48,1.02-.72,1.67-.72,10.92-.06,21.11-.3,30.57-.72Z"/>
      <path d="M333.19,173.55c.51.4.8.92.87,1.59.07.66-.11,1.24-.53,1.71l-1.95,2.29c-.45.51-1.01.8-1.67.87-.66.07-1.26-.09-1.8-.49-4.04-3.02-8.37-6.12-13-9.32-2.77-1.92-4.67-3.32-5.72-4.21-1.04-.89-1.75-1.69-2.12-2.41-.37-.72-.55-1.7-.55-2.94,0-1.86.44-3.27,1.33-4.23.89-.96,3.21-2.62,6.97-5,4.38-2.74,8.43-5.41,12.15-8,.54-.39,1.14-.54,1.82-.42.68.11,1.21.44,1.61.97l1.78,2.46c.4.54.54,1.13.44,1.78-.1.65-.42,1.16-.95,1.52-3.44,2.37-7.37,4.91-11.77,7.62-1.69,1.04-2.79,1.77-3.3,2.18-.51.41-.76.78-.76,1.12s.22.7.66,1.08c.44.38,1.49,1.14,3.15,2.27,4.88,3.3,9.33,6.49,13.34,9.57Z"/>
      <path d="M330.56,196.29h-12.66c-.23,0-.37.13-.42.38-1.61,8.16-3.54,15.95-5.8,23.37-.2.65-.59,1.14-1.19,1.48s-1.21.44-1.86.3l-2.96-.68c-.65-.14-1.13-.48-1.44-1.02-.31-.54-.37-1.11-.17-1.74,2.12-6.78,3.98-14.03,5.59-21.76.06-.23-.04-.34-.3-.34h-2.33c-.65,0-1.21-.24-1.69-.72-.48-.48-.72-1.04-.72-1.69v-1.95c0-.65.24-1.21.72-1.69s1.04-.72,1.69-.72h3.64c.23,0,.37-.11.42-.34.03-.23.08-.55.17-.97.08-.42.14-.73.17-.93.11-.68.43-1.23.95-1.65.52-.42,1.12-.61,1.8-.55l2.88.21c.65.06,1.17.35,1.57.87.39.52.54,1.09.42,1.71-.03.14-.06.35-.11.64s-.08.49-.11.63c-.06.25.04.38.3.38h11.43c.17,0,.37.03.59.08.06.03.11.01.15-.04s.05-.11.02-.17c-.08-.2-.23-.48-.42-.85-.2-.37-.34-.63-.42-.8-.28-.54-.33-1.09-.15-1.67.18-.58.54-1.01,1.08-1.29.56-.28,1.14-.32,1.71-.13.58.2,1.02.58,1.33,1.14.14.25.34.63.59,1.12.25.49.45.87.59,1.12.28.56.32,1.13.13,1.69-.2.57-.58.97-1.14,1.23-.54.23-1.03.28-1.48.17-.06-.03-.12-.01-.19.04-.07.06-.09.11-.06.17.06.23.08.42.08.59v1.95c0,.65-.24,1.21-.72,1.69-.48.48-1.04.72-1.69.72ZM339.2,216.44l.25,2.03c.08.68-.08,1.28-.49,1.8-.41.52-.94.84-1.59.95-2.26.31-4.43.46-6.52.46-4.18,0-7.48-.78-9.91-2.33-2.43-1.55-3.64-3.53-3.64-5.93,0-1.55.69-3.12,2.07-4.7,1.02-1.13,2.34-1.4,3.98-.8l1.65.63c.54.2.86.57.97,1.12.11.55-.01,1.04-.38,1.46-.45.51-.68.99-.68,1.44,0,.68.5,1.24,1.5,1.67,1,.44,2.48.66,4.42.66s3.92-.14,5.67-.42c.65-.11,1.23.03,1.76.42.52.4.83.9.91,1.52ZM321.08,201.24c-.06-.68.13-1.27.57-1.78.44-.51,1-.79,1.67-.85,4.88-.39,9.19-.61,12.91-.63.68,0,1.26.23,1.74.7.48.47.72,1.04.72,1.71v1.74c0,.65-.23,1.21-.7,1.69-.47.48-1.02.72-1.67.72-3.64.03-7.83.24-12.58.64-.65.06-1.23-.13-1.74-.57-.51-.44-.79-.98-.85-1.63l-.08-1.74ZM340.94,185.15c.14.28.35.69.61,1.23.27.54.46.92.57,1.14.28.57.32,1.13.13,1.69-.2.56-.58.99-1.14,1.27-.56.28-1.14.33-1.71.13-.58-.2-1.02-.58-1.33-1.14-.25-.51-.66-1.27-1.23-2.29-.28-.56-.33-1.14-.15-1.71.18-.58.56-1.01,1.12-1.29.56-.28,1.16-.32,1.78-.13.62.2,1.07.57,1.35,1.1Z"/>
      <path d="M337.34,231.46c.65-.03,1.22.18,1.71.63.49.45.75,1,.78,1.65l.04,1.95c.03.65-.18,1.23-.63,1.74-.45.51-1,.78-1.65.8-.71.03-1.75.06-3.13.11-1.38.04-2.43.08-3.13.11-.23,0-.31.13-.25.38.68,2.37,1.75,4.84,3.22,7.41.31.56.37,1.14.17,1.71-.2.58-.58,1-1.14,1.25l-3.01,1.31c-1.33.56-2.77.52-4.32-.13-1.98-.85-4.02-1.27-6.14-1.27-1.52,0-2.68.3-3.47.89-.79.59-1.19,1.43-1.19,2.5,0,1.47.71,2.61,2.12,3.43,1.41.82,3.53,1.23,6.35,1.23,1.95,0,4.69-.28,8.21-.85.65-.11,1.25.02,1.8.4.55.38.88.9,1,1.54l.42,2.03c.14.65.02,1.25-.36,1.8-.38.55-.9.88-1.55,1-3.39.56-6.56.85-9.53.85-5.28,0-9.35-1.05-12.22-3.15-2.87-2.1-4.3-5-4.3-8.7,0-2.96,1.07-5.33,3.22-7.09,2.15-1.76,5.17-2.65,9.06-2.65,1.58,0,3.25.21,5,.63h.08v-.13c-.45-1.1-.85-2.36-1.19-3.77-.06-.25-.21-.38-.47-.38-6.89.17-12.02.25-15.41.25-.68,0-1.25-.24-1.71-.72-.47-.48-.7-1.04-.7-1.69v-1.95c0-.65.23-1.21.7-1.69.47-.48,1.02-.72,1.67-.72,4.23,0,9.06-.07,14.48-.21.23,0,.34-.13.34-.38l-.13-1.65c-.03-.68.18-1.26.61-1.74.44-.48,1-.75,1.67-.8l2.79-.17c.65-.03,1.22.18,1.71.63.49.45.77,1,.83,1.65.03.68.07,1.31.13,1.91,0,.2.13.3.38.3l7.11-.25Z"/>
      <path d="M326.07,291.98c.62.23,1.07.64,1.35,1.25.28.61.3,1.22.04,1.84-1.5,3.58-3.32,6.37-5.48,8.34-2.16,1.98-4.28,2.96-6.37,2.96-2.6,0-5.01-1.68-7.24-5.04-2.23-3.36-3.35-7.47-3.35-12.32,0-4.35.55-8.65,1.65-12.92.17-.68.54-1.21,1.12-1.61s1.22-.55,1.93-.47l3.09.34c.62.06,1.11.35,1.46.87.35.52.46,1.09.32,1.71-1.02,4.29-1.52,8.31-1.52,12.07,0,1.33.11,2.59.32,3.79.21,1.2.49,2.19.83,2.96.34.78.68,1.4,1.04,1.86.35.47.68.7.99.7.45,0,1.07-.5,1.86-1.5.79-1,1.62-2.46,2.5-4.38.28-.59.73-1.02,1.33-1.27.61-.25,1.22-.27,1.84-.04l2.29.85ZM332.55,274.03c.68-.2,1.33-.16,1.95.13.62.28,1.06.73,1.31,1.35,2.91,7.06,4.49,14.99,4.74,23.8.03.65-.2,1.21-.68,1.69-.48.48-1.04.72-1.69.72h-3.22c-.65,0-1.21-.23-1.69-.7s-.73-1.02-.76-1.67c-.25-7.59-1.64-14.8-4.15-21.64-.23-.62-.2-1.22.08-1.8.28-.58.73-.95,1.35-1.12l2.75-.76Z"/>
    </g>
    <ellipse class="cls-7" cx="204.63" cy="223.24" rx="48.57" ry="3.14"/>
    <ellipse class="cls-7" cx="92.2" cy="305.23" rx="48.57" ry="3.14"/>
    <path class="cls-6" d="M147.5,185.39c2.19,30.72-30.39,66.5-30.39,66.5l-30.2-6.97c18.08-28.69,22.49-59.02,22.49-59.02l38.1-.51Z"/>
    <path class="cls-6" d="M37.81,185.39c-2.19,30.72,30.39,66.5,30.39,66.5l30.2-6.97c-18.08-28.69-22.49-59.02-22.49-59.02l-38.1-.51Z"/>
    <path class="cls-6" d="M155.66,105.82c-8.47,28,14.21,67.99,14.21,67.99l29.44-.13c-10.74-30.37-8.46-59.4-8.46-59.4l-35.19-8.46Z"/>
    <path class="cls-6" d="M255.98,105.82c8.47,28-14.21,67.99-14.21,67.99l-29.44-.13c10.74-30.37,8.46-59.4,8.46-59.4l35.19-8.46Z"/>
    <path class="cls-6" d="M246.76,180.23c-.26,21.33-10.43,33.65-10.43,33.65h-60.81c-10.46-16.06-10.43-33.65-10.43-33.65h81.68Z"/>
    <polygon class="cls-6" points="254.96 181.31 156.88 181.31 173.99 94.12 235.95 94.12 254.96 181.31"/>
    <polygon class="cls-6" points="185.68 114.71 169.95 114.71 176.55 126.16 186.76 127.06 179.03 132.53 202.72 160.71 185.68 114.71"/>
    <polygon class="cls-6" points="223.98 114.71 239.72 114.71 233.11 126.16 222.9 127.06 230.64 132.53 206.94 160.71 223.98 114.71"/>
    <polygon class="cls-6" points="185.75 114.71 204.92 114.71 223.99 114.69 219.83 125.91 204.92 115.51 189.79 125.6 185.75 114.71"/>
    <polygon class="cls-2" points="197.51 120.45 199.8 128.13 210.35 128.13 212.32 120.45 204.92 115.51 197.51 120.45"/>
    <polygon class="cls-2" points="199.8 128.13 194.06 137.32 204.81 166.15 215.21 138.46 210.35 128.13 199.8 128.13"/>
    <line class="cls-5" x1="204.63" y1="191.49" x2="204.63" y2="213.57"/>
    <ellipse class="cls-8" cx="185.31" cy="216.27" rx="19.32" ry="9"/>
    <ellipse class="cls-8" cx="223.95" cy="216.27" rx="19.32" ry="9"/>
    <rect class="cls-4" x="128.39" y="12.52" width="152.95" height="102.17"/>
    <circle class="cls-2" cx="204.63" cy="63.61" r="30.97"/>
    <path class="cls-6" d="M136.55,263.35c-.28,22.45-10.98,35.42-10.98,35.42H61.54c-11.02-16.9-10.98-35.42-10.98-35.42h85.98Z"/>
    <polygon class="cls-6" points="145.26 264.54 42.01 264.54 60.02 172.75 125.25 172.75 145.26 264.54"/>
    <rect class="cls-4" x="11.95" y="86.8" width="161.02" height="107.56"/>
    <rect class="cls-8" x="61.54" y="298.77" width="63.83" height="6.46"/>
    <line class="cls-5" x1="92.2" y1="305.23" x2="92.2" y2="275.2"/>
    <path class="cls-1" d="M227.35,35.07s-2.92,9.63-12.81,15.07c0,0,8.73,5.85,12.61,17.04,0,0,4.74-12.98,12.02-16.82-5.7-2.85-10.33-10.2-11.82-15.3Z"/>
    <path class="cls-1" d="M182.9,34.77s-2.92,9.63-12.81,15.07c0,0,8.73,5.85,12.61,17.04,0,0,4.74-12.98,12.02-16.82-5.7-2.85-10.33-10.2-11.82-15.3Z"/>
    <path class="cls-9" d="M38.48,104.91c.16,1.97,2.78,6.51,3.91,10.73,1.34,5.03-2.05,9.42-4.58,9.42s-5.23-4.26-4.58-9.42c.31-2.47,1.88-4.65,2.29-6.66"/>
  </g>
</svg>